0
SECTION
2
HEADER
9
$ACADVER
1
AC1015
9
$DWGCODEPAGE
3
ANSI_1252
9
$INSBASE
10
0
20
0
30
0
9
$EXTMIN
10
0
20
0
30
0
9
$EXTMAX
10
85088
20
59400
30
0
9
$LIMMIN
10
0
20
0
9
$LIMMAX
10
85088
20
59400
9
$ORTHOMODE
70
0
9
$LTSCALE
40
25
9
$TEXTSIZE
40
2.5
9
$TEXTSTYLE
7
STANDARD
9
$CLAYER
8
0
9
$CELTYPE
6
BYLAYER
9
$CECOLOR
62
256
9
$DIMSTYLE
2
STANDARD
9
$INSUNITS
70
4
9
$MEASUREMENT
70
1
9
$PDMODE
70
0
9
$PSLTSCALE
70
1
9
$TILEMODE
70
1
9
$HANDSEED
5
54E
0
ENDSEC
0
SECTION
2
CLASSES
0
ENDSEC
0
SECTION
2
TABLES
0
TABLE
2
VPORT
5
10F
330
0
100
AcDbSymbolTable
70
1
0
VPORT
5
110
330
10F
100
AcDbSymbolTableRecord
100
AcDbViewportTableRecord
2
*Active
70
0
10
0
20
0
11
1
21
1
12
42544
22
29700
13
0
23
0
14
10
24
10
15
10
25
10
16
0
26
0
36
1
17
0
27
0
37
0
40
65340
41
1.432458
42
50
43
0
44
0
50
0
51
0
71
0
72
1000
73
1
74
3
75
0
76
0
77
0
78
0
281
0
65
1
110
0
120
0
130
0
111
1
121
0
131
0
112
0
122
1
132
0
79
0
146
0
0
ENDTAB
0
TABLE
2
LTYPE
5
111
330
0
100
AcDbSymbolTable
70
8
0
LTYPE
5
112
330
111
100
AcDbSymbolTableRecord
100
AcDbLinetypeTableRecord
2
ByBlock
70
0
3

72
65
73
0
40
0
0
LTYPE
5
113
330
111
100
AcDbSymbolTableRecord
100
AcDbLinetypeTableRecord
2
ByLayer
70
0
3

72
65
73
0
40
0
0
LTYPE
5
114
330
111
100
AcDbSymbolTableRecord
100
AcDbLinetypeTableRecord
2
CONTINUOUS
70
0
3
Solid line
72
65
73
0
40
0
0
LTYPE
5
115
330
111
100
AcDbSymbolTableRecord
100
AcDbLinetypeTableRecord
2
DASHED
70
0
3
Dashed __ __ __
72
65
73
2
40
19.05
49
12.7
74
0
49
-6.35
74
0
0
LTYPE
5
116
330
111
100
AcDbSymbolTableRecord
100
AcDbLinetypeTableRecord
2
HIDDEN
70
0
3
Hidden __ __ __
72
65
73
2
40
9.525
49
6.35
74
0
49
-3.175
74
0
0
LTYPE
5
117
330
111
100
AcDbSymbolTableRecord
100
AcDbLinetypeTableRecord
2
CENTER
70
0
3
Center ____ _ ____ _
72
65
73
4
40
50.8
49
31.75
74
0
49
-6.35
74
0
49
6.35
74
0
49
-6.35
74
0
0
LTYPE
5
118
330
111
100
AcDbSymbolTableRecord
100
AcDbLinetypeTableRecord
2
DASHDOT
70
0
3
Dash dot __ . __ . __
72
65
73
4
40
25.4
49
12.7
74
0
49
-6.35
74
0
49
0
74
0
49
-6.35
74
0
0
LTYPE
5
119
330
111
100
AcDbSymbolTableRecord
100
AcDbLinetypeTableRecord
2
PHANTOM
70
0
3
Phantom ____ _ _ ____
72
65
73
6
40
63.5
49
31.75
74
0
49
-6.35
74
0
49
6.35
74
0
49
-6.35
74
0
49
6.35
74
0
49
-6.35
74
0
0
ENDTAB
0
TABLE
2
LAYER
5
11A
330
0
100
AcDbSymbolTable
70
54
0
LAYER
5
11B
330
11A
100
AcDbSymbolTableRecord
100
AcDbLayerTableRecord
2
0
70
0
62
7
6
CONTINUOUS
370
-3
390
103
0
LAYER
5
11C
330
11A
100
AcDbSymbolTableRecord
100
AcDbLayerTableRecord
2
SPAN-SHEET-FRAME
70
0
62
7
6
CONTINUOUS
370
50
390
103
0
LAYER
5
11D
330
11A
100
AcDbSymbolTableRecord
100
AcDbLayerTableRecord
2
SPAN-SHEET-TITLE
70
0
62
7
6
CONTINUOUS
370
25
390
103
0
LAYER
5
11E
330
11A
100
AcDbSymbolTableRecord
100
AcDbLayerTableRecord
2
SPAN-TEXT
70
0
62
7
6
CONTINUOUS
370
-3
390
103
0
LAYER
5
11F
330
11A
100
AcDbSymbolTableRecord
100
AcDbLayerTableRecord
2
SPAN-SHEET-TEXT
70
0
62
2
6
CONTINUOUS
370
-3
390
103
0
LAYER
5
120
330
11A
100
AcDbSymbolTableRecord
100
AcDbLayerTableRecord
2
SPAN-SHEET-NOTES
70
0
62
7
6
CONTINUOUS
370
-3
390
103
0
LAYER
5
121
330
11A
100
AcDbSymbolTableRecord
100
AcDbLayerTableRecord
2
SPAN-GRID
70
0
62
8
6
CENTER
370
-3
390
103
0
LAYER
5
122
330
11A
100
AcDbSymbolTableRecord
100
AcDbLayerTableRecord
2
SPAN-GRID-BUBBLE
70
0
62
8
6
CONTINUOUS
370
-3
390
103
0
LAYER
5
123
330
11A
100
AcDbSymbolTableRecord
100
AcDbLayerTableRecord
2
SPAN-SLAB-EDGE
70
0
62
3
6
CONTINUOUS
370
35
390
103
0
LAYER
5
124
330
11A
100
AcDbSymbolTableRecord
100
AcDbLayerTableRecord
2
SPAN-COL
70
0
62
7
6
CONTINUOUS
370
35
390
103
0
LAYER
5
125
330
11A
100
AcDbSymbolTableRecord
100
AcDbLayerTableRecord
2
SPAN-COL-HATCH
70
0
62
7
6
CONTINUOUS
370
-3
390
103
0
LAYER
5
126
330
11A
100
AcDbSymbolTableRecord
100
AcDbLayerTableRecord
2
SPAN-OPENING
70
0
62
6
6
CONTINUOUS
370
-3
390
103
0
LAYER
5
127
330
11A
100
AcDbSymbolTableRecord
100
AcDbLayerTableRecord
2
SPAN-OPENING-HATCH
70
0
62
6
6
CONTINUOUS
370
-3
390
103
0
LAYER
5
128
330
11A
100
AcDbSymbolTableRecord
100
AcDbLayerTableRecord
2
SPAN-VOID
70
0
62
30
6
DASHED
370
-3
390
103
0
LAYER
5
129
330
11A
100
AcDbSymbolTableRecord
100
AcDbLayerTableRecord
2
SPAN-VOID-HATCH
70
0
62
30
6
CONTINUOUS
370
-3
390
103
0
LAYER
5
12A
330
11A
100
AcDbSymbolTableRecord
100
AcDbLayerTableRecord
2
SPAN-PT-ZONE
70
0
62
4
6
DASHDOT
370
-3
390
103
0
LAYER
5
12B
330
11A
100
AcDbSymbolTableRecord
100
AcDbLayerTableRecord
2
SPAN-PT-TENDON
70
0
62
3
6
CONTINUOUS
370
-3
390
103
0
LAYER
5
12C
330
11A
100
AcDbSymbolTableRecord
100
AcDbLayerTableRecord
2
SPAN-PT-HATCH
70
0
62
4
6
CONTINUOUS
370
-3
390
103
0
LAYER
5
12D
330
11A
100
AcDbSymbolTableRecord
100
AcDbLayerTableRecord
2
SPAN-RB-BOT
70
0
62
1
6
CONTINUOUS
370
50
390
103
0
LAYER
5
12E
330
11A
100
AcDbSymbolTableRecord
100
AcDbLayerTableRecord
2
SPAN-RB-TOP
70
0
62
5
6
CONTINUOUS
370
50
390
103
0
LAYER
5
12F
330
11A
100
AcDbSymbolTableRecord
100
AcDbLayerTableRecord
2
SPAN-RB-UBAR
70
0
62
6
6
CONTINUOUS
370
50
390
103
0
LAYER
5
130
330
11A
100
AcDbSymbolTableRecord
100
AcDbLayerTableRecord
2
SPAN-RB-TRIM
70
0
62
6
6
CONTINUOUS
370
50
390
103
0
LAYER
5
131
330
11A
100
AcDbSymbolTableRecord
100
AcDbLayerTableRecord
2
SPAN-RB-RANGE
70
0
62
6
6
CONTINUOUS
370
-3
390
103
0
LAYER
5
132
330
11A
100
AcDbSymbolTableRecord
100
AcDbLayerTableRecord
2
SPAN-RB-TEXT
70
0
62
7
6
CONTINUOUS
370
-3
390
103
0
LAYER
5
133
330
11A
100
AcDbSymbolTableRecord
100
AcDbLayerTableRecord
2
SPAN-RB-MESH
70
0
62
4
6
CONTINUOUS
370
-3
390
103
0
LAYER
5
134
330
11A
100
AcDbSymbolTableRecord
100
AcDbLayerTableRecord
2
SPAN-RB-PUNCH
70
0
62
6
6
CONTINUOUS
370
35
390
103
0
LAYER
5
135
330
11A
100
AcDbSymbolTableRecord
100
AcDbLayerTableRecord
2
SPAN-RB-TYPE
70
0
62
1
6
CONTINUOUS
370
-3
390
103
0
LAYER
5
136
330
11A
100
AcDbSymbolTableRecord
100
AcDbLayerTableRecord
2
SPAN-RB
70
0
62
6
6
CONTINUOUS
370
50
390
103
0
LAYER
5
137
330
11A
100
AcDbSymbolTableRecord
100
AcDbLayerTableRecord
2
SPAN-RB-B1
70
0
62
6
6
CONTINUOUS
370
50
390
103
0
LAYER
5
138
330
11A
100
AcDbSymbolTableRecord
100
AcDbLayerTableRecord
2
SPAN-RB-B2
70
0
62
6
6
CONTINUOUS
370
50
390
103
0
LAYER
5
139
330
11A
100
AcDbSymbolTableRecord
100
AcDbLayerTableRecord
2
SPAN-RB-T1
70
0
62
6
6
CONTINUOUS
370
50
390
103
0
LAYER
5
13A
330
11A
100
AcDbSymbolTableRecord
100
AcDbLayerTableRecord
2
SPAN-RB-T2
70
0
62
6
6
CONTINUOUS
370
50
390
103
0
LAYER
5
13B
330
11A
100
AcDbSymbolTableRecord
100
AcDbLayerTableRecord
2
SPAN-STAIR
70
0
62
8
6
CONTINUOUS
370
-3
390
103
0
LAYER
5
13C
330
11A
100
AcDbSymbolTableRecord
100
AcDbLayerTableRecord
2
SPAN-WALL
70
0
62
8
6
CONTINUOUS
370
50
390
103
0
LAYER
5
13D
330
11A
100
AcDbSymbolTableRecord
100
AcDbLayerTableRecord
2
SPAN-WALL-HATCH
70
0
62
8
6
CONTINUOUS
370
-3
390
103
0
LAYER
5
13E
330
11A
100
AcDbSymbolTableRecord
100
AcDbLayerTableRecord
2
SPAN-POUR-STRIP
70
0
62
30
6
DASHED
370
-3
390
103
0
LAYER
5
13F
330
11A
100
AcDbSymbolTableRecord
100
AcDbLayerTableRecord
2
SPAN-POUR-STRIP-HATCH
70
0
62
30
6
CONTINUOUS
370
-3
390
103
0
LAYER
5
140
330
11A
100
AcDbSymbolTableRecord
100
AcDbLayerTableRecord
2
SPAN-LEVEL
70
0
62
4
6
CONTINUOUS
370
-3
390
103
0
LAYER
5
141
330
11A
100
AcDbSymbolTableRecord
100
AcDbLayerTableRecord
2
SPAN-SLAB-THK
70
0
62
3
6
DASHED
370
-3
390
103
0
LAYER
5
142
330
11A
100
AcDbSymbolTableRecord
100
AcDbLayerTableRecord
2
SPAN-SLAB-THK-HATCH
70
0
62
8
6
CONTINUOUS
370
-3
390
103
0
LAYER
5
143
330
11A
100
AcDbSymbolTableRecord
100
AcDbLayerTableRecord
2
SPAN-PT-ANCHOR
70
0
62
3
6
CONTINUOUS
370
-3
390
103
0
LAYER
5
144
330
11A
100
AcDbSymbolTableRecord
100
AcDbLayerTableRecord
2
SPAN-BEAM
70
0
62
3
6
CONTINUOUS
370
25
390
103
0
LAYER
5
145
330
11A
100
AcDbSymbolTableRecord
100
AcDbLayerTableRecord
2
SPAN-SUNKEN
70
0
62
4
6
CONTINUOUS
370
-3
390
103
0
LAYER
5
146
330
11A
100
AcDbSymbolTableRecord
100
AcDbLayerTableRecord
2
SPAN-SUNKEN-HATCH
70
0
62
8
6
CONTINUOUS
370
-3
390
103
0
LAYER
5
147
330
11A
100
AcDbSymbolTableRecord
100
AcDbLayerTableRecord
2
SPAN-CALLOUT
70
0
62
3
6
CONTINUOUS
370
-3
390
103
0
LAYER
5
148
330
11A
100
AcDbSymbolTableRecord
100
AcDbLayerTableRecord
2
SPAN-DIM
70
0
62
8
6
CONTINUOUS
370
-3
390
103
0
LAYER
5
149
330
11A
100
AcDbSymbolTableRecord
100
AcDbLayerTableRecord
2
SPAN-DETAIL
70
0
62
7
6
CONTINUOUS
370
-3
390
103
0
LAYER
5
14A
330
11A
100
AcDbSymbolTableRecord
100
AcDbLayerTableRecord
2
SPAN-DETAIL-HATCH
70
0
62
8
6
CONTINUOUS
370
-3
390
103
0
LAYER
5
14B
330
11A
100
AcDbSymbolTableRecord
100
AcDbLayerTableRecord
2
SPAN-SHEET-SCHEDULE
70
0
62
7
6
CONTINUOUS
370
-3
390
103
0
LAYER
5
14C
330
11A
100
AcDbSymbolTableRecord
100
AcDbLayerTableRecord
2
SPAN-SHEET-SCHEDULE-TEXT
70
0
62
7
6
CONTINUOUS
370
-3
390
103
0
LAYER
5
14D
330
11A
100
AcDbSymbolTableRecord
100
AcDbLayerTableRecord
2
SPAN-HATCH
70
0
62
8
6
CONTINUOUS
370
-3
390
103
0
LAYER
5
14E
330
11A
100
AcDbSymbolTableRecord
100
AcDbLayerTableRecord
2
SPAN-PT-CABLE
70
0
62
3
6
CONTINUOUS
370
50
390
103
0
LAYER
5
14F
330
11A
100
AcDbSymbolTableRecord
100
AcDbLayerTableRecord
2
SPAN-PT-TEXT
70
0
62
3
6
CONTINUOUS
370
-3
390
103
0
LAYER
5
150
330
11A
100
AcDbSymbolTableRecord
100
AcDbLayerTableRecord
2
SPAN-XREF
70
0
62
7
6
CONTINUOUS
370
-3
390
103
0
ENDTAB
0
TABLE
2
STYLE
5
151
330
0
100
AcDbSymbolTable
70
3
0
STYLE
5
152
330
151
100
AcDbSymbolTableRecord
100
AcDbTextStyleTableRecord
2
STANDARD
70
0
40
0
41
1
50
0
71
0
42
2.5
3
arial.ttf
4

0
STYLE
5
153
330
151
100
AcDbSymbolTableRecord
100
AcDbTextStyleTableRecord
2
SPAN-REBAR
70
0
40
0
41
1
50
0
71
0
42
2.5
3
romans.shx
4

0
STYLE
5
154
330
151
100
AcDbSymbolTableRecord
100
AcDbTextStyleTableRecord
2
SPAN-TITLE
70
0
40
0
41
1
50
0
71
0
42
2.5
3
arial.ttf
4

0
ENDTAB
0
TABLE
2
VIEW
5
155
330
0
100
AcDbSymbolTable
70
0
0
ENDTAB
0
TABLE
2
UCS
5
156
330
0
100
AcDbSymbolTable
70
0
0
ENDTAB
0
TABLE
2
APPID
5
157
330
0
100
AcDbSymbolTable
70
1
0
APPID
5
158
330
157
100
AcDbSymbolTableRecord
100
AcDbRegAppTableRecord
2
ACAD
70
0
0
ENDTAB
0
TABLE
2
DIMSTYLE
5
159
330
0
100
AcDbSymbolTable
70
1
100
AcDbDimStyleTable
0
DIMSTYLE
105
15A
330
159
100
AcDbSymbolTableRecord
100
AcDbDimStyleTableRecord
2
STANDARD
70
0
40
1
41
2.5
42
0.625
43
3.75
44
1.25
140
2.5
141
2.5
147
0.625
0
ENDTAB
0
TABLE
2
BLOCK_RECORD
5
107
330
0
100
AcDbSymbolTable
70
3
0
BLOCK_RECORD
5
108
330
107
100
AcDbSymbolTableRecord
100
AcDbBlockTableRecord
2
*Model_Space
340
105
0
BLOCK_RECORD
5
109
330
107
100
AcDbSymbolTableRecord
100
AcDbBlockTableRecord
2
*Paper_Space
340
106
0
BLOCK_RECORD
5
10E
330
107
100
AcDbSymbolTableRecord
100
AcDbBlockTableRecord
2
FRAMING_REBAR_U_BARS_AROUND_REGIONS_L02
340
0
0
ENDTAB
0
ENDSEC
0
SECTION
2
BLOCKS
0
BLOCK
5
10A
330
108
100
AcDbEntity
8
0
100
AcDbBlockBegin
2
*Model_Space
70
0
10
0
20
0
30
0
3
*Model_Space
1

0
ENDBLK
5
10B
330
108
100
AcDbEntity
8
0
100
AcDbBlockEnd
0
BLOCK
5
10C
330
109
100
AcDbEntity
67
1
8
0
100
AcDbBlockBegin
2
*Paper_Space
70
0
10
0
20
0
30
0
3
*Paper_Space
1

0
ENDBLK
5
10D
330
109
100
AcDbEntity
67
1
8
0
100
AcDbBlockEnd
0
BLOCK
5
15B
330
10E
100
AcDbEntity
8
0
100
AcDbBlockBegin
2
FRAMING_REBAR_U_BARS_AROUND_REGIONS_L02
70
0
10
0
20
0
30
0
3
FRAMING_REBAR_U_BARS_AROUND_REGIONS_L02
1

0
LWPOLYLINE
5
15C
330
10E
100
AcDbEntity
8
SPAN-SHEET-FRAME
370
13
100
AcDbPolyline
90
4
70
1
43
0
10
0
20
0
10
84100
20
0
10
84100
20
59400
10
0
20
59400
0
LWPOLYLINE
5
15D
330
10E
100
AcDbEntity
8
SPAN-SHEET-FRAME
100
AcDbPolyline
90
4
70
1
43
0
10
2000
20
1000
10
83100
20
1000
10
83100
20
58400
10
2000
20
58400
0
LINE
5
15E
330
10E
100
AcDbEntity
8
SPAN-SHEET-FRAME
100
AcDbLine
10
42050
20
0
30
0
11
42050
21
600
31
0
0
LINE
5
15F
330
10E
100
AcDbEntity
8
SPAN-SHEET-FRAME
100
AcDbLine
10
42050
20
59400
30
0
11
42050
21
58800
31
0
0
LINE
5
160
330
10E
100
AcDbEntity
8
SPAN-SHEET-FRAME
100
AcDbLine
10
0
20
29700
30
0
11
600
21
29700
31
0
0
LINE
5
161
330
10E
100
AcDbEntity
8
SPAN-SHEET-FRAME
100
AcDbLine
10
84100
20
29700
30
0
11
83500
21
29700
31
0
0
LINE
5
162
330
10E
100
AcDbEntity
8
SPAN-SHEET-FRAME
370
13
100
AcDbLine
10
2000
20
58400
30
0
11
2000
21
59400
31
0
0
LINE
5
163
330
10E
100
AcDbEntity
8
SPAN-SHEET-FRAME
370
13
100
AcDbLine
10
2000
20
0
30
0
11
2000
21
1000
31
0
0
TEXT
5
164
330
10E
100
AcDbEntity
8
SPAN-SHEET-FRAME
100
AcDbText
10
7068.75
20
58900
30
0
40
250
1
1
7
STANDARD
72
1
11
7068.75
21
58900
31
0
100
AcDbText
73
2
0
TEXT
5
165
330
10E
100
AcDbEntity
8
SPAN-SHEET-FRAME
100
AcDbText
10
7068.75
20
500
30
0
40
250
1
1
7
STANDARD
72
1
11
7068.75
21
500
31
0
100
AcDbText
73
2
0
LINE
5
166
330
10E
100
AcDbEntity
8
SPAN-SHEET-FRAME
370
13
100
AcDbLine
10
12137.5
20
58400
30
0
11
12137.5
21
59400
31
0
0
LINE
5
167
330
10E
100
AcDbEntity
8
SPAN-SHEET-FRAME
370
13
100
AcDbLine
10
12137.5
20
0
30
0
11
12137.5
21
1000
31
0
0
TEXT
5
168
330
10E
100
AcDbEntity
8
SPAN-SHEET-FRAME
100
AcDbText
10
17206.25
20
58900
30
0
40
250
1
2
7
STANDARD
72
1
11
17206.25
21
58900
31
0
100
AcDbText
73
2
0
TEXT
5
169
330
10E
100
AcDbEntity
8
SPAN-SHEET-FRAME
100
AcDbText
10
17206.25
20
500
30
0
40
250
1
2
7
STANDARD
72
1
11
17206.25
21
500
31
0
100
AcDbText
73
2
0
LINE
5
16A
330
10E
100
AcDbEntity
8
SPAN-SHEET-FRAME
370
13
100
AcDbLine
10
22275
20
58400
30
0
11
22275
21
59400
31
0
0
LINE
5
16B
330
10E
100
AcDbEntity
8
SPAN-SHEET-FRAME
370
13
100
AcDbLine
10
22275
20
0
30
0
11
22275
21
1000
31
0
0
TEXT
5
16C
330
10E
100
AcDbEntity
8
SPAN-SHEET-FRAME
100
AcDbText
10
27343.75
20
58900
30
0
40
250
1
3
7
STANDARD
72
1
11
27343.75
21
58900
31
0
100
AcDbText
73
2
0
TEXT
5
16D
330
10E
100
AcDbEntity
8
SPAN-SHEET-FRAME
100
AcDbText
10
27343.75
20
500
30
0
40
250
1
3
7
STANDARD
72
1
11
27343.75
21
500
31
0
100
AcDbText
73
2
0
LINE
5
16E
330
10E
100
AcDbEntity
8
SPAN-SHEET-FRAME
370
13
100
AcDbLine
10
32412.5
20
58400
30
0
11
32412.5
21
59400
31
0
0
LINE
5
16F
330
10E
100
AcDbEntity
8
SPAN-SHEET-FRAME
370
13
100
AcDbLine
10
32412.5
20
0
30
0
11
32412.5
21
1000
31
0
0
TEXT
5
170
330
10E
100
AcDbEntity
8
SPAN-SHEET-FRAME
100
AcDbText
10
37481.25
20
58900
30
0
40
250
1
4
7
STANDARD
72
1
11
37481.25
21
58900
31
0
100
AcDbText
73
2
0
TEXT
5
171
330
10E
100
AcDbEntity
8
SPAN-SHEET-FRAME
100
AcDbText
10
37481.25
20
500
30
0
40
250
1
4
7
STANDARD
72
1
11
37481.25
21
500
31
0
100
AcDbText
73
2
0
LINE
5
172
330
10E
100
AcDbEntity
8
SPAN-SHEET-FRAME
370
13
100
AcDbLine
10
42550
20
58400
30
0
11
42550
21
59400
31
0
0
LINE
5
173
330
10E
100
AcDbEntity
8
SPAN-SHEET-FRAME
370
13
100
AcDbLine
10
42550
20
0
30
0
11
42550
21
1000
31
0
0
TEXT
5
174
330
10E
100
AcDbEntity
8
SPAN-SHEET-FRAME
100
AcDbText
10
47618.75
20
58900
30
0
40
250
1
5
7
STANDARD
72
1
11
47618.75
21
58900
31
0
100
AcDbText
73
2
0
TEXT
5
175
330
10E
100
AcDbEntity
8
SPAN-SHEET-FRAME
100
AcDbText
10
47618.75
20
500
30
0
40
250
1
5
7
STANDARD
72
1
11
47618.75
21
500
31
0
100
AcDbText
73
2
0
LINE
5
176
330
10E
100
AcDbEntity
8
SPAN-SHEET-FRAME
370
13
100
AcDbLine
10
52687.5
20
58400
30
0
11
52687.5
21
59400
31
0
0
LINE
5
177
330
10E
100
AcDbEntity
8
SPAN-SHEET-FRAME
370
13
100
AcDbLine
10
52687.5
20
0
30
0
11
52687.5
21
1000
31
0
0
TEXT
5
178
330
10E
100
AcDbEntity
8
SPAN-SHEET-FRAME
100
AcDbText
10
57756.25
20
58900
30
0
40
250
1
6
7
STANDARD
72
1
11
57756.25
21
58900
31
0
100
AcDbText
73
2
0
TEXT
5
179
330
10E
100
AcDbEntity
8
SPAN-SHEET-FRAME
100
AcDbText
10
57756.25
20
500
30
0
40
250
1
6
7
STANDARD
72
1
11
57756.25
21
500
31
0
100
AcDbText
73
2
0
LINE
5
17A
330
10E
100
AcDbEntity
8
SPAN-SHEET-FRAME
370
13
100
AcDbLine
10
62825
20
58400
30
0
11
62825
21
59400
31
0
0
LINE
5
17B
330
10E
100
AcDbEntity
8
SPAN-SHEET-FRAME
370
13
100
AcDbLine
10
62825
20
0
30
0
11
62825
21
1000
31
0
0
TEXT
5
17C
330
10E
100
AcDbEntity
8
SPAN-SHEET-FRAME
100
AcDbText
10
67893.75
20
58900
30
0
40
250
1
7
7
STANDARD
72
1
11
67893.75
21
58900
31
0
100
AcDbText
73
2
0
TEXT
5
17D
330
10E
100
AcDbEntity
8
SPAN-SHEET-FRAME
100
AcDbText
10
67893.75
20
500
30
0
40
250
1
7
7
STANDARD
72
1
11
67893.75
21
500
31
0
100
AcDbText
73
2
0
LINE
5
17E
330
10E
100
AcDbEntity
8
SPAN-SHEET-FRAME
370
13
100
AcDbLine
10
72962.5
20
58400
30
0
11
72962.5
21
59400
31
0
0
LINE
5
17F
330
10E
100
AcDbEntity
8
SPAN-SHEET-FRAME
370
13
100
AcDbLine
10
72962.5
20
0
30
0
11
72962.5
21
1000
31
0
0
TEXT
5
180
330
10E
100
AcDbEntity
8
SPAN-SHEET-FRAME
100
AcDbText
10
78031.25
20
58900
30
0
40
250
1
8
7
STANDARD
72
1
11
78031.25
21
58900
31
0
100
AcDbText
73
2
0
TEXT
5
181
330
10E
100
AcDbEntity
8
SPAN-SHEET-FRAME
100
AcDbText
10
78031.25
20
500
30
0
40
250
1
8
7
STANDARD
72
1
11
78031.25
21
500
31
0
100
AcDbText
73
2
0
LINE
5
182
330
10E
100
AcDbEntity
8
SPAN-SHEET-FRAME
370
13
100
AcDbLine
10
83100
20
58400
30
0
11
83100
21
59400
31
0
0
LINE
5
183
330
10E
100
AcDbEntity
8
SPAN-SHEET-FRAME
370
13
100
AcDbLine
10
83100
20
0
30
0
11
83100
21
1000
31
0
0
LINE
5
184
330
10E
100
AcDbEntity
8
SPAN-SHEET-FRAME
370
13
100
AcDbLine
10
0
20
1000
30
0
11
2000
21
1000
31
0
0
LINE
5
185
330
10E
100
AcDbEntity
8
SPAN-SHEET-FRAME
370
13
100
AcDbLine
10
83100
20
1000
30
0
11
84100
21
1000
31
0
0
TEXT
5
186
330
10E
100
AcDbEntity
8
SPAN-SHEET-FRAME
100
AcDbText
10
1000
20
5783.333333
30
0
40
250
1
F
7
STANDARD
72
1
11
1000
21
5783.333333
31
0
100
AcDbText
73
2
0
TEXT
5
187
330
10E
100
AcDbEntity
8
SPAN-SHEET-FRAME
100
AcDbText
10
83600
20
5783.333333
30
0
40
250
1
F
7
STANDARD
72
1
11
83600
21
5783.333333
31
0
100
AcDbText
73
2
0
LINE
5
188
330
10E
100
AcDbEntity
8
SPAN-SHEET-FRAME
370
13
100
AcDbLine
10
0
20
10566.666667
30
0
11
2000
21
10566.666667
31
0
0
LINE
5
189
330
10E
100
AcDbEntity
8
SPAN-SHEET-FRAME
370
13
100
AcDbLine
10
83100
20
10566.666667
30
0
11
84100
21
10566.666667
31
0
0
TEXT
5
18A
330
10E
100
AcDbEntity
8
SPAN-SHEET-FRAME
100
AcDbText
10
1000
20
15350
30
0
40
250
1
E
7
STANDARD
72
1
11
1000
21
15350
31
0
100
AcDbText
73
2
0
TEXT
5
18B
330
10E
100
AcDbEntity
8
SPAN-SHEET-FRAME
100
AcDbText
10
83600
20
15350
30
0
40
250
1
E
7
STANDARD
72
1
11
83600
21
15350
31
0
100
AcDbText
73
2
0
LINE
5
18C
330
10E
100
AcDbEntity
8
SPAN-SHEET-FRAME
370
13
100
AcDbLine
10
0
20
20133.333333
30
0
11
2000
21
20133.333333
31
0
0
LINE
5
18D
330
10E
100
AcDbEntity
8
SPAN-SHEET-FRAME
370
13
100
AcDbLine
10
83100
20
20133.333333
30
0
11
84100
21
20133.333333
31
0
0
TEXT
5
18E
330
10E
100
AcDbEntity
8
SPAN-SHEET-FRAME
100
AcDbText
10
1000
20
24916.666667
30
0
40
250
1
D
7
STANDARD
72
1
11
1000
21
24916.666667
31
0
100
AcDbText
73
2
0
TEXT
5
18F
330
10E
100
AcDbEntity
8
SPAN-SHEET-FRAME
100
AcDbText
10
83600
20
24916.666667
30
0
40
250
1
D
7
STANDARD
72
1
11
83600
21
24916.666667
31
0
100
AcDbText
73
2
0
LINE
5
190
330
10E
100
AcDbEntity
8
SPAN-SHEET-FRAME
370
13
100
AcDbLine
10
0
20
29700
30
0
11
2000
21
29700
31
0
0
LINE
5
191
330
10E
100
AcDbEntity
8
SPAN-SHEET-FRAME
370
13
100
AcDbLine
10
83100
20
29700
30
0
11
84100
21
29700
31
0
0
TEXT
5
192
330
10E
100
AcDbEntity
8
SPAN-SHEET-FRAME
100
AcDbText
10
1000
20
34483.333333
30
0
40
250
1
C
7
STANDARD
72
1
11
1000
21
34483.333333
31
0
100
AcDbText
73
2
0
TEXT
5
193
330
10E
100
AcDbEntity
8
SPAN-SHEET-FRAME
100
AcDbText
10
83600
20
34483.333333
30
0
40
250
1
C
7
STANDARD
72
1
11
83600
21
34483.333333
31
0
100
AcDbText
73
2
0
LINE
5
194
330
10E
100
AcDbEntity
8
SPAN-SHEET-FRAME
370
13
100
AcDbLine
10
0
20
39266.666667
30
0
11
2000
21
39266.666667
31
0
0
LINE
5
195
330
10E
100
AcDbEntity
8
SPAN-SHEET-FRAME
370
13
100
AcDbLine
10
83100
20
39266.666667
30
0
11
84100
21
39266.666667
31
0
0
TEXT
5
196
330
10E
100
AcDbEntity
8
SPAN-SHEET-FRAME
100
AcDbText
10
1000
20
44050
30
0
40
250
1
B
7
STANDARD
72
1
11
1000
21
44050
31
0
100
AcDbText
73
2
0
TEXT
5
197
330
10E
100
AcDbEntity
8
SPAN-SHEET-FRAME
100
AcDbText
10
83600
20
44050
30
0
40
250
1
B
7
STANDARD
72
1
11
83600
21
44050
31
0
100
AcDbText
73
2
0
LINE
5
198
330
10E
100
AcDbEntity
8
SPAN-SHEET-FRAME
370
13
100
AcDbLine
10
0
20
48833.333333
30
0
11
2000
21
48833.333333
31
0
0
LINE
5
199
330
10E
100
AcDbEntity
8
SPAN-SHEET-FRAME
370
13
100
AcDbLine
10
83100
20
48833.333333
30
0
11
84100
21
48833.333333
31
0
0
TEXT
5
19A
330
10E
100
AcDbEntity
8
SPAN-SHEET-FRAME
100
AcDbText
10
1000
20
53616.666667
30
0
40
250
1
A
7
STANDARD
72
1
11
1000
21
53616.666667
31
0
100
AcDbText
73
2
0
TEXT
5
19B
330
10E
100
AcDbEntity
8
SPAN-SHEET-FRAME
100
AcDbText
10
83600
20
53616.666667
30
0
40
250
1
A
7
STANDARD
72
1
11
83600
21
53616.666667
31
0
100
AcDbText
73
2
0
LINE
5
19C
330
10E
100
AcDbEntity
8
SPAN-SHEET-FRAME
370
13
100
AcDbLine
10
0
20
58400
30
0
11
2000
21
58400
31
0
0
LINE
5
19D
330
10E
100
AcDbEntity
8
SPAN-SHEET-FRAME
370
13
100
AcDbLine
10
83100
20
58400
30
0
11
84100
21
58400
31
0
0
LINE
5
19E
330
10E
100
AcDbEntity
8
SPAN-SHEET-FRAME
100
AcDbLine
10
64600
20
1000
30
0
11
64600
21
58400
31
0
0
LINE
5
19F
330
10E
100
AcDbEntity
8
SPAN-SHEET-FRAME
100
AcDbLine
10
2000
20
13500
30
0
11
64600
21
13500
31
0
0
LINE
5
1A0
330
10E
100
AcDbEntity
8
SPAN-SHEET-FRAME
100
AcDbLine
10
64600
20
16000
30
0
11
83100
21
16000
31
0
0
LINE
5
1A1
330
10E
100
AcDbEntity
8
SPAN-SHEET-FRAME
100
AcDbLine
10
64600
20
21200
30
0
11
83100
21
21200
31
0
0
LINE
5
1A2
330
10E
100
AcDbEntity
8
SPAN-SHEET-FRAME
100
AcDbLine
10
64600
20
39800
30
0
11
83100
21
39800
31
0
0
LINE
5
1A3
330
10E
100
AcDbEntity
8
SPAN-SHEET-FRAME
100
AcDbLine
10
64600
20
53800
30
0
11
83100
21
53800
31
0
0
LINE
5
1A4
330
10E
100
AcDbEntity
8
SPAN-GRID
100
AcDbLine
10
18550
20
20650
30
0
11
18550
21
52650
31
0
0
CIRCLE
5
1A5
330
10E
100
AcDbEntity
8
SPAN-GRID-BUBBLE
100
AcDbCircle
10
18550
20
53050
30
0
40
400
0
TEXT
5
1A6
330
10E
100
AcDbEntity
8
SPAN-TEXT
100
AcDbText
10
18550
20
53050
30
0
40
300
1
A
7
STANDARD
72
1
11
18550
21
53050
31
0
100
AcDbText
73
2
0
CIRCLE
5
1A7
330
10E
100
AcDbEntity
8
SPAN-GRID-BUBBLE
100
AcDbCircle
10
18550
20
20250
30
0
40
400
0
TEXT
5
1A8
330
10E
100
AcDbEntity
8
SPAN-TEXT
100
AcDbText
10
18550
20
20250
30
0
40
300
1
A
7
STANDARD
72
1
11
18550
21
20250
31
0
100
AcDbText
73
2
0
LINE
5
1A9
330
10E
100
AcDbEntity
8
SPAN-GRID
100
AcDbLine
10
26050
20
20650
30
0
11
26050
21
52650
31
0
0
CIRCLE
5
1AA
330
10E
100
AcDbEntity
8
SPAN-GRID-BUBBLE
100
AcDbCircle
10
26050
20
53050
30
0
40
400
0
TEXT
5
1AB
330
10E
100
AcDbEntity
8
SPAN-TEXT
100
AcDbText
10
26050
20
53050
30
0
40
300
1
B
7
STANDARD
72
1
11
26050
21
53050
31
0
100
AcDbText
73
2
0
CIRCLE
5
1AC
330
10E
100
AcDbEntity
8
SPAN-GRID-BUBBLE
100
AcDbCircle
10
26050
20
20250
30
0
40
400
0
TEXT
5
1AD
330
10E
100
AcDbEntity
8
SPAN-TEXT
100
AcDbText
10
26050
20
20250
30
0
40
300
1
B
7
STANDARD
72
1
11
26050
21
20250
31
0
100
AcDbText
73
2
0
LINE
5
1AE
330
10E
100
AcDbEntity
8
SPAN-GRID
100
AcDbLine
10
33550
20
20650
30
0
11
33550
21
52650
31
0
0
CIRCLE
5
1AF
330
10E
100
AcDbEntity
8
SPAN-GRID-BUBBLE
100
AcDbCircle
10
33550
20
53050
30
0
40
400
0
TEXT
5
1B0
330
10E
100
AcDbEntity
8
SPAN-TEXT
100
AcDbText
10
33550
20
53050
30
0
40
300
1
C
7
STANDARD
72
1
11
33550
21
53050
31
0
100
AcDbText
73
2
0
CIRCLE
5
1B1
330
10E
100
AcDbEntity
8
SPAN-GRID-BUBBLE
100
AcDbCircle
10
33550
20
20250
30
0
40
400
0
TEXT
5
1B2
330
10E
100
AcDbEntity
8
SPAN-TEXT
100
AcDbText
10
33550
20
20250
30
0
40
300
1
C
7
STANDARD
72
1
11
33550
21
20250
31
0
100
AcDbText
73
2
0
LINE
5
1B3
330
10E
100
AcDbEntity
8
SPAN-GRID
100
AcDbLine
10
41050
20
20650
30
0
11
41050
21
52650
31
0
0
CIRCLE
5
1B4
330
10E
100
AcDbEntity
8
SPAN-GRID-BUBBLE
100
AcDbCircle
10
41050
20
53050
30
0
40
400
0
TEXT
5
1B5
330
10E
100
AcDbEntity
8
SPAN-TEXT
100
AcDbText
10
41050
20
53050
30
0
40
300
1
D
7
STANDARD
72
1
11
41050
21
53050
31
0
100
AcDbText
73
2
0
CIRCLE
5
1B6
330
10E
100
AcDbEntity
8
SPAN-GRID-BUBBLE
100
AcDbCircle
10
41050
20
20250
30
0
40
400
0
TEXT
5
1B7
330
10E
100
AcDbEntity
8
SPAN-TEXT
100
AcDbText
10
41050
20
20250
30
0
40
300
1
D
7
STANDARD
72
1
11
41050
21
20250
31
0
100
AcDbText
73
2
0
LINE
5
1B8
330
10E
100
AcDbEntity
8
SPAN-GRID
100
AcDbLine
10
48550
20
20650
30
0
11
48550
21
52650
31
0
0
CIRCLE
5
1B9
330
10E
100
AcDbEntity
8
SPAN-GRID-BUBBLE
100
AcDbCircle
10
48550
20
53050
30
0
40
400
0
TEXT
5
1BA
330
10E
100
AcDbEntity
8
SPAN-TEXT
100
AcDbText
10
48550
20
53050
30
0
40
300
1
E
7
STANDARD
72
1
11
48550
21
53050
31
0
100
AcDbText
73
2
0
CIRCLE
5
1BB
330
10E
100
AcDbEntity
8
SPAN-GRID-BUBBLE
100
AcDbCircle
10
48550
20
20250
30
0
40
400
0
TEXT
5
1BC
330
10E
100
AcDbEntity
8
SPAN-TEXT
100
AcDbText
10
48550
20
20250
30
0
40
300
1
E
7
STANDARD
72
1
11
48550
21
20250
31
0
100
AcDbText
73
2
0
LINE
5
1BD
330
10E
100
AcDbEntity
8
SPAN-GRID
100
AcDbLine
10
14050
20
24650
30
0
11
52550
21
24650
31
0
0
CIRCLE
5
1BE
330
10E
100
AcDbEntity
8
SPAN-GRID-BUBBLE
100
AcDbCircle
10
13650
20
24650
30
0
40
400
0
TEXT
5
1BF
330
10E
100
AcDbEntity
8
SPAN-TEXT
100
AcDbText
10
13650
20
24650
30
0
40
300
1
1
7
STANDARD
72
1
11
13650
21
24650
31
0
100
AcDbText
73
2
0
CIRCLE
5
1C0
330
10E
100
AcDbEntity
8
SPAN-GRID-BUBBLE
100
AcDbCircle
10
52950
20
24650
30
0
40
400
0
TEXT
5
1C1
330
10E
100
AcDbEntity
8
SPAN-TEXT
100
AcDbText
10
52950
20
24650
30
0
40
300
1
1
7
STANDARD
72
1
11
52950
21
24650
31
0
100
AcDbText
73
2
0
LINE
5
1C2
330
10E
100
AcDbEntity
8
SPAN-GRID
100
AcDbLine
10
14050
20
32650
30
0
11
52550
21
32650
31
0
0
CIRCLE
5
1C3
330
10E
100
AcDbEntity
8
SPAN-GRID-BUBBLE
100
AcDbCircle
10
13650
20
32650
30
0
40
400
0
TEXT
5
1C4
330
10E
100
AcDbEntity
8
SPAN-TEXT
100
AcDbText
10
13650
20
32650
30
0
40
300
1
2
7
STANDARD
72
1
11
13650
21
32650
31
0
100
AcDbText
73
2
0
CIRCLE
5
1C5
330
10E
100
AcDbEntity
8
SPAN-GRID-BUBBLE
100
AcDbCircle
10
52950
20
32650
30
0
40
400
0
TEXT
5
1C6
330
10E
100
AcDbEntity
8
SPAN-TEXT
100
AcDbText
10
52950
20
32650
30
0
40
300
1
2
7
STANDARD
72
1
11
52950
21
32650
31
0
100
AcDbText
73
2
0
LINE
5
1C7
330
10E
100
AcDbEntity
8
SPAN-GRID
100
AcDbLine
10
14050
20
40650
30
0
11
52550
21
40650
31
0
0
CIRCLE
5
1C8
330
10E
100
AcDbEntity
8
SPAN-GRID-BUBBLE
100
AcDbCircle
10
13650
20
40650
30
0
40
400
0
TEXT
5
1C9
330
10E
100
AcDbEntity
8
SPAN-TEXT
100
AcDbText
10
13650
20
40650
30
0
40
300
1
3
7
STANDARD
72
1
11
13650
21
40650
31
0
100
AcDbText
73
2
0
CIRCLE
5
1CA
330
10E
100
AcDbEntity
8
SPAN-GRID-BUBBLE
100
AcDbCircle
10
52950
20
40650
30
0
40
400
0
TEXT
5
1CB
330
10E
100
AcDbEntity
8
SPAN-TEXT
100
AcDbText
10
52950
20
40650
30
0
40
300
1
3
7
STANDARD
72
1
11
52950
21
40650
31
0
100
AcDbText
73
2
0
LINE
5
1CC
330
10E
100
AcDbEntity
8
SPAN-GRID
100
AcDbLine
10
14050
20
48650
30
0
11
52550
21
48650
31
0
0
CIRCLE
5
1CD
330
10E
100
AcDbEntity
8
SPAN-GRID-BUBBLE
100
AcDbCircle
10
13650
20
48650
30
0
40
400
0
TEXT
5
1CE
330
10E
100
AcDbEntity
8
SPAN-TEXT
100
AcDbText
10
13650
20
48650
30
0
40
300
1
4
7
STANDARD
72
1
11
13650
21
48650
31
0
100
AcDbText
73
2
0
CIRCLE
5
1CF
330
10E
100
AcDbEntity
8
SPAN-GRID-BUBBLE
100
AcDbCircle
10
52950
20
48650
30
0
40
400
0
TEXT
5
1D0
330
10E
100
AcDbEntity
8
SPAN-TEXT
100
AcDbText
10
52950
20
48650
30
0
40
300
1
4
7
STANDARD
72
1
11
52950
21
48650
31
0
100
AcDbText
73
2
0
LINE
5
1D1
330
10E
100
AcDbEntity
8
SPAN-DIM
100
AcDbLine
10
18550
20
18450
30
0
11
18550
21
18000
31
0
0
LINE
5
1D2
330
10E
100
AcDbEntity
8
SPAN-DIM
100
AcDbLine
10
26050
20
18450
30
0
11
26050
21
18000
31
0
0
LINE
5
1D3
330
10E
100
AcDbEntity
8
SPAN-DIM
100
AcDbLine
10
18550
20
17850
30
0
11
26050
21
17850
31
0
0
LINE
5
1D4
330
10E
100
AcDbEntity
8
SPAN-DIM
100
AcDbLine
10
18480
20
17780
30
0
11
18620
21
17920
31
0
0
LINE
5
1D5
330
10E
100
AcDbEntity
8
SPAN-DIM
100
AcDbLine
10
25980
20
17780
30
0
11
26120
21
17920
31
0
0
TEXT
5
1D6
330
10E
100
AcDbEntity
8
SPAN-DIM
100
AcDbText
10
22300
20
17922
30
0
40
180
1
7500
7
STANDARD
72
1
11
22300
21
17922
31
0
100
AcDbText
73
0
0
LINE
5
1D7
330
10E
100
AcDbEntity
8
SPAN-DIM
100
AcDbLine
10
26050
20
18450
30
0
11
26050
21
18000
31
0
0
LINE
5
1D8
330
10E
100
AcDbEntity
8
SPAN-DIM
100
AcDbLine
10
33550
20
18450
30
0
11
33550
21
18000
31
0
0
LINE
5
1D9
330
10E
100
AcDbEntity
8
SPAN-DIM
100
AcDbLine
10
26050
20
17850
30
0
11
33550
21
17850
31
0
0
LINE
5
1DA
330
10E
100
AcDbEntity
8
SPAN-DIM
100
AcDbLine
10
25980
20
17780
30
0
11
26120
21
17920
31
0
0
LINE
5
1DB
330
10E
100
AcDbEntity
8
SPAN-DIM
100
AcDbLine
10
33480
20
17780
30
0
11
33620
21
17920
31
0
0
TEXT
5
1DC
330
10E
100
AcDbEntity
8
SPAN-DIM
100
AcDbText
10
29800
20
17922
30
0
40
180
1
7500
7
STANDARD
72
1
11
29800
21
17922
31
0
100
AcDbText
73
0
0
LINE
5
1DD
330
10E
100
AcDbEntity
8
SPAN-DIM
100
AcDbLine
10
33550
20
18450
30
0
11
33550
21
18000
31
0
0
LINE
5
1DE
330
10E
100
AcDbEntity
8
SPAN-DIM
100
AcDbLine
10
41050
20
18450
30
0
11
41050
21
18000
31
0
0
LINE
5
1DF
330
10E
100
AcDbEntity
8
SPAN-DIM
100
AcDbLine
10
33550
20
17850
30
0
11
41050
21
17850
31
0
0
LINE
5
1E0
330
10E
100
AcDbEntity
8
SPAN-DIM
100
AcDbLine
10
33480
20
17780
30
0
11
33620
21
17920
31
0
0
LINE
5
1E1
330
10E
100
AcDbEntity
8
SPAN-DIM
100
AcDbLine
10
40980
20
17780
30
0
11
41120
21
17920
31
0
0
TEXT
5
1E2
330
10E
100
AcDbEntity
8
SPAN-DIM
100
AcDbText
10
37300
20
17922
30
0
40
180
1
7500
7
STANDARD
72
1
11
37300
21
17922
31
0
100
AcDbText
73
0
0
LINE
5
1E3
330
10E
100
AcDbEntity
8
SPAN-DIM
100
AcDbLine
10
41050
20
18450
30
0
11
41050
21
18000
31
0
0
LINE
5
1E4
330
10E
100
AcDbEntity
8
SPAN-DIM
100
AcDbLine
10
48550
20
18450
30
0
11
48550
21
18000
31
0
0
LINE
5
1E5
330
10E
100
AcDbEntity
8
SPAN-DIM
100
AcDbLine
10
41050
20
17850
30
0
11
48550
21
17850
31
0
0
LINE
5
1E6
330
10E
100
AcDbEntity
8
SPAN-DIM
100
AcDbLine
10
40980
20
17780
30
0
11
41120
21
17920
31
0
0
LINE
5
1E7
330
10E
100
AcDbEntity
8
SPAN-DIM
100
AcDbLine
10
48480
20
17780
30
0
11
48620
21
17920
31
0
0
TEXT
5
1E8
330
10E
100
AcDbEntity
8
SPAN-DIM
100
AcDbText
10
44800
20
17922
30
0
40
180
1
7500
7
STANDARD
72
1
11
44800
21
17922
31
0
100
AcDbText
73
0
0
LINE
5
1E9
330
10E
100
AcDbEntity
8
SPAN-DIM
100
AcDbLine
10
18550
20
18450
30
0
11
18550
21
17400
31
0
0
LINE
5
1EA
330
10E
100
AcDbEntity
8
SPAN-DIM
100
AcDbLine
10
48550
20
18450
30
0
11
48550
21
17400
31
0
0
LINE
5
1EB
330
10E
100
AcDbEntity
8
SPAN-DIM
100
AcDbLine
10
18550
20
17250
30
0
11
48550
21
17250
31
0
0
LINE
5
1EC
330
10E
100
AcDbEntity
8
SPAN-DIM
100
AcDbLine
10
18480
20
17180
30
0
11
18620
21
17320
31
0
0
LINE
5
1ED
330
10E
100
AcDbEntity
8
SPAN-DIM
100
AcDbLine
10
48480
20
17180
30
0
11
48620
21
17320
31
0
0
TEXT
5
1EE
330
10E
100
AcDbEntity
8
SPAN-DIM
100
AcDbText
10
33550
20
17322
30
0
40
180
1
30000
7
STANDARD
72
1
11
33550
21
17322
31
0
100
AcDbText
73
0
0
LINE
5
1EF
330
10E
100
AcDbEntity
8
SPAN-DIM
100
AcDbLine
10
54750
20
24650
30
0
11
55200
21
24650
31
0
0
LINE
5
1F0
330
10E
100
AcDbEntity
8
SPAN-DIM
100
AcDbLine
10
54750
20
32650
30
0
11
55200
21
32650
31
0
0
LINE
5
1F1
330
10E
100
AcDbEntity
8
SPAN-DIM
100
AcDbLine
10
55350
20
24650
30
0
11
55350
21
32650
31
0
0
LINE
5
1F2
330
10E
100
AcDbEntity
8
SPAN-DIM
100
AcDbLine
10
55420
20
24580
30
0
11
55280
21
24720
31
0
0
LINE
5
1F3
330
10E
100
AcDbEntity
8
SPAN-DIM
100
AcDbLine
10
55420
20
32580
30
0
11
55280
21
32720
31
0
0
TEXT
5
1F4
330
10E
100
AcDbEntity
8
SPAN-DIM
100
AcDbText
10
55278
20
28650
30
0
40
180
1
8000
50
90
7
STANDARD
72
1
11
55278
21
28650
31
0
100
AcDbText
73
0
0
LINE
5
1F5
330
10E
100
AcDbEntity
8
SPAN-DIM
100
AcDbLine
10
54750
20
32650
30
0
11
55200
21
32650
31
0
0
LINE
5
1F6
330
10E
100
AcDbEntity
8
SPAN-DIM
100
AcDbLine
10
54750
20
40650
30
0
11
55200
21
40650
31
0
0
LINE
5
1F7
330
10E
100
AcDbEntity
8
SPAN-DIM
100
AcDbLine
10
55350
20
32650
30
0
11
55350
21
40650
31
0
0
LINE
5
1F8
330
10E
100
AcDbEntity
8
SPAN-DIM
100
AcDbLine
10
55420
20
32580
30
0
11
55280
21
32720
31
0
0
LINE
5
1F9
330
10E
100
AcDbEntity
8
SPAN-DIM
100
AcDbLine
10
55420
20
40580
30
0
11
55280
21
40720
31
0
0
TEXT
5
1FA
330
10E
100
AcDbEntity
8
SPAN-DIM
100
AcDbText
10
55278
20
36650
30
0
40
180
1
8000
50
90
7
STANDARD
72
1
11
55278
21
36650
31
0
100
AcDbText
73
0
0
LINE
5
1FB
330
10E
100
AcDbEntity
8
SPAN-DIM
100
AcDbLine
10
54750
20
40650
30
0
11
55200
21
40650
31
0
0
LINE
5
1FC
330
10E
100
AcDbEntity
8
SPAN-DIM
100
AcDbLine
10
54750
20
48650
30
0
11
55200
21
48650
31
0
0
LINE
5
1FD
330
10E
100
AcDbEntity
8
SPAN-DIM
100
AcDbLine
10
55350
20
40650
30
0
11
55350
21
48650
31
0
0
LINE
5
1FE
330
10E
100
AcDbEntity
8
SPAN-DIM
100
AcDbLine
10
55420
20
40580
30
0
11
55280
21
40720
31
0
0
LINE
5
1FF
330
10E
100
AcDbEntity
8
SPAN-DIM
100
AcDbLine
10
55420
20
48580
30
0
11
55280
21
48720
31
0
0
TEXT
5
200
330
10E
100
AcDbEntity
8
SPAN-DIM
100
AcDbText
10
55278
20
44650
30
0
40
180
1
8000
50
90
7
STANDARD
72
1
11
55278
21
44650
31
0
100
AcDbText
73
0
0
LINE
5
201
330
10E
100
AcDbEntity
8
SPAN-DIM
100
AcDbLine
10
54750
20
24650
30
0
11
55800
21
24650
31
0
0
LINE
5
202
330
10E
100
AcDbEntity
8
SPAN-DIM
100
AcDbLine
10
54750
20
48650
30
0
11
55800
21
48650
31
0
0
LINE
5
203
330
10E
100
AcDbEntity
8
SPAN-DIM
100
AcDbLine
10
55950
20
24650
30
0
11
55950
21
48650
31
0
0
LINE
5
204
330
10E
100
AcDbEntity
8
SPAN-DIM
100
AcDbLine
10
56020
20
24580
30
0
11
55880
21
24720
31
0
0
LINE
5
205
330
10E
100
AcDbEntity
8
SPAN-DIM
100
AcDbLine
10
56020
20
48580
30
0
11
55880
21
48720
31
0
0
TEXT
5
206
330
10E
100
AcDbEntity
8
SPAN-DIM
100
AcDbText
10
55878
20
36650
30
0
40
180
1
24000
50
90
7
STANDARD
72
1
11
55878
21
36650
31
0
100
AcDbText
73
0
0
LWPOLYLINE
5
207
330
10E
100
AcDbEntity
8
SPAN-SLAB-EDGE
62
3
100
AcDbPolyline
90
4
70
1
43
0
10
17050
20
23650
10
49550
20
23650
10
49550
20
49650
10
17050
20
49650
0
LWPOLYLINE
5
208
330
10E
100
AcDbEntity
8
SPAN-COL
100
AcDbPolyline
90
4
70
1
43
0
10
18250
20
48350
10
18850
20
48350
10
18850
20
48950
10
18250
20
48950
0
HATCH
5
209
330
10E
100
AcDbEntity
8
SPAN-COL-HATCH
62
7
100
AcDbHatch
10
0
20
0
30
0
210
0
220
0
230
1
2
SOLID
70
1
71
0
91
1
92
3
72
0
73
1
93
4
10
18250
20
48350
10
18850
20
48350
10
18850
20
48950
10
18250
20
48950
97
0
75
1
76
1
98
0
0
LWPOLYLINE
5
20A
330
10E
100
AcDbEntity
8
SPAN-COL
100
AcDbPolyline
90
4
70
1
43
0
10
25750
20
48350
10
26350
20
48350
10
26350
20
48950
10
25750
20
48950
0
HATCH
5
20B
330
10E
100
AcDbEntity
8
SPAN-COL-HATCH
62
7
100
AcDbHatch
10
0
20
0
30
0
210
0
220
0
230
1
2
SOLID
70
1
71
0
91
1
92
3
72
0
73
1
93
4
10
25750
20
48350
10
26350
20
48350
10
26350
20
48950
10
25750
20
48950
97
0
75
1
76
1
98
0
0
LWPOLYLINE
5
20C
330
10E
100
AcDbEntity
8
SPAN-COL
100
AcDbPolyline
90
4
70
1
43
0
10
33250
20
48350
10
33850
20
48350
10
33850
20
48950
10
33250
20
48950
0
HATCH
5
20D
330
10E
100
AcDbEntity
8
SPAN-COL-HATCH
62
7
100
AcDbHatch
10
0
20
0
30
0
210
0
220
0
230
1
2
SOLID
70
1
71
0
91
1
92
3
72
0
73
1
93
4
10
33250
20
48350
10
33850
20
48350
10
33850
20
48950
10
33250
20
48950
97
0
75
1
76
1
98
0
0
LWPOLYLINE
5
20E
330
10E
100
AcDbEntity
8
SPAN-COL
100
AcDbPolyline
90
4
70
1
43
0
10
40750
20
48350
10
41350
20
48350
10
41350
20
48950
10
40750
20
48950
0
HATCH
5
20F
330
10E
100
AcDbEntity
8
SPAN-COL-HATCH
62
7
100
AcDbHatch
10
0
20
0
30
0
210
0
220
0
230
1
2
SOLID
70
1
71
0
91
1
92
3
72
0
73
1
93
4
10
40750
20
48350
10
41350
20
48350
10
41350
20
48950
10
40750
20
48950
97
0
75
1
76
1
98
0
0
LWPOLYLINE
5
210
330
10E
100
AcDbEntity
8
SPAN-COL
100
AcDbPolyline
90
4
70
1
43
0
10
48250
20
48350
10
48850
20
48350
10
48850
20
48950
10
48250
20
48950
0
HATCH
5
211
330
10E
100
AcDbEntity
8
SPAN-COL-HATCH
62
7
100
AcDbHatch
10
0
20
0
30
0
210
0
220
0
230
1
2
SOLID
70
1
71
0
91
1
92
3
72
0
73
1
93
4
10
48250
20
48350
10
48850
20
48350
10
48850
20
48950
10
48250
20
48950
97
0
75
1
76
1
98
0
0
LWPOLYLINE
5
212
330
10E
100
AcDbEntity
8
SPAN-COL
100
AcDbPolyline
90
4
70
1
43
0
10
18250
20
40350
10
18850
20
40350
10
18850
20
40950
10
18250
20
40950
0
HATCH
5
213
330
10E
100
AcDbEntity
8
SPAN-COL-HATCH
62
7
100
AcDbHatch
10
0
20
0
30
0
210
0
220
0
230
1
2
SOLID
70
1
71
0
91
1
92
3
72
0
73
1
93
4
10
18250
20
40350
10
18850
20
40350
10
18850
20
40950
10
18250
20
40950
97
0
75
1
76
1
98
0
0
LWPOLYLINE
5
214
330
10E
100
AcDbEntity
8
SPAN-COL
100
AcDbPolyline
90
4
70
1
43
0
10
25750
20
40350
10
26350
20
40350
10
26350
20
40950
10
25750
20
40950
0
HATCH
5
215
330
10E
100
AcDbEntity
8
SPAN-COL-HATCH
62
7
100
AcDbHatch
10
0
20
0
30
0
210
0
220
0
230
1
2
SOLID
70
1
71
0
91
1
92
3
72
0
73
1
93
4
10
25750
20
40350
10
26350
20
40350
10
26350
20
40950
10
25750
20
40950
97
0
75
1
76
1
98
0
0
LWPOLYLINE
5
216
330
10E
100
AcDbEntity
8
SPAN-COL
100
AcDbPolyline
90
4
70
1
43
0
10
33250
20
40350
10
33850
20
40350
10
33850
20
40950
10
33250
20
40950
0
HATCH
5
217
330
10E
100
AcDbEntity
8
SPAN-COL-HATCH
62
7
100
AcDbHatch
10
0
20
0
30
0
210
0
220
0
230
1
2
SOLID
70
1
71
0
91
1
92
3
72
0
73
1
93
4
10
33250
20
40350
10
33850
20
40350
10
33850
20
40950
10
33250
20
40950
97
0
75
1
76
1
98
0
0
LWPOLYLINE
5
218
330
10E
100
AcDbEntity
8
SPAN-COL
100
AcDbPolyline
90
4
70
1
43
0
10
40750
20
40350
10
41350
20
40350
10
41350
20
40950
10
40750
20
40950
0
HATCH
5
219
330
10E
100
AcDbEntity
8
SPAN-COL-HATCH
62
7
100
AcDbHatch
10
0
20
0
30
0
210
0
220
0
230
1
2
SOLID
70
1
71
0
91
1
92
3
72
0
73
1
93
4
10
40750
20
40350
10
41350
20
40350
10
41350
20
40950
10
40750
20
40950
97
0
75
1
76
1
98
0
0
LWPOLYLINE
5
21A
330
10E
100
AcDbEntity
8
SPAN-COL
100
AcDbPolyline
90
4
70
1
43
0
10
48250
20
40350
10
48850
20
40350
10
48850
20
40950
10
48250
20
40950
0
HATCH
5
21B
330
10E
100
AcDbEntity
8
SPAN-COL-HATCH
62
7
100
AcDbHatch
10
0
20
0
30
0
210
0
220
0
230
1
2
SOLID
70
1
71
0
91
1
92
3
72
0
73
1
93
4
10
48250
20
40350
10
48850
20
40350
10
48850
20
40950
10
48250
20
40950
97
0
75
1
76
1
98
0
0
LWPOLYLINE
5
21C
330
10E
100
AcDbEntity
8
SPAN-COL
100
AcDbPolyline
90
4
70
1
43
0
10
18250
20
32350
10
18850
20
32350
10
18850
20
32950
10
18250
20
32950
0
HATCH
5
21D
330
10E
100
AcDbEntity
8
SPAN-COL-HATCH
62
7
100
AcDbHatch
10
0
20
0
30
0
210
0
220
0
230
1
2
SOLID
70
1
71
0
91
1
92
3
72
0
73
1
93
4
10
18250
20
32350
10
18850
20
32350
10
18850
20
32950
10
18250
20
32950
97
0
75
1
76
1
98
0
0
LWPOLYLINE
5
21E
330
10E
100
AcDbEntity
8
SPAN-COL
100
AcDbPolyline
90
4
70
1
43
0
10
25750
20
32350
10
26350
20
32350
10
26350
20
32950
10
25750
20
32950
0
HATCH
5
21F
330
10E
100
AcDbEntity
8
SPAN-COL-HATCH
62
7
100
AcDbHatch
10
0
20
0
30
0
210
0
220
0
230
1
2
SOLID
70
1
71
0
91
1
92
3
72
0
73
1
93
4
10
25750
20
32350
10
26350
20
32350
10
26350
20
32950
10
25750
20
32950
97
0
75
1
76
1
98
0
0
LWPOLYLINE
5
220
330
10E
100
AcDbEntity
8
SPAN-COL
100
AcDbPolyline
90
4
70
1
43
0
10
33250
20
32350
10
33850
20
32350
10
33850
20
32950
10
33250
20
32950
0
HATCH
5
221
330
10E
100
AcDbEntity
8
SPAN-COL-HATCH
62
7
100
AcDbHatch
10
0
20
0
30
0
210
0
220
0
230
1
2
SOLID
70
1
71
0
91
1
92
3
72
0
73
1
93
4
10
33250
20
32350
10
33850
20
32350
10
33850
20
32950
10
33250
20
32950
97
0
75
1
76
1
98
0
0
LWPOLYLINE
5
222
330
10E
100
AcDbEntity
8
SPAN-COL
100
AcDbPolyline
90
4
70
1
43
0
10
40750
20
32350
10
41350
20
32350
10
41350
20
32950
10
40750
20
32950
0
HATCH
5
223
330
10E
100
AcDbEntity
8
SPAN-COL-HATCH
62
7
100
AcDbHatch
10
0
20
0
30
0
210
0
220
0
230
1
2
SOLID
70
1
71
0
91
1
92
3
72
0
73
1
93
4
10
40750
20
32350
10
41350
20
32350
10
41350
20
32950
10
40750
20
32950
97
0
75
1
76
1
98
0
0
LWPOLYLINE
5
224
330
10E
100
AcDbEntity
8
SPAN-COL
100
AcDbPolyline
90
4
70
1
43
0
10
48250
20
32350
10
48850
20
32350
10
48850
20
32950
10
48250
20
32950
0
HATCH
5
225
330
10E
100
AcDbEntity
8
SPAN-COL-HATCH
62
7
100
AcDbHatch
10
0
20
0
30
0
210
0
220
0
230
1
2
SOLID
70
1
71
0
91
1
92
3
72
0
73
1
93
4
10
48250
20
32350
10
48850
20
32350
10
48850
20
32950
10
48250
20
32950
97
0
75
1
76
1
98
0
0
LWPOLYLINE
5
226
330
10E
100
AcDbEntity
8
SPAN-COL
100
AcDbPolyline
90
4
70
1
43
0
10
18250
20
24350
10
18850
20
24350
10
18850
20
24950
10
18250
20
24950
0
HATCH
5
227
330
10E
100
AcDbEntity
8
SPAN-COL-HATCH
62
7
100
AcDbHatch
10
0
20
0
30
0
210
0
220
0
230
1
2
SOLID
70
1
71
0
91
1
92
3
72
0
73
1
93
4
10
18250
20
24350
10
18850
20
24350
10
18850
20
24950
10
18250
20
24950
97
0
75
1
76
1
98
0
0
LWPOLYLINE
5
228
330
10E
100
AcDbEntity
8
SPAN-COL
100
AcDbPolyline
90
4
70
1
43
0
10
25750
20
24350
10
26350
20
24350
10
26350
20
24950
10
25750
20
24950
0
HATCH
5
229
330
10E
100
AcDbEntity
8
SPAN-COL-HATCH
62
7
100
AcDbHatch
10
0
20
0
30
0
210
0
220
0
230
1
2
SOLID
70
1
71
0
91
1
92
3
72
0
73
1
93
4
10
25750
20
24350
10
26350
20
24350
10
26350
20
24950
10
25750
20
24950
97
0
75
1
76
1
98
0
0
LWPOLYLINE
5
22A
330
10E
100
AcDbEntity
8
SPAN-COL
100
AcDbPolyline
90
4
70
1
43
0
10
33250
20
24350
10
33850
20
24350
10
33850
20
24950
10
33250
20
24950
0
HATCH
5
22B
330
10E
100
AcDbEntity
8
SPAN-COL-HATCH
62
7
100
AcDbHatch
10
0
20
0
30
0
210
0
220
0
230
1
2
SOLID
70
1
71
0
91
1
92
3
72
0
73
1
93
4
10
33250
20
24350
10
33850
20
24350
10
33850
20
24950
10
33250
20
24950
97
0
75
1
76
1
98
0
0
LWPOLYLINE
5
22C
330
10E
100
AcDbEntity
8
SPAN-COL
100
AcDbPolyline
90
4
70
1
43
0
10
40750
20
24350
10
41350
20
24350
10
41350
20
24950
10
40750
20
24950
0
HATCH
5
22D
330
10E
100
AcDbEntity
8
SPAN-COL-HATCH
62
7
100
AcDbHatch
10
0
20
0
30
0
210
0
220
0
230
1
2
SOLID
70
1
71
0
91
1
92
3
72
0
73
1
93
4
10
40750
20
24350
10
41350
20
24350
10
41350
20
24950
10
40750
20
24950
97
0
75
1
76
1
98
0
0
LWPOLYLINE
5
22E
330
10E
100
AcDbEntity
8
SPAN-COL
100
AcDbPolyline
90
4
70
1
43
0
10
48250
20
24350
10
48850
20
24350
10
48850
20
24950
10
48250
20
24950
0
HATCH
5
22F
330
10E
100
AcDbEntity
8
SPAN-COL-HATCH
62
7
100
AcDbHatch
10
0
20
0
30
0
210
0
220
0
230
1
2
SOLID
70
1
71
0
91
1
92
3
72
0
73
1
93
4
10
48250
20
24350
10
48850
20
24350
10
48850
20
24950
10
48250
20
24950
97
0
75
1
76
1
98
0
0
LWPOLYLINE
5
230
330
10E
100
AcDbEntity
8
SPAN-OPENING
100
AcDbPolyline
90
4
70
1
43
0
10
28050
20
34150
10
31050
20
34150
10
31050
20
39150
10
28050
20
39150
0
LINE
5
231
330
10E
100
AcDbEntity
8
SPAN-OPENING
100
AcDbLine
10
28050
20
34150
30
0
11
31050
21
39150
31
0
0
LINE
5
232
330
10E
100
AcDbEntity
8
SPAN-OPENING
100
AcDbLine
10
31050
20
34150
30
0
11
28050
21
39150
31
0
0
LWPOLYLINE
5
233
330
10E
100
AcDbEntity
8
SPAN-OPENING
100
AcDbPolyline
90
4
70
1
43
0
10
42550
20
34650
10
45050
20
34650
10
45050
20
37150
10
42550
20
37150
0
LINE
5
234
330
10E
100
AcDbEntity
8
SPAN-OPENING
100
AcDbLine
10
42550
20
34650
30
0
11
45050
21
37150
31
0
0
LINE
5
235
330
10E
100
AcDbEntity
8
SPAN-OPENING
100
AcDbLine
10
45050
20
34650
30
0
11
42550
21
37150
31
0
0
LWPOLYLINE
5
236
330
10E
100
AcDbEntity
8
SPAN-VOID
100
AcDbPolyline
90
4
70
1
43
0
10
20550
20
41650
10
24550
20
41650
10
24550
20
44650
10
20550
20
44650
0
HATCH
5
237
330
10E
100
AcDbEntity
8
SPAN-VOID-HATCH
100
AcDbHatch
10
0
20
0
30
0
210
0
220
0
230
1
2
ANSI37
70
0
71
0
91
1
92
3
72
0
73
1
93
4
10
20550
20
41650
10
24550
20
41650
10
24550
20
44650
10
20550
20
44650
97
0
75
1
76
1
52
0
41
78.740157
77
0
78
2
53
45
43
0
44
0
45
-176.776695
46
176.776695
79
0
53
135
43
0
44
0
45
-176.776695
46
-176.776695
79
0
98
0
0
LINE
5
238
330
10E
100
AcDbEntity
8
SPAN-RB
100
AcDbLine
10
17075
20
23735
30
0
11
29075
21
23735
31
0
0
TEXT
5
239
330
10E
100
AcDbEntity
8
SPAN-RB-TEXT
100
AcDbText
10
23075
20
23790
30
0
40
210
1
4T12-T&B-U03-(L=12000)
7
SPAN-REBAR
72
1
11
23075
21
23790
31
0
100
AcDbText
73
0
0
TEXT
5
23A
330
10E
100
AcDbEntity
8
SPAN-RB-TEXT
100
AcDbText
10
23075
20
23515
30
0
40
170
1
12000
7
SPAN-REBAR
72
1
11
23075
21
23515
31
0
100
AcDbText
73
0
0
LINE
5
23B
330
10E
100
AcDbEntity
8
SPAN-RB
100
AcDbLine
10
29075
20
23735
30
0
11
40525
21
23735
31
0
0
LINE
5
23C
330
10E
100
AcDbEntity
8
SPAN-RB
100
AcDbLine
10
28525
20
23885
30
0
11
29075
21
23885
31
0
0
TEXT
5
23D
330
10E
100
AcDbEntity
8
SPAN-RB-TEXT
100
AcDbText
10
34800
20
23790
30
0
40
210
1
4T12-T&B-U04-(L=12000)
7
SPAN-REBAR
72
1
11
34800
21
23790
31
0
100
AcDbText
73
0
0
TEXT
5
23E
330
10E
100
AcDbEntity
8
SPAN-RB-TEXT
100
AcDbText
10
34800
20
23515
30
0
40
170
1
12000
7
SPAN-REBAR
72
1
11
34800
21
23515
31
0
100
AcDbText
73
0
0
LINE
5
23F
330
10E
100
AcDbEntity
8
SPAN-RB
100
AcDbLine
10
40525
20
23735
30
0
11
49525
21
23735
31
0
0
LINE
5
240
330
10E
100
AcDbEntity
8
SPAN-RB
100
AcDbLine
10
39975
20
23885
30
0
11
40525
21
23885
31
0
0
TEXT
5
241
330
10E
100
AcDbEntity
8
SPAN-RB-TEXT
100
AcDbText
10
45025
20
23790
30
0
40
210
1
4T12-T&B-U04-(L=9550)
7
SPAN-REBAR
72
1
11
45025
21
23790
31
0
100
AcDbText
73
0
0
TEXT
5
242
330
10E
100
AcDbEntity
8
SPAN-RB-TEXT
100
AcDbText
10
45025
20
23515
30
0
40
170
1
9550
7
SPAN-REBAR
72
1
11
45025
21
23515
31
0
100
AcDbText
73
0
0
LINE
5
243
330
10E
100
AcDbEntity
8
SPAN-RB
100
AcDbLine
10
17075
20
23675
30
0
11
17075
21
23795
31
0
0
LINE
5
244
330
10E
100
AcDbEntity
8
SPAN-RB
100
AcDbLine
10
49525
20
23675
30
0
11
49525
21
23795
31
0
0
LWPOLYLINE
5
245
330
10E
100
AcDbEntity
8
SPAN-RB-UBAR
100
AcDbPolyline
90
4
70
0
43
0
10
17065
20
25595
10
17065
20
23675
10
17185
20
23675
10
17185
20
25595
0
LWPOLYLINE
5
246
330
10E
100
AcDbEntity
8
SPAN-RB-UBAR
100
AcDbPolyline
90
4
70
0
43
0
10
17665
20
25595
10
17665
20
23675
10
17785
20
23675
10
17785
20
25595
0
LWPOLYLINE
5
247
330
10E
100
AcDbEntity
8
SPAN-RB-UBAR
100
AcDbPolyline
90
4
70
0
43
0
10
19195
20
25595
10
19195
20
23675
10
19315
20
23675
10
19315
20
25595
0
LWPOLYLINE
5
248
330
10E
100
AcDbEntity
8
SPAN-RB-UBAR
100
AcDbPolyline
90
4
70
0
43
0
10
19795
20
25595
10
19795
20
23675
10
19915
20
23675
10
19915
20
25595
0
LWPOLYLINE
5
249
330
10E
100
AcDbEntity
8
SPAN-RB-UBAR
100
AcDbPolyline
90
4
70
0
43
0
10
20395
20
25595
10
20395
20
23675
10
20515
20
23675
10
20515
20
25595
0
LWPOLYLINE
5
24A
330
10E
100
AcDbEntity
8
SPAN-RB-UBAR
100
AcDbPolyline
90
4
70
0
43
0
10
20995
20
25595
10
20995
20
23675
10
21115
20
23675
10
21115
20
25595
0
LWPOLYLINE
5
24B
330
10E
100
AcDbEntity
8
SPAN-RB-UBAR
100
AcDbPolyline
90
4
70
0
43
0
10
21595
20
25595
10
21595
20
23675
10
21715
20
23675
10
21715
20
25595
0
LWPOLYLINE
5
24C
330
10E
100
AcDbEntity
8
SPAN-RB-UBAR
100
AcDbPolyline
90
4
70
0
43
0
10
22195
20
25595
10
22195
20
23675
10
22315
20
23675
10
22315
20
25595
0
LWPOLYLINE
5
24D
330
10E
100
AcDbEntity
8
SPAN-RB-UBAR
100
AcDbPolyline
90
4
70
0
43
0
10
22795
20
25595
10
22795
20
23675
10
22915
20
23675
10
22915
20
25595
0
LWPOLYLINE
5
24E
330
10E
100
AcDbEntity
8
SPAN-RB-UBAR
100
AcDbPolyline
90
4
70
0
43
0
10
23395
20
25595
10
23395
20
23675
10
23515
20
23675
10
23515
20
25595
0
LWPOLYLINE
5
24F
330
10E
100
AcDbEntity
8
SPAN-RB-UBAR
100
AcDbPolyline
90
4
70
0
43
0
10
23995
20
25595
10
23995
20
23675
10
24115
20
23675
10
24115
20
25595
0
LWPOLYLINE
5
250
330
10E
100
AcDbEntity
8
SPAN-RB-UBAR
100
AcDbPolyline
90
4
70
0
43
0
10
24595
20
25595
10
24595
20
23675
10
24715
20
23675
10
24715
20
25595
0
LWPOLYLINE
5
251
330
10E
100
AcDbEntity
8
SPAN-RB-UBAR
100
AcDbPolyline
90
4
70
0
43
0
10
25195
20
25595
10
25195
20
23675
10
25315
20
23675
10
25315
20
25595
0
LWPOLYLINE
5
252
330
10E
100
AcDbEntity
8
SPAN-RB-UBAR
100
AcDbPolyline
90
4
70
0
43
0
10
26695
20
25595
10
26695
20
23675
10
26815
20
23675
10
26815
20
25595
0
LWPOLYLINE
5
253
330
10E
100
AcDbEntity
8
SPAN-RB-UBAR
100
AcDbPolyline
90
4
70
0
43
0
10
27295
20
25595
10
27295
20
23675
10
27415
20
23675
10
27415
20
25595
0
LWPOLYLINE
5
254
330
10E
100
AcDbEntity
8
SPAN-RB-UBAR
100
AcDbPolyline
90
4
70
0
43
0
10
27895
20
25595
10
27895
20
23675
10
28015
20
23675
10
28015
20
25595
0
LWPOLYLINE
5
255
330
10E
100
AcDbEntity
8
SPAN-RB-UBAR
100
AcDbPolyline
90
4
70
0
43
0
10
28495
20
25595
10
28495
20
23675
10
28615
20
23675
10
28615
20
25595
0
LWPOLYLINE
5
256
330
10E
100
AcDbEntity
8
SPAN-RB-UBAR
100
AcDbPolyline
90
4
70
0
43
0
10
29095
20
25595
10
29095
20
23675
10
29215
20
23675
10
29215
20
25595
0
LWPOLYLINE
5
257
330
10E
100
AcDbEntity
8
SPAN-RB-UBAR
100
AcDbPolyline
90
4
70
0
43
0
10
29695
20
25595
10
29695
20
23675
10
29815
20
23675
10
29815
20
25595
0
LWPOLYLINE
5
258
330
10E
100
AcDbEntity
8
SPAN-RB-UBAR
100
AcDbPolyline
90
4
70
0
43
0
10
30295
20
25595
10
30295
20
23675
10
30415
20
23675
10
30415
20
25595
0
LWPOLYLINE
5
259
330
10E
100
AcDbEntity
8
SPAN-RB-UBAR
100
AcDbPolyline
90
4
70
0
43
0
10
30895
20
25595
10
30895
20
23675
10
31015
20
23675
10
31015
20
25595
0
LWPOLYLINE
5
25A
330
10E
100
AcDbEntity
8
SPAN-RB-UBAR
100
AcDbPolyline
90
4
70
0
43
0
10
31495
20
25595
10
31495
20
23675
10
31615
20
23675
10
31615
20
25595
0
LWPOLYLINE
5
25B
330
10E
100
AcDbEntity
8
SPAN-RB-UBAR
100
AcDbPolyline
90
4
70
0
43
0
10
32095
20
25595
10
32095
20
23675
10
32215
20
23675
10
32215
20
25595
0
LWPOLYLINE
5
25C
330
10E
100
AcDbEntity
8
SPAN-RB-UBAR
100
AcDbPolyline
90
4
70
0
43
0
10
32695
20
25595
10
32695
20
23675
10
32815
20
23675
10
32815
20
25595
0
LWPOLYLINE
5
25D
330
10E
100
AcDbEntity
8
SPAN-RB-UBAR
100
AcDbPolyline
90
4
70
0
43
0
10
34195
20
25595
10
34195
20
23675
10
34315
20
23675
10
34315
20
25595
0
LWPOLYLINE
5
25E
330
10E
100
AcDbEntity
8
SPAN-RB-UBAR
100
AcDbPolyline
90
4
70
0
43
0
10
34795
20
25595
10
34795
20
23675
10
34915
20
23675
10
34915
20
25595
0
LWPOLYLINE
5
25F
330
10E
100
AcDbEntity
8
SPAN-RB-UBAR
100
AcDbPolyline
90
4
70
0
43
0
10
35395
20
25595
10
35395
20
23675
10
35515
20
23675
10
35515
20
25595
0
LWPOLYLINE
5
260
330
10E
100
AcDbEntity
8
SPAN-RB-UBAR
100
AcDbPolyline
90
4
70
0
43
0
10
35995
20
25595
10
35995
20
23675
10
36115
20
23675
10
36115
20
25595
0
LWPOLYLINE
5
261
330
10E
100
AcDbEntity
8
SPAN-RB-UBAR
100
AcDbPolyline
90
4
70
0
43
0
10
36595
20
25595
10
36595
20
23675
10
36715
20
23675
10
36715
20
25595
0
LWPOLYLINE
5
262
330
10E
100
AcDbEntity
8
SPAN-RB-UBAR
100
AcDbPolyline
90
4
70
0
43
0
10
37195
20
25595
10
37195
20
23675
10
37315
20
23675
10
37315
20
25595
0
LWPOLYLINE
5
263
330
10E
100
AcDbEntity
8
SPAN-RB-UBAR
100
AcDbPolyline
90
4
70
0
43
0
10
37795
20
25595
10
37795
20
23675
10
37915
20
23675
10
37915
20
25595
0
LWPOLYLINE
5
264
330
10E
100
AcDbEntity
8
SPAN-RB-UBAR
100
AcDbPolyline
90
4
70
0
43
0
10
38395
20
25595
10
38395
20
23675
10
38515
20
23675
10
38515
20
25595
0
LWPOLYLINE
5
265
330
10E
100
AcDbEntity
8
SPAN-RB-UBAR
100
AcDbPolyline
90
4
70
0
43
0
10
38995
20
25595
10
38995
20
23675
10
39115
20
23675
10
39115
20
25595
0
LWPOLYLINE
5
266
330
10E
100
AcDbEntity
8
SPAN-RB-UBAR
100
AcDbPolyline
90
4
70
0
43
0
10
39595
20
25595
10
39595
20
23675
10
39715
20
23675
10
39715
20
25595
0
LWPOLYLINE
5
267
330
10E
100
AcDbEntity
8
SPAN-RB-UBAR
100
AcDbPolyline
90
4
70
0
43
0
10
40195
20
25595
10
40195
20
23675
10
40315
20
23675
10
40315
20
25595
0
LWPOLYLINE
5
268
330
10E
100
AcDbEntity
8
SPAN-RB-UBAR
100
AcDbPolyline
90
4
70
0
43
0
10
41695
20
25595
10
41695
20
23675
10
41815
20
23675
10
41815
20
25595
0
LWPOLYLINE
5
269
330
10E
100
AcDbEntity
8
SPAN-RB-UBAR
100
AcDbPolyline
90
4
70
0
43
0
10
42295
20
25595
10
42295
20
23675
10
42415
20
23675
10
42415
20
25595
0
LWPOLYLINE
5
26A
330
10E
100
AcDbEntity
8
SPAN-RB-UBAR
100
AcDbPolyline
90
4
70
0
43
0
10
42895
20
25595
10
42895
20
23675
10
43015
20
23675
10
43015
20
25595
0
LWPOLYLINE
5
26B
330
10E
100
AcDbEntity
8
SPAN-RB-UBAR
100
AcDbPolyline
90
4
70
0
43
0
10
43495
20
25595
10
43495
20
23675
10
43615
20
23675
10
43615
20
25595
0
LWPOLYLINE
5
26C
330
10E
100
AcDbEntity
8
SPAN-RB-UBAR
100
AcDbPolyline
90
4
70
0
43
0
10
44095
20
25595
10
44095
20
23675
10
44215
20
23675
10
44215
20
25595
0
LWPOLYLINE
5
26D
330
10E
100
AcDbEntity
8
SPAN-RB-UBAR
100
AcDbPolyline
90
4
70
0
43
0
10
44695
20
25595
10
44695
20
23675
10
44815
20
23675
10
44815
20
25595
0
LWPOLYLINE
5
26E
330
10E
100
AcDbEntity
8
SPAN-RB-UBAR
100
AcDbPolyline
90
4
70
0
43
0
10
45295
20
25595
10
45295
20
23675
10
45415
20
23675
10
45415
20
25595
0
LWPOLYLINE
5
26F
330
10E
100
AcDbEntity
8
SPAN-RB-UBAR
100
AcDbPolyline
90
4
70
0
43
0
10
45895
20
25595
10
45895
20
23675
10
46015
20
23675
10
46015
20
25595
0
LWPOLYLINE
5
270
330
10E
100
AcDbEntity
8
SPAN-RB-UBAR
100
AcDbPolyline
90
4
70
0
43
0
10
46495
20
25595
10
46495
20
23675
10
46615
20
23675
10
46615
20
25595
0
LWPOLYLINE
5
271
330
10E
100
AcDbEntity
8
SPAN-RB-UBAR
100
AcDbPolyline
90
4
70
0
43
0
10
47095
20
25595
10
47095
20
23675
10
47215
20
23675
10
47215
20
25595
0
LWPOLYLINE
5
272
330
10E
100
AcDbEntity
8
SPAN-RB-UBAR
100
AcDbPolyline
90
4
70
0
43
0
10
47695
20
25595
10
47695
20
23675
10
47815
20
23675
10
47815
20
25595
0
LWPOLYLINE
5
273
330
10E
100
AcDbEntity
8
SPAN-RB-UBAR
100
AcDbPolyline
90
4
70
0
43
0
10
49195
20
25595
10
49195
20
23675
10
49315
20
23675
10
49315
20
25595
0
TEXT
5
274
330
10E
100
AcDbEntity
8
SPAN-RB-TEXT
100
AcDbText
10
33300
20
25350
30
0
40
210
1
177T12@150-U06-(L=4010) U-BARS LEGS 1920 T&B
7
STANDARD
72
1
11
33300
21
25350
31
0
100
AcDbText
73
0
0
CIRCLE
5
275
330
10E
100
AcDbEntity
8
SPAN-CALLOUT
100
AcDbCircle
10
33300
20
23050
30
0
40
300
0
TEXT
5
276
330
10E
100
AcDbEntity
8
SPAN-CALLOUT
100
AcDbText
10
33300
20
23050
30
0
40
160
1
E1
7
STANDARD
72
1
11
33300
21
23050
31
0
100
AcDbText
73
2
0
LINE
5
277
330
10E
100
AcDbEntity
8
SPAN-CALLOUT
100
AcDbLine
10
33300
20
23350
30
0
11
33300
21
23650
31
0
0
LINE
5
278
330
10E
100
AcDbEntity
8
SPAN-RB
100
AcDbLine
10
49465
20
23675
30
0
11
49465
21
35675
31
0
0
TEXT
5
279
330
10E
100
AcDbEntity
8
SPAN-RB-TEXT
100
AcDbText
10
49410
20
29675
30
0
40
210
1
4T12-T&B-U03-(L=12000)
50
90
7
SPAN-REBAR
72
1
11
49410
21
29675
31
0
100
AcDbText
73
0
0
TEXT
5
27A
330
10E
100
AcDbEntity
8
SPAN-RB-TEXT
100
AcDbText
10
49685
20
29675
30
0
40
170
1
12000
50
90
7
SPAN-REBAR
72
1
11
49685
21
29675
31
0
100
AcDbText
73
0
0
LINE
5
27B
330
10E
100
AcDbEntity
8
SPAN-RB
100
AcDbLine
10
49465
20
35675
30
0
11
49465
21
47125
31
0
0
LINE
5
27C
330
10E
100
AcDbEntity
8
SPAN-RB
100
AcDbLine
10
49315
20
35125
30
0
11
49315
21
35675
31
0
0
TEXT
5
27D
330
10E
100
AcDbEntity
8
SPAN-RB-TEXT
100
AcDbText
10
49410
20
41400
30
0
40
210
1
4T12-T&B-U05-(L=12000)
50
90
7
SPAN-REBAR
72
1
11
49410
21
41400
31
0
100
AcDbText
73
0
0
TEXT
5
27E
330
10E
100
AcDbEntity
8
SPAN-RB-TEXT
100
AcDbText
10
49685
20
41400
30
0
40
170
1
12000
50
90
7
SPAN-REBAR
72
1
11
49685
21
41400
31
0
100
AcDbText
73
0
0
LINE
5
27F
330
10E
100
AcDbEntity
8
SPAN-RB
100
AcDbLine
10
49465
20
47125
30
0
11
49465
21
49625
31
0
0
LINE
5
280
330
10E
100
AcDbEntity
8
SPAN-RB
100
AcDbLine
10
49315
20
46575
30
0
11
49315
21
47125
31
0
0
TEXT
5
281
330
10E
100
AcDbEntity
8
SPAN-RB-TEXT
100
AcDbText
10
49410
20
48375
30
0
40
210
1
4T12-T&B-U05-(L=3050)
50
90
7
SPAN-REBAR
72
1
11
49410
21
48375
31
0
100
AcDbText
73
0
0
TEXT
5
282
330
10E
100
AcDbEntity
8
SPAN-RB-TEXT
100
AcDbText
10
49685
20
48375
30
0
40
170
1
3050
50
90
7
SPAN-REBAR
72
1
11
49685
21
48375
31
0
100
AcDbText
73
0
0
LINE
5
283
330
10E
100
AcDbEntity
8
SPAN-RB
100
AcDbLine
10
49525
20
23675
30
0
11
49405
21
23675
31
0
0
LINE
5
284
330
10E
100
AcDbEntity
8
SPAN-RB
100
AcDbLine
10
49525
20
49625
30
0
11
49405
21
49625
31
0
0
LWPOLYLINE
5
285
330
10E
100
AcDbEntity
8
SPAN-RB-UBAR
100
AcDbPolyline
90
4
70
0
43
0
10
47605
20
23665
10
49525
20
23665
10
49525
20
23785
10
47605
20
23785
0
LWPOLYLINE
5
286
330
10E
100
AcDbEntity
8
SPAN-RB-UBAR
100
AcDbPolyline
90
4
70
0
43
0
10
47605
20
25295
10
49525
20
25295
10
49525
20
25415
10
47605
20
25415
0
LWPOLYLINE
5
287
330
10E
100
AcDbEntity
8
SPAN-RB-UBAR
100
AcDbPolyline
90
4
70
0
43
0
10
47605
20
25895
10
49525
20
25895
10
49525
20
26015
10
47605
20
26015
0
LWPOLYLINE
5
288
330
10E
100
AcDbEntity
8
SPAN-RB-UBAR
100
AcDbPolyline
90
4
70
0
43
0
10
47605
20
26495
10
49525
20
26495
10
49525
20
26615
10
47605
20
26615
0
LWPOLYLINE
5
289
330
10E
100
AcDbEntity
8
SPAN-RB-UBAR
100
AcDbPolyline
90
4
70
0
43
0
10
47605
20
27095
10
49525
20
27095
10
49525
20
27215
10
47605
20
27215
0
LWPOLYLINE
5
28A
330
10E
100
AcDbEntity
8
SPAN-RB-UBAR
100
AcDbPolyline
90
4
70
0
43
0
10
47605
20
27695
10
49525
20
27695
10
49525
20
27815
10
47605
20
27815
0
LWPOLYLINE
5
28B
330
10E
100
AcDbEntity
8
SPAN-RB-UBAR
100
AcDbPolyline
90
4
70
0
43
0
10
47605
20
28295
10
49525
20
28295
10
49525
20
28415
10
47605
20
28415
0
LWPOLYLINE
5
28C
330
10E
100
AcDbEntity
8
SPAN-RB-UBAR
100
AcDbPolyline
90
4
70
0
43
0
10
47605
20
28895
10
49525
20
28895
10
49525
20
29015
10
47605
20
29015
0
LWPOLYLINE
5
28D
330
10E
100
AcDbEntity
8
SPAN-RB-UBAR
100
AcDbPolyline
90
4
70
0
43
0
10
47605
20
29495
10
49525
20
29495
10
49525
20
29615
10
47605
20
29615
0
LWPOLYLINE
5
28E
330
10E
100
AcDbEntity
8
SPAN-RB-UBAR
100
AcDbPolyline
90
4
70
0
43
0
10
47605
20
30095
10
49525
20
30095
10
49525
20
30215
10
47605
20
30215
0
LWPOLYLINE
5
28F
330
10E
100
AcDbEntity
8
SPAN-RB-UBAR
100
AcDbPolyline
90
4
70
0
43
0
10
47605
20
30695
10
49525
20
30695
10
49525
20
30815
10
47605
20
30815
0
LWPOLYLINE
5
290
330
10E
100
AcDbEntity
8
SPAN-RB-UBAR
100
AcDbPolyline
90
4
70
0
43
0
10
47605
20
31295
10
49525
20
31295
10
49525
20
31415
10
47605
20
31415
0
LWPOLYLINE
5
291
330
10E
100
AcDbEntity
8
SPAN-RB-UBAR
100
AcDbPolyline
90
4
70
0
43
0
10
47605
20
31895
10
49525
20
31895
10
49525
20
32015
10
47605
20
32015
0
LWPOLYLINE
5
292
330
10E
100
AcDbEntity
8
SPAN-RB-UBAR
100
AcDbPolyline
90
4
70
0
43
0
10
47605
20
33295
10
49525
20
33295
10
49525
20
33415
10
47605
20
33415
0
LWPOLYLINE
5
293
330
10E
100
AcDbEntity
8
SPAN-RB-UBAR
100
AcDbPolyline
90
4
70
0
43
0
10
47605
20
33895
10
49525
20
33895
10
49525
20
34015
10
47605
20
34015
0
LWPOLYLINE
5
294
330
10E
100
AcDbEntity
8
SPAN-RB-UBAR
100
AcDbPolyline
90
4
70
0
43
0
10
47605
20
34495
10
49525
20
34495
10
49525
20
34615
10
47605
20
34615
0
LWPOLYLINE
5
295
330
10E
100
AcDbEntity
8
SPAN-RB-UBAR
100
AcDbPolyline
90
4
70
0
43
0
10
47605
20
35095
10
49525
20
35095
10
49525
20
35215
10
47605
20
35215
0
LWPOLYLINE
5
296
330
10E
100
AcDbEntity
8
SPAN-RB-UBAR
100
AcDbPolyline
90
4
70
0
43
0
10
47605
20
35695
10
49525
20
35695
10
49525
20
35815
10
47605
20
35815
0
LWPOLYLINE
5
297
330
10E
100
AcDbEntity
8
SPAN-RB-UBAR
100
AcDbPolyline
90
4
70
0
43
0
10
47605
20
36295
10
49525
20
36295
10
49525
20
36415
10
47605
20
36415
0
LWPOLYLINE
5
298
330
10E
100
AcDbEntity
8
SPAN-RB-UBAR
100
AcDbPolyline
90
4
70
0
43
0
10
47605
20
36895
10
49525
20
36895
10
49525
20
37015
10
47605
20
37015
0
LWPOLYLINE
5
299
330
10E
100
AcDbEntity
8
SPAN-RB-UBAR
100
AcDbPolyline
90
4
70
0
43
0
10
47605
20
37495
10
49525
20
37495
10
49525
20
37615
10
47605
20
37615
0
LWPOLYLINE
5
29A
330
10E
100
AcDbEntity
8
SPAN-RB-UBAR
100
AcDbPolyline
90
4
70
0
43
0
10
47605
20
38095
10
49525
20
38095
10
49525
20
38215
10
47605
20
38215
0
LWPOLYLINE
5
29B
330
10E
100
AcDbEntity
8
SPAN-RB-UBAR
100
AcDbPolyline
90
4
70
0
43
0
10
47605
20
38695
10
49525
20
38695
10
49525
20
38815
10
47605
20
38815
0
LWPOLYLINE
5
29C
330
10E
100
AcDbEntity
8
SPAN-RB-UBAR
100
AcDbPolyline
90
4
70
0
43
0
10
47605
20
39295
10
49525
20
39295
10
49525
20
39415
10
47605
20
39415
0
LWPOLYLINE
5
29D
330
10E
100
AcDbEntity
8
SPAN-RB-UBAR
100
AcDbPolyline
90
4
70
0
43
0
10
47605
20
39895
10
49525
20
39895
10
49525
20
40015
10
47605
20
40015
0
LWPOLYLINE
5
29E
330
10E
100
AcDbEntity
8
SPAN-RB-UBAR
100
AcDbPolyline
90
4
70
0
43
0
10
47605
20
41295
10
49525
20
41295
10
49525
20
41415
10
47605
20
41415
0
LWPOLYLINE
5
29F
330
10E
100
AcDbEntity
8
SPAN-RB-UBAR
100
AcDbPolyline
90
4
70
0
43
0
10
47605
20
41895
10
49525
20
41895
10
49525
20
42015
10
47605
20
42015
0
LWPOLYLINE
5
2A0
330
10E
100
AcDbEntity
8
SPAN-RB-UBAR
100
AcDbPolyline
90
4
70
0
43
0
10
47605
20
42495
10
49525
20
42495
10
49525
20
42615
10
47605
20
42615
0
LWPOLYLINE
5
2A1
330
10E
100
AcDbEntity
8
SPAN-RB-UBAR
100
AcDbPolyline
90
4
70
0
43
0
10
47605
20
43095
10
49525
20
43095
10
49525
20
43215
10
47605
20
43215
0
LWPOLYLINE
5
2A2
330
10E
100
AcDbEntity
8
SPAN-RB-UBAR
100
AcDbPolyline
90
4
70
0
43
0
10
47605
20
43695
10
49525
20
43695
10
49525
20
43815
10
47605
20
43815
0
LWPOLYLINE
5
2A3
330
10E
100
AcDbEntity
8
SPAN-RB-UBAR
100
AcDbPolyline
90
4
70
0
43
0
10
47605
20
44295
10
49525
20
44295
10
49525
20
44415
10
47605
20
44415
0
LWPOLYLINE
5
2A4
330
10E
100
AcDbEntity
8
SPAN-RB-UBAR
100
AcDbPolyline
90
4
70
0
43
0
10
47605
20
44895
10
49525
20
44895
10
49525
20
45015
10
47605
20
45015
0
LWPOLYLINE
5
2A5
330
10E
100
AcDbEntity
8
SPAN-RB-UBAR
100
AcDbPolyline
90
4
70
0
43
0
10
47605
20
45495
10
49525
20
45495
10
49525
20
45615
10
47605
20
45615
0
LWPOLYLINE
5
2A6
330
10E
100
AcDbEntity
8
SPAN-RB-UBAR
100
AcDbPolyline
90
4
70
0
43
0
10
47605
20
46095
10
49525
20
46095
10
49525
20
46215
10
47605
20
46215
0
LWPOLYLINE
5
2A7
330
10E
100
AcDbEntity
8
SPAN-RB-UBAR
100
AcDbPolyline
90
4
70
0
43
0
10
47605
20
46695
10
49525
20
46695
10
49525
20
46815
10
47605
20
46815
0
LWPOLYLINE
5
2A8
330
10E
100
AcDbEntity
8
SPAN-RB-UBAR
100
AcDbPolyline
90
4
70
0
43
0
10
47605
20
47295
10
49525
20
47295
10
49525
20
47415
10
47605
20
47415
0
LWPOLYLINE
5
2A9
330
10E
100
AcDbEntity
8
SPAN-RB-UBAR
100
AcDbPolyline
90
4
70
0
43
0
10
47605
20
47895
10
49525
20
47895
10
49525
20
48015
10
47605
20
48015
0
LWPOLYLINE
5
2AA
330
10E
100
AcDbEntity
8
SPAN-RB-UBAR
100
AcDbPolyline
90
4
70
0
43
0
10
47605
20
49295
10
49525
20
49295
10
49525
20
49415
10
47605
20
49415
0
TEXT
5
2AB
330
10E
100
AcDbEntity
8
SPAN-RB-TEXT
100
AcDbText
10
47850
20
36650
30
0
40
210
1
141T12@150-U06-(L=4010) U-BARS LEGS 1920 T&B
50
90
7
STANDARD
72
1
11
47850
21
36650
31
0
100
AcDbText
73
0
0
CIRCLE
5
2AC
330
10E
100
AcDbEntity
8
SPAN-CALLOUT
100
AcDbCircle
10
50150
20
36650
30
0
40
300
0
TEXT
5
2AD
330
10E
100
AcDbEntity
8
SPAN-CALLOUT
100
AcDbText
10
50150
20
36650
30
0
40
160
1
E2
7
STANDARD
72
1
11
50150
21
36650
31
0
100
AcDbText
73
2
0
LINE
5
2AE
330
10E
100
AcDbEntity
8
SPAN-CALLOUT
100
AcDbLine
10
49850
20
36650
30
0
11
49550
21
36650
31
0
0
LINE
5
2AF
330
10E
100
AcDbEntity
8
SPAN-RB
100
AcDbLine
10
49525
20
49565
30
0
11
37525
21
49565
31
0
0
TEXT
5
2B0
330
10E
100
AcDbEntity
8
SPAN-RB-TEXT
100
AcDbText
10
43525
20
49620
30
0
40
210
1
4T12-T&B-U03-(L=12000)
50
360
7
SPAN-REBAR
72
1
11
43525
21
49620
31
0
100
AcDbText
73
0
0
TEXT
5
2B1
330
10E
100
AcDbEntity
8
SPAN-RB-TEXT
100
AcDbText
10
43525
20
49345
30
0
40
170
1
12000
50
360
7
SPAN-REBAR
72
1
11
43525
21
49345
31
0
100
AcDbText
73
0
0
LINE
5
2B2
330
10E
100
AcDbEntity
8
SPAN-RB
100
AcDbLine
10
37525
20
49565
30
0
11
26075
21
49565
31
0
0
LINE
5
2B3
330
10E
100
AcDbEntity
8
SPAN-RB
100
AcDbLine
10
38075
20
49415
30
0
11
37525
21
49415
31
0
0
TEXT
5
2B4
330
10E
100
AcDbEntity
8
SPAN-RB-TEXT
100
AcDbText
10
31800
20
49620
30
0
40
210
1
4T12-T&B-U04-(L=12000)
50
360
7
SPAN-REBAR
72
1
11
31800
21
49620
31
0
100
AcDbText
73
0
0
TEXT
5
2B5
330
10E
100
AcDbEntity
8
SPAN-RB-TEXT
100
AcDbText
10
31800
20
49345
30
0
40
170
1
12000
50
360
7
SPAN-REBAR
72
1
11
31800
21
49345
31
0
100
AcDbText
73
0
0
LINE
5
2B6
330
10E
100
AcDbEntity
8
SPAN-RB
100
AcDbLine
10
26075
20
49565
30
0
11
17075
21
49565
31
0
0
LINE
5
2B7
330
10E
100
AcDbEntity
8
SPAN-RB
100
AcDbLine
10
26625
20
49415
30
0
11
26075
21
49415
31
0
0
TEXT
5
2B8
330
10E
100
AcDbEntity
8
SPAN-RB-TEXT
100
AcDbText
10
21575
20
49620
30
0
40
210
1
4T12-T&B-U04-(L=9550)
50
360
7
SPAN-REBAR
72
1
11
21575
21
49620
31
0
100
AcDbText
73
0
0
TEXT
5
2B9
330
10E
100
AcDbEntity
8
SPAN-RB-TEXT
100
AcDbText
10
21575
20
49345
30
0
40
170
1
9550
50
360
7
SPAN-REBAR
72
1
11
21575
21
49345
31
0
100
AcDbText
73
0
0
LINE
5
2BA
330
10E
100
AcDbEntity
8
SPAN-RB
100
AcDbLine
10
49525
20
49625
30
0
11
49525
21
49505
31
0
0
LINE
5
2BB
330
10E
100
AcDbEntity
8
SPAN-RB
100
AcDbLine
10
17075
20
49625
30
0
11
17075
21
49505
31
0
0
LWPOLYLINE
5
2BC
330
10E
100
AcDbEntity
8
SPAN-RB-UBAR
100
AcDbPolyline
90
4
70
0
43
0
10
49535
20
47705
10
49535
20
49625
10
49415
20
49625
10
49415
20
47705
0
LWPOLYLINE
5
2BD
330
10E
100
AcDbEntity
8
SPAN-RB-UBAR
100
AcDbPolyline
90
4
70
0
43
0
10
47905
20
47705
10
47905
20
49625
10
47785
20
49625
10
47785
20
47705
0
LWPOLYLINE
5
2BE
330
10E
100
AcDbEntity
8
SPAN-RB-UBAR
100
AcDbPolyline
90
4
70
0
43
0
10
47305
20
47705
10
47305
20
49625
10
47185
20
49625
10
47185
20
47705
0
LWPOLYLINE
5
2BF
330
10E
100
AcDbEntity
8
SPAN-RB-UBAR
100
AcDbPolyline
90
4
70
0
43
0
10
46705
20
47705
10
46705
20
49625
10
46585
20
49625
10
46585
20
47705
0
LWPOLYLINE
5
2C0
330
10E
100
AcDbEntity
8
SPAN-RB-UBAR
100
AcDbPolyline
90
4
70
0
43
0
10
46105
20
47705
10
46105
20
49625
10
45985
20
49625
10
45985
20
47705
0
LWPOLYLINE
5
2C1
330
10E
100
AcDbEntity
8
SPAN-RB-UBAR
100
AcDbPolyline
90
4
70
0
43
0
10
45505
20
47705
10
45505
20
49625
10
45385
20
49625
10
45385
20
47705
0
LWPOLYLINE
5
2C2
330
10E
100
AcDbEntity
8
SPAN-RB-UBAR
100
AcDbPolyline
90
4
70
0
43
0
10
44905
20
47705
10
44905
20
49625
10
44785
20
49625
10
44785
20
47705
0
LWPOLYLINE
5
2C3
330
10E
100
AcDbEntity
8
SPAN-RB-UBAR
100
AcDbPolyline
90
4
70
0
43
0
10
44305
20
47705
10
44305
20
49625
10
44185
20
49625
10
44185
20
47705
0
LWPOLYLINE
5
2C4
330
10E
100
AcDbEntity
8
SPAN-RB-UBAR
100
AcDbPolyline
90
4
70
0
43
0
10
43705
20
47705
10
43705
20
49625
10
43585
20
49625
10
43585
20
47705
0
LWPOLYLINE
5
2C5
330
10E
100
AcDbEntity
8
SPAN-RB-UBAR
100
AcDbPolyline
90
4
70
0
43
0
10
43105
20
47705
10
43105
20
49625
10
42985
20
49625
10
42985
20
47705
0
LWPOLYLINE
5
2C6
330
10E
100
AcDbEntity
8
SPAN-RB-UBAR
100
AcDbPolyline
90
4
70
0
43
0
10
42505
20
47705
10
42505
20
49625
10
42385
20
49625
10
42385
20
47705
0
LWPOLYLINE
5
2C7
330
10E
100
AcDbEntity
8
SPAN-RB-UBAR
100
AcDbPolyline
90
4
70
0
43
0
10
41905
20
47705
10
41905
20
49625
10
41785
20
49625
10
41785
20
47705
0
LWPOLYLINE
5
2C8
330
10E
100
AcDbEntity
8
SPAN-RB-UBAR
100
AcDbPolyline
90
4
70
0
43
0
10
40405
20
47705
10
40405
20
49625
10
40285
20
49625
10
40285
20
47705
0
LWPOLYLINE
5
2C9
330
10E
100
AcDbEntity
8
SPAN-RB-UBAR
100
AcDbPolyline
90
4
70
0
43
0
10
39805
20
47705
10
39805
20
49625
10
39685
20
49625
10
39685
20
47705
0
LWPOLYLINE
5
2CA
330
10E
100
AcDbEntity
8
SPAN-RB-UBAR
100
AcDbPolyline
90
4
70
0
43
0
10
39205
20
47705
10
39205
20
49625
10
39085
20
49625
10
39085
20
47705
0
LWPOLYLINE
5
2CB
330
10E
100
AcDbEntity
8
SPAN-RB-UBAR
100
AcDbPolyline
90
4
70
0
43
0
10
38605
20
47705
10
38605
20
49625
10
38485
20
49625
10
38485
20
47705
0
LWPOLYLINE
5
2CC
330
10E
100
AcDbEntity
8
SPAN-RB-UBAR
100
AcDbPolyline
90
4
70
0
43
0
10
38005
20
47705
10
38005
20
49625
10
37885
20
49625
10
37885
20
47705
0
LWPOLYLINE
5
2CD
330
10E
100
AcDbEntity
8
SPAN-RB-UBAR
100
AcDbPolyline
90
4
70
0
43
0
10
37405
20
47705
10
37405
20
49625
10
37285
20
49625
10
37285
20
47705
0
LWPOLYLINE
5
2CE
330
10E
100
AcDbEntity
8
SPAN-RB-UBAR
100
AcDbPolyline
90
4
70
0
43
0
10
36805
20
47705
10
36805
20
49625
10
36685
20
49625
10
36685
20
47705
0
LWPOLYLINE
5
2CF
330
10E
100
AcDbEntity
8
SPAN-RB-UBAR
100
AcDbPolyline
90
4
70
0
43
0
10
36205
20
47705
10
36205
20
49625
10
36085
20
49625
10
36085
20
47705
0
LWPOLYLINE
5
2D0
330
10E
100
AcDbEntity
8
SPAN-RB-UBAR
100
AcDbPolyline
90
4
70
0
43
0
10
35605
20
47705
10
35605
20
49625
10
35485
20
49625
10
35485
20
47705
0
LWPOLYLINE
5
2D1
330
10E
100
AcDbEntity
8
SPAN-RB-UBAR
100
AcDbPolyline
90
4
70
0
43
0
10
35005
20
47705
10
35005
20
49625
10
34885
20
49625
10
34885
20
47705
0
LWPOLYLINE
5
2D2
330
10E
100
AcDbEntity
8
SPAN-RB-UBAR
100
AcDbPolyline
90
4
70
0
43
0
10
34405
20
47705
10
34405
20
49625
10
34285
20
49625
10
34285
20
47705
0
LWPOLYLINE
5
2D3
330
10E
100
AcDbEntity
8
SPAN-RB-UBAR
100
AcDbPolyline
90
4
70
0
43
0
10
32905
20
47705
10
32905
20
49625
10
32785
20
49625
10
32785
20
47705
0
LWPOLYLINE
5
2D4
330
10E
100
AcDbEntity
8
SPAN-RB-UBAR
100
AcDbPolyline
90
4
70
0
43
0
10
32305
20
47705
10
32305
20
49625
10
32185
20
49625
10
32185
20
47705
0
LWPOLYLINE
5
2D5
330
10E
100
AcDbEntity
8
SPAN-RB-UBAR
100
AcDbPolyline
90
4
70
0
43
0
10
31705
20
47705
10
31705
20
49625
10
31585
20
49625
10
31585
20
47705
0
LWPOLYLINE
5
2D6
330
10E
100
AcDbEntity
8
SPAN-RB-UBAR
100
AcDbPolyline
90
4
70
0
43
0
10
31105
20
47705
10
31105
20
49625
10
30985
20
49625
10
30985
20
47705
0
LWPOLYLINE
5
2D7
330
10E
100
AcDbEntity
8
SPAN-RB-UBAR
100
AcDbPolyline
90
4
70
0
43
0
10
30505
20
47705
10
30505
20
49625
10
30385
20
49625
10
30385
20
47705
0
LWPOLYLINE
5
2D8
330
10E
100
AcDbEntity
8
SPAN-RB-UBAR
100
AcDbPolyline
90
4
70
0
43
0
10
29905
20
47705
10
29905
20
49625
10
29785
20
49625
10
29785
20
47705
0
LWPOLYLINE
5
2D9
330
10E
100
AcDbEntity
8
SPAN-RB-UBAR
100
AcDbPolyline
90
4
70
0
43
0
10
29305
20
47705
10
29305
20
49625
10
29185
20
49625
10
29185
20
47705
0
LWPOLYLINE
5
2DA
330
10E
100
AcDbEntity
8
SPAN-RB-UBAR
100
AcDbPolyline
90
4
70
0
43
0
10
28705
20
47705
10
28705
20
49625
10
28585
20
49625
10
28585
20
47705
0
LWPOLYLINE
5
2DB
330
10E
100
AcDbEntity
8
SPAN-RB-UBAR
100
AcDbPolyline
90
4
70
0
43
0
10
28105
20
47705
10
28105
20
49625
10
27985
20
49625
10
27985
20
47705
0
LWPOLYLINE
5
2DC
330
10E
100
AcDbEntity
8
SPAN-RB-UBAR
100
AcDbPolyline
90
4
70
0
43
0
10
27505
20
47705
10
27505
20
49625
10
27385
20
49625
10
27385
20
47705
0
LWPOLYLINE
5
2DD
330
10E
100
AcDbEntity
8
SPAN-RB-UBAR
100
AcDbPolyline
90
4
70
0
43
0
10
26905
20
47705
10
26905
20
49625
10
26785
20
49625
10
26785
20
47705
0
LWPOLYLINE
5
2DE
330
10E
100
AcDbEntity
8
SPAN-RB-UBAR
100
AcDbPolyline
90
4
70
0
43
0
10
25405
20
47705
10
25405
20
49625
10
25285
20
49625
10
25285
20
47705
0
LWPOLYLINE
5
2DF
330
10E
100
AcDbEntity
8
SPAN-RB-UBAR
100
AcDbPolyline
90
4
70
0
43
0
10
24805
20
47705
10
24805
20
49625
10
24685
20
49625
10
24685
20
47705
0
LWPOLYLINE
5
2E0
330
10E
100
AcDbEntity
8
SPAN-RB-UBAR
100
AcDbPolyline
90
4
70
0
43
0
10
24205
20
47705
10
24205
20
49625
10
24085
20
49625
10
24085
20
47705
0
LWPOLYLINE
5
2E1
330
10E
100
AcDbEntity
8
SPAN-RB-UBAR
100
AcDbPolyline
90
4
70
0
43
0
10
23605
20
47705
10
23605
20
49625
10
23485
20
49625
10
23485
20
47705
0
LWPOLYLINE
5
2E2
330
10E
100
AcDbEntity
8
SPAN-RB-UBAR
100
AcDbPolyline
90
4
70
0
43
0
10
23005
20
47705
10
23005
20
49625
10
22885
20
49625
10
22885
20
47705
0
LWPOLYLINE
5
2E3
330
10E
100
AcDbEntity
8
SPAN-RB-UBAR
100
AcDbPolyline
90
4
70
0
43
0
10
22405
20
47705
10
22405
20
49625
10
22285
20
49625
10
22285
20
47705
0
LWPOLYLINE
5
2E4
330
10E
100
AcDbEntity
8
SPAN-RB-UBAR
100
AcDbPolyline
90
4
70
0
43
0
10
21805
20
47705
10
21805
20
49625
10
21685
20
49625
10
21685
20
47705
0
LWPOLYLINE
5
2E5
330
10E
100
AcDbEntity
8
SPAN-RB-UBAR
100
AcDbPolyline
90
4
70
0
43
0
10
21205
20
47705
10
21205
20
49625
10
21085
20
49625
10
21085
20
47705
0
LWPOLYLINE
5
2E6
330
10E
100
AcDbEntity
8
SPAN-RB-UBAR
100
AcDbPolyline
90
4
70
0
43
0
10
20605
20
47705
10
20605
20
49625
10
20485
20
49625
10
20485
20
47705
0
LWPOLYLINE
5
2E7
330
10E
100
AcDbEntity
8
SPAN-RB-UBAR
100
AcDbPolyline
90
4
70
0
43
0
10
20005
20
47705
10
20005
20
49625
10
19885
20
49625
10
19885
20
47705
0
LWPOLYLINE
5
2E8
330
10E
100
AcDbEntity
8
SPAN-RB-UBAR
100
AcDbPolyline
90
4
70
0
43
0
10
19405
20
47705
10
19405
20
49625
10
19285
20
49625
10
19285
20
47705
0
LWPOLYLINE
5
2E9
330
10E
100
AcDbEntity
8
SPAN-RB-UBAR
100
AcDbPolyline
90
4
70
0
43
0
10
17905
20
47705
10
17905
20
49625
10
17785
20
49625
10
17785
20
47705
0
LWPOLYLINE
5
2EA
330
10E
100
AcDbEntity
8
SPAN-RB-UBAR
100
AcDbPolyline
90
4
70
0
43
0
10
17305
20
47705
10
17305
20
49625
10
17185
20
49625
10
17185
20
47705
0
TEXT
5
2EB
330
10E
100
AcDbEntity
8
SPAN-RB-TEXT
100
AcDbText
10
33300
20
47950
30
0
40
210
1
177T12@150-U06-(L=4010) U-BARS LEGS 1920 T&B
50
360
7
STANDARD
72
1
11
33300
21
47950
31
0
100
AcDbText
73
0
0
CIRCLE
5
2EC
330
10E
100
AcDbEntity
8
SPAN-CALLOUT
100
AcDbCircle
10
33300
20
50250
30
0
40
300
0
TEXT
5
2ED
330
10E
100
AcDbEntity
8
SPAN-CALLOUT
100
AcDbText
10
33300
20
50250
30
0
40
160
1
E3
7
STANDARD
72
1
11
33300
21
50250
31
0
100
AcDbText
73
2
0
LINE
5
2EE
330
10E
100
AcDbEntity
8
SPAN-CALLOUT
100
AcDbLine
10
33300
20
49950
30
0
11
33300
21
49650
31
0
0
LINE
5
2EF
330
10E
100
AcDbEntity
8
SPAN-RB
100
AcDbLine
10
17135
20
49625
30
0
11
17135
21
37625
31
0
0
TEXT
5
2F0
330
10E
100
AcDbEntity
8
SPAN-RB-TEXT
100
AcDbText
10
17080
20
43625
30
0
40
210
1
4T12-T&B-U03-(L=12000)
50
90
7
SPAN-REBAR
72
1
11
17080
21
43625
31
0
100
AcDbText
73
0
0
TEXT
5
2F1
330
10E
100
AcDbEntity
8
SPAN-RB-TEXT
100
AcDbText
10
17355
20
43625
30
0
40
170
1
12000
50
90
7
SPAN-REBAR
72
1
11
17355
21
43625
31
0
100
AcDbText
73
0
0
LINE
5
2F2
330
10E
100
AcDbEntity
8
SPAN-RB
100
AcDbLine
10
17135
20
37625
30
0
11
17135
21
26175
31
0
0
LINE
5
2F3
330
10E
100
AcDbEntity
8
SPAN-RB
100
AcDbLine
10
17285
20
38175
30
0
11
17285
21
37625
31
0
0
TEXT
5
2F4
330
10E
100
AcDbEntity
8
SPAN-RB-TEXT
100
AcDbText
10
17080
20
31900
30
0
40
210
1
4T12-T&B-U05-(L=12000)
50
90
7
SPAN-REBAR
72
1
11
17080
21
31900
31
0
100
AcDbText
73
0
0
TEXT
5
2F5
330
10E
100
AcDbEntity
8
SPAN-RB-TEXT
100
AcDbText
10
17355
20
31900
30
0
40
170
1
12000
50
90
7
SPAN-REBAR
72
1
11
17355
21
31900
31
0
100
AcDbText
73
0
0
LINE
5
2F6
330
10E
100
AcDbEntity
8
SPAN-RB
100
AcDbLine
10
17135
20
26175
30
0
11
17135
21
23675
31
0
0
LINE
5
2F7
330
10E
100
AcDbEntity
8
SPAN-RB
100
AcDbLine
10
17285
20
26725
30
0
11
17285
21
26175
31
0
0
TEXT
5
2F8
330
10E
100
AcDbEntity
8
SPAN-RB-TEXT
100
AcDbText
10
17080
20
24925
30
0
40
210
1
4T12-T&B-U05-(L=3050)
50
90
7
SPAN-REBAR
72
1
11
17080
21
24925
31
0
100
AcDbText
73
0
0
TEXT
5
2F9
330
10E
100
AcDbEntity
8
SPAN-RB-TEXT
100
AcDbText
10
17355
20
24925
30
0
40
170
1
3050
50
90
7
SPAN-REBAR
72
1
11
17355
21
24925
31
0
100
AcDbText
73
0
0
LINE
5
2FA
330
10E
100
AcDbEntity
8
SPAN-RB
100
AcDbLine
10
17075
20
49625
30
0
11
17195
21
49625
31
0
0
LINE
5
2FB
330
10E
100
AcDbEntity
8
SPAN-RB
100
AcDbLine
10
17075
20
23675
30
0
11
17195
21
23675
31
0
0
LWPOLYLINE
5
2FC
330
10E
100
AcDbEntity
8
SPAN-RB-UBAR
100
AcDbPolyline
90
4
70
0
43
0
10
18995
20
49635
10
17075
20
49635
10
17075
20
49515
10
18995
20
49515
0
LWPOLYLINE
5
2FD
330
10E
100
AcDbEntity
8
SPAN-RB-UBAR
100
AcDbPolyline
90
4
70
0
43
0
10
18995
20
49035
10
17075
20
49035
10
17075
20
48915
10
18995
20
48915
0
LWPOLYLINE
5
2FE
330
10E
100
AcDbEntity
8
SPAN-RB-UBAR
100
AcDbPolyline
90
4
70
0
43
0
10
18995
20
48435
10
17075
20
48435
10
17075
20
48315
10
18995
20
48315
0
LWPOLYLINE
5
2FF
330
10E
100
AcDbEntity
8
SPAN-RB-UBAR
100
AcDbPolyline
90
4
70
0
43
0
10
18995
20
47835
10
17075
20
47835
10
17075
20
47715
10
18995
20
47715
0
LWPOLYLINE
5
300
330
10E
100
AcDbEntity
8
SPAN-RB-UBAR
100
AcDbPolyline
90
4
70
0
43
0
10
18995
20
47235
10
17075
20
47235
10
17075
20
47115
10
18995
20
47115
0
LWPOLYLINE
5
301
330
10E
100
AcDbEntity
8
SPAN-RB-UBAR
100
AcDbPolyline
90
4
70
0
43
0
10
18995
20
46635
10
17075
20
46635
10
17075
20
46515
10
18995
20
46515
0
LWPOLYLINE
5
302
330
10E
100
AcDbEntity
8
SPAN-RB-UBAR
100
AcDbPolyline
90
4
70
0
43
0
10
18995
20
46035
10
17075
20
46035
10
17075
20
45915
10
18995
20
45915
0
LWPOLYLINE
5
303
330
10E
100
AcDbEntity
8
SPAN-RB-UBAR
100
AcDbPolyline
90
4
70
0
43
0
10
18995
20
45435
10
17075
20
45435
10
17075
20
45315
10
18995
20
45315
0
LWPOLYLINE
5
304
330
10E
100
AcDbEntity
8
SPAN-RB-UBAR
100
AcDbPolyline
90
4
70
0
43
0
10
18995
20
44835
10
17075
20
44835
10
17075
20
44715
10
18995
20
44715
0
LWPOLYLINE
5
305
330
10E
100
AcDbEntity
8
SPAN-RB-UBAR
100
AcDbPolyline
90
4
70
0
43
0
10
18995
20
44235
10
17075
20
44235
10
17075
20
44115
10
18995
20
44115
0
LWPOLYLINE
5
306
330
10E
100
AcDbEntity
8
SPAN-RB-UBAR
100
AcDbPolyline
90
4
70
0
43
0
10
18995
20
43635
10
17075
20
43635
10
17075
20
43515
10
18995
20
43515
0
LWPOLYLINE
5
307
330
10E
100
AcDbEntity
8
SPAN-RB-UBAR
100
AcDbPolyline
90
4
70
0
43
0
10
18995
20
43035
10
17075
20
43035
10
17075
20
42915
10
18995
20
42915
0
LWPOLYLINE
5
308
330
10E
100
AcDbEntity
8
SPAN-RB-UBAR
100
AcDbPolyline
90
4
70
0
43
0
10
18995
20
42435
10
17075
20
42435
10
17075
20
42315
10
18995
20
42315
0
LWPOLYLINE
5
309
330
10E
100
AcDbEntity
8
SPAN-RB-UBAR
100
AcDbPolyline
90
4
70
0
43
0
10
18995
20
41835
10
17075
20
41835
10
17075
20
41715
10
18995
20
41715
0
LWPOLYLINE
5
30A
330
10E
100
AcDbEntity
8
SPAN-RB-UBAR
100
AcDbPolyline
90
4
70
0
43
0
10
18995
20
41235
10
17075
20
41235
10
17075
20
41115
10
18995
20
41115
0
LWPOLYLINE
5
30B
330
10E
100
AcDbEntity
8
SPAN-RB-UBAR
100
AcDbPolyline
90
4
70
0
43
0
10
18995
20
40635
10
17075
20
40635
10
17075
20
40515
10
18995
20
40515
0
LWPOLYLINE
5
30C
330
10E
100
AcDbEntity
8
SPAN-RB-UBAR
100
AcDbPolyline
90
4
70
0
43
0
10
18995
20
40035
10
17075
20
40035
10
17075
20
39915
10
18995
20
39915
0
LWPOLYLINE
5
30D
330
10E
100
AcDbEntity
8
SPAN-RB-UBAR
100
AcDbPolyline
90
4
70
0
43
0
10
18995
20
39435
10
17075
20
39435
10
17075
20
39315
10
18995
20
39315
0
LWPOLYLINE
5
30E
330
10E
100
AcDbEntity
8
SPAN-RB-UBAR
100
AcDbPolyline
90
4
70
0
43
0
10
18995
20
38835
10
17075
20
38835
10
17075
20
38715
10
18995
20
38715
0
LWPOLYLINE
5
30F
330
10E
100
AcDbEntity
8
SPAN-RB-UBAR
100
AcDbPolyline
90
4
70
0
43
0
10
18995
20
38235
10
17075
20
38235
10
17075
20
38115
10
18995
20
38115
0
LWPOLYLINE
5
310
330
10E
100
AcDbEntity
8
SPAN-RB-UBAR
100
AcDbPolyline
90
4
70
0
43
0
10
18995
20
37635
10
17075
20
37635
10
17075
20
37515
10
18995
20
37515
0
LWPOLYLINE
5
311
330
10E
100
AcDbEntity
8
SPAN-RB-UBAR
100
AcDbPolyline
90
4
70
0
43
0
10
18995
20
37035
10
17075
20
37035
10
17075
20
36915
10
18995
20
36915
0
LWPOLYLINE
5
312
330
10E
100
AcDbEntity
8
SPAN-RB-UBAR
100
AcDbPolyline
90
4
70
0
43
0
10
18995
20
36435
10
17075
20
36435
10
17075
20
36315
10
18995
20
36315
0
LWPOLYLINE
5
313
330
10E
100
AcDbEntity
8
SPAN-RB-UBAR
100
AcDbPolyline
90
4
70
0
43
0
10
18995
20
35835
10
17075
20
35835
10
17075
20
35715
10
18995
20
35715
0
LWPOLYLINE
5
314
330
10E
100
AcDbEntity
8
SPAN-RB-UBAR
100
AcDbPolyline
90
4
70
0
43
0
10
18995
20
35235
10
17075
20
35235
10
17075
20
35115
10
18995
20
35115
0
LWPOLYLINE
5
315
330
10E
100
AcDbEntity
8
SPAN-RB-UBAR
100
AcDbPolyline
90
4
70
0
43
0
10
18995
20
34635
10
17075
20
34635
10
17075
20
34515
10
18995
20
34515
0
LWPOLYLINE
5
316
330
10E
100
AcDbEntity
8
SPAN-RB-UBAR
100
AcDbPolyline
90
4
70
0
43
0
10
18995
20
34035
10
17075
20
34035
10
17075
20
33915
10
18995
20
33915
0
LWPOLYLINE
5
317
330
10E
100
AcDbEntity
8
SPAN-RB-UBAR
100
AcDbPolyline
90
4
70
0
43
0
10
18995
20
33435
10
17075
20
33435
10
17075
20
33315
10
18995
20
33315
0
LWPOLYLINE
5
318
330
10E
100
AcDbEntity
8
SPAN-RB-UBAR
100
AcDbPolyline
90
4
70
0
43
0
10
18995
20
32835
10
17075
20
32835
10
17075
20
32715
10
18995
20
32715
0
LWPOLYLINE
5
319
330
10E
100
AcDbEntity
8
SPAN-RB-UBAR
100
AcDbPolyline
90
4
70
0
43
0
10
18995
20
32235
10
17075
20
32235
10
17075
20
32115
10
18995
20
32115
0
LWPOLYLINE
5
31A
330
10E
100
AcDbEntity
8
SPAN-RB-UBAR
100
AcDbPolyline
90
4
70
0
43
0
10
18995
20
31635
10
17075
20
31635
10
17075
20
31515
10
18995
20
31515
0
LWPOLYLINE
5
31B
330
10E
100
AcDbEntity
8
SPAN-RB-UBAR
100
AcDbPolyline
90
4
70
0
43
0
10
18995
20
31035
10
17075
20
31035
10
17075
20
30915
10
18995
20
30915
0
LWPOLYLINE
5
31C
330
10E
100
AcDbEntity
8
SPAN-RB-UBAR
100
AcDbPolyline
90
4
70
0
43
0
10
18995
20
30435
10
17075
20
30435
10
17075
20
30315
10
18995
20
30315
0
LWPOLYLINE
5
31D
330
10E
100
AcDbEntity
8
SPAN-RB-UBAR
100
AcDbPolyline
90
4
70
0
43
0
10
18995
20
29835
10
17075
20
29835
10
17075
20
29715
10
18995
20
29715
0
LWPOLYLINE
5
31E
330
10E
100
AcDbEntity
8
SPAN-RB-UBAR
100
AcDbPolyline
90
4
70
0
43
0
10
18995
20
29235
10
17075
20
29235
10
17075
20
29115
10
18995
20
29115
0
LWPOLYLINE
5
31F
330
10E
100
AcDbEntity
8
SPAN-RB-UBAR
100
AcDbPolyline
90
4
70
0
43
0
10
18995
20
28635
10
17075
20
28635
10
17075
20
28515
10
18995
20
28515
0
LWPOLYLINE
5
320
330
10E
100
AcDbEntity
8
SPAN-RB-UBAR
100
AcDbPolyline
90
4
70
0
43
0
10
18995
20
28035
10
17075
20
28035
10
17075
20
27915
10
18995
20
27915
0
LWPOLYLINE
5
321
330
10E
100
AcDbEntity
8
SPAN-RB-UBAR
100
AcDbPolyline
90
4
70
0
43
0
10
18995
20
27435
10
17075
20
27435
10
17075
20
27315
10
18995
20
27315
0
LWPOLYLINE
5
322
330
10E
100
AcDbEntity
8
SPAN-RB-UBAR
100
AcDbPolyline
90
4
70
0
43
0
10
18995
20
26835
10
17075
20
26835
10
17075
20
26715
10
18995
20
26715
0
LWPOLYLINE
5
323
330
10E
100
AcDbEntity
8
SPAN-RB-UBAR
100
AcDbPolyline
90
4
70
0
43
0
10
18995
20
26235
10
17075
20
26235
10
17075
20
26115
10
18995
20
26115
0
LWPOLYLINE
5
324
330
10E
100
AcDbEntity
8
SPAN-RB-UBAR
100
AcDbPolyline
90
4
70
0
43
0
10
18995
20
25635
10
17075
20
25635
10
17075
20
25515
10
18995
20
25515
0
LWPOLYLINE
5
325
330
10E
100
AcDbEntity
8
SPAN-RB-UBAR
100
AcDbPolyline
90
4
70
0
43
0
10
18995
20
25035
10
17075
20
25035
10
17075
20
24915
10
18995
20
24915
0
LWPOLYLINE
5
326
330
10E
100
AcDbEntity
8
SPAN-RB-UBAR
100
AcDbPolyline
90
4
70
0
43
0
10
18995
20
24435
10
17075
20
24435
10
17075
20
24315
10
18995
20
24315
0
LWPOLYLINE
5
327
330
10E
100
AcDbEntity
8
SPAN-RB-UBAR
100
AcDbPolyline
90
4
70
0
43
0
10
18995
20
23835
10
17075
20
23835
10
17075
20
23715
10
18995
20
23715
0
TEXT
5
328
330
10E
100
AcDbEntity
8
SPAN-RB-TEXT
100
AcDbText
10
18750
20
36650
30
0
40
210
1
174T12@150-U06-(L=4010) U-BARS LEGS 1920 T&B
50
90
7
STANDARD
72
1
11
18750
21
36650
31
0
100
AcDbText
73
0
0
CIRCLE
5
329
330
10E
100
AcDbEntity
8
SPAN-CALLOUT
100
AcDbCircle
10
16450
20
36650
30
0
40
300
0
TEXT
5
32A
330
10E
100
AcDbEntity
8
SPAN-CALLOUT
100
AcDbText
10
16450
20
36650
30
0
40
160
1
E4
7
STANDARD
72
1
11
16450
21
36650
31
0
100
AcDbText
73
2
0
LINE
5
32B
330
10E
100
AcDbEntity
8
SPAN-CALLOUT
100
AcDbLine
10
16750
20
36650
30
0
11
17050
21
36650
31
0
0
CIRCLE
5
32C
330
10E
100
AcDbEntity
8
SPAN-RB-UBAR
6
DASHDOT
100
AcDbCircle
10
44550
20
28650
30
0
40
1200
0
CIRCLE
5
32D
330
10E
100
AcDbEntity
8
SPAN-RB
100
AcDbCircle
10
44550
20
28650
30
0
40
1243
0
LWPOLYLINE
5
32E
330
10E
100
AcDbEntity
8
SPAN-RB-UBAR
100
AcDbPolyline
90
4
70
0
43
0
10
46975
20
28710
10
45775
20
28710
10
45775
20
28590
10
46975
20
28590
0
LWPOLYLINE
5
32F
330
10E
100
AcDbEntity
8
SPAN-RB-UBAR
100
AcDbPolyline
90
4
70
0
43
0
10
46767.44686
20
29633.440095
10
45658.791421
20
29174.219977
10
45704.713433
20
29063.354433
10
46813.368872
20
29522.574552
0
LWPOLYLINE
5
330
330
10E
100
AcDbEntity
8
SPAN-RB-UBAR
100
AcDbPolyline
90
4
70
0
43
0
10
46222.307538
20
30407.160351
10
45373.7794
20
29558.632214
10
45458.632214
20
29473.7794
10
46307.160351
20
30322.307538
0
LWPOLYLINE
5
331
330
10E
100
AcDbEntity
8
SPAN-RB-UBAR
100
AcDbPolyline
90
4
70
0
43
0
10
45422.574552
20
30913.368872
10
44963.354433
20
29804.713433
10
45074.219977
20
29758.791421
10
45533.440095
20
30867.44686
0
LWPOLYLINE
5
332
330
10E
100
AcDbEntity
8
SPAN-RB-UBAR
100
AcDbPolyline
90
4
70
0
43
0
10
44490
20
31075
10
44490
20
29875
10
44610
20
29875
10
44610
20
31075
0
LWPOLYLINE
5
333
330
10E
100
AcDbEntity
8
SPAN-RB-UBAR
100
AcDbPolyline
90
4
70
0
43
0
10
43566.559905
20
30867.44686
10
44025.780023
20
29758.791421
10
44136.645567
20
29804.713433
10
43677.425448
20
30913.368872
0
LWPOLYLINE
5
334
330
10E
100
AcDbEntity
8
SPAN-RB-UBAR
100
AcDbPolyline
90
4
70
0
43
0
10
42792.839649
20
30322.307538
10
43641.367786
20
29473.7794
10
43726.2206
20
29558.632214
10
42877.692462
20
30407.160351
0
LWPOLYLINE
5
335
330
10E
100
AcDbEntity
8
SPAN-RB-UBAR
100
AcDbPolyline
90
4
70
0
43
0
10
42286.631128
20
29522.574552
10
43395.286567
20
29063.354433
10
43441.208579
20
29174.219977
10
42332.55314
20
29633.440095
0
LWPOLYLINE
5
336
330
10E
100
AcDbEntity
8
SPAN-RB-UBAR
100
AcDbPolyline
90
4
70
0
43
0
10
42125
20
28590
10
43325
20
28590
10
43325
20
28710
10
42125
20
28710
0
LWPOLYLINE
5
337
330
10E
100
AcDbEntity
8
SPAN-RB-UBAR
100
AcDbPolyline
90
4
70
0
43
0
10
42332.55314
20
27666.559905
10
43441.208579
20
28125.780023
10
43395.286567
20
28236.645567
10
42286.631128
20
27777.425448
0
LWPOLYLINE
5
338
330
10E
100
AcDbEntity
8
SPAN-RB-UBAR
100
AcDbPolyline
90
4
70
0
43
0
10
42877.692462
20
26892.839649
10
43726.2206
20
27741.367786
10
43641.367786
20
27826.2206
10
42792.839649
20
26977.692462
0
LWPOLYLINE
5
339
330
10E
100
AcDbEntity
8
SPAN-RB-UBAR
100
AcDbPolyline
90
4
70
0
43
0
10
43677.425448
20
26386.631128
10
44136.645567
20
27495.286567
10
44025.780023
20
27541.208579
10
43566.559905
20
26432.55314
0
LWPOLYLINE
5
33A
330
10E
100
AcDbEntity
8
SPAN-RB-UBAR
100
AcDbPolyline
90
4
70
0
43
0
10
44610
20
26225
10
44610
20
27425
10
44490
20
27425
10
44490
20
26225
0
LWPOLYLINE
5
33B
330
10E
100
AcDbEntity
8
SPAN-RB-UBAR
100
AcDbPolyline
90
4
70
0
43
0
10
45533.440095
20
26432.55314
10
45074.219977
20
27541.208579
10
44963.354433
20
27495.286567
10
45422.574552
20
26386.631128
0
LWPOLYLINE
5
33C
330
10E
100
AcDbEntity
8
SPAN-RB-UBAR
100
AcDbPolyline
90
4
70
0
43
0
10
46307.160351
20
26977.692462
10
45458.632214
20
27826.2206
10
45373.7794
20
27741.367786
10
46222.307538
20
26892.839649
0
LWPOLYLINE
5
33D
330
10E
100
AcDbEntity
8
SPAN-RB-UBAR
100
AcDbPolyline
90
4
70
0
43
0
10
46813.368872
20
27777.425448
10
45704.713433
20
28236.645567
10
45658.791421
20
28125.780023
10
46767.44686
20
27666.559905
0
CIRCLE
5
33E
330
10E
100
AcDbEntity
8
SPAN-CALLOUT
100
AcDbCircle
10
45550
20
29650
30
0
40
350
0
TEXT
5
33F
330
10E
100
AcDbEntity
8
SPAN-CALLOUT
100
AcDbText
10
45550
20
29650
30
0
40
200
1
R1
7
STANDARD
72
1
11
45550
21
29650
31
0
100
AcDbText
73
2
0
LINE
5
340
330
10E
100
AcDbEntity
8
SPAN-CALLOUT
100
AcDbLine
10
45302.512627
20
29402.512627
30
0
11
44550
21
28650
31
0
0
TEXT
5
341
330
10E
100
AcDbEntity
8
SPAN-RB-TEXT
100
AcDbText
10
44550
20
25725
30
0
40
210
1
52T12@150-U07-(L=2570) RADIAL U-BARS + 4T12-RING-U01
7
STANDARD
72
1
11
44550
21
25725
31
0
100
AcDbText
73
0
0
CIRCLE
5
342
330
10E
100
AcDbEntity
8
SPAN-RB-UBAR
6
DASHDOT
100
AcDbCircle
10
22550
20
28650
30
0
40
900
0
CIRCLE
5
343
330
10E
100
AcDbEntity
8
SPAN-RB
100
AcDbCircle
10
22550
20
28650
30
0
40
943
0
LWPOLYLINE
5
344
330
10E
100
AcDbEntity
8
SPAN-RB-UBAR
100
AcDbPolyline
90
4
70
0
43
0
10
24675
20
28710
10
23475
20
28710
10
23475
20
28590
10
24675
20
28590
0
LWPOLYLINE
5
345
330
10E
100
AcDbEntity
8
SPAN-RB-UBAR
100
AcDbPolyline
90
4
70
0
43
0
10
24490.283001
20
29518.635066
10
23381.627562
20
29059.414947
10
23427.549574
20
28948.549403
10
24536.205013
20
29407.769522
0
LWPOLYLINE
5
346
330
10E
100
AcDbEntity
8
SPAN-RB-UBAR
100
AcDbPolyline
90
4
70
0
43
0
10
24010.175503
20
30195.028317
10
23161.647366
20
29346.500179
10
23246.500179
20
29261.647366
10
24095.028317
20
30110.175503
0
LWPOLYLINE
5
347
330
10E
100
AcDbEntity
8
SPAN-RB-UBAR
100
AcDbPolyline
90
4
70
0
43
0
10
23307.769522
20
30636.205013
10
22848.549403
20
29527.549574
10
22959.414947
20
29481.627562
10
23418.635066
20
30590.283001
0
LWPOLYLINE
5
348
330
10E
100
AcDbEntity
8
SPAN-RB-UBAR
100
AcDbPolyline
90
4
70
0
43
0
10
22490
20
30775
10
22490
20
29575
10
22610
20
29575
10
22610
20
30775
0
LWPOLYLINE
5
349
330
10E
100
AcDbEntity
8
SPAN-RB-UBAR
100
AcDbPolyline
90
4
70
0
43
0
10
21681.364934
20
30590.283001
10
22140.585053
20
29481.627562
10
22251.450597
20
29527.549574
10
21792.230478
20
30636.205013
0
LWPOLYLINE
5
34A
330
10E
100
AcDbEntity
8
SPAN-RB-UBAR
100
AcDbPolyline
90
4
70
0
43
0
10
21004.971683
20
30110.175503
10
21853.499821
20
29261.647366
10
21938.352634
20
29346.500179
10
21089.824497
20
30195.028317
0
LWPOLYLINE
5
34B
330
10E
100
AcDbEntity
8
SPAN-RB-UBAR
100
AcDbPolyline
90
4
70
0
43
0
10
20563.794987
20
29407.769522
10
21672.450426
20
28948.549403
10
21718.372438
20
29059.414947
10
20609.716999
20
29518.635066
0
LWPOLYLINE
5
34C
330
10E
100
AcDbEntity
8
SPAN-RB-UBAR
100
AcDbPolyline
90
4
70
0
43
0
10
20425
20
28590
10
21625
20
28590
10
21625
20
28710
10
20425
20
28710
0
LWPOLYLINE
5
34D
330
10E
100
AcDbEntity
8
SPAN-RB-UBAR
100
AcDbPolyline
90
4
70
0
43
0
10
20609.716999
20
27781.364934
10
21718.372438
20
28240.585053
10
21672.450426
20
28351.450597
10
20563.794987
20
27892.230478
0
LWPOLYLINE
5
34E
330
10E
100
AcDbEntity
8
SPAN-RB-UBAR
100
AcDbPolyline
90
4
70
0
43
0
10
21089.824497
20
27104.971683
10
21938.352634
20
27953.499821
10
21853.499821
20
28038.352634
10
21004.971683
20
27189.824497
0
LWPOLYLINE
5
34F
330
10E
100
AcDbEntity
8
SPAN-RB-UBAR
100
AcDbPolyline
90
4
70
0
43
0
10
21792.230478
20
26663.794987
10
22251.450597
20
27772.450426
10
22140.585053
20
27818.372438
10
21681.364934
20
26709.716999
0
LWPOLYLINE
5
350
330
10E
100
AcDbEntity
8
SPAN-RB-UBAR
100
AcDbPolyline
90
4
70
0
43
0
10
22610
20
26525
10
22610
20
27725
10
22490
20
27725
10
22490
20
26525
0
LWPOLYLINE
5
351
330
10E
100
AcDbEntity
8
SPAN-RB-UBAR
100
AcDbPolyline
90
4
70
0
43
0
10
23418.635066
20
26709.716999
10
22959.414947
20
27818.372438
10
22848.549403
20
27772.450426
10
23307.769522
20
26663.794987
0
LWPOLYLINE
5
352
330
10E
100
AcDbEntity
8
SPAN-RB-UBAR
100
AcDbPolyline
90
4
70
0
43
0
10
24095.028317
20
27189.824497
10
23246.500179
20
28038.352634
10
23161.647366
20
27953.499821
10
24010.175503
20
27104.971683
0
LWPOLYLINE
5
353
330
10E
100
AcDbEntity
8
SPAN-RB-UBAR
100
AcDbPolyline
90
4
70
0
43
0
10
24536.205013
20
27892.230478
10
23427.549574
20
28351.450597
10
23381.627562
20
28240.585053
10
24490.283001
20
27781.364934
0
CIRCLE
5
354
330
10E
100
AcDbEntity
8
SPAN-CALLOUT
100
AcDbCircle
10
23550
20
29650
30
0
40
350
0
TEXT
5
355
330
10E
100
AcDbEntity
8
SPAN-CALLOUT
100
AcDbText
10
23550
20
29650
30
0
40
200
1
R2
7
STANDARD
72
1
11
23550
21
29650
31
0
100
AcDbText
73
2
0
LINE
5
356
330
10E
100
AcDbEntity
8
SPAN-CALLOUT
100
AcDbLine
10
23302.512627
20
29402.512627
30
0
11
22550
21
28650
31
0
0
TEXT
5
357
330
10E
100
AcDbEntity
8
SPAN-RB-TEXT
100
AcDbText
10
22550
20
26025
30
0
40
210
1
39T12@150-U07-(L=2570) RADIAL U-BARS + 4T12-RING-U02
7
STANDARD
72
1
11
22550
21
26025
31
0
100
AcDbText
73
0
0
LWPOLYLINE
5
358
330
10E
100
AcDbEntity
8
SPAN-SHEET-FRAME
100
AcDbPolyline
90
4
70
1
43
0
10
2000
20
1000
10
22866.666667
20
1000
10
22866.666667
20
13500
10
2000
20
13500
0
LINE
5
359
330
10E
100
AcDbEntity
8
SPAN-SHEET-FRAME
100
AcDbLine
10
2000
20
12700
30
0
11
22866.666667
21
12700
31
0
0
CIRCLE
5
35A
330
10E
100
AcDbEntity
8
SPAN-CALLOUT
100
AcDbCircle
10
2700
20
13100
30
0
40
300
0
TEXT
5
35B
330
10E
100
AcDbEntity
8
SPAN-CALLOUT
100
AcDbText
10
2700
20
13100
30
0
40
220
1
1
7
STANDARD
72
1
11
2700
21
13100
31
0
100
AcDbText
73
2
0
TEXT
5
35C
330
10E
100
AcDbEntity
8
SPAN-SHEET-TEXT
100
AcDbText
10
3200
20
13100
30
0
40
240
1
U-BAR AT SLAB EDGE - SECTION
7
STANDARD
72
0
11
3200
21
13100
31
0
100
AcDbText
73
2
0
TEXT
5
35D
330
10E
100
AcDbEntity
8
SPAN-SHEET-TITLE
100
AcDbText
10
22666.666667
20
13100
30
0
40
180
1
1:20
7
STANDARD
72
2
11
22666.666667
21
13100
31
0
100
AcDbText
73
2
0
LWPOLYLINE
5
35E
330
10E
100
AcDbEntity
8
SPAN-DETAIL
370
35
100
AcDbPolyline
90
4
70
1
43
0
10
7133.333333
20
6250
10
19233.333333
20
6250
10
19233.333333
20
7350
10
7133.333333
20
7350
0
HATCH
5
35F
330
10E
100
AcDbEntity
8
SPAN-DETAIL-HATCH
100
AcDbHatch
10
0
20
0
30
0
210
0
220
0
230
1
2
ANSI31
70
0
71
0
91
1
92
3
72
0
73
1
93
4
10
7133.333333
20
6250
10
19233.333333
20
6250
10
19233.333333
20
7350
10
7133.333333
20
7350
97
0
75
1
76
1
52
0
41
50.393701
77
0
78
1
53
45
43
0
44
0
45
-113.137085
46
113.137085
79
0
98
0
0
LWPOLYLINE
5
360
330
10E
100
AcDbEntity
8
SPAN-RB-UBAR
370
70
100
AcDbPolyline
90
4
70
0
43
0
10
16733.333333
20
6405
10
7288.333333
20
6405
10
7288.333333
20
7195
10
16733.333333
20
7195
0
LINE
5
361
330
10E
100
AcDbEntity
8
SPAN-RB-UBAR
100
AcDbLine
10
16733.333333
20
6405
30
0
11
16733.333333
21
6405
31
0
0
LINE
5
362
330
10E
100
AcDbEntity
8
SPAN-RB-UBAR
100
AcDbLine
10
16733.333333
20
6405
30
0
11
16733.333333
21
6405
31
0
0
LINE
5
363
330
10E
100
AcDbEntity
8
SPAN-RB-UBAR
100
AcDbLine
10
16733.333333
20
7195
30
0
11
16733.333333
21
7195
31
0
0
LINE
5
364
330
10E
100
AcDbEntity
8
SPAN-RB-UBAR
100
AcDbLine
10
16733.333333
20
7195
30
0
11
16733.333333
21
7195
31
0
0
CIRCLE
5
365
330
10E
100
AcDbEntity
8
SPAN-RB-UBAR
100
AcDbCircle
10
7448.333333
20
6485
30
0
40
30
0
CIRCLE
5
366
330
10E
100
AcDbEntity
8
SPAN-RB-UBAR
100
AcDbCircle
10
7898.333333
20
6485
30
0
40
30
0
CIRCLE
5
367
330
10E
100
AcDbEntity
8
SPAN-RB-UBAR
100
AcDbCircle
10
7448.333333
20
7115
30
0
40
30
0
CIRCLE
5
368
330
10E
100
AcDbEntity
8
SPAN-RB-UBAR
100
AcDbCircle
10
7898.333333
20
7115
30
0
40
30
0
LWPOLYLINE
5
369
330
10E
100
AcDbEntity
8
SPAN-PT-TENDON
370
35
100
AcDbPolyline
90
4
70
1
43
0
10
7133.333333
20
6350
10
8433.333333
20
6350
10
8433.333333
20
7250
10
7133.333333
20
7250
0
TEXT
5
36A
330
10E
100
AcDbEntity
8
SPAN-PT-TENDON
100
AcDbText
10
8633.333333
20
6700
30
0
40
150
1
PT ANCHORAGE
7
STANDARD
72
0
100
AcDbText
73
0
0
LWPOLYLINE
5
36B
330
10E
100
AcDbEntity
8
SPAN-PT-TENDON
6
DASHED
100
AcDbPolyline
90
2
70
0
43
0
10
8433.333333
20
6800
10
19233.333333
20
6650
0
LINE
5
36C
330
10E
100
AcDbEntity
8
SPAN-DIM
100
AcDbLine
10
7133.333333
20
6250
30
0
11
7133.333333
21
5700
31
0
0
LINE
5
36D
330
10E
100
AcDbEntity
8
SPAN-DIM
100
AcDbLine
10
16733.333333
20
6250
30
0
11
16733.333333
21
5700
31
0
0
LINE
5
36E
330
10E
100
AcDbEntity
8
SPAN-DIM
100
AcDbLine
10
7133.333333
20
5550
30
0
11
16733.333333
21
5550
31
0
0
LINE
5
36F
330
10E
100
AcDbEntity
8
SPAN-DIM
100
AcDbLine
10
7063.333333
20
5480
30
0
11
7203.333333
21
5620
31
0
0
LINE
5
370
330
10E
100
AcDbEntity
8
SPAN-DIM
100
AcDbLine
10
16663.333333
20
5480
30
0
11
16803.333333
21
5620
31
0
0
TEXT
5
371
330
10E
100
AcDbEntity
8
SPAN-DIM
100
AcDbText
10
11933.333333
20
5622
30
0
40
180
1
LEG 1920
7
STANDARD
72
1
11
11933.333333
21
5622
31
0
100
AcDbText
73
0
0
LINE
5
372
330
10E
100
AcDbEntity
8
SPAN-DIM
100
AcDbLine
10
19233.333333
20
6250
30
0
11
19683.333333
21
6250
31
0
0
LINE
5
373
330
10E
100
AcDbEntity
8
SPAN-DIM
100
AcDbLine
10
19233.333333
20
7350
30
0
11
19683.333333
21
7350
31
0
0
LINE
5
374
330
10E
100
AcDbEntity
8
SPAN-DIM
100
AcDbLine
10
19833.333333
20
6250
30
0
11
19833.333333
21
7350
31
0
0
LINE
5
375
330
10E
100
AcDbEntity
8
SPAN-DIM
100
AcDbLine
10
19903.333333
20
6180
30
0
11
19763.333333
21
6320
31
0
0
LINE
5
376
330
10E
100
AcDbEntity
8
SPAN-DIM
100
AcDbLine
10
19903.333333
20
7280
30
0
11
19763.333333
21
7420
31
0
0
TEXT
5
377
330
10E
100
AcDbEntity
8
SPAN-DIM
100
AcDbText
10
19761.333333
20
6800
30
0
40
180
1
220
50
90
7
STANDARD
72
1
11
19761.333333
21
6800
31
0
100
AcDbText
73
0
0
LINE
5
378
330
10E
100
AcDbEntity
8
SPAN-DIM
100
AcDbLine
10
7133.333333
20
7350
30
0
11
7133.333333
21
8100
31
0
0
LINE
5
379
330
10E
100
AcDbEntity
8
SPAN-DIM
100
AcDbLine
10
7258.333333
20
7350
30
0
11
7258.333333
21
8100
31
0
0
LINE
5
37A
330
10E
100
AcDbEntity
8
SPAN-DIM
100
AcDbLine
10
7133.333333
20
7950
30
0
11
7258.333333
21
7950
31
0
0
LINE
5
37B
330
10E
100
AcDbEntity
8
SPAN-DIM
100
AcDbLine
10
7063.333333
20
7880
30
0
11
7203.333333
21
8020
31
0
0
LINE
5
37C
330
10E
100
AcDbEntity
8
SPAN-DIM
100
AcDbLine
10
7188.333333
20
7880
30
0
11
7328.333333
21
8020
31
0
0
TEXT
5
37D
330
10E
100
AcDbEntity
8
SPAN-DIM
100
AcDbText
10
7195.833333
20
8022
30
0
40
180
1
25
7
STANDARD
72
1
11
7195.833333
21
8022
31
0
100
AcDbText
73
0
0
TEXT
5
37E
330
10E
100
AcDbEntity
8
SPAN-RB-TEXT
100
AcDbText
10
13183.333333
20
8850
30
0
40
190
1
T12@150 U-BARS AT SLAB EDGE + 2T12 T&B LONGITUDINAL
7
STANDARD
72
1
11
13183.333333
21
8850
31
0
100
AcDbText
73
0
0
TEXT
5
37F
330
10E
100
AcDbEntity
8
SPAN-SHEET-NOTES
100
AcDbText
10
13183.333333
20
4250
30
0
40
160
1
BURSTING / SPALLING STEEL AT PT ANCHORAGE ZONE, ALL FREE EDGES
7
STANDARD
72
1
11
13183.333333
21
4250
31
0
100
AcDbText
73
0
0
LWPOLYLINE
5
380
330
10E
100
AcDbEntity
8
SPAN-SHEET-FRAME
100
AcDbPolyline
90
4
70
1
43
0
10
22866.666667
20
1000
10
43733.333333
20
1000
10
43733.333333
20
13500
10
22866.666667
20
13500
0
LINE
5
381
330
10E
100
AcDbEntity
8
SPAN-SHEET-FRAME
100
AcDbLine
10
22866.666667
20
12700
30
0
11
43733.333333
21
12700
31
0
0
CIRCLE
5
382
330
10E
100
AcDbEntity
8
SPAN-CALLOUT
100
AcDbCircle
10
23566.666667
20
13100
30
0
40
300
0
TEXT
5
383
330
10E
100
AcDbEntity
8
SPAN-CALLOUT
100
AcDbText
10
23566.666667
20
13100
30
0
40
220
1
2
7
STANDARD
72
1
11
23566.666667
21
13100
31
0
100
AcDbText
73
2
0
TEXT
5
384
330
10E
100
AcDbEntity
8
SPAN-SHEET-TEXT
100
AcDbText
10
24066.666667
20
13100
30
0
40
240
1
U-BARS AROUND CIRCULAR REGION - PLAN
7
STANDARD
72
0
11
24066.666667
21
13100
31
0
100
AcDbText
73
2
0
TEXT
5
385
330
10E
100
AcDbEntity
8
SPAN-SHEET-TITLE
100
AcDbText
10
43533.333333
20
13100
30
0
40
180
1
1:75
7
STANDARD
72
2
11
43533.333333
21
13100
31
0
100
AcDbText
73
2
0
CIRCLE
5
386
330
10E
100
AcDbEntity
8
SPAN-OPENING
370
35
100
AcDbCircle
10
33300
20
6800
30
0
40
1600
0
HATCH
5
387
330
10E
100
AcDbEntity
8
SPAN-OPENING-HATCH
100
AcDbHatch
10
0
20
0
30
0
210
0
220
0
230
1
2
ANSI37
70
0
71
0
91
1
92
3
72
0
73
1
93
40
10
34900
20
6800
10
34880.301345
20
7050.295144
10
34821.690426
20
7294.427191
10
34725.610439
20
7526.3848
10
34594.427191
20
7740.456404
10
34431.37085
20
7931.37085
10
34240.456404
20
8094.427191
10
34026.3848
20
8225.610439
10
33794.427191
20
8321.690426
10
33550.295144
20
8380.301345
10
33300
20
8400
10
33049.704856
20
8380.301345
10
32805.572809
20
8321.690426
10
32573.6152
20
8225.610439
10
32359.543596
20
8094.427191
10
32168.62915
20
7931.37085
10
32005.572809
20
7740.456404
10
31874.389561
20
7526.3848
10
31778.309574
20
7294.427191
10
31719.698655
20
7050.295144
10
31700
20
6800
10
31719.698655
20
6549.704856
10
31778.309574
20
6305.572809
10
31874.389561
20
6073.6152
10
32005.572809
20
5859.543596
10
32168.62915
20
5668.62915
10
32359.543596
20
5505.572809
10
32573.6152
20
5374.389561
10
32805.572809
20
5278.309574
10
33049.704856
20
5219.698655
10
33300
20
5200
10
33550.295144
20
5219.698655
10
33794.427191
20
5278.309574
10
34026.3848
20
5374.389561
10
34240.456404
20
5505.572809
10
34431.37085
20
5668.62915
10
34594.427191
20
5859.543596
10
34725.610439
20
6073.6152
10
34821.690426
20
6305.572809
10
34880.301345
20
6549.704856
97
0
75
1
76
1
52
0
41
62.992126
77
0
78
2
53
45
43
0
44
0
45
-141.421356
46
141.421356
79
0
53
135
43
0
44
0
45
-141.421356
46
-141.421356
79
0
98
0
0
CIRCLE
5
388
330
10E
100
AcDbEntity
8
SPAN-RB-UBAR
370
50
100
AcDbCircle
10
33300
20
6800
30
0
40
1657.333333
0
CIRCLE
5
389
330
10E
100
AcDbEntity
8
SPAN-RB-UBAR
370
50
100
AcDbCircle
10
33300
20
6800
30
0
40
1737.333333
0
LINE
5
38A
330
10E
100
AcDbEntity
8
SPAN-RB-UBAR
370
50
100
AcDbLine
10
34933.333333
20
6846.666667
30
0
11
36533.333333
21
6846.666667
31
0
0
LINE
5
38B
330
10E
100
AcDbEntity
8
SPAN-RB-UBAR
370
50
100
AcDbLine
10
34933.333333
20
6753.333333
30
0
11
36533.333333
21
6753.333333
31
0
0
ARC
5
38C
330
10E
100
AcDbEntity
8
SPAN-RB-UBAR
370
50
100
AcDbCircle
10
34933.333333
20
6800
30
0
40
46.666667
100
AcDbArc
50
90
51
270
0
LINE
5
38D
330
10E
100
AcDbEntity
8
SPAN-RB-UBAR
370
50
100
AcDbLine
10
34915.799449
20
7043.202992
30
0
11
36504.133648
21
7236.06168
31
0
0
LINE
5
38E
330
10E
100
AcDbEntity
8
SPAN-RB-UBAR
370
50
100
AcDbLine
10
34927.049539
20
6950.550164
30
0
11
36515.383738
21
7143.408852
31
0
0
ARC
5
38F
330
10E
100
AcDbEntity
8
SPAN-RB-UBAR
370
50
100
AcDbCircle
10
34921.424494
20
6996.876578
30
0
40
46.666667
100
AcDbArc
50
96.923077
51
276.923077
0
LINE
5
390
330
10E
100
AcDbEntity
8
SPAN-RB-UBAR
370
50
100
AcDbLine
10
34874.703571
20
7236.19287
30
0
11
36428.210479
21
7619.097933
31
0
0
LINE
5
391
330
10E
100
AcDbEntity
8
SPAN-RB-UBAR
370
50
100
AcDbLine
10
34897.039699
20
7145.571634
30
0
11
36450.546607
21
7528.476696
31
0
0
ARC
5
392
330
10E
100
AcDbEntity
8
SPAN-RB-UBAR
370
50
100
AcDbCircle
10
34885.871635
20
7190.882252
30
0
40
46.666667
100
AcDbArc
50
103.846154
51
283.846154
0
LINE
5
393
330
10E
100
AcDbEntity
8
SPAN-RB-UBAR
370
50
100
AcDbLine
10
34810.644968
20
7422.822073
30
0
11
36306.670957
21
7990.189893
31
0
0
LINE
5
394
330
10E
100
AcDbEntity
8
SPAN-RB-UBAR
370
50
100
AcDbLine
10
34843.741424
20
7335.553891
30
0
11
36339.767413
21
7902.92171
31
0
0
ARC
5
395
330
10E
100
AcDbEntity
8
SPAN-RB-UBAR
370
50
100
AcDbCircle
10
34827.193196
20
7379.187982
30
0
40
46.666667
100
AcDbArc
50
110.769231
51
290.769231
0
LINE
5
396
330
10E
100
AcDbEntity
8
SPAN-RB-UBAR
370
50
100
AcDbLine
10
34724.557761
20
7600.369129
30
0
11
36141.287402
21
8343.926204
31
0
0
LINE
5
397
330
10E
100
AcDbEntity
8
SPAN-RB-UBAR
370
50
100
AcDbLine
10
34767.931923
20
7517.726566
30
0
11
36184.661564
21
8261.283642
31
0
0
ARC
5
398
330
10E
100
AcDbEntity
8
SPAN-RB-UBAR
370
50
100
AcDbCircle
10
34746.244842
20
7559.047848
30
0
40
46.666667
100
AcDbArc
50
117.692308
51
297.692308
0
LINE
5
399
330
10E
100
AcDbEntity
8
SPAN-RB-UBAR
370
50
100
AcDbLine
10
34617.697293
20
7766.245
30
0
11
35934.471478
21
8675.148595
31
0
0
LINE
5
39A
330
10E
100
AcDbEntity
8
SPAN-RB-UBAR
370
50
100
AcDbLine
10
34670.716669
20
7689.433173
30
0
11
35987.490855
21
8598.336767
31
0
0
ARC
5
39B
330
10E
100
AcDbEntity
8
SPAN-RB-UBAR
370
50
100
AcDbCircle
10
34644.206981
20
7727.839086
30
0
40
46.666667
100
AcDbArc
50
124.615385
51
304.615385
0
LINE
5
39C
330
10E
100
AcDbEntity
8
SPAN-RB-UBAR
370
50
100
AcDbLine
10
34491.621831
20
7918.030843
30
0
11
35689.239028
21
8979.027097
31
0
0
LINE
5
39D
330
10E
100
AcDbEntity
8
SPAN-RB-UBAR
370
50
100
AcDbLine
10
34553.513279
20
7848.16984
30
0
11
35751.130476
21
8909.166093
31
0
0
ARC
5
39E
330
10E
100
AcDbEntity
8
SPAN-RB-UBAR
370
50
100
AcDbCircle
10
34522.567555
20
7883.100342
30
0
40
46.666667
100
AcDbArc
50
131.538462
51
311.538462
0
LINE
5
39F
330
10E
100
AcDbEntity
8
SPAN-RB-UBAR
370
50
100
AcDbLine
10
34348.16984
20
8053.513279
30
0
11
35409.166093
21
9251.130476
31
0
0
LINE
5
3A0
330
10E
100
AcDbEntity
8
SPAN-RB-UBAR
370
50
100
AcDbLine
10
34418.030843
20
7991.621831
30
0
11
35479.027097
21
9189.239028
31
0
0
ARC
5
3A1
330
10E
100
AcDbEntity
8
SPAN-RB-UBAR
370
50
100
AcDbCircle
10
34383.100342
20
8022.567555
30
0
40
46.666667
100
AcDbArc
50
138.461538
51
318.461538
0
LINE
5
3A2
330
10E
100
AcDbEntity
8
SPAN-RB-UBAR
370
50
100
AcDbLine
10
34189.433173
20
8170.716669
30
0
11
35098.336767
21
9487.490855
31
0
0
LINE
5
3A3
330
10E
100
AcDbEntity
8
SPAN-RB-UBAR
370
50
100
AcDbLine
10
34266.245
20
8117.697293
30
0
11
35175.148595
21
9434.471478
31
0
0
ARC
5
3A4
330
10E
100
AcDbEntity
8
SPAN-RB-UBAR
370
50
100
AcDbCircle
10
34227.839086
20
8144.206981
30
0
40
46.666667
100
AcDbArc
50
145.384615
51
325.384615
0
LINE
5
3A5
330
10E
100
AcDbEntity
8
SPAN-RB-UBAR
370
50
100
AcDbLine
10
34017.726566
20
8267.931923
30
0
11
34761.283642
21
9684.661564
31
0
0
LINE
5
3A6
330
10E
100
AcDbEntity
8
SPAN-RB-UBAR
370
50
100
AcDbLine
10
34100.369129
20
8224.557761
30
0
11
34843.926204
21
9641.287402
31
0
0
ARC
5
3A7
330
10E
100
AcDbEntity
8
SPAN-RB-UBAR
370
50
100
AcDbCircle
10
34059.047848
20
8246.244842
30
0
40
46.666667
100
AcDbArc
50
152.307692
51
332.307692
0
LINE
5
3A8
330
10E
100
AcDbEntity
8
SPAN-RB-UBAR
370
50
100
AcDbLine
10
33835.553891
20
8343.741424
30
0
11
34402.92171
21
9839.767413
31
0
0
LINE
5
3A9
330
10E
100
AcDbEntity
8
SPAN-RB-UBAR
370
50
100
AcDbLine
10
33922.822073
20
8310.644968
30
0
11
34490.189893
21
9806.670957
31
0
0
ARC
5
3AA
330
10E
100
AcDbEntity
8
SPAN-RB-UBAR
370
50
100
AcDbCircle
10
33879.187982
20
8327.193196
30
0
40
46.666667
100
AcDbArc
50
159.230769
51
339.230769
0
LINE
5
3AB
330
10E
100
AcDbEntity
8
SPAN-RB-UBAR
370
50
100
AcDbLine
10
33645.571634
20
8397.039699
30
0
11
34028.476696
21
9950.546607
31
0
0
LINE
5
3AC
330
10E
100
AcDbEntity
8
SPAN-RB-UBAR
370
50
100
AcDbLine
10
33736.19287
20
8374.703571
30
0
11
34119.097933
21
9928.210479
31
0
0
ARC
5
3AD
330
10E
100
AcDbEntity
8
SPAN-RB-UBAR
370
50
100
AcDbCircle
10
33690.882252
20
8385.871635
30
0
40
46.666667
100
AcDbArc
50
166.153846
51
346.153846
0
LINE
5
3AE
330
10E
100
AcDbEntity
8
SPAN-RB-UBAR
370
50
100
AcDbLine
10
33450.550164
20
8427.049539
30
0
11
33643.408852
21
10015.383738
31
0
0
LINE
5
3AF
330
10E
100
AcDbEntity
8
SPAN-RB-UBAR
370
50
100
AcDbLine
10
33543.202992
20
8415.799449
30
0
11
33736.06168
21
10004.133648
31
0
0
ARC
5
3B0
330
10E
100
AcDbEntity
8
SPAN-RB-UBAR
370
50
100
AcDbCircle
10
33496.876578
20
8421.424494
30
0
40
46.666667
100
AcDbArc
50
173.076923
51
353.076923
0
LINE
5
3B1
330
10E
100
AcDbEntity
8
SPAN-RB-UBAR
370
50
100
AcDbLine
10
33253.333333
20
8433.333333
30
0
11
33253.333333
21
10033.333333
31
0
0
LINE
5
3B2
330
10E
100
AcDbEntity
8
SPAN-RB-UBAR
370
50
100
AcDbLine
10
33346.666667
20
8433.333333
30
0
11
33346.666667
21
10033.333333
31
0
0
ARC
5
3B3
330
10E
100
AcDbEntity
8
SPAN-RB-UBAR
370
50
100
AcDbCircle
10
33300
20
8433.333333
30
0
40
46.666667
100
AcDbArc
50
180
51
360
0
LINE
5
3B4
330
10E
100
AcDbEntity
8
SPAN-RB-UBAR
370
50
100
AcDbLine
10
33056.797008
20
8415.799449
30
0
11
32863.93832
21
10004.133648
31
0
0
LINE
5
3B5
330
10E
100
AcDbEntity
8
SPAN-RB-UBAR
370
50
100
AcDbLine
10
33149.449836
20
8427.049539
30
0
11
32956.591148
21
10015.383738
31
0
0
ARC
5
3B6
330
10E
100
AcDbEntity
8
SPAN-RB-UBAR
370
50
100
AcDbCircle
10
33103.123422
20
8421.424494
30
0
40
46.666667
100
AcDbArc
50
186.923077
51
366.923077
0
LINE
5
3B7
330
10E
100
AcDbEntity
8
SPAN-RB-UBAR
370
50
100
AcDbLine
10
32863.80713
20
8374.703571
30
0
11
32480.902067
21
9928.210479
31
0
0
LINE
5
3B8
330
10E
100
AcDbEntity
8
SPAN-RB-UBAR
370
50
100
AcDbLine
10
32954.428366
20
8397.039699
30
0
11
32571.523304
21
9950.546607
31
0
0
ARC
5
3B9
330
10E
100
AcDbEntity
8
SPAN-RB-UBAR
370
50
100
AcDbCircle
10
32909.117748
20
8385.871635
30
0
40
46.666667
100
AcDbArc
50
193.846154
51
373.846154
0
LINE
5
3BA
330
10E
100
AcDbEntity
8
SPAN-RB-UBAR
370
50
100
AcDbLine
10
32677.177927
20
8310.644968
30
0
11
32109.810107
21
9806.670957
31
0
0
LINE
5
3BB
330
10E
100
AcDbEntity
8
SPAN-RB-UBAR
370
50
100
AcDbLine
10
32764.446109
20
8343.741424
30
0
11
32197.07829
21
9839.767413
31
0
0
ARC
5
3BC
330
10E
100
AcDbEntity
8
SPAN-RB-UBAR
370
50
100
AcDbCircle
10
32720.812018
20
8327.193196
30
0
40
46.666667
100
AcDbArc
50
200.769231
51
380.769231
0
LINE
5
3BD
330
10E
100
AcDbEntity
8
SPAN-RB-UBAR
370
50
100
AcDbLine
10
32499.630871
20
8224.557761
30
0
11
31756.073796
21
9641.287402
31
0
0
LINE
5
3BE
330
10E
100
AcDbEntity
8
SPAN-RB-UBAR
370
50
100
AcDbLine
10
32582.273434
20
8267.931923
30
0
11
31838.716358
21
9684.661564
31
0
0
ARC
5
3BF
330
10E
100
AcDbEntity
8
SPAN-RB-UBAR
370
50
100
AcDbCircle
10
32540.952152
20
8246.244842
30
0
40
46.666667
100
AcDbArc
50
207.692308
51
387.692308
0
LINE
5
3C0
330
10E
100
AcDbEntity
8
SPAN-RB-UBAR
370
50
100
AcDbLine
10
32333.755
20
8117.697293
30
0
11
31424.851405
21
9434.471478
31
0
0
LINE
5
3C1
330
10E
100
AcDbEntity
8
SPAN-RB-UBAR
370
50
100
AcDbLine
10
32410.566827
20
8170.716669
30
0
11
31501.663233
21
9487.490855
31
0
0
ARC
5
3C2
330
10E
100
AcDbEntity
8
SPAN-RB-UBAR
370
50
100
AcDbCircle
10
32372.160914
20
8144.206981
30
0
40
46.666667
100
AcDbArc
50
214.615385
51
394.615385
0
LINE
5
3C3
330
10E
100
AcDbEntity
8
SPAN-RB-UBAR
370
50
100
AcDbLine
10
32181.969157
20
7991.621831
30
0
11
31120.972903
21
9189.239028
31
0
0
LINE
5
3C4
330
10E
100
AcDbEntity
8
SPAN-RB-UBAR
370
50
100
AcDbLine
10
32251.83016
20
8053.513279
30
0
11
31190.833907
21
9251.130476
31
0
0
ARC
5
3C5
330
10E
100
AcDbEntity
8
SPAN-RB-UBAR
370
50
100
AcDbCircle
10
32216.899658
20
8022.567555
30
0
40
46.666667
100
AcDbArc
50
221.538462
51
401.538462
0
LINE
5
3C6
330
10E
100
AcDbEntity
8
SPAN-RB-UBAR
370
50
100
AcDbLine
10
32046.486721
20
7848.16984
30
0
11
30848.869524
21
8909.166093
31
0
0
LINE
5
3C7
330
10E
100
AcDbEntity
8
SPAN-RB-UBAR
370
50
100
AcDbLine
10
32108.378169
20
7918.030843
30
0
11
30910.760972
21
8979.027097
31
0
0
ARC
5
3C8
330
10E
100
AcDbEntity
8
SPAN-RB-UBAR
370
50
100
AcDbCircle
10
32077.432445
20
7883.100342
30
0
40
46.666667
100
AcDbArc
50
228.461538
51
408.461538
0
LINE
5
3C9
330
10E
100
AcDbEntity
8
SPAN-RB-UBAR
370
50
100
AcDbLine
10
31929.283331
20
7689.433173
30
0
11
30612.509145
21
8598.336767
31
0
0
LINE
5
3CA
330
10E
100
AcDbEntity
8
SPAN-RB-UBAR
370
50
100
AcDbLine
10
31982.302707
20
7766.245
30
0
11
30665.528522
21
8675.148595
31
0
0
ARC
5
3CB
330
10E
100
AcDbEntity
8
SPAN-RB-UBAR
370
50
100
AcDbCircle
10
31955.793019
20
7727.839086
30
0
40
46.666667
100
AcDbArc
50
235.384615
51
415.384615
0
LINE
5
3CC
330
10E
100
AcDbEntity
8
SPAN-RB-UBAR
370
50
100
AcDbLine
10
31832.068077
20
7517.726566
30
0
11
30415.338436
21
8261.283642
31
0
0
LINE
5
3CD
330
10E
100
AcDbEntity
8
SPAN-RB-UBAR
370
50
100
AcDbLine
10
31875.442239
20
7600.369129
30
0
11
30458.712598
21
8343.926204
31
0
0
ARC
5
3CE
330
10E
100
AcDbEntity
8
SPAN-RB-UBAR
370
50
100
AcDbCircle
10
31853.755158
20
7559.047848
30
0
40
46.666667
100
AcDbArc
50
242.307692
51
422.307692
0
LINE
5
3CF
330
10E
100
AcDbEntity
8
SPAN-RB-UBAR
370
50
100
AcDbLine
10
31756.258576
20
7335.553891
30
0
11
30260.232587
21
7902.92171
31
0
0
LINE
5
3D0
330
10E
100
AcDbEntity
8
SPAN-RB-UBAR
370
50
100
AcDbLine
10
31789.355032
20
7422.822073
30
0
11
30293.329043
21
7990.189893
31
0
0
ARC
5
3D1
330
10E
100
AcDbEntity
8
SPAN-RB-UBAR
370
50
100
AcDbCircle
10
31772.806804
20
7379.187982
30
0
40
46.666667
100
AcDbArc
50
249.230769
51
429.230769
0
LINE
5
3D2
330
10E
100
AcDbEntity
8
SPAN-RB-UBAR
370
50
100
AcDbLine
10
31702.960301
20
7145.571634
30
0
11
30149.453393
21
7528.476696
31
0
0
LINE
5
3D3
330
10E
100
AcDbEntity
8
SPAN-RB-UBAR
370
50
100
AcDbLine
10
31725.296429
20
7236.19287
30
0
11
30171.789521
21
7619.097933
31
0
0
ARC
5
3D4
330
10E
100
AcDbEntity
8
SPAN-RB-UBAR
370
50
100
AcDbCircle
10
31714.128365
20
7190.882252
30
0
40
46.666667
100
AcDbArc
50
256.153846
51
436.153846
0
LINE
5
3D5
330
10E
100
AcDbEntity
8
SPAN-RB-UBAR
370
50
100
AcDbLine
10
31672.950461
20
6950.550164
30
0
11
30084.616262
21
7143.408852
31
0
0
LINE
5
3D6
330
10E
100
AcDbEntity
8
SPAN-RB-UBAR
370
50
100
AcDbLine
10
31684.200551
20
7043.202992
30
0
11
30095.866352
21
7236.06168
31
0
0
ARC
5
3D7
330
10E
100
AcDbEntity
8
SPAN-RB-UBAR
370
50
100
AcDbCircle
10
31678.575506
20
6996.876578
30
0
40
46.666667
100
AcDbArc
50
263.076923
51
443.076923
0
LINE
5
3D8
330
10E
100
AcDbEntity
8
SPAN-RB-UBAR
370
50
100
AcDbLine
10
31666.666667
20
6753.333333
30
0
11
30066.666667
21
6753.333333
31
0
0
LINE
5
3D9
330
10E
100
AcDbEntity
8
SPAN-RB-UBAR
370
50
100
AcDbLine
10
31666.666667
20
6846.666667
30
0
11
30066.666667
21
6846.666667
31
0
0
ARC
5
3DA
330
10E
100
AcDbEntity
8
SPAN-RB-UBAR
370
50
100
AcDbCircle
10
31666.666667
20
6800
30
0
40
46.666667
100
AcDbArc
50
270
51
450
0
LINE
5
3DB
330
10E
100
AcDbEntity
8
SPAN-RB-UBAR
370
50
100
AcDbLine
10
31684.200551
20
6556.797008
30
0
11
30095.866352
21
6363.93832
31
0
0
LINE
5
3DC
330
10E
100
AcDbEntity
8
SPAN-RB-UBAR
370
50
100
AcDbLine
10
31672.950461
20
6649.449836
30
0
11
30084.616262
21
6456.591148
31
0
0
ARC
5
3DD
330
10E
100
AcDbEntity
8
SPAN-RB-UBAR
370
50
100
AcDbCircle
10
31678.575506
20
6603.123422
30
0
40
46.666667
100
AcDbArc
50
276.923077
51
456.923077
0
LINE
5
3DE
330
10E
100
AcDbEntity
8
SPAN-RB-UBAR
370
50
100
AcDbLine
10
31725.296429
20
6363.80713
30
0
11
30171.789521
21
5980.902067
31
0
0
LINE
5
3DF
330
10E
100
AcDbEntity
8
SPAN-RB-UBAR
370
50
100
AcDbLine
10
31702.960301
20
6454.428366
30
0
11
30149.453393
21
6071.523304
31
0
0
ARC
5
3E0
330
10E
100
AcDbEntity
8
SPAN-RB-UBAR
370
50
100
AcDbCircle
10
31714.128365
20
6409.117748
30
0
40
46.666667
100
AcDbArc
50
283.846154
51
463.846154
0
LINE
5
3E1
330
10E
100
AcDbEntity
8
SPAN-RB-UBAR
370
50
100
AcDbLine
10
31789.355032
20
6177.177927
30
0
11
30293.329043
21
5609.810107
31
0
0
LINE
5
3E2
330
10E
100
AcDbEntity
8
SPAN-RB-UBAR
370
50
100
AcDbLine
10
31756.258576
20
6264.446109
30
0
11
30260.232587
21
5697.07829
31
0
0
ARC
5
3E3
330
10E
100
AcDbEntity
8
SPAN-RB-UBAR
370
50
100
AcDbCircle
10
31772.806804
20
6220.812018
30
0
40
46.666667
100
AcDbArc
50
290.769231
51
470.769231
0
LINE
5
3E4
330
10E
100
AcDbEntity
8
SPAN-RB-UBAR
370
50
100
AcDbLine
10
31875.442239
20
5999.630871
30
0
11
30458.712598
21
5256.073796
31
0
0
LINE
5
3E5
330
10E
100
AcDbEntity
8
SPAN-RB-UBAR
370
50
100
AcDbLine
10
31832.068077
20
6082.273434
30
0
11
30415.338436
21
5338.716358
31
0
0
ARC
5
3E6
330
10E
100
AcDbEntity
8
SPAN-RB-UBAR
370
50
100
AcDbCircle
10
31853.755158
20
6040.952152
30
0
40
46.666667
100
AcDbArc
50
297.692308
51
477.692308
0
LINE
5
3E7
330
10E
100
AcDbEntity
8
SPAN-RB-UBAR
370
50
100
AcDbLine
10
31982.302707
20
5833.755
30
0
11
30665.528522
21
4924.851405
31
0
0
LINE
5
3E8
330
10E
100
AcDbEntity
8
SPAN-RB-UBAR
370
50
100
AcDbLine
10
31929.283331
20
5910.566827
30
0
11
30612.509145
21
5001.663233
31
0
0
ARC
5
3E9
330
10E
100
AcDbEntity
8
SPAN-RB-UBAR
370
50
100
AcDbCircle
10
31955.793019
20
5872.160914
30
0
40
46.666667
100
AcDbArc
50
304.615385
51
484.615385
0
LINE
5
3EA
330
10E
100
AcDbEntity
8
SPAN-RB-UBAR
370
50
100
AcDbLine
10
32108.378169
20
5681.969157
30
0
11
30910.760972
21
4620.972903
31
0
0
LINE
5
3EB
330
10E
100
AcDbEntity
8
SPAN-RB-UBAR
370
50
100
AcDbLine
10
32046.486721
20
5751.83016
30
0
11
30848.869524
21
4690.833907
31
0
0
ARC
5
3EC
330
10E
100
AcDbEntity
8
SPAN-RB-UBAR
370
50
100
AcDbCircle
10
32077.432445
20
5716.899658
30
0
40
46.666667
100
AcDbArc
50
311.538462
51
491.538462
0
LINE
5
3ED
330
10E
100
AcDbEntity
8
SPAN-RB-UBAR
370
50
100
AcDbLine
10
32251.83016
20
5546.486721
30
0
11
31190.833907
21
4348.869524
31
0
0
LINE
5
3EE
330
10E
100
AcDbEntity
8
SPAN-RB-UBAR
370
50
100
AcDbLine
10
32181.969157
20
5608.378169
30
0
11
31120.972903
21
4410.760972
31
0
0
ARC
5
3EF
330
10E
100
AcDbEntity
8
SPAN-RB-UBAR
370
50
100
AcDbCircle
10
32216.899658
20
5577.432445
30
0
40
46.666667
100
AcDbArc
50
318.461538
51
498.461538
0
LINE
5
3F0
330
10E
100
AcDbEntity
8
SPAN-RB-UBAR
370
50
100
AcDbLine
10
32410.566827
20
5429.283331
30
0
11
31501.663233
21
4112.509145
31
0
0
LINE
5
3F1
330
10E
100
AcDbEntity
8
SPAN-RB-UBAR
370
50
100
AcDbLine
10
32333.755
20
5482.302707
30
0
11
31424.851405
21
4165.528522
31
0
0
ARC
5
3F2
330
10E
100
AcDbEntity
8
SPAN-RB-UBAR
370
50
100
AcDbCircle
10
32372.160914
20
5455.793019
30
0
40
46.666667
100
AcDbArc
50
325.384615
51
505.384615
0
LINE
5
3F3
330
10E
100
AcDbEntity
8
SPAN-RB-UBAR
370
50
100
AcDbLine
10
32582.273434
20
5332.068077
30
0
11
31838.716358
21
3915.338436
31
0
0
LINE
5
3F4
330
10E
100
AcDbEntity
8
SPAN-RB-UBAR
370
50
100
AcDbLine
10
32499.630871
20
5375.442239
30
0
11
31756.073796
21
3958.712598
31
0
0
ARC
5
3F5
330
10E
100
AcDbEntity
8
SPAN-RB-UBAR
370
50
100
AcDbCircle
10
32540.952152
20
5353.755158
30
0
40
46.666667
100
AcDbArc
50
332.307692
51
512.307692
0
LINE
5
3F6
330
10E
100
AcDbEntity
8
SPAN-RB-UBAR
370
50
100
AcDbLine
10
32764.446109
20
5256.258576
30
0
11
32197.07829
21
3760.232587
31
0
0
LINE
5
3F7
330
10E
100
AcDbEntity
8
SPAN-RB-UBAR
370
50
100
AcDbLine
10
32677.177927
20
5289.355032
30
0
11
32109.810107
21
3793.329043
31
0
0
ARC
5
3F8
330
10E
100
AcDbEntity
8
SPAN-RB-UBAR
370
50
100
AcDbCircle
10
32720.812018
20
5272.806804
30
0
40
46.666667
100
AcDbArc
50
339.230769
51
519.230769
0
LINE
5
3F9
330
10E
100
AcDbEntity
8
SPAN-RB-UBAR
370
50
100
AcDbLine
10
32954.428366
20
5202.960301
30
0
11
32571.523304
21
3649.453393
31
0
0
LINE
5
3FA
330
10E
100
AcDbEntity
8
SPAN-RB-UBAR
370
50
100
AcDbLine
10
32863.80713
20
5225.296429
30
0
11
32480.902067
21
3671.789521
31
0
0
ARC
5
3FB
330
10E
100
AcDbEntity
8
SPAN-RB-UBAR
370
50
100
AcDbCircle
10
32909.117748
20
5214.128365
30
0
40
46.666667
100
AcDbArc
50
346.153846
51
526.153846
0
LINE
5
3FC
330
10E
100
AcDbEntity
8
SPAN-RB-UBAR
370
50
100
AcDbLine
10
33149.449836
20
5172.950461
30
0
11
32956.591148
21
3584.616262
31
0
0
LINE
5
3FD
330
10E
100
AcDbEntity
8
SPAN-RB-UBAR
370
50
100
AcDbLine
10
33056.797008
20
5184.200551
30
0
11
32863.93832
21
3595.866352
31
0
0
ARC
5
3FE
330
10E
100
AcDbEntity
8
SPAN-RB-UBAR
370
50
100
AcDbCircle
10
33103.123422
20
5178.575506
30
0
40
46.666667
100
AcDbArc
50
353.076923
51
533.076923
0
LINE
5
3FF
330
10E
100
AcDbEntity
8
SPAN-RB-UBAR
370
50
100
AcDbLine
10
33346.666667
20
5166.666667
30
0
11
33346.666667
21
3566.666667
31
0
0
LINE
5
400
330
10E
100
AcDbEntity
8
SPAN-RB-UBAR
370
50
100
AcDbLine
10
33253.333333
20
5166.666667
30
0
11
33253.333333
21
3566.666667
31
0
0
ARC
5
401
330
10E
100
AcDbEntity
8
SPAN-RB-UBAR
370
50
100
AcDbCircle
10
33300
20
5166.666667
30
0
40
46.666667
100
AcDbArc
50
360
51
540
0
LINE
5
402
330
10E
100
AcDbEntity
8
SPAN-RB-UBAR
370
50
100
AcDbLine
10
33543.202992
20
5184.200551
30
0
11
33736.06168
21
3595.866352
31
0
0
LINE
5
403
330
10E
100
AcDbEntity
8
SPAN-RB-UBAR
370
50
100
AcDbLine
10
33450.550164
20
5172.950461
30
0
11
33643.408852
21
3584.616262
31
0
0
ARC
5
404
330
10E
100
AcDbEntity
8
SPAN-RB-UBAR
370
50
100
AcDbCircle
10
33496.876578
20
5178.575506
30
0
40
46.666667
100
AcDbArc
50
366.923077
51
546.923077
0
LINE
5
405
330
10E
100
AcDbEntity
8
SPAN-RB-UBAR
370
50
100
AcDbLine
10
33736.19287
20
5225.296429
30
0
11
34119.097933
21
3671.789521
31
0
0
LINE
5
406
330
10E
100
AcDbEntity
8
SPAN-RB-UBAR
370
50
100
AcDbLine
10
33645.571634
20
5202.960301
30
0
11
34028.476696
21
3649.453393
31
0
0
ARC
5
407
330
10E
100
AcDbEntity
8
SPAN-RB-UBAR
370
50
100
AcDbCircle
10
33690.882252
20
5214.128365
30
0
40
46.666667
100
AcDbArc
50
373.846154
51
553.846154
0
LINE
5
408
330
10E
100
AcDbEntity
8
SPAN-RB-UBAR
370
50
100
AcDbLine
10
33922.822073
20
5289.355032
30
0
11
34490.189893
21
3793.329043
31
0
0
LINE
5
409
330
10E
100
AcDbEntity
8
SPAN-RB-UBAR
370
50
100
AcDbLine
10
33835.553891
20
5256.258576
30
0
11
34402.92171
21
3760.232587
31
0
0
ARC
5
40A
330
10E
100
AcDbEntity
8
SPAN-RB-UBAR
370
50
100
AcDbCircle
10
33879.187982
20
5272.806804
30
0
40
46.666667
100
AcDbArc
50
380.769231
51
560.769231
0
LINE
5
40B
330
10E
100
AcDbEntity
8
SPAN-RB-UBAR
370
50
100
AcDbLine
10
34100.369129
20
5375.442239
30
0
11
34843.926204
21
3958.712598
31
0
0
LINE
5
40C
330
10E
100
AcDbEntity
8
SPAN-RB-UBAR
370
50
100
AcDbLine
10
34017.726566
20
5332.068077
30
0
11
34761.283642
21
3915.338436
31
0
0
ARC
5
40D
330
10E
100
AcDbEntity
8
SPAN-RB-UBAR
370
50
100
AcDbCircle
10
34059.047848
20
5353.755158
30
0
40
46.666667
100
AcDbArc
50
387.692308
51
567.692308
0
LINE
5
40E
330
10E
100
AcDbEntity
8
SPAN-RB-UBAR
370
50
100
AcDbLine
10
34266.245
20
5482.302707
30
0
11
35175.148595
21
4165.528522
31
0
0
LINE
5
40F
330
10E
100
AcDbEntity
8
SPAN-RB-UBAR
370
50
100
AcDbLine
10
34189.433173
20
5429.283331
30
0
11
35098.336767
21
4112.509145
31
0
0
ARC
5
410
330
10E
100
AcDbEntity
8
SPAN-RB-UBAR
370
50
100
AcDbCircle
10
34227.839086
20
5455.793019
30
0
40
46.666667
100
AcDbArc
50
394.615385
51
574.615385
0
LINE
5
411
330
10E
100
AcDbEntity
8
SPAN-RB-UBAR
370
50
100
AcDbLine
10
34418.030843
20
5608.378169
30
0
11
35479.027097
21
4410.760972
31
0
0
LINE
5
412
330
10E
100
AcDbEntity
8
SPAN-RB-UBAR
370
50
100
AcDbLine
10
34348.16984
20
5546.486721
30
0
11
35409.166093
21
4348.869524
31
0
0
ARC
5
413
330
10E
100
AcDbEntity
8
SPAN-RB-UBAR
370
50
100
AcDbCircle
10
34383.100342
20
5577.432445
30
0
40
46.666667
100
AcDbArc
50
401.538462
51
581.538462
0
LINE
5
414
330
10E
100
AcDbEntity
8
SPAN-RB-UBAR
370
50
100
AcDbLine
10
34553.513279
20
5751.83016
30
0
11
35751.130476
21
4690.833907
31
0
0
LINE
5
415
330
10E
100
AcDbEntity
8
SPAN-RB-UBAR
370
50
100
AcDbLine
10
34491.621831
20
5681.969157
30
0
11
35689.239028
21
4620.972903
31
0
0
ARC
5
416
330
10E
100
AcDbEntity
8
SPAN-RB-UBAR
370
50
100
AcDbCircle
10
34522.567555
20
5716.899658
30
0
40
46.666667
100
AcDbArc
50
408.461538
51
588.461538
0
LINE
5
417
330
10E
100
AcDbEntity
8
SPAN-RB-UBAR
370
50
100
AcDbLine
10
34670.716669
20
5910.566827
30
0
11
35987.490855
21
5001.663233
31
0
0
LINE
5
418
330
10E
100
AcDbEntity
8
SPAN-RB-UBAR
370
50
100
AcDbLine
10
34617.697293
20
5833.755
30
0
11
35934.471478
21
4924.851405
31
0
0
ARC
5
419
330
10E
100
AcDbEntity
8
SPAN-RB-UBAR
370
50
100
AcDbCircle
10
34644.206981
20
5872.160914
30
0
40
46.666667
100
AcDbArc
50
415.384615
51
595.384615
0
LINE
5
41A
330
10E
100
AcDbEntity
8
SPAN-RB-UBAR
370
50
100
AcDbLine
10
34767.931923
20
6082.273434
30
0
11
36184.661564
21
5338.716358
31
0
0
LINE
5
41B
330
10E
100
AcDbEntity
8
SPAN-RB-UBAR
370
50
100
AcDbLine
10
34724.557761
20
5999.630871
30
0
11
36141.287402
21
5256.073796
31
0
0
ARC
5
41C
330
10E
100
AcDbEntity
8
SPAN-RB-UBAR
370
50
100
AcDbCircle
10
34746.244842
20
6040.952152
30
0
40
46.666667
100
AcDbArc
50
422.307692
51
602.307692
0
LINE
5
41D
330
10E
100
AcDbEntity
8
SPAN-RB-UBAR
370
50
100
AcDbLine
10
34843.741424
20
6264.446109
30
0
11
36339.767413
21
5697.07829
31
0
0
LINE
5
41E
330
10E
100
AcDbEntity
8
SPAN-RB-UBAR
370
50
100
AcDbLine
10
34810.644968
20
6177.177927
30
0
11
36306.670957
21
5609.810107
31
0
0
ARC
5
41F
330
10E
100
AcDbEntity
8
SPAN-RB-UBAR
370
50
100
AcDbCircle
10
34827.193196
20
6220.812018
30
0
40
46.666667
100
AcDbArc
50
429.230769
51
609.230769
0
LINE
5
420
330
10E
100
AcDbEntity
8
SPAN-RB-UBAR
370
50
100
AcDbLine
10
34897.039699
20
6454.428366
30
0
11
36450.546607
21
6071.523304
31
0
0
LINE
5
421
330
10E
100
AcDbEntity
8
SPAN-RB-UBAR
370
50
100
AcDbLine
10
34874.703571
20
6363.80713
30
0
11
36428.210479
21
5980.902067
31
0
0
ARC
5
422
330
10E
100
AcDbEntity
8
SPAN-RB-UBAR
370
50
100
AcDbCircle
10
34885.871635
20
6409.117748
30
0
40
46.666667
100
AcDbArc
50
436.153846
51
616.153846
0
LINE
5
423
330
10E
100
AcDbEntity
8
SPAN-RB-UBAR
370
50
100
AcDbLine
10
34927.049539
20
6649.449836
30
0
11
36515.383738
21
6456.591148
31
0
0
LINE
5
424
330
10E
100
AcDbEntity
8
SPAN-RB-UBAR
370
50
100
AcDbLine
10
34915.799449
20
6556.797008
30
0
11
36504.133648
21
6363.93832
31
0
0
ARC
5
425
330
10E
100
AcDbEntity
8
SPAN-RB-UBAR
370
50
100
AcDbCircle
10
34921.424494
20
6603.123422
30
0
40
46.666667
100
AcDbArc
50
443.076923
51
623.076923
0
LINE
5
426
330
10E
100
AcDbEntity
8
SPAN-DIM
100
AcDbLine
10
33300
20
6800
30
0
11
33300
21
6450
31
0
0
LINE
5
427
330
10E
100
AcDbEntity
8
SPAN-DIM
100
AcDbLine
10
34900
20
6800
30
0
11
34900
21
6450
31
0
0
LINE
5
428
330
10E
100
AcDbEntity
8
SPAN-DIM
100
AcDbLine
10
33300
20
6300
30
0
11
34900
21
6300
31
0
0
LINE
5
429
330
10E
100
AcDbEntity
8
SPAN-DIM
100
AcDbLine
10
33230
20
6230
30
0
11
33370
21
6370
31
0
0
LINE
5
42A
330
10E
100
AcDbEntity
8
SPAN-DIM
100
AcDbLine
10
34830
20
6230
30
0
11
34970
21
6370
31
0
0
TEXT
5
42B
330
10E
100
AcDbEntity
8
SPAN-DIM
100
AcDbText
10
34100
20
6372
30
0
40
180
1
R 1200
7
STANDARD
72
1
11
34100
21
6372
31
0
100
AcDbText
73
0
0
LINE
5
42C
330
10E
100
AcDbEntity
8
SPAN-DIM
100
AcDbLine
10
34933.333333
20
6800
30
0
11
34933.333333
21
6450
31
0
0
LINE
5
42D
330
10E
100
AcDbEntity
8
SPAN-DIM
100
AcDbLine
10
36533.333333
20
6800
30
0
11
36533.333333
21
6450
31
0
0
LINE
5
42E
330
10E
100
AcDbEntity
8
SPAN-DIM
100
AcDbLine
10
34933.333333
20
6300
30
0
11
36533.333333
21
6300
31
0
0
LINE
5
42F
330
10E
100
AcDbEntity
8
SPAN-DIM
100
AcDbLine
10
34863.333333
20
6230
30
0
11
35003.333333
21
6370
31
0
0
LINE
5
430
330
10E
100
AcDbEntity
8
SPAN-DIM
100
AcDbLine
10
36463.333333
20
6230
30
0
11
36603.333333
21
6370
31
0
0
TEXT
5
431
330
10E
100
AcDbEntity
8
SPAN-DIM
100
AcDbText
10
35733.333333
20
6372
30
0
40
180
1
1200
7
STANDARD
72
1
11
35733.333333
21
6372
31
0
100
AcDbText
73
0
0
TEXT
5
432
330
10E
100
AcDbEntity
8
SPAN-RB-TEXT
100
AcDbText
10
33300
20
10473.333333
30
0
40
190
1
52T12@150 RADIAL U-BARS (LEGS 1200) + 2T12 RINGS T&B
7
STANDARD
72
1
11
33300
21
10473.333333
31
0
100
AcDbText
73
0
0
TEXT
5
433
330
10E
100
AcDbEntity
8
SPAN-SHEET-NOTES
100
AcDbText
10
33300
20
3020
30
0
40
160
1
U-BARS TOP & BOTTOM LEGS; RINGS LAPPED CLASS B
7
STANDARD
72
1
11
33300
21
3020
31
0
100
AcDbText
73
0
0
LWPOLYLINE
5
434
330
10E
100
AcDbEntity
8
SPAN-SHEET-SCHEDULE
100
AcDbPolyline
90
4
70
1
43
0
10
64600
20
52900
10
83100
20
52900
10
83100
20
53500
10
64600
20
53500
0
TEXT
5
435
330
10E
100
AcDbEntity
8
SPAN-SHEET-TEXT
100
AcDbText
10
73850
20
53200
30
0
40
260
1
BAR BENDING SCHEDULE
7
STANDARD
72
1
11
73850
21
53200
31
0
100
AcDbText
73
2
0
LWPOLYLINE
5
436
330
10E
100
AcDbEntity
8
SPAN-SHEET-SCHEDULE
100
AcDbPolyline
90
4
70
1
43
0
10
64600
20
52400
10
83100
20
52400
10
83100
20
52900
10
64600
20
52900
0
TEXT
5
437
330
10E
100
AcDbEntity
8
SPAN-SHEET-SCHEDULE-TEXT
100
AcDbText
10
65450
20
52650
30
0
40
160
1
MARK
7
STANDARD
72
1
11
65450
21
52650
31
0
100
AcDbText
73
2
0
TEXT
5
438
330
10E
100
AcDbEntity
8
SPAN-SHEET-SCHEDULE-TEXT
100
AcDbText
10
66700
20
52650
30
0
40
160
1
\U+00D8
7
STANDARD
72
1
11
66700
21
52650
31
0
100
AcDbText
73
2
0
TEXT
5
439
330
10E
100
AcDbEntity
8
SPAN-SHEET-SCHEDULE-TEXT
100
AcDbText
10
67750
20
52650
30
0
40
160
1
SHAPE
7
STANDARD
72
1
11
67750
21
52650
31
0
100
AcDbText
73
2
0
TEXT
5
43A
330
10E
100
AcDbEntity
8
SPAN-SHEET-SCHEDULE-TEXT
100
AcDbText
10
69000
20
52650
30
0
40
160
1
SPAC.
7
STANDARD
72
1
11
69000
21
52650
31
0
100
AcDbText
73
2
0
TEXT
5
43B
330
10E
100
AcDbEntity
8
SPAN-SHEET-SCHEDULE-TEXT
100
AcDbText
10
70450
20
52755
30
0
40
160
1
LENGTH
7
STANDARD
72
1
11
70450
21
52755
31
0
100
AcDbText
73
2
0
TEXT
5
43C
330
10E
100
AcDbEntity
8
SPAN-SHEET-SCHEDULE-TEXT
100
AcDbText
10
70450
20
52545
30
0
40
160
1
(mm)
7
STANDARD
72
1
11
70450
21
52545
31
0
100
AcDbText
73
2
0
TEXT
5
43D
330
10E
100
AcDbEntity
8
SPAN-SHEET-SCHEDULE-TEXT
100
AcDbText
10
71950
20
52650
30
0
40
160
1
QTY
7
STANDARD
72
1
11
71950
21
52650
31
0
100
AcDbText
73
2
0
TEXT
5
43E
330
10E
100
AcDbEntity
8
SPAN-SHEET-SCHEDULE-TEXT
100
AcDbText
10
73400
20
52755
30
0
40
160
1
TOTAL
7
STANDARD
72
1
11
73400
21
52755
31
0
100
AcDbText
73
2
0
TEXT
5
43F
330
10E
100
AcDbEntity
8
SPAN-SHEET-SCHEDULE-TEXT
100
AcDbText
10
73400
20
52545
30
0
40
160
1
(m)
7
STANDARD
72
1
11
73400
21
52545
31
0
100
AcDbText
73
2
0
TEXT
5
440
330
10E
100
AcDbEntity
8
SPAN-SHEET-SCHEDULE-TEXT
100
AcDbText
10
75050
20
52755
30
0
40
160
1
WT.
7
STANDARD
72
1
11
75050
21
52755
31
0
100
AcDbText
73
2
0
TEXT
5
441
330
10E
100
AcDbEntity
8
SPAN-SHEET-SCHEDULE-TEXT
100
AcDbText
10
75050
20
52545
30
0
40
160
1
(kg)
7
STANDARD
72
1
11
75050
21
52545
31
0
100
AcDbText
73
2
0
TEXT
5
442
330
10E
100
AcDbEntity
8
SPAN-SHEET-SCHEDULE-TEXT
100
AcDbText
10
79500
20
52650
30
0
40
160
1
ZONES / REMARKS
7
STANDARD
72
1
11
79500
21
52650
31
0
100
AcDbText
73
2
0
TEXT
5
443
330
10E
100
AcDbEntity
8
SPAN-SHEET-SCHEDULE-TEXT
100
AcDbText
10
65450
20
52200
30
0
40
170
1
U01
7
STANDARD
72
1
11
65450
21
52200
31
0
100
AcDbText
73
2
0
TEXT
5
444
330
10E
100
AcDbEntity
8
SPAN-SHEET-SCHEDULE-TEXT
100
AcDbText
10
66700
20
52200
30
0
40
170
1
12
7
STANDARD
72
1
11
66700
21
52200
31
0
100
AcDbText
73
2
0
TEXT
5
445
330
10E
100
AcDbEntity
8
SPAN-SHEET-SCHEDULE-TEXT
100
AcDbText
10
67750
20
52200
30
0
40
170
1
RING
7
STANDARD
72
1
11
67750
21
52200
31
0
100
AcDbText
73
2
0
TEXT
5
446
330
10E
100
AcDbEntity
8
SPAN-SHEET-SCHEDULE-TEXT
100
AcDbText
10
69000
20
52200
30
0
40
170
1
-
7
STANDARD
72
1
11
69000
21
52200
31
0
100
AcDbText
73
2
0
TEXT
5
447
330
10E
100
AcDbEntity
8
SPAN-SHEET-SCHEDULE-TEXT
100
AcDbText
10
70450
20
52200
30
0
40
170
1
8360
7
STANDARD
72
1
11
70450
21
52200
31
0
100
AcDbText
73
2
0
TEXT
5
448
330
10E
100
AcDbEntity
8
SPAN-SHEET-SCHEDULE-TEXT
100
AcDbText
10
71950
20
52200
30
0
40
170
1
4
7
STANDARD
72
1
11
71950
21
52200
31
0
100
AcDbText
73
2
0
TEXT
5
449
330
10E
100
AcDbEntity
8
SPAN-SHEET-SCHEDULE-TEXT
100
AcDbText
10
73400
20
52200
30
0
40
170
1
33.4
7
STANDARD
72
1
11
73400
21
52200
31
0
100
AcDbText
73
2
0
TEXT
5
44A
330
10E
100
AcDbEntity
8
SPAN-SHEET-SCHEDULE-TEXT
100
AcDbText
10
75050
20
52200
30
0
40
170
1
29.7
7
STANDARD
72
1
11
75050
21
52200
31
0
100
AcDbText
73
2
0
TEXT
5
44B
330
10E
100
AcDbEntity
8
SPAN-SHEET-SCHEDULE-TEXT
100
AcDbText
10
76000
20
52200
30
0
40
170
1
R1
7
STANDARD
72
0
11
76000
21
52200
31
0
100
AcDbText
73
2
0
LINE
5
44C
330
10E
100
AcDbEntity
8
SPAN-SHEET-SCHEDULE
370
5
100
AcDbLine
10
64600
20
52000
30
0
11
83100
21
52000
31
0
0
TEXT
5
44D
330
10E
100
AcDbEntity
8
SPAN-SHEET-SCHEDULE-TEXT
100
AcDbText
10
65450
20
51800
30
0
40
170
1
U02
7
STANDARD
72
1
11
65450
21
51800
31
0
100
AcDbText
73
2
0
TEXT
5
44E
330
10E
100
AcDbEntity
8
SPAN-SHEET-SCHEDULE-TEXT
100
AcDbText
10
66700
20
51800
30
0
40
170
1
12
7
STANDARD
72
1
11
66700
21
51800
31
0
100
AcDbText
73
2
0
TEXT
5
44F
330
10E
100
AcDbEntity
8
SPAN-SHEET-SCHEDULE-TEXT
100
AcDbText
10
67750
20
51800
30
0
40
170
1
RING
7
STANDARD
72
1
11
67750
21
51800
31
0
100
AcDbText
73
2
0
TEXT
5
450
330
10E
100
AcDbEntity
8
SPAN-SHEET-SCHEDULE-TEXT
100
AcDbText
10
69000
20
51800
30
0
40
170
1
-
7
STANDARD
72
1
11
69000
21
51800
31
0
100
AcDbText
73
2
0
TEXT
5
451
330
10E
100
AcDbEntity
8
SPAN-SHEET-SCHEDULE-TEXT
100
AcDbText
10
70450
20
51800
30
0
40
170
1
6480
7
STANDARD
72
1
11
70450
21
51800
31
0
100
AcDbText
73
2
0
TEXT
5
452
330
10E
100
AcDbEntity
8
SPAN-SHEET-SCHEDULE-TEXT
100
AcDbText
10
71950
20
51800
30
0
40
170
1
4
7
STANDARD
72
1
11
71950
21
51800
31
0
100
AcDbText
73
2
0
TEXT
5
453
330
10E
100
AcDbEntity
8
SPAN-SHEET-SCHEDULE-TEXT
100
AcDbText
10
73400
20
51800
30
0
40
170
1
25.9
7
STANDARD
72
1
11
73400
21
51800
31
0
100
AcDbText
73
2
0
TEXT
5
454
330
10E
100
AcDbEntity
8
SPAN-SHEET-SCHEDULE-TEXT
100
AcDbText
10
75050
20
51800
30
0
40
170
1
23
7
STANDARD
72
1
11
75050
21
51800
31
0
100
AcDbText
73
2
0
TEXT
5
455
330
10E
100
AcDbEntity
8
SPAN-SHEET-SCHEDULE-TEXT
100
AcDbText
10
76000
20
51800
30
0
40
170
1
R2
7
STANDARD
72
0
11
76000
21
51800
31
0
100
AcDbText
73
2
0
LINE
5
456
330
10E
100
AcDbEntity
8
SPAN-SHEET-SCHEDULE
370
5
100
AcDbLine
10
64600
20
51600
30
0
11
83100
21
51600
31
0
0
TEXT
5
457
330
10E
100
AcDbEntity
8
SPAN-SHEET-SCHEDULE-TEXT
100
AcDbText
10
65450
20
51400
30
0
40
170
1
U03
7
STANDARD
72
1
11
65450
21
51400
31
0
100
AcDbText
73
2
0
TEXT
5
458
330
10E
100
AcDbEntity
8
SPAN-SHEET-SCHEDULE-TEXT
100
AcDbText
10
66700
20
51400
30
0
40
170
1
12
7
STANDARD
72
1
11
66700
21
51400
31
0
100
AcDbText
73
2
0
TEXT
5
459
330
10E
100
AcDbEntity
8
SPAN-SHEET-SCHEDULE-TEXT
100
AcDbText
10
67750
20
51400
30
0
40
170
1
STR
7
STANDARD
72
1
11
67750
21
51400
31
0
100
AcDbText
73
2
0
TEXT
5
45A
330
10E
100
AcDbEntity
8
SPAN-SHEET-SCHEDULE-TEXT
100
AcDbText
10
69000
20
51400
30
0
40
170
1
-
7
STANDARD
72
1
11
69000
21
51400
31
0
100
AcDbText
73
2
0
TEXT
5
45B
330
10E
100
AcDbEntity
8
SPAN-SHEET-SCHEDULE-TEXT
100
AcDbText
10
70450
20
51400
30
0
40
170
1
12000
7
STANDARD
72
1
11
70450
21
51400
31
0
100
AcDbText
73
2
0
TEXT
5
45C
330
10E
100
AcDbEntity
8
SPAN-SHEET-SCHEDULE-TEXT
100
AcDbText
10
71950
20
51400
30
0
40
170
1
32
7
STANDARD
72
1
11
71950
21
51400
31
0
100
AcDbText
73
2
0
TEXT
5
45D
330
10E
100
AcDbEntity
8
SPAN-SHEET-SCHEDULE-TEXT
100
AcDbText
10
73400
20
51400
30
0
40
170
1
384
7
STANDARD
72
1
11
73400
21
51400
31
0
100
AcDbText
73
2
0
TEXT
5
45E
330
10E
100
AcDbEntity
8
SPAN-SHEET-SCHEDULE-TEXT
100
AcDbText
10
75050
20
51400
30
0
40
170
1
340.9
7
STANDARD
72
1
11
75050
21
51400
31
0
100
AcDbText
73
2
0
TEXT
5
45F
330
10E
100
AcDbEntity
8
SPAN-SHEET-SCHEDULE-TEXT
100
AcDbText
10
76000
20
51400
30
0
40
170
1
E1, E2, E3, E4
7
STANDARD
72
0
11
76000
21
51400
31
0
100
AcDbText
73
2
0
LINE
5
460
330
10E
100
AcDbEntity
8
SPAN-SHEET-SCHEDULE
370
5
100
AcDbLine
10
64600
20
51200
30
0
11
83100
21
51200
31
0
0
TEXT
5
461
330
10E
100
AcDbEntity
8
SPAN-SHEET-SCHEDULE-TEXT
100
AcDbText
10
65450
20
51000
30
0
40
170
1
U04
7
STANDARD
72
1
11
65450
21
51000
31
0
100
AcDbText
73
2
0
TEXT
5
462
330
10E
100
AcDbEntity
8
SPAN-SHEET-SCHEDULE-TEXT
100
AcDbText
10
66700
20
51000
30
0
40
170
1
12
7
STANDARD
72
1
11
66700
21
51000
31
0
100
AcDbText
73
2
0
TEXT
5
463
330
10E
100
AcDbEntity
8
SPAN-SHEET-SCHEDULE-TEXT
100
AcDbText
10
67750
20
51000
30
0
40
170
1
STR
7
STANDARD
72
1
11
67750
21
51000
31
0
100
AcDbText
73
2
0
TEXT
5
464
330
10E
100
AcDbEntity
8
SPAN-SHEET-SCHEDULE-TEXT
100
AcDbText
10
69000
20
51000
30
0
40
170
1
-
7
STANDARD
72
1
11
69000
21
51000
31
0
100
AcDbText
73
2
0
TEXT
5
465
330
10E
100
AcDbEntity
8
SPAN-SHEET-SCHEDULE-TEXT
100
AcDbText
10
70450
20
51000
30
0
40
170
1
9550
7
STANDARD
72
1
11
70450
21
51000
31
0
100
AcDbText
73
2
0
TEXT
5
466
330
10E
100
AcDbEntity
8
SPAN-SHEET-SCHEDULE-TEXT
100
AcDbText
10
71950
20
51000
30
0
40
170
1
8
7
STANDARD
72
1
11
71950
21
51000
31
0
100
AcDbText
73
2
0
TEXT
5
467
330
10E
100
AcDbEntity
8
SPAN-SHEET-SCHEDULE-TEXT
100
AcDbText
10
73400
20
51000
30
0
40
170
1
76.4
7
STANDARD
72
1
11
73400
21
51000
31
0
100
AcDbText
73
2
0
TEXT
5
468
330
10E
100
AcDbEntity
8
SPAN-SHEET-SCHEDULE-TEXT
100
AcDbText
10
75050
20
51000
30
0
40
170
1
67.8
7
STANDARD
72
1
11
75050
21
51000
31
0
100
AcDbText
73
2
0
TEXT
5
469
330
10E
100
AcDbEntity
8
SPAN-SHEET-SCHEDULE-TEXT
100
AcDbText
10
76000
20
51000
30
0
40
170
1
E1, E3
7
STANDARD
72
0
11
76000
21
51000
31
0
100
AcDbText
73
2
0
LINE
5
46A
330
10E
100
AcDbEntity
8
SPAN-SHEET-SCHEDULE
370
5
100
AcDbLine
10
64600
20
50800
30
0
11
83100
21
50800
31
0
0
TEXT
5
46B
330
10E
100
AcDbEntity
8
SPAN-SHEET-SCHEDULE-TEXT
100
AcDbText
10
65450
20
50600
30
0
40
170
1
U05
7
STANDARD
72
1
11
65450
21
50600
31
0
100
AcDbText
73
2
0
TEXT
5
46C
330
10E
100
AcDbEntity
8
SPAN-SHEET-SCHEDULE-TEXT
100
AcDbText
10
66700
20
50600
30
0
40
170
1
12
7
STANDARD
72
1
11
66700
21
50600
31
0
100
AcDbText
73
2
0
TEXT
5
46D
330
10E
100
AcDbEntity
8
SPAN-SHEET-SCHEDULE-TEXT
100
AcDbText
10
67750
20
50600
30
0
40
170
1
STR
7
STANDARD
72
1
11
67750
21
50600
31
0
100
AcDbText
73
2
0
TEXT
5
46E
330
10E
100
AcDbEntity
8
SPAN-SHEET-SCHEDULE-TEXT
100
AcDbText
10
69000
20
50600
30
0
40
170
1
-
7
STANDARD
72
1
11
69000
21
50600
31
0
100
AcDbText
73
2
0
TEXT
5
46F
330
10E
100
AcDbEntity
8
SPAN-SHEET-SCHEDULE-TEXT
100
AcDbText
10
70450
20
50600
30
0
40
170
1
3050
7
STANDARD
72
1
11
70450
21
50600
31
0
100
AcDbText
73
2
0
TEXT
5
470
330
10E
100
AcDbEntity
8
SPAN-SHEET-SCHEDULE-TEXT
100
AcDbText
10
71950
20
50600
30
0
40
170
1
8
7
STANDARD
72
1
11
71950
21
50600
31
0
100
AcDbText
73
2
0
TEXT
5
471
330
10E
100
AcDbEntity
8
SPAN-SHEET-SCHEDULE-TEXT
100
AcDbText
10
73400
20
50600
30
0
40
170
1
24.4
7
STANDARD
72
1
11
73400
21
50600
31
0
100
AcDbText
73
2
0
TEXT
5
472
330
10E
100
AcDbEntity
8
SPAN-SHEET-SCHEDULE-TEXT
100
AcDbText
10
75050
20
50600
30
0
40
170
1
21.7
7
STANDARD
72
1
11
75050
21
50600
31
0
100
AcDbText
73
2
0
TEXT
5
473
330
10E
100
AcDbEntity
8
SPAN-SHEET-SCHEDULE-TEXT
100
AcDbText
10
76000
20
50600
30
0
40
170
1
E2, E4
7
STANDARD
72
0
11
76000
21
50600
31
0
100
AcDbText
73
2
0
LINE
5
474
330
10E
100
AcDbEntity
8
SPAN-SHEET-SCHEDULE
370
5
100
AcDbLine
10
64600
20
50400
30
0
11
83100
21
50400
31
0
0
TEXT
5
475
330
10E
100
AcDbEntity
8
SPAN-SHEET-SCHEDULE-TEXT
100
AcDbText
10
65450
20
50200
30
0
40
170
1
U06
7
STANDARD
72
1
11
65450
21
50200
31
0
100
AcDbText
73
2
0
TEXT
5
476
330
10E
100
AcDbEntity
8
SPAN-SHEET-SCHEDULE-TEXT
100
AcDbText
10
66700
20
50200
30
0
40
170
1
12
7
STANDARD
72
1
11
66700
21
50200
31
0
100
AcDbText
73
2
0
TEXT
5
477
330
10E
100
AcDbEntity
8
SPAN-SHEET-SCHEDULE-TEXT
100
AcDbText
10
67750
20
50200
30
0
40
170
1
U
7
STANDARD
72
1
11
67750
21
50200
31
0
100
AcDbText
73
2
0
TEXT
5
478
330
10E
100
AcDbEntity
8
SPAN-SHEET-SCHEDULE-TEXT
100
AcDbText
10
69000
20
50200
30
0
40
170
1
150
7
STANDARD
72
1
11
69000
21
50200
31
0
100
AcDbText
73
2
0
TEXT
5
479
330
10E
100
AcDbEntity
8
SPAN-SHEET-SCHEDULE-TEXT
100
AcDbText
10
70450
20
50200
30
0
40
170
1
4010
7
STANDARD
72
1
11
70450
21
50200
31
0
100
AcDbText
73
2
0
TEXT
5
47A
330
10E
100
AcDbEntity
8
SPAN-SHEET-SCHEDULE-TEXT
100
AcDbText
10
71950
20
50200
30
0
40
170
1
669
7
STANDARD
72
1
11
71950
21
50200
31
0
100
AcDbText
73
2
0
TEXT
5
47B
330
10E
100
AcDbEntity
8
SPAN-SHEET-SCHEDULE-TEXT
100
AcDbText
10
73400
20
50200
30
0
40
170
1
2682.7
7
STANDARD
72
1
11
73400
21
50200
31
0
100
AcDbText
73
2
0
TEXT
5
47C
330
10E
100
AcDbEntity
8
SPAN-SHEET-SCHEDULE-TEXT
100
AcDbText
10
75050
20
50200
30
0
40
170
1
2381.6
7
STANDARD
72
1
11
75050
21
50200
31
0
100
AcDbText
73
2
0
TEXT
5
47D
330
10E
100
AcDbEntity
8
SPAN-SHEET-SCHEDULE-TEXT
100
AcDbText
10
76000
20
50200
30
0
40
170
1
E1, E2, E3, E4
7
STANDARD
72
0
11
76000
21
50200
31
0
100
AcDbText
73
2
0
LINE
5
47E
330
10E
100
AcDbEntity
8
SPAN-SHEET-SCHEDULE
370
5
100
AcDbLine
10
64600
20
50000
30
0
11
83100
21
50000
31
0
0
TEXT
5
47F
330
10E
100
AcDbEntity
8
SPAN-SHEET-SCHEDULE-TEXT
100
AcDbText
10
65450
20
49800
30
0
40
170
1
U07
7
STANDARD
72
1
11
65450
21
49800
31
0
100
AcDbText
73
2
0
TEXT
5
480
330
10E
100
AcDbEntity
8
SPAN-SHEET-SCHEDULE-TEXT
100
AcDbText
10
66700
20
49800
30
0
40
170
1
12
7
STANDARD
72
1
11
66700
21
49800
31
0
100
AcDbText
73
2
0
TEXT
5
481
330
10E
100
AcDbEntity
8
SPAN-SHEET-SCHEDULE-TEXT
100
AcDbText
10
67750
20
49800
30
0
40
170
1
U
7
STANDARD
72
1
11
67750
21
49800
31
0
100
AcDbText
73
2
0
TEXT
5
482
330
10E
100
AcDbEntity
8
SPAN-SHEET-SCHEDULE-TEXT
100
AcDbText
10
69000
20
49800
30
0
40
170
1
150
7
STANDARD
72
1
11
69000
21
49800
31
0
100
AcDbText
73
2
0
TEXT
5
483
330
10E
100
AcDbEntity
8
SPAN-SHEET-SCHEDULE-TEXT
100
AcDbText
10
70450
20
49800
30
0
40
170
1
2570
7
STANDARD
72
1
11
70450
21
49800
31
0
100
AcDbText
73
2
0
TEXT
5
484
330
10E
100
AcDbEntity
8
SPAN-SHEET-SCHEDULE-TEXT
100
AcDbText
10
71950
20
49800
30
0
40
170
1
91
7
STANDARD
72
1
11
71950
21
49800
31
0
100
AcDbText
73
2
0
TEXT
5
485
330
10E
100
AcDbEntity
8
SPAN-SHEET-SCHEDULE-TEXT
100
AcDbText
10
73400
20
49800
30
0
40
170
1
233.9
7
STANDARD
72
1
11
73400
21
49800
31
0
100
AcDbText
73
2
0
TEXT
5
486
330
10E
100
AcDbEntity
8
SPAN-SHEET-SCHEDULE-TEXT
100
AcDbText
10
75050
20
49800
30
0
40
170
1
207.6
7
STANDARD
72
1
11
75050
21
49800
31
0
100
AcDbText
73
2
0
TEXT
5
487
330
10E
100
AcDbEntity
8
SPAN-SHEET-SCHEDULE-TEXT
100
AcDbText
10
76000
20
49800
30
0
40
170
1
R1, R2
7
STANDARD
72
0
11
76000
21
49800
31
0
100
AcDbText
73
2
0
LINE
5
488
330
10E
100
AcDbEntity
8
SPAN-SHEET-SCHEDULE
370
5
100
AcDbLine
10
64600
20
49600
30
0
11
83100
21
49600
31
0
0
LWPOLYLINE
5
489
330
10E
100
AcDbEntity
8
SPAN-SHEET-SCHEDULE
100
AcDbPolyline
90
4
70
1
43
0
10
64600
20
49150
10
83100
20
49150
10
83100
20
49600
10
64600
20
49600
0
TEXT
5
48A
330
10E
100
AcDbEntity
8
SPAN-SHEET-SCHEDULE-TEXT
100
AcDbText
10
64800
20
49375
30
0
40
170
1
TOTAL 3,072.3 kg  \U+00B7  \U+00D812: 3460.7 m
7
STANDARD
72
0
11
64800
21
49375
31
0
100
AcDbText
73
2
0
LINE
5
48B
330
10E
100
AcDbEntity
8
SPAN-SHEET-SCHEDULE
100
AcDbLine
10
64600
20
52900
30
0
11
64600
21
49150
31
0
0
LINE
5
48C
330
10E
100
AcDbEntity
8
SPAN-SHEET-SCHEDULE
100
AcDbLine
10
66300
20
52900
30
0
11
66300
21
49150
31
0
0
LINE
5
48D
330
10E
100
AcDbEntity
8
SPAN-SHEET-SCHEDULE
100
AcDbLine
10
67100
20
52900
30
0
11
67100
21
49150
31
0
0
LINE
5
48E
330
10E
100
AcDbEntity
8
SPAN-SHEET-SCHEDULE
100
AcDbLine
10
68400
20
52900
30
0
11
68400
21
49150
31
0
0
LINE
5
48F
330
10E
100
AcDbEntity
8
SPAN-SHEET-SCHEDULE
100
AcDbLine
10
69600
20
52900
30
0
11
69600
21
49150
31
0
0
LINE
5
490
330
10E
100
AcDbEntity
8
SPAN-SHEET-SCHEDULE
100
AcDbLine
10
71300
20
52900
30
0
11
71300
21
49150
31
0
0
LINE
5
491
330
10E
100
AcDbEntity
8
SPAN-SHEET-SCHEDULE
100
AcDbLine
10
72600
20
52900
30
0
11
72600
21
49150
31
0
0
LINE
5
492
330
10E
100
AcDbEntity
8
SPAN-SHEET-SCHEDULE
100
AcDbLine
10
74200
20
52900
30
0
11
74200
21
49150
31
0
0
LINE
5
493
330
10E
100
AcDbEntity
8
SPAN-SHEET-SCHEDULE
100
AcDbLine
10
75900
20
52900
30
0
11
75900
21
49150
31
0
0
LINE
5
494
330
10E
100
AcDbEntity
8
SPAN-SHEET-SCHEDULE
100
AcDbLine
10
83100
20
52900
30
0
11
83100
21
49150
31
0
0
LINE
5
495
330
10E
100
AcDbEntity
8
SPAN-SHEET-SCHEDULE
100
AcDbLine
10
64600
20
49150
30
0
11
83100
21
49150
31
0
0
TEXT
5
496
330
10E
100
AcDbEntity
8
SPAN-SHEET-TITLE
100
AcDbText
10
64800
20
57950
30
0
40
220
1
KEY PLAN
7
STANDARD
72
0
100
AcDbText
73
0
0
LWPOLYLINE
5
497
330
10E
100
AcDbEntity
8
SPAN-SHEET-TITLE
100
AcDbPolyline
90
4
70
1
43
0
10
68600
20
54100
10
79100
20
54100
10
79100
20
57800
10
68600
20
57800
0
LWPOLYLINE
5
498
330
10E
100
AcDbEntity
8
SPAN-SLAB-EDGE
100
AcDbPolyline
90
4
70
1
43
0
10
71912.5
20
54400
10
75787.5
20
54400
10
75787.5
20
57500
10
71912.5
20
57500
0
HATCH
5
499
330
10E
100
AcDbEntity
8
SPAN-HATCH
100
AcDbHatch
10
0
20
0
30
0
210
0
220
0
230
1
2
ANSI31
70
0
71
0
91
1
92
3
72
0
73
1
93
4
10
71912.5
20
54400
10
75787.5
20
54400
10
75787.5
20
57500
10
71912.5
20
57500
97
0
75
1
76
1
52
0
41
37.795276
77
0
78
1
53
45
43
0
44
0
45
-84.852814
46
84.852814
79
0
98
0
0
CIRCLE
5
49A
330
10E
100
AcDbEntity
8
SPAN-TEXT
100
AcDbCircle
10
81100
20
55800
30
0
40
600
0
SOLID
5
49B
330
10E
100
AcDbEntity
8
SPAN-TEXT
100
AcDbTrace
10
81100
20
56300
30
0
11
80850
21
55450
31
0
12
81350
22
55450
32
0
13
81100
23
55680
33
0
0
TEXT
5
49C
330
10E
100
AcDbEntity
8
SPAN-TEXT
100
AcDbText
10
81100
20
56550
30
0
40
250
1
N
7
STANDARD
72
1
11
81100
21
56550
31
0
100
AcDbText
73
0
0
TEXT
5
49D
330
10E
100
AcDbEntity
8
SPAN-SHEET-TEXT
100
AcDbText
10
64900
20
39180
30
0
40
240
1
GENERAL NOTES
7
STANDARD
72
0
100
AcDbText
73
0
0
TEXT
5
49E
330
10E
100
AcDbEntity
8
SPAN-SHEET-TEXT
100
AcDbText
10
82800
20
39180
30
0
40
220
1
\U+0645\U+0644\U+0627\U+062D\U+0638\U+0627\U+062A \U+0639\U+0627\U+0645\U+0629
7
STANDARD
72
2
11
82800
21
39180
31
0
100
AcDbText
73
0
0
LINE
5
49F
330
10E
100
AcDbEntity
8
SPAN-SHEET-NOTES
100
AcDbLine
10
64900
20
39070
30
0
11
82800
21
39070
31
0
0
MTEXT
5
4A0
330
10E
100
AcDbEntity
8
SPAN-SHEET-NOTES
100
AcDbMText
10
64900
20
38940
30
0
40
175
41
17800
71
1
72
1
1
1. ALL DIMENSIONS ARE IN MILLIMETRES, LEVELS IN METRES UNLESS NOTED OTHERWISE. DO NOT SCALE; FOLLOW THE WRITTEN DIMENSIONS.
7
STANDARD
44
1
0
MTEXT
5
4A1
330
10E
100
AcDbEntity
8
SPAN-SHEET-NOTES
100
AcDbMText
10
64900
20
38635
30
0
40
175
41
17800
71
1
72
1
1
2. CONCRETE f'c = 35 MPa (drawing). REINFORCEMENT: DEFORMED BARS fy = 420 MPa (drawing). CLEAR COVER 25 mm TOP AND BOTTOM (drawing).
7
STANDARD
44
1
0
MTEXT
5
4A2
330
10E
100
AcDbEntity
8
SPAN-SHEET-NOTES
100
AcDbMText
10
64900
20
38058.75
30
0
40
175
41
17800
71
1
72
1
1
3. SLAB THICKNESS 220 mm. THIS SHEET IS TO BE READ WITH THE CONSULTANT'S STRUCTURAL DRAWINGS (G.A.) AND THE PT LAYOUT; DISCREPANCIES TO BE REFERRED TO THE ENGINEER BEFORE FABRICATION.
7
STANDARD
44
1
0
MTEXT
5
4A3
330
10E
100
AcDbEntity
8
SPAN-SHEET-NOTES
100
AcDbMText
10
64900
20
37482.5
30
0
40
175
41
17800
71
1
72
1
3
4. BAR CALL-OUT: [No.] T[\U+00D8] @[SPACING] - [LAYER-MARK] - (L = CUTTING LENGTH). STRAIGHT LENGTH IS WRITTEN UNDER THE BAR; A HOOK LEG IS WRITTEN AT THE HOOKED END. T1/T2 = TOP LAYERS, B1/B2 = BOTTOM LAYERS (1 = BARS PARALLEL TO THE NUMBERED GRIDS,
1
 2 = PARALLEL TO THE LETTERED GRIDS).
7
STANDARD
44
1
0
MTEXT
5
4A4
330
10E
100
AcDbEntity
8
SPAN-SHEET-NOTES
100
AcDbMText
10
64900
20
36635
30
0
40
175
41
17800
71
1
72
1
1
5. THE DRAWN BAR IS REPRESENTATIVE OF THE GROUP; THE NUMBER OF BARS IN THE CALL-OUT IS PLACED AT THE GIVEN SPACING ACROSS THE ZONE. A SHORT OFFSET LINE MARKS THE LAP OF THE FOLLOWING PIECE.
7
STANDARD
44
1
0
MTEXT
5
4A5
330
10E
100
AcDbEntity
8
SPAN-SHEET-NOTES
100
AcDbMText
10
64900
20
36058.75
30
0
40
175
41
17800
71
1
72
1
1
6. TENSION LAPS ARE CLASS B (1.3 ld) PER SBC 304-18 \U+00A725.5.2, SO ALL BARS OF A ROW MAY LAP AT THE SAME SECTION. BARS ENDING AT A FREE EDGE TERMINATE WITH A STANDARD 90\U+00B0 HOOK (12 \U+00D8) UNLESS NOTED.
7
STANDARD
44
1
0
MTEXT
5
4A6
330
10E
100
AcDbEntity
8
SPAN-SHEET-NOTES
100
AcDbMText
10
64900
20
35482.5
30
0
40
175
41
17800
71
1
72
1
3
7. OFFICE PERIMETER RULE: T12@150 ALONG THE WHOLE SLAB PERIMETER BETWEEN THE COLUMN TOP BARS. AT A FREE EDGE A U-BAR 4000 mm LONG WITH EQUAL TOP AND BOTTOM LEGS (1920 mm, DEPTH 170 mm); AT AN EDGE BEAM AN L-BAR 4000 mm LONG: 400 mm LEG DOWN INTO THE 
1
BEAM AND 3600 mm ON TOP IN THE SLAB. WITH 2T12 LONGITUDINAL BARS TOP AND BOTTOM INSIDE THEM (ONE REPRESENTATIVE BAR PER EDGE).
7
STANDARD
44
1
0
MTEXT
5
4A7
330
10E
100
AcDbEntity
8
SPAN-SHEET-NOTES
100
AcDbMText
10
64900
20
34635
30
0
40
175
41
17800
71
1
72
1
1
8. AROUND CIRCULAR REGIONS: RADIAL U-BARS T12@150 (LEGS 1200) PLUS 2T12 RING BARS TOP AND BOTTOM, RINGS LAPPED CLASS B.
7
STANDARD
44
1
0
MTEXT
5
4A8
330
10E
100
AcDbEntity
8
SPAN-SHEET-NOTES
100
AcDbMText
10
64900
20
34330
30
0
40
175
41
17800
71
1
72
1
1
9. U-BARS ARE PLACED BEFORE THE ANCHORAGES ARE FIXED; DO NOT CUT U-BARS TO SUIT ANCHORAGE POCKETS - RELOCATE WITHIN THE SPACING.
7
STANDARD
44
1
0
MTEXT
5
4A9
330
10E
100
AcDbEntity
8
SPAN-SHEET-NOTES
100
AcDbMText
10
64900
20
34025
30
0
40
175
41
17800
71
1
72
1
1
10. \U+00D812: ld 410 (bot) / 530 (top) \U+00B7 LAP 550 (bot) / 700 (top) \U+00B7 ldh 210
7
STANDARD
44
1
0
TEXT
5
4AA
330
10E
100
AcDbEntity
8
SPAN-SHEET-TEXT
100
AcDbText
10
64900
20
33400
30
0
40
240
1
ASSUMPTIONS
7
STANDARD
72
0
100
AcDbText
73
0
0
TEXT
5
4AB
330
10E
100
AcDbEntity
8
SPAN-SHEET-TEXT
100
AcDbText
10
82800
20
33400
30
0
40
220
1
\U+0627\U+0641\U+062A\U+0631\U+0627\U+0636\U+0627\U+062A
7
STANDARD
72
2
11
82800
21
33400
31
0
100
AcDbText
73
0
0
LINE
5
4AC
330
10E
100
AcDbEntity
8
SPAN-SHEET-NOTES
100
AcDbLine
10
64900
20
33290
30
0
11
82800
21
33290
31
0
0
MTEXT
5
4AD
330
10E
100
AcDbEntity
8
SPAN-SHEET-NOTES
100
AcDbMText
10
64900
20
33160
30
0
40
165
41
17800
71
1
72
1
1
A1. Bottom mesh not specified: T12@200 both ways assumed as bonded reinforcement in PT zones.
7
STANDARD
44
1
0
MTEXT
5
4AE
330
10E
100
AcDbEntity
8
SPAN-SHEET-NOTES
100
AcDbMText
10
64900
20
32865
30
0
40
165
41
17800
71
1
72
1
1
A2. Edge U-bars not specified: T12@150 with 1200 mm legs assumed at PT anchorage edges.
7
STANDARD
44
1
0
MTEXT
5
4AF
330
10E
100
AcDbEntity
8
SPAN-SHEET-NOTES
100
AcDbMText
10
64900
20
32570
30
0
40
165
41
17800
71
1
72
1
1
A3. Opening trimmers not specified: 2T16 T&B each side + 2T12 diagonals at corners assumed.
7
STANDARD
44
1
0
MTEXT
5
4B0
330
10E
100
AcDbEntity
8
SPAN-SHEET-NOTES
100
AcDbMText
10
64900
20
32275
30
0
40
165
41
17800
71
1
72
1
1
A4. Void trimmers not specified: 2T12 T&B each side assumed.
7
STANDARD
44
1
0
MTEXT
5
4B1
330
10E
100
AcDbEntity
8
SPAN-SHEET-NOTES
100
AcDbMText
10
64900
20
31980
30
0
40
165
41
17800
71
1
72
1
1
A5. Stock bar length 12 m; laps staggered so that not more than 50 % of bars lap at one section.
7
STANDARD
44
1
0
TEXT
5
4B2
330
10E
100
AcDbEntity
8
SPAN-SHEET-TEXT
100
AcDbText
10
64900
20
31365
30
0
40
240
1
CODE REFERENCE
7
STANDARD
72
0
100
AcDbText
73
0
0
TEXT
5
4B3
330
10E
100
AcDbEntity
8
SPAN-SHEET-TEXT
100
AcDbText
10
82800
20
31365
30
0
40
220
1
\U+0627\U+0644\U+0645\U+0631\U+062C\U+0639 \U+0627\U+0644\U+0643\U+0648\U+062F\U+064A
7
STANDARD
72
2
11
82800
21
31365
31
0
100
AcDbText
73
0
0
LINE
5
4B4
330
10E
100
AcDbEntity
8
SPAN-SHEET-NOTES
100
AcDbLine
10
64900
20
31255
30
0
11
82800
21
31255
31
0
0
MTEXT
5
4B5
330
10E
100
AcDbEntity
8
SPAN-SHEET-NOTES
100
AcDbMText
10
64900
20
31125
30
0
40
175
41
17800
71
1
72
1
1
SBC 304-18 AS STATED ON THE STRUCTURAL DRAWINGS. DEVELOPMENT, ANCHORAGE AND LAP LENGTHS PER SBC 304-18 CHAPTER 25 (ACI 318-14 BASIS).
7
STANDARD
44
1
0
TEXT
5
4B6
330
10E
100
AcDbEntity
8
SPAN-SHEET-TEXT
100
AcDbText
10
64900
20
30228.75
30
0
40
240
1
LEGEND
7
STANDARD
72
0
100
AcDbText
73
0
0
TEXT
5
4B7
330
10E
100
AcDbEntity
8
SPAN-SHEET-TEXT
100
AcDbText
10
82800
20
30228.75
30
0
40
220
1
\U+0645\U+0641\U+062A\U+0627\U+062D \U+0627\U+0644\U+0631\U+0645\U+0648\U+0632
7
STANDARD
72
2
11
82800
21
30228.75
31
0
100
AcDbText
73
0
0
LINE
5
4B8
330
10E
100
AcDbEntity
8
SPAN-SHEET-NOTES
100
AcDbLine
10
64900
20
30118.75
30
0
11
82800
21
30118.75
31
0
0
LINE
5
4B9
330
10E
100
AcDbEntity
8
SPAN-RB-UBAR
370
50
100
AcDbLine
10
64900
20
29818.75
30
0
11
65700
21
29818.75
31
0
0
TEXT
5
4BA
330
10E
100
AcDbEntity
8
SPAN-SHEET-NOTES
100
AcDbText
10
65900
20
29768.75
30
0
40
170
1
U-BAR (HAIRPIN) / L-BAR AT EDGE BEAM (LEG SYMBOL)
7
STANDARD
72
0
100
AcDbText
73
0
0
LINE
5
4BB
330
10E
100
AcDbEntity
8
SPAN-RB
370
50
100
AcDbLine
10
64900
20
29518.75
30
0
11
65700
21
29518.75
31
0
0
TEXT
5
4BC
330
10E
100
AcDbEntity
8
SPAN-SHEET-NOTES
100
AcDbText
10
65900
20
29468.75
30
0
40
170
1
EDGE / RING BAR
7
STANDARD
72
0
100
AcDbText
73
0
0
LINE
5
4BD
330
10E
100
AcDbEntity
8
SPAN-CALLOUT
100
AcDbLine
10
64900
20
29218.75
30
0
11
65700
21
29218.75
31
0
0
TEXT
5
4BE
330
10E
100
AcDbEntity
8
SPAN-SHEET-NOTES
100
AcDbText
10
65900
20
29168.75
30
0
40
170
1
EDGE / REGION ID
7
STANDARD
72
0
100
AcDbText
73
0
0
LINE
5
4BF
330
10E
100
AcDbEntity
8
SPAN-SHEET-TITLE
100
AcDbLine
10
64600
20
20700
30
0
11
83100
21
20700
31
0
0
TEXT
5
4C0
330
10E
100
AcDbEntity
8
SPAN-SHEET-TITLE
100
AcDbText
10
73850
20
20950
30
0
40
170
1
COORDINATED WITH THE FOLLOWING DISCIPLINES
7
STANDARD
72
1
11
73850
21
20950
31
0
100
AcDbText
73
2
0
LINE
5
4C1
330
10E
100
AcDbEntity
8
SPAN-SHEET-TITLE
100
AcDbLine
10
64600
20
20100
30
0
11
83100
21
20100
31
0
0
TEXT
5
4C2
330
10E
100
AcDbEntity
8
SPAN-SHEET-TITLE
100
AcDbText
10
64750
20
20480
30
0
40
150
1
ARCH.
7
STANDARD
72
0
100
AcDbText
73
0
0
TEXT
5
4C3
330
10E
100
AcDbEntity
8
SPAN-SHEET-TEXT
100
AcDbText
10
66912.5
20
20200
30
0
40
160
1

7
STANDARD
72
1
11
66912.5
21
20200
31
0
100
AcDbText
73
0
0
LINE
5
4C4
330
10E
100
AcDbEntity
8
SPAN-SHEET-TITLE
100
AcDbLine
10
69225
20
20100
30
0
11
69225
21
20700
31
0
0
TEXT
5
4C5
330
10E
100
AcDbEntity
8
SPAN-SHEET-TITLE
100
AcDbText
10
69375
20
20480
30
0
40
150
1
STRUCT.
7
STANDARD
72
0
100
AcDbText
73
0
0
TEXT
5
4C6
330
10E
100
AcDbEntity
8
SPAN-SHEET-TEXT
100
AcDbText
10
71537.5
20
20200
30
0
40
160
1

7
STANDARD
72
1
11
71537.5
21
20200
31
0
100
AcDbText
73
0
0
LINE
5
4C7
330
10E
100
AcDbEntity
8
SPAN-SHEET-TITLE
100
AcDbLine
10
73850
20
20100
30
0
11
73850
21
20700
31
0
0
TEXT
5
4C8
330
10E
100
AcDbEntity
8
SPAN-SHEET-TITLE
100
AcDbText
10
74000
20
20480
30
0
40
150
1
MEP
7
STANDARD
72
0
100
AcDbText
73
0
0
TEXT
5
4C9
330
10E
100
AcDbEntity
8
SPAN-SHEET-TEXT
100
AcDbText
10
76162.5
20
20200
30
0
40
160
1

7
STANDARD
72
1
11
76162.5
21
20200
31
0
100
AcDbText
73
0
0
LINE
5
4CA
330
10E
100
AcDbEntity
8
SPAN-SHEET-TITLE
100
AcDbLine
10
78475
20
20100
30
0
11
78475
21
20700
31
0
0
TEXT
5
4CB
330
10E
100
AcDbEntity
8
SPAN-SHEET-TITLE
100
AcDbText
10
78625
20
20480
30
0
40
150
1
EL.
7
STANDARD
72
0
100
AcDbText
73
0
0
TEXT
5
4CC
330
10E
100
AcDbEntity
8
SPAN-SHEET-TEXT
100
AcDbText
10
80787.5
20
20200
30
0
40
160
1

7
STANDARD
72
1
11
80787.5
21
20200
31
0
100
AcDbText
73
0
0
LINE
5
4CD
330
10E
100
AcDbEntity
8
SPAN-SHEET-TITLE
100
AcDbLine
10
64600
20
19600
30
0
11
83100
21
19600
31
0
0
TEXT
5
4CE
330
10E
100
AcDbEntity
8
SPAN-SHEET-TITLE
100
AcDbText
10
73850
20
19850
30
0
40
170
1
CONTRACT DRAWING REFERENCES
7
STANDARD
72
1
11
73850
21
19850
31
0
100
AcDbText
73
2
0
LINE
5
4CF
330
10E
100
AcDbEntity
8
SPAN-SHEET-TITLE
100
AcDbLine
10
64600
20
19200
30
0
11
83100
21
19200
31
0
0
TEXT
5
4D0
330
10E
100
AcDbEntity
8
SPAN-SHEET-TITLE
100
AcDbText
10
67683.333333
20
19400
30
0
40
150
1
ARCHITECTURAL
7
STANDARD
72
1
11
67683.333333
21
19400
31
0
100
AcDbText
73
2
0
LINE
5
4D1
330
10E
100
AcDbEntity
8
SPAN-SHEET-TITLE
100
AcDbLine
10
70766.666667
20
19200
30
0
11
70766.666667
21
19600
31
0
0
TEXT
5
4D2
330
10E
100
AcDbEntity
8
SPAN-SHEET-TITLE
100
AcDbText
10
73850
20
19400
30
0
40
150
1
STRUCTURAL
7
STANDARD
72
1
11
73850
21
19400
31
0
100
AcDbText
73
2
0
LINE
5
4D3
330
10E
100
AcDbEntity
8
SPAN-SHEET-TITLE
100
AcDbLine
10
76933.333333
20
19200
30
0
11
76933.333333
21
19600
31
0
0
TEXT
5
4D4
330
10E
100
AcDbEntity
8
SPAN-SHEET-TITLE
100
AcDbText
10
80016.666667
20
19400
30
0
40
150
1
MEP
7
STANDARD
72
1
11
80016.666667
21
19400
31
0
100
AcDbText
73
2
0
LINE
5
4D5
330
10E
100
AcDbEntity
8
SPAN-SHEET-TITLE
100
AcDbLine
10
64600
20
18800
30
0
11
83100
21
18800
31
0
0
LINE
5
4D6
330
10E
100
AcDbEntity
8
SPAN-SHEET-TITLE
100
AcDbLine
10
69566.666667
20
18800
30
0
11
69566.666667
21
19200
31
0
0
TEXT
5
4D7
330
10E
100
AcDbEntity
8
SPAN-SHEET-TITLE
100
AcDbText
10
64750
20
18930
30
0
40
130
1
DRAWING No.
7
STANDARD
72
0
100
AcDbText
73
0
0
TEXT
5
4D8
330
10E
100
AcDbEntity
8
SPAN-SHEET-TITLE
100
AcDbText
10
70166.666667
20
18930
30
0
40
130
1
REV.
7
STANDARD
72
1
11
70166.666667
21
18930
31
0
100
AcDbText
73
0
0
LINE
5
4D9
330
10E
100
AcDbEntity
8
SPAN-SHEET-TITLE
100
AcDbLine
10
70766.666667
20
18800
30
0
11
70766.666667
21
19200
31
0
0
LINE
5
4DA
330
10E
100
AcDbEntity
8
SPAN-SHEET-TITLE
100
AcDbLine
10
75733.333333
20
18800
30
0
11
75733.333333
21
19200
31
0
0
TEXT
5
4DB
330
10E
100
AcDbEntity
8
SPAN-SHEET-TITLE
100
AcDbText
10
70916.666667
20
18930
30
0
40
130
1
DRAWING No.
7
STANDARD
72
0
100
AcDbText
73
0
0
TEXT
5
4DC
330
10E
100
AcDbEntity
8
SPAN-SHEET-TITLE
100
AcDbText
10
76333.333333
20
18930
30
0
40
130
1
REV.
7
STANDARD
72
1
11
76333.333333
21
18930
31
0
100
AcDbText
73
0
0
LINE
5
4DD
330
10E
100
AcDbEntity
8
SPAN-SHEET-TITLE
100
AcDbLine
10
76933.333333
20
18800
30
0
11
76933.333333
21
19200
31
0
0
LINE
5
4DE
330
10E
100
AcDbEntity
8
SPAN-SHEET-TITLE
100
AcDbLine
10
81900
20
18800
30
0
11
81900
21
19200
31
0
0
TEXT
5
4DF
330
10E
100
AcDbEntity
8
SPAN-SHEET-TITLE
100
AcDbText
10
77083.333333
20
18930
30
0
40
130
1
DRAWING No.
7
STANDARD
72
0
100
AcDbText
73
0
0
TEXT
5
4E0
330
10E
100
AcDbEntity
8
SPAN-SHEET-TITLE
100
AcDbText
10
82500
20
18930
30
0
40
130
1
REV.
7
STANDARD
72
1
11
82500
21
18930
31
0
100
AcDbText
73
0
0
LINE
5
4E1
330
10E
100
AcDbEntity
8
SPAN-SHEET-TITLE
100
AcDbLine
10
64600
20
18400
30
0
11
83100
21
18400
31
0
0
LINE
5
4E2
330
10E
100
AcDbEntity
8
SPAN-SHEET-TITLE
100
AcDbLine
10
69566.666667
20
18400
30
0
11
69566.666667
21
18800
31
0
0
LINE
5
4E3
330
10E
100
AcDbEntity
8
SPAN-SHEET-TITLE
100
AcDbLine
10
70766.666667
20
18400
30
0
11
70766.666667
21
18800
31
0
0
LINE
5
4E4
330
10E
100
AcDbEntity
8
SPAN-SHEET-TITLE
100
AcDbLine
10
75733.333333
20
18400
30
0
11
75733.333333
21
18800
31
0
0
LINE
5
4E5
330
10E
100
AcDbEntity
8
SPAN-SHEET-TITLE
100
AcDbLine
10
76933.333333
20
18400
30
0
11
76933.333333
21
18800
31
0
0
LINE
5
4E6
330
10E
100
AcDbEntity
8
SPAN-SHEET-TITLE
100
AcDbLine
10
81900
20
18400
30
0
11
81900
21
18800
31
0
0
LINE
5
4E7
330
10E
100
AcDbEntity
8
SPAN-SHEET-TITLE
100
AcDbLine
10
64600
20
18000
30
0
11
83100
21
18000
31
0
0
LINE
5
4E8
330
10E
100
AcDbEntity
8
SPAN-SHEET-TITLE
100
AcDbLine
10
69566.666667
20
18000
30
0
11
69566.666667
21
18400
31
0
0
LINE
5
4E9
330
10E
100
AcDbEntity
8
SPAN-SHEET-TITLE
100
AcDbLine
10
70766.666667
20
18000
30
0
11
70766.666667
21
18400
31
0
0
LINE
5
4EA
330
10E
100
AcDbEntity
8
SPAN-SHEET-TITLE
100
AcDbLine
10
75733.333333
20
18000
30
0
11
75733.333333
21
18400
31
0
0
LINE
5
4EB
330
10E
100
AcDbEntity
8
SPAN-SHEET-TITLE
100
AcDbLine
10
76933.333333
20
18000
30
0
11
76933.333333
21
18400
31
0
0
LINE
5
4EC
330
10E
100
AcDbEntity
8
SPAN-SHEET-TITLE
100
AcDbLine
10
81900
20
18000
30
0
11
81900
21
18400
31
0
0
LINE
5
4ED
330
10E
100
AcDbEntity
8
SPAN-SHEET-TITLE
100
AcDbLine
10
64600
20
17600
30
0
11
83100
21
17600
31
0
0
TEXT
5
4EE
330
10E
100
AcDbEntity
8
SPAN-SHEET-TITLE
100
AcDbText
10
65200
20
17800
30
0
40
140
1
REV.
7
STANDARD
72
1
11
65200
21
17800
31
0
100
AcDbText
73
2
0
LINE
5
4EF
330
10E
100
AcDbEntity
8
SPAN-SHEET-TITLE
100
AcDbLine
10
65800
20
17600
30
0
11
65800
21
18000
31
0
0
TEXT
5
4F0
330
10E
100
AcDbEntity
8
SPAN-SHEET-TITLE
100
AcDbText
10
71700
20
17800
30
0
40
140
1
DESCRIPTION
7
STANDARD
72
1
11
71700
21
17800
31
0
100
AcDbText
73
2
0
LINE
5
4F1
330
10E
100
AcDbEntity
8
SPAN-SHEET-TITLE
100
AcDbLine
10
77600
20
17600
30
0
11
77600
21
18000
31
0
0
TEXT
5
4F2
330
10E
100
AcDbEntity
8
SPAN-SHEET-TITLE
100
AcDbText
10
79100
20
17800
30
0
40
140
1
DATE
7
STANDARD
72
1
11
79100
21
17800
31
0
100
AcDbText
73
2
0
LINE
5
4F3
330
10E
100
AcDbEntity
8
SPAN-SHEET-TITLE
100
AcDbLine
10
80600
20
17600
30
0
11
80600
21
18000
31
0
0
TEXT
5
4F4
330
10E
100
AcDbEntity
8
SPAN-SHEET-TITLE
100
AcDbText
10
81850
20
17800
30
0
40
140
1
BY
7
STANDARD
72
1
11
81850
21
17800
31
0
100
AcDbText
73
2
0
LINE
5
4F5
330
10E
100
AcDbEntity
8
SPAN-SHEET-TITLE
100
AcDbLine
10
64600
20
17200
30
0
11
83100
21
17200
31
0
0
TEXT
5
4F6
330
10E
100
AcDbEntity
8
SPAN-SHEET-TEXT
100
AcDbText
10
65200
20
17300
30
0
40
150
1
00
7
STANDARD
72
1
11
65200
21
17300
31
0
100
AcDbText
73
0
0
LINE
5
4F7
330
10E
100
AcDbEntity
8
SPAN-SHEET-TITLE
100
AcDbLine
10
65800
20
17200
30
0
11
65800
21
17600
31
0
0
TEXT
5
4F8
330
10E
100
AcDbEntity
8
SPAN-SHEET-TEXT
100
AcDbText
10
65950
20
17300
30
0
40
150
1
ISSUED FOR APPROVAL
7
STANDARD
72
0
100
AcDbText
73
0
0
LINE
5
4F9
330
10E
100
AcDbEntity
8
SPAN-SHEET-TITLE
100
AcDbLine
10
77600
20
17200
30
0
11
77600
21
17600
31
0
0
TEXT
5
4FA
330
10E
100
AcDbEntity
8
SPAN-SHEET-TEXT
100
AcDbText
10
79100
20
17300
30
0
40
150
1
2026-09-26
7
STANDARD
72
1
11
79100
21
17300
31
0
100
AcDbText
73
0
0
LINE
5
4FB
330
10E
100
AcDbEntity
8
SPAN-SHEET-TITLE
100
AcDbLine
10
80600
20
17200
30
0
11
80600
21
17600
31
0
0
TEXT
5
4FC
330
10E
100
AcDbEntity
8
SPAN-SHEET-TEXT
100
AcDbText
10
81850
20
17300
30
0
40
150
1

7
STANDARD
72
1
11
81850
21
17300
31
0
100
AcDbText
73
0
0
LINE
5
4FD
330
10E
100
AcDbEntity
8
SPAN-SHEET-TITLE
100
AcDbLine
10
64600
20
16800
30
0
11
83100
21
16800
31
0
0
LINE
5
4FE
330
10E
100
AcDbEntity
8
SPAN-SHEET-TITLE
100
AcDbLine
10
65800
20
16800
30
0
11
65800
21
17200
31
0
0
LINE
5
4FF
330
10E
100
AcDbEntity
8
SPAN-SHEET-TITLE
100
AcDbLine
10
77600
20
16800
30
0
11
77600
21
17200
31
0
0
LINE
5
500
330
10E
100
AcDbEntity
8
SPAN-SHEET-TITLE
100
AcDbLine
10
80600
20
16800
30
0
11
80600
21
17200
31
0
0
LINE
5
501
330
10E
100
AcDbEntity
8
SPAN-SHEET-TITLE
100
AcDbLine
10
64600
20
16400
30
0
11
83100
21
16400
31
0
0
LINE
5
502
330
10E
100
AcDbEntity
8
SPAN-SHEET-TITLE
100
AcDbLine
10
65800
20
16400
30
0
11
65800
21
16800
31
0
0
LINE
5
503
330
10E
100
AcDbEntity
8
SPAN-SHEET-TITLE
100
AcDbLine
10
77600
20
16400
30
0
11
77600
21
16800
31
0
0
LINE
5
504
330
10E
100
AcDbEntity
8
SPAN-SHEET-TITLE
100
AcDbLine
10
80600
20
16400
30
0
11
80600
21
16800
31
0
0
LINE
5
505
330
10E
100
AcDbEntity
8
SPAN-SHEET-TITLE
100
AcDbLine
10
64600
20
16000
30
0
11
83100
21
16000
31
0
0
LINE
5
506
330
10E
100
AcDbEntity
8
SPAN-SHEET-TITLE
100
AcDbLine
10
65800
20
16000
30
0
11
65800
21
16400
31
0
0
LINE
5
507
330
10E
100
AcDbEntity
8
SPAN-SHEET-TITLE
100
AcDbLine
10
77600
20
16000
30
0
11
77600
21
16400
31
0
0
LINE
5
508
330
10E
100
AcDbEntity
8
SPAN-SHEET-TITLE
100
AcDbLine
10
80600
20
16000
30
0
11
80600
21
16400
31
0
0
LINE
5
509
330
10E
100
AcDbEntity
8
SPAN-SHEET-TITLE
100
AcDbLine
10
64600
20
14500
30
0
11
83100
21
14500
31
0
0
TEXT
5
50A
330
10E
100
AcDbEntity
8
SPAN-SHEET-TITLE
100
AcDbText
10
64750
20
15700
30
0
40
150
1
PROJECT
7
STANDARD
72
0
100
AcDbText
73
0
0
TEXT
5
50B
330
10E
100
AcDbEntity
8
SPAN-SHEET-TEXT
100
AcDbText
10
64750
20
15380
30
0
40
210
1
PROPOSED MIXED-USE BUILDING
7
STANDARD
72
0
100
AcDbText
73
0
0
TEXT
5
50C
330
10E
100
AcDbEntity
8
SPAN-SHEET-TITLE
100
AcDbText
10
64750
20
14630
30
0
40
170
1
RIYADH, KSA
7
STANDARD
72
0
100
AcDbText
73
0
0
LINE
5
50D
330
10E
100
AcDbEntity
8
SPAN-SHEET-TITLE
100
AcDbLine
10
64600
20
13600
30
0
11
83100
21
13600
31
0
0
TEXT
5
50E
330
10E
100
AcDbEntity
8
SPAN-SHEET-TITLE
100
AcDbText
10
64750
20
14200
30
0
40
150
1
THE CLIENT
7
STANDARD
72
0
100
AcDbText
73
0
0
TEXT
5
50F
330
10E
100
AcDbEntity
8
SPAN-SHEET-TEXT
100
AcDbText
10
64750
20
13880
30
0
40
220
1
DEMO CLIENT
7
STANDARD
72
0
100
AcDbText
73
0
0
LINE
5
510
330
10E
100
AcDbEntity
8
SPAN-SHEET-TITLE
100
AcDbLine
10
64600
20
12700
30
0
11
83100
21
12700
31
0
0
TEXT
5
511
330
10E
100
AcDbEntity
8
SPAN-SHEET-TITLE
100
AcDbText
10
64750
20
13300
30
0
40
150
1
THE ENGINEER (CONSULTANT)
7
STANDARD
72
0
100
AcDbText
73
0
0
LINE
5
512
330
10E
100
AcDbEntity
8
SPAN-SHEET-TITLE
100
AcDbLine
10
64600
20
11800
30
0
11
83100
21
11800
31
0
0
TEXT
5
513
330
10E
100
AcDbEntity
8
SPAN-SHEET-TITLE
100
AcDbText
10
64750
20
12400
30
0
40
150
1
MAIN CONTRACTOR
7
STANDARD
72
0
100
AcDbText
73
0
0
LINE
5
514
330
10E
100
AcDbEntity
8
SPAN-SHEET-TITLE
100
AcDbLine
10
64600
20
10200
30
0
11
83100
21
10200
31
0
0
TEXT
5
515
330
10E
100
AcDbEntity
8
SPAN-SHEET-TITLE
100
AcDbText
10
64750
20
11500
30
0
40
150
1
POST-TENSION SUB-CONTRACTOR / SHOP DRAWINGS BY
7
STANDARD
72
0
100
AcDbText
73
0
0
TEXT
5
516
330
10E
100
AcDbEntity
8
SPAN-SHEET-TEXT
100
AcDbText
10
73850
20
10950
30
0
40
400
1
SPAN TECH CONTRACTING
7
STANDARD
72
1
11
73850
21
10950
31
0
100
AcDbText
73
2
0
TEXT
5
517
330
10E
100
AcDbEntity
8
SPAN-SHEET-TITLE
100
AcDbText
10
73850
20
10450
30
0
40
170
1
POST-TENSIONED SLABS \U+00B7 KSA \U+00B7 EGYPT \U+00B7 QATAR
7
STANDARD
72
1
11
73850
21
10450
31
0
100
AcDbText
73
2
0
LINE
5
518
330
10E
100
AcDbEntity
8
SPAN-SHEET-TITLE
100
AcDbLine
10
64600
20
8200
30
0
11
83100
21
8200
31
0
0
TEXT
5
519
330
10E
100
AcDbEntity
8
SPAN-SHEET-TITLE
100
AcDbText
10
64750
20
9900
30
0
40
150
1
DRAWING TITLE
7
STANDARD
72
0
100
AcDbText
73
0
0
TEXT
5
51A
330
10E
100
AcDbEntity
8
SPAN-SHEET-TEXT
100
AcDbText
10
64750
20
9450
30
0
40
290
1
U-BARS AT SLAB EDGES AND AROUND CIRCULAR
7
STANDARD
72
0
100
AcDbText
73
0
0
TEXT
5
51B
330
10E
100
AcDbEntity
8
SPAN-SHEET-TEXT
100
AcDbText
10
64750
20
9060
30
0
40
290
1
REGIONS
7
STANDARD
72
0
100
AcDbText
73
0
0
TEXT
5
51C
330
10E
100
AcDbEntity
8
SPAN-SHEET-TITLE
100
AcDbText
10
64750
20
8330
30
0
40
200
1
L02 - ROOF SLAB PLAN
7
STANDARD
72
0
100
AcDbText
73
0
0
LINE
5
51D
330
10E
100
AcDbEntity
8
SPAN-SHEET-TITLE
100
AcDbLine
10
64600
20
7100
30
0
11
83100
21
7100
31
0
0
LINE
5
51E
330
10E
100
AcDbEntity
8
SPAN-SHEET-TITLE
100
AcDbLine
10
73850
20
7100
30
0
11
73850
21
8200
31
0
0
LINE
5
51F
330
10E
100
AcDbEntity
8
SPAN-SHEET-TITLE
100
AcDbLine
10
77920
20
7100
30
0
11
77920
21
8200
31
0
0
TEXT
5
520
330
10E
100
AcDbEntity
8
SPAN-SHEET-TITLE
100
AcDbText
10
64750
20
7900
30
0
40
150
1
DRAWING No.
7
STANDARD
72
0
100
AcDbText
73
0
0
TEXT
5
521
330
10E
100
AcDbEntity
8
SPAN-SHEET-TEXT
100
AcDbText
10
64750
20
7480
30
0
40
320
1
SPAN-SD-L02-04
7
STANDARD
72
0
100
AcDbText
73
0
0
TEXT
5
522
330
10E
100
AcDbEntity
8
SPAN-SHEET-TITLE
100
AcDbText
10
74000
20
7900
30
0
40
150
1
REV.
7
STANDARD
72
0
100
AcDbText
73
0
0
TEXT
5
523
330
10E
100
AcDbEntity
8
SPAN-SHEET-TEXT
100
AcDbText
10
74000
20
7480
30
0
40
320
1
00
7
STANDARD
72
0
100
AcDbText
73
0
0
TEXT
5
524
330
10E
100
AcDbEntity
8
SPAN-SHEET-TITLE
100
AcDbText
10
78070
20
7900
30
0
40
150
1
DATE
7
STANDARD
72
0
100
AcDbText
73
0
0
TEXT
5
525
330
10E
100
AcDbEntity
8
SPAN-SHEET-TEXT
100
AcDbText
10
78070
20
7560
30
0
40
240
1
2026-09-26
7
STANDARD
72
0
100
AcDbText
73
0
0
LINE
5
526
330
10E
100
AcDbEntity
8
SPAN-SHEET-TITLE
100
AcDbLine
10
64600
20
6000
30
0
11
83100
21
6000
31
0
0
LINE
5
527
330
10E
100
AcDbEntity
8
SPAN-SHEET-TITLE
100
AcDbLine
10
72000
20
6000
30
0
11
72000
21
7100
31
0
0
LINE
5
528
330
10E
100
AcDbEntity
8
SPAN-SHEET-TITLE
100
AcDbLine
10
76810
20
6000
30
0
11
76810
21
7100
31
0
0
TEXT
5
529
330
10E
100
AcDbEntity
8
SPAN-SHEET-TITLE
100
AcDbText
10
64750
20
6800
30
0
40
150
1
SCALE (A1)
7
STANDARD
72
0
100
AcDbText
73
0
0
TEXT
5
52A
330
10E
100
AcDbEntity
8
SPAN-SHEET-TEXT
100
AcDbText
10
64750
20
6460
30
0
40
240
1
1:100 (DETAILS AS NOTED)
7
STANDARD
72
0
100
AcDbText
73
0
0
TEXT
5
52B
330
10E
100
AcDbEntity
8
SPAN-SHEET-TITLE
100
AcDbText
10
72150
20
6800
30
0
40
150
1
SHEET
7
STANDARD
72
0
100
AcDbText
73
0
0
TEXT
5
52C
330
10E
100
AcDbEntity
8
SPAN-SHEET-TEXT
100
AcDbText
10
72150
20
6460
30
0
40
240
1
13 OF 17
7
STANDARD
72
0
100
AcDbText
73
0
0
TEXT
5
52D
330
10E
100
AcDbEntity
8
SPAN-SHEET-TITLE
100
AcDbText
10
76960
20
6800
30
0
40
150
1
GRID REFERENCE
7
STANDARD
72
0
100
AcDbText
73
0
0
TEXT
5
52E
330
10E
100
AcDbEntity
8
SPAN-SHEET-TEXT
100
AcDbText
10
76960
20
6480
30
0
40
220
1
A-E / 1-4
7
STANDARD
72
0
100
AcDbText
73
0
0
LINE
5
52F
330
10E
100
AcDbEntity
8
SPAN-SHEET-TITLE
100
AcDbLine
10
64600
20
4500
30
0
11
83100
21
4500
31
0
0
LINE
5
530
330
10E
100
AcDbEntity
8
SPAN-SHEET-TITLE
100
AcDbLine
10
70766.666667
20
4500
30
0
11
70766.666667
21
6000
31
0
0
LINE
5
531
330
10E
100
AcDbEntity
8
SPAN-SHEET-TITLE
100
AcDbLine
10
76933.333333
20
4500
30
0
11
76933.333333
21
6000
31
0
0
TEXT
5
532
330
10E
100
AcDbEntity
8
SPAN-SHEET-TITLE
100
AcDbText
10
64750
20
5700
30
0
40
150
1
PREPARED
7
STANDARD
72
0
100
AcDbText
73
0
0
TEXT
5
533
330
10E
100
AcDbEntity
8
SPAN-SHEET-TEXT
100
AcDbText
10
64750
20
5250
30
0
40
200
1
SPAN TECH DESIGN OFFICE
7
STANDARD
72
0
100
AcDbText
73
0
0
TEXT
5
534
330
10E
100
AcDbEntity
8
SPAN-SHEET-TITLE
100
AcDbText
10
64750
20
4630
30
0
40
140
1
SIGN / DATE: ..........
7
STANDARD
72
0
100
AcDbText
73
0
0
TEXT
5
535
330
10E
100
AcDbEntity
8
SPAN-SHEET-TITLE
100
AcDbText
10
70916.666667
20
5700
30
0
40
150
1
CHECKED
7
STANDARD
72
0
100
AcDbText
73
0
0
TEXT
5
536
330
10E
100
AcDbEntity
8
SPAN-SHEET-TEXT
100
AcDbText
10
70916.666667
20
5250
30
0
40
200
1

7
STANDARD
72
0
100
AcDbText
73
0
0
TEXT
5
537
330
10E
100
AcDbEntity
8
SPAN-SHEET-TITLE
100
AcDbText
10
70916.666667
20
4630
30
0
40
140
1
SIGN / DATE: ..........
7
STANDARD
72
0
100
AcDbText
73
0
0
TEXT
5
538
330
10E
100
AcDbEntity
8
SPAN-SHEET-TITLE
100
AcDbText
10
77083.333333
20
5700
30
0
40
150
1
APPROVED
7
STANDARD
72
0
100
AcDbText
73
0
0
TEXT
5
539
330
10E
100
AcDbEntity
8
SPAN-SHEET-TEXT
100
AcDbText
10
77083.333333
20
5250
30
0
40
200
1

7
STANDARD
72
0
100
AcDbText
73
0
0
TEXT
5
53A
330
10E
100
AcDbEntity
8
SPAN-SHEET-TITLE
100
AcDbText
10
77083.333333
20
4630
30
0
40
140
1
SIGN / DATE: ..........
7
STANDARD
72
0
100
AcDbText
73
0
0
LINE
5
53B
330
10E
100
AcDbEntity
8
SPAN-SHEET-TITLE
100
AcDbLine
10
64600
20
3500
30
0
11
83100
21
3500
31
0
0
LINE
5
53C
330
10E
100
AcDbEntity
8
SPAN-SHEET-TITLE
100
AcDbLine
10
70150
20
3500
30
0
11
70150
21
4500
31
0
0
LINE
5
53D
330
10E
100
AcDbEntity
8
SPAN-SHEET-TITLE
100
AcDbLine
10
76070
20
3500
30
0
11
76070
21
4500
31
0
0
TEXT
5
53E
330
10E
100
AcDbEntity
8
SPAN-SHEET-TITLE
100
AcDbText
10
64750
20
4200
30
0
40
150
1
DRAWING INDEX
7
STANDARD
72
0
100
AcDbText
73
0
0
TEXT
5
53F
330
10E
100
AcDbEntity
8
SPAN-SHEET-TEXT
100
AcDbText
10
64750
20
3900
30
0
40
200
1
SPAN-SD-000
7
STANDARD
72
0
100
AcDbText
73
0
0
TEXT
5
540
330
10E
100
AcDbEntity
8
SPAN-SHEET-TITLE
100
AcDbText
10
70300
20
4200
30
0
40
150
1
CODE REFERENCE
7
STANDARD
72
0
100
AcDbText
73
0
0
TEXT
5
541
330
10E
100
AcDbEntity
8
SPAN-SHEET-TEXT
100
AcDbText
10
70300
20
3920
30
0
40
180
1
SBC 304-18 (ON DRAWINGS)
7
STANDARD
72
0
100
AcDbText
73
0
0
TEXT
5
542
330
10E
100
AcDbEntity
8
SPAN-SHEET-TITLE
100
AcDbText
10
76220
20
4200
30
0
40
150
1
BLOCK / XREF
7
STANDARD
72
0
100
AcDbText
73
0
0
TEXT
5
543
330
10E
100
AcDbEntity
8
SPAN-SHEET-TEXT
100
AcDbText
10
76220
20
3960
30
0
40
140
1
FRAMING_REBAR_U_BARS_AROUND_REGIONS_L02
7
STANDARD
72
0
100
AcDbText
73
0
0
TEXT
5
544
330
10E
100
AcDbEntity
8
SPAN-SHEET-TEXT
100
AcDbText
10
73850
20
2250
30
0
40
230
1
SHOP DRAWING - FOR CONSULTANT APPROVAL
7
STANDARD
72
1
11
73850
21
2250
31
0
100
AcDbText
73
2
0
LWPOLYLINE
5
545
330
10E
100
AcDbEntity
8
SPAN-SHEET-TITLE
370
50
100
AcDbPolyline
90
4
70
1
43
0
10
64600
20
1000
10
83100
20
1000
10
83100
20
16000
10
64600
20
16000
0
CIRCLE
5
546
330
10E
100
AcDbEntity
8
SPAN-CALLOUT
100
AcDbCircle
10
3400
20
14220
30
0
40
400
0
TEXT
5
547
330
10E
100
AcDbEntity
8
SPAN-CALLOUT
100
AcDbText
10
3400
20
14220
30
0
40
320
1
1
7
STANDARD
72
1
11
3400
21
14220
31
0
100
AcDbText
73
2
0
TEXT
5
548
330
10E
100
AcDbEntity
8
SPAN-SHEET-TEXT
100
AcDbText
10
4100
20
14100
30
0
40
340
1
ROOF SLAB PLAN - U-BARS AT SLAB EDGES AND AROUND CIRCULAR REGIONS
7
STANDARD
72
0
100
AcDbText
73
0
0
LINE
5
549
330
10E
100
AcDbEntity
8
SPAN-SHEET-TITLE
370
35
100
AcDbLine
10
4100
20
13980
30
0
11
21000
21
13980
31
0
0
TEXT
5
54A
330
10E
100
AcDbEntity
8
SPAN-SHEET-TITLE
100
AcDbText
10
4100
20
13680
30
0
40
200
1
SCALE : 1:100
7
STANDARD
72
0
100
AcDbText
73
0
0
ENDBLK
5
54B
330
10E
100
AcDbEntity
8
0
100
AcDbBlockEnd
0
ENDSEC
0
SECTION
2
ENTITIES
0
INSERT
5
54C
330
108
100
AcDbEntity
8
0
100
AcDbBlockReference
2
FRAMING_REBAR_U_BARS_AROUND_REGIONS_L02
10
0
20
0
30
0
41
1
42
1
43
1
50
0
0
ENDSEC
0
SECTION
2
OBJECTS
0
DICTIONARY
5
100
330
0
100
AcDbDictionary
281
1
3
ACAD_GROUP
350
101
3
ACAD_LAYOUT
350
104
3
ACAD_PLOTSTYLENAME
350
102
0
DICTIONARY
5
101
330
100
100
AcDbDictionary
281
1
0
ACDBDICTIONARYWDFLT
5
102
330
100
100
AcDbDictionary
281
1
3
Normal
350
103
100
AcDbDictionaryWithDefault
340
103
0
ACDBPLACEHOLDER
5
103
330
102
0
DICTIONARY
5
104
330
100
100
AcDbDictionary
281
1
3
Model
350
105
3
Layout1
350
106
0
LAYOUT
5
105
330
104
100
AcDbPlotSettings
1

2
none_device
4

6

40
0
41
0
42
0
43
0
44
0
45
0
46
0
47
0
48
0
49
0
140
0
141
0
142
1
143
1
70
1712
72
0
73
0
74
5
7

75
16
147
1
148
0
149
0
100
AcDbLayout
1
Model
70
1
71
0
10
0
20
0
11
12
21
9
12
0
22
0
32
0
14
0
24
0
34
0
15
0
25
0
35
0
146
0
13
0
23
0
33
0
16
1
26
0
36
0
17
0
27
1
37
0
76
0
330
108
0
LAYOUT
5
106
330
104
100
AcDbPlotSettings
1

2
none_device
4

6

40
0
41
0
42
0
43
0
44
0
45
0
46
0
47
0
48
0
49
0
140
0
141
0
142
1
143
1
70
688
72
0
73
0
74
5
7

75
16
147
1
148
0
149
0
100
AcDbLayout
1
Layout1
70
1
71
1
10
0
20
0
11
12
21
9
12
0
22
0
32
0
14
0
24
0
34
0
15
0
25
0
35
0
146
0
13
0
23
0
33
0
16
1
26
0
36
0
17
0
27
1
37
0
76
0
330
109
0
ENDSEC
0
EOF
