0
SECTION
2
HEADER
9
$ACADVER
1
AC1015
9
$DWGCODEPAGE
3
ANSI_1252
9
$INSBASE
10
0
20
0
30
0
9
$EXTMIN
10
0
20
0
30
0
9
$EXTMAX
10
85296
20
59400
30
0
9
$LIMMIN
10
0
20
0
9
$LIMMAX
10
85296
20
59400
9
$ORTHOMODE
70
0
9
$LTSCALE
40
25
9
$TEXTSIZE
40
2.5
9
$TEXTSTYLE
7
STANDARD
9
$CLAYER
8
0
9
$CELTYPE
6
BYLAYER
9
$CECOLOR
62
256
9
$DIMSTYLE
2
STANDARD
9
$INSUNITS
70
4
9
$MEASUREMENT
70
1
9
$PDMODE
70
0
9
$PSLTSCALE
70
1
9
$TILEMODE
70
1
9
$HANDSEED
5
2DD
0
ENDSEC
0
SECTION
2
CLASSES
0
ENDSEC
0
SECTION
2
TABLES
0
TABLE
2
VPORT
5
10F
330
0
100
AcDbSymbolTable
70
1
0
VPORT
5
110
330
10F
100
AcDbSymbolTableRecord
100
AcDbViewportTableRecord
2
*Active
70
0
10
0
20
0
11
1
21
1
12
42648
22
29700
13
0
23
0
14
10
24
10
15
10
25
10
16
0
26
0
36
1
17
0
27
0
37
0
40
65340
41
1.43596
42
50
43
0
44
0
50
0
51
0
71
0
72
1000
73
1
74
3
75
0
76
0
77
0
78
0
281
0
65
1
110
0
120
0
130
0
111
1
121
0
131
0
112
0
122
1
132
0
79
0
146
0
0
ENDTAB
0
TABLE
2
LTYPE
5
111
330
0
100
AcDbSymbolTable
70
8
0
LTYPE
5
112
330
111
100
AcDbSymbolTableRecord
100
AcDbLinetypeTableRecord
2
ByBlock
70
0
3

72
65
73
0
40
0
0
LTYPE
5
113
330
111
100
AcDbSymbolTableRecord
100
AcDbLinetypeTableRecord
2
ByLayer
70
0
3

72
65
73
0
40
0
0
LTYPE
5
114
330
111
100
AcDbSymbolTableRecord
100
AcDbLinetypeTableRecord
2
CONTINUOUS
70
0
3
Solid line
72
65
73
0
40
0
0
LTYPE
5
115
330
111
100
AcDbSymbolTableRecord
100
AcDbLinetypeTableRecord
2
DASHED
70
0
3
Dashed __ __ __
72
65
73
2
40
19.05
49
12.7
74
0
49
-6.35
74
0
0
LTYPE
5
116
330
111
100
AcDbSymbolTableRecord
100
AcDbLinetypeTableRecord
2
HIDDEN
70
0
3
Hidden __ __ __
72
65
73
2
40
9.525
49
6.35
74
0
49
-3.175
74
0
0
LTYPE
5
117
330
111
100
AcDbSymbolTableRecord
100
AcDbLinetypeTableRecord
2
CENTER
70
0
3
Center ____ _ ____ _
72
65
73
4
40
50.8
49
31.75
74
0
49
-6.35
74
0
49
6.35
74
0
49
-6.35
74
0
0
LTYPE
5
118
330
111
100
AcDbSymbolTableRecord
100
AcDbLinetypeTableRecord
2
DASHDOT
70
0
3
Dash dot __ . __ . __
72
65
73
4
40
25.4
49
12.7
74
0
49
-6.35
74
0
49
0
74
0
49
-6.35
74
0
0
LTYPE
5
119
330
111
100
AcDbSymbolTableRecord
100
AcDbLinetypeTableRecord
2
PHANTOM
70
0
3
Phantom ____ _ _ ____
72
65
73
6
40
63.5
49
31.75
74
0
49
-6.35
74
0
49
6.35
74
0
49
-6.35
74
0
49
6.35
74
0
49
-6.35
74
0
0
ENDTAB
0
TABLE
2
LAYER
5
11A
330
0
100
AcDbSymbolTable
70
34
0
LAYER
5
11B
330
11A
100
AcDbSymbolTableRecord
100
AcDbLayerTableRecord
2
0
70
0
62
7
6
CONTINUOUS
370
-3
390
103
0
LAYER
5
11C
330
11A
100
AcDbSymbolTableRecord
100
AcDbLayerTableRecord
2
FRAME
70
0
62
7
6
CONTINUOUS
370
50
390
103
0
LAYER
5
11D
330
11A
100
AcDbSymbolTableRecord
100
AcDbLayerTableRecord
2
TITLE
70
0
62
7
6
CONTINUOUS
370
25
390
103
0
LAYER
5
11E
330
11A
100
AcDbSymbolTableRecord
100
AcDbLayerTableRecord
2
TEXT
70
0
62
7
6
CONTINUOUS
370
-3
390
103
0
LAYER
5
11F
330
11A
100
AcDbSymbolTableRecord
100
AcDbLayerTableRecord
2
TEXT-TITLE
70
0
62
2
6
CONTINUOUS
370
-3
390
103
0
LAYER
5
120
330
11A
100
AcDbSymbolTableRecord
100
AcDbLayerTableRecord
2
NOTES
70
0
62
7
6
CONTINUOUS
370
-3
390
103
0
LAYER
5
121
330
11A
100
AcDbSymbolTableRecord
100
AcDbLayerTableRecord
2
GRID
70
0
62
8
6
CENTER
370
-3
390
103
0
LAYER
5
122
330
11A
100
AcDbSymbolTableRecord
100
AcDbLayerTableRecord
2
GRID-BUBBLE
70
0
62
8
6
CONTINUOUS
370
-3
390
103
0
LAYER
5
123
330
11A
100
AcDbSymbolTableRecord
100
AcDbLayerTableRecord
2
OUTLINE
70
0
62
4
6
CONTINUOUS
370
35
390
103
0
LAYER
5
124
330
11A
100
AcDbSymbolTableRecord
100
AcDbLayerTableRecord
2
COLUMN
70
0
62
5
6
CONTINUOUS
370
35
390
103
0
LAYER
5
125
330
11A
100
AcDbSymbolTableRecord
100
AcDbLayerTableRecord
2
COLUMN-HATCH
70
0
62
8
6
CONTINUOUS
370
-3
390
103
0
LAYER
5
126
330
11A
100
AcDbSymbolTableRecord
100
AcDbLayerTableRecord
2
OPENING
70
0
62
6
6
CONTINUOUS
370
-3
390
103
0
LAYER
5
127
330
11A
100
AcDbSymbolTableRecord
100
AcDbLayerTableRecord
2
OPENING-HATCH
70
0
62
6
6
CONTINUOUS
370
-3
390
103
0
LAYER
5
128
330
11A
100
AcDbSymbolTableRecord
100
AcDbLayerTableRecord
2
VOID
70
0
62
30
6
DASHED
370
-3
390
103
0
LAYER
5
129
330
11A
100
AcDbSymbolTableRecord
100
AcDbLayerTableRecord
2
VOID-HATCH
70
0
62
30
6
CONTINUOUS
370
-3
390
103
0
LAYER
5
12A
330
11A
100
AcDbSymbolTableRecord
100
AcDbLayerTableRecord
2
PT-ZONE
70
0
62
4
6
DASHDOT
370
-3
390
103
0
LAYER
5
12B
330
11A
100
AcDbSymbolTableRecord
100
AcDbLayerTableRecord
2
PT-TENDON
70
0
62
3
6
CONTINUOUS
370
-3
390
103
0
LAYER
5
12C
330
11A
100
AcDbSymbolTableRecord
100
AcDbLayerTableRecord
2
PT-HATCH
70
0
62
4
6
CONTINUOUS
370
-3
390
103
0
LAYER
5
12D
330
11A
100
AcDbSymbolTableRecord
100
AcDbLayerTableRecord
2
REBAR-BOT
70
0
62
1
6
CONTINUOUS
370
50
390
103
0
LAYER
5
12E
330
11A
100
AcDbSymbolTableRecord
100
AcDbLayerTableRecord
2
REBAR-TOP
70
0
62
5
6
CONTINUOUS
370
50
390
103
0
LAYER
5
12F
330
11A
100
AcDbSymbolTableRecord
100
AcDbLayerTableRecord
2
REBAR-U
70
0
62
6
6
CONTINUOUS
370
50
390
103
0
LAYER
5
130
330
11A
100
AcDbSymbolTableRecord
100
AcDbLayerTableRecord
2
REBAR-TRIM
70
0
62
2
6
CONTINUOUS
370
50
390
103
0
LAYER
5
131
330
11A
100
AcDbSymbolTableRecord
100
AcDbLayerTableRecord
2
REBAR-EXTENT
70
0
62
1
6
CONTINUOUS
370
-3
390
103
0
LAYER
5
132
330
11A
100
AcDbSymbolTableRecord
100
AcDbLayerTableRecord
2
REBAR-TEXT
70
0
62
1
6
CONTINUOUS
370
-3
390
103
0
LAYER
5
133
330
11A
100
AcDbSymbolTableRecord
100
AcDbLayerTableRecord
2
CALLOUT
70
0
62
3
6
CONTINUOUS
370
-3
390
103
0
LAYER
5
134
330
11A
100
AcDbSymbolTableRecord
100
AcDbLayerTableRecord
2
DIM
70
0
62
8
6
CONTINUOUS
370
-3
390
103
0
LAYER
5
135
330
11A
100
AcDbSymbolTableRecord
100
AcDbLayerTableRecord
2
DETAIL
70
0
62
7
6
CONTINUOUS
370
-3
390
103
0
LAYER
5
136
330
11A
100
AcDbSymbolTableRecord
100
AcDbLayerTableRecord
2
DETAIL-HATCH
70
0
62
8
6
CONTINUOUS
370
-3
390
103
0
LAYER
5
137
330
11A
100
AcDbSymbolTableRecord
100
AcDbLayerTableRecord
2
SCHEDULE
70
0
62
7
6
CONTINUOUS
370
-3
390
103
0
LAYER
5
138
330
11A
100
AcDbSymbolTableRecord
100
AcDbLayerTableRecord
2
SCHEDULE-TEXT
70
0
62
7
6
CONTINUOUS
370
-3
390
103
0
LAYER
5
139
330
11A
100
AcDbSymbolTableRecord
100
AcDbLayerTableRecord
2
HATCH
70
0
62
8
6
CONTINUOUS
370
-3
390
103
0
LAYER
5
13A
330
11A
100
AcDbSymbolTableRecord
100
AcDbLayerTableRecord
2
CABLE
70
0
62
3
6
CONTINUOUS
370
50
390
103
0
LAYER
5
13B
330
11A
100
AcDbSymbolTableRecord
100
AcDbLayerTableRecord
2
CABLE-TEXT
70
0
62
3
6
CONTINUOUS
370
-3
390
103
0
LAYER
5
13C
330
11A
100
AcDbSymbolTableRecord
100
AcDbLayerTableRecord
2
XREF
70
0
62
7
6
CONTINUOUS
370
-3
390
103
0
ENDTAB
0
TABLE
2
STYLE
5
13D
330
0
100
AcDbSymbolTable
70
1
0
STYLE
5
13E
330
13D
100
AcDbSymbolTableRecord
100
AcDbTextStyleTableRecord
2
STANDARD
70
0
40
0
41
1
50
0
71
0
42
2.5
3
arial.ttf
4

0
ENDTAB
0
TABLE
2
VIEW
5
13F
330
0
100
AcDbSymbolTable
70
0
0
ENDTAB
0
TABLE
2
UCS
5
140
330
0
100
AcDbSymbolTable
70
0
0
ENDTAB
0
TABLE
2
APPID
5
141
330
0
100
AcDbSymbolTable
70
1
0
APPID
5
142
330
141
100
AcDbSymbolTableRecord
100
AcDbRegAppTableRecord
2
ACAD
70
0
0
ENDTAB
0
TABLE
2
DIMSTYLE
5
143
330
0
100
AcDbSymbolTable
70
1
100
AcDbDimStyleTable
0
DIMSTYLE
105
144
330
143
100
AcDbSymbolTableRecord
100
AcDbDimStyleTableRecord
2
STANDARD
70
0
40
1
41
2.5
42
0.625
43
3.75
44
1.25
140
2.5
141
2.5
147
0.625
0
ENDTAB
0
TABLE
2
BLOCK_RECORD
5
107
330
0
100
AcDbSymbolTable
70
3
0
BLOCK_RECORD
5
108
330
107
100
AcDbSymbolTableRecord
100
AcDbBlockTableRecord
2
*Model_Space
340
105
0
BLOCK_RECORD
5
109
330
107
100
AcDbSymbolTableRecord
100
AcDbBlockTableRecord
2
*Paper_Space
340
106
0
BLOCK_RECORD
5
10E
330
107
100
AcDbSymbolTableRecord
100
AcDbBlockTableRecord
2
SHOP_DRAWINGS_COVER_INDEX
340
0
0
ENDTAB
0
ENDSEC
0
SECTION
2
BLOCKS
0
BLOCK
5
10A
330
108
100
AcDbEntity
8
0
100
AcDbBlockBegin
2
*Model_Space
70
0
10
0
20
0
30
0
3
*Model_Space
1

0
ENDBLK
5
10B
330
108
100
AcDbEntity
8
0
100
AcDbBlockEnd
0
BLOCK
5
10C
330
109
100
AcDbEntity
67
1
8
0
100
AcDbBlockBegin
2
*Paper_Space
70
0
10
0
20
0
30
0
3
*Paper_Space
1

0
ENDBLK
5
10D
330
109
100
AcDbEntity
67
1
8
0
100
AcDbBlockEnd
0
BLOCK
5
145
330
10E
100
AcDbEntity
8
0
100
AcDbBlockBegin
2
SHOP_DRAWINGS_COVER_INDEX
70
0
10
0
20
0
30
0
3
SHOP_DRAWINGS_COVER_INDEX
1

0
LWPOLYLINE
5
146
330
10E
100
AcDbEntity
8
FRAME
370
13
100
AcDbPolyline
90
4
70
1
43
0
10
0
20
0
10
84100
20
0
10
84100
20
59400
10
0
20
59400
0
LWPOLYLINE
5
147
330
10E
100
AcDbEntity
8
FRAME
100
AcDbPolyline
90
4
70
1
43
0
10
2000
20
1000
10
83100
20
1000
10
83100
20
58400
10
2000
20
58400
0
LINE
5
148
330
10E
100
AcDbEntity
8
FRAME
100
AcDbLine
10
42050
20
0
30
0
11
42050
21
600
31
0
0
LINE
5
149
330
10E
100
AcDbEntity
8
FRAME
100
AcDbLine
10
42050
20
59400
30
0
11
42050
21
58800
31
0
0
LINE
5
14A
330
10E
100
AcDbEntity
8
FRAME
100
AcDbLine
10
0
20
29700
30
0
11
600
21
29700
31
0
0
LINE
5
14B
330
10E
100
AcDbEntity
8
FRAME
100
AcDbLine
10
84100
20
29700
30
0
11
83500
21
29700
31
0
0
LINE
5
14C
330
10E
100
AcDbEntity
8
FRAME
370
13
100
AcDbLine
10
2000
20
58400
30
0
11
2000
21
59400
31
0
0
LINE
5
14D
330
10E
100
AcDbEntity
8
FRAME
370
13
100
AcDbLine
10
2000
20
0
30
0
11
2000
21
1000
31
0
0
TEXT
5
14E
330
10E
100
AcDbEntity
8
FRAME
100
AcDbText
10
7068.75
20
58900
30
0
40
250
1
1
7
STANDARD
72
1
11
7068.75
21
58900
31
0
100
AcDbText
73
2
0
TEXT
5
14F
330
10E
100
AcDbEntity
8
FRAME
100
AcDbText
10
7068.75
20
500
30
0
40
250
1
1
7
STANDARD
72
1
11
7068.75
21
500
31
0
100
AcDbText
73
2
0
LINE
5
150
330
10E
100
AcDbEntity
8
FRAME
370
13
100
AcDbLine
10
12137.5
20
58400
30
0
11
12137.5
21
59400
31
0
0
LINE
5
151
330
10E
100
AcDbEntity
8
FRAME
370
13
100
AcDbLine
10
12137.5
20
0
30
0
11
12137.5
21
1000
31
0
0
TEXT
5
152
330
10E
100
AcDbEntity
8
FRAME
100
AcDbText
10
17206.25
20
58900
30
0
40
250
1
2
7
STANDARD
72
1
11
17206.25
21
58900
31
0
100
AcDbText
73
2
0
TEXT
5
153
330
10E
100
AcDbEntity
8
FRAME
100
AcDbText
10
17206.25
20
500
30
0
40
250
1
2
7
STANDARD
72
1
11
17206.25
21
500
31
0
100
AcDbText
73
2
0
LINE
5
154
330
10E
100
AcDbEntity
8
FRAME
370
13
100
AcDbLine
10
22275
20
58400
30
0
11
22275
21
59400
31
0
0
LINE
5
155
330
10E
100
AcDbEntity
8
FRAME
370
13
100
AcDbLine
10
22275
20
0
30
0
11
22275
21
1000
31
0
0
TEXT
5
156
330
10E
100
AcDbEntity
8
FRAME
100
AcDbText
10
27343.75
20
58900
30
0
40
250
1
3
7
STANDARD
72
1
11
27343.75
21
58900
31
0
100
AcDbText
73
2
0
TEXT
5
157
330
10E
100
AcDbEntity
8
FRAME
100
AcDbText
10
27343.75
20
500
30
0
40
250
1
3
7
STANDARD
72
1
11
27343.75
21
500
31
0
100
AcDbText
73
2
0
LINE
5
158
330
10E
100
AcDbEntity
8
FRAME
370
13
100
AcDbLine
10
32412.5
20
58400
30
0
11
32412.5
21
59400
31
0
0
LINE
5
159
330
10E
100
AcDbEntity
8
FRAME
370
13
100
AcDbLine
10
32412.5
20
0
30
0
11
32412.5
21
1000
31
0
0
TEXT
5
15A
330
10E
100
AcDbEntity
8
FRAME
100
AcDbText
10
37481.25
20
58900
30
0
40
250
1
4
7
STANDARD
72
1
11
37481.25
21
58900
31
0
100
AcDbText
73
2
0
TEXT
5
15B
330
10E
100
AcDbEntity
8
FRAME
100
AcDbText
10
37481.25
20
500
30
0
40
250
1
4
7
STANDARD
72
1
11
37481.25
21
500
31
0
100
AcDbText
73
2
0
LINE
5
15C
330
10E
100
AcDbEntity
8
FRAME
370
13
100
AcDbLine
10
42550
20
58400
30
0
11
42550
21
59400
31
0
0
LINE
5
15D
330
10E
100
AcDbEntity
8
FRAME
370
13
100
AcDbLine
10
42550
20
0
30
0
11
42550
21
1000
31
0
0
TEXT
5
15E
330
10E
100
AcDbEntity
8
FRAME
100
AcDbText
10
47618.75
20
58900
30
0
40
250
1
5
7
STANDARD
72
1
11
47618.75
21
58900
31
0
100
AcDbText
73
2
0
TEXT
5
15F
330
10E
100
AcDbEntity
8
FRAME
100
AcDbText
10
47618.75
20
500
30
0
40
250
1
5
7
STANDARD
72
1
11
47618.75
21
500
31
0
100
AcDbText
73
2
0
LINE
5
160
330
10E
100
AcDbEntity
8
FRAME
370
13
100
AcDbLine
10
52687.5
20
58400
30
0
11
52687.5
21
59400
31
0
0
LINE
5
161
330
10E
100
AcDbEntity
8
FRAME
370
13
100
AcDbLine
10
52687.5
20
0
30
0
11
52687.5
21
1000
31
0
0
TEXT
5
162
330
10E
100
AcDbEntity
8
FRAME
100
AcDbText
10
57756.25
20
58900
30
0
40
250
1
6
7
STANDARD
72
1
11
57756.25
21
58900
31
0
100
AcDbText
73
2
0
TEXT
5
163
330
10E
100
AcDbEntity
8
FRAME
100
AcDbText
10
57756.25
20
500
30
0
40
250
1
6
7
STANDARD
72
1
11
57756.25
21
500
31
0
100
AcDbText
73
2
0
LINE
5
164
330
10E
100
AcDbEntity
8
FRAME
370
13
100
AcDbLine
10
62825
20
58400
30
0
11
62825
21
59400
31
0
0
LINE
5
165
330
10E
100
AcDbEntity
8
FRAME
370
13
100
AcDbLine
10
62825
20
0
30
0
11
62825
21
1000
31
0
0
TEXT
5
166
330
10E
100
AcDbEntity
8
FRAME
100
AcDbText
10
67893.75
20
58900
30
0
40
250
1
7
7
STANDARD
72
1
11
67893.75
21
58900
31
0
100
AcDbText
73
2
0
TEXT
5
167
330
10E
100
AcDbEntity
8
FRAME
100
AcDbText
10
67893.75
20
500
30
0
40
250
1
7
7
STANDARD
72
1
11
67893.75
21
500
31
0
100
AcDbText
73
2
0
LINE
5
168
330
10E
100
AcDbEntity
8
FRAME
370
13
100
AcDbLine
10
72962.5
20
58400
30
0
11
72962.5
21
59400
31
0
0
LINE
5
169
330
10E
100
AcDbEntity
8
FRAME
370
13
100
AcDbLine
10
72962.5
20
0
30
0
11
72962.5
21
1000
31
0
0
TEXT
5
16A
330
10E
100
AcDbEntity
8
FRAME
100
AcDbText
10
78031.25
20
58900
30
0
40
250
1
8
7
STANDARD
72
1
11
78031.25
21
58900
31
0
100
AcDbText
73
2
0
TEXT
5
16B
330
10E
100
AcDbEntity
8
FRAME
100
AcDbText
10
78031.25
20
500
30
0
40
250
1
8
7
STANDARD
72
1
11
78031.25
21
500
31
0
100
AcDbText
73
2
0
LINE
5
16C
330
10E
100
AcDbEntity
8
FRAME
370
13
100
AcDbLine
10
83100
20
58400
30
0
11
83100
21
59400
31
0
0
LINE
5
16D
330
10E
100
AcDbEntity
8
FRAME
370
13
100
AcDbLine
10
83100
20
0
30
0
11
83100
21
1000
31
0
0
LINE
5
16E
330
10E
100
AcDbEntity
8
FRAME
370
13
100
AcDbLine
10
0
20
1000
30
0
11
2000
21
1000
31
0
0
LINE
5
16F
330
10E
100
AcDbEntity
8
FRAME
370
13
100
AcDbLine
10
83100
20
1000
30
0
11
84100
21
1000
31
0
0
TEXT
5
170
330
10E
100
AcDbEntity
8
FRAME
100
AcDbText
10
1000
20
5783.333333
30
0
40
250
1
F
7
STANDARD
72
1
11
1000
21
5783.333333
31
0
100
AcDbText
73
2
0
TEXT
5
171
330
10E
100
AcDbEntity
8
FRAME
100
AcDbText
10
83600
20
5783.333333
30
0
40
250
1
F
7
STANDARD
72
1
11
83600
21
5783.333333
31
0
100
AcDbText
73
2
0
LINE
5
172
330
10E
100
AcDbEntity
8
FRAME
370
13
100
AcDbLine
10
0
20
10566.666667
30
0
11
2000
21
10566.666667
31
0
0
LINE
5
173
330
10E
100
AcDbEntity
8
FRAME
370
13
100
AcDbLine
10
83100
20
10566.666667
30
0
11
84100
21
10566.666667
31
0
0
TEXT
5
174
330
10E
100
AcDbEntity
8
FRAME
100
AcDbText
10
1000
20
15350
30
0
40
250
1
E
7
STANDARD
72
1
11
1000
21
15350
31
0
100
AcDbText
73
2
0
TEXT
5
175
330
10E
100
AcDbEntity
8
FRAME
100
AcDbText
10
83600
20
15350
30
0
40
250
1
E
7
STANDARD
72
1
11
83600
21
15350
31
0
100
AcDbText
73
2
0
LINE
5
176
330
10E
100
AcDbEntity
8
FRAME
370
13
100
AcDbLine
10
0
20
20133.333333
30
0
11
2000
21
20133.333333
31
0
0
LINE
5
177
330
10E
100
AcDbEntity
8
FRAME
370
13
100
AcDbLine
10
83100
20
20133.333333
30
0
11
84100
21
20133.333333
31
0
0
TEXT
5
178
330
10E
100
AcDbEntity
8
FRAME
100
AcDbText
10
1000
20
24916.666667
30
0
40
250
1
D
7
STANDARD
72
1
11
1000
21
24916.666667
31
0
100
AcDbText
73
2
0
TEXT
5
179
330
10E
100
AcDbEntity
8
FRAME
100
AcDbText
10
83600
20
24916.666667
30
0
40
250
1
D
7
STANDARD
72
1
11
83600
21
24916.666667
31
0
100
AcDbText
73
2
0
LINE
5
17A
330
10E
100
AcDbEntity
8
FRAME
370
13
100
AcDbLine
10
0
20
29700
30
0
11
2000
21
29700
31
0
0
LINE
5
17B
330
10E
100
AcDbEntity
8
FRAME
370
13
100
AcDbLine
10
83100
20
29700
30
0
11
84100
21
29700
31
0
0
TEXT
5
17C
330
10E
100
AcDbEntity
8
FRAME
100
AcDbText
10
1000
20
34483.333333
30
0
40
250
1
C
7
STANDARD
72
1
11
1000
21
34483.333333
31
0
100
AcDbText
73
2
0
TEXT
5
17D
330
10E
100
AcDbEntity
8
FRAME
100
AcDbText
10
83600
20
34483.333333
30
0
40
250
1
C
7
STANDARD
72
1
11
83600
21
34483.333333
31
0
100
AcDbText
73
2
0
LINE
5
17E
330
10E
100
AcDbEntity
8
FRAME
370
13
100
AcDbLine
10
0
20
39266.666667
30
0
11
2000
21
39266.666667
31
0
0
LINE
5
17F
330
10E
100
AcDbEntity
8
FRAME
370
13
100
AcDbLine
10
83100
20
39266.666667
30
0
11
84100
21
39266.666667
31
0
0
TEXT
5
180
330
10E
100
AcDbEntity
8
FRAME
100
AcDbText
10
1000
20
44050
30
0
40
250
1
B
7
STANDARD
72
1
11
1000
21
44050
31
0
100
AcDbText
73
2
0
TEXT
5
181
330
10E
100
AcDbEntity
8
FRAME
100
AcDbText
10
83600
20
44050
30
0
40
250
1
B
7
STANDARD
72
1
11
83600
21
44050
31
0
100
AcDbText
73
2
0
LINE
5
182
330
10E
100
AcDbEntity
8
FRAME
370
13
100
AcDbLine
10
0
20
48833.333333
30
0
11
2000
21
48833.333333
31
0
0
LINE
5
183
330
10E
100
AcDbEntity
8
FRAME
370
13
100
AcDbLine
10
83100
20
48833.333333
30
0
11
84100
21
48833.333333
31
0
0
TEXT
5
184
330
10E
100
AcDbEntity
8
FRAME
100
AcDbText
10
1000
20
53616.666667
30
0
40
250
1
A
7
STANDARD
72
1
11
1000
21
53616.666667
31
0
100
AcDbText
73
2
0
TEXT
5
185
330
10E
100
AcDbEntity
8
FRAME
100
AcDbText
10
83600
20
53616.666667
30
0
40
250
1
A
7
STANDARD
72
1
11
83600
21
53616.666667
31
0
100
AcDbText
73
2
0
LINE
5
186
330
10E
100
AcDbEntity
8
FRAME
370
13
100
AcDbLine
10
0
20
58400
30
0
11
2000
21
58400
31
0
0
LINE
5
187
330
10E
100
AcDbEntity
8
FRAME
370
13
100
AcDbLine
10
83100
20
58400
30
0
11
84100
21
58400
31
0
0
LINE
5
188
330
10E
100
AcDbEntity
8
FRAME
100
AcDbLine
10
64600
20
1000
30
0
11
64600
21
58400
31
0
0
LINE
5
189
330
10E
100
AcDbEntity
8
FRAME
100
AcDbLine
10
2000
20
13500
30
0
11
64600
21
13500
31
0
0
LINE
5
18A
330
10E
100
AcDbEntity
8
FRAME
100
AcDbLine
10
64600
20
13500
30
0
11
83100
21
13500
31
0
0
LINE
5
18B
330
10E
100
AcDbEntity
8
FRAME
100
AcDbLine
10
64600
20
38600
30
0
11
83100
21
38600
31
0
0
TEXT
5
18C
330
10E
100
AcDbEntity
8
TEXT-TITLE
100
AcDbText
10
3000
20
56800
30
0
40
700
1
PROPOSED MIXED-USE BUILDING
7
STANDARD
72
0
100
AcDbText
73
0
0
TEXT
5
18D
330
10E
100
AcDbEntity
8
TEXT-TITLE
100
AcDbText
10
3000
20
55800
30
0
40
400
1
REINFORCEMENT AND PT CABLES SHOP DRAWINGS - DRAWING INDEX
7
STANDARD
72
0
100
AcDbText
73
0
0
TEXT
5
18E
330
10E
100
AcDbEntity
8
TITLE
100
AcDbText
10
3000
20
55000
30
0
40
260
1
SPAN TECH CONTRACTING  \U+00B7  CLIENT: DEMO CLIENT  \U+00B7  RIYADH, KSA  \U+00B7  REV 00  \U+00B7  2026-09-26
7
STANDARD
72
0
100
AcDbText
73
0
0
LWPOLYLINE
5
18F
330
10E
100
AcDbEntity
8
SCHEDULE
100
AcDbPolyline
90
4
70
1
43
0
10
3000
20
53500
10
63100
20
53500
10
63100
20
54200
10
3000
20
54200
0
TEXT
5
190
330
10E
100
AcDbEntity
8
TEXT-TITLE
100
AcDbText
10
33050
20
53850
30
0
40
260
1
DRAWING INDEX / LIST OF SHEETS
7
STANDARD
72
1
11
33050
21
53850
31
0
100
AcDbText
73
2
0
LWPOLYLINE
5
191
330
10E
100
AcDbEntity
8
SCHEDULE
100
AcDbPolyline
90
4
70
1
43
0
10
3000
20
52900
10
63100
20
52900
10
63100
20
53500
10
3000
20
53500
0
TEXT
5
192
330
10E
100
AcDbEntity
8
SCHEDULE-TEXT
100
AcDbText
10
5000
20
53200
30
0
40
190
1
DRAWING No.
7
STANDARD
72
1
11
5000
21
53200
31
0
100
AcDbText
73
2
0
TEXT
5
193
330
10E
100
AcDbEntity
8
SCHEDULE-TEXT
100
AcDbText
10
17250
20
53200
30
0
40
190
1
DRAWING TITLE
7
STANDARD
72
1
11
17250
21
53200
31
0
100
AcDbText
73
2
0
TEXT
5
194
330
10E
100
AcDbEntity
8
SCHEDULE-TEXT
100
AcDbText
10
33000
20
53200
30
0
40
190
1
LEVEL
7
STANDARD
72
1
11
33000
21
53200
31
0
100
AcDbText
73
2
0
TEXT
5
195
330
10E
100
AcDbEntity
8
SCHEDULE-TEXT
100
AcDbText
10
46000
20
53200
30
0
40
190
1
BLOCK / XREF NAME
7
STANDARD
72
1
11
46000
21
53200
31
0
100
AcDbText
73
2
0
TEXT
5
196
330
10E
100
AcDbEntity
8
SCHEDULE-TEXT
100
AcDbText
10
55300
20
53200
30
0
40
190
1
SCALE
7
STANDARD
72
1
11
55300
21
53200
31
0
100
AcDbText
73
2
0
TEXT
5
197
330
10E
100
AcDbEntity
8
SCHEDULE-TEXT
100
AcDbText
10
59100
20
53200
30
0
40
190
1
REBAR (kg)
7
STANDARD
72
1
11
59100
21
53200
31
0
100
AcDbText
73
2
0
TEXT
5
198
330
10E
100
AcDbEntity
8
SCHEDULE-TEXT
100
AcDbText
10
62100
20
53200
30
0
40
190
1
REV
7
STANDARD
72
1
11
62100
21
53200
31
0
100
AcDbText
73
2
0
TEXT
5
199
330
10E
100
AcDbEntity
8
SCHEDULE-TEXT
100
AcDbText
10
5000
20
52650
30
0
40
200
1
ST-SD-L01-01
7
STANDARD
72
1
11
5000
21
52650
31
0
100
AcDbText
73
2
0
TEXT
5
19A
330
10E
100
AcDbEntity
8
SCHEDULE-TEXT
100
AcDbText
10
7100
20
52650
30
0
40
200
1
FRAMING / FORMWORK NOTATION PLAN
7
STANDARD
72
0
11
7100
21
52650
31
0
100
AcDbText
73
2
0
TEXT
5
19B
330
10E
100
AcDbEntity
8
SCHEDULE-TEXT
100
AcDbText
10
27600
20
52650
30
0
40
200
1
L01 - FIRST FLOOR SLAB PLAN
7
STANDARD
72
0
11
27600
21
52650
31
0
100
AcDbText
73
2
0
TEXT
5
19C
330
10E
100
AcDbEntity
8
SCHEDULE-TEXT
100
AcDbText
10
38600
20
52650
30
0
40
200
1
FRAMING_FORMWORK_NOTATION_L01
7
STANDARD
72
0
11
38600
21
52650
31
0
100
AcDbText
73
2
0
TEXT
5
19D
330
10E
100
AcDbEntity
8
SCHEDULE-TEXT
100
AcDbText
10
55300
20
52650
30
0
40
200
1
1:100
7
STANDARD
72
1
11
55300
21
52650
31
0
100
AcDbText
73
2
0
TEXT
5
19E
330
10E
100
AcDbEntity
8
SCHEDULE-TEXT
100
AcDbText
10
59100
20
52650
30
0
40
200
1
-
7
STANDARD
72
1
11
59100
21
52650
31
0
100
AcDbText
73
2
0
TEXT
5
19F
330
10E
100
AcDbEntity
8
SCHEDULE-TEXT
100
AcDbText
10
62100
20
52650
30
0
40
200
1
00
7
STANDARD
72
1
11
62100
21
52650
31
0
100
AcDbText
73
2
0
LINE
5
1A0
330
10E
100
AcDbEntity
8
SCHEDULE
370
5
100
AcDbLine
10
3000
20
52400
30
0
11
63100
21
52400
31
0
0
TEXT
5
1A1
330
10E
100
AcDbEntity
8
SCHEDULE-TEXT
100
AcDbText
10
5000
20
52150
30
0
40
200
1
ST-SD-L01-02
7
STANDARD
72
1
11
5000
21
52150
31
0
100
AcDbText
73
2
0
TEXT
5
1A2
330
10E
100
AcDbEntity
8
SCHEDULE-TEXT
100
AcDbText
10
7100
20
52150
30
0
40
200
1
REBAR - BOTTOM REINFORCEMENT IN PT SLAB
7
STANDARD
72
0
11
7100
21
52150
31
0
100
AcDbText
73
2
0
TEXT
5
1A3
330
10E
100
AcDbEntity
8
SCHEDULE-TEXT
100
AcDbText
10
27600
20
52150
30
0
40
200
1
L01 - FIRST FLOOR SLAB PLAN
7
STANDARD
72
0
11
27600
21
52150
31
0
100
AcDbText
73
2
0
TEXT
5
1A4
330
10E
100
AcDbEntity
8
SCHEDULE-TEXT
100
AcDbText
10
38600
20
52150
30
0
40
200
1
FRAMING_REBAR_SLAB_PT_BOTTOM_L01
7
STANDARD
72
0
11
38600
21
52150
31
0
100
AcDbText
73
2
0
TEXT
5
1A5
330
10E
100
AcDbEntity
8
SCHEDULE-TEXT
100
AcDbText
10
55300
20
52150
30
0
40
200
1
1:100
7
STANDARD
72
1
11
55300
21
52150
31
0
100
AcDbText
73
2
0
TEXT
5
1A6
330
10E
100
AcDbEntity
8
SCHEDULE-TEXT
100
AcDbText
10
59100
20
52150
30
0
40
200
1
7,367
7
STANDARD
72
1
11
59100
21
52150
31
0
100
AcDbText
73
2
0
TEXT
5
1A7
330
10E
100
AcDbEntity
8
SCHEDULE-TEXT
100
AcDbText
10
62100
20
52150
30
0
40
200
1
00
7
STANDARD
72
1
11
62100
21
52150
31
0
100
AcDbText
73
2
0
LINE
5
1A8
330
10E
100
AcDbEntity
8
SCHEDULE
370
5
100
AcDbLine
10
3000
20
51900
30
0
11
63100
21
51900
31
0
0
TEXT
5
1A9
330
10E
100
AcDbEntity
8
SCHEDULE-TEXT
100
AcDbText
10
5000
20
51650
30
0
40
200
1
ST-SD-L01-03
7
STANDARD
72
1
11
5000
21
51650
31
0
100
AcDbText
73
2
0
TEXT
5
1AA
330
10E
100
AcDbEntity
8
SCHEDULE-TEXT
100
AcDbText
10
7100
20
51650
30
0
40
200
1
REBAR - ADDITIONAL TOP BARS OVER COLUMNS
7
STANDARD
72
0
11
7100
21
51650
31
0
100
AcDbText
73
2
0
TEXT
5
1AB
330
10E
100
AcDbEntity
8
SCHEDULE-TEXT
100
AcDbText
10
27600
20
51650
30
0
40
200
1
L01 - FIRST FLOOR SLAB PLAN
7
STANDARD
72
0
11
27600
21
51650
31
0
100
AcDbText
73
2
0
TEXT
5
1AC
330
10E
100
AcDbEntity
8
SCHEDULE-TEXT
100
AcDbText
10
38600
20
51650
30
0
40
200
1
FRAMING_REBAR_ADDITIONAL_AT_COLUMNS_L01
7
STANDARD
72
0
11
38600
21
51650
31
0
100
AcDbText
73
2
0
TEXT
5
1AD
330
10E
100
AcDbEntity
8
SCHEDULE-TEXT
100
AcDbText
10
55300
20
51650
30
0
40
200
1
1:100
7
STANDARD
72
1
11
55300
21
51650
31
0
100
AcDbText
73
2
0
TEXT
5
1AE
330
10E
100
AcDbEntity
8
SCHEDULE-TEXT
100
AcDbText
10
59100
20
51650
30
0
40
200
1
1,825
7
STANDARD
72
1
11
59100
21
51650
31
0
100
AcDbText
73
2
0
TEXT
5
1AF
330
10E
100
AcDbEntity
8
SCHEDULE-TEXT
100
AcDbText
10
62100
20
51650
30
0
40
200
1
00
7
STANDARD
72
1
11
62100
21
51650
31
0
100
AcDbText
73
2
0
LINE
5
1B0
330
10E
100
AcDbEntity
8
SCHEDULE
370
5
100
AcDbLine
10
3000
20
51400
30
0
11
63100
21
51400
31
0
0
TEXT
5
1B1
330
10E
100
AcDbEntity
8
SCHEDULE-TEXT
100
AcDbText
10
5000
20
51150
30
0
40
200
1
ST-SD-L01-04
7
STANDARD
72
1
11
5000
21
51150
31
0
100
AcDbText
73
2
0
TEXT
5
1B2
330
10E
100
AcDbEntity
8
SCHEDULE-TEXT
100
AcDbText
10
7100
20
51150
30
0
40
200
1
REBAR - U-BARS AT SLAB EDGES AND AROUND CIRCULAR REGIONS
7
STANDARD
72
0
11
7100
21
51150
31
0
100
AcDbText
73
2
0
TEXT
5
1B3
330
10E
100
AcDbEntity
8
SCHEDULE-TEXT
100
AcDbText
10
27600
20
51150
30
0
40
200
1
L01 - FIRST FLOOR SLAB PLAN
7
STANDARD
72
0
11
27600
21
51150
31
0
100
AcDbText
73
2
0
TEXT
5
1B4
330
10E
100
AcDbEntity
8
SCHEDULE-TEXT
100
AcDbText
10
38600
20
51150
30
0
40
200
1
FRAMING_REBAR_U_BARS_AROUND_REGIONS_L01
7
STANDARD
72
0
11
38600
21
51150
31
0
100
AcDbText
73
2
0
TEXT
5
1B5
330
10E
100
AcDbEntity
8
SCHEDULE-TEXT
100
AcDbText
10
55300
20
51150
30
0
40
200
1
1:100
7
STANDARD
72
1
11
55300
21
51150
31
0
100
AcDbText
73
2
0
TEXT
5
1B6
330
10E
100
AcDbEntity
8
SCHEDULE-TEXT
100
AcDbText
10
59100
20
51150
30
0
40
200
1
1,905
7
STANDARD
72
1
11
59100
21
51150
31
0
100
AcDbText
73
2
0
TEXT
5
1B7
330
10E
100
AcDbEntity
8
SCHEDULE-TEXT
100
AcDbText
10
62100
20
51150
30
0
40
200
1
00
7
STANDARD
72
1
11
62100
21
51150
31
0
100
AcDbText
73
2
0
LINE
5
1B8
330
10E
100
AcDbEntity
8
SCHEDULE
370
5
100
AcDbLine
10
3000
20
50900
30
0
11
63100
21
50900
31
0
0
TEXT
5
1B9
330
10E
100
AcDbEntity
8
SCHEDULE-TEXT
100
AcDbText
10
5000
20
50650
30
0
40
200
1
ST-SD-L01-05
7
STANDARD
72
1
11
5000
21
50650
31
0
100
AcDbText
73
2
0
TEXT
5
1BA
330
10E
100
AcDbEntity
8
SCHEDULE-TEXT
100
AcDbText
10
7100
20
50650
30
0
40
200
1
REBAR - REINFORCEMENT AROUND VOIDS / ACUARS
7
STANDARD
72
0
11
7100
21
50650
31
0
100
AcDbText
73
2
0
TEXT
5
1BB
330
10E
100
AcDbEntity
8
SCHEDULE-TEXT
100
AcDbText
10
27600
20
50650
30
0
40
200
1
L01 - FIRST FLOOR SLAB PLAN
7
STANDARD
72
0
11
27600
21
50650
31
0
100
AcDbText
73
2
0
TEXT
5
1BC
330
10E
100
AcDbEntity
8
SCHEDULE-TEXT
100
AcDbText
10
38600
20
50650
30
0
40
200
1
FRAMING_REBAR_AROUND_VOIDS_ACUARS_L01
7
STANDARD
72
0
11
38600
21
50650
31
0
100
AcDbText
73
2
0
TEXT
5
1BD
330
10E
100
AcDbEntity
8
SCHEDULE-TEXT
100
AcDbText
10
55300
20
50650
30
0
40
200
1
1:100
7
STANDARD
72
1
11
55300
21
50650
31
0
100
AcDbText
73
2
0
TEXT
5
1BE
330
10E
100
AcDbEntity
8
SCHEDULE-TEXT
100
AcDbText
10
59100
20
50650
30
0
40
200
1
140
7
STANDARD
72
1
11
59100
21
50650
31
0
100
AcDbText
73
2
0
TEXT
5
1BF
330
10E
100
AcDbEntity
8
SCHEDULE-TEXT
100
AcDbText
10
62100
20
50650
30
0
40
200
1
00
7
STANDARD
72
1
11
62100
21
50650
31
0
100
AcDbText
73
2
0
LINE
5
1C0
330
10E
100
AcDbEntity
8
SCHEDULE
370
5
100
AcDbLine
10
3000
20
50400
30
0
11
63100
21
50400
31
0
0
TEXT
5
1C1
330
10E
100
AcDbEntity
8
SCHEDULE-TEXT
100
AcDbText
10
5000
20
50150
30
0
40
200
1
ST-SD-L01-06
7
STANDARD
72
1
11
5000
21
50150
31
0
100
AcDbText
73
2
0
TEXT
5
1C2
330
10E
100
AcDbEntity
8
SCHEDULE-TEXT
100
AcDbText
10
7100
20
50150
30
0
40
200
1
REBAR - REINFORCEMENT AROUND OPENINGS
7
STANDARD
72
0
11
7100
21
50150
31
0
100
AcDbText
73
2
0
TEXT
5
1C3
330
10E
100
AcDbEntity
8
SCHEDULE-TEXT
100
AcDbText
10
27600
20
50150
30
0
40
200
1
L01 - FIRST FLOOR SLAB PLAN
7
STANDARD
72
0
11
27600
21
50150
31
0
100
AcDbText
73
2
0
TEXT
5
1C4
330
10E
100
AcDbEntity
8
SCHEDULE-TEXT
100
AcDbText
10
38600
20
50150
30
0
40
200
1
FRAMING_REBAR_AROUND_OPENINGS_L01
7
STANDARD
72
0
11
38600
21
50150
31
0
100
AcDbText
73
2
0
TEXT
5
1C5
330
10E
100
AcDbEntity
8
SCHEDULE-TEXT
100
AcDbText
10
55300
20
50150
30
0
40
200
1
1:100
7
STANDARD
72
1
11
55300
21
50150
31
0
100
AcDbText
73
2
0
TEXT
5
1C6
330
10E
100
AcDbEntity
8
SCHEDULE-TEXT
100
AcDbText
10
59100
20
50150
30
0
40
200
1
387
7
STANDARD
72
1
11
59100
21
50150
31
0
100
AcDbText
73
2
0
TEXT
5
1C7
330
10E
100
AcDbEntity
8
SCHEDULE-TEXT
100
AcDbText
10
62100
20
50150
30
0
40
200
1
00
7
STANDARD
72
1
11
62100
21
50150
31
0
100
AcDbText
73
2
0
LINE
5
1C8
330
10E
100
AcDbEntity
8
SCHEDULE
370
5
100
AcDbLine
10
3000
20
49900
30
0
11
63100
21
49900
31
0
0
TEXT
5
1C9
330
10E
100
AcDbEntity
8
SCHEDULE-TEXT
100
AcDbText
10
5000
20
49650
30
0
40
200
1
ST-SD-L01-07
7
STANDARD
72
1
11
5000
21
49650
31
0
100
AcDbText
73
2
0
TEXT
5
1CA
330
10E
100
AcDbEntity
8
SCHEDULE-TEXT
100
AcDbText
10
7100
20
49650
30
0
40
200
1
PT CABLES LAYOUT AND SCHEDULE - EMPTY TEMPLATE
7
STANDARD
72
0
11
7100
21
49650
31
0
100
AcDbText
73
2
0
TEXT
5
1CB
330
10E
100
AcDbEntity
8
SCHEDULE-TEXT
100
AcDbText
10
27600
20
49650
30
0
40
200
1
L01 - FIRST FLOOR SLAB PLAN
7
STANDARD
72
0
11
27600
21
49650
31
0
100
AcDbText
73
2
0
TEXT
5
1CC
330
10E
100
AcDbEntity
8
SCHEDULE-TEXT
100
AcDbText
10
38600
20
49650
30
0
40
200
1
CABLES_SCHEDULE_EMPTY_TEMPLATE_L01
7
STANDARD
72
0
11
38600
21
49650
31
0
100
AcDbText
73
2
0
TEXT
5
1CD
330
10E
100
AcDbEntity
8
SCHEDULE-TEXT
100
AcDbText
10
55300
20
49650
30
0
40
200
1
1:100
7
STANDARD
72
1
11
55300
21
49650
31
0
100
AcDbText
73
2
0
TEXT
5
1CE
330
10E
100
AcDbEntity
8
SCHEDULE-TEXT
100
AcDbText
10
59100
20
49650
30
0
40
200
1
-
7
STANDARD
72
1
11
59100
21
49650
31
0
100
AcDbText
73
2
0
TEXT
5
1CF
330
10E
100
AcDbEntity
8
SCHEDULE-TEXT
100
AcDbText
10
62100
20
49650
30
0
40
200
1
00
7
STANDARD
72
1
11
62100
21
49650
31
0
100
AcDbText
73
2
0
LINE
5
1D0
330
10E
100
AcDbEntity
8
SCHEDULE
370
5
100
AcDbLine
10
3000
20
49400
30
0
11
63100
21
49400
31
0
0
TEXT
5
1D1
330
10E
100
AcDbEntity
8
SCHEDULE-TEXT
100
AcDbText
10
5000
20
49150
30
0
40
200
1
ST-SD-L02-01
7
STANDARD
72
1
11
5000
21
49150
31
0
100
AcDbText
73
2
0
TEXT
5
1D2
330
10E
100
AcDbEntity
8
SCHEDULE-TEXT
100
AcDbText
10
7100
20
49150
30
0
40
200
1
FRAMING / FORMWORK NOTATION PLAN
7
STANDARD
72
0
11
7100
21
49150
31
0
100
AcDbText
73
2
0
TEXT
5
1D3
330
10E
100
AcDbEntity
8
SCHEDULE-TEXT
100
AcDbText
10
27600
20
49150
30
0
40
200
1
L02 - ROOF SLAB PLAN
7
STANDARD
72
0
11
27600
21
49150
31
0
100
AcDbText
73
2
0
TEXT
5
1D4
330
10E
100
AcDbEntity
8
SCHEDULE-TEXT
100
AcDbText
10
38600
20
49150
30
0
40
200
1
FRAMING_FORMWORK_NOTATION_L02
7
STANDARD
72
0
11
38600
21
49150
31
0
100
AcDbText
73
2
0
TEXT
5
1D5
330
10E
100
AcDbEntity
8
SCHEDULE-TEXT
100
AcDbText
10
55300
20
49150
30
0
40
200
1
1:100
7
STANDARD
72
1
11
55300
21
49150
31
0
100
AcDbText
73
2
0
TEXT
5
1D6
330
10E
100
AcDbEntity
8
SCHEDULE-TEXT
100
AcDbText
10
59100
20
49150
30
0
40
200
1
-
7
STANDARD
72
1
11
59100
21
49150
31
0
100
AcDbText
73
2
0
TEXT
5
1D7
330
10E
100
AcDbEntity
8
SCHEDULE-TEXT
100
AcDbText
10
62100
20
49150
30
0
40
200
1
00
7
STANDARD
72
1
11
62100
21
49150
31
0
100
AcDbText
73
2
0
LINE
5
1D8
330
10E
100
AcDbEntity
8
SCHEDULE
370
5
100
AcDbLine
10
3000
20
48900
30
0
11
63100
21
48900
31
0
0
TEXT
5
1D9
330
10E
100
AcDbEntity
8
SCHEDULE-TEXT
100
AcDbText
10
5000
20
48650
30
0
40
200
1
ST-SD-L02-02
7
STANDARD
72
1
11
5000
21
48650
31
0
100
AcDbText
73
2
0
TEXT
5
1DA
330
10E
100
AcDbEntity
8
SCHEDULE-TEXT
100
AcDbText
10
7100
20
48650
30
0
40
200
1
REBAR - BOTTOM REINFORCEMENT IN PT SLAB
7
STANDARD
72
0
11
7100
21
48650
31
0
100
AcDbText
73
2
0
TEXT
5
1DB
330
10E
100
AcDbEntity
8
SCHEDULE-TEXT
100
AcDbText
10
27600
20
48650
30
0
40
200
1
L02 - ROOF SLAB PLAN
7
STANDARD
72
0
11
27600
21
48650
31
0
100
AcDbText
73
2
0
TEXT
5
1DC
330
10E
100
AcDbEntity
8
SCHEDULE-TEXT
100
AcDbText
10
38600
20
48650
30
0
40
200
1
FRAMING_REBAR_SLAB_PT_BOTTOM_L02
7
STANDARD
72
0
11
38600
21
48650
31
0
100
AcDbText
73
2
0
TEXT
5
1DD
330
10E
100
AcDbEntity
8
SCHEDULE-TEXT
100
AcDbText
10
55300
20
48650
30
0
40
200
1
1:100
7
STANDARD
72
1
11
55300
21
48650
31
0
100
AcDbText
73
2
0
TEXT
5
1DE
330
10E
100
AcDbEntity
8
SCHEDULE-TEXT
100
AcDbText
10
59100
20
48650
30
0
40
200
1
7,560
7
STANDARD
72
1
11
59100
21
48650
31
0
100
AcDbText
73
2
0
TEXT
5
1DF
330
10E
100
AcDbEntity
8
SCHEDULE-TEXT
100
AcDbText
10
62100
20
48650
30
0
40
200
1
00
7
STANDARD
72
1
11
62100
21
48650
31
0
100
AcDbText
73
2
0
LINE
5
1E0
330
10E
100
AcDbEntity
8
SCHEDULE
370
5
100
AcDbLine
10
3000
20
48400
30
0
11
63100
21
48400
31
0
0
TEXT
5
1E1
330
10E
100
AcDbEntity
8
SCHEDULE-TEXT
100
AcDbText
10
5000
20
48150
30
0
40
200
1
ST-SD-L02-03
7
STANDARD
72
1
11
5000
21
48150
31
0
100
AcDbText
73
2
0
TEXT
5
1E2
330
10E
100
AcDbEntity
8
SCHEDULE-TEXT
100
AcDbText
10
7100
20
48150
30
0
40
200
1
REBAR - ADDITIONAL TOP BARS OVER COLUMNS
7
STANDARD
72
0
11
7100
21
48150
31
0
100
AcDbText
73
2
0
TEXT
5
1E3
330
10E
100
AcDbEntity
8
SCHEDULE-TEXT
100
AcDbText
10
27600
20
48150
30
0
40
200
1
L02 - ROOF SLAB PLAN
7
STANDARD
72
0
11
27600
21
48150
31
0
100
AcDbText
73
2
0
TEXT
5
1E4
330
10E
100
AcDbEntity
8
SCHEDULE-TEXT
100
AcDbText
10
38600
20
48150
30
0
40
200
1
FRAMING_REBAR_ADDITIONAL_AT_COLUMNS_L02
7
STANDARD
72
0
11
38600
21
48150
31
0
100
AcDbText
73
2
0
TEXT
5
1E5
330
10E
100
AcDbEntity
8
SCHEDULE-TEXT
100
AcDbText
10
55300
20
48150
30
0
40
200
1
1:100
7
STANDARD
72
1
11
55300
21
48150
31
0
100
AcDbText
73
2
0
TEXT
5
1E6
330
10E
100
AcDbEntity
8
SCHEDULE-TEXT
100
AcDbText
10
59100
20
48150
30
0
40
200
1
1,650
7
STANDARD
72
1
11
59100
21
48150
31
0
100
AcDbText
73
2
0
TEXT
5
1E7
330
10E
100
AcDbEntity
8
SCHEDULE-TEXT
100
AcDbText
10
62100
20
48150
30
0
40
200
1
00
7
STANDARD
72
1
11
62100
21
48150
31
0
100
AcDbText
73
2
0
LINE
5
1E8
330
10E
100
AcDbEntity
8
SCHEDULE
370
5
100
AcDbLine
10
3000
20
47900
30
0
11
63100
21
47900
31
0
0
TEXT
5
1E9
330
10E
100
AcDbEntity
8
SCHEDULE-TEXT
100
AcDbText
10
5000
20
47650
30
0
40
200
1
ST-SD-L02-04
7
STANDARD
72
1
11
5000
21
47650
31
0
100
AcDbText
73
2
0
TEXT
5
1EA
330
10E
100
AcDbEntity
8
SCHEDULE-TEXT
100
AcDbText
10
7100
20
47650
30
0
40
200
1
REBAR - U-BARS AT SLAB EDGES AND AROUND CIRCULAR REGIONS
7
STANDARD
72
0
11
7100
21
47650
31
0
100
AcDbText
73
2
0
TEXT
5
1EB
330
10E
100
AcDbEntity
8
SCHEDULE-TEXT
100
AcDbText
10
27600
20
47650
30
0
40
200
1
L02 - ROOF SLAB PLAN
7
STANDARD
72
0
11
27600
21
47650
31
0
100
AcDbText
73
2
0
TEXT
5
1EC
330
10E
100
AcDbEntity
8
SCHEDULE-TEXT
100
AcDbText
10
38600
20
47650
30
0
40
200
1
FRAMING_REBAR_U_BARS_AROUND_REGIONS_L02
7
STANDARD
72
0
11
38600
21
47650
31
0
100
AcDbText
73
2
0
TEXT
5
1ED
330
10E
100
AcDbEntity
8
SCHEDULE-TEXT
100
AcDbText
10
55300
20
47650
30
0
40
200
1
1:100
7
STANDARD
72
1
11
55300
21
47650
31
0
100
AcDbText
73
2
0
TEXT
5
1EE
330
10E
100
AcDbEntity
8
SCHEDULE-TEXT
100
AcDbText
10
59100
20
47650
30
0
40
200
1
2,028
7
STANDARD
72
1
11
59100
21
47650
31
0
100
AcDbText
73
2
0
TEXT
5
1EF
330
10E
100
AcDbEntity
8
SCHEDULE-TEXT
100
AcDbText
10
62100
20
47650
30
0
40
200
1
00
7
STANDARD
72
1
11
62100
21
47650
31
0
100
AcDbText
73
2
0
LINE
5
1F0
330
10E
100
AcDbEntity
8
SCHEDULE
370
5
100
AcDbLine
10
3000
20
47400
30
0
11
63100
21
47400
31
0
0
TEXT
5
1F1
330
10E
100
AcDbEntity
8
SCHEDULE-TEXT
100
AcDbText
10
5000
20
47150
30
0
40
200
1
ST-SD-L02-05
7
STANDARD
72
1
11
5000
21
47150
31
0
100
AcDbText
73
2
0
TEXT
5
1F2
330
10E
100
AcDbEntity
8
SCHEDULE-TEXT
100
AcDbText
10
7100
20
47150
30
0
40
200
1
REBAR - REINFORCEMENT AROUND VOIDS / ACUARS
7
STANDARD
72
0
11
7100
21
47150
31
0
100
AcDbText
73
2
0
TEXT
5
1F3
330
10E
100
AcDbEntity
8
SCHEDULE-TEXT
100
AcDbText
10
27600
20
47150
30
0
40
200
1
L02 - ROOF SLAB PLAN
7
STANDARD
72
0
11
27600
21
47150
31
0
100
AcDbText
73
2
0
TEXT
5
1F4
330
10E
100
AcDbEntity
8
SCHEDULE-TEXT
100
AcDbText
10
38600
20
47150
30
0
40
200
1
FRAMING_REBAR_AROUND_VOIDS_ACUARS_L02
7
STANDARD
72
0
11
38600
21
47150
31
0
100
AcDbText
73
2
0
TEXT
5
1F5
330
10E
100
AcDbEntity
8
SCHEDULE-TEXT
100
AcDbText
10
55300
20
47150
30
0
40
200
1
1:100
7
STANDARD
72
1
11
55300
21
47150
31
0
100
AcDbText
73
2
0
TEXT
5
1F6
330
10E
100
AcDbEntity
8
SCHEDULE-TEXT
100
AcDbText
10
59100
20
47150
30
0
40
200
1
65
7
STANDARD
72
1
11
59100
21
47150
31
0
100
AcDbText
73
2
0
TEXT
5
1F7
330
10E
100
AcDbEntity
8
SCHEDULE-TEXT
100
AcDbText
10
62100
20
47150
30
0
40
200
1
00
7
STANDARD
72
1
11
62100
21
47150
31
0
100
AcDbText
73
2
0
LINE
5
1F8
330
10E
100
AcDbEntity
8
SCHEDULE
370
5
100
AcDbLine
10
3000
20
46900
30
0
11
63100
21
46900
31
0
0
TEXT
5
1F9
330
10E
100
AcDbEntity
8
SCHEDULE-TEXT
100
AcDbText
10
5000
20
46650
30
0
40
200
1
ST-SD-L02-06
7
STANDARD
72
1
11
5000
21
46650
31
0
100
AcDbText
73
2
0
TEXT
5
1FA
330
10E
100
AcDbEntity
8
SCHEDULE-TEXT
100
AcDbText
10
7100
20
46650
30
0
40
200
1
REBAR - REINFORCEMENT AROUND OPENINGS
7
STANDARD
72
0
11
7100
21
46650
31
0
100
AcDbText
73
2
0
TEXT
5
1FB
330
10E
100
AcDbEntity
8
SCHEDULE-TEXT
100
AcDbText
10
27600
20
46650
30
0
40
200
1
L02 - ROOF SLAB PLAN
7
STANDARD
72
0
11
27600
21
46650
31
0
100
AcDbText
73
2
0
TEXT
5
1FC
330
10E
100
AcDbEntity
8
SCHEDULE-TEXT
100
AcDbText
10
38600
20
46650
30
0
40
200
1
FRAMING_REBAR_AROUND_OPENINGS_L02
7
STANDARD
72
0
11
38600
21
46650
31
0
100
AcDbText
73
2
0
TEXT
5
1FD
330
10E
100
AcDbEntity
8
SCHEDULE-TEXT
100
AcDbText
10
55300
20
46650
30
0
40
200
1
1:100
7
STANDARD
72
1
11
55300
21
46650
31
0
100
AcDbText
73
2
0
TEXT
5
1FE
330
10E
100
AcDbEntity
8
SCHEDULE-TEXT
100
AcDbText
10
59100
20
46650
30
0
40
200
1
426
7
STANDARD
72
1
11
59100
21
46650
31
0
100
AcDbText
73
2
0
TEXT
5
1FF
330
10E
100
AcDbEntity
8
SCHEDULE-TEXT
100
AcDbText
10
62100
20
46650
30
0
40
200
1
00
7
STANDARD
72
1
11
62100
21
46650
31
0
100
AcDbText
73
2
0
LINE
5
200
330
10E
100
AcDbEntity
8
SCHEDULE
370
5
100
AcDbLine
10
3000
20
46400
30
0
11
63100
21
46400
31
0
0
TEXT
5
201
330
10E
100
AcDbEntity
8
SCHEDULE-TEXT
100
AcDbText
10
5000
20
46150
30
0
40
200
1
ST-SD-L02-07
7
STANDARD
72
1
11
5000
21
46150
31
0
100
AcDbText
73
2
0
TEXT
5
202
330
10E
100
AcDbEntity
8
SCHEDULE-TEXT
100
AcDbText
10
7100
20
46150
30
0
40
200
1
PT CABLES LAYOUT AND SCHEDULE - EMPTY TEMPLATE
7
STANDARD
72
0
11
7100
21
46150
31
0
100
AcDbText
73
2
0
TEXT
5
203
330
10E
100
AcDbEntity
8
SCHEDULE-TEXT
100
AcDbText
10
27600
20
46150
30
0
40
200
1
L02 - ROOF SLAB PLAN
7
STANDARD
72
0
11
27600
21
46150
31
0
100
AcDbText
73
2
0
TEXT
5
204
330
10E
100
AcDbEntity
8
SCHEDULE-TEXT
100
AcDbText
10
38600
20
46150
30
0
40
200
1
CABLES_SCHEDULE_EMPTY_TEMPLATE_L02
7
STANDARD
72
0
11
38600
21
46150
31
0
100
AcDbText
73
2
0
TEXT
5
205
330
10E
100
AcDbEntity
8
SCHEDULE-TEXT
100
AcDbText
10
55300
20
46150
30
0
40
200
1
1:100
7
STANDARD
72
1
11
55300
21
46150
31
0
100
AcDbText
73
2
0
TEXT
5
206
330
10E
100
AcDbEntity
8
SCHEDULE-TEXT
100
AcDbText
10
59100
20
46150
30
0
40
200
1
-
7
STANDARD
72
1
11
59100
21
46150
31
0
100
AcDbText
73
2
0
TEXT
5
207
330
10E
100
AcDbEntity
8
SCHEDULE-TEXT
100
AcDbText
10
62100
20
46150
30
0
40
200
1
00
7
STANDARD
72
1
11
62100
21
46150
31
0
100
AcDbText
73
2
0
LINE
5
208
330
10E
100
AcDbEntity
8
SCHEDULE
370
5
100
AcDbLine
10
3000
20
45900
30
0
11
63100
21
45900
31
0
0
LWPOLYLINE
5
209
330
10E
100
AcDbEntity
8
SCHEDULE
100
AcDbPolyline
90
4
70
1
43
0
10
3000
20
45350
10
63100
20
45350
10
63100
20
45900
10
3000
20
45900
0
TEXT
5
20A
330
10E
100
AcDbEntity
8
SCHEDULE-TEXT
100
AcDbText
10
3200
20
45625
30
0
40
200
1
TOTAL SCHEDULED REINFORCEMENT (ALL LEVELS) 23,352 kg
7
STANDARD
72
0
11
3200
21
45625
31
0
100
AcDbText
73
2
0
LINE
5
20B
330
10E
100
AcDbEntity
8
SCHEDULE
100
AcDbLine
10
3000
20
53500
30
0
11
3000
21
45350
31
0
0
LINE
5
20C
330
10E
100
AcDbEntity
8
SCHEDULE
100
AcDbLine
10
7000
20
53500
30
0
11
7000
21
45350
31
0
0
LINE
5
20D
330
10E
100
AcDbEntity
8
SCHEDULE
100
AcDbLine
10
27500
20
53500
30
0
11
27500
21
45350
31
0
0
LINE
5
20E
330
10E
100
AcDbEntity
8
SCHEDULE
100
AcDbLine
10
38500
20
53500
30
0
11
38500
21
45350
31
0
0
LINE
5
20F
330
10E
100
AcDbEntity
8
SCHEDULE
100
AcDbLine
10
53500
20
53500
30
0
11
53500
21
45350
31
0
0
LINE
5
210
330
10E
100
AcDbEntity
8
SCHEDULE
100
AcDbLine
10
57100
20
53500
30
0
11
57100
21
45350
31
0
0
LINE
5
211
330
10E
100
AcDbEntity
8
SCHEDULE
100
AcDbLine
10
61100
20
53500
30
0
11
61100
21
45350
31
0
0
LINE
5
212
330
10E
100
AcDbEntity
8
SCHEDULE
100
AcDbLine
10
63100
20
53500
30
0
11
63100
21
45350
31
0
0
LINE
5
213
330
10E
100
AcDbEntity
8
SCHEDULE
100
AcDbLine
10
3000
20
45350
30
0
11
63100
21
45350
31
0
0
LWPOLYLINE
5
214
330
10E
100
AcDbEntity
8
FRAME
100
AcDbPolyline
90
4
70
1
43
0
10
2000
20
1000
10
22866.666667
20
1000
10
22866.666667
20
13500
10
2000
20
13500
0
LINE
5
215
330
10E
100
AcDbEntity
8
FRAME
100
AcDbLine
10
2000
20
12700
30
0
11
22866.666667
21
12700
31
0
0
CIRCLE
5
216
330
10E
100
AcDbEntity
8
CALLOUT
100
AcDbCircle
10
2700
20
13100
30
0
40
300
0
TEXT
5
217
330
10E
100
AcDbEntity
8
CALLOUT
100
AcDbText
10
2700
20
13100
30
0
40
220
1
1
7
STANDARD
72
1
11
2700
21
13100
31
0
100
AcDbText
73
2
0
TEXT
5
218
330
10E
100
AcDbEntity
8
TEXT-TITLE
100
AcDbText
10
3200
20
13100
30
0
40
240
1
LEVELS READ FROM THE STRUCTURAL DRAWINGS
7
STANDARD
72
0
11
3200
21
13100
31
0
100
AcDbText
73
2
0
TEXT
5
219
330
10E
100
AcDbEntity
8
TITLE
100
AcDbText
10
22666.666667
20
13100
30
0
40
180
1

7
STANDARD
72
2
11
22666.666667
21
13100
31
0
100
AcDbText
73
2
0
LWPOLYLINE
5
21A
330
10E
100
AcDbEntity
8
SCHEDULE
100
AcDbPolyline
90
4
70
1
43
0
10
2300
20
12000
10
22566.666667
20
12000
10
22566.666667
20
12500
10
2300
20
12500
0
TEXT
5
21B
330
10E
100
AcDbEntity
8
SCHEDULE-TEXT
100
AcDbText
10
3000
20
12250
30
0
40
150
1
ID
7
STANDARD
72
1
11
3000
21
12250
31
0
100
AcDbText
73
2
0
TEXT
5
21C
330
10E
100
AcDbEntity
8
SCHEDULE-TEXT
100
AcDbText
10
7200
20
12250
30
0
40
150
1
LEVEL
7
STANDARD
72
1
11
7200
21
12250
31
0
100
AcDbText
73
2
0
TEXT
5
21D
330
10E
100
AcDbEntity
8
SCHEDULE-TEXT
100
AcDbText
10
11500
20
12250
30
0
40
150
1
THK
7
STANDARD
72
1
11
11500
21
12250
31
0
100
AcDbText
73
2
0
TEXT
5
21E
330
10E
100
AcDbEntity
8
SCHEDULE-TEXT
100
AcDbText
10
13100
20
12250
30
0
40
150
1
COLS
7
STANDARD
72
1
11
13100
21
12250
31
0
100
AcDbText
73
2
0
TEXT
5
21F
330
10E
100
AcDbEntity
8
SCHEDULE-TEXT
100
AcDbText
10
14700
20
12250
30
0
40
150
1
OPEN.
7
STANDARD
72
1
11
14700
21
12250
31
0
100
AcDbText
73
2
0
TEXT
5
220
330
10E
100
AcDbEntity
8
SCHEDULE-TEXT
100
AcDbText
10
16300
20
12250
30
0
40
150
1
VOIDS
7
STANDARD
72
1
11
16300
21
12250
31
0
100
AcDbText
73
2
0
TEXT
5
221
330
10E
100
AcDbEntity
8
SCHEDULE-TEXT
100
AcDbText
10
17900
20
12250
30
0
40
150
1
U-REG.
7
STANDARD
72
1
11
17900
21
12250
31
0
100
AcDbText
73
2
0
TEXT
5
222
330
10E
100
AcDbEntity
8
SCHEDULE-TEXT
100
AcDbText
10
20633.333333
20
12250
30
0
40
150
1
AREA m\U+00B2
7
STANDARD
72
1
11
20633.333333
21
12250
31
0
100
AcDbText
73
2
0
TEXT
5
223
330
10E
100
AcDbEntity
8
SCHEDULE-TEXT
100
AcDbText
10
3000
20
11800
30
0
40
160
1
L01
7
STANDARD
72
1
11
3000
21
11800
31
0
100
AcDbText
73
2
0
TEXT
5
224
330
10E
100
AcDbEntity
8
SCHEDULE-TEXT
100
AcDbText
10
3800
20
11800
30
0
40
160
1
FIRST FLOOR SLAB PLAN
7
STANDARD
72
0
11
3800
21
11800
31
0
100
AcDbText
73
2
0
TEXT
5
225
330
10E
100
AcDbEntity
8
SCHEDULE-TEXT
100
AcDbText
10
11500
20
11800
30
0
40
160
1
250
7
STANDARD
72
1
11
11500
21
11800
31
0
100
AcDbText
73
2
0
TEXT
5
226
330
10E
100
AcDbEntity
8
SCHEDULE-TEXT
100
AcDbText
10
13100
20
11800
30
0
40
160
1
19
7
STANDARD
72
1
11
13100
21
11800
31
0
100
AcDbText
73
2
0
TEXT
5
227
330
10E
100
AcDbEntity
8
SCHEDULE-TEXT
100
AcDbText
10
14700
20
11800
30
0
40
160
1
2
7
STANDARD
72
1
11
14700
21
11800
31
0
100
AcDbText
73
2
0
TEXT
5
228
330
10E
100
AcDbEntity
8
SCHEDULE-TEXT
100
AcDbText
10
16300
20
11800
30
0
40
160
1
2
7
STANDARD
72
1
11
16300
21
11800
31
0
100
AcDbText
73
2
0
TEXT
5
229
330
10E
100
AcDbEntity
8
SCHEDULE-TEXT
100
AcDbText
10
17900
20
11800
30
0
40
160
1
1
7
STANDARD
72
1
11
17900
21
11800
31
0
100
AcDbText
73
2
0
TEXT
5
22A
330
10E
100
AcDbEntity
8
SCHEDULE-TEXT
100
AcDbText
10
20633.333333
20
11800
30
0
40
160
1
820
7
STANDARD
72
1
11
20633.333333
21
11800
31
0
100
AcDbText
73
2
0
LINE
5
22B
330
10E
100
AcDbEntity
8
SCHEDULE
370
5
100
AcDbLine
10
2300
20
11600
30
0
11
22566.666667
21
11600
31
0
0
TEXT
5
22C
330
10E
100
AcDbEntity
8
SCHEDULE-TEXT
100
AcDbText
10
3000
20
11400
30
0
40
160
1
L02
7
STANDARD
72
1
11
3000
21
11400
31
0
100
AcDbText
73
2
0
TEXT
5
22D
330
10E
100
AcDbEntity
8
SCHEDULE-TEXT
100
AcDbText
10
3800
20
11400
30
0
40
160
1
ROOF SLAB PLAN
7
STANDARD
72
0
11
3800
21
11400
31
0
100
AcDbText
73
2
0
TEXT
5
22E
330
10E
100
AcDbEntity
8
SCHEDULE-TEXT
100
AcDbText
10
11500
20
11400
30
0
40
160
1
220
7
STANDARD
72
1
11
11500
21
11400
31
0
100
AcDbText
73
2
0
TEXT
5
22F
330
10E
100
AcDbEntity
8
SCHEDULE-TEXT
100
AcDbText
10
13100
20
11400
30
0
40
160
1
20
7
STANDARD
72
1
11
13100
21
11400
31
0
100
AcDbText
73
2
0
TEXT
5
230
330
10E
100
AcDbEntity
8
SCHEDULE-TEXT
100
AcDbText
10
14700
20
11400
30
0
40
160
1
2
7
STANDARD
72
1
11
14700
21
11400
31
0
100
AcDbText
73
2
0
TEXT
5
231
330
10E
100
AcDbEntity
8
SCHEDULE-TEXT
100
AcDbText
10
16300
20
11400
30
0
40
160
1
1
7
STANDARD
72
1
11
16300
21
11400
31
0
100
AcDbText
73
2
0
TEXT
5
232
330
10E
100
AcDbEntity
8
SCHEDULE-TEXT
100
AcDbText
10
17900
20
11400
30
0
40
160
1
2
7
STANDARD
72
1
11
17900
21
11400
31
0
100
AcDbText
73
2
0
TEXT
5
233
330
10E
100
AcDbEntity
8
SCHEDULE-TEXT
100
AcDbText
10
20633.333333
20
11400
30
0
40
160
1
845
7
STANDARD
72
1
11
20633.333333
21
11400
31
0
100
AcDbText
73
2
0
LINE
5
234
330
10E
100
AcDbEntity
8
SCHEDULE
370
5
100
AcDbLine
10
2300
20
11200
30
0
11
22566.666667
21
11200
31
0
0
LINE
5
235
330
10E
100
AcDbEntity
8
SCHEDULE
100
AcDbLine
10
2300
20
12500
30
0
11
2300
21
11200
31
0
0
LINE
5
236
330
10E
100
AcDbEntity
8
SCHEDULE
100
AcDbLine
10
3700
20
12500
30
0
11
3700
21
11200
31
0
0
LINE
5
237
330
10E
100
AcDbEntity
8
SCHEDULE
100
AcDbLine
10
10700
20
12500
30
0
11
10700
21
11200
31
0
0
LINE
5
238
330
10E
100
AcDbEntity
8
SCHEDULE
100
AcDbLine
10
12300
20
12500
30
0
11
12300
21
11200
31
0
0
LINE
5
239
330
10E
100
AcDbEntity
8
SCHEDULE
100
AcDbLine
10
13900
20
12500
30
0
11
13900
21
11200
31
0
0
LINE
5
23A
330
10E
100
AcDbEntity
8
SCHEDULE
100
AcDbLine
10
15500
20
12500
30
0
11
15500
21
11200
31
0
0
LINE
5
23B
330
10E
100
AcDbEntity
8
SCHEDULE
100
AcDbLine
10
17100
20
12500
30
0
11
17100
21
11200
31
0
0
LINE
5
23C
330
10E
100
AcDbEntity
8
SCHEDULE
100
AcDbLine
10
18700
20
12500
30
0
11
18700
21
11200
31
0
0
LINE
5
23D
330
10E
100
AcDbEntity
8
SCHEDULE
100
AcDbLine
10
22566.666667
20
12500
30
0
11
22566.666667
21
11200
31
0
0
LINE
5
23E
330
10E
100
AcDbEntity
8
SCHEDULE
100
AcDbLine
10
2300
20
11200
30
0
11
22566.666667
21
11200
31
0
0
LWPOLYLINE
5
23F
330
10E
100
AcDbEntity
8
FRAME
100
AcDbPolyline
90
4
70
1
43
0
10
22866.666667
20
1000
10
43733.333333
20
1000
10
43733.333333
20
13500
10
22866.666667
20
13500
0
LINE
5
240
330
10E
100
AcDbEntity
8
FRAME
100
AcDbLine
10
22866.666667
20
12700
30
0
11
43733.333333
21
12700
31
0
0
CIRCLE
5
241
330
10E
100
AcDbEntity
8
CALLOUT
100
AcDbCircle
10
23566.666667
20
13100
30
0
40
300
0
TEXT
5
242
330
10E
100
AcDbEntity
8
CALLOUT
100
AcDbText
10
23566.666667
20
13100
30
0
40
220
1
2
7
STANDARD
72
1
11
23566.666667
21
13100
31
0
100
AcDbText
73
2
0
TEXT
5
243
330
10E
100
AcDbEntity
8
TEXT-TITLE
100
AcDbText
10
24066.666667
20
13100
30
0
40
240
1
DEVELOPMENT / LAP LENGTHS APPLIED (mm)
7
STANDARD
72
0
11
24066.666667
21
13100
31
0
100
AcDbText
73
2
0
TEXT
5
244
330
10E
100
AcDbEntity
8
TITLE
100
AcDbText
10
43533.333333
20
13100
30
0
40
180
1

7
STANDARD
72
2
11
43533.333333
21
13100
31
0
100
AcDbText
73
2
0
LWPOLYLINE
5
245
330
10E
100
AcDbEntity
8
SCHEDULE
100
AcDbPolyline
90
4
70
1
43
0
10
23166.666667
20
12000
10
43433.333333
20
12000
10
43433.333333
20
12500
10
23166.666667
20
12500
0
TEXT
5
246
330
10E
100
AcDbEntity
8
SCHEDULE-TEXT
100
AcDbText
10
23966.666667
20
12250
30
0
40
150
1
\U+00D8
7
STANDARD
72
1
11
23966.666667
21
12250
31
0
100
AcDbText
73
2
0
TEXT
5
247
330
10E
100
AcDbEntity
8
SCHEDULE-TEXT
100
AcDbText
10
26266.666667
20
12250
30
0
40
150
1
ld BOT
7
STANDARD
72
1
11
26266.666667
21
12250
31
0
100
AcDbText
73
2
0
TEXT
5
248
330
10E
100
AcDbEntity
8
SCHEDULE-TEXT
100
AcDbText
10
29266.666667
20
12250
30
0
40
150
1
ld TOP
7
STANDARD
72
1
11
29266.666667
21
12250
31
0
100
AcDbText
73
2
0
TEXT
5
249
330
10E
100
AcDbEntity
8
SCHEDULE-TEXT
100
AcDbText
10
32366.666667
20
12250
30
0
40
150
1
LAP BOT
7
STANDARD
72
1
11
32366.666667
21
12250
31
0
100
AcDbText
73
2
0
TEXT
5
24A
330
10E
100
AcDbEntity
8
SCHEDULE-TEXT
100
AcDbText
10
35566.666667
20
12250
30
0
40
150
1
LAP TOP
7
STANDARD
72
1
11
35566.666667
21
12250
31
0
100
AcDbText
73
2
0
TEXT
5
24B
330
10E
100
AcDbEntity
8
SCHEDULE-TEXT
100
AcDbText
10
40300
20
12250
30
0
40
150
1
ldh HOOK
7
STANDARD
72
1
11
40300
21
12250
31
0
100
AcDbText
73
2
0
TEXT
5
24C
330
10E
100
AcDbEntity
8
SCHEDULE-TEXT
100
AcDbText
10
23966.666667
20
11800
30
0
40
160
1
10
7
STANDARD
72
1
11
23966.666667
21
11800
31
0
100
AcDbText
73
2
0
TEXT
5
24D
330
10E
100
AcDbEntity
8
SCHEDULE-TEXT
100
AcDbText
10
26266.666667
20
11800
30
0
40
160
1
340
7
STANDARD
72
1
11
26266.666667
21
11800
31
0
100
AcDbText
73
2
0
TEXT
5
24E
330
10E
100
AcDbEntity
8
SCHEDULE-TEXT
100
AcDbText
10
29266.666667
20
11800
30
0
40
160
1
440
7
STANDARD
72
1
11
29266.666667
21
11800
31
0
100
AcDbText
73
2
0
TEXT
5
24F
330
10E
100
AcDbEntity
8
SCHEDULE-TEXT
100
AcDbText
10
32366.666667
20
11800
30
0
40
160
1
450
7
STANDARD
72
1
11
32366.666667
21
11800
31
0
100
AcDbText
73
2
0
TEXT
5
250
330
10E
100
AcDbEntity
8
SCHEDULE-TEXT
100
AcDbText
10
35566.666667
20
11800
30
0
40
160
1
600
7
STANDARD
72
1
11
35566.666667
21
11800
31
0
100
AcDbText
73
2
0
TEXT
5
251
330
10E
100
AcDbEntity
8
SCHEDULE-TEXT
100
AcDbText
10
40300
20
11800
30
0
40
160
1
180
7
STANDARD
72
1
11
40300
21
11800
31
0
100
AcDbText
73
2
0
LINE
5
252
330
10E
100
AcDbEntity
8
SCHEDULE
370
5
100
AcDbLine
10
23166.666667
20
11600
30
0
11
43433.333333
21
11600
31
0
0
TEXT
5
253
330
10E
100
AcDbEntity
8
SCHEDULE-TEXT
100
AcDbText
10
23966.666667
20
11400
30
0
40
160
1
12
7
STANDARD
72
1
11
23966.666667
21
11400
31
0
100
AcDbText
73
2
0
TEXT
5
254
330
10E
100
AcDbEntity
8
SCHEDULE-TEXT
100
AcDbText
10
26266.666667
20
11400
30
0
40
160
1
410
7
STANDARD
72
1
11
26266.666667
21
11400
31
0
100
AcDbText
73
2
0
TEXT
5
255
330
10E
100
AcDbEntity
8
SCHEDULE-TEXT
100
AcDbText
10
29266.666667
20
11400
30
0
40
160
1
530
7
STANDARD
72
1
11
29266.666667
21
11400
31
0
100
AcDbText
73
2
0
TEXT
5
256
330
10E
100
AcDbEntity
8
SCHEDULE-TEXT
100
AcDbText
10
32366.666667
20
11400
30
0
40
160
1
550
7
STANDARD
72
1
11
32366.666667
21
11400
31
0
100
AcDbText
73
2
0
TEXT
5
257
330
10E
100
AcDbEntity
8
SCHEDULE-TEXT
100
AcDbText
10
35566.666667
20
11400
30
0
40
160
1
700
7
STANDARD
72
1
11
35566.666667
21
11400
31
0
100
AcDbText
73
2
0
TEXT
5
258
330
10E
100
AcDbEntity
8
SCHEDULE-TEXT
100
AcDbText
10
40300
20
11400
30
0
40
160
1
210
7
STANDARD
72
1
11
40300
21
11400
31
0
100
AcDbText
73
2
0
LINE
5
259
330
10E
100
AcDbEntity
8
SCHEDULE
370
5
100
AcDbLine
10
23166.666667
20
11200
30
0
11
43433.333333
21
11200
31
0
0
TEXT
5
25A
330
10E
100
AcDbEntity
8
SCHEDULE-TEXT
100
AcDbText
10
23966.666667
20
11000
30
0
40
160
1
14
7
STANDARD
72
1
11
23966.666667
21
11000
31
0
100
AcDbText
73
2
0
TEXT
5
25B
330
10E
100
AcDbEntity
8
SCHEDULE-TEXT
100
AcDbText
10
26266.666667
20
11000
30
0
40
160
1
480
7
STANDARD
72
1
11
26266.666667
21
11000
31
0
100
AcDbText
73
2
0
TEXT
5
25C
330
10E
100
AcDbEntity
8
SCHEDULE-TEXT
100
AcDbText
10
29266.666667
20
11000
30
0
40
160
1
620
7
STANDARD
72
1
11
29266.666667
21
11000
31
0
100
AcDbText
73
2
0
TEXT
5
25D
330
10E
100
AcDbEntity
8
SCHEDULE-TEXT
100
AcDbText
10
32366.666667
20
11000
30
0
40
160
1
650
7
STANDARD
72
1
11
32366.666667
21
11000
31
0
100
AcDbText
73
2
0
TEXT
5
25E
330
10E
100
AcDbEntity
8
SCHEDULE-TEXT
100
AcDbText
10
35566.666667
20
11000
30
0
40
160
1
850
7
STANDARD
72
1
11
35566.666667
21
11000
31
0
100
AcDbText
73
2
0
TEXT
5
25F
330
10E
100
AcDbEntity
8
SCHEDULE-TEXT
100
AcDbText
10
40300
20
11000
30
0
40
160
1
240
7
STANDARD
72
1
11
40300
21
11000
31
0
100
AcDbText
73
2
0
LINE
5
260
330
10E
100
AcDbEntity
8
SCHEDULE
370
5
100
AcDbLine
10
23166.666667
20
10800
30
0
11
43433.333333
21
10800
31
0
0
TEXT
5
261
330
10E
100
AcDbEntity
8
SCHEDULE-TEXT
100
AcDbText
10
23966.666667
20
10600
30
0
40
160
1
16
7
STANDARD
72
1
11
23966.666667
21
10600
31
0
100
AcDbText
73
2
0
TEXT
5
262
330
10E
100
AcDbEntity
8
SCHEDULE-TEXT
100
AcDbText
10
26266.666667
20
10600
30
0
40
160
1
550
7
STANDARD
72
1
11
26266.666667
21
10600
31
0
100
AcDbText
73
2
0
TEXT
5
263
330
10E
100
AcDbEntity
8
SCHEDULE-TEXT
100
AcDbText
10
29266.666667
20
10600
30
0
40
160
1
710
7
STANDARD
72
1
11
29266.666667
21
10600
31
0
100
AcDbText
73
2
0
TEXT
5
264
330
10E
100
AcDbEntity
8
SCHEDULE-TEXT
100
AcDbText
10
32366.666667
20
10600
30
0
40
160
1
750
7
STANDARD
72
1
11
32366.666667
21
10600
31
0
100
AcDbText
73
2
0
TEXT
5
265
330
10E
100
AcDbEntity
8
SCHEDULE-TEXT
100
AcDbText
10
35566.666667
20
10600
30
0
40
160
1
950
7
STANDARD
72
1
11
35566.666667
21
10600
31
0
100
AcDbText
73
2
0
TEXT
5
266
330
10E
100
AcDbEntity
8
SCHEDULE-TEXT
100
AcDbText
10
40300
20
10600
30
0
40
160
1
280
7
STANDARD
72
1
11
40300
21
10600
31
0
100
AcDbText
73
2
0
LINE
5
267
330
10E
100
AcDbEntity
8
SCHEDULE
370
5
100
AcDbLine
10
23166.666667
20
10400
30
0
11
43433.333333
21
10400
31
0
0
TEXT
5
268
330
10E
100
AcDbEntity
8
SCHEDULE-TEXT
100
AcDbText
10
23966.666667
20
10200
30
0
40
160
1
18
7
STANDARD
72
1
11
23966.666667
21
10200
31
0
100
AcDbText
73
2
0
TEXT
5
269
330
10E
100
AcDbEntity
8
SCHEDULE-TEXT
100
AcDbText
10
26266.666667
20
10200
30
0
40
160
1
610
7
STANDARD
72
1
11
26266.666667
21
10200
31
0
100
AcDbText
73
2
0
TEXT
5
26A
330
10E
100
AcDbEntity
8
SCHEDULE-TEXT
100
AcDbText
10
29266.666667
20
10200
30
0
40
160
1
800
7
STANDARD
72
1
11
29266.666667
21
10200
31
0
100
AcDbText
73
2
0
TEXT
5
26B
330
10E
100
AcDbEntity
8
SCHEDULE-TEXT
100
AcDbText
10
32366.666667
20
10200
30
0
40
160
1
800
7
STANDARD
72
1
11
32366.666667
21
10200
31
0
100
AcDbText
73
2
0
TEXT
5
26C
330
10E
100
AcDbEntity
8
SCHEDULE-TEXT
100
AcDbText
10
35566.666667
20
10200
30
0
40
160
1
1050
7
STANDARD
72
1
11
35566.666667
21
10200
31
0
100
AcDbText
73
2
0
TEXT
5
26D
330
10E
100
AcDbEntity
8
SCHEDULE-TEXT
100
AcDbText
10
40300
20
10200
30
0
40
160
1
310
7
STANDARD
72
1
11
40300
21
10200
31
0
100
AcDbText
73
2
0
LINE
5
26E
330
10E
100
AcDbEntity
8
SCHEDULE
370
5
100
AcDbLine
10
23166.666667
20
10000
30
0
11
43433.333333
21
10000
31
0
0
TEXT
5
26F
330
10E
100
AcDbEntity
8
SCHEDULE-TEXT
100
AcDbText
10
23966.666667
20
9800
30
0
40
160
1
20
7
STANDARD
72
1
11
23966.666667
21
9800
31
0
100
AcDbText
73
2
0
TEXT
5
270
330
10E
100
AcDbEntity
8
SCHEDULE-TEXT
100
AcDbText
10
26266.666667
20
9800
30
0
40
160
1
680
7
STANDARD
72
1
11
26266.666667
21
9800
31
0
100
AcDbText
73
2
0
TEXT
5
271
330
10E
100
AcDbEntity
8
SCHEDULE-TEXT
100
AcDbText
10
29266.666667
20
9800
30
0
40
160
1
880
7
STANDARD
72
1
11
29266.666667
21
9800
31
0
100
AcDbText
73
2
0
TEXT
5
272
330
10E
100
AcDbEntity
8
SCHEDULE-TEXT
100
AcDbText
10
32366.666667
20
9800
30
0
40
160
1
900
7
STANDARD
72
1
11
32366.666667
21
9800
31
0
100
AcDbText
73
2
0
TEXT
5
273
330
10E
100
AcDbEntity
8
SCHEDULE-TEXT
100
AcDbText
10
35566.666667
20
9800
30
0
40
160
1
1150
7
STANDARD
72
1
11
35566.666667
21
9800
31
0
100
AcDbText
73
2
0
TEXT
5
274
330
10E
100
AcDbEntity
8
SCHEDULE-TEXT
100
AcDbText
10
40300
20
9800
30
0
40
160
1
350
7
STANDARD
72
1
11
40300
21
9800
31
0
100
AcDbText
73
2
0
LINE
5
275
330
10E
100
AcDbEntity
8
SCHEDULE
370
5
100
AcDbLine
10
23166.666667
20
9600
30
0
11
43433.333333
21
9600
31
0
0
TEXT
5
276
330
10E
100
AcDbEntity
8
SCHEDULE-TEXT
100
AcDbText
10
23966.666667
20
9400
30
0
40
160
1
25
7
STANDARD
72
1
11
23966.666667
21
9400
31
0
100
AcDbText
73
2
0
TEXT
5
277
330
10E
100
AcDbEntity
8
SCHEDULE-TEXT
100
AcDbText
10
26266.666667
20
9400
30
0
40
160
1
1050
7
STANDARD
72
1
11
26266.666667
21
9400
31
0
100
AcDbText
73
2
0
TEXT
5
278
330
10E
100
AcDbEntity
8
SCHEDULE-TEXT
100
AcDbText
10
29266.666667
20
9400
30
0
40
160
1
1360
7
STANDARD
72
1
11
29266.666667
21
9400
31
0
100
AcDbText
73
2
0
TEXT
5
279
330
10E
100
AcDbEntity
8
SCHEDULE-TEXT
100
AcDbText
10
32366.666667
20
9400
30
0
40
160
1
1400
7
STANDARD
72
1
11
32366.666667
21
9400
31
0
100
AcDbText
73
2
0
TEXT
5
27A
330
10E
100
AcDbEntity
8
SCHEDULE-TEXT
100
AcDbText
10
35566.666667
20
9400
30
0
40
160
1
1800
7
STANDARD
72
1
11
35566.666667
21
9400
31
0
100
AcDbText
73
2
0
TEXT
5
27B
330
10E
100
AcDbEntity
8
SCHEDULE-TEXT
100
AcDbText
10
40300
20
9400
30
0
40
160
1
430
7
STANDARD
72
1
11
40300
21
9400
31
0
100
AcDbText
73
2
0
LINE
5
27C
330
10E
100
AcDbEntity
8
SCHEDULE
370
5
100
AcDbLine
10
23166.666667
20
9200
30
0
11
43433.333333
21
9200
31
0
0
LINE
5
27D
330
10E
100
AcDbEntity
8
SCHEDULE
100
AcDbLine
10
23166.666667
20
12500
30
0
11
23166.666667
21
9200
31
0
0
LINE
5
27E
330
10E
100
AcDbEntity
8
SCHEDULE
100
AcDbLine
10
24766.666667
20
12500
30
0
11
24766.666667
21
9200
31
0
0
LINE
5
27F
330
10E
100
AcDbEntity
8
SCHEDULE
100
AcDbLine
10
27766.666667
20
12500
30
0
11
27766.666667
21
9200
31
0
0
LINE
5
280
330
10E
100
AcDbEntity
8
SCHEDULE
100
AcDbLine
10
30766.666667
20
12500
30
0
11
30766.666667
21
9200
31
0
0
LINE
5
281
330
10E
100
AcDbEntity
8
SCHEDULE
100
AcDbLine
10
33966.666667
20
12500
30
0
11
33966.666667
21
9200
31
0
0
LINE
5
282
330
10E
100
AcDbEntity
8
SCHEDULE
100
AcDbLine
10
37166.666667
20
12500
30
0
11
37166.666667
21
9200
31
0
0
LINE
5
283
330
10E
100
AcDbEntity
8
SCHEDULE
100
AcDbLine
10
43433.333333
20
12500
30
0
11
43433.333333
21
9200
31
0
0
LINE
5
284
330
10E
100
AcDbEntity
8
SCHEDULE
100
AcDbLine
10
23166.666667
20
9200
30
0
11
43433.333333
21
9200
31
0
0
LWPOLYLINE
5
285
330
10E
100
AcDbEntity
8
FRAME
100
AcDbPolyline
90
4
70
1
43
0
10
43733.333333
20
1000
10
64600
20
1000
10
64600
20
13500
10
43733.333333
20
13500
0
LINE
5
286
330
10E
100
AcDbEntity
8
FRAME
100
AcDbLine
10
43733.333333
20
12700
30
0
11
64600
21
12700
31
0
0
CIRCLE
5
287
330
10E
100
AcDbEntity
8
CALLOUT
100
AcDbCircle
10
44433.333333
20
13100
30
0
40
300
0
TEXT
5
288
330
10E
100
AcDbEntity
8
CALLOUT
100
AcDbText
10
44433.333333
20
13100
30
0
40
220
1
3
7
STANDARD
72
1
11
44433.333333
21
13100
31
0
100
AcDbText
73
2
0
TEXT
5
289
330
10E
100
AcDbEntity
8
TEXT-TITLE
100
AcDbText
10
44933.333333
20
13100
30
0
40
240
1
HOW TO USE THE BLOCKS / XREFS
7
STANDARD
72
0
11
44933.333333
21
13100
31
0
100
AcDbText
73
2
0
TEXT
5
28A
330
10E
100
AcDbEntity
8
TITLE
100
AcDbText
10
64400
20
13100
30
0
40
180
1

7
STANDARD
72
2
11
64400
21
13100
31
0
100
AcDbText
73
2
0
MTEXT
5
28B
330
10E
100
AcDbEntity
8
NOTES
100
AcDbMText
10
44133.333333
20
12300
30
0
40
190
41
20066.666667
71
1
72
1
1
EACH SHEET IS A BLOCK NAMED AS LISTED; THE SAME NAME IS ALSO A STAND-ALONE DXF FOR XREF ATTACH.
7
STANDARD
44
1
0
MTEXT
5
28C
330
10E
100
AcDbEntity
8
NOTES
100
AcDbMText
10
44133.333333
20
11200
30
0
40
190
41
20066.666667
71
1
72
1
1
INSERT OR XREF AT 0,0 SCALE 1, UNITS mm. PLAN GEOMETRY IS 1:1; THE FRAME IS SCALED BY THE SHEET SCALE.
7
STANDARD
44
1
0
MTEXT
5
28D
330
10E
100
AcDbEntity
8
NOTES
100
AcDbMText
10
44133.333333
20
10100
30
0
40
190
41
20066.666667
71
1
72
1
1
LAYERS: REBAR-BOT / REBAR-TOP / REBAR-U / REBAR-TRIM / CALLOUT / SCHEDULE / NOTES / GRID / OUTLINE / COLUMN / OPENING / VOID / PT-ZONE / CABLE / FRAME / TITLE.
7
STANDARD
44
1
0
MTEXT
5
28E
330
10E
100
AcDbEntity
8
NOTES
100
AcDbMText
10
44133.333333
20
9000
30
0
40
190
41
20066.666667
71
1
72
1
1
EXPLODE THE BLOCK TO EDIT; RE-RUN THE GENERATOR AFTER CHANGES TO THE STRUCTURAL DRAWINGS.
7
STANDARD
44
1
0
TEXT
5
28F
330
10E
100
AcDbEntity
8
TEXT-TITLE
100
AcDbText
10
64900
20
37950
30
0
40
260
1
GENERAL NOTES
7
STANDARD
72
0
100
AcDbText
73
0
0
TEXT
5
290
330
10E
100
AcDbEntity
8
TEXT-TITLE
100
AcDbText
10
82800
20
37950
30
0
40
240
1
\U+0645\U+0644\U+0627\U+062D\U+0638\U+0627\U+062A \U+0639\U+0627\U+0645\U+0629
7
STANDARD
72
2
11
82800
21
37950
31
0
100
AcDbText
73
0
0
LINE
5
291
330
10E
100
AcDbEntity
8
NOTES
100
AcDbLine
10
64900
20
37830
30
0
11
82800
21
37830
31
0
0
MTEXT
5
292
330
10E
100
AcDbEntity
8
NOTES
100
AcDbMText
10
64900
20
37680
30
0
40
190
41
17800
71
1
72
1
1
1. PACKAGE GENERATED FROM THE CONSULTANT'S COMBINED STRUCTURAL DRAWINGS: 2 SLAB LEVEL(S) READ.
7
STANDARD
44
1
0
MTEXT
5
293
330
10E
100
AcDbEntity
8
NOTES
100
AcDbMText
10
64900
20
37330
30
0
40
190
41
17800
71
1
72
1
1
2. Drawing units: mm ($INSUNITS); 215 entities read.
7
STANDARD
44
1
0
MTEXT
5
294
330
10E
100
AcDbEntity
8
NOTES
100
AcDbMText
10
64900
20
36980
30
0
40
190
41
17800
71
1
72
1
1
3. L01 FIRST FLOOR SLAB PLAN: 19 columns, grid A-B-C-D-E / 1-2-3-4, 2 openings, 2 voids, 1 circular U-bar regions, 1 PT zones, 0 tendon lines, slab 250 mm.
7
STANDARD
44
1
0
MTEXT
5
295
330
10E
100
AcDbEntity
8
NOTES
100
AcDbMText
10
64900
20
36335.5
30
0
40
190
41
17800
71
1
72
1
1
4. L02 ROOF SLAB PLAN: 20 columns, grid A-B-C-D-E / 1-2-3-4, 2 openings, 1 voids, 2 circular U-bar regions, 1 PT zones, 0 tendon lines, slab 220 mm.
7
STANDARD
44
1
0
MTEXT
5
296
330
10E
100
AcDbEntity
8
NOTES
100
AcDbMText
10
64900
20
35691
30
0
40
190
41
17800
71
1
72
1
1
5. DESIGN DATA READ FROM THE DRAWINGS: topColumns: T16@150 from note "5. TOP BARS OVER COLUMNS: T16@150 B.W. UNLESS NOTED.".
7
STANDARD
44
1
0
TEXT
5
297
330
10E
100
AcDbEntity
8
TEXT-TITLE
100
AcDbText
10
64900
20
34696.5
30
0
40
260
1
ASSUMPTIONS
7
STANDARD
72
0
100
AcDbText
73
0
0
TEXT
5
298
330
10E
100
AcDbEntity
8
TEXT-TITLE
100
AcDbText
10
82800
20
34696.5
30
0
40
240
1
\U+0627\U+0641\U+062A\U+0631\U+0627\U+0636\U+0627\U+062A
7
STANDARD
72
2
11
82800
21
34696.5
31
0
100
AcDbText
73
0
0
LINE
5
299
330
10E
100
AcDbEntity
8
NOTES
100
AcDbLine
10
64900
20
34576.5
30
0
11
82800
21
34576.5
31
0
0
MTEXT
5
29A
330
10E
100
AcDbEntity
8
NOTES
100
AcDbMText
10
64900
20
34426.5
30
0
40
180
41
17800
71
1
72
1
1
A1. Bottom mesh not specified: T12@200 both ways assumed as bonded reinforcement in PT zones.
7
STANDARD
44
1
0
MTEXT
5
29B
330
10E
100
AcDbEntity
8
NOTES
100
AcDbMText
10
64900
20
34086.5
30
0
40
180
41
17800
71
1
72
1
1
A2. Edge U-bars not specified: T12@200 with 1200 mm legs assumed at PT anchorage edges.
7
STANDARD
44
1
0
MTEXT
5
29C
330
10E
100
AcDbEntity
8
NOTES
100
AcDbMText
10
64900
20
33746.5
30
0
40
180
41
17800
71
1
72
1
1
A3. Opening trimmers not specified: 2T16 T&B each side + 2T12 diagonals at corners assumed.
7
STANDARD
44
1
0
MTEXT
5
29D
330
10E
100
AcDbEntity
8
NOTES
100
AcDbMText
10
64900
20
33406.5
30
0
40
180
41
17800
71
1
72
1
1
A4. Void trimmers not specified: 2T12 T&B each side assumed.
7
STANDARD
44
1
0
MTEXT
5
29E
330
10E
100
AcDbEntity
8
NOTES
100
AcDbMText
10
64900
20
33066.5
30
0
40
180
41
17800
71
1
72
1
1
A5. Stock bar length 12 m; laps staggered so that not more than 50 % of bars lap at one section.
7
STANDARD
44
1
0
TEXT
5
29F
330
10E
100
AcDbEntity
8
TEXT-TITLE
100
AcDbText
10
64900
20
32376.5
30
0
40
260
1
CODE REFERENCE
7
STANDARD
72
0
100
AcDbText
73
0
0
TEXT
5
2A0
330
10E
100
AcDbEntity
8
TEXT-TITLE
100
AcDbText
10
82800
20
32376.5
30
0
40
240
1
\U+0627\U+0644\U+0645\U+0631\U+062C\U+0639 \U+0627\U+0644\U+0643\U+0648\U+062F\U+064A
7
STANDARD
72
2
11
82800
21
32376.5
31
0
100
AcDbText
73
0
0
LINE
5
2A1
330
10E
100
AcDbEntity
8
NOTES
100
AcDbLine
10
64900
20
32256.5
30
0
11
82800
21
32256.5
31
0
0
MTEXT
5
2A2
330
10E
100
AcDbEntity
8
NOTES
100
AcDbMText
10
64900
20
32106.5
30
0
40
190
41
17800
71
1
72
1
1
SBC 304-18 AS STATED ON THE STRUCTURAL DRAWINGS. DEVELOPMENT, ANCHORAGE AND LAP LENGTHS PER SBC 304-18 CHAPTER 25 (ACI 318-14 BASIS).
7
STANDARD
44
1
0
LINE
5
2A3
330
10E
100
AcDbEntity
8
TITLE
100
AcDbLine
10
64600
20
11700
30
0
11
83100
21
11700
31
0
0
TEXT
5
2A4
330
10E
100
AcDbEntity
8
TEXT-TITLE
100
AcDbText
10
73850
20
12800
30
0
40
450
1
SPAN TECH CONTRACTING
7
STANDARD
72
1
11
73850
21
12800
31
0
100
AcDbText
73
2
0
TEXT
5
2A5
330
10E
100
AcDbEntity
8
TITLE
100
AcDbText
10
73850
20
12150
30
0
40
200
1
POST-TENSIONED SLABS \U+00B7 KSA \U+00B7 EGYPT \U+00B7 QATAR
7
STANDARD
72
1
11
73850
21
12150
31
0
100
AcDbText
73
2
0
LINE
5
2A6
330
10E
100
AcDbEntity
8
TITLE
100
AcDbLine
10
64600
20
10300
30
0
11
83100
21
10300
31
0
0
TEXT
5
2A7
330
10E
100
AcDbEntity
8
TITLE
100
AcDbText
10
64750
20
11380
30
0
40
160
1
PROJECT
7
STANDARD
72
0
100
AcDbText
73
0
0
TEXT
5
2A8
330
10E
100
AcDbEntity
8
TEXT-TITLE
100
AcDbText
10
64750
20
10960
30
0
40
300
1
PROPOSED MIXED-USE BUILDING
7
STANDARD
72
0
100
AcDbText
73
0
0
TEXT
5
2A9
330
10E
100
AcDbEntity
8
TITLE
100
AcDbText
10
64750
20
10450
30
0
40
180
1
CLIENT: DEMO CLIENT   LOCATION: RIYADH, KSA
7
STANDARD
72
0
100
AcDbText
73
0
0
LINE
5
2AA
330
10E
100
AcDbEntity
8
TITLE
100
AcDbLine
10
64600
20
8400
30
0
11
83100
21
8400
31
0
0
TEXT
5
2AB
330
10E
100
AcDbEntity
8
TITLE
100
AcDbText
10
64750
20
9980
30
0
40
160
1
DRAWING TITLE
7
STANDARD
72
0
100
AcDbText
73
0
0
TEXT
5
2AC
330
10E
100
AcDbEntity
8
TEXT-TITLE
100
AcDbText
10
64750
20
9500
30
0
40
320
1
COVER SHEET / DRAWING INDEX
7
STANDARD
72
0
100
AcDbText
73
0
0
TEXT
5
2AD
330
10E
100
AcDbEntity
8
TITLE
100
AcDbText
10
64750
20
8550
30
0
40
220
1
ALL LEVELS
7
STANDARD
72
0
100
AcDbText
73
0
0
LINE
5
2AE
330
10E
100
AcDbEntity
8
TITLE
100
AcDbLine
10
64600
20
7300
30
0
11
83100
21
7300
31
0
0
LINE
5
2AF
330
10E
100
AcDbEntity
8
TITLE
100
AcDbLine
10
73850
20
7300
30
0
11
73850
21
8400
31
0
0
LINE
5
2B0
330
10E
100
AcDbEntity
8
TITLE
100
AcDbLine
10
78475
20
7300
30
0
11
78475
21
8400
31
0
0
TEXT
5
2B1
330
10E
100
AcDbEntity
8
TITLE
100
AcDbText
10
64750
20
8080
30
0
40
160
1
DRAWING No.
7
STANDARD
72
0
100
AcDbText
73
0
0
TEXT
5
2B2
330
10E
100
AcDbEntity
8
TEXT-TITLE
100
AcDbText
10
64750
20
7640
30
0
40
320
1
ST-SD-000
7
STANDARD
72
0
100
AcDbText
73
0
0
TEXT
5
2B3
330
10E
100
AcDbEntity
8
TITLE
100
AcDbText
10
74000
20
8080
30
0
40
160
1
REV.
7
STANDARD
72
0
100
AcDbText
73
0
0
TEXT
5
2B4
330
10E
100
AcDbEntity
8
TEXT-TITLE
100
AcDbText
10
74000
20
7640
30
0
40
320
1
00
7
STANDARD
72
0
100
AcDbText
73
0
0
TEXT
5
2B5
330
10E
100
AcDbEntity
8
TITLE
100
AcDbText
10
78625
20
8080
30
0
40
160
1
DATE
7
STANDARD
72
0
100
AcDbText
73
0
0
TEXT
5
2B6
330
10E
100
AcDbEntity
8
TEXT-TITLE
100
AcDbText
10
78625
20
7700
30
0
40
260
1
2026-09-26
7
STANDARD
72
0
100
AcDbText
73
0
0
LINE
5
2B7
330
10E
100
AcDbEntity
8
TITLE
100
AcDbLine
10
64600
20
6200
30
0
11
83100
21
6200
31
0
0
LINE
5
2B8
330
10E
100
AcDbEntity
8
TITLE
100
AcDbLine
10
70890
20
6200
30
0
11
70890
21
7300
31
0
0
LINE
5
2B9
330
10E
100
AcDbEntity
8
TITLE
100
AcDbLine
10
76810
20
6200
30
0
11
76810
21
7300
31
0
0
TEXT
5
2BA
330
10E
100
AcDbEntity
8
TITLE
100
AcDbText
10
64750
20
6980
30
0
40
160
1
SCALE
7
STANDARD
72
0
100
AcDbText
73
0
0
TEXT
5
2BB
330
10E
100
AcDbEntity
8
TEXT-TITLE
100
AcDbText
10
64750
20
6580
30
0
40
280
1
N.T.S.
7
STANDARD
72
0
100
AcDbText
73
0
0
TEXT
5
2BC
330
10E
100
AcDbEntity
8
TITLE
100
AcDbText
10
71040
20
6980
30
0
40
160
1
SHEET SIZE
7
STANDARD
72
0
100
AcDbText
73
0
0
TEXT
5
2BD
330
10E
100
AcDbEntity
8
TEXT-TITLE
100
AcDbText
10
71040
20
6580
30
0
40
280
1
A1
7
STANDARD
72
0
100
AcDbText
73
0
0
TEXT
5
2BE
330
10E
100
AcDbEntity
8
TITLE
100
AcDbText
10
76960
20
6980
30
0
40
160
1
SHEET
7
STANDARD
72
0
100
AcDbText
73
0
0
TEXT
5
2BF
330
10E
100
AcDbEntity
8
TEXT-TITLE
100
AcDbText
10
76960
20
6580
30
0
40
280
1
1 OF 15
7
STANDARD
72
0
100
AcDbText
73
0
0
LINE
5
2C0
330
10E
100
AcDbEntity
8
TITLE
100
AcDbLine
10
64600
20
4400
30
0
11
83100
21
4400
31
0
0
LINE
5
2C1
330
10E
100
AcDbEntity
8
TITLE
100
AcDbLine
10
70766.666667
20
4400
30
0
11
70766.666667
21
6200
31
0
0
LINE
5
2C2
330
10E
100
AcDbEntity
8
TITLE
100
AcDbLine
10
76933.333333
20
4400
30
0
11
76933.333333
21
6200
31
0
0
TEXT
5
2C3
330
10E
100
AcDbEntity
8
TITLE
100
AcDbText
10
64750
20
5880
30
0
40
160
1
PREPARED
7
STANDARD
72
0
100
AcDbText
73
0
0
TEXT
5
2C4
330
10E
100
AcDbEntity
8
TEXT-TITLE
100
AcDbText
10
64750
20
5350
30
0
40
220
1
SPAN TECH DESIGN OFFICE
7
STANDARD
72
0
100
AcDbText
73
0
0
TEXT
5
2C5
330
10E
100
AcDbEntity
8
TITLE
100
AcDbText
10
64750
20
4550
30
0
40
150
1
SIGN / DATE: ..........
7
STANDARD
72
0
100
AcDbText
73
0
0
TEXT
5
2C6
330
10E
100
AcDbEntity
8
TITLE
100
AcDbText
10
70916.666667
20
5880
30
0
40
160
1
CHECKED
7
STANDARD
72
0
100
AcDbText
73
0
0
TEXT
5
2C7
330
10E
100
AcDbEntity
8
TEXT-TITLE
100
AcDbText
10
70916.666667
20
5350
30
0
40
220
1

7
STANDARD
72
0
100
AcDbText
73
0
0
TEXT
5
2C8
330
10E
100
AcDbEntity
8
TITLE
100
AcDbText
10
70916.666667
20
4550
30
0
40
150
1
SIGN / DATE: ..........
7
STANDARD
72
0
100
AcDbText
73
0
0
TEXT
5
2C9
330
10E
100
AcDbEntity
8
TITLE
100
AcDbText
10
77083.333333
20
5880
30
0
40
160
1
APPROVED
7
STANDARD
72
0
100
AcDbText
73
0
0
TEXT
5
2CA
330
10E
100
AcDbEntity
8
TEXT-TITLE
100
AcDbText
10
77083.333333
20
5350
30
0
40
220
1

7
STANDARD
72
0
100
AcDbText
73
0
0
TEXT
5
2CB
330
10E
100
AcDbEntity
8
TITLE
100
AcDbText
10
77083.333333
20
4550
30
0
40
150
1
SIGN / DATE: ..........
7
STANDARD
72
0
100
AcDbText
73
0
0
LINE
5
2CC
330
10E
100
AcDbEntity
8
TITLE
100
AcDbLine
10
64600
20
3400
30
0
11
83100
21
3400
31
0
0
LINE
5
2CD
330
10E
100
AcDbEntity
8
TITLE
100
AcDbLine
10
73850
20
3400
30
0
11
73850
21
4400
31
0
0
TEXT
5
2CE
330
10E
100
AcDbEntity
8
TITLE
100
AcDbText
10
64750
20
4080
30
0
40
160
1
GRID REFERENCE
7
STANDARD
72
0
100
AcDbText
73
0
0
TEXT
5
2CF
330
10E
100
AcDbEntity
8
TEXT-TITLE
100
AcDbText
10
64750
20
3720
30
0
40
240
1
ALL
7
STANDARD
72
0
100
AcDbText
73
0
0
TEXT
5
2D0
330
10E
100
AcDbEntity
8
TITLE
100
AcDbText
10
74000
20
4080
30
0
40
160
1
DRAWING INDEX
7
STANDARD
72
0
100
AcDbText
73
0
0
TEXT
5
2D1
330
10E
100
AcDbEntity
8
TEXT-TITLE
100
AcDbText
10
74000
20
3720
30
0
40
240
1
ST-SD-000
7
STANDARD
72
0
100
AcDbText
73
0
0
LINE
5
2D2
330
10E
100
AcDbEntity
8
TITLE
100
AcDbLine
10
64600
20
2400
30
0
11
83100
21
2400
31
0
0
LINE
5
2D3
330
10E
100
AcDbEntity
8
TITLE
100
AcDbLine
10
73850
20
2400
30
0
11
73850
21
3400
31
0
0
TEXT
5
2D4
330
10E
100
AcDbEntity
8
TITLE
100
AcDbText
10
64750
20
3080
30
0
40
160
1
CODE REFERENCE
7
STANDARD
72
0
100
AcDbText
73
0
0
TEXT
5
2D5
330
10E
100
AcDbEntity
8
TEXT-TITLE
100
AcDbText
10
64750
20
2740
30
0
40
220
1
SBC 304-18 (ON DRAWINGS)
7
STANDARD
72
0
100
AcDbText
73
0
0
TEXT
5
2D6
330
10E
100
AcDbEntity
8
TITLE
100
AcDbText
10
74000
20
3080
30
0
40
160
1
BLOCK / XREF NAME
7
STANDARD
72
0
100
AcDbText
73
0
0
TEXT
5
2D7
330
10E
100
AcDbEntity
8
TEXT-TITLE
100
AcDbText
10
74000
20
2790
30
0
40
170
1
SHOP_DRAWINGS_COVER_INDEX
7
STANDARD
72
0
100
AcDbText
73
0
0
TEXT
5
2D8
330
10E
100
AcDbEntity
8
TEXT-TITLE
100
AcDbText
10
73850
20
1700
30
0
40
240
1
SHOP DRAWING - FOR CONSULTANT APPROVAL
7
STANDARD
72
1
11
73850
21
1700
31
0
100
AcDbText
73
2
0
LWPOLYLINE
5
2D9
330
10E
100
AcDbEntity
8
TITLE
370
50
100
AcDbPolyline
90
4
70
1
43
0
10
64600
20
1000
10
83100
20
1000
10
83100
20
13500
10
64600
20
13500
0
ENDBLK
5
2DA
330
10E
100
AcDbEntity
8
0
100
AcDbBlockEnd
0
ENDSEC
0
SECTION
2
ENTITIES
0
INSERT
5
2DB
330
108
100
AcDbEntity
8
0
100
AcDbBlockReference
2
SHOP_DRAWINGS_COVER_INDEX
10
0
20
0
30
0
41
1
42
1
43
1
50
0
0
ENDSEC
0
SECTION
2
OBJECTS
0
DICTIONARY
5
100
330
0
100
AcDbDictionary
281
1
3
ACAD_GROUP
350
101
3
ACAD_LAYOUT
350
104
3
ACAD_PLOTSTYLENAME
350
102
0
DICTIONARY
5
101
330
100
100
AcDbDictionary
281
1
0
ACDBDICTIONARYWDFLT
5
102
330
100
100
AcDbDictionary
281
1
3
Normal
350
103
100
AcDbDictionaryWithDefault
340
103
0
ACDBPLACEHOLDER
5
103
330
102
0
DICTIONARY
5
104
330
100
100
AcDbDictionary
281
1
3
Model
350
105
3
Layout1
350
106
0
LAYOUT
5
105
330
104
100
AcDbPlotSettings
1

2
none_device
4

6

40
0
41
0
42
0
43
0
44
0
45
0
46
0
47
0
48
0
49
0
140
0
141
0
142
1
143
1
70
1712
72
0
73
0
74
5
7

75
16
147
1
148
0
149
0
100
AcDbLayout
1
Model
70
1
71
0
10
0
20
0
11
12
21
9
12
0
22
0
32
0
14
0
24
0
34
0
15
0
25
0
35
0
146
0
13
0
23
0
33
0
16
1
26
0
36
0
17
0
27
1
37
0
76
0
330
108
0
LAYOUT
5
106
330
104
100
AcDbPlotSettings
1

2
none_device
4

6

40
0
41
0
42
0
43
0
44
0
45
0
46
0
47
0
48
0
49
0
140
0
141
0
142
1
143
1
70
688
72
0
73
0
74
5
7

75
16
147
1
148
0
149
0
100
AcDbLayout
1
Layout1
70
1
71
1
10
0
20
0
11
12
21
9
12
0
22
0
32
0
14
0
24
0
34
0
15
0
25
0
35
0
146
0
13
0
23
0
33
0
16
1
26
0
36
0
17
0
27
1
37
0
76
0
330
109
0
ENDSEC
0
EOF
