0
SECTION
2
HEADER
9
$ACADVER
1
AC1015
9
$DWGCODEPAGE
3
ANSI_1252
9
$INSBASE
10
0
20
0
30
0
9
$EXTMIN
10
0
20
0
30
0
9
$EXTMAX
10
127632
20
89100
30
0
9
$LIMMIN
10
0
20
0
9
$LIMMAX
10
127632
20
89100
9
$ORTHOMODE
70
0
9
$LTSCALE
40
37.5
9
$TEXTSIZE
40
2.5
9
$TEXTSTYLE
7
STANDARD
9
$CLAYER
8
0
9
$CELTYPE
6
BYLAYER
9
$CECOLOR
62
256
9
$DIMSTYLE
2
STANDARD
9
$INSUNITS
70
4
9
$MEASUREMENT
70
1
9
$PDMODE
70
0
9
$PSLTSCALE
70
1
9
$TILEMODE
70
1
9
$HANDSEED
5
480
0
ENDSEC
0
SECTION
2
CLASSES
0
ENDSEC
0
SECTION
2
TABLES
0
TABLE
2
VPORT
5
10F
330
0
100
AcDbSymbolTable
70
1
0
VPORT
5
110
330
10F
100
AcDbSymbolTableRecord
100
AcDbViewportTableRecord
2
*Active
70
0
10
0
20
0
11
1
21
1
12
63816
22
44550
13
0
23
0
14
10
24
10
15
10
25
10
16
0
26
0
36
1
17
0
27
0
37
0
40
98010
41
1.432458
42
50
43
0
44
0
50
0
51
0
71
0
72
1000
73
1
74
3
75
0
76
0
77
0
78
0
281
0
65
1
110
0
120
0
130
0
111
1
121
0
131
0
112
0
122
1
132
0
79
0
146
0
0
ENDTAB
0
TABLE
2
LTYPE
5
111
330
0
100
AcDbSymbolTable
70
8
0
LTYPE
5
112
330
111
100
AcDbSymbolTableRecord
100
AcDbLinetypeTableRecord
2
ByBlock
70
0
3

72
65
73
0
40
0
0
LTYPE
5
113
330
111
100
AcDbSymbolTableRecord
100
AcDbLinetypeTableRecord
2
ByLayer
70
0
3

72
65
73
0
40
0
0
LTYPE
5
114
330
111
100
AcDbSymbolTableRecord
100
AcDbLinetypeTableRecord
2
CONTINUOUS
70
0
3
Solid line
72
65
73
0
40
0
0
LTYPE
5
115
330
111
100
AcDbSymbolTableRecord
100
AcDbLinetypeTableRecord
2
DASHED
70
0
3
Dashed __ __ __
72
65
73
2
40
19.05
49
12.7
74
0
49
-6.35
74
0
0
LTYPE
5
116
330
111
100
AcDbSymbolTableRecord
100
AcDbLinetypeTableRecord
2
HIDDEN
70
0
3
Hidden __ __ __
72
65
73
2
40
9.525
49
6.35
74
0
49
-3.175
74
0
0
LTYPE
5
117
330
111
100
AcDbSymbolTableRecord
100
AcDbLinetypeTableRecord
2
CENTER
70
0
3
Center ____ _ ____ _
72
65
73
4
40
50.8
49
31.75
74
0
49
-6.35
74
0
49
6.35
74
0
49
-6.35
74
0
0
LTYPE
5
118
330
111
100
AcDbSymbolTableRecord
100
AcDbLinetypeTableRecord
2
DASHDOT
70
0
3
Dash dot __ . __ . __
72
65
73
4
40
25.4
49
12.7
74
0
49
-6.35
74
0
49
0
74
0
49
-6.35
74
0
0
LTYPE
5
119
330
111
100
AcDbSymbolTableRecord
100
AcDbLinetypeTableRecord
2
PHANTOM
70
0
3
Phantom ____ _ _ ____
72
65
73
6
40
63.5
49
31.75
74
0
49
-6.35
74
0
49
6.35
74
0
49
-6.35
74
0
49
6.35
74
0
49
-6.35
74
0
0
ENDTAB
0
TABLE
2
LAYER
5
11A
330
0
100
AcDbSymbolTable
70
50
0
LAYER
5
11B
330
11A
100
AcDbSymbolTableRecord
100
AcDbLayerTableRecord
2
0
70
0
62
7
6
CONTINUOUS
370
-3
390
103
0
LAYER
5
11C
330
11A
100
AcDbSymbolTableRecord
100
AcDbLayerTableRecord
2
ST-SHEET-FRAME
70
0
62
7
6
CONTINUOUS
370
50
390
103
0
LAYER
5
11D
330
11A
100
AcDbSymbolTableRecord
100
AcDbLayerTableRecord
2
ST-SHEET-TITLE
70
0
62
7
6
CONTINUOUS
370
25
390
103
0
LAYER
5
11E
330
11A
100
AcDbSymbolTableRecord
100
AcDbLayerTableRecord
2
ST-TEXT
70
0
62
7
6
CONTINUOUS
370
-3
390
103
0
LAYER
5
11F
330
11A
100
AcDbSymbolTableRecord
100
AcDbLayerTableRecord
2
ST-SHEET-TEXT
70
0
62
2
6
CONTINUOUS
370
-3
390
103
0
LAYER
5
120
330
11A
100
AcDbSymbolTableRecord
100
AcDbLayerTableRecord
2
ST-SHEET-NOTES
70
0
62
7
6
CONTINUOUS
370
-3
390
103
0
LAYER
5
121
330
11A
100
AcDbSymbolTableRecord
100
AcDbLayerTableRecord
2
ST-GRID
70
0
62
8
6
CENTER
370
-3
390
103
0
LAYER
5
122
330
11A
100
AcDbSymbolTableRecord
100
AcDbLayerTableRecord
2
ST-GRID-BUBBLE
70
0
62
8
6
CONTINUOUS
370
-3
390
103
0
LAYER
5
123
330
11A
100
AcDbSymbolTableRecord
100
AcDbLayerTableRecord
2
ST-SLAB-EDGE
70
0
62
3
6
CONTINUOUS
370
35
390
103
0
LAYER
5
124
330
11A
100
AcDbSymbolTableRecord
100
AcDbLayerTableRecord
2
ST-COL
70
0
62
7
6
CONTINUOUS
370
35
390
103
0
LAYER
5
125
330
11A
100
AcDbSymbolTableRecord
100
AcDbLayerTableRecord
2
ST-COL-HATCH
70
0
62
7
6
CONTINUOUS
370
-3
390
103
0
LAYER
5
126
330
11A
100
AcDbSymbolTableRecord
100
AcDbLayerTableRecord
2
ST-OPENING
70
0
62
6
6
CONTINUOUS
370
-3
390
103
0
LAYER
5
127
330
11A
100
AcDbSymbolTableRecord
100
AcDbLayerTableRecord
2
ST-OPENING-HATCH
70
0
62
6
6
CONTINUOUS
370
-3
390
103
0
LAYER
5
128
330
11A
100
AcDbSymbolTableRecord
100
AcDbLayerTableRecord
2
ST-VOID
70
0
62
30
6
DASHED
370
-3
390
103
0
LAYER
5
129
330
11A
100
AcDbSymbolTableRecord
100
AcDbLayerTableRecord
2
ST-VOID-HATCH
70
0
62
30
6
CONTINUOUS
370
-3
390
103
0
LAYER
5
12A
330
11A
100
AcDbSymbolTableRecord
100
AcDbLayerTableRecord
2
ST-PT-ZONE
70
0
62
4
6
DASHDOT
370
-3
390
103
0
LAYER
5
12B
330
11A
100
AcDbSymbolTableRecord
100
AcDbLayerTableRecord
2
ST-PT-TENDON
70
0
62
3
6
CONTINUOUS
370
-3
390
103
0
LAYER
5
12C
330
11A
100
AcDbSymbolTableRecord
100
AcDbLayerTableRecord
2
ST-PT-HATCH
70
0
62
4
6
CONTINUOUS
370
-3
390
103
0
LAYER
5
12D
330
11A
100
AcDbSymbolTableRecord
100
AcDbLayerTableRecord
2
ST-RB-BOT
70
0
62
1
6
CONTINUOUS
370
50
390
103
0
LAYER
5
12E
330
11A
100
AcDbSymbolTableRecord
100
AcDbLayerTableRecord
2
ST-RB-TOP
70
0
62
5
6
CONTINUOUS
370
50
390
103
0
LAYER
5
12F
330
11A
100
AcDbSymbolTableRecord
100
AcDbLayerTableRecord
2
ST-RB-UBAR
70
0
62
6
6
CONTINUOUS
370
50
390
103
0
LAYER
5
130
330
11A
100
AcDbSymbolTableRecord
100
AcDbLayerTableRecord
2
ST-RB-TRIM
70
0
62
6
6
CONTINUOUS
370
50
390
103
0
LAYER
5
131
330
11A
100
AcDbSymbolTableRecord
100
AcDbLayerTableRecord
2
ST-RB-RANGE
70
0
62
6
6
CONTINUOUS
370
-3
390
103
0
LAYER
5
132
330
11A
100
AcDbSymbolTableRecord
100
AcDbLayerTableRecord
2
ST-RB-TEXT
70
0
62
7
6
CONTINUOUS
370
-3
390
103
0
LAYER
5
133
330
11A
100
AcDbSymbolTableRecord
100
AcDbLayerTableRecord
2
ST-RB-MESH
70
0
62
4
6
CONTINUOUS
370
-3
390
103
0
LAYER
5
134
330
11A
100
AcDbSymbolTableRecord
100
AcDbLayerTableRecord
2
ST-RB-PUNCH
70
0
62
6
6
CONTINUOUS
370
35
390
103
0
LAYER
5
135
330
11A
100
AcDbSymbolTableRecord
100
AcDbLayerTableRecord
2
ST-RB-TYPE
70
0
62
1
6
CONTINUOUS
370
-3
390
103
0
LAYER
5
136
330
11A
100
AcDbSymbolTableRecord
100
AcDbLayerTableRecord
2
ST-RB
70
0
62
6
6
CONTINUOUS
370
50
390
103
0
LAYER
5
137
330
11A
100
AcDbSymbolTableRecord
100
AcDbLayerTableRecord
2
ST-RB-B1
70
0
62
6
6
CONTINUOUS
370
50
390
103
0
LAYER
5
138
330
11A
100
AcDbSymbolTableRecord
100
AcDbLayerTableRecord
2
ST-RB-B2
70
0
62
6
6
CONTINUOUS
370
50
390
103
0
LAYER
5
139
330
11A
100
AcDbSymbolTableRecord
100
AcDbLayerTableRecord
2
ST-RB-T1
70
0
62
6
6
CONTINUOUS
370
50
390
103
0
LAYER
5
13A
330
11A
100
AcDbSymbolTableRecord
100
AcDbLayerTableRecord
2
ST-RB-T2
70
0
62
6
6
CONTINUOUS
370
50
390
103
0
LAYER
5
13B
330
11A
100
AcDbSymbolTableRecord
100
AcDbLayerTableRecord
2
ST-STAIR
70
0
62
8
6
CONTINUOUS
370
-3
390
103
0
LAYER
5
13C
330
11A
100
AcDbSymbolTableRecord
100
AcDbLayerTableRecord
2
ST-WALL
70
0
62
8
6
CONTINUOUS
370
50
390
103
0
LAYER
5
13D
330
11A
100
AcDbSymbolTableRecord
100
AcDbLayerTableRecord
2
ST-SLAB-THK
70
0
62
3
6
DASHED
370
-3
390
103
0
LAYER
5
13E
330
11A
100
AcDbSymbolTableRecord
100
AcDbLayerTableRecord
2
ST-SLAB-THK-HATCH
70
0
62
8
6
CONTINUOUS
370
-3
390
103
0
LAYER
5
13F
330
11A
100
AcDbSymbolTableRecord
100
AcDbLayerTableRecord
2
ST-PT-ANCHOR
70
0
62
3
6
CONTINUOUS
370
-3
390
103
0
LAYER
5
140
330
11A
100
AcDbSymbolTableRecord
100
AcDbLayerTableRecord
2
ST-BEAM
70
0
62
3
6
CONTINUOUS
370
25
390
103
0
LAYER
5
141
330
11A
100
AcDbSymbolTableRecord
100
AcDbLayerTableRecord
2
ST-SUNKEN
70
0
62
4
6
CONTINUOUS
370
-3
390
103
0
LAYER
5
142
330
11A
100
AcDbSymbolTableRecord
100
AcDbLayerTableRecord
2
ST-SUNKEN-HATCH
70
0
62
8
6
CONTINUOUS
370
-3
390
103
0
LAYER
5
143
330
11A
100
AcDbSymbolTableRecord
100
AcDbLayerTableRecord
2
ST-CALLOUT
70
0
62
3
6
CONTINUOUS
370
-3
390
103
0
LAYER
5
144
330
11A
100
AcDbSymbolTableRecord
100
AcDbLayerTableRecord
2
ST-DIM
70
0
62
8
6
CONTINUOUS
370
-3
390
103
0
LAYER
5
145
330
11A
100
AcDbSymbolTableRecord
100
AcDbLayerTableRecord
2
ST-DETAIL
70
0
62
7
6
CONTINUOUS
370
-3
390
103
0
LAYER
5
146
330
11A
100
AcDbSymbolTableRecord
100
AcDbLayerTableRecord
2
ST-DETAIL-HATCH
70
0
62
8
6
CONTINUOUS
370
-3
390
103
0
LAYER
5
147
330
11A
100
AcDbSymbolTableRecord
100
AcDbLayerTableRecord
2
ST-SHEET-SCHEDULE
70
0
62
7
6
CONTINUOUS
370
-3
390
103
0
LAYER
5
148
330
11A
100
AcDbSymbolTableRecord
100
AcDbLayerTableRecord
2
ST-SHEET-SCHEDULE-TEXT
70
0
62
7
6
CONTINUOUS
370
-3
390
103
0
LAYER
5
149
330
11A
100
AcDbSymbolTableRecord
100
AcDbLayerTableRecord
2
ST-HATCH
70
0
62
8
6
CONTINUOUS
370
-3
390
103
0
LAYER
5
14A
330
11A
100
AcDbSymbolTableRecord
100
AcDbLayerTableRecord
2
ST-PT-CABLE
70
0
62
3
6
CONTINUOUS
370
50
390
103
0
LAYER
5
14B
330
11A
100
AcDbSymbolTableRecord
100
AcDbLayerTableRecord
2
ST-PT-TEXT
70
0
62
3
6
CONTINUOUS
370
-3
390
103
0
LAYER
5
14C
330
11A
100
AcDbSymbolTableRecord
100
AcDbLayerTableRecord
2
ST-XREF
70
0
62
7
6
CONTINUOUS
370
-3
390
103
0
ENDTAB
0
TABLE
2
STYLE
5
14D
330
0
100
AcDbSymbolTable
70
3
0
STYLE
5
14E
330
14D
100
AcDbSymbolTableRecord
100
AcDbTextStyleTableRecord
2
STANDARD
70
0
40
0
41
1
50
0
71
0
42
2.5
3
arial.ttf
4

0
STYLE
5
14F
330
14D
100
AcDbSymbolTableRecord
100
AcDbTextStyleTableRecord
2
ST-REBAR
70
0
40
0
41
1
50
0
71
0
42
2.5
3
romans.shx
4

0
STYLE
5
150
330
14D
100
AcDbSymbolTableRecord
100
AcDbTextStyleTableRecord
2
ST-TITLE
70
0
40
0
41
1
50
0
71
0
42
2.5
3
arial.ttf
4

0
ENDTAB
0
TABLE
2
VIEW
5
151
330
0
100
AcDbSymbolTable
70
0
0
ENDTAB
0
TABLE
2
UCS
5
152
330
0
100
AcDbSymbolTable
70
0
0
ENDTAB
0
TABLE
2
APPID
5
153
330
0
100
AcDbSymbolTable
70
1
0
APPID
5
154
330
153
100
AcDbSymbolTableRecord
100
AcDbRegAppTableRecord
2
ACAD
70
0
0
ENDTAB
0
TABLE
2
DIMSTYLE
5
155
330
0
100
AcDbSymbolTable
70
1
100
AcDbDimStyleTable
0
DIMSTYLE
105
156
330
155
100
AcDbSymbolTableRecord
100
AcDbDimStyleTableRecord
2
STANDARD
70
0
40
1
41
2.5
42
0.625
43
3.75
44
1.25
140
2.5
141
2.5
147
0.625
0
ENDTAB
0
TABLE
2
BLOCK_RECORD
5
107
330
0
100
AcDbSymbolTable
70
3
0
BLOCK_RECORD
5
108
330
107
100
AcDbSymbolTableRecord
100
AcDbBlockTableRecord
2
*Model_Space
340
105
0
BLOCK_RECORD
5
109
330
107
100
AcDbSymbolTableRecord
100
AcDbBlockTableRecord
2
*Paper_Space
340
106
0
BLOCK_RECORD
5
10E
330
107
100
AcDbSymbolTableRecord
100
AcDbBlockTableRecord
2
FRAMING_REBAR_SLAB_PT_BOTTOM_L02
340
0
0
ENDTAB
0
ENDSEC
0
SECTION
2
BLOCKS
0
BLOCK
5
10A
330
108
100
AcDbEntity
8
0
100
AcDbBlockBegin
2
*Model_Space
70
0
10
0
20
0
30
0
3
*Model_Space
1

0
ENDBLK
5
10B
330
108
100
AcDbEntity
8
0
100
AcDbBlockEnd
0
BLOCK
5
10C
330
109
100
AcDbEntity
67
1
8
0
100
AcDbBlockBegin
2
*Paper_Space
70
0
10
0
20
0
30
0
3
*Paper_Space
1

0
ENDBLK
5
10D
330
109
100
AcDbEntity
67
1
8
0
100
AcDbBlockEnd
0
BLOCK
5
157
330
10E
100
AcDbEntity
8
0
100
AcDbBlockBegin
2
FRAMING_REBAR_SLAB_PT_BOTTOM_L02
70
0
10
0
20
0
30
0
3
FRAMING_REBAR_SLAB_PT_BOTTOM_L02
1

0
LWPOLYLINE
5
158
330
10E
100
AcDbEntity
8
ST-SHEET-FRAME
370
13
100
AcDbPolyline
90
4
70
1
43
0
10
0
20
0
10
126150
20
0
10
126150
20
89100
10
0
20
89100
0
LWPOLYLINE
5
159
330
10E
100
AcDbEntity
8
ST-SHEET-FRAME
100
AcDbPolyline
90
4
70
1
43
0
10
3000
20
1500
10
124650
20
1500
10
124650
20
87600
10
3000
20
87600
0
LINE
5
15A
330
10E
100
AcDbEntity
8
ST-SHEET-FRAME
100
AcDbLine
10
63075
20
0
30
0
11
63075
21
900
31
0
0
LINE
5
15B
330
10E
100
AcDbEntity
8
ST-SHEET-FRAME
100
AcDbLine
10
63075
20
89100
30
0
11
63075
21
88200
31
0
0
LINE
5
15C
330
10E
100
AcDbEntity
8
ST-SHEET-FRAME
100
AcDbLine
10
0
20
44550
30
0
11
900
21
44550
31
0
0
LINE
5
15D
330
10E
100
AcDbEntity
8
ST-SHEET-FRAME
100
AcDbLine
10
126150
20
44550
30
0
11
125250
21
44550
31
0
0
LINE
5
15E
330
10E
100
AcDbEntity
8
ST-SHEET-FRAME
370
13
100
AcDbLine
10
3000
20
87600
30
0
11
3000
21
89100
31
0
0
LINE
5
15F
330
10E
100
AcDbEntity
8
ST-SHEET-FRAME
370
13
100
AcDbLine
10
3000
20
0
30
0
11
3000
21
1500
31
0
0
TEXT
5
160
330
10E
100
AcDbEntity
8
ST-SHEET-FRAME
100
AcDbText
10
10603.125
20
88350
30
0
40
375
1
1
7
STANDARD
72
1
11
10603.125
21
88350
31
0
100
AcDbText
73
2
0
TEXT
5
161
330
10E
100
AcDbEntity
8
ST-SHEET-FRAME
100
AcDbText
10
10603.125
20
750
30
0
40
375
1
1
7
STANDARD
72
1
11
10603.125
21
750
31
0
100
AcDbText
73
2
0
LINE
5
162
330
10E
100
AcDbEntity
8
ST-SHEET-FRAME
370
13
100
AcDbLine
10
18206.25
20
87600
30
0
11
18206.25
21
89100
31
0
0
LINE
5
163
330
10E
100
AcDbEntity
8
ST-SHEET-FRAME
370
13
100
AcDbLine
10
18206.25
20
0
30
0
11
18206.25
21
1500
31
0
0
TEXT
5
164
330
10E
100
AcDbEntity
8
ST-SHEET-FRAME
100
AcDbText
10
25809.375
20
88350
30
0
40
375
1
2
7
STANDARD
72
1
11
25809.375
21
88350
31
0
100
AcDbText
73
2
0
TEXT
5
165
330
10E
100
AcDbEntity
8
ST-SHEET-FRAME
100
AcDbText
10
25809.375
20
750
30
0
40
375
1
2
7
STANDARD
72
1
11
25809.375
21
750
31
0
100
AcDbText
73
2
0
LINE
5
166
330
10E
100
AcDbEntity
8
ST-SHEET-FRAME
370
13
100
AcDbLine
10
33412.5
20
87600
30
0
11
33412.5
21
89100
31
0
0
LINE
5
167
330
10E
100
AcDbEntity
8
ST-SHEET-FRAME
370
13
100
AcDbLine
10
33412.5
20
0
30
0
11
33412.5
21
1500
31
0
0
TEXT
5
168
330
10E
100
AcDbEntity
8
ST-SHEET-FRAME
100
AcDbText
10
41015.625
20
88350
30
0
40
375
1
3
7
STANDARD
72
1
11
41015.625
21
88350
31
0
100
AcDbText
73
2
0
TEXT
5
169
330
10E
100
AcDbEntity
8
ST-SHEET-FRAME
100
AcDbText
10
41015.625
20
750
30
0
40
375
1
3
7
STANDARD
72
1
11
41015.625
21
750
31
0
100
AcDbText
73
2
0
LINE
5
16A
330
10E
100
AcDbEntity
8
ST-SHEET-FRAME
370
13
100
AcDbLine
10
48618.75
20
87600
30
0
11
48618.75
21
89100
31
0
0
LINE
5
16B
330
10E
100
AcDbEntity
8
ST-SHEET-FRAME
370
13
100
AcDbLine
10
48618.75
20
0
30
0
11
48618.75
21
1500
31
0
0
TEXT
5
16C
330
10E
100
AcDbEntity
8
ST-SHEET-FRAME
100
AcDbText
10
56221.875
20
88350
30
0
40
375
1
4
7
STANDARD
72
1
11
56221.875
21
88350
31
0
100
AcDbText
73
2
0
TEXT
5
16D
330
10E
100
AcDbEntity
8
ST-SHEET-FRAME
100
AcDbText
10
56221.875
20
750
30
0
40
375
1
4
7
STANDARD
72
1
11
56221.875
21
750
31
0
100
AcDbText
73
2
0
LINE
5
16E
330
10E
100
AcDbEntity
8
ST-SHEET-FRAME
370
13
100
AcDbLine
10
63825
20
87600
30
0
11
63825
21
89100
31
0
0
LINE
5
16F
330
10E
100
AcDbEntity
8
ST-SHEET-FRAME
370
13
100
AcDbLine
10
63825
20
0
30
0
11
63825
21
1500
31
0
0
TEXT
5
170
330
10E
100
AcDbEntity
8
ST-SHEET-FRAME
100
AcDbText
10
71428.125
20
88350
30
0
40
375
1
5
7
STANDARD
72
1
11
71428.125
21
88350
31
0
100
AcDbText
73
2
0
TEXT
5
171
330
10E
100
AcDbEntity
8
ST-SHEET-FRAME
100
AcDbText
10
71428.125
20
750
30
0
40
375
1
5
7
STANDARD
72
1
11
71428.125
21
750
31
0
100
AcDbText
73
2
0
LINE
5
172
330
10E
100
AcDbEntity
8
ST-SHEET-FRAME
370
13
100
AcDbLine
10
79031.25
20
87600
30
0
11
79031.25
21
89100
31
0
0
LINE
5
173
330
10E
100
AcDbEntity
8
ST-SHEET-FRAME
370
13
100
AcDbLine
10
79031.25
20
0
30
0
11
79031.25
21
1500
31
0
0
TEXT
5
174
330
10E
100
AcDbEntity
8
ST-SHEET-FRAME
100
AcDbText
10
86634.375
20
88350
30
0
40
375
1
6
7
STANDARD
72
1
11
86634.375
21
88350
31
0
100
AcDbText
73
2
0
TEXT
5
175
330
10E
100
AcDbEntity
8
ST-SHEET-FRAME
100
AcDbText
10
86634.375
20
750
30
0
40
375
1
6
7
STANDARD
72
1
11
86634.375
21
750
31
0
100
AcDbText
73
2
0
LINE
5
176
330
10E
100
AcDbEntity
8
ST-SHEET-FRAME
370
13
100
AcDbLine
10
94237.5
20
87600
30
0
11
94237.5
21
89100
31
0
0
LINE
5
177
330
10E
100
AcDbEntity
8
ST-SHEET-FRAME
370
13
100
AcDbLine
10
94237.5
20
0
30
0
11
94237.5
21
1500
31
0
0
TEXT
5
178
330
10E
100
AcDbEntity
8
ST-SHEET-FRAME
100
AcDbText
10
101840.625
20
88350
30
0
40
375
1
7
7
STANDARD
72
1
11
101840.625
21
88350
31
0
100
AcDbText
73
2
0
TEXT
5
179
330
10E
100
AcDbEntity
8
ST-SHEET-FRAME
100
AcDbText
10
101840.625
20
750
30
0
40
375
1
7
7
STANDARD
72
1
11
101840.625
21
750
31
0
100
AcDbText
73
2
0
LINE
5
17A
330
10E
100
AcDbEntity
8
ST-SHEET-FRAME
370
13
100
AcDbLine
10
109443.75
20
87600
30
0
11
109443.75
21
89100
31
0
0
LINE
5
17B
330
10E
100
AcDbEntity
8
ST-SHEET-FRAME
370
13
100
AcDbLine
10
109443.75
20
0
30
0
11
109443.75
21
1500
31
0
0
TEXT
5
17C
330
10E
100
AcDbEntity
8
ST-SHEET-FRAME
100
AcDbText
10
117046.875
20
88350
30
0
40
375
1
8
7
STANDARD
72
1
11
117046.875
21
88350
31
0
100
AcDbText
73
2
0
TEXT
5
17D
330
10E
100
AcDbEntity
8
ST-SHEET-FRAME
100
AcDbText
10
117046.875
20
750
30
0
40
375
1
8
7
STANDARD
72
1
11
117046.875
21
750
31
0
100
AcDbText
73
2
0
LINE
5
17E
330
10E
100
AcDbEntity
8
ST-SHEET-FRAME
370
13
100
AcDbLine
10
124650
20
87600
30
0
11
124650
21
89100
31
0
0
LINE
5
17F
330
10E
100
AcDbEntity
8
ST-SHEET-FRAME
370
13
100
AcDbLine
10
124650
20
0
30
0
11
124650
21
1500
31
0
0
LINE
5
180
330
10E
100
AcDbEntity
8
ST-SHEET-FRAME
370
13
100
AcDbLine
10
0
20
1500
30
0
11
3000
21
1500
31
0
0
LINE
5
181
330
10E
100
AcDbEntity
8
ST-SHEET-FRAME
370
13
100
AcDbLine
10
124650
20
1500
30
0
11
126150
21
1500
31
0
0
TEXT
5
182
330
10E
100
AcDbEntity
8
ST-SHEET-FRAME
100
AcDbText
10
1500
20
8675
30
0
40
375
1
F
7
STANDARD
72
1
11
1500
21
8675
31
0
100
AcDbText
73
2
0
TEXT
5
183
330
10E
100
AcDbEntity
8
ST-SHEET-FRAME
100
AcDbText
10
125400
20
8675
30
0
40
375
1
F
7
STANDARD
72
1
11
125400
21
8675
31
0
100
AcDbText
73
2
0
LINE
5
184
330
10E
100
AcDbEntity
8
ST-SHEET-FRAME
370
13
100
AcDbLine
10
0
20
15850
30
0
11
3000
21
15850
31
0
0
LINE
5
185
330
10E
100
AcDbEntity
8
ST-SHEET-FRAME
370
13
100
AcDbLine
10
124650
20
15850
30
0
11
126150
21
15850
31
0
0
TEXT
5
186
330
10E
100
AcDbEntity
8
ST-SHEET-FRAME
100
AcDbText
10
1500
20
23025
30
0
40
375
1
E
7
STANDARD
72
1
11
1500
21
23025
31
0
100
AcDbText
73
2
0
TEXT
5
187
330
10E
100
AcDbEntity
8
ST-SHEET-FRAME
100
AcDbText
10
125400
20
23025
30
0
40
375
1
E
7
STANDARD
72
1
11
125400
21
23025
31
0
100
AcDbText
73
2
0
LINE
5
188
330
10E
100
AcDbEntity
8
ST-SHEET-FRAME
370
13
100
AcDbLine
10
0
20
30200
30
0
11
3000
21
30200
31
0
0
LINE
5
189
330
10E
100
AcDbEntity
8
ST-SHEET-FRAME
370
13
100
AcDbLine
10
124650
20
30200
30
0
11
126150
21
30200
31
0
0
TEXT
5
18A
330
10E
100
AcDbEntity
8
ST-SHEET-FRAME
100
AcDbText
10
1500
20
37375
30
0
40
375
1
D
7
STANDARD
72
1
11
1500
21
37375
31
0
100
AcDbText
73
2
0
TEXT
5
18B
330
10E
100
AcDbEntity
8
ST-SHEET-FRAME
100
AcDbText
10
125400
20
37375
30
0
40
375
1
D
7
STANDARD
72
1
11
125400
21
37375
31
0
100
AcDbText
73
2
0
LINE
5
18C
330
10E
100
AcDbEntity
8
ST-SHEET-FRAME
370
13
100
AcDbLine
10
0
20
44550
30
0
11
3000
21
44550
31
0
0
LINE
5
18D
330
10E
100
AcDbEntity
8
ST-SHEET-FRAME
370
13
100
AcDbLine
10
124650
20
44550
30
0
11
126150
21
44550
31
0
0
TEXT
5
18E
330
10E
100
AcDbEntity
8
ST-SHEET-FRAME
100
AcDbText
10
1500
20
51725
30
0
40
375
1
C
7
STANDARD
72
1
11
1500
21
51725
31
0
100
AcDbText
73
2
0
TEXT
5
18F
330
10E
100
AcDbEntity
8
ST-SHEET-FRAME
100
AcDbText
10
125400
20
51725
30
0
40
375
1
C
7
STANDARD
72
1
11
125400
21
51725
31
0
100
AcDbText
73
2
0
LINE
5
190
330
10E
100
AcDbEntity
8
ST-SHEET-FRAME
370
13
100
AcDbLine
10
0
20
58900
30
0
11
3000
21
58900
31
0
0
LINE
5
191
330
10E
100
AcDbEntity
8
ST-SHEET-FRAME
370
13
100
AcDbLine
10
124650
20
58900
30
0
11
126150
21
58900
31
0
0
TEXT
5
192
330
10E
100
AcDbEntity
8
ST-SHEET-FRAME
100
AcDbText
10
1500
20
66075
30
0
40
375
1
B
7
STANDARD
72
1
11
1500
21
66075
31
0
100
AcDbText
73
2
0
TEXT
5
193
330
10E
100
AcDbEntity
8
ST-SHEET-FRAME
100
AcDbText
10
125400
20
66075
30
0
40
375
1
B
7
STANDARD
72
1
11
125400
21
66075
31
0
100
AcDbText
73
2
0
LINE
5
194
330
10E
100
AcDbEntity
8
ST-SHEET-FRAME
370
13
100
AcDbLine
10
0
20
73250
30
0
11
3000
21
73250
31
0
0
LINE
5
195
330
10E
100
AcDbEntity
8
ST-SHEET-FRAME
370
13
100
AcDbLine
10
124650
20
73250
30
0
11
126150
21
73250
31
0
0
TEXT
5
196
330
10E
100
AcDbEntity
8
ST-SHEET-FRAME
100
AcDbText
10
1500
20
80425
30
0
40
375
1
A
7
STANDARD
72
1
11
1500
21
80425
31
0
100
AcDbText
73
2
0
TEXT
5
197
330
10E
100
AcDbEntity
8
ST-SHEET-FRAME
100
AcDbText
10
125400
20
80425
30
0
40
375
1
A
7
STANDARD
72
1
11
125400
21
80425
31
0
100
AcDbText
73
2
0
LINE
5
198
330
10E
100
AcDbEntity
8
ST-SHEET-FRAME
370
13
100
AcDbLine
10
0
20
87600
30
0
11
3000
21
87600
31
0
0
LINE
5
199
330
10E
100
AcDbEntity
8
ST-SHEET-FRAME
370
13
100
AcDbLine
10
124650
20
87600
30
0
11
126150
21
87600
31
0
0
LINE
5
19A
330
10E
100
AcDbEntity
8
ST-SHEET-FRAME
100
AcDbLine
10
96900
20
1500
30
0
11
96900
21
87600
31
0
0
LINE
5
19B
330
10E
100
AcDbEntity
8
ST-SHEET-FRAME
100
AcDbLine
10
3000
20
20250
30
0
11
96900
21
20250
31
0
0
LINE
5
19C
330
10E
100
AcDbEntity
8
ST-SHEET-FRAME
100
AcDbLine
10
96900
20
24000
30
0
11
124650
21
24000
31
0
0
LINE
5
19D
330
10E
100
AcDbEntity
8
ST-SHEET-FRAME
100
AcDbLine
10
96900
20
31800
30
0
11
124650
21
31800
31
0
0
LINE
5
19E
330
10E
100
AcDbEntity
8
ST-SHEET-FRAME
100
AcDbLine
10
96900
20
59700
30
0
11
124650
21
59700
31
0
0
LINE
5
19F
330
10E
100
AcDbEntity
8
ST-SHEET-FRAME
100
AcDbLine
10
96900
20
80700
30
0
11
124650
21
80700
31
0
0
LINE
5
1A0
330
10E
100
AcDbEntity
8
ST-GRID
100
AcDbLine
10
11725
20
38975
30
0
11
11725
21
70975
31
0
0
CIRCLE
5
1A1
330
10E
100
AcDbEntity
8
ST-GRID-BUBBLE
100
AcDbCircle
10
11725
20
71575
30
0
40
600
0
TEXT
5
1A2
330
10E
100
AcDbEntity
8
ST-TEXT
100
AcDbText
10
11725
20
71575
30
0
40
450
1
A
7
STANDARD
72
1
11
11725
21
71575
31
0
100
AcDbText
73
2
0
CIRCLE
5
1A3
330
10E
100
AcDbEntity
8
ST-GRID-BUBBLE
100
AcDbCircle
10
11725
20
38375
30
0
40
600
0
TEXT
5
1A4
330
10E
100
AcDbEntity
8
ST-TEXT
100
AcDbText
10
11725
20
38375
30
0
40
450
1
A
7
STANDARD
72
1
11
11725
21
38375
31
0
100
AcDbText
73
2
0
LINE
5
1A5
330
10E
100
AcDbEntity
8
ST-GRID
100
AcDbLine
10
19225
20
38975
30
0
11
19225
21
70975
31
0
0
CIRCLE
5
1A6
330
10E
100
AcDbEntity
8
ST-GRID-BUBBLE
100
AcDbCircle
10
19225
20
71575
30
0
40
600
0
TEXT
5
1A7
330
10E
100
AcDbEntity
8
ST-TEXT
100
AcDbText
10
19225
20
71575
30
0
40
450
1
B
7
STANDARD
72
1
11
19225
21
71575
31
0
100
AcDbText
73
2
0
CIRCLE
5
1A8
330
10E
100
AcDbEntity
8
ST-GRID-BUBBLE
100
AcDbCircle
10
19225
20
38375
30
0
40
600
0
TEXT
5
1A9
330
10E
100
AcDbEntity
8
ST-TEXT
100
AcDbText
10
19225
20
38375
30
0
40
450
1
B
7
STANDARD
72
1
11
19225
21
38375
31
0
100
AcDbText
73
2
0
LINE
5
1AA
330
10E
100
AcDbEntity
8
ST-GRID
100
AcDbLine
10
26725
20
38975
30
0
11
26725
21
70975
31
0
0
CIRCLE
5
1AB
330
10E
100
AcDbEntity
8
ST-GRID-BUBBLE
100
AcDbCircle
10
26725
20
71575
30
0
40
600
0
TEXT
5
1AC
330
10E
100
AcDbEntity
8
ST-TEXT
100
AcDbText
10
26725
20
71575
30
0
40
450
1
C
7
STANDARD
72
1
11
26725
21
71575
31
0
100
AcDbText
73
2
0
CIRCLE
5
1AD
330
10E
100
AcDbEntity
8
ST-GRID-BUBBLE
100
AcDbCircle
10
26725
20
38375
30
0
40
600
0
TEXT
5
1AE
330
10E
100
AcDbEntity
8
ST-TEXT
100
AcDbText
10
26725
20
38375
30
0
40
450
1
C
7
STANDARD
72
1
11
26725
21
38375
31
0
100
AcDbText
73
2
0
LINE
5
1AF
330
10E
100
AcDbEntity
8
ST-GRID
100
AcDbLine
10
34225
20
38975
30
0
11
34225
21
70975
31
0
0
CIRCLE
5
1B0
330
10E
100
AcDbEntity
8
ST-GRID-BUBBLE
100
AcDbCircle
10
34225
20
71575
30
0
40
600
0
TEXT
5
1B1
330
10E
100
AcDbEntity
8
ST-TEXT
100
AcDbText
10
34225
20
71575
30
0
40
450
1
D
7
STANDARD
72
1
11
34225
21
71575
31
0
100
AcDbText
73
2
0
CIRCLE
5
1B2
330
10E
100
AcDbEntity
8
ST-GRID-BUBBLE
100
AcDbCircle
10
34225
20
38375
30
0
40
600
0
TEXT
5
1B3
330
10E
100
AcDbEntity
8
ST-TEXT
100
AcDbText
10
34225
20
38375
30
0
40
450
1
D
7
STANDARD
72
1
11
34225
21
38375
31
0
100
AcDbText
73
2
0
LINE
5
1B4
330
10E
100
AcDbEntity
8
ST-GRID
100
AcDbLine
10
41725
20
38975
30
0
11
41725
21
70975
31
0
0
CIRCLE
5
1B5
330
10E
100
AcDbEntity
8
ST-GRID-BUBBLE
100
AcDbCircle
10
41725
20
71575
30
0
40
600
0
TEXT
5
1B6
330
10E
100
AcDbEntity
8
ST-TEXT
100
AcDbText
10
41725
20
71575
30
0
40
450
1
E
7
STANDARD
72
1
11
41725
21
71575
31
0
100
AcDbText
73
2
0
CIRCLE
5
1B7
330
10E
100
AcDbEntity
8
ST-GRID-BUBBLE
100
AcDbCircle
10
41725
20
38375
30
0
40
600
0
TEXT
5
1B8
330
10E
100
AcDbEntity
8
ST-TEXT
100
AcDbText
10
41725
20
38375
30
0
40
450
1
E
7
STANDARD
72
1
11
41725
21
38375
31
0
100
AcDbText
73
2
0
LINE
5
1B9
330
10E
100
AcDbEntity
8
ST-GRID
100
AcDbLine
10
7225
20
42975
30
0
11
45725
21
42975
31
0
0
CIRCLE
5
1BA
330
10E
100
AcDbEntity
8
ST-GRID-BUBBLE
100
AcDbCircle
10
6625
20
42975
30
0
40
600
0
TEXT
5
1BB
330
10E
100
AcDbEntity
8
ST-TEXT
100
AcDbText
10
6625
20
42975
30
0
40
450
1
1
7
STANDARD
72
1
11
6625
21
42975
31
0
100
AcDbText
73
2
0
CIRCLE
5
1BC
330
10E
100
AcDbEntity
8
ST-GRID-BUBBLE
100
AcDbCircle
10
46325
20
42975
30
0
40
600
0
TEXT
5
1BD
330
10E
100
AcDbEntity
8
ST-TEXT
100
AcDbText
10
46325
20
42975
30
0
40
450
1
1
7
STANDARD
72
1
11
46325
21
42975
31
0
100
AcDbText
73
2
0
LINE
5
1BE
330
10E
100
AcDbEntity
8
ST-GRID
100
AcDbLine
10
7225
20
50975
30
0
11
45725
21
50975
31
0
0
CIRCLE
5
1BF
330
10E
100
AcDbEntity
8
ST-GRID-BUBBLE
100
AcDbCircle
10
6625
20
50975
30
0
40
600
0
TEXT
5
1C0
330
10E
100
AcDbEntity
8
ST-TEXT
100
AcDbText
10
6625
20
50975
30
0
40
450
1
2
7
STANDARD
72
1
11
6625
21
50975
31
0
100
AcDbText
73
2
0
CIRCLE
5
1C1
330
10E
100
AcDbEntity
8
ST-GRID-BUBBLE
100
AcDbCircle
10
46325
20
50975
30
0
40
600
0
TEXT
5
1C2
330
10E
100
AcDbEntity
8
ST-TEXT
100
AcDbText
10
46325
20
50975
30
0
40
450
1
2
7
STANDARD
72
1
11
46325
21
50975
31
0
100
AcDbText
73
2
0
LINE
5
1C3
330
10E
100
AcDbEntity
8
ST-GRID
100
AcDbLine
10
7225
20
58975
30
0
11
45725
21
58975
31
0
0
CIRCLE
5
1C4
330
10E
100
AcDbEntity
8
ST-GRID-BUBBLE
100
AcDbCircle
10
6625
20
58975
30
0
40
600
0
TEXT
5
1C5
330
10E
100
AcDbEntity
8
ST-TEXT
100
AcDbText
10
6625
20
58975
30
0
40
450
1
3
7
STANDARD
72
1
11
6625
21
58975
31
0
100
AcDbText
73
2
0
CIRCLE
5
1C6
330
10E
100
AcDbEntity
8
ST-GRID-BUBBLE
100
AcDbCircle
10
46325
20
58975
30
0
40
600
0
TEXT
5
1C7
330
10E
100
AcDbEntity
8
ST-TEXT
100
AcDbText
10
46325
20
58975
30
0
40
450
1
3
7
STANDARD
72
1
11
46325
21
58975
31
0
100
AcDbText
73
2
0
LINE
5
1C8
330
10E
100
AcDbEntity
8
ST-GRID
100
AcDbLine
10
7225
20
66975
30
0
11
45725
21
66975
31
0
0
CIRCLE
5
1C9
330
10E
100
AcDbEntity
8
ST-GRID-BUBBLE
100
AcDbCircle
10
6625
20
66975
30
0
40
600
0
TEXT
5
1CA
330
10E
100
AcDbEntity
8
ST-TEXT
100
AcDbText
10
6625
20
66975
30
0
40
450
1
4
7
STANDARD
72
1
11
6625
21
66975
31
0
100
AcDbText
73
2
0
CIRCLE
5
1CB
330
10E
100
AcDbEntity
8
ST-GRID-BUBBLE
100
AcDbCircle
10
46325
20
66975
30
0
40
600
0
TEXT
5
1CC
330
10E
100
AcDbEntity
8
ST-TEXT
100
AcDbText
10
46325
20
66975
30
0
40
450
1
4
7
STANDARD
72
1
11
46325
21
66975
31
0
100
AcDbText
73
2
0
LWPOLYLINE
5
1CD
330
10E
100
AcDbEntity
8
ST-SLAB-EDGE
62
3
100
AcDbPolyline
90
4
70
1
43
0
10
10225
20
41975
10
42725
20
41975
10
42725
20
67975
10
10225
20
67975
0
LWPOLYLINE
5
1CE
330
10E
100
AcDbEntity
8
ST-PT-ZONE
100
AcDbPolyline
90
4
70
1
43
0
10
10225
20
41975
10
42725
20
41975
10
42725
20
67975
10
10225
20
67975
0
TEXT
5
1CF
330
10E
100
AcDbEntity
8
ST-PT-ZONE
100
AcDbText
10
10825
20
67075
30
0
40
330
1
PT1 - PT SLAB ZONE
7
STANDARD
72
0
100
AcDbText
73
0
0
LWPOLYLINE
5
1D0
330
10E
100
AcDbEntity
8
ST-COL
100
AcDbPolyline
90
4
70
1
43
0
10
11425
20
66675
10
12025
20
66675
10
12025
20
67275
10
11425
20
67275
0
HATCH
5
1D1
330
10E
100
AcDbEntity
8
ST-COL-HATCH
62
7
100
AcDbHatch
10
0
20
0
30
0
210
0
220
0
230
1
2
SOLID
70
1
71
0
91
1
92
3
72
0
73
1
93
4
10
11425
20
66675
10
12025
20
66675
10
12025
20
67275
10
11425
20
67275
97
0
75
1
76
1
47
1
98
0
0
LWPOLYLINE
5
1D2
330
10E
100
AcDbEntity
8
ST-COL
100
AcDbPolyline
90
4
70
1
43
0
10
18925
20
66675
10
19525
20
66675
10
19525
20
67275
10
18925
20
67275
0
HATCH
5
1D3
330
10E
100
AcDbEntity
8
ST-COL-HATCH
62
7
100
AcDbHatch
10
0
20
0
30
0
210
0
220
0
230
1
2
SOLID
70
1
71
0
91
1
92
3
72
0
73
1
93
4
10
18925
20
66675
10
19525
20
66675
10
19525
20
67275
10
18925
20
67275
97
0
75
1
76
1
47
1
98
0
0
LWPOLYLINE
5
1D4
330
10E
100
AcDbEntity
8
ST-COL
100
AcDbPolyline
90
4
70
1
43
0
10
26425
20
66675
10
27025
20
66675
10
27025
20
67275
10
26425
20
67275
0
HATCH
5
1D5
330
10E
100
AcDbEntity
8
ST-COL-HATCH
62
7
100
AcDbHatch
10
0
20
0
30
0
210
0
220
0
230
1
2
SOLID
70
1
71
0
91
1
92
3
72
0
73
1
93
4
10
26425
20
66675
10
27025
20
66675
10
27025
20
67275
10
26425
20
67275
97
0
75
1
76
1
47
1
98
0
0
LWPOLYLINE
5
1D6
330
10E
100
AcDbEntity
8
ST-COL
100
AcDbPolyline
90
4
70
1
43
0
10
33925
20
66675
10
34525
20
66675
10
34525
20
67275
10
33925
20
67275
0
HATCH
5
1D7
330
10E
100
AcDbEntity
8
ST-COL-HATCH
62
7
100
AcDbHatch
10
0
20
0
30
0
210
0
220
0
230
1
2
SOLID
70
1
71
0
91
1
92
3
72
0
73
1
93
4
10
33925
20
66675
10
34525
20
66675
10
34525
20
67275
10
33925
20
67275
97
0
75
1
76
1
47
1
98
0
0
LWPOLYLINE
5
1D8
330
10E
100
AcDbEntity
8
ST-COL
100
AcDbPolyline
90
4
70
1
43
0
10
41425
20
66675
10
42025
20
66675
10
42025
20
67275
10
41425
20
67275
0
HATCH
5
1D9
330
10E
100
AcDbEntity
8
ST-COL-HATCH
62
7
100
AcDbHatch
10
0
20
0
30
0
210
0
220
0
230
1
2
SOLID
70
1
71
0
91
1
92
3
72
0
73
1
93
4
10
41425
20
66675
10
42025
20
66675
10
42025
20
67275
10
41425
20
67275
97
0
75
1
76
1
47
1
98
0
0
LWPOLYLINE
5
1DA
330
10E
100
AcDbEntity
8
ST-COL
100
AcDbPolyline
90
4
70
1
43
0
10
11425
20
58675
10
12025
20
58675
10
12025
20
59275
10
11425
20
59275
0
HATCH
5
1DB
330
10E
100
AcDbEntity
8
ST-COL-HATCH
62
7
100
AcDbHatch
10
0
20
0
30
0
210
0
220
0
230
1
2
SOLID
70
1
71
0
91
1
92
3
72
0
73
1
93
4
10
11425
20
58675
10
12025
20
58675
10
12025
20
59275
10
11425
20
59275
97
0
75
1
76
1
47
1
98
0
0
LWPOLYLINE
5
1DC
330
10E
100
AcDbEntity
8
ST-COL
100
AcDbPolyline
90
4
70
1
43
0
10
18925
20
58675
10
19525
20
58675
10
19525
20
59275
10
18925
20
59275
0
HATCH
5
1DD
330
10E
100
AcDbEntity
8
ST-COL-HATCH
62
7
100
AcDbHatch
10
0
20
0
30
0
210
0
220
0
230
1
2
SOLID
70
1
71
0
91
1
92
3
72
0
73
1
93
4
10
18925
20
58675
10
19525
20
58675
10
19525
20
59275
10
18925
20
59275
97
0
75
1
76
1
47
1
98
0
0
LWPOLYLINE
5
1DE
330
10E
100
AcDbEntity
8
ST-COL
100
AcDbPolyline
90
4
70
1
43
0
10
26425
20
58675
10
27025
20
58675
10
27025
20
59275
10
26425
20
59275
0
HATCH
5
1DF
330
10E
100
AcDbEntity
8
ST-COL-HATCH
62
7
100
AcDbHatch
10
0
20
0
30
0
210
0
220
0
230
1
2
SOLID
70
1
71
0
91
1
92
3
72
0
73
1
93
4
10
26425
20
58675
10
27025
20
58675
10
27025
20
59275
10
26425
20
59275
97
0
75
1
76
1
47
1
98
0
0
LWPOLYLINE
5
1E0
330
10E
100
AcDbEntity
8
ST-COL
100
AcDbPolyline
90
4
70
1
43
0
10
33925
20
58675
10
34525
20
58675
10
34525
20
59275
10
33925
20
59275
0
HATCH
5
1E1
330
10E
100
AcDbEntity
8
ST-COL-HATCH
62
7
100
AcDbHatch
10
0
20
0
30
0
210
0
220
0
230
1
2
SOLID
70
1
71
0
91
1
92
3
72
0
73
1
93
4
10
33925
20
58675
10
34525
20
58675
10
34525
20
59275
10
33925
20
59275
97
0
75
1
76
1
47
1
98
0
0
LWPOLYLINE
5
1E2
330
10E
100
AcDbEntity
8
ST-COL
100
AcDbPolyline
90
4
70
1
43
0
10
41425
20
58675
10
42025
20
58675
10
42025
20
59275
10
41425
20
59275
0
HATCH
5
1E3
330
10E
100
AcDbEntity
8
ST-COL-HATCH
62
7
100
AcDbHatch
10
0
20
0
30
0
210
0
220
0
230
1
2
SOLID
70
1
71
0
91
1
92
3
72
0
73
1
93
4
10
41425
20
58675
10
42025
20
58675
10
42025
20
59275
10
41425
20
59275
97
0
75
1
76
1
47
1
98
0
0
LWPOLYLINE
5
1E4
330
10E
100
AcDbEntity
8
ST-COL
100
AcDbPolyline
90
4
70
1
43
0
10
11425
20
50675
10
12025
20
50675
10
12025
20
51275
10
11425
20
51275
0
HATCH
5
1E5
330
10E
100
AcDbEntity
8
ST-COL-HATCH
62
7
100
AcDbHatch
10
0
20
0
30
0
210
0
220
0
230
1
2
SOLID
70
1
71
0
91
1
92
3
72
0
73
1
93
4
10
11425
20
50675
10
12025
20
50675
10
12025
20
51275
10
11425
20
51275
97
0
75
1
76
1
47
1
98
0
0
LWPOLYLINE
5
1E6
330
10E
100
AcDbEntity
8
ST-COL
100
AcDbPolyline
90
4
70
1
43
0
10
18925
20
50675
10
19525
20
50675
10
19525
20
51275
10
18925
20
51275
0
HATCH
5
1E7
330
10E
100
AcDbEntity
8
ST-COL-HATCH
62
7
100
AcDbHatch
10
0
20
0
30
0
210
0
220
0
230
1
2
SOLID
70
1
71
0
91
1
92
3
72
0
73
1
93
4
10
18925
20
50675
10
19525
20
50675
10
19525
20
51275
10
18925
20
51275
97
0
75
1
76
1
47
1
98
0
0
LWPOLYLINE
5
1E8
330
10E
100
AcDbEntity
8
ST-COL
100
AcDbPolyline
90
4
70
1
43
0
10
26425
20
50675
10
27025
20
50675
10
27025
20
51275
10
26425
20
51275
0
HATCH
5
1E9
330
10E
100
AcDbEntity
8
ST-COL-HATCH
62
7
100
AcDbHatch
10
0
20
0
30
0
210
0
220
0
230
1
2
SOLID
70
1
71
0
91
1
92
3
72
0
73
1
93
4
10
26425
20
50675
10
27025
20
50675
10
27025
20
51275
10
26425
20
51275
97
0
75
1
76
1
47
1
98
0
0
LWPOLYLINE
5
1EA
330
10E
100
AcDbEntity
8
ST-COL
100
AcDbPolyline
90
4
70
1
43
0
10
33925
20
50675
10
34525
20
50675
10
34525
20
51275
10
33925
20
51275
0
HATCH
5
1EB
330
10E
100
AcDbEntity
8
ST-COL-HATCH
62
7
100
AcDbHatch
10
0
20
0
30
0
210
0
220
0
230
1
2
SOLID
70
1
71
0
91
1
92
3
72
0
73
1
93
4
10
33925
20
50675
10
34525
20
50675
10
34525
20
51275
10
33925
20
51275
97
0
75
1
76
1
47
1
98
0
0
LWPOLYLINE
5
1EC
330
10E
100
AcDbEntity
8
ST-COL
100
AcDbPolyline
90
4
70
1
43
0
10
41425
20
50675
10
42025
20
50675
10
42025
20
51275
10
41425
20
51275
0
HATCH
5
1ED
330
10E
100
AcDbEntity
8
ST-COL-HATCH
62
7
100
AcDbHatch
10
0
20
0
30
0
210
0
220
0
230
1
2
SOLID
70
1
71
0
91
1
92
3
72
0
73
1
93
4
10
41425
20
50675
10
42025
20
50675
10
42025
20
51275
10
41425
20
51275
97
0
75
1
76
1
47
1
98
0
0
LWPOLYLINE
5
1EE
330
10E
100
AcDbEntity
8
ST-COL
100
AcDbPolyline
90
4
70
1
43
0
10
11425
20
42675
10
12025
20
42675
10
12025
20
43275
10
11425
20
43275
0
HATCH
5
1EF
330
10E
100
AcDbEntity
8
ST-COL-HATCH
62
7
100
AcDbHatch
10
0
20
0
30
0
210
0
220
0
230
1
2
SOLID
70
1
71
0
91
1
92
3
72
0
73
1
93
4
10
11425
20
42675
10
12025
20
42675
10
12025
20
43275
10
11425
20
43275
97
0
75
1
76
1
47
1
98
0
0
LWPOLYLINE
5
1F0
330
10E
100
AcDbEntity
8
ST-COL
100
AcDbPolyline
90
4
70
1
43
0
10
18925
20
42675
10
19525
20
42675
10
19525
20
43275
10
18925
20
43275
0
HATCH
5
1F1
330
10E
100
AcDbEntity
8
ST-COL-HATCH
62
7
100
AcDbHatch
10
0
20
0
30
0
210
0
220
0
230
1
2
SOLID
70
1
71
0
91
1
92
3
72
0
73
1
93
4
10
18925
20
42675
10
19525
20
42675
10
19525
20
43275
10
18925
20
43275
97
0
75
1
76
1
47
1
98
0
0
LWPOLYLINE
5
1F2
330
10E
100
AcDbEntity
8
ST-COL
100
AcDbPolyline
90
4
70
1
43
0
10
26425
20
42675
10
27025
20
42675
10
27025
20
43275
10
26425
20
43275
0
HATCH
5
1F3
330
10E
100
AcDbEntity
8
ST-COL-HATCH
62
7
100
AcDbHatch
10
0
20
0
30
0
210
0
220
0
230
1
2
SOLID
70
1
71
0
91
1
92
3
72
0
73
1
93
4
10
26425
20
42675
10
27025
20
42675
10
27025
20
43275
10
26425
20
43275
97
0
75
1
76
1
47
1
98
0
0
LWPOLYLINE
5
1F4
330
10E
100
AcDbEntity
8
ST-COL
100
AcDbPolyline
90
4
70
1
43
0
10
33925
20
42675
10
34525
20
42675
10
34525
20
43275
10
33925
20
43275
0
HATCH
5
1F5
330
10E
100
AcDbEntity
8
ST-COL-HATCH
62
7
100
AcDbHatch
10
0
20
0
30
0
210
0
220
0
230
1
2
SOLID
70
1
71
0
91
1
92
3
72
0
73
1
93
4
10
33925
20
42675
10
34525
20
42675
10
34525
20
43275
10
33925
20
43275
97
0
75
1
76
1
47
1
98
0
0
LWPOLYLINE
5
1F6
330
10E
100
AcDbEntity
8
ST-COL
100
AcDbPolyline
90
4
70
1
43
0
10
41425
20
42675
10
42025
20
42675
10
42025
20
43275
10
41425
20
43275
0
HATCH
5
1F7
330
10E
100
AcDbEntity
8
ST-COL-HATCH
62
7
100
AcDbHatch
10
0
20
0
30
0
210
0
220
0
230
1
2
SOLID
70
1
71
0
91
1
92
3
72
0
73
1
93
4
10
41425
20
42675
10
42025
20
42675
10
42025
20
43275
10
41425
20
43275
97
0
75
1
76
1
47
1
98
0
0
LWPOLYLINE
5
1F8
330
10E
100
AcDbEntity
8
ST-OPENING
100
AcDbPolyline
90
4
70
1
43
0
10
21225
20
52475
10
24225
20
52475
10
24225
20
57475
10
21225
20
57475
0
LINE
5
1F9
330
10E
100
AcDbEntity
8
ST-OPENING
100
AcDbLine
10
21225
20
52475
30
0
11
24225
21
57475
31
0
0
LINE
5
1FA
330
10E
100
AcDbEntity
8
ST-OPENING
100
AcDbLine
10
24225
20
52475
30
0
11
21225
21
57475
31
0
0
LWPOLYLINE
5
1FB
330
10E
100
AcDbEntity
8
ST-OPENING
100
AcDbPolyline
90
4
70
1
43
0
10
35725
20
52975
10
38225
20
52975
10
38225
20
55475
10
35725
20
55475
0
LINE
5
1FC
330
10E
100
AcDbEntity
8
ST-OPENING
100
AcDbLine
10
35725
20
52975
30
0
11
38225
21
55475
31
0
0
LINE
5
1FD
330
10E
100
AcDbEntity
8
ST-OPENING
100
AcDbLine
10
38225
20
52975
30
0
11
35725
21
55475
31
0
0
LWPOLYLINE
5
1FE
330
10E
100
AcDbEntity
8
ST-VOID
100
AcDbPolyline
90
4
70
1
43
0
10
13725
20
59975
10
17725
20
59975
10
17725
20
62975
10
13725
20
62975
0
HATCH
5
1FF
330
10E
100
AcDbEntity
8
ST-VOID-HATCH
100
AcDbHatch
10
0
20
0
30
0
210
0
220
0
230
1
2
ANSI37
70
0
71
0
91
1
92
3
72
0
73
1
93
4
10
13725
20
59975
10
17725
20
59975
10
17725
20
62975
10
13725
20
62975
97
0
75
1
76
1
52
0
41
118.110236
77
0
78
2
53
45
43
0
44
0
45
-265.165043
46
265.165043
79
0
53
135
43
0
44
0
45
-265.165043
46
-265.165043
79
0
47
1
98
0
0
CIRCLE
5
200
330
10E
100
AcDbEntity
8
ST-RB-UBAR
6
DASHDOT
100
AcDbCircle
10
37725
20
46975
30
0
40
1200
0
CIRCLE
5
201
330
10E
100
AcDbEntity
8
ST-RB-UBAR
6
DASHDOT
100
AcDbCircle
10
15725
20
46975
30
0
40
900
0
TEXT
5
202
330
10E
100
AcDbEntity
8
ST-RB-MESH
100
AcDbText
10
16725
20
54975
30
0
40
390
1
\U+00D812@200-B1
7
STANDARD
72
1
11
16725
21
54975
31
0
100
AcDbText
73
2
0
TEXT
5
203
330
10E
100
AcDbEntity
8
ST-RB-MESH
100
AcDbText
10
26475
20
54975
30
0
40
390
1
\U+00D812@200-B1
7
STANDARD
72
1
11
26475
21
54975
31
0
100
AcDbText
73
2
0
TEXT
5
204
330
10E
100
AcDbEntity
8
ST-RB-MESH
100
AcDbText
10
36225
20
47175
30
0
40
390
1
\U+00D812@200-B1
7
STANDARD
72
1
11
36225
21
47175
31
0
100
AcDbText
73
2
0
TEXT
5
205
330
10E
100
AcDbEntity
8
ST-RB-MESH
100
AcDbText
10
21600
20
47175
30
0
40
390
1
\U+00D812@200-B1
7
STANDARD
72
1
11
21600
21
47175
31
0
100
AcDbText
73
2
0
LINE
5
206
330
10E
100
AcDbEntity
8
ST-RB-B1
100
AcDbLine
10
15750
20
42000
30
0
11
15750
21
54000
31
0
0
TEXT
5
207
330
10E
100
AcDbEntity
8
ST-RB-TEXT
100
AcDbText
10
15667.5
20
48000
30
0
40
315
1
55T12@200-B1-01-(L=12000)
50
90
7
ST-REBAR
72
1
11
15667.5
21
48000
31
0
100
AcDbText
73
0
0
TEXT
5
208
330
10E
100
AcDbEntity
8
ST-RB-TEXT
100
AcDbText
10
16080
20
48000
30
0
40
255
1
12000
50
90
7
ST-REBAR
72
1
11
16080
21
48000
31
0
100
AcDbText
73
0
0
LINE
5
209
330
10E
100
AcDbEntity
8
ST-RB-B1
100
AcDbLine
10
15750
20
54000
30
0
11
15750
21
65450
31
0
0
LINE
5
20A
330
10E
100
AcDbEntity
8
ST-RB-B1
100
AcDbLine
10
15600
20
53450
30
0
11
15600
21
54000
31
0
0
TEXT
5
20B
330
10E
100
AcDbEntity
8
ST-RB-TEXT
100
AcDbText
10
15667.5
20
59725
30
0
40
315
1
55T12@200-B1-01-(L=12000)
50
90
7
ST-REBAR
72
1
11
15667.5
21
59725
31
0
100
AcDbText
73
0
0
TEXT
5
20C
330
10E
100
AcDbEntity
8
ST-RB-TEXT
100
AcDbText
10
16080
20
59725
30
0
40
255
1
12000
50
90
7
ST-REBAR
72
1
11
16080
21
59725
31
0
100
AcDbText
73
0
0
LINE
5
20D
330
10E
100
AcDbEntity
8
ST-RB-B1
100
AcDbLine
10
15750
20
65450
30
0
11
15750
21
67950
31
0
0
LINE
5
20E
330
10E
100
AcDbEntity
8
ST-RB-B1
100
AcDbLine
10
15600
20
64900
30
0
11
15600
21
65450
31
0
0
TEXT
5
20F
330
10E
100
AcDbEntity
8
ST-RB-TEXT
100
AcDbText
10
15667.5
20
66700
30
0
40
315
1
55T12@200-B1-04-(L=3050)
50
90
7
ST-REBAR
72
1
11
15667.5
21
66700
31
0
100
AcDbText
73
0
0
TEXT
5
210
330
10E
100
AcDbEntity
8
ST-RB-TEXT
100
AcDbText
10
16080
20
66700
30
0
40
255
1
3050
50
90
7
ST-REBAR
72
1
11
16080
21
66700
31
0
100
AcDbText
73
0
0
LINE
5
211
330
10E
100
AcDbEntity
8
ST-RB-B1
100
AcDbLine
10
15840
20
42000
30
0
11
15660
21
42000
31
0
0
LINE
5
212
330
10E
100
AcDbEntity
8
ST-RB-B1
100
AcDbLine
10
15840
20
67950
30
0
11
15660
21
67950
31
0
0
LINE
5
213
330
10E
100
AcDbEntity
8
ST-RB-B1
100
AcDbLine
10
22750
20
42000
30
0
11
22750
21
52450
31
0
0
TEXT
5
214
330
10E
100
AcDbEntity
8
ST-RB-TEXT
100
AcDbText
10
22832.5
20
47225
30
0
40
315
1
15T12@200-B1-03-(L=10450)
50
90
7
ST-REBAR
72
1
11
22832.5
21
47225
31
0
100
AcDbText
73
0
0
TEXT
5
215
330
10E
100
AcDbEntity
8
ST-RB-TEXT
100
AcDbText
10
22420
20
47225
30
0
40
255
1
10450
50
90
7
ST-REBAR
72
1
11
22420
21
47225
31
0
100
AcDbText
73
0
0
LINE
5
216
330
10E
100
AcDbEntity
8
ST-RB-B1
100
AcDbLine
10
22840
20
42000
30
0
11
22660
21
42000
31
0
0
LINE
5
217
330
10E
100
AcDbEntity
8
ST-RB-B1
100
AcDbLine
10
22840
20
52450
30
0
11
22660
21
52450
31
0
0
LINE
5
218
330
10E
100
AcDbEntity
8
ST-RB-B1
100
AcDbLine
10
22750
20
57500
30
0
11
22750
21
67950
31
0
0
TEXT
5
219
330
10E
100
AcDbEntity
8
ST-RB-TEXT
100
AcDbText
10
22832.5
20
62725
30
0
40
315
1
15T12@200-B1-03-(L=10450)
50
90
7
ST-REBAR
72
1
11
22832.5
21
62725
31
0
100
AcDbText
73
0
0
TEXT
5
21A
330
10E
100
AcDbEntity
8
ST-RB-TEXT
100
AcDbText
10
22420
20
62725
30
0
40
255
1
10450
50
90
7
ST-REBAR
72
1
11
22420
21
62725
31
0
100
AcDbText
73
0
0
LINE
5
21B
330
10E
100
AcDbEntity
8
ST-RB-B1
100
AcDbLine
10
22840
20
57500
30
0
11
22660
21
57500
31
0
0
LINE
5
21C
330
10E
100
AcDbEntity
8
ST-RB-B1
100
AcDbLine
10
22840
20
67950
30
0
11
22660
21
67950
31
0
0
LINE
5
21D
330
10E
100
AcDbEntity
8
ST-RB-B1
100
AcDbLine
10
29950
20
42000
30
0
11
29950
21
54000
31
0
0
TEXT
5
21E
330
10E
100
AcDbEntity
8
ST-RB-TEXT
100
AcDbText
10
29867.5
20
48000
30
0
40
315
1
57T12@200-B1-01-(L=12000)
50
90
7
ST-REBAR
72
1
11
29867.5
21
48000
31
0
100
AcDbText
73
0
0
TEXT
5
21F
330
10E
100
AcDbEntity
8
ST-RB-TEXT
100
AcDbText
10
30280
20
48000
30
0
40
255
1
12000
50
90
7
ST-REBAR
72
1
11
30280
21
48000
31
0
100
AcDbText
73
0
0
LINE
5
220
330
10E
100
AcDbEntity
8
ST-RB-B1
100
AcDbLine
10
29950
20
54000
30
0
11
29950
21
65450
31
0
0
LINE
5
221
330
10E
100
AcDbEntity
8
ST-RB-B1
100
AcDbLine
10
29800
20
53450
30
0
11
29800
21
54000
31
0
0
TEXT
5
222
330
10E
100
AcDbEntity
8
ST-RB-TEXT
100
AcDbText
10
29867.5
20
59725
30
0
40
315
1
57T12@200-B1-01-(L=12000)
50
90
7
ST-REBAR
72
1
11
29867.5
21
59725
31
0
100
AcDbText
73
0
0
TEXT
5
223
330
10E
100
AcDbEntity
8
ST-RB-TEXT
100
AcDbText
10
30280
20
59725
30
0
40
255
1
12000
50
90
7
ST-REBAR
72
1
11
30280
21
59725
31
0
100
AcDbText
73
0
0
LINE
5
224
330
10E
100
AcDbEntity
8
ST-RB-B1
100
AcDbLine
10
29950
20
65450
30
0
11
29950
21
67950
31
0
0
LINE
5
225
330
10E
100
AcDbEntity
8
ST-RB-B1
100
AcDbLine
10
29800
20
64900
30
0
11
29800
21
65450
31
0
0
TEXT
5
226
330
10E
100
AcDbEntity
8
ST-RB-TEXT
100
AcDbText
10
29867.5
20
66700
30
0
40
315
1
57T12@200-B1-04-(L=3050)
50
90
7
ST-REBAR
72
1
11
29867.5
21
66700
31
0
100
AcDbText
73
0
0
TEXT
5
227
330
10E
100
AcDbEntity
8
ST-RB-TEXT
100
AcDbText
10
30280
20
66700
30
0
40
255
1
3050
50
90
7
ST-REBAR
72
1
11
30280
21
66700
31
0
100
AcDbText
73
0
0
LINE
5
228
330
10E
100
AcDbEntity
8
ST-RB-B1
100
AcDbLine
10
30040
20
42000
30
0
11
29860
21
42000
31
0
0
LINE
5
229
330
10E
100
AcDbEntity
8
ST-RB-B1
100
AcDbLine
10
30040
20
67950
30
0
11
29860
21
67950
31
0
0
LINE
5
22A
330
10E
100
AcDbEntity
8
ST-RB-B1
100
AcDbLine
10
36950
20
42000
30
0
11
36950
21
52950
31
0
0
TEXT
5
22B
330
10E
100
AcDbEntity
8
ST-RB-TEXT
100
AcDbText
10
37032.5
20
47475
30
0
40
315
1
13T12@200-B1-02-(L=10950)
50
90
7
ST-REBAR
72
1
11
37032.5
21
47475
31
0
100
AcDbText
73
0
0
TEXT
5
22C
330
10E
100
AcDbEntity
8
ST-RB-TEXT
100
AcDbText
10
36620
20
47475
30
0
40
255
1
10950
50
90
7
ST-REBAR
72
1
11
36620
21
47475
31
0
100
AcDbText
73
0
0
LINE
5
22D
330
10E
100
AcDbEntity
8
ST-RB-B1
100
AcDbLine
10
37040
20
42000
30
0
11
36860
21
42000
31
0
0
LINE
5
22E
330
10E
100
AcDbEntity
8
ST-RB-B1
100
AcDbLine
10
37040
20
52950
30
0
11
36860
21
52950
31
0
0
LINE
5
22F
330
10E
100
AcDbEntity
8
ST-RB-B1
100
AcDbLine
10
36950
20
55500
30
0
11
36950
21
67500
31
0
0
TEXT
5
230
330
10E
100
AcDbEntity
8
ST-RB-TEXT
100
AcDbText
10
37032.5
20
61500
30
0
40
315
1
13T12@200-B1-01-(L=12000)
50
90
7
ST-REBAR
72
1
11
37032.5
21
61500
31
0
100
AcDbText
73
0
0
TEXT
5
231
330
10E
100
AcDbEntity
8
ST-RB-TEXT
100
AcDbText
10
36620
20
61500
30
0
40
255
1
12000
50
90
7
ST-REBAR
72
1
11
36620
21
61500
31
0
100
AcDbText
73
0
0
LINE
5
232
330
10E
100
AcDbEntity
8
ST-RB-B1
100
AcDbLine
10
36950
20
67500
30
0
11
36950
21
67950
31
0
0
LINE
5
233
330
10E
100
AcDbEntity
8
ST-RB-B1
100
AcDbLine
10
37100
20
66950
30
0
11
37100
21
67500
31
0
0
TEXT
5
234
330
10E
100
AcDbEntity
8
ST-RB-TEXT
100
AcDbText
10
37032.5
20
67725
30
0
40
315
1
13T12@200-B1-05-(L=1000)
50
90
7
ST-REBAR
72
1
11
37032.5
21
67725
31
0
100
AcDbText
73
0
0
TEXT
5
235
330
10E
100
AcDbEntity
8
ST-RB-TEXT
100
AcDbText
10
36620
20
67725
30
0
40
255
1
1000
50
90
7
ST-REBAR
72
1
11
36620
21
67725
31
0
100
AcDbText
73
0
0
LINE
5
236
330
10E
100
AcDbEntity
8
ST-RB-B1
100
AcDbLine
10
37040
20
55500
30
0
11
36860
21
55500
31
0
0
LINE
5
237
330
10E
100
AcDbEntity
8
ST-RB-B1
100
AcDbLine
10
37040
20
67950
30
0
11
36860
21
67950
31
0
0
LINE
5
238
330
10E
100
AcDbEntity
8
ST-RB-B1
100
AcDbLine
10
40450
20
42000
30
0
11
40450
21
54000
31
0
0
TEXT
5
239
330
10E
100
AcDbEntity
8
ST-RB-TEXT
100
AcDbText
10
40367.5
20
48000
30
0
40
315
1
22T12@200-B1-01-(L=12000)
50
90
7
ST-REBAR
72
1
11
40367.5
21
48000
31
0
100
AcDbText
73
0
0
TEXT
5
23A
330
10E
100
AcDbEntity
8
ST-RB-TEXT
100
AcDbText
10
40780
20
48000
30
0
40
255
1
12000
50
90
7
ST-REBAR
72
1
11
40780
21
48000
31
0
100
AcDbText
73
0
0
LINE
5
23B
330
10E
100
AcDbEntity
8
ST-RB-B1
100
AcDbLine
10
40450
20
54000
30
0
11
40450
21
65450
31
0
0
LINE
5
23C
330
10E
100
AcDbEntity
8
ST-RB-B1
100
AcDbLine
10
40300
20
53450
30
0
11
40300
21
54000
31
0
0
TEXT
5
23D
330
10E
100
AcDbEntity
8
ST-RB-TEXT
100
AcDbText
10
40367.5
20
59725
30
0
40
315
1
22T12@200-B1-01-(L=12000)
50
90
7
ST-REBAR
72
1
11
40367.5
21
59725
31
0
100
AcDbText
73
0
0
TEXT
5
23E
330
10E
100
AcDbEntity
8
ST-RB-TEXT
100
AcDbText
10
40780
20
59725
30
0
40
255
1
12000
50
90
7
ST-REBAR
72
1
11
40780
21
59725
31
0
100
AcDbText
73
0
0
LINE
5
23F
330
10E
100
AcDbEntity
8
ST-RB-B1
100
AcDbLine
10
40450
20
65450
30
0
11
40450
21
67950
31
0
0
LINE
5
240
330
10E
100
AcDbEntity
8
ST-RB-B1
100
AcDbLine
10
40300
20
64900
30
0
11
40300
21
65450
31
0
0
TEXT
5
241
330
10E
100
AcDbEntity
8
ST-RB-TEXT
100
AcDbText
10
40367.5
20
66700
30
0
40
315
1
22T12@200-B1-04-(L=3050)
50
90
7
ST-REBAR
72
1
11
40367.5
21
66700
31
0
100
AcDbText
73
0
0
TEXT
5
242
330
10E
100
AcDbEntity
8
ST-RB-TEXT
100
AcDbText
10
40780
20
66700
30
0
40
255
1
3050
50
90
7
ST-REBAR
72
1
11
40780
21
66700
31
0
100
AcDbText
73
0
0
LINE
5
243
330
10E
100
AcDbEntity
8
ST-RB-B1
100
AcDbLine
10
40540
20
42000
30
0
11
40360
21
42000
31
0
0
LINE
5
244
330
10E
100
AcDbEntity
8
ST-RB-B1
100
AcDbLine
10
40540
20
67950
30
0
11
40360
21
67950
31
0
0
LINE
5
245
330
10E
100
AcDbEntity
8
ST-GRID
100
AcDbLine
10
58675
20
38975
30
0
11
58675
21
70975
31
0
0
CIRCLE
5
246
330
10E
100
AcDbEntity
8
ST-GRID-BUBBLE
100
AcDbCircle
10
58675
20
71575
30
0
40
600
0
TEXT
5
247
330
10E
100
AcDbEntity
8
ST-TEXT
100
AcDbText
10
58675
20
71575
30
0
40
450
1
A
7
STANDARD
72
1
11
58675
21
71575
31
0
100
AcDbText
73
2
0
CIRCLE
5
248
330
10E
100
AcDbEntity
8
ST-GRID-BUBBLE
100
AcDbCircle
10
58675
20
38375
30
0
40
600
0
TEXT
5
249
330
10E
100
AcDbEntity
8
ST-TEXT
100
AcDbText
10
58675
20
38375
30
0
40
450
1
A
7
STANDARD
72
1
11
58675
21
38375
31
0
100
AcDbText
73
2
0
LINE
5
24A
330
10E
100
AcDbEntity
8
ST-GRID
100
AcDbLine
10
66175
20
38975
30
0
11
66175
21
70975
31
0
0
CIRCLE
5
24B
330
10E
100
AcDbEntity
8
ST-GRID-BUBBLE
100
AcDbCircle
10
66175
20
71575
30
0
40
600
0
TEXT
5
24C
330
10E
100
AcDbEntity
8
ST-TEXT
100
AcDbText
10
66175
20
71575
30
0
40
450
1
B
7
STANDARD
72
1
11
66175
21
71575
31
0
100
AcDbText
73
2
0
CIRCLE
5
24D
330
10E
100
AcDbEntity
8
ST-GRID-BUBBLE
100
AcDbCircle
10
66175
20
38375
30
0
40
600
0
TEXT
5
24E
330
10E
100
AcDbEntity
8
ST-TEXT
100
AcDbText
10
66175
20
38375
30
0
40
450
1
B
7
STANDARD
72
1
11
66175
21
38375
31
0
100
AcDbText
73
2
0
LINE
5
24F
330
10E
100
AcDbEntity
8
ST-GRID
100
AcDbLine
10
73675
20
38975
30
0
11
73675
21
70975
31
0
0
CIRCLE
5
250
330
10E
100
AcDbEntity
8
ST-GRID-BUBBLE
100
AcDbCircle
10
73675
20
71575
30
0
40
600
0
TEXT
5
251
330
10E
100
AcDbEntity
8
ST-TEXT
100
AcDbText
10
73675
20
71575
30
0
40
450
1
C
7
STANDARD
72
1
11
73675
21
71575
31
0
100
AcDbText
73
2
0
CIRCLE
5
252
330
10E
100
AcDbEntity
8
ST-GRID-BUBBLE
100
AcDbCircle
10
73675
20
38375
30
0
40
600
0
TEXT
5
253
330
10E
100
AcDbEntity
8
ST-TEXT
100
AcDbText
10
73675
20
38375
30
0
40
450
1
C
7
STANDARD
72
1
11
73675
21
38375
31
0
100
AcDbText
73
2
0
LINE
5
254
330
10E
100
AcDbEntity
8
ST-GRID
100
AcDbLine
10
81175
20
38975
30
0
11
81175
21
70975
31
0
0
CIRCLE
5
255
330
10E
100
AcDbEntity
8
ST-GRID-BUBBLE
100
AcDbCircle
10
81175
20
71575
30
0
40
600
0
TEXT
5
256
330
10E
100
AcDbEntity
8
ST-TEXT
100
AcDbText
10
81175
20
71575
30
0
40
450
1
D
7
STANDARD
72
1
11
81175
21
71575
31
0
100
AcDbText
73
2
0
CIRCLE
5
257
330
10E
100
AcDbEntity
8
ST-GRID-BUBBLE
100
AcDbCircle
10
81175
20
38375
30
0
40
600
0
TEXT
5
258
330
10E
100
AcDbEntity
8
ST-TEXT
100
AcDbText
10
81175
20
38375
30
0
40
450
1
D
7
STANDARD
72
1
11
81175
21
38375
31
0
100
AcDbText
73
2
0
LINE
5
259
330
10E
100
AcDbEntity
8
ST-GRID
100
AcDbLine
10
88675
20
38975
30
0
11
88675
21
70975
31
0
0
CIRCLE
5
25A
330
10E
100
AcDbEntity
8
ST-GRID-BUBBLE
100
AcDbCircle
10
88675
20
71575
30
0
40
600
0
TEXT
5
25B
330
10E
100
AcDbEntity
8
ST-TEXT
100
AcDbText
10
88675
20
71575
30
0
40
450
1
E
7
STANDARD
72
1
11
88675
21
71575
31
0
100
AcDbText
73
2
0
CIRCLE
5
25C
330
10E
100
AcDbEntity
8
ST-GRID-BUBBLE
100
AcDbCircle
10
88675
20
38375
30
0
40
600
0
TEXT
5
25D
330
10E
100
AcDbEntity
8
ST-TEXT
100
AcDbText
10
88675
20
38375
30
0
40
450
1
E
7
STANDARD
72
1
11
88675
21
38375
31
0
100
AcDbText
73
2
0
LINE
5
25E
330
10E
100
AcDbEntity
8
ST-GRID
100
AcDbLine
10
54175
20
42975
30
0
11
92675
21
42975
31
0
0
CIRCLE
5
25F
330
10E
100
AcDbEntity
8
ST-GRID-BUBBLE
100
AcDbCircle
10
53575
20
42975
30
0
40
600
0
TEXT
5
260
330
10E
100
AcDbEntity
8
ST-TEXT
100
AcDbText
10
53575
20
42975
30
0
40
450
1
1
7
STANDARD
72
1
11
53575
21
42975
31
0
100
AcDbText
73
2
0
CIRCLE
5
261
330
10E
100
AcDbEntity
8
ST-GRID-BUBBLE
100
AcDbCircle
10
93275
20
42975
30
0
40
600
0
TEXT
5
262
330
10E
100
AcDbEntity
8
ST-TEXT
100
AcDbText
10
93275
20
42975
30
0
40
450
1
1
7
STANDARD
72
1
11
93275
21
42975
31
0
100
AcDbText
73
2
0
LINE
5
263
330
10E
100
AcDbEntity
8
ST-GRID
100
AcDbLine
10
54175
20
50975
30
0
11
92675
21
50975
31
0
0
CIRCLE
5
264
330
10E
100
AcDbEntity
8
ST-GRID-BUBBLE
100
AcDbCircle
10
53575
20
50975
30
0
40
600
0
TEXT
5
265
330
10E
100
AcDbEntity
8
ST-TEXT
100
AcDbText
10
53575
20
50975
30
0
40
450
1
2
7
STANDARD
72
1
11
53575
21
50975
31
0
100
AcDbText
73
2
0
CIRCLE
5
266
330
10E
100
AcDbEntity
8
ST-GRID-BUBBLE
100
AcDbCircle
10
93275
20
50975
30
0
40
600
0
TEXT
5
267
330
10E
100
AcDbEntity
8
ST-TEXT
100
AcDbText
10
93275
20
50975
30
0
40
450
1
2
7
STANDARD
72
1
11
93275
21
50975
31
0
100
AcDbText
73
2
0
LINE
5
268
330
10E
100
AcDbEntity
8
ST-GRID
100
AcDbLine
10
54175
20
58975
30
0
11
92675
21
58975
31
0
0
CIRCLE
5
269
330
10E
100
AcDbEntity
8
ST-GRID-BUBBLE
100
AcDbCircle
10
53575
20
58975
30
0
40
600
0
TEXT
5
26A
330
10E
100
AcDbEntity
8
ST-TEXT
100
AcDbText
10
53575
20
58975
30
0
40
450
1
3
7
STANDARD
72
1
11
53575
21
58975
31
0
100
AcDbText
73
2
0
CIRCLE
5
26B
330
10E
100
AcDbEntity
8
ST-GRID-BUBBLE
100
AcDbCircle
10
93275
20
58975
30
0
40
600
0
TEXT
5
26C
330
10E
100
AcDbEntity
8
ST-TEXT
100
AcDbText
10
93275
20
58975
30
0
40
450
1
3
7
STANDARD
72
1
11
93275
21
58975
31
0
100
AcDbText
73
2
0
LINE
5
26D
330
10E
100
AcDbEntity
8
ST-GRID
100
AcDbLine
10
54175
20
66975
30
0
11
92675
21
66975
31
0
0
CIRCLE
5
26E
330
10E
100
AcDbEntity
8
ST-GRID-BUBBLE
100
AcDbCircle
10
53575
20
66975
30
0
40
600
0
TEXT
5
26F
330
10E
100
AcDbEntity
8
ST-TEXT
100
AcDbText
10
53575
20
66975
30
0
40
450
1
4
7
STANDARD
72
1
11
53575
21
66975
31
0
100
AcDbText
73
2
0
CIRCLE
5
270
330
10E
100
AcDbEntity
8
ST-GRID-BUBBLE
100
AcDbCircle
10
93275
20
66975
30
0
40
600
0
TEXT
5
271
330
10E
100
AcDbEntity
8
ST-TEXT
100
AcDbText
10
93275
20
66975
30
0
40
450
1
4
7
STANDARD
72
1
11
93275
21
66975
31
0
100
AcDbText
73
2
0
LWPOLYLINE
5
272
330
10E
100
AcDbEntity
8
ST-SLAB-EDGE
62
3
100
AcDbPolyline
90
4
70
1
43
0
10
57175
20
41975
10
89675
20
41975
10
89675
20
67975
10
57175
20
67975
0
LWPOLYLINE
5
273
330
10E
100
AcDbEntity
8
ST-PT-ZONE
100
AcDbPolyline
90
4
70
1
43
0
10
57175
20
41975
10
89675
20
41975
10
89675
20
67975
10
57175
20
67975
0
TEXT
5
274
330
10E
100
AcDbEntity
8
ST-PT-ZONE
100
AcDbText
10
57775
20
67075
30
0
40
330
1
PT1 - PT SLAB ZONE
7
STANDARD
72
0
100
AcDbText
73
0
0
LWPOLYLINE
5
275
330
10E
100
AcDbEntity
8
ST-COL
100
AcDbPolyline
90
4
70
1
43
0
10
58375
20
66675
10
58975
20
66675
10
58975
20
67275
10
58375
20
67275
0
HATCH
5
276
330
10E
100
AcDbEntity
8
ST-COL-HATCH
62
7
100
AcDbHatch
10
0
20
0
30
0
210
0
220
0
230
1
2
SOLID
70
1
71
0
91
1
92
3
72
0
73
1
93
4
10
58375
20
66675
10
58975
20
66675
10
58975
20
67275
10
58375
20
67275
97
0
75
1
76
1
47
1
98
0
0
LWPOLYLINE
5
277
330
10E
100
AcDbEntity
8
ST-COL
100
AcDbPolyline
90
4
70
1
43
0
10
65875
20
66675
10
66475
20
66675
10
66475
20
67275
10
65875
20
67275
0
HATCH
5
278
330
10E
100
AcDbEntity
8
ST-COL-HATCH
62
7
100
AcDbHatch
10
0
20
0
30
0
210
0
220
0
230
1
2
SOLID
70
1
71
0
91
1
92
3
72
0
73
1
93
4
10
65875
20
66675
10
66475
20
66675
10
66475
20
67275
10
65875
20
67275
97
0
75
1
76
1
47
1
98
0
0
LWPOLYLINE
5
279
330
10E
100
AcDbEntity
8
ST-COL
100
AcDbPolyline
90
4
70
1
43
0
10
73375
20
66675
10
73975
20
66675
10
73975
20
67275
10
73375
20
67275
0
HATCH
5
27A
330
10E
100
AcDbEntity
8
ST-COL-HATCH
62
7
100
AcDbHatch
10
0
20
0
30
0
210
0
220
0
230
1
2
SOLID
70
1
71
0
91
1
92
3
72
0
73
1
93
4
10
73375
20
66675
10
73975
20
66675
10
73975
20
67275
10
73375
20
67275
97
0
75
1
76
1
47
1
98
0
0
LWPOLYLINE
5
27B
330
10E
100
AcDbEntity
8
ST-COL
100
AcDbPolyline
90
4
70
1
43
0
10
80875
20
66675
10
81475
20
66675
10
81475
20
67275
10
80875
20
67275
0
HATCH
5
27C
330
10E
100
AcDbEntity
8
ST-COL-HATCH
62
7
100
AcDbHatch
10
0
20
0
30
0
210
0
220
0
230
1
2
SOLID
70
1
71
0
91
1
92
3
72
0
73
1
93
4
10
80875
20
66675
10
81475
20
66675
10
81475
20
67275
10
80875
20
67275
97
0
75
1
76
1
47
1
98
0
0
LWPOLYLINE
5
27D
330
10E
100
AcDbEntity
8
ST-COL
100
AcDbPolyline
90
4
70
1
43
0
10
88375
20
66675
10
88975
20
66675
10
88975
20
67275
10
88375
20
67275
0
HATCH
5
27E
330
10E
100
AcDbEntity
8
ST-COL-HATCH
62
7
100
AcDbHatch
10
0
20
0
30
0
210
0
220
0
230
1
2
SOLID
70
1
71
0
91
1
92
3
72
0
73
1
93
4
10
88375
20
66675
10
88975
20
66675
10
88975
20
67275
10
88375
20
67275
97
0
75
1
76
1
47
1
98
0
0
LWPOLYLINE
5
27F
330
10E
100
AcDbEntity
8
ST-COL
100
AcDbPolyline
90
4
70
1
43
0
10
58375
20
58675
10
58975
20
58675
10
58975
20
59275
10
58375
20
59275
0
HATCH
5
280
330
10E
100
AcDbEntity
8
ST-COL-HATCH
62
7
100
AcDbHatch
10
0
20
0
30
0
210
0
220
0
230
1
2
SOLID
70
1
71
0
91
1
92
3
72
0
73
1
93
4
10
58375
20
58675
10
58975
20
58675
10
58975
20
59275
10
58375
20
59275
97
0
75
1
76
1
47
1
98
0
0
LWPOLYLINE
5
281
330
10E
100
AcDbEntity
8
ST-COL
100
AcDbPolyline
90
4
70
1
43
0
10
65875
20
58675
10
66475
20
58675
10
66475
20
59275
10
65875
20
59275
0
HATCH
5
282
330
10E
100
AcDbEntity
8
ST-COL-HATCH
62
7
100
AcDbHatch
10
0
20
0
30
0
210
0
220
0
230
1
2
SOLID
70
1
71
0
91
1
92
3
72
0
73
1
93
4
10
65875
20
58675
10
66475
20
58675
10
66475
20
59275
10
65875
20
59275
97
0
75
1
76
1
47
1
98
0
0
LWPOLYLINE
5
283
330
10E
100
AcDbEntity
8
ST-COL
100
AcDbPolyline
90
4
70
1
43
0
10
73375
20
58675
10
73975
20
58675
10
73975
20
59275
10
73375
20
59275
0
HATCH
5
284
330
10E
100
AcDbEntity
8
ST-COL-HATCH
62
7
100
AcDbHatch
10
0
20
0
30
0
210
0
220
0
230
1
2
SOLID
70
1
71
0
91
1
92
3
72
0
73
1
93
4
10
73375
20
58675
10
73975
20
58675
10
73975
20
59275
10
73375
20
59275
97
0
75
1
76
1
47
1
98
0
0
LWPOLYLINE
5
285
330
10E
100
AcDbEntity
8
ST-COL
100
AcDbPolyline
90
4
70
1
43
0
10
80875
20
58675
10
81475
20
58675
10
81475
20
59275
10
80875
20
59275
0
HATCH
5
286
330
10E
100
AcDbEntity
8
ST-COL-HATCH
62
7
100
AcDbHatch
10
0
20
0
30
0
210
0
220
0
230
1
2
SOLID
70
1
71
0
91
1
92
3
72
0
73
1
93
4
10
80875
20
58675
10
81475
20
58675
10
81475
20
59275
10
80875
20
59275
97
0
75
1
76
1
47
1
98
0
0
LWPOLYLINE
5
287
330
10E
100
AcDbEntity
8
ST-COL
100
AcDbPolyline
90
4
70
1
43
0
10
88375
20
58675
10
88975
20
58675
10
88975
20
59275
10
88375
20
59275
0
HATCH
5
288
330
10E
100
AcDbEntity
8
ST-COL-HATCH
62
7
100
AcDbHatch
10
0
20
0
30
0
210
0
220
0
230
1
2
SOLID
70
1
71
0
91
1
92
3
72
0
73
1
93
4
10
88375
20
58675
10
88975
20
58675
10
88975
20
59275
10
88375
20
59275
97
0
75
1
76
1
47
1
98
0
0
LWPOLYLINE
5
289
330
10E
100
AcDbEntity
8
ST-COL
100
AcDbPolyline
90
4
70
1
43
0
10
58375
20
50675
10
58975
20
50675
10
58975
20
51275
10
58375
20
51275
0
HATCH
5
28A
330
10E
100
AcDbEntity
8
ST-COL-HATCH
62
7
100
AcDbHatch
10
0
20
0
30
0
210
0
220
0
230
1
2
SOLID
70
1
71
0
91
1
92
3
72
0
73
1
93
4
10
58375
20
50675
10
58975
20
50675
10
58975
20
51275
10
58375
20
51275
97
0
75
1
76
1
47
1
98
0
0
LWPOLYLINE
5
28B
330
10E
100
AcDbEntity
8
ST-COL
100
AcDbPolyline
90
4
70
1
43
0
10
65875
20
50675
10
66475
20
50675
10
66475
20
51275
10
65875
20
51275
0
HATCH
5
28C
330
10E
100
AcDbEntity
8
ST-COL-HATCH
62
7
100
AcDbHatch
10
0
20
0
30
0
210
0
220
0
230
1
2
SOLID
70
1
71
0
91
1
92
3
72
0
73
1
93
4
10
65875
20
50675
10
66475
20
50675
10
66475
20
51275
10
65875
20
51275
97
0
75
1
76
1
47
1
98
0
0
LWPOLYLINE
5
28D
330
10E
100
AcDbEntity
8
ST-COL
100
AcDbPolyline
90
4
70
1
43
0
10
73375
20
50675
10
73975
20
50675
10
73975
20
51275
10
73375
20
51275
0
HATCH
5
28E
330
10E
100
AcDbEntity
8
ST-COL-HATCH
62
7
100
AcDbHatch
10
0
20
0
30
0
210
0
220
0
230
1
2
SOLID
70
1
71
0
91
1
92
3
72
0
73
1
93
4
10
73375
20
50675
10
73975
20
50675
10
73975
20
51275
10
73375
20
51275
97
0
75
1
76
1
47
1
98
0
0
LWPOLYLINE
5
28F
330
10E
100
AcDbEntity
8
ST-COL
100
AcDbPolyline
90
4
70
1
43
0
10
80875
20
50675
10
81475
20
50675
10
81475
20
51275
10
80875
20
51275
0
HATCH
5
290
330
10E
100
AcDbEntity
8
ST-COL-HATCH
62
7
100
AcDbHatch
10
0
20
0
30
0
210
0
220
0
230
1
2
SOLID
70
1
71
0
91
1
92
3
72
0
73
1
93
4
10
80875
20
50675
10
81475
20
50675
10
81475
20
51275
10
80875
20
51275
97
0
75
1
76
1
47
1
98
0
0
LWPOLYLINE
5
291
330
10E
100
AcDbEntity
8
ST-COL
100
AcDbPolyline
90
4
70
1
43
0
10
88375
20
50675
10
88975
20
50675
10
88975
20
51275
10
88375
20
51275
0
HATCH
5
292
330
10E
100
AcDbEntity
8
ST-COL-HATCH
62
7
100
AcDbHatch
10
0
20
0
30
0
210
0
220
0
230
1
2
SOLID
70
1
71
0
91
1
92
3
72
0
73
1
93
4
10
88375
20
50675
10
88975
20
50675
10
88975
20
51275
10
88375
20
51275
97
0
75
1
76
1
47
1
98
0
0
LWPOLYLINE
5
293
330
10E
100
AcDbEntity
8
ST-COL
100
AcDbPolyline
90
4
70
1
43
0
10
58375
20
42675
10
58975
20
42675
10
58975
20
43275
10
58375
20
43275
0
HATCH
5
294
330
10E
100
AcDbEntity
8
ST-COL-HATCH
62
7
100
AcDbHatch
10
0
20
0
30
0
210
0
220
0
230
1
2
SOLID
70
1
71
0
91
1
92
3
72
0
73
1
93
4
10
58375
20
42675
10
58975
20
42675
10
58975
20
43275
10
58375
20
43275
97
0
75
1
76
1
47
1
98
0
0
LWPOLYLINE
5
295
330
10E
100
AcDbEntity
8
ST-COL
100
AcDbPolyline
90
4
70
1
43
0
10
65875
20
42675
10
66475
20
42675
10
66475
20
43275
10
65875
20
43275
0
HATCH
5
296
330
10E
100
AcDbEntity
8
ST-COL-HATCH
62
7
100
AcDbHatch
10
0
20
0
30
0
210
0
220
0
230
1
2
SOLID
70
1
71
0
91
1
92
3
72
0
73
1
93
4
10
65875
20
42675
10
66475
20
42675
10
66475
20
43275
10
65875
20
43275
97
0
75
1
76
1
47
1
98
0
0
LWPOLYLINE
5
297
330
10E
100
AcDbEntity
8
ST-COL
100
AcDbPolyline
90
4
70
1
43
0
10
73375
20
42675
10
73975
20
42675
10
73975
20
43275
10
73375
20
43275
0
HATCH
5
298
330
10E
100
AcDbEntity
8
ST-COL-HATCH
62
7
100
AcDbHatch
10
0
20
0
30
0
210
0
220
0
230
1
2
SOLID
70
1
71
0
91
1
92
3
72
0
73
1
93
4
10
73375
20
42675
10
73975
20
42675
10
73975
20
43275
10
73375
20
43275
97
0
75
1
76
1
47
1
98
0
0
LWPOLYLINE
5
299
330
10E
100
AcDbEntity
8
ST-COL
100
AcDbPolyline
90
4
70
1
43
0
10
80875
20
42675
10
81475
20
42675
10
81475
20
43275
10
80875
20
43275
0
HATCH
5
29A
330
10E
100
AcDbEntity
8
ST-COL-HATCH
62
7
100
AcDbHatch
10
0
20
0
30
0
210
0
220
0
230
1
2
SOLID
70
1
71
0
91
1
92
3
72
0
73
1
93
4
10
80875
20
42675
10
81475
20
42675
10
81475
20
43275
10
80875
20
43275
97
0
75
1
76
1
47
1
98
0
0
LWPOLYLINE
5
29B
330
10E
100
AcDbEntity
8
ST-COL
100
AcDbPolyline
90
4
70
1
43
0
10
88375
20
42675
10
88975
20
42675
10
88975
20
43275
10
88375
20
43275
0
HATCH
5
29C
330
10E
100
AcDbEntity
8
ST-COL-HATCH
62
7
100
AcDbHatch
10
0
20
0
30
0
210
0
220
0
230
1
2
SOLID
70
1
71
0
91
1
92
3
72
0
73
1
93
4
10
88375
20
42675
10
88975
20
42675
10
88975
20
43275
10
88375
20
43275
97
0
75
1
76
1
47
1
98
0
0
LWPOLYLINE
5
29D
330
10E
100
AcDbEntity
8
ST-OPENING
100
AcDbPolyline
90
4
70
1
43
0
10
68175
20
52475
10
71175
20
52475
10
71175
20
57475
10
68175
20
57475
0
LINE
5
29E
330
10E
100
AcDbEntity
8
ST-OPENING
100
AcDbLine
10
68175
20
52475
30
0
11
71175
21
57475
31
0
0
LINE
5
29F
330
10E
100
AcDbEntity
8
ST-OPENING
100
AcDbLine
10
71175
20
52475
30
0
11
68175
21
57475
31
0
0
LWPOLYLINE
5
2A0
330
10E
100
AcDbEntity
8
ST-OPENING
100
AcDbPolyline
90
4
70
1
43
0
10
82675
20
52975
10
85175
20
52975
10
85175
20
55475
10
82675
20
55475
0
LINE
5
2A1
330
10E
100
AcDbEntity
8
ST-OPENING
100
AcDbLine
10
82675
20
52975
30
0
11
85175
21
55475
31
0
0
LINE
5
2A2
330
10E
100
AcDbEntity
8
ST-OPENING
100
AcDbLine
10
85175
20
52975
30
0
11
82675
21
55475
31
0
0
LWPOLYLINE
5
2A3
330
10E
100
AcDbEntity
8
ST-VOID
100
AcDbPolyline
90
4
70
1
43
0
10
60675
20
59975
10
64675
20
59975
10
64675
20
62975
10
60675
20
62975
0
HATCH
5
2A4
330
10E
100
AcDbEntity
8
ST-VOID-HATCH
100
AcDbHatch
10
0
20
0
30
0
210
0
220
0
230
1
2
ANSI37
70
0
71
0
91
1
92
3
72
0
73
1
93
4
10
60675
20
59975
10
64675
20
59975
10
64675
20
62975
10
60675
20
62975
97
0
75
1
76
1
52
0
41
118.110236
77
0
78
2
53
45
43
0
44
0
45
-265.165043
46
265.165043
79
0
53
135
43
0
44
0
45
-265.165043
46
-265.165043
79
0
47
1
98
0
0
CIRCLE
5
2A5
330
10E
100
AcDbEntity
8
ST-RB-UBAR
6
DASHDOT
100
AcDbCircle
10
84675
20
46975
30
0
40
1200
0
CIRCLE
5
2A6
330
10E
100
AcDbEntity
8
ST-RB-UBAR
6
DASHDOT
100
AcDbCircle
10
62675
20
46975
30
0
40
900
0
TEXT
5
2A7
330
10E
100
AcDbEntity
8
ST-RB-MESH
100
AcDbText
10
63675
20
54975
30
0
40
390
1
\U+00D812@200-B2
7
STANDARD
72
1
11
63675
21
54975
31
0
100
AcDbText
73
2
0
TEXT
5
2A8
330
10E
100
AcDbEntity
8
ST-RB-MESH
100
AcDbText
10
73425
20
54975
30
0
40
390
1
\U+00D812@200-B2
7
STANDARD
72
1
11
73425
21
54975
31
0
100
AcDbText
73
2
0
TEXT
5
2A9
330
10E
100
AcDbEntity
8
ST-RB-MESH
100
AcDbText
10
83175
20
47175
30
0
40
390
1
\U+00D812@200-B2
7
STANDARD
72
1
11
83175
21
47175
31
0
100
AcDbText
73
2
0
TEXT
5
2AA
330
10E
100
AcDbEntity
8
ST-RB-MESH
100
AcDbText
10
68550
20
47175
30
0
40
390
1
\U+00D812@200-B2
7
STANDARD
72
1
11
68550
21
47175
31
0
100
AcDbText
73
2
0
LINE
5
2AB
330
10E
100
AcDbEntity
8
ST-RB-B2
100
AcDbLine
10
57200
20
47200
30
0
11
69200
21
47200
31
0
0
TEXT
5
2AC
330
10E
100
AcDbEntity
8
ST-RB-TEXT
100
AcDbText
10
63200
20
47282.5
30
0
40
315
1
52T12@200-B2-01-(L=12000)
7
ST-REBAR
72
1
11
63200
21
47282.5
31
0
100
AcDbText
73
0
0
TEXT
5
2AD
330
10E
100
AcDbEntity
8
ST-RB-TEXT
100
AcDbText
10
63200
20
46870
30
0
40
255
1
12000
7
ST-REBAR
72
1
11
63200
21
46870
31
0
100
AcDbText
73
0
0
LINE
5
2AE
330
10E
100
AcDbEntity
8
ST-RB-B2
100
AcDbLine
10
69200
20
47200
30
0
11
80650
21
47200
31
0
0
LINE
5
2AF
330
10E
100
AcDbEntity
8
ST-RB-B2
100
AcDbLine
10
68650
20
47350
30
0
11
69200
21
47350
31
0
0
TEXT
5
2B0
330
10E
100
AcDbEntity
8
ST-RB-TEXT
100
AcDbText
10
74925
20
47282.5
30
0
40
315
1
52T12@200-B2-01-(L=12000)
7
ST-REBAR
72
1
11
74925
21
47282.5
31
0
100
AcDbText
73
0
0
TEXT
5
2B1
330
10E
100
AcDbEntity
8
ST-RB-TEXT
100
AcDbText
10
74925
20
46870
30
0
40
255
1
12000
7
ST-REBAR
72
1
11
74925
21
46870
31
0
100
AcDbText
73
0
0
LINE
5
2B2
330
10E
100
AcDbEntity
8
ST-RB-B2
100
AcDbLine
10
80650
20
47200
30
0
11
89650
21
47200
31
0
0
LINE
5
2B3
330
10E
100
AcDbEntity
8
ST-RB-B2
100
AcDbLine
10
80100
20
47350
30
0
11
80650
21
47350
31
0
0
TEXT
5
2B4
330
10E
100
AcDbEntity
8
ST-RB-TEXT
100
AcDbText
10
85150
20
47282.5
30
0
40
315
1
52T12@200-B2-04-(L=9550)
7
ST-REBAR
72
1
11
85150
21
47282.5
31
0
100
AcDbText
73
0
0
TEXT
5
2B5
330
10E
100
AcDbEntity
8
ST-RB-TEXT
100
AcDbText
10
85150
20
46870
30
0
40
255
1
9550
7
ST-REBAR
72
1
11
85150
21
46870
31
0
100
AcDbText
73
0
0
LINE
5
2B6
330
10E
100
AcDbEntity
8
ST-RB-B2
100
AcDbLine
10
57200
20
47110
30
0
11
57200
21
47290
31
0
0
LINE
5
2B7
330
10E
100
AcDbEntity
8
ST-RB-B2
100
AcDbLine
10
89650
20
47110
30
0
11
89650
21
47290
31
0
0
LINE
5
2B8
330
10E
100
AcDbEntity
8
ST-RB-B2
100
AcDbLine
10
57200
20
52700
30
0
11
68150
21
52700
31
0
0
TEXT
5
2B9
330
10E
100
AcDbEntity
8
ST-RB-TEXT
100
AcDbText
10
62675
20
52617.5
30
0
40
315
1
3T12@200-B2-03-(L=10950)
7
ST-REBAR
72
1
11
62675
21
52617.5
31
0
100
AcDbText
73
0
0
TEXT
5
2BA
330
10E
100
AcDbEntity
8
ST-RB-TEXT
100
AcDbText
10
62675
20
53030
30
0
40
255
1
10950
7
ST-REBAR
72
1
11
62675
21
53030
31
0
100
AcDbText
73
0
0
LINE
5
2BB
330
10E
100
AcDbEntity
8
ST-RB-B2
100
AcDbLine
10
57200
20
52610
30
0
11
57200
21
52790
31
0
0
LINE
5
2BC
330
10E
100
AcDbEntity
8
ST-RB-B2
100
AcDbLine
10
68150
20
52610
30
0
11
68150
21
52790
31
0
0
LINE
5
2BD
330
10E
100
AcDbEntity
8
ST-RB-B2
100
AcDbLine
10
71200
20
52700
30
0
11
83200
21
52700
31
0
0
TEXT
5
2BE
330
10E
100
AcDbEntity
8
ST-RB-TEXT
100
AcDbText
10
77200
20
52617.5
30
0
40
315
1
3T12@200-B2-01-(L=12000)
7
ST-REBAR
72
1
11
77200
21
52617.5
31
0
100
AcDbText
73
0
0
TEXT
5
2BF
330
10E
100
AcDbEntity
8
ST-RB-TEXT
100
AcDbText
10
77200
20
53030
30
0
40
255
1
12000
7
ST-REBAR
72
1
11
77200
21
53030
31
0
100
AcDbText
73
0
0
LINE
5
2C0
330
10E
100
AcDbEntity
8
ST-RB-B2
100
AcDbLine
10
83200
20
52700
30
0
11
89650
21
52700
31
0
0
LINE
5
2C1
330
10E
100
AcDbEntity
8
ST-RB-B2
100
AcDbLine
10
82650
20
52550
30
0
11
83200
21
52550
31
0
0
TEXT
5
2C2
330
10E
100
AcDbEntity
8
ST-RB-TEXT
100
AcDbText
10
86425
20
52617.5
30
0
40
315
1
3T12@200-B2-05-(L=7000)
7
ST-REBAR
72
1
11
86425
21
52617.5
31
0
100
AcDbText
73
0
0
TEXT
5
2C3
330
10E
100
AcDbEntity
8
ST-RB-TEXT
100
AcDbText
10
86425
20
53030
30
0
40
255
1
7000
7
ST-REBAR
72
1
11
86425
21
53030
31
0
100
AcDbText
73
0
0
LINE
5
2C4
330
10E
100
AcDbEntity
8
ST-RB-B2
100
AcDbLine
10
71200
20
52610
30
0
11
71200
21
52790
31
0
0
LINE
5
2C5
330
10E
100
AcDbEntity
8
ST-RB-B2
100
AcDbLine
10
89650
20
52610
30
0
11
89650
21
52790
31
0
0
LINE
5
2C6
330
10E
100
AcDbEntity
8
ST-RB-B2
100
AcDbLine
10
57200
20
54200
30
0
11
68150
21
54200
31
0
0
TEXT
5
2C7
330
10E
100
AcDbEntity
8
ST-RB-TEXT
100
AcDbText
10
62675
20
54282.5
30
0
40
315
1
12T12@200-B2-03-(L=10950)
7
ST-REBAR
72
1
11
62675
21
54282.5
31
0
100
AcDbText
73
0
0
TEXT
5
2C8
330
10E
100
AcDbEntity
8
ST-RB-TEXT
100
AcDbText
10
62675
20
53870
30
0
40
255
1
10950
7
ST-REBAR
72
1
11
62675
21
53870
31
0
100
AcDbText
73
0
0
LINE
5
2C9
330
10E
100
AcDbEntity
8
ST-RB-B2
100
AcDbLine
10
57200
20
54110
30
0
11
57200
21
54290
31
0
0
LINE
5
2CA
330
10E
100
AcDbEntity
8
ST-RB-B2
100
AcDbLine
10
68150
20
54110
30
0
11
68150
21
54290
31
0
0
LINE
5
2CB
330
10E
100
AcDbEntity
8
ST-RB-B2
100
AcDbLine
10
71200
20
54200
30
0
11
82650
21
54200
31
0
0
TEXT
5
2CC
330
10E
100
AcDbEntity
8
ST-RB-TEXT
100
AcDbText
10
76925
20
54282.5
30
0
40
315
1
12T12@200-B2-02-(L=11450)
7
ST-REBAR
72
1
11
76925
21
54282.5
31
0
100
AcDbText
73
0
0
TEXT
5
2CD
330
10E
100
AcDbEntity
8
ST-RB-TEXT
100
AcDbText
10
76925
20
53870
30
0
40
255
1
11450
7
ST-REBAR
72
1
11
76925
21
53870
31
0
100
AcDbText
73
0
0
LINE
5
2CE
330
10E
100
AcDbEntity
8
ST-RB-B2
100
AcDbLine
10
71200
20
54110
30
0
11
71200
21
54290
31
0
0
LINE
5
2CF
330
10E
100
AcDbEntity
8
ST-RB-B2
100
AcDbLine
10
82650
20
54110
30
0
11
82650
21
54290
31
0
0
LINE
5
2D0
330
10E
100
AcDbEntity
8
ST-RB-B2
100
AcDbLine
10
85200
20
54200
30
0
11
89650
21
54200
31
0
0
TEXT
5
2D1
330
10E
100
AcDbEntity
8
ST-RB-TEXT
100
AcDbText
10
87425
20
54282.5
30
0
40
315
1
12T12@200-B2-06-(L=4450)
7
ST-REBAR
72
1
11
87425
21
54282.5
31
0
100
AcDbText
73
0
0
TEXT
5
2D2
330
10E
100
AcDbEntity
8
ST-RB-TEXT
100
AcDbText
10
87425
20
53870
30
0
40
255
1
4450
7
ST-REBAR
72
1
11
87425
21
53870
31
0
100
AcDbText
73
0
0
LINE
5
2D3
330
10E
100
AcDbEntity
8
ST-RB-B2
100
AcDbLine
10
85200
20
54110
30
0
11
85200
21
54290
31
0
0
LINE
5
2D4
330
10E
100
AcDbEntity
8
ST-RB-B2
100
AcDbLine
10
89650
20
54110
30
0
11
89650
21
54290
31
0
0
LINE
5
2D5
330
10E
100
AcDbEntity
8
ST-RB-B2
100
AcDbLine
10
57200
20
56400
30
0
11
68150
21
56400
31
0
0
TEXT
5
2D6
330
10E
100
AcDbEntity
8
ST-RB-TEXT
100
AcDbText
10
62675
20
56317.5
30
0
40
315
1
10T12@200-B2-03-(L=10950)
7
ST-REBAR
72
1
11
62675
21
56317.5
31
0
100
AcDbText
73
0
0
TEXT
5
2D7
330
10E
100
AcDbEntity
8
ST-RB-TEXT
100
AcDbText
10
62675
20
56730
30
0
40
255
1
10950
7
ST-REBAR
72
1
11
62675
21
56730
31
0
100
AcDbText
73
0
0
LINE
5
2D8
330
10E
100
AcDbEntity
8
ST-RB-B2
100
AcDbLine
10
57200
20
56310
30
0
11
57200
21
56490
31
0
0
LINE
5
2D9
330
10E
100
AcDbEntity
8
ST-RB-B2
100
AcDbLine
10
68150
20
56310
30
0
11
68150
21
56490
31
0
0
LINE
5
2DA
330
10E
100
AcDbEntity
8
ST-RB-B2
100
AcDbLine
10
71200
20
56400
30
0
11
83200
21
56400
31
0
0
TEXT
5
2DB
330
10E
100
AcDbEntity
8
ST-RB-TEXT
100
AcDbText
10
77200
20
56317.5
30
0
40
315
1
10T12@200-B2-01-(L=12000)
7
ST-REBAR
72
1
11
77200
21
56317.5
31
0
100
AcDbText
73
0
0
TEXT
5
2DC
330
10E
100
AcDbEntity
8
ST-RB-TEXT
100
AcDbText
10
77200
20
56730
30
0
40
255
1
12000
7
ST-REBAR
72
1
11
77200
21
56730
31
0
100
AcDbText
73
0
0
LINE
5
2DD
330
10E
100
AcDbEntity
8
ST-RB-B2
100
AcDbLine
10
83200
20
56400
30
0
11
89650
21
56400
31
0
0
LINE
5
2DE
330
10E
100
AcDbEntity
8
ST-RB-B2
100
AcDbLine
10
82650
20
56250
30
0
11
83200
21
56250
31
0
0
TEXT
5
2DF
330
10E
100
AcDbEntity
8
ST-RB-TEXT
100
AcDbText
10
86425
20
56317.5
30
0
40
315
1
10T12@200-B2-05-(L=7000)
7
ST-REBAR
72
1
11
86425
21
56317.5
31
0
100
AcDbText
73
0
0
TEXT
5
2E0
330
10E
100
AcDbEntity
8
ST-RB-TEXT
100
AcDbText
10
86425
20
56730
30
0
40
255
1
7000
7
ST-REBAR
72
1
11
86425
21
56730
31
0
100
AcDbText
73
0
0
LINE
5
2E1
330
10E
100
AcDbEntity
8
ST-RB-B2
100
AcDbLine
10
71200
20
56310
30
0
11
71200
21
56490
31
0
0
LINE
5
2E2
330
10E
100
AcDbEntity
8
ST-RB-B2
100
AcDbLine
10
89650
20
56310
30
0
11
89650
21
56490
31
0
0
LINE
5
2E3
330
10E
100
AcDbEntity
8
ST-RB-B2
100
AcDbLine
10
57200
20
62700
30
0
11
69200
21
62700
31
0
0
TEXT
5
2E4
330
10E
100
AcDbEntity
8
ST-RB-TEXT
100
AcDbText
10
63200
20
62782.5
30
0
40
315
1
53T12@200-B2-01-(L=12000)
7
ST-REBAR
72
1
11
63200
21
62782.5
31
0
100
AcDbText
73
0
0
TEXT
5
2E5
330
10E
100
AcDbEntity
8
ST-RB-TEXT
100
AcDbText
10
63200
20
62370
30
0
40
255
1
12000
7
ST-REBAR
72
1
11
63200
21
62370
31
0
100
AcDbText
73
0
0
LINE
5
2E6
330
10E
100
AcDbEntity
8
ST-RB-B2
100
AcDbLine
10
69200
20
62700
30
0
11
80650
21
62700
31
0
0
LINE
5
2E7
330
10E
100
AcDbEntity
8
ST-RB-B2
100
AcDbLine
10
68650
20
62850
30
0
11
69200
21
62850
31
0
0
TEXT
5
2E8
330
10E
100
AcDbEntity
8
ST-RB-TEXT
100
AcDbText
10
74925
20
62782.5
30
0
40
315
1
53T12@200-B2-01-(L=12000)
7
ST-REBAR
72
1
11
74925
21
62782.5
31
0
100
AcDbText
73
0
0
TEXT
5
2E9
330
10E
100
AcDbEntity
8
ST-RB-TEXT
100
AcDbText
10
74925
20
62370
30
0
40
255
1
12000
7
ST-REBAR
72
1
11
74925
21
62370
31
0
100
AcDbText
73
0
0
LINE
5
2EA
330
10E
100
AcDbEntity
8
ST-RB-B2
100
AcDbLine
10
80650
20
62700
30
0
11
89650
21
62700
31
0
0
LINE
5
2EB
330
10E
100
AcDbEntity
8
ST-RB-B2
100
AcDbLine
10
80100
20
62850
30
0
11
80650
21
62850
31
0
0
TEXT
5
2EC
330
10E
100
AcDbEntity
8
ST-RB-TEXT
100
AcDbText
10
85150
20
62782.5
30
0
40
315
1
53T12@200-B2-04-(L=9550)
7
ST-REBAR
72
1
11
85150
21
62782.5
31
0
100
AcDbText
73
0
0
TEXT
5
2ED
330
10E
100
AcDbEntity
8
ST-RB-TEXT
100
AcDbText
10
85150
20
62370
30
0
40
255
1
9550
7
ST-REBAR
72
1
11
85150
21
62370
31
0
100
AcDbText
73
0
0
LINE
5
2EE
330
10E
100
AcDbEntity
8
ST-RB-B2
100
AcDbLine
10
57200
20
62610
30
0
11
57200
21
62790
31
0
0
LINE
5
2EF
330
10E
100
AcDbEntity
8
ST-RB-B2
100
AcDbLine
10
89650
20
62610
30
0
11
89650
21
62790
31
0
0
LWPOLYLINE
5
2F0
330
10E
100
AcDbEntity
8
ST-SHEET-FRAME
100
AcDbPolyline
90
4
70
1
43
0
10
3000
20
1500
10
34300
20
1500
10
34300
20
20250
10
3000
20
20250
0
LINE
5
2F1
330
10E
100
AcDbEntity
8
ST-SHEET-FRAME
100
AcDbLine
10
3000
20
19050
30
0
11
34300
21
19050
31
0
0
CIRCLE
5
2F2
330
10E
100
AcDbEntity
8
ST-CALLOUT
100
AcDbCircle
10
4050
20
19650
30
0
40
450
0
TEXT
5
2F3
330
10E
100
AcDbEntity
8
ST-CALLOUT
100
AcDbText
10
4050
20
19650
30
0
40
330
1
1
7
STANDARD
72
1
11
4050
21
19650
31
0
100
AcDbText
73
2
0
TEXT
5
2F4
330
10E
100
AcDbEntity
8
ST-SHEET-TEXT
100
AcDbText
10
4800
20
19650
30
0
40
360
1
SECTION - BOTTOM MESH AND LAP
7
STANDARD
72
0
11
4800
21
19650
31
0
100
AcDbText
73
2
0
TEXT
5
2F5
330
10E
100
AcDbEntity
8
ST-SHEET-TITLE
100
AcDbText
10
34000
20
19650
30
0
40
270
1
1:20
7
STANDARD
72
2
11
34000
21
19650
31
0
100
AcDbText
73
2
0
LWPOLYLINE
5
2F6
330
10E
100
AcDbEntity
8
ST-DETAIL
370
35
100
AcDbPolyline
90
4
70
1
43
0
10
8900
20
9750
10
28400
20
9750
10
28400
20
11400
10
8900
20
11400
0
HATCH
5
2F7
330
10E
100
AcDbEntity
8
ST-DETAIL-HATCH
100
AcDbHatch
10
0
20
0
30
0
210
0
220
0
230
1
2
ANSI31
70
0
71
0
91
1
92
3
72
0
73
1
93
4
10
8900
20
9750
10
28400
20
9750
10
28400
20
11400
10
8900
20
11400
97
0
75
1
76
1
52
0
41
75.590551
77
0
78
1
53
45
43
0
44
0
45
-169.705627
46
169.705627
79
0
47
1
98
0
0
LINE
5
2F8
330
10E
100
AcDbEntity
8
ST-RB-BOT
370
70
100
AcDbLine
10
9650
20
9982.5
30
0
11
20712.5
21
9982.5
31
0
0
LINE
5
2F9
330
10E
100
AcDbEntity
8
ST-RB-BOT
370
70
100
AcDbLine
10
16587.5
20
10108.5
30
0
11
27650
21
10108.5
31
0
0
LINE
5
2FA
330
10E
100
AcDbEntity
8
ST-RB-BOT
100
AcDbLine
10
9650
20
9832.5
30
0
11
9650
21
10132.5
31
0
0
LINE
5
2FB
330
10E
100
AcDbEntity
8
ST-RB-BOT
100
AcDbLine
10
20712.5
20
9832.5
30
0
11
20712.5
21
10132.5
31
0
0
LINE
5
2FC
330
10E
100
AcDbEntity
8
ST-RB-BOT
100
AcDbLine
10
16587.5
20
9958.5
30
0
11
16587.5
21
10258.5
31
0
0
LINE
5
2FD
330
10E
100
AcDbEntity
8
ST-RB-BOT
100
AcDbLine
10
27650
20
9958.5
30
0
11
27650
21
10258.5
31
0
0
CIRCLE
5
2FE
330
10E
100
AcDbEntity
8
ST-RB-BOT
100
AcDbCircle
10
10775
20
10216.5
30
0
40
45
0
CIRCLE
5
2FF
330
10E
100
AcDbEntity
8
ST-RB-BOT
100
AcDbCircle
10
12275
20
10216.5
30
0
40
45
0
CIRCLE
5
300
330
10E
100
AcDbEntity
8
ST-RB-BOT
100
AcDbCircle
10
13775
20
10216.5
30
0
40
45
0
CIRCLE
5
301
330
10E
100
AcDbEntity
8
ST-RB-BOT
100
AcDbCircle
10
15275
20
10216.5
30
0
40
45
0
CIRCLE
5
302
330
10E
100
AcDbEntity
8
ST-RB-BOT
100
AcDbCircle
10
16775
20
10216.5
30
0
40
45
0
CIRCLE
5
303
330
10E
100
AcDbEntity
8
ST-RB-BOT
100
AcDbCircle
10
18275
20
10216.5
30
0
40
45
0
CIRCLE
5
304
330
10E
100
AcDbEntity
8
ST-RB-BOT
100
AcDbCircle
10
19775
20
10216.5
30
0
40
45
0
CIRCLE
5
305
330
10E
100
AcDbEntity
8
ST-RB-BOT
100
AcDbCircle
10
21275
20
10216.5
30
0
40
45
0
CIRCLE
5
306
330
10E
100
AcDbEntity
8
ST-RB-BOT
100
AcDbCircle
10
22775
20
10216.5
30
0
40
45
0
CIRCLE
5
307
330
10E
100
AcDbEntity
8
ST-RB-BOT
100
AcDbCircle
10
24275
20
10216.5
30
0
40
45
0
CIRCLE
5
308
330
10E
100
AcDbEntity
8
ST-RB-BOT
100
AcDbCircle
10
25775
20
10216.5
30
0
40
45
0
CIRCLE
5
309
330
10E
100
AcDbEntity
8
ST-RB-BOT
100
AcDbCircle
10
27275
20
10216.5
30
0
40
45
0
LINE
5
30A
330
10E
100
AcDbEntity
8
ST-DIM
100
AcDbLine
10
16587.5
20
9750
30
0
11
16587.5
21
8925
31
0
0
LINE
5
30B
330
10E
100
AcDbEntity
8
ST-DIM
100
AcDbLine
10
20712.5
20
9750
30
0
11
20712.5
21
8925
31
0
0
LINE
5
30C
330
10E
100
AcDbEntity
8
ST-DIM
100
AcDbLine
10
16587.5
20
8700
30
0
11
20712.5
21
8700
31
0
0
LINE
5
30D
330
10E
100
AcDbEntity
8
ST-DIM
100
AcDbLine
10
16482.5
20
8595
30
0
11
16692.5
21
8805
31
0
0
LINE
5
30E
330
10E
100
AcDbEntity
8
ST-DIM
100
AcDbLine
10
20607.5
20
8595
30
0
11
20817.5
21
8805
31
0
0
TEXT
5
30F
330
10E
100
AcDbEntity
8
ST-DIM
100
AcDbText
10
18650
20
8808
30
0
40
270
1
LAP 550
7
STANDARD
72
1
11
18650
21
8808
31
0
100
AcDbText
73
0
0
LINE
5
310
330
10E
100
AcDbEntity
8
ST-DIM
100
AcDbLine
10
8900
20
9750
30
0
11
7775
21
9750
31
0
0
LINE
5
311
330
10E
100
AcDbEntity
8
ST-DIM
100
AcDbLine
10
8900
20
11400
30
0
11
7775
21
11400
31
0
0
LINE
5
312
330
10E
100
AcDbEntity
8
ST-DIM
100
AcDbLine
10
8000
20
9750
30
0
11
8000
21
11400
31
0
0
LINE
5
313
330
10E
100
AcDbEntity
8
ST-DIM
100
AcDbLine
10
8105
20
9645
30
0
11
7895
21
9855
31
0
0
LINE
5
314
330
10E
100
AcDbEntity
8
ST-DIM
100
AcDbLine
10
8105
20
11295
30
0
11
7895
21
11505
31
0
0
TEXT
5
315
330
10E
100
AcDbEntity
8
ST-DIM
100
AcDbText
10
7892
20
10575
30
0
40
270
1
220
50
90
7
STANDARD
72
1
11
7892
21
10575
31
0
100
AcDbText
73
0
0
LINE
5
316
330
10E
100
AcDbEntity
8
ST-DIM
100
AcDbLine
10
28400
20
9750
30
0
11
29075
21
9750
31
0
0
LINE
5
317
330
10E
100
AcDbEntity
8
ST-DIM
100
AcDbLine
10
28400
20
9937.5
30
0
11
29075
21
9937.5
31
0
0
LINE
5
318
330
10E
100
AcDbEntity
8
ST-DIM
100
AcDbLine
10
29300
20
9750
30
0
11
29300
21
9937.5
31
0
0
LINE
5
319
330
10E
100
AcDbEntity
8
ST-DIM
100
AcDbLine
10
29405
20
9645
30
0
11
29195
21
9855
31
0
0
LINE
5
31A
330
10E
100
AcDbEntity
8
ST-DIM
100
AcDbLine
10
29405
20
9832.5
30
0
11
29195
21
10042.5
31
0
0
TEXT
5
31B
330
10E
100
AcDbEntity
8
ST-DIM
100
AcDbText
10
29192
20
9843.75
30
0
40
270
1
25
50
90
7
STANDARD
72
1
11
29192
21
9843.75
31
0
100
AcDbText
73
0
0
TEXT
5
31C
330
10E
100
AcDbEntity
8
ST-RB-TEXT
100
AcDbText
10
18650
20
12300
30
0
40
285
1
T12@200 B.W. BOTTOM MESH - CLASS B LAP, STAGGERED
7
STANDARD
72
1
11
18650
21
12300
31
0
100
AcDbText
73
0
0
TEXT
5
31D
330
10E
100
AcDbEntity
8
ST-SHEET-NOTES
100
AcDbText
10
18650
20
6600
30
0
40
240
1
BOTTOM BARS CONTINUOUS THROUGH COLUMNS, STOPPED AT OPENINGS
7
STANDARD
72
1
11
18650
21
6600
31
0
100
AcDbText
73
0
0
LWPOLYLINE
5
31E
330
10E
100
AcDbEntity
8
ST-SHEET-FRAME
100
AcDbPolyline
90
4
70
1
43
0
10
34300
20
1500
10
65600
20
1500
10
65600
20
20250
10
34300
20
20250
0
LINE
5
31F
330
10E
100
AcDbEntity
8
ST-SHEET-FRAME
100
AcDbLine
10
34300
20
19050
30
0
11
65600
21
19050
31
0
0
CIRCLE
5
320
330
10E
100
AcDbEntity
8
ST-CALLOUT
100
AcDbCircle
10
35350
20
19650
30
0
40
450
0
TEXT
5
321
330
10E
100
AcDbEntity
8
ST-CALLOUT
100
AcDbText
10
35350
20
19650
30
0
40
330
1
2
7
STANDARD
72
1
11
35350
21
19650
31
0
100
AcDbText
73
2
0
TEXT
5
322
330
10E
100
AcDbEntity
8
ST-SHEET-TEXT
100
AcDbText
10
36100
20
19650
30
0
40
360
1
SECTION AT OPENING - MESH STOPPED
7
STANDARD
72
0
11
36100
21
19650
31
0
100
AcDbText
73
2
0
TEXT
5
323
330
10E
100
AcDbEntity
8
ST-SHEET-TITLE
100
AcDbText
10
65300
20
19650
30
0
40
270
1
1:12.5
7
STANDARD
72
2
11
65300
21
19650
31
0
100
AcDbText
73
2
0
LWPOLYLINE
5
324
330
10E
100
AcDbEntity
8
ST-DETAIL
370
35
100
AcDbPolyline
90
4
70
1
43
0
10
43350
20
8880
10
60150
20
8880
10
60150
20
11520
10
43350
20
11520
0
HATCH
5
325
330
10E
100
AcDbEntity
8
ST-DETAIL-HATCH
100
AcDbHatch
10
0
20
0
30
0
210
0
220
0
230
1
2
ANSI31
70
0
71
0
91
1
92
3
72
0
73
1
93
4
10
43350
20
8880
10
60150
20
8880
10
60150
20
11520
10
43350
20
11520
97
0
75
1
76
1
52
0
41
75.590551
77
0
78
1
53
45
43
0
44
0
45
-169.705627
46
169.705627
79
0
47
1
98
0
0
TEXT
5
326
330
10E
100
AcDbEntity
8
ST-OPENING
100
AcDbText
10
42630
20
10200
30
0
40
270
1
OPENING
7
STANDARD
72
2
11
42630
21
10200
31
0
100
AcDbText
73
2
0
CIRCLE
5
327
330
10E
100
AcDbEntity
8
ST-RB-TRIM
100
AcDbCircle
10
44226
20
9396
30
0
40
96
0
CIRCLE
5
328
330
10E
100
AcDbEntity
8
ST-RB-TRIM
100
AcDbCircle
10
44226
20
11004
30
0
40
96
0
CIRCLE
5
329
330
10E
100
AcDbEntity
8
ST-RB-TRIM
100
AcDbCircle
10
45126
20
9396
30
0
40
96
0
CIRCLE
5
32A
330
10E
100
AcDbEntity
8
ST-RB-TRIM
100
AcDbCircle
10
45126
20
11004
30
0
40
96
0
LWPOLYLINE
5
32B
330
10E
100
AcDbEntity
8
ST-RB-UBAR
370
60
100
AcDbPolyline
90
4
70
0
43
0
10
50550
20
9276
10
43746
20
9276
10
43746
20
11124
10
50550
20
11124
0
LINE
5
32C
330
10E
100
AcDbEntity
8
ST-RB-BOT
370
35
100
AcDbLine
10
46950
20
9636
30
0
11
59430
21
9636
31
0
0
LINE
5
32D
330
10E
100
AcDbEntity
8
ST-DIM
100
AcDbLine
10
60150
20
8880
30
0
11
60825
21
8880
31
0
0
LINE
5
32E
330
10E
100
AcDbEntity
8
ST-DIM
100
AcDbLine
10
60150
20
11520
30
0
11
60825
21
11520
31
0
0
LINE
5
32F
330
10E
100
AcDbEntity
8
ST-DIM
100
AcDbLine
10
61050
20
8880
30
0
11
61050
21
11520
31
0
0
LINE
5
330
330
10E
100
AcDbEntity
8
ST-DIM
100
AcDbLine
10
61155
20
8775
30
0
11
60945
21
8985
31
0
0
LINE
5
331
330
10E
100
AcDbEntity
8
ST-DIM
100
AcDbLine
10
61155
20
11415
30
0
11
60945
21
11625
31
0
0
TEXT
5
332
330
10E
100
AcDbEntity
8
ST-DIM
100
AcDbText
10
60942
20
10200
30
0
40
270
1
220
50
90
7
STANDARD
72
1
11
60942
21
10200
31
0
100
AcDbText
73
0
0
LINE
5
333
330
10E
100
AcDbEntity
8
ST-DIM
100
AcDbLine
10
43350
20
8880
30
0
11
43350
21
8055
31
0
0
LINE
5
334
330
10E
100
AcDbEntity
8
ST-DIM
100
AcDbLine
10
50550
20
8880
30
0
11
50550
21
8055
31
0
0
LINE
5
335
330
10E
100
AcDbEntity
8
ST-DIM
100
AcDbLine
10
43350
20
7830
30
0
11
50550
21
7830
31
0
0
LINE
5
336
330
10E
100
AcDbEntity
8
ST-DIM
100
AcDbLine
10
43245
20
7725
30
0
11
43455
21
7935
31
0
0
LINE
5
337
330
10E
100
AcDbEntity
8
ST-DIM
100
AcDbLine
10
50445
20
7725
30
0
11
50655
21
7935
31
0
0
TEXT
5
338
330
10E
100
AcDbEntity
8
ST-DIM
100
AcDbText
10
46950
20
7938
30
0
40
270
1
LEG 600
7
STANDARD
72
1
11
46950
21
7938
31
0
100
AcDbText
73
0
0
TEXT
5
339
330
10E
100
AcDbEntity
8
ST-RB-TEXT
100
AcDbText
10
51750
20
13920
30
0
40
285
1
2T16 TRIMMERS T&B + T12 U-BAR - SECTION AT EDGE
7
STANDARD
72
1
11
51750
21
13920
31
0
100
AcDbText
73
0
0
TEXT
5
33A
330
10E
100
AcDbEntity
8
ST-SHEET-NOTES
100
AcDbText
10
51750
20
4320
30
0
40
240
1
TRIMMERS PLACED IN THE SAME LAYER AS THE MAIN MESH
7
STANDARD
72
1
11
51750
21
4320
31
0
100
AcDbText
73
0
0
LWPOLYLINE
5
33B
330
10E
100
AcDbEntity
8
ST-SHEET-SCHEDULE
100
AcDbPolyline
90
4
70
1
43
0
10
96900
20
79350
10
124650
20
79350
10
124650
20
80250
10
96900
20
80250
0
TEXT
5
33C
330
10E
100
AcDbEntity
8
ST-SHEET-TEXT
100
AcDbText
10
110775
20
79800
30
0
40
390
1
BAR BENDING SCHEDULE
7
STANDARD
72
1
11
110775
21
79800
31
0
100
AcDbText
73
2
0
LWPOLYLINE
5
33D
330
10E
100
AcDbEntity
8
ST-SHEET-SCHEDULE
100
AcDbPolyline
90
4
70
1
43
0
10
96900
20
78600
10
124650
20
78600
10
124650
20
79350
10
96900
20
79350
0
TEXT
5
33E
330
10E
100
AcDbEntity
8
ST-SHEET-SCHEDULE-TEXT
100
AcDbText
10
98175
20
78975
30
0
40
240
1
MARK
7
STANDARD
72
1
11
98175
21
78975
31
0
100
AcDbText
73
2
0
TEXT
5
33F
330
10E
100
AcDbEntity
8
ST-SHEET-SCHEDULE-TEXT
100
AcDbText
10
100050
20
78975
30
0
40
240
1
\U+00D8
7
STANDARD
72
1
11
100050
21
78975
31
0
100
AcDbText
73
2
0
TEXT
5
340
330
10E
100
AcDbEntity
8
ST-SHEET-SCHEDULE-TEXT
100
AcDbText
10
101625
20
78975
30
0
40
240
1
SHAPE
7
STANDARD
72
1
11
101625
21
78975
31
0
100
AcDbText
73
2
0
TEXT
5
341
330
10E
100
AcDbEntity
8
ST-SHEET-SCHEDULE-TEXT
100
AcDbText
10
103500
20
78975
30
0
40
240
1
SPAC.
7
STANDARD
72
1
11
103500
21
78975
31
0
100
AcDbText
73
2
0
TEXT
5
342
330
10E
100
AcDbEntity
8
ST-SHEET-SCHEDULE-TEXT
100
AcDbText
10
105675
20
79132.5
30
0
40
240
1
LENGTH
7
STANDARD
72
1
11
105675
21
79132.5
31
0
100
AcDbText
73
2
0
TEXT
5
343
330
10E
100
AcDbEntity
8
ST-SHEET-SCHEDULE-TEXT
100
AcDbText
10
105675
20
78817.5
30
0
40
240
1
(mm)
7
STANDARD
72
1
11
105675
21
78817.5
31
0
100
AcDbText
73
2
0
TEXT
5
344
330
10E
100
AcDbEntity
8
ST-SHEET-SCHEDULE-TEXT
100
AcDbText
10
107925
20
78975
30
0
40
240
1
QTY
7
STANDARD
72
1
11
107925
21
78975
31
0
100
AcDbText
73
2
0
TEXT
5
345
330
10E
100
AcDbEntity
8
ST-SHEET-SCHEDULE-TEXT
100
AcDbText
10
110100
20
79132.5
30
0
40
240
1
TOTAL
7
STANDARD
72
1
11
110100
21
79132.5
31
0
100
AcDbText
73
2
0
TEXT
5
346
330
10E
100
AcDbEntity
8
ST-SHEET-SCHEDULE-TEXT
100
AcDbText
10
110100
20
78817.5
30
0
40
240
1
(m)
7
STANDARD
72
1
11
110100
21
78817.5
31
0
100
AcDbText
73
2
0
TEXT
5
347
330
10E
100
AcDbEntity
8
ST-SHEET-SCHEDULE-TEXT
100
AcDbText
10
112575
20
79132.5
30
0
40
240
1
WT.
7
STANDARD
72
1
11
112575
21
79132.5
31
0
100
AcDbText
73
2
0
TEXT
5
348
330
10E
100
AcDbEntity
8
ST-SHEET-SCHEDULE-TEXT
100
AcDbText
10
112575
20
78817.5
30
0
40
240
1
(kg)
7
STANDARD
72
1
11
112575
21
78817.5
31
0
100
AcDbText
73
2
0
TEXT
5
349
330
10E
100
AcDbEntity
8
ST-SHEET-SCHEDULE-TEXT
100
AcDbText
10
119250
20
78975
30
0
40
240
1
ZONES / REMARKS
7
STANDARD
72
1
11
119250
21
78975
31
0
100
AcDbText
73
2
0
TEXT
5
34A
330
10E
100
AcDbEntity
8
ST-SHEET-SCHEDULE-TEXT
100
AcDbText
10
98175
20
78300
30
0
40
255
1
B1-01
7
STANDARD
72
1
11
98175
21
78300
31
0
100
AcDbText
73
2
0
TEXT
5
34B
330
10E
100
AcDbEntity
8
ST-SHEET-SCHEDULE-TEXT
100
AcDbText
10
100050
20
78300
30
0
40
255
1
12
7
STANDARD
72
1
11
100050
21
78300
31
0
100
AcDbText
73
2
0
TEXT
5
34C
330
10E
100
AcDbEntity
8
ST-SHEET-SCHEDULE-TEXT
100
AcDbText
10
101625
20
78300
30
0
40
255
1
STR
7
STANDARD
72
1
11
101625
21
78300
31
0
100
AcDbText
73
2
0
TEXT
5
34D
330
10E
100
AcDbEntity
8
ST-SHEET-SCHEDULE-TEXT
100
AcDbText
10
103500
20
78300
30
0
40
255
1
200
7
STANDARD
72
1
11
103500
21
78300
31
0
100
AcDbText
73
2
0
TEXT
5
34E
330
10E
100
AcDbEntity
8
ST-SHEET-SCHEDULE-TEXT
100
AcDbText
10
105675
20
78300
30
0
40
255
1
12000
7
STANDARD
72
1
11
105675
21
78300
31
0
100
AcDbText
73
2
0
TEXT
5
34F
330
10E
100
AcDbEntity
8
ST-SHEET-SCHEDULE-TEXT
100
AcDbText
10
107925
20
78300
30
0
40
255
1
281
7
STANDARD
72
1
11
107925
21
78300
31
0
100
AcDbText
73
2
0
TEXT
5
350
330
10E
100
AcDbEntity
8
ST-SHEET-SCHEDULE-TEXT
100
AcDbText
10
110100
20
78300
30
0
40
255
1
3372
7
STANDARD
72
1
11
110100
21
78300
31
0
100
AcDbText
73
2
0
TEXT
5
351
330
10E
100
AcDbEntity
8
ST-SHEET-SCHEDULE-TEXT
100
AcDbText
10
112575
20
78300
30
0
40
255
1
2993.5
7
STANDARD
72
1
11
112575
21
78300
31
0
100
AcDbText
73
2
0
TEXT
5
352
330
10E
100
AcDbEntity
8
ST-SHEET-SCHEDULE-TEXT
100
AcDbText
10
114000
20
78300
30
0
40
255
1
PT1-B1-1, PT1-B1-3, PT1-B1-4, PT1-B1-5
7
STANDARD
72
0
11
114000
21
78300
31
0
100
AcDbText
73
2
0
LINE
5
353
330
10E
100
AcDbEntity
8
ST-SHEET-SCHEDULE
370
5
100
AcDbLine
10
96900
20
78000
30
0
11
124650
21
78000
31
0
0
TEXT
5
354
330
10E
100
AcDbEntity
8
ST-SHEET-SCHEDULE-TEXT
100
AcDbText
10
98175
20
77700
30
0
40
255
1
B1-02
7
STANDARD
72
1
11
98175
21
77700
31
0
100
AcDbText
73
2
0
TEXT
5
355
330
10E
100
AcDbEntity
8
ST-SHEET-SCHEDULE-TEXT
100
AcDbText
10
100050
20
77700
30
0
40
255
1
12
7
STANDARD
72
1
11
100050
21
77700
31
0
100
AcDbText
73
2
0
TEXT
5
356
330
10E
100
AcDbEntity
8
ST-SHEET-SCHEDULE-TEXT
100
AcDbText
10
101625
20
77700
30
0
40
255
1
STR
7
STANDARD
72
1
11
101625
21
77700
31
0
100
AcDbText
73
2
0
TEXT
5
357
330
10E
100
AcDbEntity
8
ST-SHEET-SCHEDULE-TEXT
100
AcDbText
10
103500
20
77700
30
0
40
255
1
200
7
STANDARD
72
1
11
103500
21
77700
31
0
100
AcDbText
73
2
0
TEXT
5
358
330
10E
100
AcDbEntity
8
ST-SHEET-SCHEDULE-TEXT
100
AcDbText
10
105675
20
77700
30
0
40
255
1
10950
7
STANDARD
72
1
11
105675
21
77700
31
0
100
AcDbText
73
2
0
TEXT
5
359
330
10E
100
AcDbEntity
8
ST-SHEET-SCHEDULE-TEXT
100
AcDbText
10
107925
20
77700
30
0
40
255
1
13
7
STANDARD
72
1
11
107925
21
77700
31
0
100
AcDbText
73
2
0
TEXT
5
35A
330
10E
100
AcDbEntity
8
ST-SHEET-SCHEDULE-TEXT
100
AcDbText
10
110100
20
77700
30
0
40
255
1
142.4
7
STANDARD
72
1
11
110100
21
77700
31
0
100
AcDbText
73
2
0
TEXT
5
35B
330
10E
100
AcDbEntity
8
ST-SHEET-SCHEDULE-TEXT
100
AcDbText
10
112575
20
77700
30
0
40
255
1
126.4
7
STANDARD
72
1
11
112575
21
77700
31
0
100
AcDbText
73
2
0
TEXT
5
35C
330
10E
100
AcDbEntity
8
ST-SHEET-SCHEDULE-TEXT
100
AcDbText
10
114000
20
77700
30
0
40
255
1
PT1-B1-4
7
STANDARD
72
0
11
114000
21
77700
31
0
100
AcDbText
73
2
0
LINE
5
35D
330
10E
100
AcDbEntity
8
ST-SHEET-SCHEDULE
370
5
100
AcDbLine
10
96900
20
77400
30
0
11
124650
21
77400
31
0
0
TEXT
5
35E
330
10E
100
AcDbEntity
8
ST-SHEET-SCHEDULE-TEXT
100
AcDbText
10
98175
20
77100
30
0
40
255
1
B1-03
7
STANDARD
72
1
11
98175
21
77100
31
0
100
AcDbText
73
2
0
TEXT
5
35F
330
10E
100
AcDbEntity
8
ST-SHEET-SCHEDULE-TEXT
100
AcDbText
10
100050
20
77100
30
0
40
255
1
12
7
STANDARD
72
1
11
100050
21
77100
31
0
100
AcDbText
73
2
0
TEXT
5
360
330
10E
100
AcDbEntity
8
ST-SHEET-SCHEDULE-TEXT
100
AcDbText
10
101625
20
77100
30
0
40
255
1
STR
7
STANDARD
72
1
11
101625
21
77100
31
0
100
AcDbText
73
2
0
TEXT
5
361
330
10E
100
AcDbEntity
8
ST-SHEET-SCHEDULE-TEXT
100
AcDbText
10
103500
20
77100
30
0
40
255
1
200
7
STANDARD
72
1
11
103500
21
77100
31
0
100
AcDbText
73
2
0
TEXT
5
362
330
10E
100
AcDbEntity
8
ST-SHEET-SCHEDULE-TEXT
100
AcDbText
10
105675
20
77100
30
0
40
255
1
10450
7
STANDARD
72
1
11
105675
21
77100
31
0
100
AcDbText
73
2
0
TEXT
5
363
330
10E
100
AcDbEntity
8
ST-SHEET-SCHEDULE-TEXT
100
AcDbText
10
107925
20
77100
30
0
40
255
1
30
7
STANDARD
72
1
11
107925
21
77100
31
0
100
AcDbText
73
2
0
TEXT
5
364
330
10E
100
AcDbEntity
8
ST-SHEET-SCHEDULE-TEXT
100
AcDbText
10
110100
20
77100
30
0
40
255
1
313.5
7
STANDARD
72
1
11
110100
21
77100
31
0
100
AcDbText
73
2
0
TEXT
5
365
330
10E
100
AcDbEntity
8
ST-SHEET-SCHEDULE-TEXT
100
AcDbText
10
112575
20
77100
30
0
40
255
1
278.3
7
STANDARD
72
1
11
112575
21
77100
31
0
100
AcDbText
73
2
0
TEXT
5
366
330
10E
100
AcDbEntity
8
ST-SHEET-SCHEDULE-TEXT
100
AcDbText
10
114000
20
77100
30
0
40
255
1
PT1-B1-2
7
STANDARD
72
0
11
114000
21
77100
31
0
100
AcDbText
73
2
0
LINE
5
367
330
10E
100
AcDbEntity
8
ST-SHEET-SCHEDULE
370
5
100
AcDbLine
10
96900
20
76800
30
0
11
124650
21
76800
31
0
0
TEXT
5
368
330
10E
100
AcDbEntity
8
ST-SHEET-SCHEDULE-TEXT
100
AcDbText
10
98175
20
76500
30
0
40
255
1
B1-04
7
STANDARD
72
1
11
98175
21
76500
31
0
100
AcDbText
73
2
0
TEXT
5
369
330
10E
100
AcDbEntity
8
ST-SHEET-SCHEDULE-TEXT
100
AcDbText
10
100050
20
76500
30
0
40
255
1
12
7
STANDARD
72
1
11
100050
21
76500
31
0
100
AcDbText
73
2
0
TEXT
5
36A
330
10E
100
AcDbEntity
8
ST-SHEET-SCHEDULE-TEXT
100
AcDbText
10
101625
20
76500
30
0
40
255
1
STR
7
STANDARD
72
1
11
101625
21
76500
31
0
100
AcDbText
73
2
0
TEXT
5
36B
330
10E
100
AcDbEntity
8
ST-SHEET-SCHEDULE-TEXT
100
AcDbText
10
103500
20
76500
30
0
40
255
1
200
7
STANDARD
72
1
11
103500
21
76500
31
0
100
AcDbText
73
2
0
TEXT
5
36C
330
10E
100
AcDbEntity
8
ST-SHEET-SCHEDULE-TEXT
100
AcDbText
10
105675
20
76500
30
0
40
255
1
3050
7
STANDARD
72
1
11
105675
21
76500
31
0
100
AcDbText
73
2
0
TEXT
5
36D
330
10E
100
AcDbEntity
8
ST-SHEET-SCHEDULE-TEXT
100
AcDbText
10
107925
20
76500
30
0
40
255
1
134
7
STANDARD
72
1
11
107925
21
76500
31
0
100
AcDbText
73
2
0
TEXT
5
36E
330
10E
100
AcDbEntity
8
ST-SHEET-SCHEDULE-TEXT
100
AcDbText
10
110100
20
76500
30
0
40
255
1
408.7
7
STANDARD
72
1
11
110100
21
76500
31
0
100
AcDbText
73
2
0
TEXT
5
36F
330
10E
100
AcDbEntity
8
ST-SHEET-SCHEDULE-TEXT
100
AcDbText
10
112575
20
76500
30
0
40
255
1
362.8
7
STANDARD
72
1
11
112575
21
76500
31
0
100
AcDbText
73
2
0
TEXT
5
370
330
10E
100
AcDbEntity
8
ST-SHEET-SCHEDULE-TEXT
100
AcDbText
10
114000
20
76500
30
0
40
255
1
PT1-B1-1, PT1-B1-3, PT1-B1-5
7
STANDARD
72
0
11
114000
21
76500
31
0
100
AcDbText
73
2
0
LINE
5
371
330
10E
100
AcDbEntity
8
ST-SHEET-SCHEDULE
370
5
100
AcDbLine
10
96900
20
76200
30
0
11
124650
21
76200
31
0
0
TEXT
5
372
330
10E
100
AcDbEntity
8
ST-SHEET-SCHEDULE-TEXT
100
AcDbText
10
98175
20
75900
30
0
40
255
1
B1-05
7
STANDARD
72
1
11
98175
21
75900
31
0
100
AcDbText
73
2
0
TEXT
5
373
330
10E
100
AcDbEntity
8
ST-SHEET-SCHEDULE-TEXT
100
AcDbText
10
100050
20
75900
30
0
40
255
1
12
7
STANDARD
72
1
11
100050
21
75900
31
0
100
AcDbText
73
2
0
TEXT
5
374
330
10E
100
AcDbEntity
8
ST-SHEET-SCHEDULE-TEXT
100
AcDbText
10
101625
20
75900
30
0
40
255
1
STR
7
STANDARD
72
1
11
101625
21
75900
31
0
100
AcDbText
73
2
0
TEXT
5
375
330
10E
100
AcDbEntity
8
ST-SHEET-SCHEDULE-TEXT
100
AcDbText
10
103500
20
75900
30
0
40
255
1
200
7
STANDARD
72
1
11
103500
21
75900
31
0
100
AcDbText
73
2
0
TEXT
5
376
330
10E
100
AcDbEntity
8
ST-SHEET-SCHEDULE-TEXT
100
AcDbText
10
105675
20
75900
30
0
40
255
1
1000
7
STANDARD
72
1
11
105675
21
75900
31
0
100
AcDbText
73
2
0
TEXT
5
377
330
10E
100
AcDbEntity
8
ST-SHEET-SCHEDULE-TEXT
100
AcDbText
10
107925
20
75900
30
0
40
255
1
13
7
STANDARD
72
1
11
107925
21
75900
31
0
100
AcDbText
73
2
0
TEXT
5
378
330
10E
100
AcDbEntity
8
ST-SHEET-SCHEDULE-TEXT
100
AcDbText
10
110100
20
75900
30
0
40
255
1
13
7
STANDARD
72
1
11
110100
21
75900
31
0
100
AcDbText
73
2
0
TEXT
5
379
330
10E
100
AcDbEntity
8
ST-SHEET-SCHEDULE-TEXT
100
AcDbText
10
112575
20
75900
30
0
40
255
1
11.5
7
STANDARD
72
1
11
112575
21
75900
31
0
100
AcDbText
73
2
0
TEXT
5
37A
330
10E
100
AcDbEntity
8
ST-SHEET-SCHEDULE-TEXT
100
AcDbText
10
114000
20
75900
30
0
40
255
1
PT1-B1-4
7
STANDARD
72
0
11
114000
21
75900
31
0
100
AcDbText
73
2
0
LINE
5
37B
330
10E
100
AcDbEntity
8
ST-SHEET-SCHEDULE
370
5
100
AcDbLine
10
96900
20
75600
30
0
11
124650
21
75600
31
0
0
TEXT
5
37C
330
10E
100
AcDbEntity
8
ST-SHEET-SCHEDULE-TEXT
100
AcDbText
10
98175
20
75300
30
0
40
255
1
B2-01
7
STANDARD
72
1
11
98175
21
75300
31
0
100
AcDbText
73
2
0
TEXT
5
37D
330
10E
100
AcDbEntity
8
ST-SHEET-SCHEDULE-TEXT
100
AcDbText
10
100050
20
75300
30
0
40
255
1
12
7
STANDARD
72
1
11
100050
21
75300
31
0
100
AcDbText
73
2
0
TEXT
5
37E
330
10E
100
AcDbEntity
8
ST-SHEET-SCHEDULE-TEXT
100
AcDbText
10
101625
20
75300
30
0
40
255
1
STR
7
STANDARD
72
1
11
101625
21
75300
31
0
100
AcDbText
73
2
0
TEXT
5
37F
330
10E
100
AcDbEntity
8
ST-SHEET-SCHEDULE-TEXT
100
AcDbText
10
103500
20
75300
30
0
40
255
1
200
7
STANDARD
72
1
11
103500
21
75300
31
0
100
AcDbText
73
2
0
TEXT
5
380
330
10E
100
AcDbEntity
8
ST-SHEET-SCHEDULE-TEXT
100
AcDbText
10
105675
20
75300
30
0
40
255
1
12000
7
STANDARD
72
1
11
105675
21
75300
31
0
100
AcDbText
73
2
0
TEXT
5
381
330
10E
100
AcDbEntity
8
ST-SHEET-SCHEDULE-TEXT
100
AcDbText
10
107925
20
75300
30
0
40
255
1
223
7
STANDARD
72
1
11
107925
21
75300
31
0
100
AcDbText
73
2
0
TEXT
5
382
330
10E
100
AcDbEntity
8
ST-SHEET-SCHEDULE-TEXT
100
AcDbText
10
110100
20
75300
30
0
40
255
1
2676
7
STANDARD
72
1
11
110100
21
75300
31
0
100
AcDbText
73
2
0
TEXT
5
383
330
10E
100
AcDbEntity
8
ST-SHEET-SCHEDULE-TEXT
100
AcDbText
10
112575
20
75300
30
0
40
255
1
2375.6
7
STANDARD
72
1
11
112575
21
75300
31
0
100
AcDbText
73
2
0
TEXT
5
384
330
10E
100
AcDbEntity
8
ST-SHEET-SCHEDULE-TEXT
100
AcDbText
10
114000
20
75300
30
0
40
255
1
PT1-B2-1, PT1-B2-2, PT1-B2-4, PT1-B2-5
7
STANDARD
72
0
11
114000
21
75300
31
0
100
AcDbText
73
2
0
LINE
5
385
330
10E
100
AcDbEntity
8
ST-SHEET-SCHEDULE
370
5
100
AcDbLine
10
96900
20
75000
30
0
11
124650
21
75000
31
0
0
TEXT
5
386
330
10E
100
AcDbEntity
8
ST-SHEET-SCHEDULE-TEXT
100
AcDbText
10
98175
20
74700
30
0
40
255
1
B2-02
7
STANDARD
72
1
11
98175
21
74700
31
0
100
AcDbText
73
2
0
TEXT
5
387
330
10E
100
AcDbEntity
8
ST-SHEET-SCHEDULE-TEXT
100
AcDbText
10
100050
20
74700
30
0
40
255
1
12
7
STANDARD
72
1
11
100050
21
74700
31
0
100
AcDbText
73
2
0
TEXT
5
388
330
10E
100
AcDbEntity
8
ST-SHEET-SCHEDULE-TEXT
100
AcDbText
10
101625
20
74700
30
0
40
255
1
STR
7
STANDARD
72
1
11
101625
21
74700
31
0
100
AcDbText
73
2
0
TEXT
5
389
330
10E
100
AcDbEntity
8
ST-SHEET-SCHEDULE-TEXT
100
AcDbText
10
103500
20
74700
30
0
40
255
1
200
7
STANDARD
72
1
11
103500
21
74700
31
0
100
AcDbText
73
2
0
TEXT
5
38A
330
10E
100
AcDbEntity
8
ST-SHEET-SCHEDULE-TEXT
100
AcDbText
10
105675
20
74700
30
0
40
255
1
11450
7
STANDARD
72
1
11
105675
21
74700
31
0
100
AcDbText
73
2
0
TEXT
5
38B
330
10E
100
AcDbEntity
8
ST-SHEET-SCHEDULE-TEXT
100
AcDbText
10
107925
20
74700
30
0
40
255
1
12
7
STANDARD
72
1
11
107925
21
74700
31
0
100
AcDbText
73
2
0
TEXT
5
38C
330
10E
100
AcDbEntity
8
ST-SHEET-SCHEDULE-TEXT
100
AcDbText
10
110100
20
74700
30
0
40
255
1
137.4
7
STANDARD
72
1
11
110100
21
74700
31
0
100
AcDbText
73
2
0
TEXT
5
38D
330
10E
100
AcDbEntity
8
ST-SHEET-SCHEDULE-TEXT
100
AcDbText
10
112575
20
74700
30
0
40
255
1
122
7
STANDARD
72
1
11
112575
21
74700
31
0
100
AcDbText
73
2
0
TEXT
5
38E
330
10E
100
AcDbEntity
8
ST-SHEET-SCHEDULE-TEXT
100
AcDbText
10
114000
20
74700
30
0
40
255
1
PT1-B2-3
7
STANDARD
72
0
11
114000
21
74700
31
0
100
AcDbText
73
2
0
LINE
5
38F
330
10E
100
AcDbEntity
8
ST-SHEET-SCHEDULE
370
5
100
AcDbLine
10
96900
20
74400
30
0
11
124650
21
74400
31
0
0
TEXT
5
390
330
10E
100
AcDbEntity
8
ST-SHEET-SCHEDULE-TEXT
100
AcDbText
10
98175
20
74100
30
0
40
255
1
B2-03
7
STANDARD
72
1
11
98175
21
74100
31
0
100
AcDbText
73
2
0
TEXT
5
391
330
10E
100
AcDbEntity
8
ST-SHEET-SCHEDULE-TEXT
100
AcDbText
10
100050
20
74100
30
0
40
255
1
12
7
STANDARD
72
1
11
100050
21
74100
31
0
100
AcDbText
73
2
0
TEXT
5
392
330
10E
100
AcDbEntity
8
ST-SHEET-SCHEDULE-TEXT
100
AcDbText
10
101625
20
74100
30
0
40
255
1
STR
7
STANDARD
72
1
11
101625
21
74100
31
0
100
AcDbText
73
2
0
TEXT
5
393
330
10E
100
AcDbEntity
8
ST-SHEET-SCHEDULE-TEXT
100
AcDbText
10
103500
20
74100
30
0
40
255
1
200
7
STANDARD
72
1
11
103500
21
74100
31
0
100
AcDbText
73
2
0
TEXT
5
394
330
10E
100
AcDbEntity
8
ST-SHEET-SCHEDULE-TEXT
100
AcDbText
10
105675
20
74100
30
0
40
255
1
10950
7
STANDARD
72
1
11
105675
21
74100
31
0
100
AcDbText
73
2
0
TEXT
5
395
330
10E
100
AcDbEntity
8
ST-SHEET-SCHEDULE-TEXT
100
AcDbText
10
107925
20
74100
30
0
40
255
1
25
7
STANDARD
72
1
11
107925
21
74100
31
0
100
AcDbText
73
2
0
TEXT
5
396
330
10E
100
AcDbEntity
8
ST-SHEET-SCHEDULE-TEXT
100
AcDbText
10
110100
20
74100
30
0
40
255
1
273.8
7
STANDARD
72
1
11
110100
21
74100
31
0
100
AcDbText
73
2
0
TEXT
5
397
330
10E
100
AcDbEntity
8
ST-SHEET-SCHEDULE-TEXT
100
AcDbText
10
112575
20
74100
30
0
40
255
1
243
7
STANDARD
72
1
11
112575
21
74100
31
0
100
AcDbText
73
2
0
TEXT
5
398
330
10E
100
AcDbEntity
8
ST-SHEET-SCHEDULE-TEXT
100
AcDbText
10
114000
20
74100
30
0
40
255
1
PT1-B2-2, PT1-B2-3, PT1-B2-4
7
STANDARD
72
0
11
114000
21
74100
31
0
100
AcDbText
73
2
0
LINE
5
399
330
10E
100
AcDbEntity
8
ST-SHEET-SCHEDULE
370
5
100
AcDbLine
10
96900
20
73800
30
0
11
124650
21
73800
31
0
0
TEXT
5
39A
330
10E
100
AcDbEntity
8
ST-SHEET-SCHEDULE-TEXT
100
AcDbText
10
98175
20
73500
30
0
40
255
1
B2-04
7
STANDARD
72
1
11
98175
21
73500
31
0
100
AcDbText
73
2
0
TEXT
5
39B
330
10E
100
AcDbEntity
8
ST-SHEET-SCHEDULE-TEXT
100
AcDbText
10
100050
20
73500
30
0
40
255
1
12
7
STANDARD
72
1
11
100050
21
73500
31
0
100
AcDbText
73
2
0
TEXT
5
39C
330
10E
100
AcDbEntity
8
ST-SHEET-SCHEDULE-TEXT
100
AcDbText
10
101625
20
73500
30
0
40
255
1
STR
7
STANDARD
72
1
11
101625
21
73500
31
0
100
AcDbText
73
2
0
TEXT
5
39D
330
10E
100
AcDbEntity
8
ST-SHEET-SCHEDULE-TEXT
100
AcDbText
10
103500
20
73500
30
0
40
255
1
200
7
STANDARD
72
1
11
103500
21
73500
31
0
100
AcDbText
73
2
0
TEXT
5
39E
330
10E
100
AcDbEntity
8
ST-SHEET-SCHEDULE-TEXT
100
AcDbText
10
105675
20
73500
30
0
40
255
1
9550
7
STANDARD
72
1
11
105675
21
73500
31
0
100
AcDbText
73
2
0
TEXT
5
39F
330
10E
100
AcDbEntity
8
ST-SHEET-SCHEDULE-TEXT
100
AcDbText
10
107925
20
73500
30
0
40
255
1
105
7
STANDARD
72
1
11
107925
21
73500
31
0
100
AcDbText
73
2
0
TEXT
5
3A0
330
10E
100
AcDbEntity
8
ST-SHEET-SCHEDULE-TEXT
100
AcDbText
10
110100
20
73500
30
0
40
255
1
1002.8
7
STANDARD
72
1
11
110100
21
73500
31
0
100
AcDbText
73
2
0
TEXT
5
3A1
330
10E
100
AcDbEntity
8
ST-SHEET-SCHEDULE-TEXT
100
AcDbText
10
112575
20
73500
30
0
40
255
1
890.2
7
STANDARD
72
1
11
112575
21
73500
31
0
100
AcDbText
73
2
0
TEXT
5
3A2
330
10E
100
AcDbEntity
8
ST-SHEET-SCHEDULE-TEXT
100
AcDbText
10
114000
20
73500
30
0
40
255
1
PT1-B2-1, PT1-B2-5
7
STANDARD
72
0
11
114000
21
73500
31
0
100
AcDbText
73
2
0
LINE
5
3A3
330
10E
100
AcDbEntity
8
ST-SHEET-SCHEDULE
370
5
100
AcDbLine
10
96900
20
73200
30
0
11
124650
21
73200
31
0
0
TEXT
5
3A4
330
10E
100
AcDbEntity
8
ST-SHEET-SCHEDULE-TEXT
100
AcDbText
10
98175
20
72900
30
0
40
255
1
B2-05
7
STANDARD
72
1
11
98175
21
72900
31
0
100
AcDbText
73
2
0
TEXT
5
3A5
330
10E
100
AcDbEntity
8
ST-SHEET-SCHEDULE-TEXT
100
AcDbText
10
100050
20
72900
30
0
40
255
1
12
7
STANDARD
72
1
11
100050
21
72900
31
0
100
AcDbText
73
2
0
TEXT
5
3A6
330
10E
100
AcDbEntity
8
ST-SHEET-SCHEDULE-TEXT
100
AcDbText
10
101625
20
72900
30
0
40
255
1
STR
7
STANDARD
72
1
11
101625
21
72900
31
0
100
AcDbText
73
2
0
TEXT
5
3A7
330
10E
100
AcDbEntity
8
ST-SHEET-SCHEDULE-TEXT
100
AcDbText
10
103500
20
72900
30
0
40
255
1
200
7
STANDARD
72
1
11
103500
21
72900
31
0
100
AcDbText
73
2
0
TEXT
5
3A8
330
10E
100
AcDbEntity
8
ST-SHEET-SCHEDULE-TEXT
100
AcDbText
10
105675
20
72900
30
0
40
255
1
7000
7
STANDARD
72
1
11
105675
21
72900
31
0
100
AcDbText
73
2
0
TEXT
5
3A9
330
10E
100
AcDbEntity
8
ST-SHEET-SCHEDULE-TEXT
100
AcDbText
10
107925
20
72900
30
0
40
255
1
13
7
STANDARD
72
1
11
107925
21
72900
31
0
100
AcDbText
73
2
0
TEXT
5
3AA
330
10E
100
AcDbEntity
8
ST-SHEET-SCHEDULE-TEXT
100
AcDbText
10
110100
20
72900
30
0
40
255
1
91
7
STANDARD
72
1
11
110100
21
72900
31
0
100
AcDbText
73
2
0
TEXT
5
3AB
330
10E
100
AcDbEntity
8
ST-SHEET-SCHEDULE-TEXT
100
AcDbText
10
112575
20
72900
30
0
40
255
1
80.8
7
STANDARD
72
1
11
112575
21
72900
31
0
100
AcDbText
73
2
0
TEXT
5
3AC
330
10E
100
AcDbEntity
8
ST-SHEET-SCHEDULE-TEXT
100
AcDbText
10
114000
20
72900
30
0
40
255
1
PT1-B2-2, PT1-B2-4
7
STANDARD
72
0
11
114000
21
72900
31
0
100
AcDbText
73
2
0
LINE
5
3AD
330
10E
100
AcDbEntity
8
ST-SHEET-SCHEDULE
370
5
100
AcDbLine
10
96900
20
72600
30
0
11
124650
21
72600
31
0
0
TEXT
5
3AE
330
10E
100
AcDbEntity
8
ST-SHEET-SCHEDULE-TEXT
100
AcDbText
10
98175
20
72300
30
0
40
255
1
B2-06
7
STANDARD
72
1
11
98175
21
72300
31
0
100
AcDbText
73
2
0
TEXT
5
3AF
330
10E
100
AcDbEntity
8
ST-SHEET-SCHEDULE-TEXT
100
AcDbText
10
100050
20
72300
30
0
40
255
1
12
7
STANDARD
72
1
11
100050
21
72300
31
0
100
AcDbText
73
2
0
TEXT
5
3B0
330
10E
100
AcDbEntity
8
ST-SHEET-SCHEDULE-TEXT
100
AcDbText
10
101625
20
72300
30
0
40
255
1
STR
7
STANDARD
72
1
11
101625
21
72300
31
0
100
AcDbText
73
2
0
TEXT
5
3B1
330
10E
100
AcDbEntity
8
ST-SHEET-SCHEDULE-TEXT
100
AcDbText
10
103500
20
72300
30
0
40
255
1
200
7
STANDARD
72
1
11
103500
21
72300
31
0
100
AcDbText
73
2
0
TEXT
5
3B2
330
10E
100
AcDbEntity
8
ST-SHEET-SCHEDULE-TEXT
100
AcDbText
10
105675
20
72300
30
0
40
255
1
4450
7
STANDARD
72
1
11
105675
21
72300
31
0
100
AcDbText
73
2
0
TEXT
5
3B3
330
10E
100
AcDbEntity
8
ST-SHEET-SCHEDULE-TEXT
100
AcDbText
10
107925
20
72300
30
0
40
255
1
12
7
STANDARD
72
1
11
107925
21
72300
31
0
100
AcDbText
73
2
0
TEXT
5
3B4
330
10E
100
AcDbEntity
8
ST-SHEET-SCHEDULE-TEXT
100
AcDbText
10
110100
20
72300
30
0
40
255
1
53.4
7
STANDARD
72
1
11
110100
21
72300
31
0
100
AcDbText
73
2
0
TEXT
5
3B5
330
10E
100
AcDbEntity
8
ST-SHEET-SCHEDULE-TEXT
100
AcDbText
10
112575
20
72300
30
0
40
255
1
47.4
7
STANDARD
72
1
11
112575
21
72300
31
0
100
AcDbText
73
2
0
TEXT
5
3B6
330
10E
100
AcDbEntity
8
ST-SHEET-SCHEDULE-TEXT
100
AcDbText
10
114000
20
72300
30
0
40
255
1
PT1-B2-3
7
STANDARD
72
0
11
114000
21
72300
31
0
100
AcDbText
73
2
0
LINE
5
3B7
330
10E
100
AcDbEntity
8
ST-SHEET-SCHEDULE
370
5
100
AcDbLine
10
96900
20
72000
30
0
11
124650
21
72000
31
0
0
LWPOLYLINE
5
3B8
330
10E
100
AcDbEntity
8
ST-SHEET-SCHEDULE
100
AcDbPolyline
90
4
70
1
43
0
10
96900
20
71325
10
124650
20
71325
10
124650
20
72000
10
96900
20
72000
0
TEXT
5
3B9
330
10E
100
AcDbEntity
8
ST-SHEET-SCHEDULE-TEXT
100
AcDbText
10
97200
20
71662.5
30
0
40
255
1
TOTAL 7,531.5 kg  \U+00B7  \U+00D812: 8484 m
7
STANDARD
72
0
11
97200
21
71662.5
31
0
100
AcDbText
73
2
0
LINE
5
3BA
330
10E
100
AcDbEntity
8
ST-SHEET-SCHEDULE
100
AcDbLine
10
96900
20
79350
30
0
11
96900
21
71325
31
0
0
LINE
5
3BB
330
10E
100
AcDbEntity
8
ST-SHEET-SCHEDULE
100
AcDbLine
10
99450
20
79350
30
0
11
99450
21
71325
31
0
0
LINE
5
3BC
330
10E
100
AcDbEntity
8
ST-SHEET-SCHEDULE
100
AcDbLine
10
100650
20
79350
30
0
11
100650
21
71325
31
0
0
LINE
5
3BD
330
10E
100
AcDbEntity
8
ST-SHEET-SCHEDULE
100
AcDbLine
10
102600
20
79350
30
0
11
102600
21
71325
31
0
0
LINE
5
3BE
330
10E
100
AcDbEntity
8
ST-SHEET-SCHEDULE
100
AcDbLine
10
104400
20
79350
30
0
11
104400
21
71325
31
0
0
LINE
5
3BF
330
10E
100
AcDbEntity
8
ST-SHEET-SCHEDULE
100
AcDbLine
10
106950
20
79350
30
0
11
106950
21
71325
31
0
0
LINE
5
3C0
330
10E
100
AcDbEntity
8
ST-SHEET-SCHEDULE
100
AcDbLine
10
108900
20
79350
30
0
11
108900
21
71325
31
0
0
LINE
5
3C1
330
10E
100
AcDbEntity
8
ST-SHEET-SCHEDULE
100
AcDbLine
10
111300
20
79350
30
0
11
111300
21
71325
31
0
0
LINE
5
3C2
330
10E
100
AcDbEntity
8
ST-SHEET-SCHEDULE
100
AcDbLine
10
113850
20
79350
30
0
11
113850
21
71325
31
0
0
LINE
5
3C3
330
10E
100
AcDbEntity
8
ST-SHEET-SCHEDULE
100
AcDbLine
10
124650
20
79350
30
0
11
124650
21
71325
31
0
0
LINE
5
3C4
330
10E
100
AcDbEntity
8
ST-SHEET-SCHEDULE
100
AcDbLine
10
96900
20
71325
30
0
11
124650
21
71325
31
0
0
TEXT
5
3C5
330
10E
100
AcDbEntity
8
ST-SHEET-TITLE
100
AcDbText
10
97200
20
86925
30
0
40
330
1
KEY PLAN
7
STANDARD
72
0
100
AcDbText
73
0
0
LWPOLYLINE
5
3C6
330
10E
100
AcDbEntity
8
ST-SHEET-TITLE
100
AcDbPolyline
90
4
70
1
43
0
10
102900
20
81150
10
118650
20
81150
10
118650
20
86700
10
102900
20
86700
0
LWPOLYLINE
5
3C7
330
10E
100
AcDbEntity
8
ST-SLAB-EDGE
100
AcDbPolyline
90
4
70
1
43
0
10
107868.75
20
81600
10
113681.25
20
81600
10
113681.25
20
86250
10
107868.75
20
86250
0
HATCH
5
3C8
330
10E
100
AcDbEntity
8
ST-HATCH
100
AcDbHatch
10
0
20
0
30
0
210
0
220
0
230
1
2
ANSI31
70
0
71
0
91
1
92
3
72
0
73
1
93
4
10
107868.75
20
81600
10
113681.25
20
81600
10
113681.25
20
86250
10
107868.75
20
86250
97
0
75
1
76
1
52
0
41
56.692913
77
0
78
1
53
45
43
0
44
0
45
-127.279221
46
127.279221
79
0
47
1
98
0
0
CIRCLE
5
3C9
330
10E
100
AcDbEntity
8
ST-TEXT
100
AcDbCircle
10
121650
20
83700
30
0
40
900
0
SOLID
5
3CA
330
10E
100
AcDbEntity
8
ST-TEXT
100
AcDbTrace
10
121650
20
84450
30
0
11
121275
21
83175
31
0
12
122025
22
83175
32
0
13
121650
23
83520
33
0
0
TEXT
5
3CB
330
10E
100
AcDbEntity
8
ST-TEXT
100
AcDbText
10
121650
20
84825
30
0
40
375
1
N
7
STANDARD
72
1
11
121650
21
84825
31
0
100
AcDbText
73
0
0
TEXT
5
3CC
330
10E
100
AcDbEntity
8
ST-SHEET-TEXT
100
AcDbText
10
97350
20
58770
30
0
40
360
1
GENERAL NOTES
7
STANDARD
72
0
100
AcDbText
73
0
0
TEXT
5
3CD
330
10E
100
AcDbEntity
8
ST-SHEET-TEXT
100
AcDbText
10
124200
20
58770
30
0
40
330
1
\U+0645\U+0644\U+0627\U+062D\U+0638\U+0627\U+062A \U+0639\U+0627\U+0645\U+0629
7
STANDARD
72
2
11
124200
21
58770
31
0
100
AcDbText
73
0
0
LINE
5
3CE
330
10E
100
AcDbEntity
8
ST-SHEET-NOTES
100
AcDbLine
10
97350
20
58605
30
0
11
124200
21
58605
31
0
0
MTEXT
5
3CF
330
10E
100
AcDbEntity
8
ST-SHEET-NOTES
100
AcDbMText
10
97350
20
58410
30
0
40
262.5
41
26700
71
1
72
1
1
1. ALL DIMENSIONS ARE IN MILLIMETRES, LEVELS IN METRES UNLESS NOTED OTHERWISE. DO NOT SCALE; FOLLOW THE WRITTEN DIMENSIONS.
7
STANDARD
44
1
0
MTEXT
5
3D0
330
10E
100
AcDbEntity
8
ST-SHEET-NOTES
100
AcDbMText
10
97350
20
57952.5
30
0
40
262.5
41
26700
71
1
72
1
1
2. CONCRETE f'c = 35 MPa (drawing). REINFORCEMENT: DEFORMED BARS fy = 420 MPa (drawing). CLEAR COVER 25 mm TOP AND BOTTOM (drawing).
7
STANDARD
44
1
0
MTEXT
5
3D1
330
10E
100
AcDbEntity
8
ST-SHEET-NOTES
100
AcDbMText
10
97350
20
57088.125
30
0
40
262.5
41
26700
71
1
72
1
1
3. SLAB THICKNESS 220 mm. THIS SHEET IS TO BE READ WITH THE CONSULTANT'S STRUCTURAL DRAWINGS (G.A.) AND THE PT LAYOUT; DISCREPANCIES TO BE REFERRED TO THE ENGINEER BEFORE FABRICATION.
7
STANDARD
44
1
0
MTEXT
5
3D2
330
10E
100
AcDbEntity
8
ST-SHEET-NOTES
100
AcDbMText
10
97350
20
56223.75
30
0
40
262.5
41
26700
71
1
72
1
3
4. BAR CALL-OUT: [No.] T[\U+00D8] @[SPACING] - [LAYER-MARK] - (L = CUTTING LENGTH). STRAIGHT LENGTH IS WRITTEN UNDER THE BAR; A HOOK LEG IS WRITTEN AT THE HOOKED END. T1/T2 = TOP LAYERS, B1/B2 = BOTTOM LAYERS (1 = BARS PARALLEL TO THE NUMBERED GRIDS,
1
 2 = PARALLEL TO THE LETTERED GRIDS).
7
STANDARD
44
1
0
MTEXT
5
3D3
330
10E
100
AcDbEntity
8
ST-SHEET-NOTES
100
AcDbMText
10
97350
20
54952.5
30
0
40
262.5
41
26700
71
1
72
1
1
5. THE DRAWN BAR IS REPRESENTATIVE OF THE GROUP; THE NUMBER OF BARS IN THE CALL-OUT IS PLACED AT THE GIVEN SPACING ACROSS THE ZONE. A SHORT OFFSET LINE MARKS THE LAP OF THE FOLLOWING PIECE.
7
STANDARD
44
1
0
MTEXT
5
3D4
330
10E
100
AcDbEntity
8
ST-SHEET-NOTES
100
AcDbMText
10
97350
20
54088.125
30
0
40
262.5
41
26700
71
1
72
1
1
6. TENSION LAPS ARE CLASS B (1.3 ld) PER SBC 304-18 \U+00A725.5.2, SO ALL BARS OF A ROW MAY LAP AT THE SAME SECTION. BARS ENDING AT A FREE EDGE TERMINATE WITH A STANDARD 90\U+00B0 HOOK (12 \U+00D8) UNLESS NOTED.
7
STANDARD
44
1
0
MTEXT
5
3D5
330
10E
100
AcDbEntity
8
ST-SHEET-NOTES
100
AcDbMText
10
97350
20
53223.75
30
0
40
262.5
41
26700
71
1
72
1
1
7. BOTTOM MESH \U+00D812@200 BOTH WAYS IN THE PT ZONE(S) AS BONDED REINFORCEMENT: B1 PARALLEL TO THE NUMBERED GRIDS (PLAN 1), B2 PARALLEL TO THE LETTERED GRIDS (PLAN 2). BARS RUN CONTINUOUSLY THROUGH COLUMNS AND STOP AT OPENINGS (DETAIL 2).
7
STANDARD
44
1
0
MTEXT
5
3D6
330
10E
100
AcDbEntity
8
ST-SHEET-NOTES
100
AcDbMText
10
97350
20
52359.375
30
0
40
262.5
41
26700
71
1
72
1
3
8. BAR LENGTHS ARE CUT FROM THE ZONE BOUNDARY LESS COVER; RUNS LONGER THAN ONE STOCK LENGTH ARE SPLIT INTO PIECES WITH CLASS B LAPS, EACH PIECE CALLED OUT SEPARATELY. GROUPS OF FEWER THAN THREE BARS (ROWS INTERRUPTED BY OPENINGS) ARE NOT DRAWN BUT AR
1
E SCHEDULED UNDER THEIR ZONE.
7
STANDARD
44
1
0
MTEXT
5
3D7
330
10E
100
AcDbEntity
8
ST-SHEET-NOTES
100
AcDbMText
10
97350
20
51088.125
30
0
40
262.5
41
26700
71
1
72
1
1
9. \U+00D812: ld 410 (bot) / 530 (top) \U+00B7 LAP 550 (bot) / 700 (top) \U+00B7 ldh 210
7
STANDARD
44
1
0
TEXT
5
3D8
330
10E
100
AcDbEntity
8
ST-SHEET-TEXT
100
AcDbText
10
97350
20
50150.625
30
0
40
360
1
ASSUMPTIONS
7
STANDARD
72
0
100
AcDbText
73
0
0
TEXT
5
3D9
330
10E
100
AcDbEntity
8
ST-SHEET-TEXT
100
AcDbText
10
124200
20
50150.625
30
0
40
330
1
\U+0627\U+0641\U+062A\U+0631\U+0627\U+0636\U+0627\U+062A
7
STANDARD
72
2
11
124200
21
50150.625
31
0
100
AcDbText
73
0
0
LINE
5
3DA
330
10E
100
AcDbEntity
8
ST-SHEET-NOTES
100
AcDbLine
10
97350
20
49985.625
30
0
11
124200
21
49985.625
31
0
0
MTEXT
5
3DB
330
10E
100
AcDbEntity
8
ST-SHEET-NOTES
100
AcDbMText
10
97350
20
49790.625
30
0
40
247.5
41
26700
71
1
72
1
1
A1. Bottom mesh not specified: T12@200 both ways assumed as bonded reinforcement in PT zones.
7
STANDARD
44
1
0
MTEXT
5
3DC
330
10E
100
AcDbEntity
8
ST-SHEET-NOTES
100
AcDbMText
10
97350
20
49348.125
30
0
40
247.5
41
26700
71
1
72
1
1
A2. Edge U-bars not specified: T12@200 with 1200 mm legs assumed at PT anchorage edges.
7
STANDARD
44
1
0
MTEXT
5
3DD
330
10E
100
AcDbEntity
8
ST-SHEET-NOTES
100
AcDbMText
10
97350
20
48905.625
30
0
40
247.5
41
26700
71
1
72
1
1
A3. Opening trimmers not specified: 2T16 T&B each side + 2T12 diagonals at corners assumed.
7
STANDARD
44
1
0
MTEXT
5
3DE
330
10E
100
AcDbEntity
8
ST-SHEET-NOTES
100
AcDbMText
10
97350
20
48463.125
30
0
40
247.5
41
26700
71
1
72
1
1
A4. Void trimmers not specified: 2T12 T&B each side assumed.
7
STANDARD
44
1
0
MTEXT
5
3DF
330
10E
100
AcDbEntity
8
ST-SHEET-NOTES
100
AcDbMText
10
97350
20
48020.625
30
0
40
247.5
41
26700
71
1
72
1
1
A5. Stock bar length 12 m; laps staggered so that not more than 50 % of bars lap at one section.
7
STANDARD
44
1
0
TEXT
5
3E0
330
10E
100
AcDbEntity
8
ST-SHEET-TEXT
100
AcDbText
10
97350
20
47098.125
30
0
40
360
1
CODE REFERENCE
7
STANDARD
72
0
100
AcDbText
73
0
0
TEXT
5
3E1
330
10E
100
AcDbEntity
8
ST-SHEET-TEXT
100
AcDbText
10
124200
20
47098.125
30
0
40
330
1
\U+0627\U+0644\U+0645\U+0631\U+062C\U+0639 \U+0627\U+0644\U+0643\U+0648\U+062F\U+064A
7
STANDARD
72
2
11
124200
21
47098.125
31
0
100
AcDbText
73
0
0
LINE
5
3E2
330
10E
100
AcDbEntity
8
ST-SHEET-NOTES
100
AcDbLine
10
97350
20
46933.125
30
0
11
124200
21
46933.125
31
0
0
MTEXT
5
3E3
330
10E
100
AcDbEntity
8
ST-SHEET-NOTES
100
AcDbMText
10
97350
20
46738.125
30
0
40
262.5
41
26700
71
1
72
1
1
SBC 304-18 AS STATED ON THE STRUCTURAL DRAWINGS. DEVELOPMENT, ANCHORAGE AND LAP LENGTHS PER SBC 304-18 CHAPTER 25 (ACI 318-14 BASIS).
7
STANDARD
44
1
0
TEXT
5
3E4
330
10E
100
AcDbEntity
8
ST-SHEET-TEXT
100
AcDbText
10
97350
20
45393.75
30
0
40
360
1
LEGEND
7
STANDARD
72
0
100
AcDbText
73
0
0
TEXT
5
3E5
330
10E
100
AcDbEntity
8
ST-SHEET-TEXT
100
AcDbText
10
124200
20
45393.75
30
0
40
330
1
\U+0645\U+0641\U+062A\U+0627\U+062D \U+0627\U+0644\U+0631\U+0645\U+0648\U+0632
7
STANDARD
72
2
11
124200
21
45393.75
31
0
100
AcDbText
73
0
0
LINE
5
3E6
330
10E
100
AcDbEntity
8
ST-SHEET-NOTES
100
AcDbLine
10
97350
20
45228.75
30
0
11
124200
21
45228.75
31
0
0
LINE
5
3E7
330
10E
100
AcDbEntity
8
ST-RB
370
50
100
AcDbLine
10
97350
20
44778.75
30
0
11
98550
21
44778.75
31
0
0
TEXT
5
3E8
330
10E
100
AcDbEntity
8
ST-SHEET-NOTES
100
AcDbText
10
98850
20
44703.75
30
0
40
255
1
T12 BOTTOM BAR (REPRESENTATIVE)
7
STANDARD
72
0
100
AcDbText
73
0
0
LINE
5
3E9
330
10E
100
AcDbEntity
8
ST-RB-MESH
100
AcDbLine
10
97350
20
44328.75
30
0
11
98550
21
44328.75
31
0
0
TEXT
5
3EA
330
10E
100
AcDbEntity
8
ST-SHEET-NOTES
100
AcDbText
10
98850
20
44253.75
30
0
40
255
1
MESH LABEL PER ZONE
7
STANDARD
72
0
100
AcDbText
73
0
0
LINE
5
3EB
330
10E
100
AcDbEntity
8
ST-OPENING
100
AcDbLine
10
97350
20
43878.75
30
0
11
98550
21
43878.75
31
0
0
TEXT
5
3EC
330
10E
100
AcDbEntity
8
ST-SHEET-NOTES
100
AcDbText
10
98850
20
43803.75
30
0
40
255
1
OPENING
7
STANDARD
72
0
100
AcDbText
73
0
0
LINE
5
3ED
330
10E
100
AcDbEntity
8
ST-SHEET-TITLE
100
AcDbLine
10
96900
20
31050
30
0
11
124650
21
31050
31
0
0
TEXT
5
3EE
330
10E
100
AcDbEntity
8
ST-SHEET-TITLE
100
AcDbText
10
110775
20
31425
30
0
40
255
1
COORDINATED WITH THE FOLLOWING DISCIPLINES
7
STANDARD
72
1
11
110775
21
31425
31
0
100
AcDbText
73
2
0
LINE
5
3EF
330
10E
100
AcDbEntity
8
ST-SHEET-TITLE
100
AcDbLine
10
96900
20
30150
30
0
11
124650
21
30150
31
0
0
TEXT
5
3F0
330
10E
100
AcDbEntity
8
ST-SHEET-TITLE
100
AcDbText
10
97125
20
30720
30
0
40
225
1
ARCH.
7
STANDARD
72
0
100
AcDbText
73
0
0
TEXT
5
3F1
330
10E
100
AcDbEntity
8
ST-SHEET-TEXT
100
AcDbText
10
100368.75
20
30300
30
0
40
240
1

7
STANDARD
72
1
11
100368.75
21
30300
31
0
100
AcDbText
73
0
0
LINE
5
3F2
330
10E
100
AcDbEntity
8
ST-SHEET-TITLE
100
AcDbLine
10
103837.5
20
30150
30
0
11
103837.5
21
31050
31
0
0
TEXT
5
3F3
330
10E
100
AcDbEntity
8
ST-SHEET-TITLE
100
AcDbText
10
104062.5
20
30720
30
0
40
225
1
STRUCT.
7
STANDARD
72
0
100
AcDbText
73
0
0
TEXT
5
3F4
330
10E
100
AcDbEntity
8
ST-SHEET-TEXT
100
AcDbText
10
107306.25
20
30300
30
0
40
240
1

7
STANDARD
72
1
11
107306.25
21
30300
31
0
100
AcDbText
73
0
0
LINE
5
3F5
330
10E
100
AcDbEntity
8
ST-SHEET-TITLE
100
AcDbLine
10
110775
20
30150
30
0
11
110775
21
31050
31
0
0
TEXT
5
3F6
330
10E
100
AcDbEntity
8
ST-SHEET-TITLE
100
AcDbText
10
111000
20
30720
30
0
40
225
1
MEP
7
STANDARD
72
0
100
AcDbText
73
0
0
TEXT
5
3F7
330
10E
100
AcDbEntity
8
ST-SHEET-TEXT
100
AcDbText
10
114243.75
20
30300
30
0
40
240
1

7
STANDARD
72
1
11
114243.75
21
30300
31
0
100
AcDbText
73
0
0
LINE
5
3F8
330
10E
100
AcDbEntity
8
ST-SHEET-TITLE
100
AcDbLine
10
117712.5
20
30150
30
0
11
117712.5
21
31050
31
0
0
TEXT
5
3F9
330
10E
100
AcDbEntity
8
ST-SHEET-TITLE
100
AcDbText
10
117937.5
20
30720
30
0
40
225
1
EL.
7
STANDARD
72
0
100
AcDbText
73
0
0
TEXT
5
3FA
330
10E
100
AcDbEntity
8
ST-SHEET-TEXT
100
AcDbText
10
121181.25
20
30300
30
0
40
240
1

7
STANDARD
72
1
11
121181.25
21
30300
31
0
100
AcDbText
73
0
0
LINE
5
3FB
330
10E
100
AcDbEntity
8
ST-SHEET-TITLE
100
AcDbLine
10
96900
20
29400
30
0
11
124650
21
29400
31
0
0
TEXT
5
3FC
330
10E
100
AcDbEntity
8
ST-SHEET-TITLE
100
AcDbText
10
110775
20
29775
30
0
40
255
1
CONTRACT DRAWING REFERENCES
7
STANDARD
72
1
11
110775
21
29775
31
0
100
AcDbText
73
2
0
LINE
5
3FD
330
10E
100
AcDbEntity
8
ST-SHEET-TITLE
100
AcDbLine
10
96900
20
28800
30
0
11
124650
21
28800
31
0
0
TEXT
5
3FE
330
10E
100
AcDbEntity
8
ST-SHEET-TITLE
100
AcDbText
10
101525
20
29100
30
0
40
225
1
ARCHITECTURAL
7
STANDARD
72
1
11
101525
21
29100
31
0
100
AcDbText
73
2
0
LINE
5
3FF
330
10E
100
AcDbEntity
8
ST-SHEET-TITLE
100
AcDbLine
10
106150
20
28800
30
0
11
106150
21
29400
31
0
0
TEXT
5
400
330
10E
100
AcDbEntity
8
ST-SHEET-TITLE
100
AcDbText
10
110775
20
29100
30
0
40
225
1
STRUCTURAL
7
STANDARD
72
1
11
110775
21
29100
31
0
100
AcDbText
73
2
0
LINE
5
401
330
10E
100
AcDbEntity
8
ST-SHEET-TITLE
100
AcDbLine
10
115400
20
28800
30
0
11
115400
21
29400
31
0
0
TEXT
5
402
330
10E
100
AcDbEntity
8
ST-SHEET-TITLE
100
AcDbText
10
120025
20
29100
30
0
40
225
1
MEP
7
STANDARD
72
1
11
120025
21
29100
31
0
100
AcDbText
73
2
0
LINE
5
403
330
10E
100
AcDbEntity
8
ST-SHEET-TITLE
100
AcDbLine
10
96900
20
28200
30
0
11
124650
21
28200
31
0
0
LINE
5
404
330
10E
100
AcDbEntity
8
ST-SHEET-TITLE
100
AcDbLine
10
104350
20
28200
30
0
11
104350
21
28800
31
0
0
TEXT
5
405
330
10E
100
AcDbEntity
8
ST-SHEET-TITLE
100
AcDbText
10
97125
20
28395
30
0
40
195
1
DRAWING No.
7
STANDARD
72
0
100
AcDbText
73
0
0
TEXT
5
406
330
10E
100
AcDbEntity
8
ST-SHEET-TITLE
100
AcDbText
10
105250
20
28395
30
0
40
195
1
REV.
7
STANDARD
72
1
11
105250
21
28395
31
0
100
AcDbText
73
0
0
LINE
5
407
330
10E
100
AcDbEntity
8
ST-SHEET-TITLE
100
AcDbLine
10
106150
20
28200
30
0
11
106150
21
28800
31
0
0
LINE
5
408
330
10E
100
AcDbEntity
8
ST-SHEET-TITLE
100
AcDbLine
10
113600
20
28200
30
0
11
113600
21
28800
31
0
0
TEXT
5
409
330
10E
100
AcDbEntity
8
ST-SHEET-TITLE
100
AcDbText
10
106375
20
28395
30
0
40
195
1
DRAWING No.
7
STANDARD
72
0
100
AcDbText
73
0
0
TEXT
5
40A
330
10E
100
AcDbEntity
8
ST-SHEET-TITLE
100
AcDbText
10
114500
20
28395
30
0
40
195
1
REV.
7
STANDARD
72
1
11
114500
21
28395
31
0
100
AcDbText
73
0
0
LINE
5
40B
330
10E
100
AcDbEntity
8
ST-SHEET-TITLE
100
AcDbLine
10
115400
20
28200
30
0
11
115400
21
28800
31
0
0
LINE
5
40C
330
10E
100
AcDbEntity
8
ST-SHEET-TITLE
100
AcDbLine
10
122850
20
28200
30
0
11
122850
21
28800
31
0
0
TEXT
5
40D
330
10E
100
AcDbEntity
8
ST-SHEET-TITLE
100
AcDbText
10
115625
20
28395
30
0
40
195
1
DRAWING No.
7
STANDARD
72
0
100
AcDbText
73
0
0
TEXT
5
40E
330
10E
100
AcDbEntity
8
ST-SHEET-TITLE
100
AcDbText
10
123750
20
28395
30
0
40
195
1
REV.
7
STANDARD
72
1
11
123750
21
28395
31
0
100
AcDbText
73
0
0
LINE
5
40F
330
10E
100
AcDbEntity
8
ST-SHEET-TITLE
100
AcDbLine
10
96900
20
27600
30
0
11
124650
21
27600
31
0
0
LINE
5
410
330
10E
100
AcDbEntity
8
ST-SHEET-TITLE
100
AcDbLine
10
104350
20
27600
30
0
11
104350
21
28200
31
0
0
LINE
5
411
330
10E
100
AcDbEntity
8
ST-SHEET-TITLE
100
AcDbLine
10
106150
20
27600
30
0
11
106150
21
28200
31
0
0
LINE
5
412
330
10E
100
AcDbEntity
8
ST-SHEET-TITLE
100
AcDbLine
10
113600
20
27600
30
0
11
113600
21
28200
31
0
0
LINE
5
413
330
10E
100
AcDbEntity
8
ST-SHEET-TITLE
100
AcDbLine
10
115400
20
27600
30
0
11
115400
21
28200
31
0
0
LINE
5
414
330
10E
100
AcDbEntity
8
ST-SHEET-TITLE
100
AcDbLine
10
122850
20
27600
30
0
11
122850
21
28200
31
0
0
LINE
5
415
330
10E
100
AcDbEntity
8
ST-SHEET-TITLE
100
AcDbLine
10
96900
20
27000
30
0
11
124650
21
27000
31
0
0
LINE
5
416
330
10E
100
AcDbEntity
8
ST-SHEET-TITLE
100
AcDbLine
10
104350
20
27000
30
0
11
104350
21
27600
31
0
0
LINE
5
417
330
10E
100
AcDbEntity
8
ST-SHEET-TITLE
100
AcDbLine
10
106150
20
27000
30
0
11
106150
21
27600
31
0
0
LINE
5
418
330
10E
100
AcDbEntity
8
ST-SHEET-TITLE
100
AcDbLine
10
113600
20
27000
30
0
11
113600
21
27600
31
0
0
LINE
5
419
330
10E
100
AcDbEntity
8
ST-SHEET-TITLE
100
AcDbLine
10
115400
20
27000
30
0
11
115400
21
27600
31
0
0
LINE
5
41A
330
10E
100
AcDbEntity
8
ST-SHEET-TITLE
100
AcDbLine
10
122850
20
27000
30
0
11
122850
21
27600
31
0
0
LINE
5
41B
330
10E
100
AcDbEntity
8
ST-SHEET-TITLE
100
AcDbLine
10
96900
20
26400
30
0
11
124650
21
26400
31
0
0
TEXT
5
41C
330
10E
100
AcDbEntity
8
ST-SHEET-TITLE
100
AcDbText
10
97800
20
26700
30
0
40
210
1
REV.
7
STANDARD
72
1
11
97800
21
26700
31
0
100
AcDbText
73
2
0
LINE
5
41D
330
10E
100
AcDbEntity
8
ST-SHEET-TITLE
100
AcDbLine
10
98700
20
26400
30
0
11
98700
21
27000
31
0
0
TEXT
5
41E
330
10E
100
AcDbEntity
8
ST-SHEET-TITLE
100
AcDbText
10
107550
20
26700
30
0
40
210
1
DESCRIPTION
7
STANDARD
72
1
11
107550
21
26700
31
0
100
AcDbText
73
2
0
LINE
5
41F
330
10E
100
AcDbEntity
8
ST-SHEET-TITLE
100
AcDbLine
10
116400
20
26400
30
0
11
116400
21
27000
31
0
0
TEXT
5
420
330
10E
100
AcDbEntity
8
ST-SHEET-TITLE
100
AcDbText
10
118650
20
26700
30
0
40
210
1
DATE
7
STANDARD
72
1
11
118650
21
26700
31
0
100
AcDbText
73
2
0
LINE
5
421
330
10E
100
AcDbEntity
8
ST-SHEET-TITLE
100
AcDbLine
10
120900
20
26400
30
0
11
120900
21
27000
31
0
0
TEXT
5
422
330
10E
100
AcDbEntity
8
ST-SHEET-TITLE
100
AcDbText
10
122775
20
26700
30
0
40
210
1
BY
7
STANDARD
72
1
11
122775
21
26700
31
0
100
AcDbText
73
2
0
LINE
5
423
330
10E
100
AcDbEntity
8
ST-SHEET-TITLE
100
AcDbLine
10
96900
20
25800
30
0
11
124650
21
25800
31
0
0
TEXT
5
424
330
10E
100
AcDbEntity
8
ST-SHEET-TEXT
100
AcDbText
10
97800
20
25950
30
0
40
225
1
00
7
STANDARD
72
1
11
97800
21
25950
31
0
100
AcDbText
73
0
0
LINE
5
425
330
10E
100
AcDbEntity
8
ST-SHEET-TITLE
100
AcDbLine
10
98700
20
25800
30
0
11
98700
21
26400
31
0
0
TEXT
5
426
330
10E
100
AcDbEntity
8
ST-SHEET-TEXT
100
AcDbText
10
98925
20
25950
30
0
40
225
1
ISSUED FOR APPROVAL
7
STANDARD
72
0
100
AcDbText
73
0
0
LINE
5
427
330
10E
100
AcDbEntity
8
ST-SHEET-TITLE
100
AcDbLine
10
116400
20
25800
30
0
11
116400
21
26400
31
0
0
TEXT
5
428
330
10E
100
AcDbEntity
8
ST-SHEET-TEXT
100
AcDbText
10
118650
20
25950
30
0
40
225
1
2026-09-26
7
STANDARD
72
1
11
118650
21
25950
31
0
100
AcDbText
73
0
0
LINE
5
429
330
10E
100
AcDbEntity
8
ST-SHEET-TITLE
100
AcDbLine
10
120900
20
25800
30
0
11
120900
21
26400
31
0
0
TEXT
5
42A
330
10E
100
AcDbEntity
8
ST-SHEET-TEXT
100
AcDbText
10
122775
20
25950
30
0
40
225
1

7
STANDARD
72
1
11
122775
21
25950
31
0
100
AcDbText
73
0
0
LINE
5
42B
330
10E
100
AcDbEntity
8
ST-SHEET-TITLE
100
AcDbLine
10
96900
20
25200
30
0
11
124650
21
25200
31
0
0
LINE
5
42C
330
10E
100
AcDbEntity
8
ST-SHEET-TITLE
100
AcDbLine
10
98700
20
25200
30
0
11
98700
21
25800
31
0
0
LINE
5
42D
330
10E
100
AcDbEntity
8
ST-SHEET-TITLE
100
AcDbLine
10
116400
20
25200
30
0
11
116400
21
25800
31
0
0
LINE
5
42E
330
10E
100
AcDbEntity
8
ST-SHEET-TITLE
100
AcDbLine
10
120900
20
25200
30
0
11
120900
21
25800
31
0
0
LINE
5
42F
330
10E
100
AcDbEntity
8
ST-SHEET-TITLE
100
AcDbLine
10
96900
20
24600
30
0
11
124650
21
24600
31
0
0
LINE
5
430
330
10E
100
AcDbEntity
8
ST-SHEET-TITLE
100
AcDbLine
10
98700
20
24600
30
0
11
98700
21
25200
31
0
0
LINE
5
431
330
10E
100
AcDbEntity
8
ST-SHEET-TITLE
100
AcDbLine
10
116400
20
24600
30
0
11
116400
21
25200
31
0
0
LINE
5
432
330
10E
100
AcDbEntity
8
ST-SHEET-TITLE
100
AcDbLine
10
120900
20
24600
30
0
11
120900
21
25200
31
0
0
LINE
5
433
330
10E
100
AcDbEntity
8
ST-SHEET-TITLE
100
AcDbLine
10
96900
20
24000
30
0
11
124650
21
24000
31
0
0
LINE
5
434
330
10E
100
AcDbEntity
8
ST-SHEET-TITLE
100
AcDbLine
10
98700
20
24000
30
0
11
98700
21
24600
31
0
0
LINE
5
435
330
10E
100
AcDbEntity
8
ST-SHEET-TITLE
100
AcDbLine
10
116400
20
24000
30
0
11
116400
21
24600
31
0
0
LINE
5
436
330
10E
100
AcDbEntity
8
ST-SHEET-TITLE
100
AcDbLine
10
120900
20
24000
30
0
11
120900
21
24600
31
0
0
LINE
5
437
330
10E
100
AcDbEntity
8
ST-SHEET-TITLE
100
AcDbLine
10
96900
20
21750
30
0
11
124650
21
21750
31
0
0
TEXT
5
438
330
10E
100
AcDbEntity
8
ST-SHEET-TITLE
100
AcDbText
10
97125
20
23550
30
0
40
225
1
PROJECT
7
STANDARD
72
0
100
AcDbText
73
0
0
TEXT
5
439
330
10E
100
AcDbEntity
8
ST-SHEET-TEXT
100
AcDbText
10
97125
20
23070
30
0
40
315
1
PROPOSED MIXED-USE BUILDING
7
STANDARD
72
0
100
AcDbText
73
0
0
TEXT
5
43A
330
10E
100
AcDbEntity
8
ST-SHEET-TITLE
100
AcDbText
10
97125
20
21945
30
0
40
255
1
RIYADH, KSA
7
STANDARD
72
0
100
AcDbText
73
0
0
LINE
5
43B
330
10E
100
AcDbEntity
8
ST-SHEET-TITLE
100
AcDbLine
10
96900
20
20400
30
0
11
124650
21
20400
31
0
0
TEXT
5
43C
330
10E
100
AcDbEntity
8
ST-SHEET-TITLE
100
AcDbText
10
97125
20
21300
30
0
40
225
1
THE CLIENT
7
STANDARD
72
0
100
AcDbText
73
0
0
TEXT
5
43D
330
10E
100
AcDbEntity
8
ST-SHEET-TEXT
100
AcDbText
10
97125
20
20820
30
0
40
330
1
DEMO CLIENT
7
STANDARD
72
0
100
AcDbText
73
0
0
LINE
5
43E
330
10E
100
AcDbEntity
8
ST-SHEET-TITLE
100
AcDbLine
10
96900
20
19050
30
0
11
124650
21
19050
31
0
0
TEXT
5
43F
330
10E
100
AcDbEntity
8
ST-SHEET-TITLE
100
AcDbText
10
97125
20
19950
30
0
40
225
1
THE ENGINEER (CONSULTANT)
7
STANDARD
72
0
100
AcDbText
73
0
0
LINE
5
440
330
10E
100
AcDbEntity
8
ST-SHEET-TITLE
100
AcDbLine
10
96900
20
17700
30
0
11
124650
21
17700
31
0
0
TEXT
5
441
330
10E
100
AcDbEntity
8
ST-SHEET-TITLE
100
AcDbText
10
97125
20
18600
30
0
40
225
1
MAIN CONTRACTOR
7
STANDARD
72
0
100
AcDbText
73
0
0
LINE
5
442
330
10E
100
AcDbEntity
8
ST-SHEET-TITLE
100
AcDbLine
10
96900
20
15300
30
0
11
124650
21
15300
31
0
0
TEXT
5
443
330
10E
100
AcDbEntity
8
ST-SHEET-TITLE
100
AcDbText
10
97125
20
17250
30
0
40
225
1
POST-TENSION SUB-CONTRACTOR / SHOP DRAWINGS BY
7
STANDARD
72
0
100
AcDbText
73
0
0
TEXT
5
444
330
10E
100
AcDbEntity
8
ST-SHEET-TEXT
100
AcDbText
10
110775
20
16425
30
0
40
600
1
SPAN TECH CONTRACTING
7
STANDARD
72
1
11
110775
21
16425
31
0
100
AcDbText
73
2
0
TEXT
5
445
330
10E
100
AcDbEntity
8
ST-SHEET-TITLE
100
AcDbText
10
110775
20
15675
30
0
40
255
1
POST-TENSIONED SLABS \U+00B7 KSA \U+00B7 EGYPT \U+00B7 QATAR
7
STANDARD
72
1
11
110775
21
15675
31
0
100
AcDbText
73
2
0
LINE
5
446
330
10E
100
AcDbEntity
8
ST-SHEET-TITLE
100
AcDbLine
10
96900
20
12300
30
0
11
124650
21
12300
31
0
0
TEXT
5
447
330
10E
100
AcDbEntity
8
ST-SHEET-TITLE
100
AcDbText
10
97125
20
14850
30
0
40
225
1
DRAWING TITLE
7
STANDARD
72
0
100
AcDbText
73
0
0
TEXT
5
448
330
10E
100
AcDbEntity
8
ST-SHEET-TEXT
100
AcDbText
10
97125
20
14175
30
0
40
435
1
BOTTOM REINFORCEMENT PLAN (B1 / B2)
7
STANDARD
72
0
100
AcDbText
73
0
0
TEXT
5
449
330
10E
100
AcDbEntity
8
ST-SHEET-TITLE
100
AcDbText
10
97125
20
12495
30
0
40
300
1
L02 - ROOF SLAB PLAN
7
STANDARD
72
0
100
AcDbText
73
0
0
LINE
5
44A
330
10E
100
AcDbEntity
8
ST-SHEET-TITLE
100
AcDbLine
10
96900
20
10650
30
0
11
124650
21
10650
31
0
0
LINE
5
44B
330
10E
100
AcDbEntity
8
ST-SHEET-TITLE
100
AcDbLine
10
110775
20
10650
30
0
11
110775
21
12300
31
0
0
LINE
5
44C
330
10E
100
AcDbEntity
8
ST-SHEET-TITLE
100
AcDbLine
10
116880
20
10650
30
0
11
116880
21
12300
31
0
0
TEXT
5
44D
330
10E
100
AcDbEntity
8
ST-SHEET-TITLE
100
AcDbText
10
97125
20
11850
30
0
40
225
1
DRAWING No.
7
STANDARD
72
0
100
AcDbText
73
0
0
TEXT
5
44E
330
10E
100
AcDbEntity
8
ST-SHEET-TEXT
100
AcDbText
10
97125
20
11220
30
0
40
480
1
ST-SD-L02-02
7
STANDARD
72
0
100
AcDbText
73
0
0
TEXT
5
44F
330
10E
100
AcDbEntity
8
ST-SHEET-TITLE
100
AcDbText
10
111000
20
11850
30
0
40
225
1
REV.
7
STANDARD
72
0
100
AcDbText
73
0
0
TEXT
5
450
330
10E
100
AcDbEntity
8
ST-SHEET-TEXT
100
AcDbText
10
111000
20
11220
30
0
40
480
1
00
7
STANDARD
72
0
100
AcDbText
73
0
0
TEXT
5
451
330
10E
100
AcDbEntity
8
ST-SHEET-TITLE
100
AcDbText
10
117105
20
11850
30
0
40
225
1
DATE
7
STANDARD
72
0
100
AcDbText
73
0
0
TEXT
5
452
330
10E
100
AcDbEntity
8
ST-SHEET-TEXT
100
AcDbText
10
117105
20
11340
30
0
40
360
1
2026-09-26
7
STANDARD
72
0
100
AcDbText
73
0
0
LINE
5
453
330
10E
100
AcDbEntity
8
ST-SHEET-TITLE
100
AcDbLine
10
96900
20
9000
30
0
11
124650
21
9000
31
0
0
LINE
5
454
330
10E
100
AcDbEntity
8
ST-SHEET-TITLE
100
AcDbLine
10
108000
20
9000
30
0
11
108000
21
10650
31
0
0
LINE
5
455
330
10E
100
AcDbEntity
8
ST-SHEET-TITLE
100
AcDbLine
10
115215
20
9000
30
0
11
115215
21
10650
31
0
0
TEXT
5
456
330
10E
100
AcDbEntity
8
ST-SHEET-TITLE
100
AcDbText
10
97125
20
10200
30
0
40
225
1
SCALE (A1)
7
STANDARD
72
0
100
AcDbText
73
0
0
TEXT
5
457
330
10E
100
AcDbEntity
8
ST-SHEET-TEXT
100
AcDbText
10
97125
20
9690
30
0
40
360
1
1:150 (DETAILS AS NOTED)
7
STANDARD
72
0
100
AcDbText
73
0
0
TEXT
5
458
330
10E
100
AcDbEntity
8
ST-SHEET-TITLE
100
AcDbText
10
108225
20
10200
30
0
40
225
1
SHEET
7
STANDARD
72
0
100
AcDbText
73
0
0
TEXT
5
459
330
10E
100
AcDbEntity
8
ST-SHEET-TEXT
100
AcDbText
10
108225
20
9690
30
0
40
360
1
11 OF 17
7
STANDARD
72
0
100
AcDbText
73
0
0
TEXT
5
45A
330
10E
100
AcDbEntity
8
ST-SHEET-TITLE
100
AcDbText
10
115440
20
10200
30
0
40
225
1
GRID REFERENCE
7
STANDARD
72
0
100
AcDbText
73
0
0
TEXT
5
45B
330
10E
100
AcDbEntity
8
ST-SHEET-TEXT
100
AcDbText
10
115440
20
9720
30
0
40
330
1
A-E / 1-4
7
STANDARD
72
0
100
AcDbText
73
0
0
LINE
5
45C
330
10E
100
AcDbEntity
8
ST-SHEET-TITLE
100
AcDbLine
10
96900
20
6750
30
0
11
124650
21
6750
31
0
0
LINE
5
45D
330
10E
100
AcDbEntity
8
ST-SHEET-TITLE
100
AcDbLine
10
106150
20
6750
30
0
11
106150
21
9000
31
0
0
LINE
5
45E
330
10E
100
AcDbEntity
8
ST-SHEET-TITLE
100
AcDbLine
10
115400
20
6750
30
0
11
115400
21
9000
31
0
0
TEXT
5
45F
330
10E
100
AcDbEntity
8
ST-SHEET-TITLE
100
AcDbText
10
97125
20
8550
30
0
40
225
1
PREPARED
7
STANDARD
72
0
100
AcDbText
73
0
0
TEXT
5
460
330
10E
100
AcDbEntity
8
ST-SHEET-TEXT
100
AcDbText
10
97125
20
7875
30
0
40
300
1
SPAN TECH DESIGN OFFICE
7
STANDARD
72
0
100
AcDbText
73
0
0
TEXT
5
461
330
10E
100
AcDbEntity
8
ST-SHEET-TITLE
100
AcDbText
10
97125
20
6945
30
0
40
210
1
SIGN / DATE: ..........
7
STANDARD
72
0
100
AcDbText
73
0
0
TEXT
5
462
330
10E
100
AcDbEntity
8
ST-SHEET-TITLE
100
AcDbText
10
106375
20
8550
30
0
40
225
1
CHECKED
7
STANDARD
72
0
100
AcDbText
73
0
0
TEXT
5
463
330
10E
100
AcDbEntity
8
ST-SHEET-TEXT
100
AcDbText
10
106375
20
7875
30
0
40
300
1

7
STANDARD
72
0
100
AcDbText
73
0
0
TEXT
5
464
330
10E
100
AcDbEntity
8
ST-SHEET-TITLE
100
AcDbText
10
106375
20
6945
30
0
40
210
1
SIGN / DATE: ..........
7
STANDARD
72
0
100
AcDbText
73
0
0
TEXT
5
465
330
10E
100
AcDbEntity
8
ST-SHEET-TITLE
100
AcDbText
10
115625
20
8550
30
0
40
225
1
APPROVED
7
STANDARD
72
0
100
AcDbText
73
0
0
TEXT
5
466
330
10E
100
AcDbEntity
8
ST-SHEET-TEXT
100
AcDbText
10
115625
20
7875
30
0
40
300
1

7
STANDARD
72
0
100
AcDbText
73
0
0
TEXT
5
467
330
10E
100
AcDbEntity
8
ST-SHEET-TITLE
100
AcDbText
10
115625
20
6945
30
0
40
210
1
SIGN / DATE: ..........
7
STANDARD
72
0
100
AcDbText
73
0
0
LINE
5
468
330
10E
100
AcDbEntity
8
ST-SHEET-TITLE
100
AcDbLine
10
96900
20
5250
30
0
11
124650
21
5250
31
0
0
LINE
5
469
330
10E
100
AcDbEntity
8
ST-SHEET-TITLE
100
AcDbLine
10
105225
20
5250
30
0
11
105225
21
6750
31
0
0
LINE
5
46A
330
10E
100
AcDbEntity
8
ST-SHEET-TITLE
100
AcDbLine
10
114105
20
5250
30
0
11
114105
21
6750
31
0
0
TEXT
5
46B
330
10E
100
AcDbEntity
8
ST-SHEET-TITLE
100
AcDbText
10
97125
20
6300
30
0
40
225
1
DRAWING INDEX
7
STANDARD
72
0
100
AcDbText
73
0
0
TEXT
5
46C
330
10E
100
AcDbEntity
8
ST-SHEET-TEXT
100
AcDbText
10
97125
20
5850
30
0
40
300
1
ST-SD-000
7
STANDARD
72
0
100
AcDbText
73
0
0
TEXT
5
46D
330
10E
100
AcDbEntity
8
ST-SHEET-TITLE
100
AcDbText
10
105450
20
6300
30
0
40
225
1
CODE REFERENCE
7
STANDARD
72
0
100
AcDbText
73
0
0
TEXT
5
46E
330
10E
100
AcDbEntity
8
ST-SHEET-TEXT
100
AcDbText
10
105450
20
5880
30
0
40
270
1
SBC 304-18 (ON DRAWINGS)
7
STANDARD
72
0
100
AcDbText
73
0
0
TEXT
5
46F
330
10E
100
AcDbEntity
8
ST-SHEET-TITLE
100
AcDbText
10
114330
20
6300
30
0
40
225
1
BLOCK / XREF
7
STANDARD
72
0
100
AcDbText
73
0
0
TEXT
5
470
330
10E
100
AcDbEntity
8
ST-SHEET-TEXT
100
AcDbText
10
114330
20
5940
30
0
40
210
1
FRAMING_REBAR_SLAB_PT_BOTTOM_L02
7
STANDARD
72
0
100
AcDbText
73
0
0
TEXT
5
471
330
10E
100
AcDbEntity
8
ST-SHEET-TEXT
100
AcDbText
10
110775
20
3375
30
0
40
345
1
SHOP DRAWING - FOR CONSULTANT APPROVAL
7
STANDARD
72
1
11
110775
21
3375
31
0
100
AcDbText
73
2
0
LWPOLYLINE
5
472
330
10E
100
AcDbEntity
8
ST-SHEET-TITLE
370
50
100
AcDbPolyline
90
4
70
1
43
0
10
96900
20
1500
10
124650
20
1500
10
124650
20
24000
10
96900
20
24000
0
CIRCLE
5
473
330
10E
100
AcDbEntity
8
ST-CALLOUT
100
AcDbCircle
10
5100
20
21330
30
0
40
600
0
TEXT
5
474
330
10E
100
AcDbEntity
8
ST-CALLOUT
100
AcDbText
10
5100
20
21330
30
0
40
480
1
1
7
STANDARD
72
1
11
5100
21
21330
31
0
100
AcDbText
73
2
0
TEXT
5
475
330
10E
100
AcDbEntity
8
ST-SHEET-TEXT
100
AcDbText
10
6150
20
21150
30
0
40
510
1
ROOF SLAB PLAN - BOTTOM REINFORCEMENT PLAN (B1)
7
STANDARD
72
0
100
AcDbText
73
0
0
LINE
5
476
330
10E
100
AcDbEntity
8
ST-SHEET-TITLE
370
35
100
AcDbLine
10
6150
20
20970
30
0
11
24480
21
20970
31
0
0
TEXT
5
477
330
10E
100
AcDbEntity
8
ST-SHEET-TITLE
100
AcDbText
10
6150
20
20520
30
0
40
300
1
SCALE : 1:150
7
STANDARD
72
0
100
AcDbText
73
0
0
CIRCLE
5
478
330
10E
100
AcDbEntity
8
ST-CALLOUT
100
AcDbCircle
10
52050
20
21330
30
0
40
600
0
TEXT
5
479
330
10E
100
AcDbEntity
8
ST-CALLOUT
100
AcDbText
10
52050
20
21330
30
0
40
480
1
2
7
STANDARD
72
1
11
52050
21
21330
31
0
100
AcDbText
73
2
0
TEXT
5
47A
330
10E
100
AcDbEntity
8
ST-SHEET-TEXT
100
AcDbText
10
53100
20
21150
30
0
40
510
1
ROOF SLAB PLAN - BOTTOM REINFORCEMENT PLAN (B2)
7
STANDARD
72
0
100
AcDbText
73
0
0
LINE
5
47B
330
10E
100
AcDbEntity
8
ST-SHEET-TITLE
370
35
100
AcDbLine
10
53100
20
20970
30
0
11
71430
21
20970
31
0
0
TEXT
5
47C
330
10E
100
AcDbEntity
8
ST-SHEET-TITLE
100
AcDbText
10
53100
20
20520
30
0
40
300
1
SCALE : 1:150
7
STANDARD
72
0
100
AcDbText
73
0
0
ENDBLK
5
47D
330
10E
100
AcDbEntity
8
0
100
AcDbBlockEnd
0
ENDSEC
0
SECTION
2
ENTITIES
0
INSERT
5
47E
330
108
100
AcDbEntity
8
0
100
AcDbBlockReference
2
FRAMING_REBAR_SLAB_PT_BOTTOM_L02
10
0
20
0
30
0
41
1
42
1
43
1
50
0
0
ENDSEC
0
SECTION
2
OBJECTS
0
DICTIONARY
5
100
330
0
100
AcDbDictionary
281
1
3
ACAD_GROUP
350
101
3
ACAD_LAYOUT
350
104
3
ACAD_PLOTSTYLENAME
350
102
0
DICTIONARY
5
101
330
100
100
AcDbDictionary
281
1
0
ACDBDICTIONARYWDFLT
5
102
330
100
100
AcDbDictionary
281
1
3
Normal
350
103
100
AcDbDictionaryWithDefault
340
103
0
ACDBPLACEHOLDER
5
103
330
102
0
DICTIONARY
5
104
330
100
100
AcDbDictionary
281
1
3
Model
350
105
3
Layout1
350
106
0
LAYOUT
5
105
330
104
100
AcDbPlotSettings
1

2
none_device
4

6

40
0
41
0
42
0
43
0
44
0
45
0
46
0
47
0
48
0
49
0
140
0
141
0
142
1
143
1
70
1712
72
0
73
0
74
5
7

75
16
147
1
148
0
149
0
100
AcDbLayout
1
Model
70
1
71
0
10
0
20
0
11
12
21
9
12
0
22
0
32
0
14
0
24
0
34
0
15
0
25
0
35
0
146
0
13
0
23
0
33
0
16
1
26
0
36
0
17
0
27
1
37
0
76
0
330
108
0
LAYOUT
5
106
330
104
100
AcDbPlotSettings
1

2
none_device
4

6

40
0
41
0
42
0
43
0
44
0
45
0
46
0
47
0
48
0
49
0
140
0
141
0
142
1
143
1
70
688
72
0
73
0
74
5
7

75
16
147
1
148
0
149
0
100
AcDbLayout
1
Layout1
70
1
71
1
10
0
20
0
11
12
21
9
12
0
22
0
32
0
14
0
24
0
34
0
15
0
25
0
35
0
146
0
13
0
23
0
33
0
16
1
26
0
36
0
17
0
27
1
37
0
76
0
330
109
0
ENDSEC
0
EOF
