0
SECTION
2
HEADER
9
$ACADVER
1
AC1015
9
$DWGCODEPAGE
3
ANSI_1252
9
$INSBASE
10
0
20
0
30
0
9
$EXTMIN
10
0
20
0
30
0
9
$EXTMAX
10
85088
20
59400
30
0
9
$LIMMIN
10
0
20
0
9
$LIMMAX
10
85088
20
59400
9
$ORTHOMODE
70
0
9
$LTSCALE
40
25
9
$TEXTSIZE
40
2.5
9
$TEXTSTYLE
7
STANDARD
9
$CLAYER
8
0
9
$CELTYPE
6
BYLAYER
9
$CECOLOR
62
256
9
$DIMSTYLE
2
STANDARD
9
$INSUNITS
70
4
9
$MEASUREMENT
70
1
9
$PDMODE
70
0
9
$PSLTSCALE
70
1
9
$TILEMODE
70
1
9
$HANDSEED
5
51C
0
ENDSEC
0
SECTION
2
CLASSES
0
ENDSEC
0
SECTION
2
TABLES
0
TABLE
2
VPORT
5
10F
330
0
100
AcDbSymbolTable
70
1
0
VPORT
5
110
330
10F
100
AcDbSymbolTableRecord
100
AcDbViewportTableRecord
2
*Active
70
0
10
0
20
0
11
1
21
1
12
42544
22
29700
13
0
23
0
14
10
24
10
15
10
25
10
16
0
26
0
36
1
17
0
27
0
37
0
40
65340
41
1.432458
42
50
43
0
44
0
50
0
51
0
71
0
72
1000
73
1
74
3
75
0
76
0
77
0
78
0
281
0
65
1
110
0
120
0
130
0
111
1
121
0
131
0
112
0
122
1
132
0
79
0
146
0
0
ENDTAB
0
TABLE
2
LTYPE
5
111
330
0
100
AcDbSymbolTable
70
8
0
LTYPE
5
112
330
111
100
AcDbSymbolTableRecord
100
AcDbLinetypeTableRecord
2
ByBlock
70
0
3

72
65
73
0
40
0
0
LTYPE
5
113
330
111
100
AcDbSymbolTableRecord
100
AcDbLinetypeTableRecord
2
ByLayer
70
0
3

72
65
73
0
40
0
0
LTYPE
5
114
330
111
100
AcDbSymbolTableRecord
100
AcDbLinetypeTableRecord
2
CONTINUOUS
70
0
3
Solid line
72
65
73
0
40
0
0
LTYPE
5
115
330
111
100
AcDbSymbolTableRecord
100
AcDbLinetypeTableRecord
2
DASHED
70
0
3
Dashed __ __ __
72
65
73
2
40
19.05
49
12.7
74
0
49
-6.35
74
0
0
LTYPE
5
116
330
111
100
AcDbSymbolTableRecord
100
AcDbLinetypeTableRecord
2
HIDDEN
70
0
3
Hidden __ __ __
72
65
73
2
40
9.525
49
6.35
74
0
49
-3.175
74
0
0
LTYPE
5
117
330
111
100
AcDbSymbolTableRecord
100
AcDbLinetypeTableRecord
2
CENTER
70
0
3
Center ____ _ ____ _
72
65
73
4
40
50.8
49
31.75
74
0
49
-6.35
74
0
49
6.35
74
0
49
-6.35
74
0
0
LTYPE
5
118
330
111
100
AcDbSymbolTableRecord
100
AcDbLinetypeTableRecord
2
DASHDOT
70
0
3
Dash dot __ . __ . __
72
65
73
4
40
25.4
49
12.7
74
0
49
-6.35
74
0
49
0
74
0
49
-6.35
74
0
0
LTYPE
5
119
330
111
100
AcDbSymbolTableRecord
100
AcDbLinetypeTableRecord
2
PHANTOM
70
0
3
Phantom ____ _ _ ____
72
65
73
6
40
63.5
49
31.75
74
0
49
-6.35
74
0
49
6.35
74
0
49
-6.35
74
0
49
6.35
74
0
49
-6.35
74
0
0
ENDTAB
0
TABLE
2
LAYER
5
11A
330
0
100
AcDbSymbolTable
70
54
0
LAYER
5
11B
330
11A
100
AcDbSymbolTableRecord
100
AcDbLayerTableRecord
2
0
70
0
62
7
6
CONTINUOUS
370
-3
390
103
0
LAYER
5
11C
330
11A
100
AcDbSymbolTableRecord
100
AcDbLayerTableRecord
2
ST-SHEET-FRAME
70
0
62
7
6
CONTINUOUS
370
50
390
103
0
LAYER
5
11D
330
11A
100
AcDbSymbolTableRecord
100
AcDbLayerTableRecord
2
ST-SHEET-TITLE
70
0
62
7
6
CONTINUOUS
370
25
390
103
0
LAYER
5
11E
330
11A
100
AcDbSymbolTableRecord
100
AcDbLayerTableRecord
2
ST-TEXT
70
0
62
7
6
CONTINUOUS
370
-3
390
103
0
LAYER
5
11F
330
11A
100
AcDbSymbolTableRecord
100
AcDbLayerTableRecord
2
ST-SHEET-TEXT
70
0
62
2
6
CONTINUOUS
370
-3
390
103
0
LAYER
5
120
330
11A
100
AcDbSymbolTableRecord
100
AcDbLayerTableRecord
2
ST-SHEET-NOTES
70
0
62
7
6
CONTINUOUS
370
-3
390
103
0
LAYER
5
121
330
11A
100
AcDbSymbolTableRecord
100
AcDbLayerTableRecord
2
ST-GRID
70
0
62
8
6
CENTER
370
-3
390
103
0
LAYER
5
122
330
11A
100
AcDbSymbolTableRecord
100
AcDbLayerTableRecord
2
ST-GRID-BUBBLE
70
0
62
8
6
CONTINUOUS
370
-3
390
103
0
LAYER
5
123
330
11A
100
AcDbSymbolTableRecord
100
AcDbLayerTableRecord
2
ST-SLAB-EDGE
70
0
62
3
6
CONTINUOUS
370
35
390
103
0
LAYER
5
124
330
11A
100
AcDbSymbolTableRecord
100
AcDbLayerTableRecord
2
ST-COL
70
0
62
7
6
CONTINUOUS
370
35
390
103
0
LAYER
5
125
330
11A
100
AcDbSymbolTableRecord
100
AcDbLayerTableRecord
2
ST-COL-HATCH
70
0
62
7
6
CONTINUOUS
370
-3
390
103
0
LAYER
5
126
330
11A
100
AcDbSymbolTableRecord
100
AcDbLayerTableRecord
2
ST-OPENING
70
0
62
6
6
CONTINUOUS
370
-3
390
103
0
LAYER
5
127
330
11A
100
AcDbSymbolTableRecord
100
AcDbLayerTableRecord
2
ST-OPENING-HATCH
70
0
62
6
6
CONTINUOUS
370
-3
390
103
0
LAYER
5
128
330
11A
100
AcDbSymbolTableRecord
100
AcDbLayerTableRecord
2
ST-VOID
70
0
62
30
6
DASHED
370
-3
390
103
0
LAYER
5
129
330
11A
100
AcDbSymbolTableRecord
100
AcDbLayerTableRecord
2
ST-VOID-HATCH
70
0
62
30
6
CONTINUOUS
370
-3
390
103
0
LAYER
5
12A
330
11A
100
AcDbSymbolTableRecord
100
AcDbLayerTableRecord
2
ST-PT-ZONE
70
0
62
4
6
DASHDOT
370
-3
390
103
0
LAYER
5
12B
330
11A
100
AcDbSymbolTableRecord
100
AcDbLayerTableRecord
2
ST-PT-TENDON
70
0
62
3
6
CONTINUOUS
370
-3
390
103
0
LAYER
5
12C
330
11A
100
AcDbSymbolTableRecord
100
AcDbLayerTableRecord
2
ST-PT-HATCH
70
0
62
4
6
CONTINUOUS
370
-3
390
103
0
LAYER
5
12D
330
11A
100
AcDbSymbolTableRecord
100
AcDbLayerTableRecord
2
ST-RB-BOT
70
0
62
1
6
CONTINUOUS
370
50
390
103
0
LAYER
5
12E
330
11A
100
AcDbSymbolTableRecord
100
AcDbLayerTableRecord
2
ST-RB-TOP
70
0
62
5
6
CONTINUOUS
370
50
390
103
0
LAYER
5
12F
330
11A
100
AcDbSymbolTableRecord
100
AcDbLayerTableRecord
2
ST-RB-UBAR
70
0
62
6
6
CONTINUOUS
370
50
390
103
0
LAYER
5
130
330
11A
100
AcDbSymbolTableRecord
100
AcDbLayerTableRecord
2
ST-RB-TRIM
70
0
62
6
6
CONTINUOUS
370
50
390
103
0
LAYER
5
131
330
11A
100
AcDbSymbolTableRecord
100
AcDbLayerTableRecord
2
ST-RB-RANGE
70
0
62
6
6
CONTINUOUS
370
-3
390
103
0
LAYER
5
132
330
11A
100
AcDbSymbolTableRecord
100
AcDbLayerTableRecord
2
ST-RB-TEXT
70
0
62
7
6
CONTINUOUS
370
-3
390
103
0
LAYER
5
133
330
11A
100
AcDbSymbolTableRecord
100
AcDbLayerTableRecord
2
ST-RB-MESH
70
0
62
4
6
CONTINUOUS
370
-3
390
103
0
LAYER
5
134
330
11A
100
AcDbSymbolTableRecord
100
AcDbLayerTableRecord
2
ST-RB-PUNCH
70
0
62
6
6
CONTINUOUS
370
35
390
103
0
LAYER
5
135
330
11A
100
AcDbSymbolTableRecord
100
AcDbLayerTableRecord
2
ST-RB-TYPE
70
0
62
1
6
CONTINUOUS
370
-3
390
103
0
LAYER
5
136
330
11A
100
AcDbSymbolTableRecord
100
AcDbLayerTableRecord
2
ST-RB
70
0
62
6
6
CONTINUOUS
370
50
390
103
0
LAYER
5
137
330
11A
100
AcDbSymbolTableRecord
100
AcDbLayerTableRecord
2
ST-RB-B1
70
0
62
6
6
CONTINUOUS
370
50
390
103
0
LAYER
5
138
330
11A
100
AcDbSymbolTableRecord
100
AcDbLayerTableRecord
2
ST-RB-B2
70
0
62
6
6
CONTINUOUS
370
50
390
103
0
LAYER
5
139
330
11A
100
AcDbSymbolTableRecord
100
AcDbLayerTableRecord
2
ST-RB-T1
70
0
62
6
6
CONTINUOUS
370
50
390
103
0
LAYER
5
13A
330
11A
100
AcDbSymbolTableRecord
100
AcDbLayerTableRecord
2
ST-RB-T2
70
0
62
6
6
CONTINUOUS
370
50
390
103
0
LAYER
5
13B
330
11A
100
AcDbSymbolTableRecord
100
AcDbLayerTableRecord
2
ST-STAIR
70
0
62
8
6
CONTINUOUS
370
-3
390
103
0
LAYER
5
13C
330
11A
100
AcDbSymbolTableRecord
100
AcDbLayerTableRecord
2
ST-WALL
70
0
62
8
6
CONTINUOUS
370
50
390
103
0
LAYER
5
13D
330
11A
100
AcDbSymbolTableRecord
100
AcDbLayerTableRecord
2
ST-WALL-HATCH
70
0
62
8
6
CONTINUOUS
370
-3
390
103
0
LAYER
5
13E
330
11A
100
AcDbSymbolTableRecord
100
AcDbLayerTableRecord
2
ST-POUR-STRIP
70
0
62
30
6
DASHED
370
-3
390
103
0
LAYER
5
13F
330
11A
100
AcDbSymbolTableRecord
100
AcDbLayerTableRecord
2
ST-POUR-STRIP-HATCH
70
0
62
30
6
CONTINUOUS
370
-3
390
103
0
LAYER
5
140
330
11A
100
AcDbSymbolTableRecord
100
AcDbLayerTableRecord
2
ST-LEVEL
70
0
62
4
6
CONTINUOUS
370
-3
390
103
0
LAYER
5
141
330
11A
100
AcDbSymbolTableRecord
100
AcDbLayerTableRecord
2
ST-SLAB-THK
70
0
62
3
6
DASHED
370
-3
390
103
0
LAYER
5
142
330
11A
100
AcDbSymbolTableRecord
100
AcDbLayerTableRecord
2
ST-SLAB-THK-HATCH
70
0
62
8
6
CONTINUOUS
370
-3
390
103
0
LAYER
5
143
330
11A
100
AcDbSymbolTableRecord
100
AcDbLayerTableRecord
2
ST-PT-ANCHOR
70
0
62
3
6
CONTINUOUS
370
-3
390
103
0
LAYER
5
144
330
11A
100
AcDbSymbolTableRecord
100
AcDbLayerTableRecord
2
ST-BEAM
70
0
62
3
6
CONTINUOUS
370
25
390
103
0
LAYER
5
145
330
11A
100
AcDbSymbolTableRecord
100
AcDbLayerTableRecord
2
ST-SUNKEN
70
0
62
4
6
CONTINUOUS
370
-3
390
103
0
LAYER
5
146
330
11A
100
AcDbSymbolTableRecord
100
AcDbLayerTableRecord
2
ST-SUNKEN-HATCH
70
0
62
8
6
CONTINUOUS
370
-3
390
103
0
LAYER
5
147
330
11A
100
AcDbSymbolTableRecord
100
AcDbLayerTableRecord
2
ST-CALLOUT
70
0
62
3
6
CONTINUOUS
370
-3
390
103
0
LAYER
5
148
330
11A
100
AcDbSymbolTableRecord
100
AcDbLayerTableRecord
2
ST-DIM
70
0
62
8
6
CONTINUOUS
370
-3
390
103
0
LAYER
5
149
330
11A
100
AcDbSymbolTableRecord
100
AcDbLayerTableRecord
2
ST-DETAIL
70
0
62
7
6
CONTINUOUS
370
-3
390
103
0
LAYER
5
14A
330
11A
100
AcDbSymbolTableRecord
100
AcDbLayerTableRecord
2
ST-DETAIL-HATCH
70
0
62
8
6
CONTINUOUS
370
-3
390
103
0
LAYER
5
14B
330
11A
100
AcDbSymbolTableRecord
100
AcDbLayerTableRecord
2
ST-SHEET-SCHEDULE
70
0
62
7
6
CONTINUOUS
370
-3
390
103
0
LAYER
5
14C
330
11A
100
AcDbSymbolTableRecord
100
AcDbLayerTableRecord
2
ST-SHEET-SCHEDULE-TEXT
70
0
62
7
6
CONTINUOUS
370
-3
390
103
0
LAYER
5
14D
330
11A
100
AcDbSymbolTableRecord
100
AcDbLayerTableRecord
2
ST-HATCH
70
0
62
8
6
CONTINUOUS
370
-3
390
103
0
LAYER
5
14E
330
11A
100
AcDbSymbolTableRecord
100
AcDbLayerTableRecord
2
ST-PT-CABLE
70
0
62
3
6
CONTINUOUS
370
50
390
103
0
LAYER
5
14F
330
11A
100
AcDbSymbolTableRecord
100
AcDbLayerTableRecord
2
ST-PT-TEXT
70
0
62
3
6
CONTINUOUS
370
-3
390
103
0
LAYER
5
150
330
11A
100
AcDbSymbolTableRecord
100
AcDbLayerTableRecord
2
ST-XREF
70
0
62
7
6
CONTINUOUS
370
-3
390
103
0
ENDTAB
0
TABLE
2
STYLE
5
151
330
0
100
AcDbSymbolTable
70
3
0
STYLE
5
152
330
151
100
AcDbSymbolTableRecord
100
AcDbTextStyleTableRecord
2
STANDARD
70
0
40
0
41
1
50
0
71
0
42
2.5
3
arial.ttf
4

0
STYLE
5
153
330
151
100
AcDbSymbolTableRecord
100
AcDbTextStyleTableRecord
2
ST-REBAR
70
0
40
0
41
1
50
0
71
0
42
2.5
3
romans.shx
4

0
STYLE
5
154
330
151
100
AcDbSymbolTableRecord
100
AcDbTextStyleTableRecord
2
ST-TITLE
70
0
40
0
41
1
50
0
71
0
42
2.5
3
arial.ttf
4

0
ENDTAB
0
TABLE
2
VIEW
5
155
330
0
100
AcDbSymbolTable
70
0
0
ENDTAB
0
TABLE
2
UCS
5
156
330
0
100
AcDbSymbolTable
70
0
0
ENDTAB
0
TABLE
2
APPID
5
157
330
0
100
AcDbSymbolTable
70
1
0
APPID
5
158
330
157
100
AcDbSymbolTableRecord
100
AcDbRegAppTableRecord
2
ACAD
70
0
0
ENDTAB
0
TABLE
2
DIMSTYLE
5
159
330
0
100
AcDbSymbolTable
70
1
100
AcDbDimStyleTable
0
DIMSTYLE
105
15A
330
159
100
AcDbSymbolTableRecord
100
AcDbDimStyleTableRecord
2
STANDARD
70
0
40
1
41
2.5
42
0.625
43
3.75
44
1.25
140
2.5
141
2.5
147
0.625
0
ENDTAB
0
TABLE
2
BLOCK_RECORD
5
107
330
0
100
AcDbSymbolTable
70
3
0
BLOCK_RECORD
5
108
330
107
100
AcDbSymbolTableRecord
100
AcDbBlockTableRecord
2
*Model_Space
340
105
0
BLOCK_RECORD
5
109
330
107
100
AcDbSymbolTableRecord
100
AcDbBlockTableRecord
2
*Paper_Space
340
106
0
BLOCK_RECORD
5
10E
330
107
100
AcDbSymbolTableRecord
100
AcDbBlockTableRecord
2
FRAMING_REBAR_U_BARS_AROUND_REGIONS_L01
340
0
0
ENDTAB
0
ENDSEC
0
SECTION
2
BLOCKS
0
BLOCK
5
10A
330
108
100
AcDbEntity
8
0
100
AcDbBlockBegin
2
*Model_Space
70
0
10
0
20
0
30
0
3
*Model_Space
1

0
ENDBLK
5
10B
330
108
100
AcDbEntity
8
0
100
AcDbBlockEnd
0
BLOCK
5
10C
330
109
100
AcDbEntity
67
1
8
0
100
AcDbBlockBegin
2
*Paper_Space
70
0
10
0
20
0
30
0
3
*Paper_Space
1

0
ENDBLK
5
10D
330
109
100
AcDbEntity
67
1
8
0
100
AcDbBlockEnd
0
BLOCK
5
15B
330
10E
100
AcDbEntity
8
0
100
AcDbBlockBegin
2
FRAMING_REBAR_U_BARS_AROUND_REGIONS_L01
70
0
10
0
20
0
30
0
3
FRAMING_REBAR_U_BARS_AROUND_REGIONS_L01
1

0
LWPOLYLINE
5
15C
330
10E
100
AcDbEntity
8
ST-SHEET-FRAME
370
13
100
AcDbPolyline
90
4
70
1
43
0
10
0
20
0
10
84100
20
0
10
84100
20
59400
10
0
20
59400
0
LWPOLYLINE
5
15D
330
10E
100
AcDbEntity
8
ST-SHEET-FRAME
100
AcDbPolyline
90
4
70
1
43
0
10
2000
20
1000
10
83100
20
1000
10
83100
20
58400
10
2000
20
58400
0
LINE
5
15E
330
10E
100
AcDbEntity
8
ST-SHEET-FRAME
100
AcDbLine
10
42050
20
0
30
0
11
42050
21
600
31
0
0
LINE
5
15F
330
10E
100
AcDbEntity
8
ST-SHEET-FRAME
100
AcDbLine
10
42050
20
59400
30
0
11
42050
21
58800
31
0
0
LINE
5
160
330
10E
100
AcDbEntity
8
ST-SHEET-FRAME
100
AcDbLine
10
0
20
29700
30
0
11
600
21
29700
31
0
0
LINE
5
161
330
10E
100
AcDbEntity
8
ST-SHEET-FRAME
100
AcDbLine
10
84100
20
29700
30
0
11
83500
21
29700
31
0
0
LINE
5
162
330
10E
100
AcDbEntity
8
ST-SHEET-FRAME
370
13
100
AcDbLine
10
2000
20
58400
30
0
11
2000
21
59400
31
0
0
LINE
5
163
330
10E
100
AcDbEntity
8
ST-SHEET-FRAME
370
13
100
AcDbLine
10
2000
20
0
30
0
11
2000
21
1000
31
0
0
TEXT
5
164
330
10E
100
AcDbEntity
8
ST-SHEET-FRAME
100
AcDbText
10
7068.75
20
58900
30
0
40
250
1
1
7
STANDARD
72
1
11
7068.75
21
58900
31
0
100
AcDbText
73
2
0
TEXT
5
165
330
10E
100
AcDbEntity
8
ST-SHEET-FRAME
100
AcDbText
10
7068.75
20
500
30
0
40
250
1
1
7
STANDARD
72
1
11
7068.75
21
500
31
0
100
AcDbText
73
2
0
LINE
5
166
330
10E
100
AcDbEntity
8
ST-SHEET-FRAME
370
13
100
AcDbLine
10
12137.5
20
58400
30
0
11
12137.5
21
59400
31
0
0
LINE
5
167
330
10E
100
AcDbEntity
8
ST-SHEET-FRAME
370
13
100
AcDbLine
10
12137.5
20
0
30
0
11
12137.5
21
1000
31
0
0
TEXT
5
168
330
10E
100
AcDbEntity
8
ST-SHEET-FRAME
100
AcDbText
10
17206.25
20
58900
30
0
40
250
1
2
7
STANDARD
72
1
11
17206.25
21
58900
31
0
100
AcDbText
73
2
0
TEXT
5
169
330
10E
100
AcDbEntity
8
ST-SHEET-FRAME
100
AcDbText
10
17206.25
20
500
30
0
40
250
1
2
7
STANDARD
72
1
11
17206.25
21
500
31
0
100
AcDbText
73
2
0
LINE
5
16A
330
10E
100
AcDbEntity
8
ST-SHEET-FRAME
370
13
100
AcDbLine
10
22275
20
58400
30
0
11
22275
21
59400
31
0
0
LINE
5
16B
330
10E
100
AcDbEntity
8
ST-SHEET-FRAME
370
13
100
AcDbLine
10
22275
20
0
30
0
11
22275
21
1000
31
0
0
TEXT
5
16C
330
10E
100
AcDbEntity
8
ST-SHEET-FRAME
100
AcDbText
10
27343.75
20
58900
30
0
40
250
1
3
7
STANDARD
72
1
11
27343.75
21
58900
31
0
100
AcDbText
73
2
0
TEXT
5
16D
330
10E
100
AcDbEntity
8
ST-SHEET-FRAME
100
AcDbText
10
27343.75
20
500
30
0
40
250
1
3
7
STANDARD
72
1
11
27343.75
21
500
31
0
100
AcDbText
73
2
0
LINE
5
16E
330
10E
100
AcDbEntity
8
ST-SHEET-FRAME
370
13
100
AcDbLine
10
32412.5
20
58400
30
0
11
32412.5
21
59400
31
0
0
LINE
5
16F
330
10E
100
AcDbEntity
8
ST-SHEET-FRAME
370
13
100
AcDbLine
10
32412.5
20
0
30
0
11
32412.5
21
1000
31
0
0
TEXT
5
170
330
10E
100
AcDbEntity
8
ST-SHEET-FRAME
100
AcDbText
10
37481.25
20
58900
30
0
40
250
1
4
7
STANDARD
72
1
11
37481.25
21
58900
31
0
100
AcDbText
73
2
0
TEXT
5
171
330
10E
100
AcDbEntity
8
ST-SHEET-FRAME
100
AcDbText
10
37481.25
20
500
30
0
40
250
1
4
7
STANDARD
72
1
11
37481.25
21
500
31
0
100
AcDbText
73
2
0
LINE
5
172
330
10E
100
AcDbEntity
8
ST-SHEET-FRAME
370
13
100
AcDbLine
10
42550
20
58400
30
0
11
42550
21
59400
31
0
0
LINE
5
173
330
10E
100
AcDbEntity
8
ST-SHEET-FRAME
370
13
100
AcDbLine
10
42550
20
0
30
0
11
42550
21
1000
31
0
0
TEXT
5
174
330
10E
100
AcDbEntity
8
ST-SHEET-FRAME
100
AcDbText
10
47618.75
20
58900
30
0
40
250
1
5
7
STANDARD
72
1
11
47618.75
21
58900
31
0
100
AcDbText
73
2
0
TEXT
5
175
330
10E
100
AcDbEntity
8
ST-SHEET-FRAME
100
AcDbText
10
47618.75
20
500
30
0
40
250
1
5
7
STANDARD
72
1
11
47618.75
21
500
31
0
100
AcDbText
73
2
0
LINE
5
176
330
10E
100
AcDbEntity
8
ST-SHEET-FRAME
370
13
100
AcDbLine
10
52687.5
20
58400
30
0
11
52687.5
21
59400
31
0
0
LINE
5
177
330
10E
100
AcDbEntity
8
ST-SHEET-FRAME
370
13
100
AcDbLine
10
52687.5
20
0
30
0
11
52687.5
21
1000
31
0
0
TEXT
5
178
330
10E
100
AcDbEntity
8
ST-SHEET-FRAME
100
AcDbText
10
57756.25
20
58900
30
0
40
250
1
6
7
STANDARD
72
1
11
57756.25
21
58900
31
0
100
AcDbText
73
2
0
TEXT
5
179
330
10E
100
AcDbEntity
8
ST-SHEET-FRAME
100
AcDbText
10
57756.25
20
500
30
0
40
250
1
6
7
STANDARD
72
1
11
57756.25
21
500
31
0
100
AcDbText
73
2
0
LINE
5
17A
330
10E
100
AcDbEntity
8
ST-SHEET-FRAME
370
13
100
AcDbLine
10
62825
20
58400
30
0
11
62825
21
59400
31
0
0
LINE
5
17B
330
10E
100
AcDbEntity
8
ST-SHEET-FRAME
370
13
100
AcDbLine
10
62825
20
0
30
0
11
62825
21
1000
31
0
0
TEXT
5
17C
330
10E
100
AcDbEntity
8
ST-SHEET-FRAME
100
AcDbText
10
67893.75
20
58900
30
0
40
250
1
7
7
STANDARD
72
1
11
67893.75
21
58900
31
0
100
AcDbText
73
2
0
TEXT
5
17D
330
10E
100
AcDbEntity
8
ST-SHEET-FRAME
100
AcDbText
10
67893.75
20
500
30
0
40
250
1
7
7
STANDARD
72
1
11
67893.75
21
500
31
0
100
AcDbText
73
2
0
LINE
5
17E
330
10E
100
AcDbEntity
8
ST-SHEET-FRAME
370
13
100
AcDbLine
10
72962.5
20
58400
30
0
11
72962.5
21
59400
31
0
0
LINE
5
17F
330
10E
100
AcDbEntity
8
ST-SHEET-FRAME
370
13
100
AcDbLine
10
72962.5
20
0
30
0
11
72962.5
21
1000
31
0
0
TEXT
5
180
330
10E
100
AcDbEntity
8
ST-SHEET-FRAME
100
AcDbText
10
78031.25
20
58900
30
0
40
250
1
8
7
STANDARD
72
1
11
78031.25
21
58900
31
0
100
AcDbText
73
2
0
TEXT
5
181
330
10E
100
AcDbEntity
8
ST-SHEET-FRAME
100
AcDbText
10
78031.25
20
500
30
0
40
250
1
8
7
STANDARD
72
1
11
78031.25
21
500
31
0
100
AcDbText
73
2
0
LINE
5
182
330
10E
100
AcDbEntity
8
ST-SHEET-FRAME
370
13
100
AcDbLine
10
83100
20
58400
30
0
11
83100
21
59400
31
0
0
LINE
5
183
330
10E
100
AcDbEntity
8
ST-SHEET-FRAME
370
13
100
AcDbLine
10
83100
20
0
30
0
11
83100
21
1000
31
0
0
LINE
5
184
330
10E
100
AcDbEntity
8
ST-SHEET-FRAME
370
13
100
AcDbLine
10
0
20
1000
30
0
11
2000
21
1000
31
0
0
LINE
5
185
330
10E
100
AcDbEntity
8
ST-SHEET-FRAME
370
13
100
AcDbLine
10
83100
20
1000
30
0
11
84100
21
1000
31
0
0
TEXT
5
186
330
10E
100
AcDbEntity
8
ST-SHEET-FRAME
100
AcDbText
10
1000
20
5783.333333
30
0
40
250
1
F
7
STANDARD
72
1
11
1000
21
5783.333333
31
0
100
AcDbText
73
2
0
TEXT
5
187
330
10E
100
AcDbEntity
8
ST-SHEET-FRAME
100
AcDbText
10
83600
20
5783.333333
30
0
40
250
1
F
7
STANDARD
72
1
11
83600
21
5783.333333
31
0
100
AcDbText
73
2
0
LINE
5
188
330
10E
100
AcDbEntity
8
ST-SHEET-FRAME
370
13
100
AcDbLine
10
0
20
10566.666667
30
0
11
2000
21
10566.666667
31
0
0
LINE
5
189
330
10E
100
AcDbEntity
8
ST-SHEET-FRAME
370
13
100
AcDbLine
10
83100
20
10566.666667
30
0
11
84100
21
10566.666667
31
0
0
TEXT
5
18A
330
10E
100
AcDbEntity
8
ST-SHEET-FRAME
100
AcDbText
10
1000
20
15350
30
0
40
250
1
E
7
STANDARD
72
1
11
1000
21
15350
31
0
100
AcDbText
73
2
0
TEXT
5
18B
330
10E
100
AcDbEntity
8
ST-SHEET-FRAME
100
AcDbText
10
83600
20
15350
30
0
40
250
1
E
7
STANDARD
72
1
11
83600
21
15350
31
0
100
AcDbText
73
2
0
LINE
5
18C
330
10E
100
AcDbEntity
8
ST-SHEET-FRAME
370
13
100
AcDbLine
10
0
20
20133.333333
30
0
11
2000
21
20133.333333
31
0
0
LINE
5
18D
330
10E
100
AcDbEntity
8
ST-SHEET-FRAME
370
13
100
AcDbLine
10
83100
20
20133.333333
30
0
11
84100
21
20133.333333
31
0
0
TEXT
5
18E
330
10E
100
AcDbEntity
8
ST-SHEET-FRAME
100
AcDbText
10
1000
20
24916.666667
30
0
40
250
1
D
7
STANDARD
72
1
11
1000
21
24916.666667
31
0
100
AcDbText
73
2
0
TEXT
5
18F
330
10E
100
AcDbEntity
8
ST-SHEET-FRAME
100
AcDbText
10
83600
20
24916.666667
30
0
40
250
1
D
7
STANDARD
72
1
11
83600
21
24916.666667
31
0
100
AcDbText
73
2
0
LINE
5
190
330
10E
100
AcDbEntity
8
ST-SHEET-FRAME
370
13
100
AcDbLine
10
0
20
29700
30
0
11
2000
21
29700
31
0
0
LINE
5
191
330
10E
100
AcDbEntity
8
ST-SHEET-FRAME
370
13
100
AcDbLine
10
83100
20
29700
30
0
11
84100
21
29700
31
0
0
TEXT
5
192
330
10E
100
AcDbEntity
8
ST-SHEET-FRAME
100
AcDbText
10
1000
20
34483.333333
30
0
40
250
1
C
7
STANDARD
72
1
11
1000
21
34483.333333
31
0
100
AcDbText
73
2
0
TEXT
5
193
330
10E
100
AcDbEntity
8
ST-SHEET-FRAME
100
AcDbText
10
83600
20
34483.333333
30
0
40
250
1
C
7
STANDARD
72
1
11
83600
21
34483.333333
31
0
100
AcDbText
73
2
0
LINE
5
194
330
10E
100
AcDbEntity
8
ST-SHEET-FRAME
370
13
100
AcDbLine
10
0
20
39266.666667
30
0
11
2000
21
39266.666667
31
0
0
LINE
5
195
330
10E
100
AcDbEntity
8
ST-SHEET-FRAME
370
13
100
AcDbLine
10
83100
20
39266.666667
30
0
11
84100
21
39266.666667
31
0
0
TEXT
5
196
330
10E
100
AcDbEntity
8
ST-SHEET-FRAME
100
AcDbText
10
1000
20
44050
30
0
40
250
1
B
7
STANDARD
72
1
11
1000
21
44050
31
0
100
AcDbText
73
2
0
TEXT
5
197
330
10E
100
AcDbEntity
8
ST-SHEET-FRAME
100
AcDbText
10
83600
20
44050
30
0
40
250
1
B
7
STANDARD
72
1
11
83600
21
44050
31
0
100
AcDbText
73
2
0
LINE
5
198
330
10E
100
AcDbEntity
8
ST-SHEET-FRAME
370
13
100
AcDbLine
10
0
20
48833.333333
30
0
11
2000
21
48833.333333
31
0
0
LINE
5
199
330
10E
100
AcDbEntity
8
ST-SHEET-FRAME
370
13
100
AcDbLine
10
83100
20
48833.333333
30
0
11
84100
21
48833.333333
31
0
0
TEXT
5
19A
330
10E
100
AcDbEntity
8
ST-SHEET-FRAME
100
AcDbText
10
1000
20
53616.666667
30
0
40
250
1
A
7
STANDARD
72
1
11
1000
21
53616.666667
31
0
100
AcDbText
73
2
0
TEXT
5
19B
330
10E
100
AcDbEntity
8
ST-SHEET-FRAME
100
AcDbText
10
83600
20
53616.666667
30
0
40
250
1
A
7
STANDARD
72
1
11
83600
21
53616.666667
31
0
100
AcDbText
73
2
0
LINE
5
19C
330
10E
100
AcDbEntity
8
ST-SHEET-FRAME
370
13
100
AcDbLine
10
0
20
58400
30
0
11
2000
21
58400
31
0
0
LINE
5
19D
330
10E
100
AcDbEntity
8
ST-SHEET-FRAME
370
13
100
AcDbLine
10
83100
20
58400
30
0
11
84100
21
58400
31
0
0
LINE
5
19E
330
10E
100
AcDbEntity
8
ST-SHEET-FRAME
100
AcDbLine
10
64600
20
1000
30
0
11
64600
21
58400
31
0
0
LINE
5
19F
330
10E
100
AcDbEntity
8
ST-SHEET-FRAME
100
AcDbLine
10
2000
20
13500
30
0
11
64600
21
13500
31
0
0
LINE
5
1A0
330
10E
100
AcDbEntity
8
ST-SHEET-FRAME
100
AcDbLine
10
64600
20
16000
30
0
11
83100
21
16000
31
0
0
LINE
5
1A1
330
10E
100
AcDbEntity
8
ST-SHEET-FRAME
100
AcDbLine
10
64600
20
21200
30
0
11
83100
21
21200
31
0
0
LINE
5
1A2
330
10E
100
AcDbEntity
8
ST-SHEET-FRAME
100
AcDbLine
10
64600
20
39800
30
0
11
83100
21
39800
31
0
0
LINE
5
1A3
330
10E
100
AcDbEntity
8
ST-SHEET-FRAME
100
AcDbLine
10
64600
20
53800
30
0
11
83100
21
53800
31
0
0
LINE
5
1A4
330
10E
100
AcDbEntity
8
ST-GRID
100
AcDbLine
10
18550
20
20650
30
0
11
18550
21
52650
31
0
0
CIRCLE
5
1A5
330
10E
100
AcDbEntity
8
ST-GRID-BUBBLE
100
AcDbCircle
10
18550
20
53050
30
0
40
400
0
TEXT
5
1A6
330
10E
100
AcDbEntity
8
ST-TEXT
100
AcDbText
10
18550
20
53050
30
0
40
300
1
A
7
STANDARD
72
1
11
18550
21
53050
31
0
100
AcDbText
73
2
0
CIRCLE
5
1A7
330
10E
100
AcDbEntity
8
ST-GRID-BUBBLE
100
AcDbCircle
10
18550
20
20250
30
0
40
400
0
TEXT
5
1A8
330
10E
100
AcDbEntity
8
ST-TEXT
100
AcDbText
10
18550
20
20250
30
0
40
300
1
A
7
STANDARD
72
1
11
18550
21
20250
31
0
100
AcDbText
73
2
0
LINE
5
1A9
330
10E
100
AcDbEntity
8
ST-GRID
100
AcDbLine
10
26050
20
20650
30
0
11
26050
21
52650
31
0
0
CIRCLE
5
1AA
330
10E
100
AcDbEntity
8
ST-GRID-BUBBLE
100
AcDbCircle
10
26050
20
53050
30
0
40
400
0
TEXT
5
1AB
330
10E
100
AcDbEntity
8
ST-TEXT
100
AcDbText
10
26050
20
53050
30
0
40
300
1
B
7
STANDARD
72
1
11
26050
21
53050
31
0
100
AcDbText
73
2
0
CIRCLE
5
1AC
330
10E
100
AcDbEntity
8
ST-GRID-BUBBLE
100
AcDbCircle
10
26050
20
20250
30
0
40
400
0
TEXT
5
1AD
330
10E
100
AcDbEntity
8
ST-TEXT
100
AcDbText
10
26050
20
20250
30
0
40
300
1
B
7
STANDARD
72
1
11
26050
21
20250
31
0
100
AcDbText
73
2
0
LINE
5
1AE
330
10E
100
AcDbEntity
8
ST-GRID
100
AcDbLine
10
33550
20
20650
30
0
11
33550
21
52650
31
0
0
CIRCLE
5
1AF
330
10E
100
AcDbEntity
8
ST-GRID-BUBBLE
100
AcDbCircle
10
33550
20
53050
30
0
40
400
0
TEXT
5
1B0
330
10E
100
AcDbEntity
8
ST-TEXT
100
AcDbText
10
33550
20
53050
30
0
40
300
1
C
7
STANDARD
72
1
11
33550
21
53050
31
0
100
AcDbText
73
2
0
CIRCLE
5
1B1
330
10E
100
AcDbEntity
8
ST-GRID-BUBBLE
100
AcDbCircle
10
33550
20
20250
30
0
40
400
0
TEXT
5
1B2
330
10E
100
AcDbEntity
8
ST-TEXT
100
AcDbText
10
33550
20
20250
30
0
40
300
1
C
7
STANDARD
72
1
11
33550
21
20250
31
0
100
AcDbText
73
2
0
LINE
5
1B3
330
10E
100
AcDbEntity
8
ST-GRID
100
AcDbLine
10
41050
20
20650
30
0
11
41050
21
52650
31
0
0
CIRCLE
5
1B4
330
10E
100
AcDbEntity
8
ST-GRID-BUBBLE
100
AcDbCircle
10
41050
20
53050
30
0
40
400
0
TEXT
5
1B5
330
10E
100
AcDbEntity
8
ST-TEXT
100
AcDbText
10
41050
20
53050
30
0
40
300
1
D
7
STANDARD
72
1
11
41050
21
53050
31
0
100
AcDbText
73
2
0
CIRCLE
5
1B6
330
10E
100
AcDbEntity
8
ST-GRID-BUBBLE
100
AcDbCircle
10
41050
20
20250
30
0
40
400
0
TEXT
5
1B7
330
10E
100
AcDbEntity
8
ST-TEXT
100
AcDbText
10
41050
20
20250
30
0
40
300
1
D
7
STANDARD
72
1
11
41050
21
20250
31
0
100
AcDbText
73
2
0
LINE
5
1B8
330
10E
100
AcDbEntity
8
ST-GRID
100
AcDbLine
10
48550
20
20650
30
0
11
48550
21
52650
31
0
0
CIRCLE
5
1B9
330
10E
100
AcDbEntity
8
ST-GRID-BUBBLE
100
AcDbCircle
10
48550
20
53050
30
0
40
400
0
TEXT
5
1BA
330
10E
100
AcDbEntity
8
ST-TEXT
100
AcDbText
10
48550
20
53050
30
0
40
300
1
E
7
STANDARD
72
1
11
48550
21
53050
31
0
100
AcDbText
73
2
0
CIRCLE
5
1BB
330
10E
100
AcDbEntity
8
ST-GRID-BUBBLE
100
AcDbCircle
10
48550
20
20250
30
0
40
400
0
TEXT
5
1BC
330
10E
100
AcDbEntity
8
ST-TEXT
100
AcDbText
10
48550
20
20250
30
0
40
300
1
E
7
STANDARD
72
1
11
48550
21
20250
31
0
100
AcDbText
73
2
0
LINE
5
1BD
330
10E
100
AcDbEntity
8
ST-GRID
100
AcDbLine
10
14050
20
24650
30
0
11
52550
21
24650
31
0
0
CIRCLE
5
1BE
330
10E
100
AcDbEntity
8
ST-GRID-BUBBLE
100
AcDbCircle
10
13650
20
24650
30
0
40
400
0
TEXT
5
1BF
330
10E
100
AcDbEntity
8
ST-TEXT
100
AcDbText
10
13650
20
24650
30
0
40
300
1
1
7
STANDARD
72
1
11
13650
21
24650
31
0
100
AcDbText
73
2
0
CIRCLE
5
1C0
330
10E
100
AcDbEntity
8
ST-GRID-BUBBLE
100
AcDbCircle
10
52950
20
24650
30
0
40
400
0
TEXT
5
1C1
330
10E
100
AcDbEntity
8
ST-TEXT
100
AcDbText
10
52950
20
24650
30
0
40
300
1
1
7
STANDARD
72
1
11
52950
21
24650
31
0
100
AcDbText
73
2
0
LINE
5
1C2
330
10E
100
AcDbEntity
8
ST-GRID
100
AcDbLine
10
14050
20
32650
30
0
11
52550
21
32650
31
0
0
CIRCLE
5
1C3
330
10E
100
AcDbEntity
8
ST-GRID-BUBBLE
100
AcDbCircle
10
13650
20
32650
30
0
40
400
0
TEXT
5
1C4
330
10E
100
AcDbEntity
8
ST-TEXT
100
AcDbText
10
13650
20
32650
30
0
40
300
1
2
7
STANDARD
72
1
11
13650
21
32650
31
0
100
AcDbText
73
2
0
CIRCLE
5
1C5
330
10E
100
AcDbEntity
8
ST-GRID-BUBBLE
100
AcDbCircle
10
52950
20
32650
30
0
40
400
0
TEXT
5
1C6
330
10E
100
AcDbEntity
8
ST-TEXT
100
AcDbText
10
52950
20
32650
30
0
40
300
1
2
7
STANDARD
72
1
11
52950
21
32650
31
0
100
AcDbText
73
2
0
LINE
5
1C7
330
10E
100
AcDbEntity
8
ST-GRID
100
AcDbLine
10
14050
20
40650
30
0
11
52550
21
40650
31
0
0
CIRCLE
5
1C8
330
10E
100
AcDbEntity
8
ST-GRID-BUBBLE
100
AcDbCircle
10
13650
20
40650
30
0
40
400
0
TEXT
5
1C9
330
10E
100
AcDbEntity
8
ST-TEXT
100
AcDbText
10
13650
20
40650
30
0
40
300
1
3
7
STANDARD
72
1
11
13650
21
40650
31
0
100
AcDbText
73
2
0
CIRCLE
5
1CA
330
10E
100
AcDbEntity
8
ST-GRID-BUBBLE
100
AcDbCircle
10
52950
20
40650
30
0
40
400
0
TEXT
5
1CB
330
10E
100
AcDbEntity
8
ST-TEXT
100
AcDbText
10
52950
20
40650
30
0
40
300
1
3
7
STANDARD
72
1
11
52950
21
40650
31
0
100
AcDbText
73
2
0
LINE
5
1CC
330
10E
100
AcDbEntity
8
ST-GRID
100
AcDbLine
10
14050
20
48650
30
0
11
52550
21
48650
31
0
0
CIRCLE
5
1CD
330
10E
100
AcDbEntity
8
ST-GRID-BUBBLE
100
AcDbCircle
10
13650
20
48650
30
0
40
400
0
TEXT
5
1CE
330
10E
100
AcDbEntity
8
ST-TEXT
100
AcDbText
10
13650
20
48650
30
0
40
300
1
4
7
STANDARD
72
1
11
13650
21
48650
31
0
100
AcDbText
73
2
0
CIRCLE
5
1CF
330
10E
100
AcDbEntity
8
ST-GRID-BUBBLE
100
AcDbCircle
10
52950
20
48650
30
0
40
400
0
TEXT
5
1D0
330
10E
100
AcDbEntity
8
ST-TEXT
100
AcDbText
10
52950
20
48650
30
0
40
300
1
4
7
STANDARD
72
1
11
52950
21
48650
31
0
100
AcDbText
73
2
0
LINE
5
1D1
330
10E
100
AcDbEntity
8
ST-DIM
100
AcDbLine
10
18550
20
18450
30
0
11
18550
21
18000
31
0
0
LINE
5
1D2
330
10E
100
AcDbEntity
8
ST-DIM
100
AcDbLine
10
26050
20
18450
30
0
11
26050
21
18000
31
0
0
LINE
5
1D3
330
10E
100
AcDbEntity
8
ST-DIM
100
AcDbLine
10
18550
20
17850
30
0
11
26050
21
17850
31
0
0
LINE
5
1D4
330
10E
100
AcDbEntity
8
ST-DIM
100
AcDbLine
10
18480
20
17780
30
0
11
18620
21
17920
31
0
0
LINE
5
1D5
330
10E
100
AcDbEntity
8
ST-DIM
100
AcDbLine
10
25980
20
17780
30
0
11
26120
21
17920
31
0
0
TEXT
5
1D6
330
10E
100
AcDbEntity
8
ST-DIM
100
AcDbText
10
22300
20
17922
30
0
40
180
1
7500
7
STANDARD
72
1
11
22300
21
17922
31
0
100
AcDbText
73
0
0
LINE
5
1D7
330
10E
100
AcDbEntity
8
ST-DIM
100
AcDbLine
10
26050
20
18450
30
0
11
26050
21
18000
31
0
0
LINE
5
1D8
330
10E
100
AcDbEntity
8
ST-DIM
100
AcDbLine
10
33550
20
18450
30
0
11
33550
21
18000
31
0
0
LINE
5
1D9
330
10E
100
AcDbEntity
8
ST-DIM
100
AcDbLine
10
26050
20
17850
30
0
11
33550
21
17850
31
0
0
LINE
5
1DA
330
10E
100
AcDbEntity
8
ST-DIM
100
AcDbLine
10
25980
20
17780
30
0
11
26120
21
17920
31
0
0
LINE
5
1DB
330
10E
100
AcDbEntity
8
ST-DIM
100
AcDbLine
10
33480
20
17780
30
0
11
33620
21
17920
31
0
0
TEXT
5
1DC
330
10E
100
AcDbEntity
8
ST-DIM
100
AcDbText
10
29800
20
17922
30
0
40
180
1
7500
7
STANDARD
72
1
11
29800
21
17922
31
0
100
AcDbText
73
0
0
LINE
5
1DD
330
10E
100
AcDbEntity
8
ST-DIM
100
AcDbLine
10
33550
20
18450
30
0
11
33550
21
18000
31
0
0
LINE
5
1DE
330
10E
100
AcDbEntity
8
ST-DIM
100
AcDbLine
10
41050
20
18450
30
0
11
41050
21
18000
31
0
0
LINE
5
1DF
330
10E
100
AcDbEntity
8
ST-DIM
100
AcDbLine
10
33550
20
17850
30
0
11
41050
21
17850
31
0
0
LINE
5
1E0
330
10E
100
AcDbEntity
8
ST-DIM
100
AcDbLine
10
33480
20
17780
30
0
11
33620
21
17920
31
0
0
LINE
5
1E1
330
10E
100
AcDbEntity
8
ST-DIM
100
AcDbLine
10
40980
20
17780
30
0
11
41120
21
17920
31
0
0
TEXT
5
1E2
330
10E
100
AcDbEntity
8
ST-DIM
100
AcDbText
10
37300
20
17922
30
0
40
180
1
7500
7
STANDARD
72
1
11
37300
21
17922
31
0
100
AcDbText
73
0
0
LINE
5
1E3
330
10E
100
AcDbEntity
8
ST-DIM
100
AcDbLine
10
41050
20
18450
30
0
11
41050
21
18000
31
0
0
LINE
5
1E4
330
10E
100
AcDbEntity
8
ST-DIM
100
AcDbLine
10
48550
20
18450
30
0
11
48550
21
18000
31
0
0
LINE
5
1E5
330
10E
100
AcDbEntity
8
ST-DIM
100
AcDbLine
10
41050
20
17850
30
0
11
48550
21
17850
31
0
0
LINE
5
1E6
330
10E
100
AcDbEntity
8
ST-DIM
100
AcDbLine
10
40980
20
17780
30
0
11
41120
21
17920
31
0
0
LINE
5
1E7
330
10E
100
AcDbEntity
8
ST-DIM
100
AcDbLine
10
48480
20
17780
30
0
11
48620
21
17920
31
0
0
TEXT
5
1E8
330
10E
100
AcDbEntity
8
ST-DIM
100
AcDbText
10
44800
20
17922
30
0
40
180
1
7500
7
STANDARD
72
1
11
44800
21
17922
31
0
100
AcDbText
73
0
0
LINE
5
1E9
330
10E
100
AcDbEntity
8
ST-DIM
100
AcDbLine
10
18550
20
18450
30
0
11
18550
21
17400
31
0
0
LINE
5
1EA
330
10E
100
AcDbEntity
8
ST-DIM
100
AcDbLine
10
48550
20
18450
30
0
11
48550
21
17400
31
0
0
LINE
5
1EB
330
10E
100
AcDbEntity
8
ST-DIM
100
AcDbLine
10
18550
20
17250
30
0
11
48550
21
17250
31
0
0
LINE
5
1EC
330
10E
100
AcDbEntity
8
ST-DIM
100
AcDbLine
10
18480
20
17180
30
0
11
18620
21
17320
31
0
0
LINE
5
1ED
330
10E
100
AcDbEntity
8
ST-DIM
100
AcDbLine
10
48480
20
17180
30
0
11
48620
21
17320
31
0
0
TEXT
5
1EE
330
10E
100
AcDbEntity
8
ST-DIM
100
AcDbText
10
33550
20
17322
30
0
40
180
1
30000
7
STANDARD
72
1
11
33550
21
17322
31
0
100
AcDbText
73
0
0
LINE
5
1EF
330
10E
100
AcDbEntity
8
ST-DIM
100
AcDbLine
10
54750
20
24650
30
0
11
55200
21
24650
31
0
0
LINE
5
1F0
330
10E
100
AcDbEntity
8
ST-DIM
100
AcDbLine
10
54750
20
32650
30
0
11
55200
21
32650
31
0
0
LINE
5
1F1
330
10E
100
AcDbEntity
8
ST-DIM
100
AcDbLine
10
55350
20
24650
30
0
11
55350
21
32650
31
0
0
LINE
5
1F2
330
10E
100
AcDbEntity
8
ST-DIM
100
AcDbLine
10
55420
20
24580
30
0
11
55280
21
24720
31
0
0
LINE
5
1F3
330
10E
100
AcDbEntity
8
ST-DIM
100
AcDbLine
10
55420
20
32580
30
0
11
55280
21
32720
31
0
0
TEXT
5
1F4
330
10E
100
AcDbEntity
8
ST-DIM
100
AcDbText
10
55278
20
28650
30
0
40
180
1
8000
50
90
7
STANDARD
72
1
11
55278
21
28650
31
0
100
AcDbText
73
0
0
LINE
5
1F5
330
10E
100
AcDbEntity
8
ST-DIM
100
AcDbLine
10
54750
20
32650
30
0
11
55200
21
32650
31
0
0
LINE
5
1F6
330
10E
100
AcDbEntity
8
ST-DIM
100
AcDbLine
10
54750
20
40650
30
0
11
55200
21
40650
31
0
0
LINE
5
1F7
330
10E
100
AcDbEntity
8
ST-DIM
100
AcDbLine
10
55350
20
32650
30
0
11
55350
21
40650
31
0
0
LINE
5
1F8
330
10E
100
AcDbEntity
8
ST-DIM
100
AcDbLine
10
55420
20
32580
30
0
11
55280
21
32720
31
0
0
LINE
5
1F9
330
10E
100
AcDbEntity
8
ST-DIM
100
AcDbLine
10
55420
20
40580
30
0
11
55280
21
40720
31
0
0
TEXT
5
1FA
330
10E
100
AcDbEntity
8
ST-DIM
100
AcDbText
10
55278
20
36650
30
0
40
180
1
8000
50
90
7
STANDARD
72
1
11
55278
21
36650
31
0
100
AcDbText
73
0
0
LINE
5
1FB
330
10E
100
AcDbEntity
8
ST-DIM
100
AcDbLine
10
54750
20
40650
30
0
11
55200
21
40650
31
0
0
LINE
5
1FC
330
10E
100
AcDbEntity
8
ST-DIM
100
AcDbLine
10
54750
20
48650
30
0
11
55200
21
48650
31
0
0
LINE
5
1FD
330
10E
100
AcDbEntity
8
ST-DIM
100
AcDbLine
10
55350
20
40650
30
0
11
55350
21
48650
31
0
0
LINE
5
1FE
330
10E
100
AcDbEntity
8
ST-DIM
100
AcDbLine
10
55420
20
40580
30
0
11
55280
21
40720
31
0
0
LINE
5
1FF
330
10E
100
AcDbEntity
8
ST-DIM
100
AcDbLine
10
55420
20
48580
30
0
11
55280
21
48720
31
0
0
TEXT
5
200
330
10E
100
AcDbEntity
8
ST-DIM
100
AcDbText
10
55278
20
44650
30
0
40
180
1
8000
50
90
7
STANDARD
72
1
11
55278
21
44650
31
0
100
AcDbText
73
0
0
LINE
5
201
330
10E
100
AcDbEntity
8
ST-DIM
100
AcDbLine
10
54750
20
24650
30
0
11
55800
21
24650
31
0
0
LINE
5
202
330
10E
100
AcDbEntity
8
ST-DIM
100
AcDbLine
10
54750
20
48650
30
0
11
55800
21
48650
31
0
0
LINE
5
203
330
10E
100
AcDbEntity
8
ST-DIM
100
AcDbLine
10
55950
20
24650
30
0
11
55950
21
48650
31
0
0
LINE
5
204
330
10E
100
AcDbEntity
8
ST-DIM
100
AcDbLine
10
56020
20
24580
30
0
11
55880
21
24720
31
0
0
LINE
5
205
330
10E
100
AcDbEntity
8
ST-DIM
100
AcDbLine
10
56020
20
48580
30
0
11
55880
21
48720
31
0
0
TEXT
5
206
330
10E
100
AcDbEntity
8
ST-DIM
100
AcDbText
10
55878
20
36650
30
0
40
180
1
24000
50
90
7
STANDARD
72
1
11
55878
21
36650
31
0
100
AcDbText
73
0
0
LWPOLYLINE
5
207
330
10E
100
AcDbEntity
8
ST-SLAB-EDGE
62
3
100
AcDbPolyline
90
6
70
1
43
0
10
17050
20
23650
10
49550
20
23650
10
49550
20
44650
10
44550
20
44650
10
44550
20
49650
10
17050
20
49650
0
LWPOLYLINE
5
208
330
10E
100
AcDbEntity
8
ST-COL
100
AcDbPolyline
90
4
70
1
43
0
10
18250
20
48350
10
18850
20
48350
10
18850
20
48950
10
18250
20
48950
0
HATCH
5
209
330
10E
100
AcDbEntity
8
ST-COL-HATCH
62
7
100
AcDbHatch
10
0
20
0
30
0
210
0
220
0
230
1
2
SOLID
70
1
71
0
91
1
92
3
72
0
73
1
93
4
10
18250
20
48350
10
18850
20
48350
10
18850
20
48950
10
18250
20
48950
97
0
75
1
76
1
98
0
0
LWPOLYLINE
5
20A
330
10E
100
AcDbEntity
8
ST-COL
100
AcDbPolyline
90
4
70
1
43
0
10
25750
20
48350
10
26350
20
48350
10
26350
20
48950
10
25750
20
48950
0
HATCH
5
20B
330
10E
100
AcDbEntity
8
ST-COL-HATCH
62
7
100
AcDbHatch
10
0
20
0
30
0
210
0
220
0
230
1
2
SOLID
70
1
71
0
91
1
92
3
72
0
73
1
93
4
10
25750
20
48350
10
26350
20
48350
10
26350
20
48950
10
25750
20
48950
97
0
75
1
76
1
98
0
0
LWPOLYLINE
5
20C
330
10E
100
AcDbEntity
8
ST-COL
100
AcDbPolyline
90
4
70
1
43
0
10
33250
20
48350
10
33850
20
48350
10
33850
20
48950
10
33250
20
48950
0
HATCH
5
20D
330
10E
100
AcDbEntity
8
ST-COL-HATCH
62
7
100
AcDbHatch
10
0
20
0
30
0
210
0
220
0
230
1
2
SOLID
70
1
71
0
91
1
92
3
72
0
73
1
93
4
10
33250
20
48350
10
33850
20
48350
10
33850
20
48950
10
33250
20
48950
97
0
75
1
76
1
98
0
0
LWPOLYLINE
5
20E
330
10E
100
AcDbEntity
8
ST-COL
100
AcDbPolyline
90
4
70
1
43
0
10
40750
20
48350
10
41350
20
48350
10
41350
20
48950
10
40750
20
48950
0
HATCH
5
20F
330
10E
100
AcDbEntity
8
ST-COL-HATCH
62
7
100
AcDbHatch
10
0
20
0
30
0
210
0
220
0
230
1
2
SOLID
70
1
71
0
91
1
92
3
72
0
73
1
93
4
10
40750
20
48350
10
41350
20
48350
10
41350
20
48950
10
40750
20
48950
97
0
75
1
76
1
98
0
0
LWPOLYLINE
5
210
330
10E
100
AcDbEntity
8
ST-COL
100
AcDbPolyline
90
4
70
1
43
0
10
18250
20
40350
10
18850
20
40350
10
18850
20
40950
10
18250
20
40950
0
HATCH
5
211
330
10E
100
AcDbEntity
8
ST-COL-HATCH
62
7
100
AcDbHatch
10
0
20
0
30
0
210
0
220
0
230
1
2
SOLID
70
1
71
0
91
1
92
3
72
0
73
1
93
4
10
18250
20
40350
10
18850
20
40350
10
18850
20
40950
10
18250
20
40950
97
0
75
1
76
1
98
0
0
LWPOLYLINE
5
212
330
10E
100
AcDbEntity
8
ST-COL
100
AcDbPolyline
90
4
70
1
43
0
10
25750
20
40350
10
26350
20
40350
10
26350
20
40950
10
25750
20
40950
0
HATCH
5
213
330
10E
100
AcDbEntity
8
ST-COL-HATCH
62
7
100
AcDbHatch
10
0
20
0
30
0
210
0
220
0
230
1
2
SOLID
70
1
71
0
91
1
92
3
72
0
73
1
93
4
10
25750
20
40350
10
26350
20
40350
10
26350
20
40950
10
25750
20
40950
97
0
75
1
76
1
98
0
0
LWPOLYLINE
5
214
330
10E
100
AcDbEntity
8
ST-COL
100
AcDbPolyline
90
4
70
1
43
0
10
33250
20
40350
10
33850
20
40350
10
33850
20
40950
10
33250
20
40950
0
HATCH
5
215
330
10E
100
AcDbEntity
8
ST-COL-HATCH
62
7
100
AcDbHatch
10
0
20
0
30
0
210
0
220
0
230
1
2
SOLID
70
1
71
0
91
1
92
3
72
0
73
1
93
4
10
33250
20
40350
10
33850
20
40350
10
33850
20
40950
10
33250
20
40950
97
0
75
1
76
1
98
0
0
LWPOLYLINE
5
216
330
10E
100
AcDbEntity
8
ST-COL
100
AcDbPolyline
90
4
70
1
43
0
10
40750
20
40350
10
41350
20
40350
10
41350
20
40950
10
40750
20
40950
0
HATCH
5
217
330
10E
100
AcDbEntity
8
ST-COL-HATCH
62
7
100
AcDbHatch
10
0
20
0
30
0
210
0
220
0
230
1
2
SOLID
70
1
71
0
91
1
92
3
72
0
73
1
93
4
10
40750
20
40350
10
41350
20
40350
10
41350
20
40950
10
40750
20
40950
97
0
75
1
76
1
98
0
0
LWPOLYLINE
5
218
330
10E
100
AcDbEntity
8
ST-COL
100
AcDbPolyline
90
4
70
1
43
0
10
48250
20
40350
10
48850
20
40350
10
48850
20
40950
10
48250
20
40950
0
HATCH
5
219
330
10E
100
AcDbEntity
8
ST-COL-HATCH
62
7
100
AcDbHatch
10
0
20
0
30
0
210
0
220
0
230
1
2
SOLID
70
1
71
0
91
1
92
3
72
0
73
1
93
4
10
48250
20
40350
10
48850
20
40350
10
48850
20
40950
10
48250
20
40950
97
0
75
1
76
1
98
0
0
LWPOLYLINE
5
21A
330
10E
100
AcDbEntity
8
ST-COL
100
AcDbPolyline
90
4
70
1
43
0
10
18250
20
32350
10
18850
20
32350
10
18850
20
32950
10
18250
20
32950
0
HATCH
5
21B
330
10E
100
AcDbEntity
8
ST-COL-HATCH
62
7
100
AcDbHatch
10
0
20
0
30
0
210
0
220
0
230
1
2
SOLID
70
1
71
0
91
1
92
3
72
0
73
1
93
4
10
18250
20
32350
10
18850
20
32350
10
18850
20
32950
10
18250
20
32950
97
0
75
1
76
1
98
0
0
LWPOLYLINE
5
21C
330
10E
100
AcDbEntity
8
ST-COL
100
AcDbPolyline
90
4
70
1
43
0
10
25750
20
32350
10
26350
20
32350
10
26350
20
32950
10
25750
20
32950
0
HATCH
5
21D
330
10E
100
AcDbEntity
8
ST-COL-HATCH
62
7
100
AcDbHatch
10
0
20
0
30
0
210
0
220
0
230
1
2
SOLID
70
1
71
0
91
1
92
3
72
0
73
1
93
4
10
25750
20
32350
10
26350
20
32350
10
26350
20
32950
10
25750
20
32950
97
0
75
1
76
1
98
0
0
LWPOLYLINE
5
21E
330
10E
100
AcDbEntity
8
ST-COL
100
AcDbPolyline
90
4
70
1
43
0
10
33250
20
32350
10
33850
20
32350
10
33850
20
32950
10
33250
20
32950
0
HATCH
5
21F
330
10E
100
AcDbEntity
8
ST-COL-HATCH
62
7
100
AcDbHatch
10
0
20
0
30
0
210
0
220
0
230
1
2
SOLID
70
1
71
0
91
1
92
3
72
0
73
1
93
4
10
33250
20
32350
10
33850
20
32350
10
33850
20
32950
10
33250
20
32950
97
0
75
1
76
1
98
0
0
LWPOLYLINE
5
220
330
10E
100
AcDbEntity
8
ST-COL
100
AcDbPolyline
90
4
70
1
43
0
10
40750
20
32350
10
41350
20
32350
10
41350
20
32950
10
40750
20
32950
0
HATCH
5
221
330
10E
100
AcDbEntity
8
ST-COL-HATCH
62
7
100
AcDbHatch
10
0
20
0
30
0
210
0
220
0
230
1
2
SOLID
70
1
71
0
91
1
92
3
72
0
73
1
93
4
10
40750
20
32350
10
41350
20
32350
10
41350
20
32950
10
40750
20
32950
97
0
75
1
76
1
98
0
0
LWPOLYLINE
5
222
330
10E
100
AcDbEntity
8
ST-COL
100
AcDbPolyline
90
4
70
1
43
0
10
48250
20
32350
10
48850
20
32350
10
48850
20
32950
10
48250
20
32950
0
HATCH
5
223
330
10E
100
AcDbEntity
8
ST-COL-HATCH
62
7
100
AcDbHatch
10
0
20
0
30
0
210
0
220
0
230
1
2
SOLID
70
1
71
0
91
1
92
3
72
0
73
1
93
4
10
48250
20
32350
10
48850
20
32350
10
48850
20
32950
10
48250
20
32950
97
0
75
1
76
1
98
0
0
LWPOLYLINE
5
224
330
10E
100
AcDbEntity
8
ST-COL
100
AcDbPolyline
90
4
70
1
43
0
10
18250
20
24350
10
18850
20
24350
10
18850
20
24950
10
18250
20
24950
0
HATCH
5
225
330
10E
100
AcDbEntity
8
ST-COL-HATCH
62
7
100
AcDbHatch
10
0
20
0
30
0
210
0
220
0
230
1
2
SOLID
70
1
71
0
91
1
92
3
72
0
73
1
93
4
10
18250
20
24350
10
18850
20
24350
10
18850
20
24950
10
18250
20
24950
97
0
75
1
76
1
98
0
0
LWPOLYLINE
5
226
330
10E
100
AcDbEntity
8
ST-COL
100
AcDbPolyline
90
4
70
1
43
0
10
25750
20
24350
10
26350
20
24350
10
26350
20
24950
10
25750
20
24950
0
HATCH
5
227
330
10E
100
AcDbEntity
8
ST-COL-HATCH
62
7
100
AcDbHatch
10
0
20
0
30
0
210
0
220
0
230
1
2
SOLID
70
1
71
0
91
1
92
3
72
0
73
1
93
4
10
25750
20
24350
10
26350
20
24350
10
26350
20
24950
10
25750
20
24950
97
0
75
1
76
1
98
0
0
LWPOLYLINE
5
228
330
10E
100
AcDbEntity
8
ST-COL
100
AcDbPolyline
90
4
70
1
43
0
10
33250
20
24350
10
33850
20
24350
10
33850
20
24950
10
33250
20
24950
0
HATCH
5
229
330
10E
100
AcDbEntity
8
ST-COL-HATCH
62
7
100
AcDbHatch
10
0
20
0
30
0
210
0
220
0
230
1
2
SOLID
70
1
71
0
91
1
92
3
72
0
73
1
93
4
10
33250
20
24350
10
33850
20
24350
10
33850
20
24950
10
33250
20
24950
97
0
75
1
76
1
98
0
0
LWPOLYLINE
5
22A
330
10E
100
AcDbEntity
8
ST-COL
100
AcDbPolyline
90
4
70
1
43
0
10
40750
20
24350
10
41350
20
24350
10
41350
20
24950
10
40750
20
24950
0
HATCH
5
22B
330
10E
100
AcDbEntity
8
ST-COL-HATCH
62
7
100
AcDbHatch
10
0
20
0
30
0
210
0
220
0
230
1
2
SOLID
70
1
71
0
91
1
92
3
72
0
73
1
93
4
10
40750
20
24350
10
41350
20
24350
10
41350
20
24950
10
40750
20
24950
97
0
75
1
76
1
98
0
0
LWPOLYLINE
5
22C
330
10E
100
AcDbEntity
8
ST-COL
100
AcDbPolyline
90
4
70
1
43
0
10
48250
20
24350
10
48850
20
24350
10
48850
20
24950
10
48250
20
24950
0
HATCH
5
22D
330
10E
100
AcDbEntity
8
ST-COL-HATCH
62
7
100
AcDbHatch
10
0
20
0
30
0
210
0
220
0
230
1
2
SOLID
70
1
71
0
91
1
92
3
72
0
73
1
93
4
10
48250
20
24350
10
48850
20
24350
10
48850
20
24950
10
48250
20
24950
97
0
75
1
76
1
98
0
0
LWPOLYLINE
5
22E
330
10E
100
AcDbEntity
8
ST-OPENING
100
AcDbPolyline
90
4
70
1
43
0
10
28050
20
34150
10
31050
20
34150
10
31050
20
39150
10
28050
20
39150
0
LINE
5
22F
330
10E
100
AcDbEntity
8
ST-OPENING
100
AcDbLine
10
28050
20
34150
30
0
11
31050
21
39150
31
0
0
LINE
5
230
330
10E
100
AcDbEntity
8
ST-OPENING
100
AcDbLine
10
31050
20
34150
30
0
11
28050
21
39150
31
0
0
LWPOLYLINE
5
231
330
10E
100
AcDbEntity
8
ST-OPENING
100
AcDbPolyline
90
4
70
1
43
0
10
36050
20
27650
10
37850
20
27650
10
37850
20
29150
10
36050
20
29150
0
LINE
5
232
330
10E
100
AcDbEntity
8
ST-OPENING
100
AcDbLine
10
36050
20
27650
30
0
11
37850
21
29150
31
0
0
LINE
5
233
330
10E
100
AcDbEntity
8
ST-OPENING
100
AcDbLine
10
37850
20
27650
30
0
11
36050
21
29150
31
0
0
LWPOLYLINE
5
234
330
10E
100
AcDbEntity
8
ST-VOID
100
AcDbPolyline
90
4
70
1
43
0
10
20550
20
26650
10
24550
20
26650
10
24550
20
29650
10
20550
20
29650
0
HATCH
5
235
330
10E
100
AcDbEntity
8
ST-VOID-HATCH
100
AcDbHatch
10
0
20
0
30
0
210
0
220
0
230
1
2
ANSI37
70
0
71
0
91
1
92
3
72
0
73
1
93
4
10
20550
20
26650
10
24550
20
26650
10
24550
20
29650
10
20550
20
29650
97
0
75
1
76
1
52
0
41
78.740157
77
0
78
2
53
45
43
0
44
0
45
-176.776695
46
176.776695
79
0
53
135
43
0
44
0
45
-176.776695
46
-176.776695
79
0
98
0
0
LWPOLYLINE
5
236
330
10E
100
AcDbEntity
8
ST-VOID
100
AcDbPolyline
90
4
70
1
43
0
10
35550
20
42650
10
40550
20
42650
10
40550
20
46150
10
35550
20
46150
0
HATCH
5
237
330
10E
100
AcDbEntity
8
ST-VOID-HATCH
100
AcDbHatch
10
0
20
0
30
0
210
0
220
0
230
1
2
ANSI37
70
0
71
0
91
1
92
3
72
0
73
1
93
4
10
35550
20
42650
10
40550
20
42650
10
40550
20
46150
10
35550
20
46150
97
0
75
1
76
1
52
0
41
78.740157
77
0
78
2
53
45
43
0
44
0
45
-176.776695
46
176.776695
79
0
53
135
43
0
44
0
45
-176.776695
46
-176.776695
79
0
98
0
0
LINE
5
238
330
10E
100
AcDbEntity
8
ST-RB
100
AcDbLine
10
17075
20
23735
30
0
11
29075
21
23735
31
0
0
TEXT
5
239
330
10E
100
AcDbEntity
8
ST-RB-TEXT
100
AcDbText
10
23075
20
23790
30
0
40
210
1
4T12-T&B-U02-(L=12000)
7
ST-REBAR
72
1
11
23075
21
23790
31
0
100
AcDbText
73
0
0
TEXT
5
23A
330
10E
100
AcDbEntity
8
ST-RB-TEXT
100
AcDbText
10
23075
20
23515
30
0
40
170
1
12000
7
ST-REBAR
72
1
11
23075
21
23515
31
0
100
AcDbText
73
0
0
LINE
5
23B
330
10E
100
AcDbEntity
8
ST-RB
100
AcDbLine
10
29075
20
23735
30
0
11
40525
21
23735
31
0
0
LINE
5
23C
330
10E
100
AcDbEntity
8
ST-RB
100
AcDbLine
10
28525
20
23885
30
0
11
29075
21
23885
31
0
0
TEXT
5
23D
330
10E
100
AcDbEntity
8
ST-RB-TEXT
100
AcDbText
10
34800
20
23790
30
0
40
210
1
4T12-T&B-U03-(L=12000)
7
ST-REBAR
72
1
11
34800
21
23790
31
0
100
AcDbText
73
0
0
TEXT
5
23E
330
10E
100
AcDbEntity
8
ST-RB-TEXT
100
AcDbText
10
34800
20
23515
30
0
40
170
1
12000
7
ST-REBAR
72
1
11
34800
21
23515
31
0
100
AcDbText
73
0
0
LINE
5
23F
330
10E
100
AcDbEntity
8
ST-RB
100
AcDbLine
10
40525
20
23735
30
0
11
49525
21
23735
31
0
0
LINE
5
240
330
10E
100
AcDbEntity
8
ST-RB
100
AcDbLine
10
39975
20
23885
30
0
11
40525
21
23885
31
0
0
TEXT
5
241
330
10E
100
AcDbEntity
8
ST-RB-TEXT
100
AcDbText
10
45025
20
23790
30
0
40
210
1
4T12-T&B-U03-(L=9550)
7
ST-REBAR
72
1
11
45025
21
23790
31
0
100
AcDbText
73
0
0
TEXT
5
242
330
10E
100
AcDbEntity
8
ST-RB-TEXT
100
AcDbText
10
45025
20
23515
30
0
40
170
1
9550
7
ST-REBAR
72
1
11
45025
21
23515
31
0
100
AcDbText
73
0
0
LINE
5
243
330
10E
100
AcDbEntity
8
ST-RB
100
AcDbLine
10
17075
20
23675
30
0
11
17075
21
23795
31
0
0
LINE
5
244
330
10E
100
AcDbEntity
8
ST-RB
100
AcDbLine
10
49525
20
23675
30
0
11
49525
21
23795
31
0
0
LWPOLYLINE
5
245
330
10E
100
AcDbEntity
8
ST-RB-UBAR
100
AcDbPolyline
90
4
70
0
43
0
10
17115
20
24875
10
17115
20
23675
10
17235
20
23675
10
17235
20
24875
0
LWPOLYLINE
5
246
330
10E
100
AcDbEntity
8
ST-RB-UBAR
100
AcDbPolyline
90
4
70
0
43
0
10
17915
20
24875
10
17915
20
23675
10
18035
20
23675
10
18035
20
24875
0
LWPOLYLINE
5
247
330
10E
100
AcDbEntity
8
ST-RB-UBAR
100
AcDbPolyline
90
4
70
0
43
0
10
18715
20
24875
10
18715
20
23675
10
18835
20
23675
10
18835
20
24875
0
LWPOLYLINE
5
248
330
10E
100
AcDbEntity
8
ST-RB-UBAR
100
AcDbPolyline
90
4
70
0
43
0
10
19515
20
24875
10
19515
20
23675
10
19635
20
23675
10
19635
20
24875
0
LWPOLYLINE
5
249
330
10E
100
AcDbEntity
8
ST-RB-UBAR
100
AcDbPolyline
90
4
70
0
43
0
10
20315
20
24875
10
20315
20
23675
10
20435
20
23675
10
20435
20
24875
0
LWPOLYLINE
5
24A
330
10E
100
AcDbEntity
8
ST-RB-UBAR
100
AcDbPolyline
90
4
70
0
43
0
10
21115
20
24875
10
21115
20
23675
10
21235
20
23675
10
21235
20
24875
0
LWPOLYLINE
5
24B
330
10E
100
AcDbEntity
8
ST-RB-UBAR
100
AcDbPolyline
90
4
70
0
43
0
10
21915
20
24875
10
21915
20
23675
10
22035
20
23675
10
22035
20
24875
0
LWPOLYLINE
5
24C
330
10E
100
AcDbEntity
8
ST-RB-UBAR
100
AcDbPolyline
90
4
70
0
43
0
10
22715
20
24875
10
22715
20
23675
10
22835
20
23675
10
22835
20
24875
0
LWPOLYLINE
5
24D
330
10E
100
AcDbEntity
8
ST-RB-UBAR
100
AcDbPolyline
90
4
70
0
43
0
10
23515
20
24875
10
23515
20
23675
10
23635
20
23675
10
23635
20
24875
0
LWPOLYLINE
5
24E
330
10E
100
AcDbEntity
8
ST-RB-UBAR
100
AcDbPolyline
90
4
70
0
43
0
10
24315
20
24875
10
24315
20
23675
10
24435
20
23675
10
24435
20
24875
0
LWPOLYLINE
5
24F
330
10E
100
AcDbEntity
8
ST-RB-UBAR
100
AcDbPolyline
90
4
70
0
43
0
10
25115
20
24875
10
25115
20
23675
10
25235
20
23675
10
25235
20
24875
0
LWPOLYLINE
5
250
330
10E
100
AcDbEntity
8
ST-RB-UBAR
100
AcDbPolyline
90
4
70
0
43
0
10
25915
20
24875
10
25915
20
23675
10
26035
20
23675
10
26035
20
24875
0
LWPOLYLINE
5
251
330
10E
100
AcDbEntity
8
ST-RB-UBAR
100
AcDbPolyline
90
4
70
0
43
0
10
26715
20
24875
10
26715
20
23675
10
26835
20
23675
10
26835
20
24875
0
LWPOLYLINE
5
252
330
10E
100
AcDbEntity
8
ST-RB-UBAR
100
AcDbPolyline
90
4
70
0
43
0
10
27515
20
24875
10
27515
20
23675
10
27635
20
23675
10
27635
20
24875
0
LWPOLYLINE
5
253
330
10E
100
AcDbEntity
8
ST-RB-UBAR
100
AcDbPolyline
90
4
70
0
43
0
10
28315
20
24875
10
28315
20
23675
10
28435
20
23675
10
28435
20
24875
0
LWPOLYLINE
5
254
330
10E
100
AcDbEntity
8
ST-RB-UBAR
100
AcDbPolyline
90
4
70
0
43
0
10
29115
20
24875
10
29115
20
23675
10
29235
20
23675
10
29235
20
24875
0
LWPOLYLINE
5
255
330
10E
100
AcDbEntity
8
ST-RB-UBAR
100
AcDbPolyline
90
4
70
0
43
0
10
29915
20
24875
10
29915
20
23675
10
30035
20
23675
10
30035
20
24875
0
LWPOLYLINE
5
256
330
10E
100
AcDbEntity
8
ST-RB-UBAR
100
AcDbPolyline
90
4
70
0
43
0
10
30715
20
24875
10
30715
20
23675
10
30835
20
23675
10
30835
20
24875
0
LWPOLYLINE
5
257
330
10E
100
AcDbEntity
8
ST-RB-UBAR
100
AcDbPolyline
90
4
70
0
43
0
10
31515
20
24875
10
31515
20
23675
10
31635
20
23675
10
31635
20
24875
0
LWPOLYLINE
5
258
330
10E
100
AcDbEntity
8
ST-RB-UBAR
100
AcDbPolyline
90
4
70
0
43
0
10
32315
20
24875
10
32315
20
23675
10
32435
20
23675
10
32435
20
24875
0
LWPOLYLINE
5
259
330
10E
100
AcDbEntity
8
ST-RB-UBAR
100
AcDbPolyline
90
4
70
0
43
0
10
33115
20
24875
10
33115
20
23675
10
33235
20
23675
10
33235
20
24875
0
LWPOLYLINE
5
25A
330
10E
100
AcDbEntity
8
ST-RB-UBAR
100
AcDbPolyline
90
4
70
0
43
0
10
33915
20
24875
10
33915
20
23675
10
34035
20
23675
10
34035
20
24875
0
LWPOLYLINE
5
25B
330
10E
100
AcDbEntity
8
ST-RB-UBAR
100
AcDbPolyline
90
4
70
0
43
0
10
34715
20
24875
10
34715
20
23675
10
34835
20
23675
10
34835
20
24875
0
LWPOLYLINE
5
25C
330
10E
100
AcDbEntity
8
ST-RB-UBAR
100
AcDbPolyline
90
4
70
0
43
0
10
35515
20
24875
10
35515
20
23675
10
35635
20
23675
10
35635
20
24875
0
LWPOLYLINE
5
25D
330
10E
100
AcDbEntity
8
ST-RB-UBAR
100
AcDbPolyline
90
4
70
0
43
0
10
36315
20
24875
10
36315
20
23675
10
36435
20
23675
10
36435
20
24875
0
LWPOLYLINE
5
25E
330
10E
100
AcDbEntity
8
ST-RB-UBAR
100
AcDbPolyline
90
4
70
0
43
0
10
37115
20
24875
10
37115
20
23675
10
37235
20
23675
10
37235
20
24875
0
LWPOLYLINE
5
25F
330
10E
100
AcDbEntity
8
ST-RB-UBAR
100
AcDbPolyline
90
4
70
0
43
0
10
37915
20
24875
10
37915
20
23675
10
38035
20
23675
10
38035
20
24875
0
LWPOLYLINE
5
260
330
10E
100
AcDbEntity
8
ST-RB-UBAR
100
AcDbPolyline
90
4
70
0
43
0
10
38715
20
24875
10
38715
20
23675
10
38835
20
23675
10
38835
20
24875
0
LWPOLYLINE
5
261
330
10E
100
AcDbEntity
8
ST-RB-UBAR
100
AcDbPolyline
90
4
70
0
43
0
10
39515
20
24875
10
39515
20
23675
10
39635
20
23675
10
39635
20
24875
0
LWPOLYLINE
5
262
330
10E
100
AcDbEntity
8
ST-RB-UBAR
100
AcDbPolyline
90
4
70
0
43
0
10
40315
20
24875
10
40315
20
23675
10
40435
20
23675
10
40435
20
24875
0
LWPOLYLINE
5
263
330
10E
100
AcDbEntity
8
ST-RB-UBAR
100
AcDbPolyline
90
4
70
0
43
0
10
41115
20
24875
10
41115
20
23675
10
41235
20
23675
10
41235
20
24875
0
LWPOLYLINE
5
264
330
10E
100
AcDbEntity
8
ST-RB-UBAR
100
AcDbPolyline
90
4
70
0
43
0
10
41915
20
24875
10
41915
20
23675
10
42035
20
23675
10
42035
20
24875
0
LWPOLYLINE
5
265
330
10E
100
AcDbEntity
8
ST-RB-UBAR
100
AcDbPolyline
90
4
70
0
43
0
10
42715
20
24875
10
42715
20
23675
10
42835
20
23675
10
42835
20
24875
0
LWPOLYLINE
5
266
330
10E
100
AcDbEntity
8
ST-RB-UBAR
100
AcDbPolyline
90
4
70
0
43
0
10
43515
20
24875
10
43515
20
23675
10
43635
20
23675
10
43635
20
24875
0
LWPOLYLINE
5
267
330
10E
100
AcDbEntity
8
ST-RB-UBAR
100
AcDbPolyline
90
4
70
0
43
0
10
44315
20
24875
10
44315
20
23675
10
44435
20
23675
10
44435
20
24875
0
LWPOLYLINE
5
268
330
10E
100
AcDbEntity
8
ST-RB-UBAR
100
AcDbPolyline
90
4
70
0
43
0
10
45115
20
24875
10
45115
20
23675
10
45235
20
23675
10
45235
20
24875
0
LWPOLYLINE
5
269
330
10E
100
AcDbEntity
8
ST-RB-UBAR
100
AcDbPolyline
90
4
70
0
43
0
10
45915
20
24875
10
45915
20
23675
10
46035
20
23675
10
46035
20
24875
0
LWPOLYLINE
5
26A
330
10E
100
AcDbEntity
8
ST-RB-UBAR
100
AcDbPolyline
90
4
70
0
43
0
10
46715
20
24875
10
46715
20
23675
10
46835
20
23675
10
46835
20
24875
0
LWPOLYLINE
5
26B
330
10E
100
AcDbEntity
8
ST-RB-UBAR
100
AcDbPolyline
90
4
70
0
43
0
10
47515
20
24875
10
47515
20
23675
10
47635
20
23675
10
47635
20
24875
0
LWPOLYLINE
5
26C
330
10E
100
AcDbEntity
8
ST-RB-UBAR
100
AcDbPolyline
90
4
70
0
43
0
10
48315
20
24875
10
48315
20
23675
10
48435
20
23675
10
48435
20
24875
0
LWPOLYLINE
5
26D
330
10E
100
AcDbEntity
8
ST-RB-UBAR
100
AcDbPolyline
90
4
70
0
43
0
10
49115
20
24875
10
49115
20
23675
10
49235
20
23675
10
49235
20
24875
0
TEXT
5
26E
330
10E
100
AcDbEntity
8
ST-RB-TEXT
100
AcDbText
10
33300
20
25350
30
0
40
210
1
163T12@200-U08-(L=2600) U-BARS LEGS 1200
7
STANDARD
72
1
11
33300
21
25350
31
0
100
AcDbText
73
0
0
CIRCLE
5
26F
330
10E
100
AcDbEntity
8
ST-CALLOUT
100
AcDbCircle
10
33300
20
23050
30
0
40
300
0
TEXT
5
270
330
10E
100
AcDbEntity
8
ST-CALLOUT
100
AcDbText
10
33300
20
23050
30
0
40
160
1
E1
7
STANDARD
72
1
11
33300
21
23050
31
0
100
AcDbText
73
2
0
LINE
5
271
330
10E
100
AcDbEntity
8
ST-CALLOUT
100
AcDbLine
10
33300
20
23350
30
0
11
33300
21
23650
31
0
0
LINE
5
272
330
10E
100
AcDbEntity
8
ST-RB
100
AcDbLine
10
49465
20
23675
30
0
11
49465
21
35675
31
0
0
TEXT
5
273
330
10E
100
AcDbEntity
8
ST-RB-TEXT
100
AcDbText
10
49410
20
29675
30
0
40
210
1
4T12-T&B-U02-(L=12000)
50
90
7
ST-REBAR
72
1
11
49410
21
29675
31
0
100
AcDbText
73
0
0
TEXT
5
274
330
10E
100
AcDbEntity
8
ST-RB-TEXT
100
AcDbText
10
49685
20
29675
30
0
40
170
1
12000
50
90
7
ST-REBAR
72
1
11
49685
21
29675
31
0
100
AcDbText
73
0
0
LINE
5
275
330
10E
100
AcDbEntity
8
ST-RB
100
AcDbLine
10
49465
20
35675
30
0
11
49465
21
44625
31
0
0
LINE
5
276
330
10E
100
AcDbEntity
8
ST-RB
100
AcDbLine
10
49315
20
35125
30
0
11
49315
21
35675
31
0
0
TEXT
5
277
330
10E
100
AcDbEntity
8
ST-RB-TEXT
100
AcDbText
10
49410
20
40150
30
0
40
210
1
4T12-T&B-U04-(L=9500)
50
90
7
ST-REBAR
72
1
11
49410
21
40150
31
0
100
AcDbText
73
0
0
TEXT
5
278
330
10E
100
AcDbEntity
8
ST-RB-TEXT
100
AcDbText
10
49685
20
40150
30
0
40
170
1
9500
50
90
7
ST-REBAR
72
1
11
49685
21
40150
31
0
100
AcDbText
73
0
0
LINE
5
279
330
10E
100
AcDbEntity
8
ST-RB
100
AcDbLine
10
49525
20
23675
30
0
11
49405
21
23675
31
0
0
LINE
5
27A
330
10E
100
AcDbEntity
8
ST-RB
100
AcDbLine
10
49525
20
44625
30
0
11
49405
21
44625
31
0
0
LWPOLYLINE
5
27B
330
10E
100
AcDbEntity
8
ST-RB-UBAR
100
AcDbPolyline
90
4
70
0
43
0
10
48325
20
23715
10
49525
20
23715
10
49525
20
23835
10
48325
20
23835
0
LWPOLYLINE
5
27C
330
10E
100
AcDbEntity
8
ST-RB-UBAR
100
AcDbPolyline
90
4
70
0
43
0
10
48325
20
24515
10
49525
20
24515
10
49525
20
24635
10
48325
20
24635
0
LWPOLYLINE
5
27D
330
10E
100
AcDbEntity
8
ST-RB-UBAR
100
AcDbPolyline
90
4
70
0
43
0
10
48325
20
25315
10
49525
20
25315
10
49525
20
25435
10
48325
20
25435
0
LWPOLYLINE
5
27E
330
10E
100
AcDbEntity
8
ST-RB-UBAR
100
AcDbPolyline
90
4
70
0
43
0
10
48325
20
26115
10
49525
20
26115
10
49525
20
26235
10
48325
20
26235
0
LWPOLYLINE
5
27F
330
10E
100
AcDbEntity
8
ST-RB-UBAR
100
AcDbPolyline
90
4
70
0
43
0
10
48325
20
26915
10
49525
20
26915
10
49525
20
27035
10
48325
20
27035
0
LWPOLYLINE
5
280
330
10E
100
AcDbEntity
8
ST-RB-UBAR
100
AcDbPolyline
90
4
70
0
43
0
10
48325
20
27715
10
49525
20
27715
10
49525
20
27835
10
48325
20
27835
0
LWPOLYLINE
5
281
330
10E
100
AcDbEntity
8
ST-RB-UBAR
100
AcDbPolyline
90
4
70
0
43
0
10
48325
20
28515
10
49525
20
28515
10
49525
20
28635
10
48325
20
28635
0
LWPOLYLINE
5
282
330
10E
100
AcDbEntity
8
ST-RB-UBAR
100
AcDbPolyline
90
4
70
0
43
0
10
48325
20
29315
10
49525
20
29315
10
49525
20
29435
10
48325
20
29435
0
LWPOLYLINE
5
283
330
10E
100
AcDbEntity
8
ST-RB-UBAR
100
AcDbPolyline
90
4
70
0
43
0
10
48325
20
30115
10
49525
20
30115
10
49525
20
30235
10
48325
20
30235
0
LWPOLYLINE
5
284
330
10E
100
AcDbEntity
8
ST-RB-UBAR
100
AcDbPolyline
90
4
70
0
43
0
10
48325
20
30915
10
49525
20
30915
10
49525
20
31035
10
48325
20
31035
0
LWPOLYLINE
5
285
330
10E
100
AcDbEntity
8
ST-RB-UBAR
100
AcDbPolyline
90
4
70
0
43
0
10
48325
20
31715
10
49525
20
31715
10
49525
20
31835
10
48325
20
31835
0
LWPOLYLINE
5
286
330
10E
100
AcDbEntity
8
ST-RB-UBAR
100
AcDbPolyline
90
4
70
0
43
0
10
48325
20
32515
10
49525
20
32515
10
49525
20
32635
10
48325
20
32635
0
LWPOLYLINE
5
287
330
10E
100
AcDbEntity
8
ST-RB-UBAR
100
AcDbPolyline
90
4
70
0
43
0
10
48325
20
33315
10
49525
20
33315
10
49525
20
33435
10
48325
20
33435
0
LWPOLYLINE
5
288
330
10E
100
AcDbEntity
8
ST-RB-UBAR
100
AcDbPolyline
90
4
70
0
43
0
10
48325
20
34115
10
49525
20
34115
10
49525
20
34235
10
48325
20
34235
0
LWPOLYLINE
5
289
330
10E
100
AcDbEntity
8
ST-RB-UBAR
100
AcDbPolyline
90
4
70
0
43
0
10
48325
20
34915
10
49525
20
34915
10
49525
20
35035
10
48325
20
35035
0
LWPOLYLINE
5
28A
330
10E
100
AcDbEntity
8
ST-RB-UBAR
100
AcDbPolyline
90
4
70
0
43
0
10
48325
20
35715
10
49525
20
35715
10
49525
20
35835
10
48325
20
35835
0
LWPOLYLINE
5
28B
330
10E
100
AcDbEntity
8
ST-RB-UBAR
100
AcDbPolyline
90
4
70
0
43
0
10
48325
20
36515
10
49525
20
36515
10
49525
20
36635
10
48325
20
36635
0
LWPOLYLINE
5
28C
330
10E
100
AcDbEntity
8
ST-RB-UBAR
100
AcDbPolyline
90
4
70
0
43
0
10
48325
20
37315
10
49525
20
37315
10
49525
20
37435
10
48325
20
37435
0
LWPOLYLINE
5
28D
330
10E
100
AcDbEntity
8
ST-RB-UBAR
100
AcDbPolyline
90
4
70
0
43
0
10
48325
20
38115
10
49525
20
38115
10
49525
20
38235
10
48325
20
38235
0
LWPOLYLINE
5
28E
330
10E
100
AcDbEntity
8
ST-RB-UBAR
100
AcDbPolyline
90
4
70
0
43
0
10
48325
20
38915
10
49525
20
38915
10
49525
20
39035
10
48325
20
39035
0
LWPOLYLINE
5
28F
330
10E
100
AcDbEntity
8
ST-RB-UBAR
100
AcDbPolyline
90
4
70
0
43
0
10
48325
20
39715
10
49525
20
39715
10
49525
20
39835
10
48325
20
39835
0
LWPOLYLINE
5
290
330
10E
100
AcDbEntity
8
ST-RB-UBAR
100
AcDbPolyline
90
4
70
0
43
0
10
48325
20
40515
10
49525
20
40515
10
49525
20
40635
10
48325
20
40635
0
LWPOLYLINE
5
291
330
10E
100
AcDbEntity
8
ST-RB-UBAR
100
AcDbPolyline
90
4
70
0
43
0
10
48325
20
41315
10
49525
20
41315
10
49525
20
41435
10
48325
20
41435
0
LWPOLYLINE
5
292
330
10E
100
AcDbEntity
8
ST-RB-UBAR
100
AcDbPolyline
90
4
70
0
43
0
10
48325
20
42115
10
49525
20
42115
10
49525
20
42235
10
48325
20
42235
0
LWPOLYLINE
5
293
330
10E
100
AcDbEntity
8
ST-RB-UBAR
100
AcDbPolyline
90
4
70
0
43
0
10
48325
20
42915
10
49525
20
42915
10
49525
20
43035
10
48325
20
43035
0
LWPOLYLINE
5
294
330
10E
100
AcDbEntity
8
ST-RB-UBAR
100
AcDbPolyline
90
4
70
0
43
0
10
48325
20
43715
10
49525
20
43715
10
49525
20
43835
10
48325
20
43835
0
LWPOLYLINE
5
295
330
10E
100
AcDbEntity
8
ST-RB-UBAR
100
AcDbPolyline
90
4
70
0
43
0
10
48325
20
44515
10
49525
20
44515
10
49525
20
44635
10
48325
20
44635
0
TEXT
5
296
330
10E
100
AcDbEntity
8
ST-RB-TEXT
100
AcDbText
10
47850
20
34150
30
0
40
210
1
105T12@200-U08-(L=2600) U-BARS LEGS 1200
50
90
7
STANDARD
72
1
11
47850
21
34150
31
0
100
AcDbText
73
0
0
CIRCLE
5
297
330
10E
100
AcDbEntity
8
ST-CALLOUT
100
AcDbCircle
10
50150
20
34150
30
0
40
300
0
TEXT
5
298
330
10E
100
AcDbEntity
8
ST-CALLOUT
100
AcDbText
10
50150
20
34150
30
0
40
160
1
E2
7
STANDARD
72
1
11
50150
21
34150
31
0
100
AcDbText
73
2
0
LINE
5
299
330
10E
100
AcDbEntity
8
ST-CALLOUT
100
AcDbLine
10
49850
20
34150
30
0
11
49550
21
34150
31
0
0
LINE
5
29A
330
10E
100
AcDbEntity
8
ST-RB
100
AcDbLine
10
49525
20
44565
30
0
11
44575
21
44565
31
0
0
TEXT
5
29B
330
10E
100
AcDbEntity
8
ST-RB-TEXT
100
AcDbText
10
47050
20
44620
30
0
40
210
1
4T12-T&B-U05-(L=4950)
50
360
7
ST-REBAR
72
1
11
47050
21
44620
31
0
100
AcDbText
73
0
0
TEXT
5
29C
330
10E
100
AcDbEntity
8
ST-RB-TEXT
100
AcDbText
10
47050
20
44345
30
0
40
170
1
4950
50
360
7
ST-REBAR
72
1
11
47050
21
44345
31
0
100
AcDbText
73
0
0
LINE
5
29D
330
10E
100
AcDbEntity
8
ST-RB
100
AcDbLine
10
49525
20
44625
30
0
11
49525
21
44505
31
0
0
LINE
5
29E
330
10E
100
AcDbEntity
8
ST-RB
100
AcDbLine
10
44575
20
44625
30
0
11
44575
21
44505
31
0
0
LWPOLYLINE
5
29F
330
10E
100
AcDbEntity
8
ST-RB-UBAR
100
AcDbPolyline
90
4
70
0
43
0
10
49485
20
43425
10
49485
20
44625
10
49365
20
44625
10
49365
20
43425
0
LWPOLYLINE
5
2A0
330
10E
100
AcDbEntity
8
ST-RB-UBAR
100
AcDbPolyline
90
4
70
0
43
0
10
48685
20
43425
10
48685
20
44625
10
48565
20
44625
10
48565
20
43425
0
LWPOLYLINE
5
2A1
330
10E
100
AcDbEntity
8
ST-RB-UBAR
100
AcDbPolyline
90
4
70
0
43
0
10
47885
20
43425
10
47885
20
44625
10
47765
20
44625
10
47765
20
43425
0
LWPOLYLINE
5
2A2
330
10E
100
AcDbEntity
8
ST-RB-UBAR
100
AcDbPolyline
90
4
70
0
43
0
10
47085
20
43425
10
47085
20
44625
10
46965
20
44625
10
46965
20
43425
0
LWPOLYLINE
5
2A3
330
10E
100
AcDbEntity
8
ST-RB-UBAR
100
AcDbPolyline
90
4
70
0
43
0
10
46285
20
43425
10
46285
20
44625
10
46165
20
44625
10
46165
20
43425
0
LWPOLYLINE
5
2A4
330
10E
100
AcDbEntity
8
ST-RB-UBAR
100
AcDbPolyline
90
4
70
0
43
0
10
45485
20
43425
10
45485
20
44625
10
45365
20
44625
10
45365
20
43425
0
LWPOLYLINE
5
2A5
330
10E
100
AcDbEntity
8
ST-RB-UBAR
100
AcDbPolyline
90
4
70
0
43
0
10
44685
20
43425
10
44685
20
44625
10
44565
20
44625
10
44565
20
43425
0
TEXT
5
2A6
330
10E
100
AcDbEntity
8
ST-RB-TEXT
100
AcDbText
10
47050
20
42950
30
0
40
210
1
25T12@200-U08-(L=2600) U-BARS LEGS 1200
50
360
7
STANDARD
72
1
11
47050
21
42950
31
0
100
AcDbText
73
0
0
CIRCLE
5
2A7
330
10E
100
AcDbEntity
8
ST-CALLOUT
100
AcDbCircle
10
47050
20
45250
30
0
40
300
0
TEXT
5
2A8
330
10E
100
AcDbEntity
8
ST-CALLOUT
100
AcDbText
10
47050
20
45250
30
0
40
160
1
E3
7
STANDARD
72
1
11
47050
21
45250
31
0
100
AcDbText
73
2
0
LINE
5
2A9
330
10E
100
AcDbEntity
8
ST-CALLOUT
100
AcDbLine
10
47050
20
44950
30
0
11
47050
21
44650
31
0
0
LINE
5
2AA
330
10E
100
AcDbEntity
8
ST-RB
100
AcDbLine
10
44465
20
44675
30
0
11
44465
21
49625
31
0
0
TEXT
5
2AB
330
10E
100
AcDbEntity
8
ST-RB-TEXT
100
AcDbText
10
44410
20
47150
30
0
40
210
1
4T12-T&B-U05-(L=4950)
50
90
7
ST-REBAR
72
1
11
44410
21
47150
31
0
100
AcDbText
73
0
0
TEXT
5
2AC
330
10E
100
AcDbEntity
8
ST-RB-TEXT
100
AcDbText
10
44685
20
47150
30
0
40
170
1
4950
50
90
7
ST-REBAR
72
1
11
44685
21
47150
31
0
100
AcDbText
73
0
0
LINE
5
2AD
330
10E
100
AcDbEntity
8
ST-RB
100
AcDbLine
10
44525
20
44675
30
0
11
44405
21
44675
31
0
0
LINE
5
2AE
330
10E
100
AcDbEntity
8
ST-RB
100
AcDbLine
10
44525
20
49625
30
0
11
44405
21
49625
31
0
0
LWPOLYLINE
5
2AF
330
10E
100
AcDbEntity
8
ST-RB-UBAR
100
AcDbPolyline
90
4
70
0
43
0
10
43325
20
44715
10
44525
20
44715
10
44525
20
44835
10
43325
20
44835
0
LWPOLYLINE
5
2B0
330
10E
100
AcDbEntity
8
ST-RB-UBAR
100
AcDbPolyline
90
4
70
0
43
0
10
43325
20
45515
10
44525
20
45515
10
44525
20
45635
10
43325
20
45635
0
LWPOLYLINE
5
2B1
330
10E
100
AcDbEntity
8
ST-RB-UBAR
100
AcDbPolyline
90
4
70
0
43
0
10
43325
20
46315
10
44525
20
46315
10
44525
20
46435
10
43325
20
46435
0
LWPOLYLINE
5
2B2
330
10E
100
AcDbEntity
8
ST-RB-UBAR
100
AcDbPolyline
90
4
70
0
43
0
10
43325
20
47115
10
44525
20
47115
10
44525
20
47235
10
43325
20
47235
0
LWPOLYLINE
5
2B3
330
10E
100
AcDbEntity
8
ST-RB-UBAR
100
AcDbPolyline
90
4
70
0
43
0
10
43325
20
47915
10
44525
20
47915
10
44525
20
48035
10
43325
20
48035
0
LWPOLYLINE
5
2B4
330
10E
100
AcDbEntity
8
ST-RB-UBAR
100
AcDbPolyline
90
4
70
0
43
0
10
43325
20
48715
10
44525
20
48715
10
44525
20
48835
10
43325
20
48835
0
LWPOLYLINE
5
2B5
330
10E
100
AcDbEntity
8
ST-RB-UBAR
100
AcDbPolyline
90
4
70
0
43
0
10
43325
20
49515
10
44525
20
49515
10
44525
20
49635
10
43325
20
49635
0
TEXT
5
2B6
330
10E
100
AcDbEntity
8
ST-RB-TEXT
100
AcDbText
10
42850
20
47150
30
0
40
210
1
25T12@200-U08-(L=2600) U-BARS LEGS 1200
50
90
7
STANDARD
72
1
11
42850
21
47150
31
0
100
AcDbText
73
0
0
CIRCLE
5
2B7
330
10E
100
AcDbEntity
8
ST-CALLOUT
100
AcDbCircle
10
45150
20
47150
30
0
40
300
0
TEXT
5
2B8
330
10E
100
AcDbEntity
8
ST-CALLOUT
100
AcDbText
10
45150
20
47150
30
0
40
160
1
E4
7
STANDARD
72
1
11
45150
21
47150
31
0
100
AcDbText
73
2
0
LINE
5
2B9
330
10E
100
AcDbEntity
8
ST-CALLOUT
100
AcDbLine
10
44850
20
47150
30
0
11
44550
21
47150
31
0
0
LINE
5
2BA
330
10E
100
AcDbEntity
8
ST-RB
100
AcDbLine
10
44525
20
49565
30
0
11
32525
21
49565
31
0
0
TEXT
5
2BB
330
10E
100
AcDbEntity
8
ST-RB-TEXT
100
AcDbText
10
38525
20
49620
30
0
40
210
1
4T12-T&B-U02-(L=12000)
50
360
7
ST-REBAR
72
1
11
38525
21
49620
31
0
100
AcDbText
73
0
0
TEXT
5
2BC
330
10E
100
AcDbEntity
8
ST-RB-TEXT
100
AcDbText
10
38525
20
49345
30
0
40
170
1
12000
50
360
7
ST-REBAR
72
1
11
38525
21
49345
31
0
100
AcDbText
73
0
0
LINE
5
2BD
330
10E
100
AcDbEntity
8
ST-RB
100
AcDbLine
10
32525
20
49565
30
0
11
21075
21
49565
31
0
0
LINE
5
2BE
330
10E
100
AcDbEntity
8
ST-RB
100
AcDbLine
10
33075
20
49415
30
0
11
32525
21
49415
31
0
0
TEXT
5
2BF
330
10E
100
AcDbEntity
8
ST-RB-TEXT
100
AcDbText
10
26800
20
49620
30
0
40
210
1
4T12-T&B-U06-(L=12000)
50
360
7
ST-REBAR
72
1
11
26800
21
49620
31
0
100
AcDbText
73
0
0
TEXT
5
2C0
330
10E
100
AcDbEntity
8
ST-RB-TEXT
100
AcDbText
10
26800
20
49345
30
0
40
170
1
12000
50
360
7
ST-REBAR
72
1
11
26800
21
49345
31
0
100
AcDbText
73
0
0
LINE
5
2C1
330
10E
100
AcDbEntity
8
ST-RB
100
AcDbLine
10
21075
20
49565
30
0
11
17075
21
49565
31
0
0
LINE
5
2C2
330
10E
100
AcDbEntity
8
ST-RB
100
AcDbLine
10
21625
20
49415
30
0
11
21075
21
49415
31
0
0
TEXT
5
2C3
330
10E
100
AcDbEntity
8
ST-RB-TEXT
100
AcDbText
10
19075
20
49620
30
0
40
210
1
4T12-T&B-U06-(L=4550)
50
360
7
ST-REBAR
72
1
11
19075
21
49620
31
0
100
AcDbText
73
0
0
TEXT
5
2C4
330
10E
100
AcDbEntity
8
ST-RB-TEXT
100
AcDbText
10
19075
20
49345
30
0
40
170
1
4550
50
360
7
ST-REBAR
72
1
11
19075
21
49345
31
0
100
AcDbText
73
0
0
LINE
5
2C5
330
10E
100
AcDbEntity
8
ST-RB
100
AcDbLine
10
44525
20
49625
30
0
11
44525
21
49505
31
0
0
LINE
5
2C6
330
10E
100
AcDbEntity
8
ST-RB
100
AcDbLine
10
17075
20
49625
30
0
11
17075
21
49505
31
0
0
LWPOLYLINE
5
2C7
330
10E
100
AcDbEntity
8
ST-RB-UBAR
100
AcDbPolyline
90
4
70
0
43
0
10
44485
20
48425
10
44485
20
49625
10
44365
20
49625
10
44365
20
48425
0
LWPOLYLINE
5
2C8
330
10E
100
AcDbEntity
8
ST-RB-UBAR
100
AcDbPolyline
90
4
70
0
43
0
10
43685
20
48425
10
43685
20
49625
10
43565
20
49625
10
43565
20
48425
0
LWPOLYLINE
5
2C9
330
10E
100
AcDbEntity
8
ST-RB-UBAR
100
AcDbPolyline
90
4
70
0
43
0
10
42885
20
48425
10
42885
20
49625
10
42765
20
49625
10
42765
20
48425
0
LWPOLYLINE
5
2CA
330
10E
100
AcDbEntity
8
ST-RB-UBAR
100
AcDbPolyline
90
4
70
0
43
0
10
42085
20
48425
10
42085
20
49625
10
41965
20
49625
10
41965
20
48425
0
LWPOLYLINE
5
2CB
330
10E
100
AcDbEntity
8
ST-RB-UBAR
100
AcDbPolyline
90
4
70
0
43
0
10
41285
20
48425
10
41285
20
49625
10
41165
20
49625
10
41165
20
48425
0
LWPOLYLINE
5
2CC
330
10E
100
AcDbEntity
8
ST-RB-UBAR
100
AcDbPolyline
90
4
70
0
43
0
10
40485
20
48425
10
40485
20
49625
10
40365
20
49625
10
40365
20
48425
0
LWPOLYLINE
5
2CD
330
10E
100
AcDbEntity
8
ST-RB-UBAR
100
AcDbPolyline
90
4
70
0
43
0
10
39685
20
48425
10
39685
20
49625
10
39565
20
49625
10
39565
20
48425
0
LWPOLYLINE
5
2CE
330
10E
100
AcDbEntity
8
ST-RB-UBAR
100
AcDbPolyline
90
4
70
0
43
0
10
38885
20
48425
10
38885
20
49625
10
38765
20
49625
10
38765
20
48425
0
LWPOLYLINE
5
2CF
330
10E
100
AcDbEntity
8
ST-RB-UBAR
100
AcDbPolyline
90
4
70
0
43
0
10
38085
20
48425
10
38085
20
49625
10
37965
20
49625
10
37965
20
48425
0
LWPOLYLINE
5
2D0
330
10E
100
AcDbEntity
8
ST-RB-UBAR
100
AcDbPolyline
90
4
70
0
43
0
10
37285
20
48425
10
37285
20
49625
10
37165
20
49625
10
37165
20
48425
0
LWPOLYLINE
5
2D1
330
10E
100
AcDbEntity
8
ST-RB-UBAR
100
AcDbPolyline
90
4
70
0
43
0
10
36485
20
48425
10
36485
20
49625
10
36365
20
49625
10
36365
20
48425
0
LWPOLYLINE
5
2D2
330
10E
100
AcDbEntity
8
ST-RB-UBAR
100
AcDbPolyline
90
4
70
0
43
0
10
35685
20
48425
10
35685
20
49625
10
35565
20
49625
10
35565
20
48425
0
LWPOLYLINE
5
2D3
330
10E
100
AcDbEntity
8
ST-RB-UBAR
100
AcDbPolyline
90
4
70
0
43
0
10
34885
20
48425
10
34885
20
49625
10
34765
20
49625
10
34765
20
48425
0
LWPOLYLINE
5
2D4
330
10E
100
AcDbEntity
8
ST-RB-UBAR
100
AcDbPolyline
90
4
70
0
43
0
10
34085
20
48425
10
34085
20
49625
10
33965
20
49625
10
33965
20
48425
0
LWPOLYLINE
5
2D5
330
10E
100
AcDbEntity
8
ST-RB-UBAR
100
AcDbPolyline
90
4
70
0
43
0
10
33285
20
48425
10
33285
20
49625
10
33165
20
49625
10
33165
20
48425
0
LWPOLYLINE
5
2D6
330
10E
100
AcDbEntity
8
ST-RB-UBAR
100
AcDbPolyline
90
4
70
0
43
0
10
32485
20
48425
10
32485
20
49625
10
32365
20
49625
10
32365
20
48425
0
LWPOLYLINE
5
2D7
330
10E
100
AcDbEntity
8
ST-RB-UBAR
100
AcDbPolyline
90
4
70
0
43
0
10
31685
20
48425
10
31685
20
49625
10
31565
20
49625
10
31565
20
48425
0
LWPOLYLINE
5
2D8
330
10E
100
AcDbEntity
8
ST-RB-UBAR
100
AcDbPolyline
90
4
70
0
43
0
10
30885
20
48425
10
30885
20
49625
10
30765
20
49625
10
30765
20
48425
0
LWPOLYLINE
5
2D9
330
10E
100
AcDbEntity
8
ST-RB-UBAR
100
AcDbPolyline
90
4
70
0
43
0
10
30085
20
48425
10
30085
20
49625
10
29965
20
49625
10
29965
20
48425
0
LWPOLYLINE
5
2DA
330
10E
100
AcDbEntity
8
ST-RB-UBAR
100
AcDbPolyline
90
4
70
0
43
0
10
29285
20
48425
10
29285
20
49625
10
29165
20
49625
10
29165
20
48425
0
LWPOLYLINE
5
2DB
330
10E
100
AcDbEntity
8
ST-RB-UBAR
100
AcDbPolyline
90
4
70
0
43
0
10
28485
20
48425
10
28485
20
49625
10
28365
20
49625
10
28365
20
48425
0
LWPOLYLINE
5
2DC
330
10E
100
AcDbEntity
8
ST-RB-UBAR
100
AcDbPolyline
90
4
70
0
43
0
10
27685
20
48425
10
27685
20
49625
10
27565
20
49625
10
27565
20
48425
0
LWPOLYLINE
5
2DD
330
10E
100
AcDbEntity
8
ST-RB-UBAR
100
AcDbPolyline
90
4
70
0
43
0
10
26885
20
48425
10
26885
20
49625
10
26765
20
49625
10
26765
20
48425
0
LWPOLYLINE
5
2DE
330
10E
100
AcDbEntity
8
ST-RB-UBAR
100
AcDbPolyline
90
4
70
0
43
0
10
26085
20
48425
10
26085
20
49625
10
25965
20
49625
10
25965
20
48425
0
LWPOLYLINE
5
2DF
330
10E
100
AcDbEntity
8
ST-RB-UBAR
100
AcDbPolyline
90
4
70
0
43
0
10
25285
20
48425
10
25285
20
49625
10
25165
20
49625
10
25165
20
48425
0
LWPOLYLINE
5
2E0
330
10E
100
AcDbEntity
8
ST-RB-UBAR
100
AcDbPolyline
90
4
70
0
43
0
10
24485
20
48425
10
24485
20
49625
10
24365
20
49625
10
24365
20
48425
0
LWPOLYLINE
5
2E1
330
10E
100
AcDbEntity
8
ST-RB-UBAR
100
AcDbPolyline
90
4
70
0
43
0
10
23685
20
48425
10
23685
20
49625
10
23565
20
49625
10
23565
20
48425
0
LWPOLYLINE
5
2E2
330
10E
100
AcDbEntity
8
ST-RB-UBAR
100
AcDbPolyline
90
4
70
0
43
0
10
22885
20
48425
10
22885
20
49625
10
22765
20
49625
10
22765
20
48425
0
LWPOLYLINE
5
2E3
330
10E
100
AcDbEntity
8
ST-RB-UBAR
100
AcDbPolyline
90
4
70
0
43
0
10
22085
20
48425
10
22085
20
49625
10
21965
20
49625
10
21965
20
48425
0
LWPOLYLINE
5
2E4
330
10E
100
AcDbEntity
8
ST-RB-UBAR
100
AcDbPolyline
90
4
70
0
43
0
10
21285
20
48425
10
21285
20
49625
10
21165
20
49625
10
21165
20
48425
0
LWPOLYLINE
5
2E5
330
10E
100
AcDbEntity
8
ST-RB-UBAR
100
AcDbPolyline
90
4
70
0
43
0
10
20485
20
48425
10
20485
20
49625
10
20365
20
49625
10
20365
20
48425
0
LWPOLYLINE
5
2E6
330
10E
100
AcDbEntity
8
ST-RB-UBAR
100
AcDbPolyline
90
4
70
0
43
0
10
19685
20
48425
10
19685
20
49625
10
19565
20
49625
10
19565
20
48425
0
LWPOLYLINE
5
2E7
330
10E
100
AcDbEntity
8
ST-RB-UBAR
100
AcDbPolyline
90
4
70
0
43
0
10
18885
20
48425
10
18885
20
49625
10
18765
20
49625
10
18765
20
48425
0
LWPOLYLINE
5
2E8
330
10E
100
AcDbEntity
8
ST-RB-UBAR
100
AcDbPolyline
90
4
70
0
43
0
10
18085
20
48425
10
18085
20
49625
10
17965
20
49625
10
17965
20
48425
0
LWPOLYLINE
5
2E9
330
10E
100
AcDbEntity
8
ST-RB-UBAR
100
AcDbPolyline
90
4
70
0
43
0
10
17285
20
48425
10
17285
20
49625
10
17165
20
49625
10
17165
20
48425
0
TEXT
5
2EA
330
10E
100
AcDbEntity
8
ST-RB-TEXT
100
AcDbText
10
30800
20
47950
30
0
40
210
1
138T12@200-U08-(L=2600) U-BARS LEGS 1200
50
360
7
STANDARD
72
1
11
30800
21
47950
31
0
100
AcDbText
73
0
0
CIRCLE
5
2EB
330
10E
100
AcDbEntity
8
ST-CALLOUT
100
AcDbCircle
10
30800
20
50250
30
0
40
300
0
TEXT
5
2EC
330
10E
100
AcDbEntity
8
ST-CALLOUT
100
AcDbText
10
30800
20
50250
30
0
40
160
1
E5
7
STANDARD
72
1
11
30800
21
50250
31
0
100
AcDbText
73
2
0
LINE
5
2ED
330
10E
100
AcDbEntity
8
ST-CALLOUT
100
AcDbLine
10
30800
20
49950
30
0
11
30800
21
49650
31
0
0
LINE
5
2EE
330
10E
100
AcDbEntity
8
ST-RB
100
AcDbLine
10
17135
20
49625
30
0
11
17135
21
37625
31
0
0
TEXT
5
2EF
330
10E
100
AcDbEntity
8
ST-RB-TEXT
100
AcDbText
10
17080
20
43625
30
0
40
210
1
4T12-T&B-U02-(L=12000)
50
90
7
ST-REBAR
72
1
11
17080
21
43625
31
0
100
AcDbText
73
0
0
TEXT
5
2F0
330
10E
100
AcDbEntity
8
ST-RB-TEXT
100
AcDbText
10
17355
20
43625
30
0
40
170
1
12000
50
90
7
ST-REBAR
72
1
11
17355
21
43625
31
0
100
AcDbText
73
0
0
LINE
5
2F1
330
10E
100
AcDbEntity
8
ST-RB
100
AcDbLine
10
17135
20
37625
30
0
11
17135
21
26175
31
0
0
LINE
5
2F2
330
10E
100
AcDbEntity
8
ST-RB
100
AcDbLine
10
17285
20
38175
30
0
11
17285
21
37625
31
0
0
TEXT
5
2F3
330
10E
100
AcDbEntity
8
ST-RB-TEXT
100
AcDbText
10
17080
20
31900
30
0
40
210
1
4T12-T&B-U07-(L=12000)
50
90
7
ST-REBAR
72
1
11
17080
21
31900
31
0
100
AcDbText
73
0
0
TEXT
5
2F4
330
10E
100
AcDbEntity
8
ST-RB-TEXT
100
AcDbText
10
17355
20
31900
30
0
40
170
1
12000
50
90
7
ST-REBAR
72
1
11
17355
21
31900
31
0
100
AcDbText
73
0
0
LINE
5
2F5
330
10E
100
AcDbEntity
8
ST-RB
100
AcDbLine
10
17135
20
26175
30
0
11
17135
21
23675
31
0
0
LINE
5
2F6
330
10E
100
AcDbEntity
8
ST-RB
100
AcDbLine
10
17285
20
26725
30
0
11
17285
21
26175
31
0
0
TEXT
5
2F7
330
10E
100
AcDbEntity
8
ST-RB-TEXT
100
AcDbText
10
17080
20
24925
30
0
40
210
1
4T12-T&B-U07-(L=3050)
50
90
7
ST-REBAR
72
1
11
17080
21
24925
31
0
100
AcDbText
73
0
0
TEXT
5
2F8
330
10E
100
AcDbEntity
8
ST-RB-TEXT
100
AcDbText
10
17355
20
24925
30
0
40
170
1
3050
50
90
7
ST-REBAR
72
1
11
17355
21
24925
31
0
100
AcDbText
73
0
0
LINE
5
2F9
330
10E
100
AcDbEntity
8
ST-RB
100
AcDbLine
10
17075
20
49625
30
0
11
17195
21
49625
31
0
0
LINE
5
2FA
330
10E
100
AcDbEntity
8
ST-RB
100
AcDbLine
10
17075
20
23675
30
0
11
17195
21
23675
31
0
0
LWPOLYLINE
5
2FB
330
10E
100
AcDbEntity
8
ST-RB-UBAR
100
AcDbPolyline
90
4
70
0
43
0
10
18275
20
49585
10
17075
20
49585
10
17075
20
49465
10
18275
20
49465
0
LWPOLYLINE
5
2FC
330
10E
100
AcDbEntity
8
ST-RB-UBAR
100
AcDbPolyline
90
4
70
0
43
0
10
18275
20
48785
10
17075
20
48785
10
17075
20
48665
10
18275
20
48665
0
LWPOLYLINE
5
2FD
330
10E
100
AcDbEntity
8
ST-RB-UBAR
100
AcDbPolyline
90
4
70
0
43
0
10
18275
20
47985
10
17075
20
47985
10
17075
20
47865
10
18275
20
47865
0
LWPOLYLINE
5
2FE
330
10E
100
AcDbEntity
8
ST-RB-UBAR
100
AcDbPolyline
90
4
70
0
43
0
10
18275
20
47185
10
17075
20
47185
10
17075
20
47065
10
18275
20
47065
0
LWPOLYLINE
5
2FF
330
10E
100
AcDbEntity
8
ST-RB-UBAR
100
AcDbPolyline
90
4
70
0
43
0
10
18275
20
46385
10
17075
20
46385
10
17075
20
46265
10
18275
20
46265
0
LWPOLYLINE
5
300
330
10E
100
AcDbEntity
8
ST-RB-UBAR
100
AcDbPolyline
90
4
70
0
43
0
10
18275
20
45585
10
17075
20
45585
10
17075
20
45465
10
18275
20
45465
0
LWPOLYLINE
5
301
330
10E
100
AcDbEntity
8
ST-RB-UBAR
100
AcDbPolyline
90
4
70
0
43
0
10
18275
20
44785
10
17075
20
44785
10
17075
20
44665
10
18275
20
44665
0
LWPOLYLINE
5
302
330
10E
100
AcDbEntity
8
ST-RB-UBAR
100
AcDbPolyline
90
4
70
0
43
0
10
18275
20
43985
10
17075
20
43985
10
17075
20
43865
10
18275
20
43865
0
LWPOLYLINE
5
303
330
10E
100
AcDbEntity
8
ST-RB-UBAR
100
AcDbPolyline
90
4
70
0
43
0
10
18275
20
43185
10
17075
20
43185
10
17075
20
43065
10
18275
20
43065
0
LWPOLYLINE
5
304
330
10E
100
AcDbEntity
8
ST-RB-UBAR
100
AcDbPolyline
90
4
70
0
43
0
10
18275
20
42385
10
17075
20
42385
10
17075
20
42265
10
18275
20
42265
0
LWPOLYLINE
5
305
330
10E
100
AcDbEntity
8
ST-RB-UBAR
100
AcDbPolyline
90
4
70
0
43
0
10
18275
20
41585
10
17075
20
41585
10
17075
20
41465
10
18275
20
41465
0
LWPOLYLINE
5
306
330
10E
100
AcDbEntity
8
ST-RB-UBAR
100
AcDbPolyline
90
4
70
0
43
0
10
18275
20
40785
10
17075
20
40785
10
17075
20
40665
10
18275
20
40665
0
LWPOLYLINE
5
307
330
10E
100
AcDbEntity
8
ST-RB-UBAR
100
AcDbPolyline
90
4
70
0
43
0
10
18275
20
39985
10
17075
20
39985
10
17075
20
39865
10
18275
20
39865
0
LWPOLYLINE
5
308
330
10E
100
AcDbEntity
8
ST-RB-UBAR
100
AcDbPolyline
90
4
70
0
43
0
10
18275
20
39185
10
17075
20
39185
10
17075
20
39065
10
18275
20
39065
0
LWPOLYLINE
5
309
330
10E
100
AcDbEntity
8
ST-RB-UBAR
100
AcDbPolyline
90
4
70
0
43
0
10
18275
20
38385
10
17075
20
38385
10
17075
20
38265
10
18275
20
38265
0
LWPOLYLINE
5
30A
330
10E
100
AcDbEntity
8
ST-RB-UBAR
100
AcDbPolyline
90
4
70
0
43
0
10
18275
20
37585
10
17075
20
37585
10
17075
20
37465
10
18275
20
37465
0
LWPOLYLINE
5
30B
330
10E
100
AcDbEntity
8
ST-RB-UBAR
100
AcDbPolyline
90
4
70
0
43
0
10
18275
20
36785
10
17075
20
36785
10
17075
20
36665
10
18275
20
36665
0
LWPOLYLINE
5
30C
330
10E
100
AcDbEntity
8
ST-RB-UBAR
100
AcDbPolyline
90
4
70
0
43
0
10
18275
20
35985
10
17075
20
35985
10
17075
20
35865
10
18275
20
35865
0
LWPOLYLINE
5
30D
330
10E
100
AcDbEntity
8
ST-RB-UBAR
100
AcDbPolyline
90
4
70
0
43
0
10
18275
20
35185
10
17075
20
35185
10
17075
20
35065
10
18275
20
35065
0
LWPOLYLINE
5
30E
330
10E
100
AcDbEntity
8
ST-RB-UBAR
100
AcDbPolyline
90
4
70
0
43
0
10
18275
20
34385
10
17075
20
34385
10
17075
20
34265
10
18275
20
34265
0
LWPOLYLINE
5
30F
330
10E
100
AcDbEntity
8
ST-RB-UBAR
100
AcDbPolyline
90
4
70
0
43
0
10
18275
20
33585
10
17075
20
33585
10
17075
20
33465
10
18275
20
33465
0
LWPOLYLINE
5
310
330
10E
100
AcDbEntity
8
ST-RB-UBAR
100
AcDbPolyline
90
4
70
0
43
0
10
18275
20
32785
10
17075
20
32785
10
17075
20
32665
10
18275
20
32665
0
LWPOLYLINE
5
311
330
10E
100
AcDbEntity
8
ST-RB-UBAR
100
AcDbPolyline
90
4
70
0
43
0
10
18275
20
31985
10
17075
20
31985
10
17075
20
31865
10
18275
20
31865
0
LWPOLYLINE
5
312
330
10E
100
AcDbEntity
8
ST-RB-UBAR
100
AcDbPolyline
90
4
70
0
43
0
10
18275
20
31185
10
17075
20
31185
10
17075
20
31065
10
18275
20
31065
0
LWPOLYLINE
5
313
330
10E
100
AcDbEntity
8
ST-RB-UBAR
100
AcDbPolyline
90
4
70
0
43
0
10
18275
20
30385
10
17075
20
30385
10
17075
20
30265
10
18275
20
30265
0
LWPOLYLINE
5
314
330
10E
100
AcDbEntity
8
ST-RB-UBAR
100
AcDbPolyline
90
4
70
0
43
0
10
18275
20
29585
10
17075
20
29585
10
17075
20
29465
10
18275
20
29465
0
LWPOLYLINE
5
315
330
10E
100
AcDbEntity
8
ST-RB-UBAR
100
AcDbPolyline
90
4
70
0
43
0
10
18275
20
28785
10
17075
20
28785
10
17075
20
28665
10
18275
20
28665
0
LWPOLYLINE
5
316
330
10E
100
AcDbEntity
8
ST-RB-UBAR
100
AcDbPolyline
90
4
70
0
43
0
10
18275
20
27985
10
17075
20
27985
10
17075
20
27865
10
18275
20
27865
0
LWPOLYLINE
5
317
330
10E
100
AcDbEntity
8
ST-RB-UBAR
100
AcDbPolyline
90
4
70
0
43
0
10
18275
20
27185
10
17075
20
27185
10
17075
20
27065
10
18275
20
27065
0
LWPOLYLINE
5
318
330
10E
100
AcDbEntity
8
ST-RB-UBAR
100
AcDbPolyline
90
4
70
0
43
0
10
18275
20
26385
10
17075
20
26385
10
17075
20
26265
10
18275
20
26265
0
LWPOLYLINE
5
319
330
10E
100
AcDbEntity
8
ST-RB-UBAR
100
AcDbPolyline
90
4
70
0
43
0
10
18275
20
25585
10
17075
20
25585
10
17075
20
25465
10
18275
20
25465
0
LWPOLYLINE
5
31A
330
10E
100
AcDbEntity
8
ST-RB-UBAR
100
AcDbPolyline
90
4
70
0
43
0
10
18275
20
24785
10
17075
20
24785
10
17075
20
24665
10
18275
20
24665
0
LWPOLYLINE
5
31B
330
10E
100
AcDbEntity
8
ST-RB-UBAR
100
AcDbPolyline
90
4
70
0
43
0
10
18275
20
23985
10
17075
20
23985
10
17075
20
23865
10
18275
20
23865
0
TEXT
5
31C
330
10E
100
AcDbEntity
8
ST-RB-TEXT
100
AcDbText
10
18750
20
36650
30
0
40
210
1
130T12@200-U08-(L=2600) U-BARS LEGS 1200
50
90
7
STANDARD
72
1
11
18750
21
36650
31
0
100
AcDbText
73
0
0
CIRCLE
5
31D
330
10E
100
AcDbEntity
8
ST-CALLOUT
100
AcDbCircle
10
16450
20
36650
30
0
40
300
0
TEXT
5
31E
330
10E
100
AcDbEntity
8
ST-CALLOUT
100
AcDbText
10
16450
20
36650
30
0
40
160
1
E6
7
STANDARD
72
1
11
16450
21
36650
31
0
100
AcDbText
73
2
0
LINE
5
31F
330
10E
100
AcDbEntity
8
ST-CALLOUT
100
AcDbLine
10
16750
20
36650
30
0
11
17050
21
36650
31
0
0
CIRCLE
5
320
330
10E
100
AcDbEntity
8
ST-RB-UBAR
6
DASHDOT
100
AcDbCircle
10
22300
20
44650
30
0
40
1000
0
CIRCLE
5
321
330
10E
100
AcDbEntity
8
ST-RB
100
AcDbCircle
10
22300
20
44650
30
0
40
1043
0
LWPOLYLINE
5
322
330
10E
100
AcDbEntity
8
ST-RB-UBAR
100
AcDbPolyline
90
4
70
0
43
0
10
24525
20
44710
10
23325
20
44710
10
23325
20
44590
10
24525
20
44590
0
LWPOLYLINE
5
323
330
10E
100
AcDbEntity
8
ST-RB-UBAR
100
AcDbPolyline
90
4
70
0
43
0
10
24332.670954
20
45556.903409
10
23224.015515
20
45097.68329
10
23269.937527
20
44986.817746
10
24378.592966
20
45446.037865
0
LWPOLYLINE
5
324
330
10E
100
AcDbEntity
8
ST-RB-UBAR
100
AcDbPolyline
90
4
70
0
43
0
10
23830.886181
20
46265.738995
10
22982.358044
20
45417.210858
10
23067.210858
20
45332.358044
10
23915.738995
20
46180.886181
0
LWPOLYLINE
5
325
330
10E
100
AcDbEntity
8
ST-RB-UBAR
100
AcDbPolyline
90
4
70
0
43
0
10
23096.037865
20
46728.592966
10
22636.817746
20
45619.937527
10
22747.68329
20
45574.015515
10
23206.903409
20
46682.670954
0
LWPOLYLINE
5
326
330
10E
100
AcDbEntity
8
ST-RB-UBAR
100
AcDbPolyline
90
4
70
0
43
0
10
22240
20
46875
10
22240
20
45675
10
22360
20
45675
10
22360
20
46875
0
LWPOLYLINE
5
327
330
10E
100
AcDbEntity
8
ST-RB-UBAR
100
AcDbPolyline
90
4
70
0
43
0
10
21393.096591
20
46682.670954
10
21852.31671
20
45574.015515
10
21963.182254
20
45619.937527
10
21503.962135
20
46728.592966
0
LWPOLYLINE
5
328
330
10E
100
AcDbEntity
8
ST-RB-UBAR
100
AcDbPolyline
90
4
70
0
43
0
10
20684.261005
20
46180.886181
10
21532.789142
20
45332.358044
10
21617.641956
20
45417.210858
10
20769.113819
20
46265.738995
0
LWPOLYLINE
5
329
330
10E
100
AcDbEntity
8
ST-RB-UBAR
100
AcDbPolyline
90
4
70
0
43
0
10
20221.407034
20
45446.037865
10
21330.062473
20
44986.817746
10
21375.984485
20
45097.68329
10
20267.329046
20
45556.903409
0
LWPOLYLINE
5
32A
330
10E
100
AcDbEntity
8
ST-RB-UBAR
100
AcDbPolyline
90
4
70
0
43
0
10
20075
20
44590
10
21275
20
44590
10
21275
20
44710
10
20075
20
44710
0
LWPOLYLINE
5
32B
330
10E
100
AcDbEntity
8
ST-RB-UBAR
100
AcDbPolyline
90
4
70
0
43
0
10
20267.329046
20
43743.096591
10
21375.984485
20
44202.31671
10
21330.062473
20
44313.182254
10
20221.407034
20
43853.962135
0
LWPOLYLINE
5
32C
330
10E
100
AcDbEntity
8
ST-RB-UBAR
100
AcDbPolyline
90
4
70
0
43
0
10
20769.113819
20
43034.261005
10
21617.641956
20
43882.789142
10
21532.789142
20
43967.641956
10
20684.261005
20
43119.113819
0
LWPOLYLINE
5
32D
330
10E
100
AcDbEntity
8
ST-RB-UBAR
100
AcDbPolyline
90
4
70
0
43
0
10
21503.962135
20
42571.407034
10
21963.182254
20
43680.062473
10
21852.31671
20
43725.984485
10
21393.096591
20
42617.329046
0
LWPOLYLINE
5
32E
330
10E
100
AcDbEntity
8
ST-RB-UBAR
100
AcDbPolyline
90
4
70
0
43
0
10
22360
20
42425
10
22360
20
43625
10
22240
20
43625
10
22240
20
42425
0
LWPOLYLINE
5
32F
330
10E
100
AcDbEntity
8
ST-RB-UBAR
100
AcDbPolyline
90
4
70
0
43
0
10
23206.903409
20
42617.329046
10
22747.68329
20
43725.984485
10
22636.817746
20
43680.062473
10
23096.037865
20
42571.407034
0
LWPOLYLINE
5
330
330
10E
100
AcDbEntity
8
ST-RB-UBAR
100
AcDbPolyline
90
4
70
0
43
0
10
23915.738995
20
43119.113819
10
23067.210858
20
43967.641956
10
22982.358044
20
43882.789142
10
23830.886181
20
43034.261005
0
LWPOLYLINE
5
331
330
10E
100
AcDbEntity
8
ST-RB-UBAR
100
AcDbPolyline
90
4
70
0
43
0
10
24378.592966
20
43853.962135
10
23269.937527
20
44313.182254
10
23224.015515
20
44202.31671
10
24332.670954
20
43743.096591
0
CIRCLE
5
332
330
10E
100
AcDbEntity
8
ST-CALLOUT
100
AcDbCircle
10
23300
20
45650
30
0
40
350
0
TEXT
5
333
330
10E
100
AcDbEntity
8
ST-CALLOUT
100
AcDbText
10
23300
20
45650
30
0
40
200
1
R1
7
STANDARD
72
1
11
23300
21
45650
31
0
100
AcDbText
73
2
0
LINE
5
334
330
10E
100
AcDbEntity
8
ST-CALLOUT
100
AcDbLine
10
23052.512627
20
45402.512627
30
0
11
22300
21
44650
31
0
0
TEXT
5
335
330
10E
100
AcDbEntity
8
ST-RB-TEXT
100
AcDbText
10
22300
20
41925
30
0
40
210
1
43T12@150-U08-(L=2600) RADIAL U-BARS + 4T12-RING-U01
7
STANDARD
72
1
11
22300
21
41925
31
0
100
AcDbText
73
0
0
LWPOLYLINE
5
336
330
10E
100
AcDbEntity
8
ST-SHEET-FRAME
100
AcDbPolyline
90
4
70
1
43
0
10
2000
20
1000
10
22866.666667
20
1000
10
22866.666667
20
13500
10
2000
20
13500
0
LINE
5
337
330
10E
100
AcDbEntity
8
ST-SHEET-FRAME
100
AcDbLine
10
2000
20
12700
30
0
11
22866.666667
21
12700
31
0
0
CIRCLE
5
338
330
10E
100
AcDbEntity
8
ST-CALLOUT
100
AcDbCircle
10
2700
20
13100
30
0
40
300
0
TEXT
5
339
330
10E
100
AcDbEntity
8
ST-CALLOUT
100
AcDbText
10
2700
20
13100
30
0
40
220
1
1
7
STANDARD
72
1
11
2700
21
13100
31
0
100
AcDbText
73
2
0
TEXT
5
33A
330
10E
100
AcDbEntity
8
ST-SHEET-TEXT
100
AcDbText
10
3200
20
13100
30
0
40
240
1
U-BAR AT SLAB EDGE - SECTION
7
STANDARD
72
0
11
3200
21
13100
31
0
100
AcDbText
73
2
0
TEXT
5
33B
330
10E
100
AcDbEntity
8
ST-SHEET-TITLE
100
AcDbText
10
22666.666667
20
13100
30
0
40
180
1
1:12.5
7
STANDARD
72
2
11
22666.666667
21
13100
31
0
100
AcDbText
73
2
0
LWPOLYLINE
5
33C
330
10E
100
AcDbEntity
8
ST-DETAIL
370
35
100
AcDbPolyline
90
4
70
1
43
0
10
6833.333333
20
5800
10
20433.333333
20
5800
10
20433.333333
20
7800
10
6833.333333
20
7800
0
HATCH
5
33D
330
10E
100
AcDbEntity
8
ST-DETAIL-HATCH
100
AcDbHatch
10
0
20
0
30
0
210
0
220
0
230
1
2
ANSI31
70
0
71
0
91
1
92
3
72
0
73
1
93
4
10
6833.333333
20
5800
10
20433.333333
20
5800
10
20433.333333
20
7800
10
6833.333333
20
7800
97
0
75
1
76
1
52
0
41
50.393701
77
0
78
1
53
45
43
0
44
0
45
-113.137085
46
113.137085
79
0
98
0
0
LWPOLYLINE
5
33E
330
10E
100
AcDbEntity
8
ST-RB-UBAR
370
70
100
AcDbPolyline
90
4
70
0
43
0
10
16433.333333
20
6048
10
7081.333333
20
6048
10
7081.333333
20
7552
10
16433.333333
20
7552
0
LINE
5
33F
330
10E
100
AcDbEntity
8
ST-RB-UBAR
100
AcDbLine
10
16433.333333
20
6048
30
0
11
16433.333333
21
6048
31
0
0
LINE
5
340
330
10E
100
AcDbEntity
8
ST-RB-UBAR
100
AcDbLine
10
16433.333333
20
6048
30
0
11
16433.333333
21
6048
31
0
0
LINE
5
341
330
10E
100
AcDbEntity
8
ST-RB-UBAR
100
AcDbLine
10
16433.333333
20
7552
30
0
11
16433.333333
21
7552
31
0
0
LINE
5
342
330
10E
100
AcDbEntity
8
ST-RB-UBAR
100
AcDbLine
10
16433.333333
20
7552
30
0
11
16433.333333
21
7552
31
0
0
CIRCLE
5
343
330
10E
100
AcDbEntity
8
ST-RB-UBAR
100
AcDbCircle
10
7337.333333
20
6176
30
0
40
48
0
CIRCLE
5
344
330
10E
100
AcDbEntity
8
ST-RB-UBAR
100
AcDbCircle
10
8057.333333
20
6176
30
0
40
48
0
CIRCLE
5
345
330
10E
100
AcDbEntity
8
ST-RB-UBAR
100
AcDbCircle
10
7337.333333
20
7424
30
0
40
48
0
CIRCLE
5
346
330
10E
100
AcDbEntity
8
ST-RB-UBAR
100
AcDbCircle
10
8057.333333
20
7424
30
0
40
48
0
LWPOLYLINE
5
347
330
10E
100
AcDbEntity
8
ST-PT-TENDON
370
35
100
AcDbPolyline
90
4
70
1
43
0
10
6833.333333
20
6080
10
8913.333333
20
6080
10
8913.333333
20
7520
10
6833.333333
20
7520
0
TEXT
5
348
330
10E
100
AcDbEntity
8
ST-PT-TENDON
100
AcDbText
10
9233.333333
20
6640
30
0
40
150
1
PT ANCHORAGE
7
STANDARD
72
0
100
AcDbText
73
0
0
LWPOLYLINE
5
349
330
10E
100
AcDbEntity
8
ST-PT-TENDON
6
DASHED
100
AcDbPolyline
90
2
70
0
43
0
10
8913.333333
20
6800
10
20433.333333
20
6560
0
LINE
5
34A
330
10E
100
AcDbEntity
8
ST-DIM
100
AcDbLine
10
6833.333333
20
5800
30
0
11
6833.333333
21
5250
31
0
0
LINE
5
34B
330
10E
100
AcDbEntity
8
ST-DIM
100
AcDbLine
10
16433.333333
20
5800
30
0
11
16433.333333
21
5250
31
0
0
LINE
5
34C
330
10E
100
AcDbEntity
8
ST-DIM
100
AcDbLine
10
6833.333333
20
5100
30
0
11
16433.333333
21
5100
31
0
0
LINE
5
34D
330
10E
100
AcDbEntity
8
ST-DIM
100
AcDbLine
10
6763.333333
20
5030
30
0
11
6903.333333
21
5170
31
0
0
LINE
5
34E
330
10E
100
AcDbEntity
8
ST-DIM
100
AcDbLine
10
16363.333333
20
5030
30
0
11
16503.333333
21
5170
31
0
0
TEXT
5
34F
330
10E
100
AcDbEntity
8
ST-DIM
100
AcDbText
10
11633.333333
20
5172
30
0
40
180
1
LEG 1200
7
STANDARD
72
1
11
11633.333333
21
5172
31
0
100
AcDbText
73
0
0
LINE
5
350
330
10E
100
AcDbEntity
8
ST-DIM
100
AcDbLine
10
20433.333333
20
5800
30
0
11
20883.333333
21
5800
31
0
0
LINE
5
351
330
10E
100
AcDbEntity
8
ST-DIM
100
AcDbLine
10
20433.333333
20
7800
30
0
11
20883.333333
21
7800
31
0
0
LINE
5
352
330
10E
100
AcDbEntity
8
ST-DIM
100
AcDbLine
10
21033.333333
20
5800
30
0
11
21033.333333
21
7800
31
0
0
LINE
5
353
330
10E
100
AcDbEntity
8
ST-DIM
100
AcDbLine
10
21103.333333
20
5730
30
0
11
20963.333333
21
5870
31
0
0
LINE
5
354
330
10E
100
AcDbEntity
8
ST-DIM
100
AcDbLine
10
21103.333333
20
7730
30
0
11
20963.333333
21
7870
31
0
0
TEXT
5
355
330
10E
100
AcDbEntity
8
ST-DIM
100
AcDbText
10
20961.333333
20
6800
30
0
40
180
1
250
50
90
7
STANDARD
72
1
11
20961.333333
21
6800
31
0
100
AcDbText
73
0
0
LINE
5
356
330
10E
100
AcDbEntity
8
ST-DIM
100
AcDbLine
10
6833.333333
20
7800
30
0
11
6833.333333
21
8550
31
0
0
LINE
5
357
330
10E
100
AcDbEntity
8
ST-DIM
100
AcDbLine
10
7033.333333
20
7800
30
0
11
7033.333333
21
8550
31
0
0
LINE
5
358
330
10E
100
AcDbEntity
8
ST-DIM
100
AcDbLine
10
6833.333333
20
8400
30
0
11
7033.333333
21
8400
31
0
0
LINE
5
359
330
10E
100
AcDbEntity
8
ST-DIM
100
AcDbLine
10
6763.333333
20
8330
30
0
11
6903.333333
21
8470
31
0
0
LINE
5
35A
330
10E
100
AcDbEntity
8
ST-DIM
100
AcDbLine
10
6963.333333
20
8330
30
0
11
7103.333333
21
8470
31
0
0
TEXT
5
35B
330
10E
100
AcDbEntity
8
ST-DIM
100
AcDbText
10
6933.333333
20
8472
30
0
40
180
1
25
7
STANDARD
72
1
11
6933.333333
21
8472
31
0
100
AcDbText
73
0
0
TEXT
5
35C
330
10E
100
AcDbEntity
8
ST-RB-TEXT
100
AcDbText
10
13633.333333
20
10200
30
0
40
190
1
T12@200 U-BARS AT SLAB EDGE + 2T12 T&B LONGITUDINAL
7
STANDARD
72
1
11
13633.333333
21
10200
31
0
100
AcDbText
73
0
0
TEXT
5
35D
330
10E
100
AcDbEntity
8
ST-SHEET-NOTES
100
AcDbText
10
13633.333333
20
2600
30
0
40
160
1
BURSTING / SPALLING STEEL AT PT ANCHORAGE ZONE, ALL FREE EDGES
7
STANDARD
72
1
11
13633.333333
21
2600
31
0
100
AcDbText
73
0
0
LWPOLYLINE
5
35E
330
10E
100
AcDbEntity
8
ST-SHEET-FRAME
100
AcDbPolyline
90
4
70
1
43
0
10
22866.666667
20
1000
10
43733.333333
20
1000
10
43733.333333
20
13500
10
22866.666667
20
13500
0
LINE
5
35F
330
10E
100
AcDbEntity
8
ST-SHEET-FRAME
100
AcDbLine
10
22866.666667
20
12700
30
0
11
43733.333333
21
12700
31
0
0
CIRCLE
5
360
330
10E
100
AcDbEntity
8
ST-CALLOUT
100
AcDbCircle
10
23566.666667
20
13100
30
0
40
300
0
TEXT
5
361
330
10E
100
AcDbEntity
8
ST-CALLOUT
100
AcDbText
10
23566.666667
20
13100
30
0
40
220
1
2
7
STANDARD
72
1
11
23566.666667
21
13100
31
0
100
AcDbText
73
2
0
TEXT
5
362
330
10E
100
AcDbEntity
8
ST-SHEET-TEXT
100
AcDbText
10
24066.666667
20
13100
30
0
40
240
1
U-BARS AROUND CIRCULAR REGION - PLAN
7
STANDARD
72
0
11
24066.666667
21
13100
31
0
100
AcDbText
73
2
0
TEXT
5
363
330
10E
100
AcDbEntity
8
ST-SHEET-TITLE
100
AcDbText
10
43533.333333
20
13100
30
0
40
180
1
1:75
7
STANDARD
72
2
11
43533.333333
21
13100
31
0
100
AcDbText
73
2
0
CIRCLE
5
364
330
10E
100
AcDbEntity
8
ST-OPENING
370
35
100
AcDbCircle
10
33300
20
6800
30
0
40
1333.333333
0
HATCH
5
365
330
10E
100
AcDbEntity
8
ST-OPENING-HATCH
100
AcDbHatch
10
0
20
0
30
0
210
0
220
0
230
1
2
ANSI37
70
0
71
0
91
1
92
3
72
0
73
1
93
40
10
34633.333333
20
6800
10
34616.917787
20
7008.579287
10
34568.075355
20
7212.022659
10
34488.008699
20
7405.320666
10
34378.689326
20
7583.71367
10
34242.809042
20
7742.809042
10
34083.71367
20
7878.689326
10
33905.320666
20
7988.008699
10
33712.022659
20
8068.075355
10
33508.579287
20
8116.917787
10
33300
20
8133.333333
10
33091.420713
20
8116.917787
10
32887.977341
20
8068.075355
10
32694.679334
20
7988.008699
10
32516.28633
20
7878.689326
10
32357.190958
20
7742.809042
10
32221.310674
20
7583.71367
10
32111.991301
20
7405.320666
10
32031.924645
20
7212.022659
10
31983.082213
20
7008.579287
10
31966.666667
20
6800
10
31983.082213
20
6591.420713
10
32031.924645
20
6387.977341
10
32111.991301
20
6194.679334
10
32221.310674
20
6016.28633
10
32357.190958
20
5857.190958
10
32516.28633
20
5721.310674
10
32694.679334
20
5611.991301
10
32887.977341
20
5531.924645
10
33091.420713
20
5483.082213
10
33300
20
5466.666667
10
33508.579287
20
5483.082213
10
33712.022659
20
5531.924645
10
33905.320666
20
5611.991301
10
34083.71367
20
5721.310674
10
34242.809042
20
5857.190958
10
34378.689326
20
6016.28633
10
34488.008699
20
6194.679334
10
34568.075355
20
6387.977341
10
34616.917787
20
6591.420713
97
0
75
1
76
1
52
0
41
62.992126
77
0
78
2
53
45
43
0
44
0
45
-141.421356
46
141.421356
79
0
53
135
43
0
44
0
45
-141.421356
46
-141.421356
79
0
98
0
0
CIRCLE
5
366
330
10E
100
AcDbEntity
8
ST-RB-UBAR
370
50
100
AcDbCircle
10
33300
20
6800
30
0
40
1390.666667
0
CIRCLE
5
367
330
10E
100
AcDbEntity
8
ST-RB-UBAR
370
50
100
AcDbCircle
10
33300
20
6800
30
0
40
1470.666667
0
LINE
5
368
330
10E
100
AcDbEntity
8
ST-RB-UBAR
370
50
100
AcDbLine
10
34666.666667
20
6846.666667
30
0
11
36266.666667
21
6846.666667
31
0
0
LINE
5
369
330
10E
100
AcDbEntity
8
ST-RB-UBAR
370
50
100
AcDbLine
10
34666.666667
20
6753.333333
30
0
11
36266.666667
21
6753.333333
31
0
0
ARC
5
36A
330
10E
100
AcDbEntity
8
ST-RB-UBAR
370
50
100
AcDbCircle
10
34666.666667
20
6800
30
0
40
46.666667
100
AcDbArc
50
90
51
270
0
LINE
5
36B
330
10E
100
AcDbEntity
8
ST-RB-UBAR
370
50
100
AcDbLine
10
34645.307882
20
7045.15762
30
0
11
36228.257271
21
7278.119488
31
0
0
LINE
5
36C
330
10E
100
AcDbEntity
8
ST-RB-UBAR
370
50
100
AcDbLine
10
34658.897324
20
6952.818905
30
0
11
36241.846713
21
7185.780774
31
0
0
ARC
5
36D
330
10E
100
AcDbEntity
8
ST-RB-UBAR
370
50
100
AcDbCircle
10
34652.102603
20
6998.988263
30
0
40
46.666667
100
AcDbArc
50
98.372093
51
278.372093
0
LINE
5
36E
330
10E
100
AcDbEntity
8
ST-RB-UBAR
370
50
100
AcDbLine
10
34595.276195
20
7238.423464
30
0
11
36127.437155
21
7699.382023
31
0
0
LINE
5
36F
330
10E
100
AcDbEntity
8
ST-RB-UBAR
370
50
100
AcDbLine
10
34622.165445
20
7149.047408
30
0
11
36154.326404
21
7610.005967
31
0
0
ARC
5
370
330
10E
100
AcDbEntity
8
ST-RB-UBAR
370
50
100
AcDbCircle
10
34608.72082
20
7193.735436
30
0
40
46.666667
100
AcDbArc
50
106.744186
51
286.744186
0
LINE
5
371
330
10E
100
AcDbEntity
8
ST-RB-UBAR
370
50
100
AcDbLine
10
34517.637945
20
7422.345073
30
0
11
35966.355125
21
8101.475791
31
0
0
LINE
5
372
330
10E
100
AcDbEntity
8
ST-RB-UBAR
370
50
100
AcDbLine
10
34557.253904
20
7337.836571
30
0
11
36005.971084
21
8016.967289
31
0
0
ARC
5
373
330
10E
100
AcDbEntity
8
ST-RB-UBAR
370
50
100
AcDbCircle
10
34537.445925
20
7380.090822
30
0
40
46.666667
100
AcDbArc
50
115.116279
51
295.116279
0
LINE
5
374
330
10E
100
AcDbEntity
8
ST-RB-UBAR
370
50
100
AcDbLine
10
34414.047857
20
7593.002477
30
0
11
35748.444365
21
8475.830862
31
0
0
LINE
5
375
330
10E
100
AcDbEntity
8
ST-RB-UBAR
370
50
100
AcDbLine
10
34465.546179
20
7515.162681
30
0
11
35799.942688
21
8397.991066
31
0
0
ARC
5
376
330
10E
100
AcDbEntity
8
ST-RB-UBAR
370
50
100
AcDbCircle
10
34439.797018
20
7554.082579
30
0
40
46.666667
100
AcDbArc
50
123.488372
51
303.488372
0
LINE
5
377
330
10E
100
AcDbEntity
8
ST-RB-UBAR
370
50
100
AcDbLine
10
34286.713772
20
7746.758411
30
0
11
35478.349264
21
8814.468508
31
0
0
LINE
5
378
330
10E
100
AcDbEntity
8
ST-RB-UBAR
370
50
100
AcDbLine
10
34348.996861
20
7677.24634
30
0
11
35540.632353
21
8744.956438
31
0
0
ARC
5
379
330
10E
100
AcDbEntity
8
ST-RB-UBAR
370
50
100
AcDbCircle
10
34317.855316
20
7712.002375
30
0
40
46.666667
100
AcDbArc
50
131.860465
51
311.860465
0
LINE
5
37A
330
10E
100
AcDbEntity
8
ST-RB-UBAR
370
50
100
AcDbLine
10
34138.349596
20
7880.335832
30
0
11
35161.826431
21
9110.171256
31
0
0
LINE
5
37B
330
10E
100
AcDbEntity
8
ST-RB-UBAR
370
50
100
AcDbLine
10
34210.089996
20
7820.633017
30
0
11
35233.56683
21
9050.46844
31
0
0
ARC
5
37C
330
10E
100
AcDbEntity
8
ST-RB-UBAR
370
50
100
AcDbCircle
10
34174.219796
20
7850.484424
30
0
40
46.666667
100
AcDbArc
50
140.232558
51
320.232558
0
LINE
5
37D
330
10E
100
AcDbEntity
8
ST-RB-UBAR
370
50
100
AcDbLine
10
33972.117455
20
7990.887771
30
0
11
34805.621999
21
9356.636713
31
0
0
LINE
5
37E
330
10E
100
AcDbEntity
8
ST-RB-UBAR
370
50
100
AcDbLine
10
34051.786143
20
7942.266672
30
0
11
34885.290688
21
9308.015615
31
0
0
ARC
5
37F
330
10E
100
AcDbEntity
8
ST-RB-UBAR
370
50
100
AcDbCircle
10
34011.951799
20
7966.577222
30
0
40
46.666667
100
AcDbArc
50
148.604651
51
328.604651
0
LINE
5
380
330
10E
100
AcDbEntity
8
ST-RB-UBAR
370
50
100
AcDbLine
10
33791.560296
20
8076.058005
30
0
11
34417.327849
21
9548.611898
31
0
0
LINE
5
381
330
10E
100
AcDbEntity
8
ST-RB-UBAR
370
50
100
AcDbLine
10
33877.459273
20
8039.554897
30
0
11
34503.226826
21
9512.108791
31
0
0
ARC
5
382
330
10E
100
AcDbEntity
8
ST-RB-UBAR
370
50
100
AcDbCircle
10
33834.509785
20
8057.806451
30
0
40
46.666667
100
AcDbArc
50
156.976744
51
336.976744
0
LINE
5
383
330
10E
100
AcDbEntity
8
ST-RB-UBAR
370
50
100
AcDbLine
10
33600.526383
20
8134.031277
30
0
11
34005.219795
21
9682.005192
31
0
0
LINE
5
384
330
10E
100
AcDbEntity
8
ST-RB-UBAR
370
50
100
AcDbLine
10
33690.824862
20
8110.424161
30
0
11
34095.518274
21
9658.398077
31
0
0
ARC
5
385
330
10E
100
AcDbEntity
8
ST-RB-UBAR
370
50
100
AcDbCircle
10
33645.675623
20
8122.227719
30
0
40
46.666667
100
AcDbArc
50
165.348837
51
345.348837
0
LINE
5
386
330
10E
100
AcDbEntity
8
ST-RB-UBAR
370
50
100
AcDbLine
10
33403.087273
20
8163.571989
30
0
11
33578.081206
21
9753.97355
31
0
0
LINE
5
387
330
10E
100
AcDbEntity
8
ST-RB-UBAR
370
50
100
AcDbLine
10
33495.860697
20
8153.36401
30
0
11
33670.85463
21
9743.76557
31
0
0
ARC
5
388
330
10E
100
AcDbEntity
8
ST-RB-UBAR
370
50
100
AcDbCircle
10
33449.473985
20
8158.467999
30
0
40
46.666667
100
AcDbArc
50
173.72093
51
353.72093
0
LINE
5
389
330
10E
100
AcDbEntity
8
ST-RB-UBAR
370
50
100
AcDbLine
10
33203.451036
20
8164.050532
30
0
11
33145.015799
21
9762.983089
31
0
0
LINE
5
38A
330
10E
100
AcDbEntity
8
ST-RB-UBAR
370
50
100
AcDbLine
10
33296.722101
20
8167.459254
30
0
11
33238.286865
21
9766.391811
31
0
0
ARC
5
38B
330
10E
100
AcDbEntity
8
ST-RB-UBAR
370
50
100
AcDbCircle
10
33250.086568
20
8165.754893
30
0
40
46.666667
100
AcDbArc
50
182.093023
51
362.093023
0
LINE
5
38C
330
10E
100
AcDbEntity
8
ST-RB-UBAR
370
50
100
AcDbLine
10
33005.872572
20
8135.456705
30
0
11
32715.253611
21
9708.841788
31
0
0
LINE
5
38D
330
10E
100
AcDbEntity
8
ST-RB-UBAR
370
50
100
AcDbLine
10
33097.653369
20
8152.409478
30
0
11
32807.034407
21
9725.794561
31
0
0
ARC
5
38E
330
10E
100
AcDbEntity
8
ST-RB-UBAR
370
50
100
AcDbCircle
10
33051.76297
20
8143.933092
30
0
40
46.666667
100
AcDbArc
50
190.465116
51
370.465116
0
LINE
5
38F
330
10E
100
AcDbEntity
8
ST-RB-UBAR
370
50
100
AcDbLine
10
32814.562924
20
8078.399938
30
0
11
32297.954276
21
9592.703575
31
0
0
LINE
5
390
330
10E
100
AcDbEntity
8
ST-RB-UBAR
370
50
100
AcDbLine
10
32902.897303
20
8108.535442
30
0
11
32386.288655
21
9622.839079
31
0
0
ARC
5
391
330
10E
100
AcDbEntity
8
ST-RB-UBAR
370
50
100
AcDbCircle
10
32858.730113
20
8093.46769
30
0
40
46.666667
100
AcDbArc
50
198.837209
51
378.837209
0
LINE
5
392
330
10E
100
AcDbEntity
8
ST-RB-UBAR
370
50
100
AcDbLine
10
32633.599525
20
7994.096295
30
0
11
31902.011807
21
9417.043733
31
0
0
LINE
5
393
330
10E
100
AcDbEntity
8
ST-RB-UBAR
370
50
100
AcDbLine
10
32716.604792
20
8036.772245
30
0
11
31985.017074
21
9459.719683
31
0
0
ARC
5
394
330
10E
100
AcDbEntity
8
ST-RB-UBAR
370
50
100
AcDbCircle
10
32675.102158
20
8015.43427
30
0
40
46.666667
100
AcDbArc
50
207.209302
51
387.209302
0
LINE
5
395
330
10E
100
AcDbEntity
8
ST-RB-UBAR
370
50
100
AcDbLine
10
32466.839294
20
7884.342563
30
0
11
31535.865029
21
9185.606148
31
0
0
LINE
5
396
330
10E
100
AcDbEntity
8
ST-RB-UBAR
370
50
100
AcDbLine
10
32542.746337
20
7938.649395
30
0
11
31611.772072
21
9239.91298
31
0
0
ARC
5
397
330
10E
100
AcDbEntity
8
ST-RB-UBAR
370
50
100
AcDbCircle
10
32504.792815
20
7911.495979
30
0
40
46.666667
100
AcDbArc
50
215.581395
51
395.581395
0
LINE
5
398
330
10E
100
AcDbEntity
8
ST-RB-UBAR
370
50
100
AcDbLine
10
32317.836438
20
7751.477952
30
0
11
31207.317725
21
8903.32351
31
0
0
LINE
5
399
330
10E
100
AcDbEntity
8
ST-RB-UBAR
370
50
100
AcDbLine
10
32385.027429
20
7816.25821
30
0
11
31274.508716
21
8968.103768
31
0
0
ARC
5
39A
330
10E
100
AcDbEntity
8
ST-RB-UBAR
370
50
100
AcDbCircle
10
32351.431933
20
7783.868081
30
0
40
46.666667
100
AcDbArc
50
223.953488
51
403.953488
0
LINE
5
39B
330
10E
100
AcDbEntity
8
ST-RB-UBAR
370
50
100
AcDbLine
10
32189.766692
20
7598.33424
30
0
11
30923.372311
21
8576.212182
31
0
0
LINE
5
39C
330
10E
100
AcDbEntity
8
ST-RB-UBAR
370
50
100
AcDbLine
10
32246.809572
20
7672.207245
30
0
11
30980.415191
21
8650.085188
31
0
0
ARC
5
39D
330
10E
100
AcDbEntity
8
ST-RB-UBAR
370
50
100
AcDbCircle
10
32218.288132
20
7635.270743
30
0
40
46.666667
100
AcDbArc
50
232.325581
51
412.325581
0
LINE
5
39E
330
10E
100
AcDbEntity
8
ST-RB-UBAR
370
50
100
AcDbLine
10
32085.359643
20
7428.17542
30
0
11
30690.08059
21
8211.243976
31
0
0
LINE
5
39F
330
10E
100
AcDbEntity
8
ST-RB-UBAR
370
50
100
AcDbLine
10
32131.038642
20
7509.566698
30
0
11
30735.759589
21
8292.635254
31
0
0
ARC
5
3A0
330
10E
100
AcDbEntity
8
ST-RB-UBAR
370
50
100
AcDbCircle
10
32108.199142
20
7468.871059
30
0
40
46.666667
100
AcDbArc
50
240.697674
51
420.697674
0
LINE
5
3A1
330
10E
100
AcDbEntity
8
ST-RB-UBAR
370
50
100
AcDbLine
10
32006.840543
20
7244.628131
30
0
11
30512.414769
21
7816.197555
31
0
0
LINE
5
3A2
330
10E
100
AcDbEntity
8
ST-RB-UBAR
370
50
100
AcDbLine
10
32040.182093
20
7331.802968
30
0
11
30545.756319
21
7903.372391
31
0
0
ARC
5
3A3
330
10E
100
AcDbEntity
8
ST-RB-UBAR
370
50
100
AcDbCircle
10
32023.511318
20
7288.215549
30
0
40
46.666667
100
AcDbArc
50
249.069767
51
429.069767
0
LINE
5
3A4
330
10E
100
AcDbEntity
8
ST-RB-UBAR
370
50
100
AcDbLine
10
31955.882892
20
7051.604366
30
0
11
30394.161488
21
7399.492647
31
0
0
LINE
5
3A5
330
10E
100
AcDbEntity
8
ST-RB-UBAR
370
50
100
AcDbLine
10
31976.176376
20
7142.704781
30
0
11
30414.454971
21
7490.593062
31
0
0
ARC
5
3A6
330
10E
100
AcDbEntity
8
ST-RB-UBAR
370
50
100
AcDbCircle
10
31966.029634
20
7097.154573
30
0
40
46.666667
100
AcDbArc
50
257.44186
51
437.44186
0
LINE
5
3A7
330
10E
100
AcDbEntity
8
ST-RB-UBAR
370
50
100
AcDbLine
10
31933.572764
20
6853.21809
30
0
11
30337.84111
21
6970.010594
31
0
0
LINE
5
3A8
330
10E
100
AcDbEntity
8
ST-RB-UBAR
370
50
100
AcDbLine
10
31940.38566
20
6946.302437
30
0
11
30344.654006
21
7063.09494
31
0
0
ARC
5
3A9
330
10E
100
AcDbEntity
8
ST-RB-UBAR
370
50
100
AcDbCircle
10
31936.979212
20
6899.760263
30
0
40
46.666667
100
AcDbArc
50
265.813953
51
445.813953
0
LINE
5
3AA
330
10E
100
AcDbEntity
8
ST-RB-UBAR
370
50
100
AcDbLine
10
31940.38566
20
6653.697563
30
0
11
30344.654006
21
6536.90506
31
0
0
LINE
5
3AB
330
10E
100
AcDbEntity
8
ST-RB-UBAR
370
50
100
AcDbLine
10
31933.572764
20
6746.78191
30
0
11
30337.84111
21
6629.989406
31
0
0
ARC
5
3AC
330
10E
100
AcDbEntity
8
ST-RB-UBAR
370
50
100
AcDbCircle
10
31936.979212
20
6700.239737
30
0
40
46.666667
100
AcDbArc
50
274.186047
51
454.186047
0
LINE
5
3AD
330
10E
100
AcDbEntity
8
ST-RB-UBAR
370
50
100
AcDbLine
10
31976.176376
20
6457.295219
30
0
11
30414.454971
21
6109.406938
31
0
0
LINE
5
3AE
330
10E
100
AcDbEntity
8
ST-RB-UBAR
370
50
100
AcDbLine
10
31955.882892
20
6548.395634
30
0
11
30394.161488
21
6200.507353
31
0
0
ARC
5
3AF
330
10E
100
AcDbEntity
8
ST-RB-UBAR
370
50
100
AcDbCircle
10
31966.029634
20
6502.845427
30
0
40
46.666667
100
AcDbArc
50
282.55814
51
462.55814
0
LINE
5
3B0
330
10E
100
AcDbEntity
8
ST-RB-UBAR
370
50
100
AcDbLine
10
32040.182093
20
6268.197032
30
0
11
30545.756319
21
5696.627609
31
0
0
LINE
5
3B1
330
10E
100
AcDbEntity
8
ST-RB-UBAR
370
50
100
AcDbLine
10
32006.840543
20
6355.371869
30
0
11
30512.414769
21
5783.802445
31
0
0
ARC
5
3B2
330
10E
100
AcDbEntity
8
ST-RB-UBAR
370
50
100
AcDbCircle
10
32023.511318
20
6311.784451
30
0
40
46.666667
100
AcDbArc
50
290.930233
51
470.930233
0
LINE
5
3B3
330
10E
100
AcDbEntity
8
ST-RB-UBAR
370
50
100
AcDbLine
10
32131.038642
20
6090.433302
30
0
11
30735.759589
21
5307.364746
31
0
0
LINE
5
3B4
330
10E
100
AcDbEntity
8
ST-RB-UBAR
370
50
100
AcDbLine
10
32085.359643
20
6171.82458
30
0
11
30690.08059
21
5388.756024
31
0
0
ARC
5
3B5
330
10E
100
AcDbEntity
8
ST-RB-UBAR
370
50
100
AcDbCircle
10
32108.199142
20
6131.128941
30
0
40
46.666667
100
AcDbArc
50
299.302326
51
479.302326
0
LINE
5
3B6
330
10E
100
AcDbEntity
8
ST-RB-UBAR
370
50
100
AcDbLine
10
32246.809572
20
5927.792755
30
0
11
30980.415191
21
4949.914812
31
0
0
LINE
5
3B7
330
10E
100
AcDbEntity
8
ST-RB-UBAR
370
50
100
AcDbLine
10
32189.766692
20
6001.66576
30
0
11
30923.372311
21
5023.787818
31
0
0
ARC
5
3B8
330
10E
100
AcDbEntity
8
ST-RB-UBAR
370
50
100
AcDbCircle
10
32218.288132
20
5964.729257
30
0
40
46.666667
100
AcDbArc
50
307.674419
51
487.674419
0
LINE
5
3B9
330
10E
100
AcDbEntity
8
ST-RB-UBAR
370
50
100
AcDbLine
10
32385.027429
20
5783.74179
30
0
11
31274.508716
21
4631.896232
31
0
0
LINE
5
3BA
330
10E
100
AcDbEntity
8
ST-RB-UBAR
370
50
100
AcDbLine
10
32317.836438
20
5848.522048
30
0
11
31207.317725
21
4696.67649
31
0
0
ARC
5
3BB
330
10E
100
AcDbEntity
8
ST-RB-UBAR
370
50
100
AcDbCircle
10
32351.431933
20
5816.131919
30
0
40
46.666667
100
AcDbArc
50
316.046512
51
496.046512
0
LINE
5
3BC
330
10E
100
AcDbEntity
8
ST-RB-UBAR
370
50
100
AcDbLine
10
32542.746337
20
5661.350605
30
0
11
31611.772072
21
4360.08702
31
0
0
LINE
5
3BD
330
10E
100
AcDbEntity
8
ST-RB-UBAR
370
50
100
AcDbLine
10
32466.839294
20
5715.657437
30
0
11
31535.865029
21
4414.393852
31
0
0
ARC
5
3BE
330
10E
100
AcDbEntity
8
ST-RB-UBAR
370
50
100
AcDbCircle
10
32504.792815
20
5688.504021
30
0
40
46.666667
100
AcDbArc
50
324.418605
51
504.418605
0
LINE
5
3BF
330
10E
100
AcDbEntity
8
ST-RB-UBAR
370
50
100
AcDbLine
10
32716.604792
20
5563.227755
30
0
11
31985.017074
21
4140.280317
31
0
0
LINE
5
3C0
330
10E
100
AcDbEntity
8
ST-RB-UBAR
370
50
100
AcDbLine
10
32633.599525
20
5605.903705
30
0
11
31902.011807
21
4182.956267
31
0
0
ARC
5
3C1
330
10E
100
AcDbEntity
8
ST-RB-UBAR
370
50
100
AcDbCircle
10
32675.102158
20
5584.56573
30
0
40
46.666667
100
AcDbArc
50
332.790698
51
512.790698
0
LINE
5
3C2
330
10E
100
AcDbEntity
8
ST-RB-UBAR
370
50
100
AcDbLine
10
32902.897303
20
5491.464558
30
0
11
32386.288655
21
3977.160921
31
0
0
LINE
5
3C3
330
10E
100
AcDbEntity
8
ST-RB-UBAR
370
50
100
AcDbLine
10
32814.562924
20
5521.600062
30
0
11
32297.954276
21
4007.296425
31
0
0
ARC
5
3C4
330
10E
100
AcDbEntity
8
ST-RB-UBAR
370
50
100
AcDbCircle
10
32858.730113
20
5506.53231
30
0
40
46.666667
100
AcDbArc
50
341.162791
51
521.162791
0
LINE
5
3C5
330
10E
100
AcDbEntity
8
ST-RB-UBAR
370
50
100
AcDbLine
10
33097.653369
20
5447.590522
30
0
11
32807.034407
21
3874.205439
31
0
0
LINE
5
3C6
330
10E
100
AcDbEntity
8
ST-RB-UBAR
370
50
100
AcDbLine
10
33005.872572
20
5464.543295
30
0
11
32715.253611
21
3891.158212
31
0
0
ARC
5
3C7
330
10E
100
AcDbEntity
8
ST-RB-UBAR
370
50
100
AcDbCircle
10
33051.76297
20
5456.066908
30
0
40
46.666667
100
AcDbArc
50
349.534884
51
529.534884
0
LINE
5
3C8
330
10E
100
AcDbEntity
8
ST-RB-UBAR
370
50
100
AcDbLine
10
33296.722101
20
5432.540746
30
0
11
33238.286865
21
3833.608189
31
0
0
LINE
5
3C9
330
10E
100
AcDbEntity
8
ST-RB-UBAR
370
50
100
AcDbLine
10
33203.451036
20
5435.949468
30
0
11
33145.015799
21
3837.016911
31
0
0
ARC
5
3CA
330
10E
100
AcDbEntity
8
ST-RB-UBAR
370
50
100
AcDbCircle
10
33250.086568
20
5434.245107
30
0
40
46.666667
100
AcDbArc
50
357.906977
51
537.906977
0
LINE
5
3CB
330
10E
100
AcDbEntity
8
ST-RB-UBAR
370
50
100
AcDbLine
10
33495.860697
20
5446.63599
30
0
11
33670.85463
21
3856.23443
31
0
0
LINE
5
3CC
330
10E
100
AcDbEntity
8
ST-RB-UBAR
370
50
100
AcDbLine
10
33403.087273
20
5436.428011
30
0
11
33578.081206
21
3846.02645
31
0
0
ARC
5
3CD
330
10E
100
AcDbEntity
8
ST-RB-UBAR
370
50
100
AcDbCircle
10
33449.473985
20
5441.532001
30
0
40
46.666667
100
AcDbArc
50
366.27907
51
546.27907
0
LINE
5
3CE
330
10E
100
AcDbEntity
8
ST-RB-UBAR
370
50
100
AcDbLine
10
33690.824862
20
5489.575839
30
0
11
34095.518274
21
3941.601923
31
0
0
LINE
5
3CF
330
10E
100
AcDbEntity
8
ST-RB-UBAR
370
50
100
AcDbLine
10
33600.526383
20
5465.968723
30
0
11
34005.219795
21
3917.994808
31
0
0
ARC
5
3D0
330
10E
100
AcDbEntity
8
ST-RB-UBAR
370
50
100
AcDbCircle
10
33645.675623
20
5477.772281
30
0
40
46.666667
100
AcDbArc
50
374.651163
51
554.651163
0
LINE
5
3D1
330
10E
100
AcDbEntity
8
ST-RB-UBAR
370
50
100
AcDbLine
10
33877.459273
20
5560.445103
30
0
11
34503.226826
21
4087.891209
31
0
0
LINE
5
3D2
330
10E
100
AcDbEntity
8
ST-RB-UBAR
370
50
100
AcDbLine
10
33791.560296
20
5523.941995
30
0
11
34417.327849
21
4051.388102
31
0
0
ARC
5
3D3
330
10E
100
AcDbEntity
8
ST-RB-UBAR
370
50
100
AcDbCircle
10
33834.509785
20
5542.193549
30
0
40
46.666667
100
AcDbArc
50
383.023256
51
563.023256
0
LINE
5
3D4
330
10E
100
AcDbEntity
8
ST-RB-UBAR
370
50
100
AcDbLine
10
34051.786143
20
5657.733328
30
0
11
34885.290688
21
4291.984385
31
0
0
LINE
5
3D5
330
10E
100
AcDbEntity
8
ST-RB-UBAR
370
50
100
AcDbLine
10
33972.117455
20
5609.112229
30
0
11
34805.621999
21
4243.363287
31
0
0
ARC
5
3D6
330
10E
100
AcDbEntity
8
ST-RB-UBAR
370
50
100
AcDbCircle
10
34011.951799
20
5633.422778
30
0
40
46.666667
100
AcDbArc
50
391.395349
51
571.395349
0
LINE
5
3D7
330
10E
100
AcDbEntity
8
ST-RB-UBAR
370
50
100
AcDbLine
10
34210.089996
20
5779.366983
30
0
11
35233.56683
21
4549.53156
31
0
0
LINE
5
3D8
330
10E
100
AcDbEntity
8
ST-RB-UBAR
370
50
100
AcDbLine
10
34138.349596
20
5719.664168
30
0
11
35161.826431
21
4489.828744
31
0
0
ARC
5
3D9
330
10E
100
AcDbEntity
8
ST-RB-UBAR
370
50
100
AcDbCircle
10
34174.219796
20
5749.515576
30
0
40
46.666667
100
AcDbArc
50
399.767442
51
579.767442
0
LINE
5
3DA
330
10E
100
AcDbEntity
8
ST-RB-UBAR
370
50
100
AcDbLine
10
34348.996861
20
5922.75366
30
0
11
35540.632353
21
4855.043562
31
0
0
LINE
5
3DB
330
10E
100
AcDbEntity
8
ST-RB-UBAR
370
50
100
AcDbLine
10
34286.713772
20
5853.241589
30
0
11
35478.349264
21
4785.531492
31
0
0
ARC
5
3DC
330
10E
100
AcDbEntity
8
ST-RB-UBAR
370
50
100
AcDbCircle
10
34317.855316
20
5887.997625
30
0
40
46.666667
100
AcDbArc
50
408.139535
51
588.139535
0
LINE
5
3DD
330
10E
100
AcDbEntity
8
ST-RB-UBAR
370
50
100
AcDbLine
10
34465.546179
20
6084.837319
30
0
11
35799.942688
21
5202.008934
31
0
0
LINE
5
3DE
330
10E
100
AcDbEntity
8
ST-RB-UBAR
370
50
100
AcDbLine
10
34414.047857
20
6006.997523
30
0
11
35748.444365
21
5124.169138
31
0
0
ARC
5
3DF
330
10E
100
AcDbEntity
8
ST-RB-UBAR
370
50
100
AcDbCircle
10
34439.797018
20
6045.917421
30
0
40
46.666667
100
AcDbArc
50
416.511628
51
596.511628
0
LINE
5
3E0
330
10E
100
AcDbEntity
8
ST-RB-UBAR
370
50
100
AcDbLine
10
34557.253904
20
6262.163429
30
0
11
36005.971084
21
5583.032711
31
0
0
LINE
5
3E1
330
10E
100
AcDbEntity
8
ST-RB-UBAR
370
50
100
AcDbLine
10
34517.637945
20
6177.654927
30
0
11
35966.355125
21
5498.524209
31
0
0
ARC
5
3E2
330
10E
100
AcDbEntity
8
ST-RB-UBAR
370
50
100
AcDbCircle
10
34537.445925
20
6219.909178
30
0
40
46.666667
100
AcDbArc
50
424.883721
51
604.883721
0
LINE
5
3E3
330
10E
100
AcDbEntity
8
ST-RB-UBAR
370
50
100
AcDbLine
10
34622.165445
20
6450.952592
30
0
11
36154.326404
21
5989.994033
31
0
0
LINE
5
3E4
330
10E
100
AcDbEntity
8
ST-RB-UBAR
370
50
100
AcDbLine
10
34595.276195
20
6361.576536
30
0
11
36127.437155
21
5900.617977
31
0
0
ARC
5
3E5
330
10E
100
AcDbEntity
8
ST-RB-UBAR
370
50
100
AcDbCircle
10
34608.72082
20
6406.264564
30
0
40
46.666667
100
AcDbArc
50
433.255814
51
613.255814
0
LINE
5
3E6
330
10E
100
AcDbEntity
8
ST-RB-UBAR
370
50
100
AcDbLine
10
34658.897324
20
6647.181095
30
0
11
36241.846713
21
6414.219226
31
0
0
LINE
5
3E7
330
10E
100
AcDbEntity
8
ST-RB-UBAR
370
50
100
AcDbLine
10
34645.307882
20
6554.84238
30
0
11
36228.257271
21
6321.880512
31
0
0
ARC
5
3E8
330
10E
100
AcDbEntity
8
ST-RB-UBAR
370
50
100
AcDbCircle
10
34652.102603
20
6601.011737
30
0
40
46.666667
100
AcDbArc
50
441.627907
51
621.627907
0
LINE
5
3E9
330
10E
100
AcDbEntity
8
ST-DIM
100
AcDbLine
10
33300
20
6800
30
0
11
33300
21
6450
31
0
0
LINE
5
3EA
330
10E
100
AcDbEntity
8
ST-DIM
100
AcDbLine
10
34633.333333
20
6800
30
0
11
34633.333333
21
6450
31
0
0
LINE
5
3EB
330
10E
100
AcDbEntity
8
ST-DIM
100
AcDbLine
10
33300
20
6300
30
0
11
34633.333333
21
6300
31
0
0
LINE
5
3EC
330
10E
100
AcDbEntity
8
ST-DIM
100
AcDbLine
10
33230
20
6230
30
0
11
33370
21
6370
31
0
0
LINE
5
3ED
330
10E
100
AcDbEntity
8
ST-DIM
100
AcDbLine
10
34563.333333
20
6230
30
0
11
34703.333333
21
6370
31
0
0
TEXT
5
3EE
330
10E
100
AcDbEntity
8
ST-DIM
100
AcDbText
10
33966.666667
20
6372
30
0
40
180
1
R 1000
7
STANDARD
72
1
11
33966.666667
21
6372
31
0
100
AcDbText
73
0
0
LINE
5
3EF
330
10E
100
AcDbEntity
8
ST-DIM
100
AcDbLine
10
34666.666667
20
6800
30
0
11
34666.666667
21
6450
31
0
0
LINE
5
3F0
330
10E
100
AcDbEntity
8
ST-DIM
100
AcDbLine
10
36266.666667
20
6800
30
0
11
36266.666667
21
6450
31
0
0
LINE
5
3F1
330
10E
100
AcDbEntity
8
ST-DIM
100
AcDbLine
10
34666.666667
20
6300
30
0
11
36266.666667
21
6300
31
0
0
LINE
5
3F2
330
10E
100
AcDbEntity
8
ST-DIM
100
AcDbLine
10
34596.666667
20
6230
30
0
11
34736.666667
21
6370
31
0
0
LINE
5
3F3
330
10E
100
AcDbEntity
8
ST-DIM
100
AcDbLine
10
36196.666667
20
6230
30
0
11
36336.666667
21
6370
31
0
0
TEXT
5
3F4
330
10E
100
AcDbEntity
8
ST-DIM
100
AcDbText
10
35466.666667
20
6372
30
0
40
180
1
1200
7
STANDARD
72
1
11
35466.666667
21
6372
31
0
100
AcDbText
73
0
0
TEXT
5
3F5
330
10E
100
AcDbEntity
8
ST-RB-TEXT
100
AcDbText
10
33300
20
10206.666667
30
0
40
190
1
43T12@150 RADIAL U-BARS (LEGS 1200) + 2T12 RINGS T&B
7
STANDARD
72
1
11
33300
21
10206.666667
31
0
100
AcDbText
73
0
0
TEXT
5
3F6
330
10E
100
AcDbEntity
8
ST-SHEET-NOTES
100
AcDbText
10
33300
20
3286.666667
30
0
40
160
1
U-BARS TOP & BOTTOM LEGS; RINGS LAPPED CLASS B
7
STANDARD
72
1
11
33300
21
3286.666667
31
0
100
AcDbText
73
0
0
LWPOLYLINE
5
3F7
330
10E
100
AcDbEntity
8
ST-SHEET-SCHEDULE
100
AcDbPolyline
90
4
70
1
43
0
10
64600
20
52900
10
83100
20
52900
10
83100
20
53500
10
64600
20
53500
0
TEXT
5
3F8
330
10E
100
AcDbEntity
8
ST-SHEET-TEXT
100
AcDbText
10
73850
20
53200
30
0
40
260
1
BAR BENDING SCHEDULE
7
STANDARD
72
1
11
73850
21
53200
31
0
100
AcDbText
73
2
0
LWPOLYLINE
5
3F9
330
10E
100
AcDbEntity
8
ST-SHEET-SCHEDULE
100
AcDbPolyline
90
4
70
1
43
0
10
64600
20
52400
10
83100
20
52400
10
83100
20
52900
10
64600
20
52900
0
TEXT
5
3FA
330
10E
100
AcDbEntity
8
ST-SHEET-SCHEDULE-TEXT
100
AcDbText
10
65450
20
52650
30
0
40
160
1
MARK
7
STANDARD
72
1
11
65450
21
52650
31
0
100
AcDbText
73
2
0
TEXT
5
3FB
330
10E
100
AcDbEntity
8
ST-SHEET-SCHEDULE-TEXT
100
AcDbText
10
66700
20
52650
30
0
40
160
1
\U+00D8
7
STANDARD
72
1
11
66700
21
52650
31
0
100
AcDbText
73
2
0
TEXT
5
3FC
330
10E
100
AcDbEntity
8
ST-SHEET-SCHEDULE-TEXT
100
AcDbText
10
67750
20
52650
30
0
40
160
1
SHAPE
7
STANDARD
72
1
11
67750
21
52650
31
0
100
AcDbText
73
2
0
TEXT
5
3FD
330
10E
100
AcDbEntity
8
ST-SHEET-SCHEDULE-TEXT
100
AcDbText
10
69000
20
52650
30
0
40
160
1
SPAC.
7
STANDARD
72
1
11
69000
21
52650
31
0
100
AcDbText
73
2
0
TEXT
5
3FE
330
10E
100
AcDbEntity
8
ST-SHEET-SCHEDULE-TEXT
100
AcDbText
10
70450
20
52755
30
0
40
160
1
LENGTH
7
STANDARD
72
1
11
70450
21
52755
31
0
100
AcDbText
73
2
0
TEXT
5
3FF
330
10E
100
AcDbEntity
8
ST-SHEET-SCHEDULE-TEXT
100
AcDbText
10
70450
20
52545
30
0
40
160
1
(mm)
7
STANDARD
72
1
11
70450
21
52545
31
0
100
AcDbText
73
2
0
TEXT
5
400
330
10E
100
AcDbEntity
8
ST-SHEET-SCHEDULE-TEXT
100
AcDbText
10
71950
20
52650
30
0
40
160
1
QTY
7
STANDARD
72
1
11
71950
21
52650
31
0
100
AcDbText
73
2
0
TEXT
5
401
330
10E
100
AcDbEntity
8
ST-SHEET-SCHEDULE-TEXT
100
AcDbText
10
73400
20
52755
30
0
40
160
1
TOTAL
7
STANDARD
72
1
11
73400
21
52755
31
0
100
AcDbText
73
2
0
TEXT
5
402
330
10E
100
AcDbEntity
8
ST-SHEET-SCHEDULE-TEXT
100
AcDbText
10
73400
20
52545
30
0
40
160
1
(m)
7
STANDARD
72
1
11
73400
21
52545
31
0
100
AcDbText
73
2
0
TEXT
5
403
330
10E
100
AcDbEntity
8
ST-SHEET-SCHEDULE-TEXT
100
AcDbText
10
75050
20
52755
30
0
40
160
1
WT.
7
STANDARD
72
1
11
75050
21
52755
31
0
100
AcDbText
73
2
0
TEXT
5
404
330
10E
100
AcDbEntity
8
ST-SHEET-SCHEDULE-TEXT
100
AcDbText
10
75050
20
52545
30
0
40
160
1
(kg)
7
STANDARD
72
1
11
75050
21
52545
31
0
100
AcDbText
73
2
0
TEXT
5
405
330
10E
100
AcDbEntity
8
ST-SHEET-SCHEDULE-TEXT
100
AcDbText
10
79500
20
52650
30
0
40
160
1
ZONES / REMARKS
7
STANDARD
72
1
11
79500
21
52650
31
0
100
AcDbText
73
2
0
TEXT
5
406
330
10E
100
AcDbEntity
8
ST-SHEET-SCHEDULE-TEXT
100
AcDbText
10
65450
20
52200
30
0
40
170
1
U01
7
STANDARD
72
1
11
65450
21
52200
31
0
100
AcDbText
73
2
0
TEXT
5
407
330
10E
100
AcDbEntity
8
ST-SHEET-SCHEDULE-TEXT
100
AcDbText
10
66700
20
52200
30
0
40
170
1
12
7
STANDARD
72
1
11
66700
21
52200
31
0
100
AcDbText
73
2
0
TEXT
5
408
330
10E
100
AcDbEntity
8
ST-SHEET-SCHEDULE-TEXT
100
AcDbText
10
67750
20
52200
30
0
40
170
1
RING
7
STANDARD
72
1
11
67750
21
52200
31
0
100
AcDbText
73
2
0
TEXT
5
409
330
10E
100
AcDbEntity
8
ST-SHEET-SCHEDULE-TEXT
100
AcDbText
10
69000
20
52200
30
0
40
170
1
-
7
STANDARD
72
1
11
69000
21
52200
31
0
100
AcDbText
73
2
0
TEXT
5
40A
330
10E
100
AcDbEntity
8
ST-SHEET-SCHEDULE-TEXT
100
AcDbText
10
70450
20
52200
30
0
40
170
1
7110
7
STANDARD
72
1
11
70450
21
52200
31
0
100
AcDbText
73
2
0
TEXT
5
40B
330
10E
100
AcDbEntity
8
ST-SHEET-SCHEDULE-TEXT
100
AcDbText
10
71950
20
52200
30
0
40
170
1
4
7
STANDARD
72
1
11
71950
21
52200
31
0
100
AcDbText
73
2
0
TEXT
5
40C
330
10E
100
AcDbEntity
8
ST-SHEET-SCHEDULE-TEXT
100
AcDbText
10
73400
20
52200
30
0
40
170
1
28.4
7
STANDARD
72
1
11
73400
21
52200
31
0
100
AcDbText
73
2
0
TEXT
5
40D
330
10E
100
AcDbEntity
8
ST-SHEET-SCHEDULE-TEXT
100
AcDbText
10
75050
20
52200
30
0
40
170
1
25.2
7
STANDARD
72
1
11
75050
21
52200
31
0
100
AcDbText
73
2
0
TEXT
5
40E
330
10E
100
AcDbEntity
8
ST-SHEET-SCHEDULE-TEXT
100
AcDbText
10
76000
20
52200
30
0
40
170
1
R1
7
STANDARD
72
0
11
76000
21
52200
31
0
100
AcDbText
73
2
0
LINE
5
40F
330
10E
100
AcDbEntity
8
ST-SHEET-SCHEDULE
370
5
100
AcDbLine
10
64600
20
52000
30
0
11
83100
21
52000
31
0
0
TEXT
5
410
330
10E
100
AcDbEntity
8
ST-SHEET-SCHEDULE-TEXT
100
AcDbText
10
65450
20
51800
30
0
40
170
1
U02
7
STANDARD
72
1
11
65450
21
51800
31
0
100
AcDbText
73
2
0
TEXT
5
411
330
10E
100
AcDbEntity
8
ST-SHEET-SCHEDULE-TEXT
100
AcDbText
10
66700
20
51800
30
0
40
170
1
12
7
STANDARD
72
1
11
66700
21
51800
31
0
100
AcDbText
73
2
0
TEXT
5
412
330
10E
100
AcDbEntity
8
ST-SHEET-SCHEDULE-TEXT
100
AcDbText
10
67750
20
51800
30
0
40
170
1
STR
7
STANDARD
72
1
11
67750
21
51800
31
0
100
AcDbText
73
2
0
TEXT
5
413
330
10E
100
AcDbEntity
8
ST-SHEET-SCHEDULE-TEXT
100
AcDbText
10
69000
20
51800
30
0
40
170
1
-
7
STANDARD
72
1
11
69000
21
51800
31
0
100
AcDbText
73
2
0
TEXT
5
414
330
10E
100
AcDbEntity
8
ST-SHEET-SCHEDULE-TEXT
100
AcDbText
10
70450
20
51800
30
0
40
170
1
12000
7
STANDARD
72
1
11
70450
21
51800
31
0
100
AcDbText
73
2
0
TEXT
5
415
330
10E
100
AcDbEntity
8
ST-SHEET-SCHEDULE-TEXT
100
AcDbText
10
71950
20
51800
30
0
40
170
1
28
7
STANDARD
72
1
11
71950
21
51800
31
0
100
AcDbText
73
2
0
TEXT
5
416
330
10E
100
AcDbEntity
8
ST-SHEET-SCHEDULE-TEXT
100
AcDbText
10
73400
20
51800
30
0
40
170
1
336
7
STANDARD
72
1
11
73400
21
51800
31
0
100
AcDbText
73
2
0
TEXT
5
417
330
10E
100
AcDbEntity
8
ST-SHEET-SCHEDULE-TEXT
100
AcDbText
10
75050
20
51800
30
0
40
170
1
298.3
7
STANDARD
72
1
11
75050
21
51800
31
0
100
AcDbText
73
2
0
TEXT
5
418
330
10E
100
AcDbEntity
8
ST-SHEET-SCHEDULE-TEXT
100
AcDbText
10
76000
20
51800
30
0
40
170
1
E1, E2, E5, E6
7
STANDARD
72
0
11
76000
21
51800
31
0
100
AcDbText
73
2
0
LINE
5
419
330
10E
100
AcDbEntity
8
ST-SHEET-SCHEDULE
370
5
100
AcDbLine
10
64600
20
51600
30
0
11
83100
21
51600
31
0
0
TEXT
5
41A
330
10E
100
AcDbEntity
8
ST-SHEET-SCHEDULE-TEXT
100
AcDbText
10
65450
20
51400
30
0
40
170
1
U03
7
STANDARD
72
1
11
65450
21
51400
31
0
100
AcDbText
73
2
0
TEXT
5
41B
330
10E
100
AcDbEntity
8
ST-SHEET-SCHEDULE-TEXT
100
AcDbText
10
66700
20
51400
30
0
40
170
1
12
7
STANDARD
72
1
11
66700
21
51400
31
0
100
AcDbText
73
2
0
TEXT
5
41C
330
10E
100
AcDbEntity
8
ST-SHEET-SCHEDULE-TEXT
100
AcDbText
10
67750
20
51400
30
0
40
170
1
STR
7
STANDARD
72
1
11
67750
21
51400
31
0
100
AcDbText
73
2
0
TEXT
5
41D
330
10E
100
AcDbEntity
8
ST-SHEET-SCHEDULE-TEXT
100
AcDbText
10
69000
20
51400
30
0
40
170
1
-
7
STANDARD
72
1
11
69000
21
51400
31
0
100
AcDbText
73
2
0
TEXT
5
41E
330
10E
100
AcDbEntity
8
ST-SHEET-SCHEDULE-TEXT
100
AcDbText
10
70450
20
51400
30
0
40
170
1
9550
7
STANDARD
72
1
11
70450
21
51400
31
0
100
AcDbText
73
2
0
TEXT
5
41F
330
10E
100
AcDbEntity
8
ST-SHEET-SCHEDULE-TEXT
100
AcDbText
10
71950
20
51400
30
0
40
170
1
4
7
STANDARD
72
1
11
71950
21
51400
31
0
100
AcDbText
73
2
0
TEXT
5
420
330
10E
100
AcDbEntity
8
ST-SHEET-SCHEDULE-TEXT
100
AcDbText
10
73400
20
51400
30
0
40
170
1
38.2
7
STANDARD
72
1
11
73400
21
51400
31
0
100
AcDbText
73
2
0
TEXT
5
421
330
10E
100
AcDbEntity
8
ST-SHEET-SCHEDULE-TEXT
100
AcDbText
10
75050
20
51400
30
0
40
170
1
33.9
7
STANDARD
72
1
11
75050
21
51400
31
0
100
AcDbText
73
2
0
TEXT
5
422
330
10E
100
AcDbEntity
8
ST-SHEET-SCHEDULE-TEXT
100
AcDbText
10
76000
20
51400
30
0
40
170
1
E1
7
STANDARD
72
0
11
76000
21
51400
31
0
100
AcDbText
73
2
0
LINE
5
423
330
10E
100
AcDbEntity
8
ST-SHEET-SCHEDULE
370
5
100
AcDbLine
10
64600
20
51200
30
0
11
83100
21
51200
31
0
0
TEXT
5
424
330
10E
100
AcDbEntity
8
ST-SHEET-SCHEDULE-TEXT
100
AcDbText
10
65450
20
51000
30
0
40
170
1
U04
7
STANDARD
72
1
11
65450
21
51000
31
0
100
AcDbText
73
2
0
TEXT
5
425
330
10E
100
AcDbEntity
8
ST-SHEET-SCHEDULE-TEXT
100
AcDbText
10
66700
20
51000
30
0
40
170
1
12
7
STANDARD
72
1
11
66700
21
51000
31
0
100
AcDbText
73
2
0
TEXT
5
426
330
10E
100
AcDbEntity
8
ST-SHEET-SCHEDULE-TEXT
100
AcDbText
10
67750
20
51000
30
0
40
170
1
STR
7
STANDARD
72
1
11
67750
21
51000
31
0
100
AcDbText
73
2
0
TEXT
5
427
330
10E
100
AcDbEntity
8
ST-SHEET-SCHEDULE-TEXT
100
AcDbText
10
69000
20
51000
30
0
40
170
1
-
7
STANDARD
72
1
11
69000
21
51000
31
0
100
AcDbText
73
2
0
TEXT
5
428
330
10E
100
AcDbEntity
8
ST-SHEET-SCHEDULE-TEXT
100
AcDbText
10
70450
20
51000
30
0
40
170
1
9500
7
STANDARD
72
1
11
70450
21
51000
31
0
100
AcDbText
73
2
0
TEXT
5
429
330
10E
100
AcDbEntity
8
ST-SHEET-SCHEDULE-TEXT
100
AcDbText
10
71950
20
51000
30
0
40
170
1
4
7
STANDARD
72
1
11
71950
21
51000
31
0
100
AcDbText
73
2
0
TEXT
5
42A
330
10E
100
AcDbEntity
8
ST-SHEET-SCHEDULE-TEXT
100
AcDbText
10
73400
20
51000
30
0
40
170
1
38
7
STANDARD
72
1
11
73400
21
51000
31
0
100
AcDbText
73
2
0
TEXT
5
42B
330
10E
100
AcDbEntity
8
ST-SHEET-SCHEDULE-TEXT
100
AcDbText
10
75050
20
51000
30
0
40
170
1
33.7
7
STANDARD
72
1
11
75050
21
51000
31
0
100
AcDbText
73
2
0
TEXT
5
42C
330
10E
100
AcDbEntity
8
ST-SHEET-SCHEDULE-TEXT
100
AcDbText
10
76000
20
51000
30
0
40
170
1
E2
7
STANDARD
72
0
11
76000
21
51000
31
0
100
AcDbText
73
2
0
LINE
5
42D
330
10E
100
AcDbEntity
8
ST-SHEET-SCHEDULE
370
5
100
AcDbLine
10
64600
20
50800
30
0
11
83100
21
50800
31
0
0
TEXT
5
42E
330
10E
100
AcDbEntity
8
ST-SHEET-SCHEDULE-TEXT
100
AcDbText
10
65450
20
50600
30
0
40
170
1
U05
7
STANDARD
72
1
11
65450
21
50600
31
0
100
AcDbText
73
2
0
TEXT
5
42F
330
10E
100
AcDbEntity
8
ST-SHEET-SCHEDULE-TEXT
100
AcDbText
10
66700
20
50600
30
0
40
170
1
12
7
STANDARD
72
1
11
66700
21
50600
31
0
100
AcDbText
73
2
0
TEXT
5
430
330
10E
100
AcDbEntity
8
ST-SHEET-SCHEDULE-TEXT
100
AcDbText
10
67750
20
50600
30
0
40
170
1
STR
7
STANDARD
72
1
11
67750
21
50600
31
0
100
AcDbText
73
2
0
TEXT
5
431
330
10E
100
AcDbEntity
8
ST-SHEET-SCHEDULE-TEXT
100
AcDbText
10
69000
20
50600
30
0
40
170
1
-
7
STANDARD
72
1
11
69000
21
50600
31
0
100
AcDbText
73
2
0
TEXT
5
432
330
10E
100
AcDbEntity
8
ST-SHEET-SCHEDULE-TEXT
100
AcDbText
10
70450
20
50600
30
0
40
170
1
4950
7
STANDARD
72
1
11
70450
21
50600
31
0
100
AcDbText
73
2
0
TEXT
5
433
330
10E
100
AcDbEntity
8
ST-SHEET-SCHEDULE-TEXT
100
AcDbText
10
71950
20
50600
30
0
40
170
1
8
7
STANDARD
72
1
11
71950
21
50600
31
0
100
AcDbText
73
2
0
TEXT
5
434
330
10E
100
AcDbEntity
8
ST-SHEET-SCHEDULE-TEXT
100
AcDbText
10
73400
20
50600
30
0
40
170
1
39.6
7
STANDARD
72
1
11
73400
21
50600
31
0
100
AcDbText
73
2
0
TEXT
5
435
330
10E
100
AcDbEntity
8
ST-SHEET-SCHEDULE-TEXT
100
AcDbText
10
75050
20
50600
30
0
40
170
1
35.2
7
STANDARD
72
1
11
75050
21
50600
31
0
100
AcDbText
73
2
0
TEXT
5
436
330
10E
100
AcDbEntity
8
ST-SHEET-SCHEDULE-TEXT
100
AcDbText
10
76000
20
50600
30
0
40
170
1
E3, E4
7
STANDARD
72
0
11
76000
21
50600
31
0
100
AcDbText
73
2
0
LINE
5
437
330
10E
100
AcDbEntity
8
ST-SHEET-SCHEDULE
370
5
100
AcDbLine
10
64600
20
50400
30
0
11
83100
21
50400
31
0
0
TEXT
5
438
330
10E
100
AcDbEntity
8
ST-SHEET-SCHEDULE-TEXT
100
AcDbText
10
65450
20
50200
30
0
40
170
1
U06
7
STANDARD
72
1
11
65450
21
50200
31
0
100
AcDbText
73
2
0
TEXT
5
439
330
10E
100
AcDbEntity
8
ST-SHEET-SCHEDULE-TEXT
100
AcDbText
10
66700
20
50200
30
0
40
170
1
12
7
STANDARD
72
1
11
66700
21
50200
31
0
100
AcDbText
73
2
0
TEXT
5
43A
330
10E
100
AcDbEntity
8
ST-SHEET-SCHEDULE-TEXT
100
AcDbText
10
67750
20
50200
30
0
40
170
1
STR
7
STANDARD
72
1
11
67750
21
50200
31
0
100
AcDbText
73
2
0
TEXT
5
43B
330
10E
100
AcDbEntity
8
ST-SHEET-SCHEDULE-TEXT
100
AcDbText
10
69000
20
50200
30
0
40
170
1
-
7
STANDARD
72
1
11
69000
21
50200
31
0
100
AcDbText
73
2
0
TEXT
5
43C
330
10E
100
AcDbEntity
8
ST-SHEET-SCHEDULE-TEXT
100
AcDbText
10
70450
20
50200
30
0
40
170
1
4550
7
STANDARD
72
1
11
70450
21
50200
31
0
100
AcDbText
73
2
0
TEXT
5
43D
330
10E
100
AcDbEntity
8
ST-SHEET-SCHEDULE-TEXT
100
AcDbText
10
71950
20
50200
30
0
40
170
1
4
7
STANDARD
72
1
11
71950
21
50200
31
0
100
AcDbText
73
2
0
TEXT
5
43E
330
10E
100
AcDbEntity
8
ST-SHEET-SCHEDULE-TEXT
100
AcDbText
10
73400
20
50200
30
0
40
170
1
18.2
7
STANDARD
72
1
11
73400
21
50200
31
0
100
AcDbText
73
2
0
TEXT
5
43F
330
10E
100
AcDbEntity
8
ST-SHEET-SCHEDULE-TEXT
100
AcDbText
10
75050
20
50200
30
0
40
170
1
16.2
7
STANDARD
72
1
11
75050
21
50200
31
0
100
AcDbText
73
2
0
TEXT
5
440
330
10E
100
AcDbEntity
8
ST-SHEET-SCHEDULE-TEXT
100
AcDbText
10
76000
20
50200
30
0
40
170
1
E5
7
STANDARD
72
0
11
76000
21
50200
31
0
100
AcDbText
73
2
0
LINE
5
441
330
10E
100
AcDbEntity
8
ST-SHEET-SCHEDULE
370
5
100
AcDbLine
10
64600
20
50000
30
0
11
83100
21
50000
31
0
0
TEXT
5
442
330
10E
100
AcDbEntity
8
ST-SHEET-SCHEDULE-TEXT
100
AcDbText
10
65450
20
49800
30
0
40
170
1
U07
7
STANDARD
72
1
11
65450
21
49800
31
0
100
AcDbText
73
2
0
TEXT
5
443
330
10E
100
AcDbEntity
8
ST-SHEET-SCHEDULE-TEXT
100
AcDbText
10
66700
20
49800
30
0
40
170
1
12
7
STANDARD
72
1
11
66700
21
49800
31
0
100
AcDbText
73
2
0
TEXT
5
444
330
10E
100
AcDbEntity
8
ST-SHEET-SCHEDULE-TEXT
100
AcDbText
10
67750
20
49800
30
0
40
170
1
STR
7
STANDARD
72
1
11
67750
21
49800
31
0
100
AcDbText
73
2
0
TEXT
5
445
330
10E
100
AcDbEntity
8
ST-SHEET-SCHEDULE-TEXT
100
AcDbText
10
69000
20
49800
30
0
40
170
1
-
7
STANDARD
72
1
11
69000
21
49800
31
0
100
AcDbText
73
2
0
TEXT
5
446
330
10E
100
AcDbEntity
8
ST-SHEET-SCHEDULE-TEXT
100
AcDbText
10
70450
20
49800
30
0
40
170
1
3050
7
STANDARD
72
1
11
70450
21
49800
31
0
100
AcDbText
73
2
0
TEXT
5
447
330
10E
100
AcDbEntity
8
ST-SHEET-SCHEDULE-TEXT
100
AcDbText
10
71950
20
49800
30
0
40
170
1
4
7
STANDARD
72
1
11
71950
21
49800
31
0
100
AcDbText
73
2
0
TEXT
5
448
330
10E
100
AcDbEntity
8
ST-SHEET-SCHEDULE-TEXT
100
AcDbText
10
73400
20
49800
30
0
40
170
1
12.2
7
STANDARD
72
1
11
73400
21
49800
31
0
100
AcDbText
73
2
0
TEXT
5
449
330
10E
100
AcDbEntity
8
ST-SHEET-SCHEDULE-TEXT
100
AcDbText
10
75050
20
49800
30
0
40
170
1
10.8
7
STANDARD
72
1
11
75050
21
49800
31
0
100
AcDbText
73
2
0
TEXT
5
44A
330
10E
100
AcDbEntity
8
ST-SHEET-SCHEDULE-TEXT
100
AcDbText
10
76000
20
49800
30
0
40
170
1
E6
7
STANDARD
72
0
11
76000
21
49800
31
0
100
AcDbText
73
2
0
LINE
5
44B
330
10E
100
AcDbEntity
8
ST-SHEET-SCHEDULE
370
5
100
AcDbLine
10
64600
20
49600
30
0
11
83100
21
49600
31
0
0
TEXT
5
44C
330
10E
100
AcDbEntity
8
ST-SHEET-SCHEDULE-TEXT
100
AcDbText
10
65450
20
49400
30
0
40
170
1
U08
7
STANDARD
72
1
11
65450
21
49400
31
0
100
AcDbText
73
2
0
TEXT
5
44D
330
10E
100
AcDbEntity
8
ST-SHEET-SCHEDULE-TEXT
100
AcDbText
10
66700
20
49400
30
0
40
170
1
12
7
STANDARD
72
1
11
66700
21
49400
31
0
100
AcDbText
73
2
0
TEXT
5
44E
330
10E
100
AcDbEntity
8
ST-SHEET-SCHEDULE-TEXT
100
AcDbText
10
67750
20
49400
30
0
40
170
1
U
7
STANDARD
72
1
11
67750
21
49400
31
0
100
AcDbText
73
2
0
TEXT
5
44F
330
10E
100
AcDbEntity
8
ST-SHEET-SCHEDULE-TEXT
100
AcDbText
10
69000
20
49400
30
0
40
170
1
VAR.
7
STANDARD
72
1
11
69000
21
49400
31
0
100
AcDbText
73
2
0
TEXT
5
450
330
10E
100
AcDbEntity
8
ST-SHEET-SCHEDULE-TEXT
100
AcDbText
10
70450
20
49400
30
0
40
170
1
2600
7
STANDARD
72
1
11
70450
21
49400
31
0
100
AcDbText
73
2
0
TEXT
5
451
330
10E
100
AcDbEntity
8
ST-SHEET-SCHEDULE-TEXT
100
AcDbText
10
71950
20
49400
30
0
40
170
1
629
7
STANDARD
72
1
11
71950
21
49400
31
0
100
AcDbText
73
2
0
TEXT
5
452
330
10E
100
AcDbEntity
8
ST-SHEET-SCHEDULE-TEXT
100
AcDbText
10
73400
20
49400
30
0
40
170
1
1635.4
7
STANDARD
72
1
11
73400
21
49400
31
0
100
AcDbText
73
2
0
TEXT
5
453
330
10E
100
AcDbEntity
8
ST-SHEET-SCHEDULE-TEXT
100
AcDbText
10
75050
20
49400
30
0
40
170
1
1451.8
7
STANDARD
72
1
11
75050
21
49400
31
0
100
AcDbText
73
2
0
TEXT
5
454
330
10E
100
AcDbEntity
8
ST-SHEET-SCHEDULE-TEXT
100
AcDbText
10
76000
20
49400
30
0
40
170
1
E1, E2, E3, E4, E5, E6, R1
7
STANDARD
72
0
11
76000
21
49400
31
0
100
AcDbText
73
2
0
LINE
5
455
330
10E
100
AcDbEntity
8
ST-SHEET-SCHEDULE
370
5
100
AcDbLine
10
64600
20
49200
30
0
11
83100
21
49200
31
0
0
LWPOLYLINE
5
456
330
10E
100
AcDbEntity
8
ST-SHEET-SCHEDULE
100
AcDbPolyline
90
4
70
1
43
0
10
64600
20
48750
10
83100
20
48750
10
83100
20
49200
10
64600
20
49200
0
TEXT
5
457
330
10E
100
AcDbEntity
8
ST-SHEET-SCHEDULE-TEXT
100
AcDbText
10
64800
20
48975
30
0
40
170
1
TOTAL 1,905.1 kg  \U+00B7  \U+00D812: 2146 m
7
STANDARD
72
0
11
64800
21
48975
31
0
100
AcDbText
73
2
0
LINE
5
458
330
10E
100
AcDbEntity
8
ST-SHEET-SCHEDULE
100
AcDbLine
10
64600
20
52900
30
0
11
64600
21
48750
31
0
0
LINE
5
459
330
10E
100
AcDbEntity
8
ST-SHEET-SCHEDULE
100
AcDbLine
10
66300
20
52900
30
0
11
66300
21
48750
31
0
0
LINE
5
45A
330
10E
100
AcDbEntity
8
ST-SHEET-SCHEDULE
100
AcDbLine
10
67100
20
52900
30
0
11
67100
21
48750
31
0
0
LINE
5
45B
330
10E
100
AcDbEntity
8
ST-SHEET-SCHEDULE
100
AcDbLine
10
68400
20
52900
30
0
11
68400
21
48750
31
0
0
LINE
5
45C
330
10E
100
AcDbEntity
8
ST-SHEET-SCHEDULE
100
AcDbLine
10
69600
20
52900
30
0
11
69600
21
48750
31
0
0
LINE
5
45D
330
10E
100
AcDbEntity
8
ST-SHEET-SCHEDULE
100
AcDbLine
10
71300
20
52900
30
0
11
71300
21
48750
31
0
0
LINE
5
45E
330
10E
100
AcDbEntity
8
ST-SHEET-SCHEDULE
100
AcDbLine
10
72600
20
52900
30
0
11
72600
21
48750
31
0
0
LINE
5
45F
330
10E
100
AcDbEntity
8
ST-SHEET-SCHEDULE
100
AcDbLine
10
74200
20
52900
30
0
11
74200
21
48750
31
0
0
LINE
5
460
330
10E
100
AcDbEntity
8
ST-SHEET-SCHEDULE
100
AcDbLine
10
75900
20
52900
30
0
11
75900
21
48750
31
0
0
LINE
5
461
330
10E
100
AcDbEntity
8
ST-SHEET-SCHEDULE
100
AcDbLine
10
83100
20
52900
30
0
11
83100
21
48750
31
0
0
LINE
5
462
330
10E
100
AcDbEntity
8
ST-SHEET-SCHEDULE
100
AcDbLine
10
64600
20
48750
30
0
11
83100
21
48750
31
0
0
TEXT
5
463
330
10E
100
AcDbEntity
8
ST-SHEET-TITLE
100
AcDbText
10
64800
20
57950
30
0
40
220
1
KEY PLAN
7
STANDARD
72
0
100
AcDbText
73
0
0
LWPOLYLINE
5
464
330
10E
100
AcDbEntity
8
ST-SHEET-TITLE
100
AcDbPolyline
90
4
70
1
43
0
10
68600
20
54100
10
79100
20
54100
10
79100
20
57800
10
68600
20
57800
0
LWPOLYLINE
5
465
330
10E
100
AcDbEntity
8
ST-SLAB-EDGE
100
AcDbPolyline
90
6
70
1
43
0
10
71912.5
20
54400
10
75787.5
20
54400
10
75787.5
20
56903.846154
10
75191.346154
20
56903.846154
10
75191.346154
20
57500
10
71912.5
20
57500
0
HATCH
5
466
330
10E
100
AcDbEntity
8
ST-HATCH
100
AcDbHatch
10
0
20
0
30
0
210
0
220
0
230
1
2
ANSI31
70
0
71
0
91
1
92
3
72
0
73
1
93
6
10
71912.5
20
54400
10
75787.5
20
54400
10
75787.5
20
56903.846154
10
75191.346154
20
56903.846154
10
75191.346154
20
57500
10
71912.5
20
57500
97
0
75
1
76
1
52
0
41
37.795276
77
0
78
1
53
45
43
0
44
0
45
-84.852814
46
84.852814
79
0
98
0
0
CIRCLE
5
467
330
10E
100
AcDbEntity
8
ST-TEXT
100
AcDbCircle
10
81100
20
55800
30
0
40
600
0
SOLID
5
468
330
10E
100
AcDbEntity
8
ST-TEXT
100
AcDbTrace
10
81100
20
56300
30
0
11
80850
21
55450
31
0
12
81350
22
55450
32
0
13
81100
23
55680
33
0
0
TEXT
5
469
330
10E
100
AcDbEntity
8
ST-TEXT
100
AcDbText
10
81100
20
56550
30
0
40
250
1
N
7
STANDARD
72
1
11
81100
21
56550
31
0
100
AcDbText
73
0
0
TEXT
5
46A
330
10E
100
AcDbEntity
8
ST-SHEET-TEXT
100
AcDbText
10
64900
20
39180
30
0
40
240
1
GENERAL NOTES
7
STANDARD
72
0
100
AcDbText
73
0
0
TEXT
5
46B
330
10E
100
AcDbEntity
8
ST-SHEET-TEXT
100
AcDbText
10
82800
20
39180
30
0
40
220
1
\U+0645\U+0644\U+0627\U+062D\U+0638\U+0627\U+062A \U+0639\U+0627\U+0645\U+0629
7
STANDARD
72
2
11
82800
21
39180
31
0
100
AcDbText
73
0
0
LINE
5
46C
330
10E
100
AcDbEntity
8
ST-SHEET-NOTES
100
AcDbLine
10
64900
20
39070
30
0
11
82800
21
39070
31
0
0
MTEXT
5
46D
330
10E
100
AcDbEntity
8
ST-SHEET-NOTES
100
AcDbMText
10
64900
20
38940
30
0
40
175
41
17800
71
1
72
1
1
1. ALL DIMENSIONS ARE IN MILLIMETRES, LEVELS IN METRES UNLESS NOTED OTHERWISE. DO NOT SCALE; FOLLOW THE WRITTEN DIMENSIONS.
7
STANDARD
44
1
0
MTEXT
5
46E
330
10E
100
AcDbEntity
8
ST-SHEET-NOTES
100
AcDbMText
10
64900
20
38635
30
0
40
175
41
17800
71
1
72
1
1
2. CONCRETE f'c = 35 MPa (drawing). REINFORCEMENT: DEFORMED BARS fy = 420 MPa (drawing). CLEAR COVER 25 mm TOP AND BOTTOM (drawing).
7
STANDARD
44
1
0
MTEXT
5
46F
330
10E
100
AcDbEntity
8
ST-SHEET-NOTES
100
AcDbMText
10
64900
20
38058.75
30
0
40
175
41
17800
71
1
72
1
1
3. SLAB THICKNESS 250 mm. THIS SHEET IS TO BE READ WITH THE CONSULTANT'S STRUCTURAL DRAWINGS (G.A.) AND THE PT LAYOUT; DISCREPANCIES TO BE REFERRED TO THE ENGINEER BEFORE FABRICATION.
7
STANDARD
44
1
0
MTEXT
5
470
330
10E
100
AcDbEntity
8
ST-SHEET-NOTES
100
AcDbMText
10
64900
20
37482.5
30
0
40
175
41
17800
71
1
72
1
3
4. BAR CALL-OUT: [No.] T[\U+00D8] @[SPACING] - [LAYER-MARK] - (L = CUTTING LENGTH). STRAIGHT LENGTH IS WRITTEN UNDER THE BAR; A HOOK LEG IS WRITTEN AT THE HOOKED END. T1/T2 = TOP LAYERS, B1/B2 = BOTTOM LAYERS (1 = BARS PARALLEL TO THE NUMBERED GRIDS,
1
 2 = PARALLEL TO THE LETTERED GRIDS).
7
STANDARD
44
1
0
MTEXT
5
471
330
10E
100
AcDbEntity
8
ST-SHEET-NOTES
100
AcDbMText
10
64900
20
36635
30
0
40
175
41
17800
71
1
72
1
1
5. THE DRAWN BAR IS REPRESENTATIVE OF THE GROUP; THE NUMBER OF BARS IN THE CALL-OUT IS PLACED AT THE GIVEN SPACING ACROSS THE ZONE. A SHORT OFFSET LINE MARKS THE LAP OF THE FOLLOWING PIECE.
7
STANDARD
44
1
0
MTEXT
5
472
330
10E
100
AcDbEntity
8
ST-SHEET-NOTES
100
AcDbMText
10
64900
20
36058.75
30
0
40
175
41
17800
71
1
72
1
1
6. TENSION LAPS ARE CLASS B (1.3 ld) PER SBC 304-18 \U+00A725.5.2, SO ALL BARS OF A ROW MAY LAP AT THE SAME SECTION. BARS ENDING AT A FREE EDGE TERMINATE WITH A STANDARD 90\U+00B0 HOOK (12 \U+00D8) UNLESS NOTED.
7
STANDARD
44
1
0
MTEXT
5
473
330
10E
100
AcDbEntity
8
ST-SHEET-NOTES
100
AcDbMText
10
64900
20
35482.5
30
0
40
175
41
17800
71
1
72
1
3
7. U-BARS T12@200 WITH 1200 mm LEGS TOP AND BOTTOM ALONG ALL PT ANCHORAGE EDGES (BURSTING / SPALLING STEEL), WITH 2T12 LONGITUDINAL BARS TOP AND BOTTOM INSIDE THE U-BARS (DRAWN AS ONE REPRESENTATIVE BAR PER EDGE). U-BAR DEPTH = SLAB THICKNESS - 2 x C
1
OVER = 200 mm.
7
STANDARD
44
1
0
MTEXT
5
474
330
10E
100
AcDbEntity
8
ST-SHEET-NOTES
100
AcDbMText
10
64900
20
34635
30
0
40
175
41
17800
71
1
72
1
1
8. AROUND CIRCULAR REGIONS: RADIAL U-BARS T12@150 (LEGS 1200) PLUS 2T12 RING BARS TOP AND BOTTOM, RINGS LAPPED CLASS B.
7
STANDARD
44
1
0
MTEXT
5
475
330
10E
100
AcDbEntity
8
ST-SHEET-NOTES
100
AcDbMText
10
64900
20
34330
30
0
40
175
41
17800
71
1
72
1
1
9. U-BARS ARE PLACED BEFORE THE ANCHORAGES ARE FIXED; DO NOT CUT U-BARS TO SUIT ANCHORAGE POCKETS - RELOCATE WITHIN THE SPACING.
7
STANDARD
44
1
0
MTEXT
5
476
330
10E
100
AcDbEntity
8
ST-SHEET-NOTES
100
AcDbMText
10
64900
20
34025
30
0
40
175
41
17800
71
1
72
1
1
10. \U+00D812: ld 410 (bot) / 530 (top) \U+00B7 LAP 550 (bot) / 700 (top) \U+00B7 ldh 210
7
STANDARD
44
1
0
TEXT
5
477
330
10E
100
AcDbEntity
8
ST-SHEET-TEXT
100
AcDbText
10
64900
20
33400
30
0
40
240
1
ASSUMPTIONS
7
STANDARD
72
0
100
AcDbText
73
0
0
TEXT
5
478
330
10E
100
AcDbEntity
8
ST-SHEET-TEXT
100
AcDbText
10
82800
20
33400
30
0
40
220
1
\U+0627\U+0641\U+062A\U+0631\U+0627\U+0636\U+0627\U+062A
7
STANDARD
72
2
11
82800
21
33400
31
0
100
AcDbText
73
0
0
LINE
5
479
330
10E
100
AcDbEntity
8
ST-SHEET-NOTES
100
AcDbLine
10
64900
20
33290
30
0
11
82800
21
33290
31
0
0
MTEXT
5
47A
330
10E
100
AcDbEntity
8
ST-SHEET-NOTES
100
AcDbMText
10
64900
20
33160
30
0
40
165
41
17800
71
1
72
1
1
A1. Bottom mesh not specified: T12@200 both ways assumed as bonded reinforcement in PT zones.
7
STANDARD
44
1
0
MTEXT
5
47B
330
10E
100
AcDbEntity
8
ST-SHEET-NOTES
100
AcDbMText
10
64900
20
32865
30
0
40
165
41
17800
71
1
72
1
1
A2. Edge U-bars not specified: T12@200 with 1200 mm legs assumed at PT anchorage edges.
7
STANDARD
44
1
0
MTEXT
5
47C
330
10E
100
AcDbEntity
8
ST-SHEET-NOTES
100
AcDbMText
10
64900
20
32570
30
0
40
165
41
17800
71
1
72
1
1
A3. Opening trimmers not specified: 2T16 T&B each side + 2T12 diagonals at corners assumed.
7
STANDARD
44
1
0
MTEXT
5
47D
330
10E
100
AcDbEntity
8
ST-SHEET-NOTES
100
AcDbMText
10
64900
20
32275
30
0
40
165
41
17800
71
1
72
1
1
A4. Void trimmers not specified: 2T12 T&B each side assumed.
7
STANDARD
44
1
0
MTEXT
5
47E
330
10E
100
AcDbEntity
8
ST-SHEET-NOTES
100
AcDbMText
10
64900
20
31980
30
0
40
165
41
17800
71
1
72
1
1
A5. Stock bar length 12 m; laps staggered so that not more than 50 % of bars lap at one section.
7
STANDARD
44
1
0
MTEXT
5
47F
330
10E
100
AcDbEntity
8
ST-SHEET-NOTES
100
AcDbMText
10
64900
20
31685
30
0
40
165
41
17800
71
1
72
1
1
A6. U-bar edge zones not marked on the drawing: U-bars applied along the entire slab perimeter (PT anchorage zones).
7
STANDARD
44
1
0
TEXT
5
480
330
10E
100
AcDbEntity
8
ST-SHEET-TEXT
100
AcDbText
10
64900
20
31070
30
0
40
240
1
CODE REFERENCE
7
STANDARD
72
0
100
AcDbText
73
0
0
TEXT
5
481
330
10E
100
AcDbEntity
8
ST-SHEET-TEXT
100
AcDbText
10
82800
20
31070
30
0
40
220
1
\U+0627\U+0644\U+0645\U+0631\U+062C\U+0639 \U+0627\U+0644\U+0643\U+0648\U+062F\U+064A
7
STANDARD
72
2
11
82800
21
31070
31
0
100
AcDbText
73
0
0
LINE
5
482
330
10E
100
AcDbEntity
8
ST-SHEET-NOTES
100
AcDbLine
10
64900
20
30960
30
0
11
82800
21
30960
31
0
0
MTEXT
5
483
330
10E
100
AcDbEntity
8
ST-SHEET-NOTES
100
AcDbMText
10
64900
20
30830
30
0
40
175
41
17800
71
1
72
1
1
SBC 304-18 AS STATED ON THE STRUCTURAL DRAWINGS. DEVELOPMENT, ANCHORAGE AND LAP LENGTHS PER SBC 304-18 CHAPTER 25 (ACI 318-14 BASIS).
7
STANDARD
44
1
0
TEXT
5
484
330
10E
100
AcDbEntity
8
ST-SHEET-TEXT
100
AcDbText
10
64900
20
29933.75
30
0
40
240
1
LEGEND
7
STANDARD
72
0
100
AcDbText
73
0
0
TEXT
5
485
330
10E
100
AcDbEntity
8
ST-SHEET-TEXT
100
AcDbText
10
82800
20
29933.75
30
0
40
220
1
\U+0645\U+0641\U+062A\U+0627\U+062D \U+0627\U+0644\U+0631\U+0645\U+0648\U+0632
7
STANDARD
72
2
11
82800
21
29933.75
31
0
100
AcDbText
73
0
0
LINE
5
486
330
10E
100
AcDbEntity
8
ST-SHEET-NOTES
100
AcDbLine
10
64900
20
29823.75
30
0
11
82800
21
29823.75
31
0
0
LINE
5
487
330
10E
100
AcDbEntity
8
ST-RB-UBAR
370
50
100
AcDbLine
10
64900
20
29523.75
30
0
11
65700
21
29523.75
31
0
0
TEXT
5
488
330
10E
100
AcDbEntity
8
ST-SHEET-NOTES
100
AcDbText
10
65900
20
29473.75
30
0
40
170
1
U-BAR (HAIRPIN SYMBOL)
7
STANDARD
72
0
100
AcDbText
73
0
0
LINE
5
489
330
10E
100
AcDbEntity
8
ST-RB
370
50
100
AcDbLine
10
64900
20
29223.75
30
0
11
65700
21
29223.75
31
0
0
TEXT
5
48A
330
10E
100
AcDbEntity
8
ST-SHEET-NOTES
100
AcDbText
10
65900
20
29173.75
30
0
40
170
1
EDGE / RING BAR
7
STANDARD
72
0
100
AcDbText
73
0
0
LINE
5
48B
330
10E
100
AcDbEntity
8
ST-CALLOUT
100
AcDbLine
10
64900
20
28923.75
30
0
11
65700
21
28923.75
31
0
0
TEXT
5
48C
330
10E
100
AcDbEntity
8
ST-SHEET-NOTES
100
AcDbText
10
65900
20
28873.75
30
0
40
170
1
EDGE / REGION ID
7
STANDARD
72
0
100
AcDbText
73
0
0
LINE
5
48D
330
10E
100
AcDbEntity
8
ST-SHEET-TITLE
100
AcDbLine
10
64600
20
20700
30
0
11
83100
21
20700
31
0
0
TEXT
5
48E
330
10E
100
AcDbEntity
8
ST-SHEET-TITLE
100
AcDbText
10
73850
20
20950
30
0
40
170
1
COORDINATED WITH THE FOLLOWING DISCIPLINES
7
STANDARD
72
1
11
73850
21
20950
31
0
100
AcDbText
73
2
0
LINE
5
48F
330
10E
100
AcDbEntity
8
ST-SHEET-TITLE
100
AcDbLine
10
64600
20
20100
30
0
11
83100
21
20100
31
0
0
TEXT
5
490
330
10E
100
AcDbEntity
8
ST-SHEET-TITLE
100
AcDbText
10
64750
20
20480
30
0
40
150
1
ARCH.
7
STANDARD
72
0
100
AcDbText
73
0
0
TEXT
5
491
330
10E
100
AcDbEntity
8
ST-SHEET-TEXT
100
AcDbText
10
66912.5
20
20200
30
0
40
160
1

7
STANDARD
72
1
11
66912.5
21
20200
31
0
100
AcDbText
73
0
0
LINE
5
492
330
10E
100
AcDbEntity
8
ST-SHEET-TITLE
100
AcDbLine
10
69225
20
20100
30
0
11
69225
21
20700
31
0
0
TEXT
5
493
330
10E
100
AcDbEntity
8
ST-SHEET-TITLE
100
AcDbText
10
69375
20
20480
30
0
40
150
1
STRUCT.
7
STANDARD
72
0
100
AcDbText
73
0
0
TEXT
5
494
330
10E
100
AcDbEntity
8
ST-SHEET-TEXT
100
AcDbText
10
71537.5
20
20200
30
0
40
160
1

7
STANDARD
72
1
11
71537.5
21
20200
31
0
100
AcDbText
73
0
0
LINE
5
495
330
10E
100
AcDbEntity
8
ST-SHEET-TITLE
100
AcDbLine
10
73850
20
20100
30
0
11
73850
21
20700
31
0
0
TEXT
5
496
330
10E
100
AcDbEntity
8
ST-SHEET-TITLE
100
AcDbText
10
74000
20
20480
30
0
40
150
1
MEP
7
STANDARD
72
0
100
AcDbText
73
0
0
TEXT
5
497
330
10E
100
AcDbEntity
8
ST-SHEET-TEXT
100
AcDbText
10
76162.5
20
20200
30
0
40
160
1

7
STANDARD
72
1
11
76162.5
21
20200
31
0
100
AcDbText
73
0
0
LINE
5
498
330
10E
100
AcDbEntity
8
ST-SHEET-TITLE
100
AcDbLine
10
78475
20
20100
30
0
11
78475
21
20700
31
0
0
TEXT
5
499
330
10E
100
AcDbEntity
8
ST-SHEET-TITLE
100
AcDbText
10
78625
20
20480
30
0
40
150
1
EL.
7
STANDARD
72
0
100
AcDbText
73
0
0
TEXT
5
49A
330
10E
100
AcDbEntity
8
ST-SHEET-TEXT
100
AcDbText
10
80787.5
20
20200
30
0
40
160
1

7
STANDARD
72
1
11
80787.5
21
20200
31
0
100
AcDbText
73
0
0
LINE
5
49B
330
10E
100
AcDbEntity
8
ST-SHEET-TITLE
100
AcDbLine
10
64600
20
19600
30
0
11
83100
21
19600
31
0
0
TEXT
5
49C
330
10E
100
AcDbEntity
8
ST-SHEET-TITLE
100
AcDbText
10
73850
20
19850
30
0
40
170
1
CONTRACT DRAWING REFERENCES
7
STANDARD
72
1
11
73850
21
19850
31
0
100
AcDbText
73
2
0
LINE
5
49D
330
10E
100
AcDbEntity
8
ST-SHEET-TITLE
100
AcDbLine
10
64600
20
19200
30
0
11
83100
21
19200
31
0
0
TEXT
5
49E
330
10E
100
AcDbEntity
8
ST-SHEET-TITLE
100
AcDbText
10
67683.333333
20
19400
30
0
40
150
1
ARCHITECTURAL
7
STANDARD
72
1
11
67683.333333
21
19400
31
0
100
AcDbText
73
2
0
LINE
5
49F
330
10E
100
AcDbEntity
8
ST-SHEET-TITLE
100
AcDbLine
10
70766.666667
20
19200
30
0
11
70766.666667
21
19600
31
0
0
TEXT
5
4A0
330
10E
100
AcDbEntity
8
ST-SHEET-TITLE
100
AcDbText
10
73850
20
19400
30
0
40
150
1
STRUCTURAL
7
STANDARD
72
1
11
73850
21
19400
31
0
100
AcDbText
73
2
0
LINE
5
4A1
330
10E
100
AcDbEntity
8
ST-SHEET-TITLE
100
AcDbLine
10
76933.333333
20
19200
30
0
11
76933.333333
21
19600
31
0
0
TEXT
5
4A2
330
10E
100
AcDbEntity
8
ST-SHEET-TITLE
100
AcDbText
10
80016.666667
20
19400
30
0
40
150
1
MEP
7
STANDARD
72
1
11
80016.666667
21
19400
31
0
100
AcDbText
73
2
0
LINE
5
4A3
330
10E
100
AcDbEntity
8
ST-SHEET-TITLE
100
AcDbLine
10
64600
20
18800
30
0
11
83100
21
18800
31
0
0
LINE
5
4A4
330
10E
100
AcDbEntity
8
ST-SHEET-TITLE
100
AcDbLine
10
69566.666667
20
18800
30
0
11
69566.666667
21
19200
31
0
0
TEXT
5
4A5
330
10E
100
AcDbEntity
8
ST-SHEET-TITLE
100
AcDbText
10
64750
20
18930
30
0
40
130
1
DRAWING No.
7
STANDARD
72
0
100
AcDbText
73
0
0
TEXT
5
4A6
330
10E
100
AcDbEntity
8
ST-SHEET-TITLE
100
AcDbText
10
70166.666667
20
18930
30
0
40
130
1
REV.
7
STANDARD
72
1
11
70166.666667
21
18930
31
0
100
AcDbText
73
0
0
LINE
5
4A7
330
10E
100
AcDbEntity
8
ST-SHEET-TITLE
100
AcDbLine
10
70766.666667
20
18800
30
0
11
70766.666667
21
19200
31
0
0
LINE
5
4A8
330
10E
100
AcDbEntity
8
ST-SHEET-TITLE
100
AcDbLine
10
75733.333333
20
18800
30
0
11
75733.333333
21
19200
31
0
0
TEXT
5
4A9
330
10E
100
AcDbEntity
8
ST-SHEET-TITLE
100
AcDbText
10
70916.666667
20
18930
30
0
40
130
1
DRAWING No.
7
STANDARD
72
0
100
AcDbText
73
0
0
TEXT
5
4AA
330
10E
100
AcDbEntity
8
ST-SHEET-TITLE
100
AcDbText
10
76333.333333
20
18930
30
0
40
130
1
REV.
7
STANDARD
72
1
11
76333.333333
21
18930
31
0
100
AcDbText
73
0
0
LINE
5
4AB
330
10E
100
AcDbEntity
8
ST-SHEET-TITLE
100
AcDbLine
10
76933.333333
20
18800
30
0
11
76933.333333
21
19200
31
0
0
LINE
5
4AC
330
10E
100
AcDbEntity
8
ST-SHEET-TITLE
100
AcDbLine
10
81900
20
18800
30
0
11
81900
21
19200
31
0
0
TEXT
5
4AD
330
10E
100
AcDbEntity
8
ST-SHEET-TITLE
100
AcDbText
10
77083.333333
20
18930
30
0
40
130
1
DRAWING No.
7
STANDARD
72
0
100
AcDbText
73
0
0
TEXT
5
4AE
330
10E
100
AcDbEntity
8
ST-SHEET-TITLE
100
AcDbText
10
82500
20
18930
30
0
40
130
1
REV.
7
STANDARD
72
1
11
82500
21
18930
31
0
100
AcDbText
73
0
0
LINE
5
4AF
330
10E
100
AcDbEntity
8
ST-SHEET-TITLE
100
AcDbLine
10
64600
20
18400
30
0
11
83100
21
18400
31
0
0
LINE
5
4B0
330
10E
100
AcDbEntity
8
ST-SHEET-TITLE
100
AcDbLine
10
69566.666667
20
18400
30
0
11
69566.666667
21
18800
31
0
0
LINE
5
4B1
330
10E
100
AcDbEntity
8
ST-SHEET-TITLE
100
AcDbLine
10
70766.666667
20
18400
30
0
11
70766.666667
21
18800
31
0
0
LINE
5
4B2
330
10E
100
AcDbEntity
8
ST-SHEET-TITLE
100
AcDbLine
10
75733.333333
20
18400
30
0
11
75733.333333
21
18800
31
0
0
LINE
5
4B3
330
10E
100
AcDbEntity
8
ST-SHEET-TITLE
100
AcDbLine
10
76933.333333
20
18400
30
0
11
76933.333333
21
18800
31
0
0
LINE
5
4B4
330
10E
100
AcDbEntity
8
ST-SHEET-TITLE
100
AcDbLine
10
81900
20
18400
30
0
11
81900
21
18800
31
0
0
LINE
5
4B5
330
10E
100
AcDbEntity
8
ST-SHEET-TITLE
100
AcDbLine
10
64600
20
18000
30
0
11
83100
21
18000
31
0
0
LINE
5
4B6
330
10E
100
AcDbEntity
8
ST-SHEET-TITLE
100
AcDbLine
10
69566.666667
20
18000
30
0
11
69566.666667
21
18400
31
0
0
LINE
5
4B7
330
10E
100
AcDbEntity
8
ST-SHEET-TITLE
100
AcDbLine
10
70766.666667
20
18000
30
0
11
70766.666667
21
18400
31
0
0
LINE
5
4B8
330
10E
100
AcDbEntity
8
ST-SHEET-TITLE
100
AcDbLine
10
75733.333333
20
18000
30
0
11
75733.333333
21
18400
31
0
0
LINE
5
4B9
330
10E
100
AcDbEntity
8
ST-SHEET-TITLE
100
AcDbLine
10
76933.333333
20
18000
30
0
11
76933.333333
21
18400
31
0
0
LINE
5
4BA
330
10E
100
AcDbEntity
8
ST-SHEET-TITLE
100
AcDbLine
10
81900
20
18000
30
0
11
81900
21
18400
31
0
0
LINE
5
4BB
330
10E
100
AcDbEntity
8
ST-SHEET-TITLE
100
AcDbLine
10
64600
20
17600
30
0
11
83100
21
17600
31
0
0
TEXT
5
4BC
330
10E
100
AcDbEntity
8
ST-SHEET-TITLE
100
AcDbText
10
65200
20
17800
30
0
40
140
1
REV.
7
STANDARD
72
1
11
65200
21
17800
31
0
100
AcDbText
73
2
0
LINE
5
4BD
330
10E
100
AcDbEntity
8
ST-SHEET-TITLE
100
AcDbLine
10
65800
20
17600
30
0
11
65800
21
18000
31
0
0
TEXT
5
4BE
330
10E
100
AcDbEntity
8
ST-SHEET-TITLE
100
AcDbText
10
71700
20
17800
30
0
40
140
1
DESCRIPTION
7
STANDARD
72
1
11
71700
21
17800
31
0
100
AcDbText
73
2
0
LINE
5
4BF
330
10E
100
AcDbEntity
8
ST-SHEET-TITLE
100
AcDbLine
10
77600
20
17600
30
0
11
77600
21
18000
31
0
0
TEXT
5
4C0
330
10E
100
AcDbEntity
8
ST-SHEET-TITLE
100
AcDbText
10
79100
20
17800
30
0
40
140
1
DATE
7
STANDARD
72
1
11
79100
21
17800
31
0
100
AcDbText
73
2
0
LINE
5
4C1
330
10E
100
AcDbEntity
8
ST-SHEET-TITLE
100
AcDbLine
10
80600
20
17600
30
0
11
80600
21
18000
31
0
0
TEXT
5
4C2
330
10E
100
AcDbEntity
8
ST-SHEET-TITLE
100
AcDbText
10
81850
20
17800
30
0
40
140
1
BY
7
STANDARD
72
1
11
81850
21
17800
31
0
100
AcDbText
73
2
0
LINE
5
4C3
330
10E
100
AcDbEntity
8
ST-SHEET-TITLE
100
AcDbLine
10
64600
20
17200
30
0
11
83100
21
17200
31
0
0
TEXT
5
4C4
330
10E
100
AcDbEntity
8
ST-SHEET-TEXT
100
AcDbText
10
65200
20
17300
30
0
40
150
1
00
7
STANDARD
72
1
11
65200
21
17300
31
0
100
AcDbText
73
0
0
LINE
5
4C5
330
10E
100
AcDbEntity
8
ST-SHEET-TITLE
100
AcDbLine
10
65800
20
17200
30
0
11
65800
21
17600
31
0
0
TEXT
5
4C6
330
10E
100
AcDbEntity
8
ST-SHEET-TEXT
100
AcDbText
10
65950
20
17300
30
0
40
150
1
ISSUED FOR APPROVAL
7
STANDARD
72
0
100
AcDbText
73
0
0
LINE
5
4C7
330
10E
100
AcDbEntity
8
ST-SHEET-TITLE
100
AcDbLine
10
77600
20
17200
30
0
11
77600
21
17600
31
0
0
TEXT
5
4C8
330
10E
100
AcDbEntity
8
ST-SHEET-TEXT
100
AcDbText
10
79100
20
17300
30
0
40
150
1
2026-09-26
7
STANDARD
72
1
11
79100
21
17300
31
0
100
AcDbText
73
0
0
LINE
5
4C9
330
10E
100
AcDbEntity
8
ST-SHEET-TITLE
100
AcDbLine
10
80600
20
17200
30
0
11
80600
21
17600
31
0
0
TEXT
5
4CA
330
10E
100
AcDbEntity
8
ST-SHEET-TEXT
100
AcDbText
10
81850
20
17300
30
0
40
150
1

7
STANDARD
72
1
11
81850
21
17300
31
0
100
AcDbText
73
0
0
LINE
5
4CB
330
10E
100
AcDbEntity
8
ST-SHEET-TITLE
100
AcDbLine
10
64600
20
16800
30
0
11
83100
21
16800
31
0
0
LINE
5
4CC
330
10E
100
AcDbEntity
8
ST-SHEET-TITLE
100
AcDbLine
10
65800
20
16800
30
0
11
65800
21
17200
31
0
0
LINE
5
4CD
330
10E
100
AcDbEntity
8
ST-SHEET-TITLE
100
AcDbLine
10
77600
20
16800
30
0
11
77600
21
17200
31
0
0
LINE
5
4CE
330
10E
100
AcDbEntity
8
ST-SHEET-TITLE
100
AcDbLine
10
80600
20
16800
30
0
11
80600
21
17200
31
0
0
LINE
5
4CF
330
10E
100
AcDbEntity
8
ST-SHEET-TITLE
100
AcDbLine
10
64600
20
16400
30
0
11
83100
21
16400
31
0
0
LINE
5
4D0
330
10E
100
AcDbEntity
8
ST-SHEET-TITLE
100
AcDbLine
10
65800
20
16400
30
0
11
65800
21
16800
31
0
0
LINE
5
4D1
330
10E
100
AcDbEntity
8
ST-SHEET-TITLE
100
AcDbLine
10
77600
20
16400
30
0
11
77600
21
16800
31
0
0
LINE
5
4D2
330
10E
100
AcDbEntity
8
ST-SHEET-TITLE
100
AcDbLine
10
80600
20
16400
30
0
11
80600
21
16800
31
0
0
LINE
5
4D3
330
10E
100
AcDbEntity
8
ST-SHEET-TITLE
100
AcDbLine
10
64600
20
16000
30
0
11
83100
21
16000
31
0
0
LINE
5
4D4
330
10E
100
AcDbEntity
8
ST-SHEET-TITLE
100
AcDbLine
10
65800
20
16000
30
0
11
65800
21
16400
31
0
0
LINE
5
4D5
330
10E
100
AcDbEntity
8
ST-SHEET-TITLE
100
AcDbLine
10
77600
20
16000
30
0
11
77600
21
16400
31
0
0
LINE
5
4D6
330
10E
100
AcDbEntity
8
ST-SHEET-TITLE
100
AcDbLine
10
80600
20
16000
30
0
11
80600
21
16400
31
0
0
LINE
5
4D7
330
10E
100
AcDbEntity
8
ST-SHEET-TITLE
100
AcDbLine
10
64600
20
14500
30
0
11
83100
21
14500
31
0
0
TEXT
5
4D8
330
10E
100
AcDbEntity
8
ST-SHEET-TITLE
100
AcDbText
10
64750
20
15700
30
0
40
150
1
PROJECT
7
STANDARD
72
0
100
AcDbText
73
0
0
TEXT
5
4D9
330
10E
100
AcDbEntity
8
ST-SHEET-TEXT
100
AcDbText
10
64750
20
15380
30
0
40
210
1
PROPOSED MIXED-USE BUILDING
7
STANDARD
72
0
100
AcDbText
73
0
0
TEXT
5
4DA
330
10E
100
AcDbEntity
8
ST-SHEET-TITLE
100
AcDbText
10
64750
20
14630
30
0
40
170
1
RIYADH, KSA
7
STANDARD
72
0
100
AcDbText
73
0
0
LINE
5
4DB
330
10E
100
AcDbEntity
8
ST-SHEET-TITLE
100
AcDbLine
10
64600
20
13600
30
0
11
83100
21
13600
31
0
0
TEXT
5
4DC
330
10E
100
AcDbEntity
8
ST-SHEET-TITLE
100
AcDbText
10
64750
20
14200
30
0
40
150
1
THE CLIENT
7
STANDARD
72
0
100
AcDbText
73
0
0
TEXT
5
4DD
330
10E
100
AcDbEntity
8
ST-SHEET-TEXT
100
AcDbText
10
64750
20
13880
30
0
40
220
1
DEMO CLIENT
7
STANDARD
72
0
100
AcDbText
73
0
0
LINE
5
4DE
330
10E
100
AcDbEntity
8
ST-SHEET-TITLE
100
AcDbLine
10
64600
20
12700
30
0
11
83100
21
12700
31
0
0
TEXT
5
4DF
330
10E
100
AcDbEntity
8
ST-SHEET-TITLE
100
AcDbText
10
64750
20
13300
30
0
40
150
1
THE ENGINEER (CONSULTANT)
7
STANDARD
72
0
100
AcDbText
73
0
0
LINE
5
4E0
330
10E
100
AcDbEntity
8
ST-SHEET-TITLE
100
AcDbLine
10
64600
20
11800
30
0
11
83100
21
11800
31
0
0
TEXT
5
4E1
330
10E
100
AcDbEntity
8
ST-SHEET-TITLE
100
AcDbText
10
64750
20
12400
30
0
40
150
1
MAIN CONTRACTOR
7
STANDARD
72
0
100
AcDbText
73
0
0
LINE
5
4E2
330
10E
100
AcDbEntity
8
ST-SHEET-TITLE
100
AcDbLine
10
64600
20
10200
30
0
11
83100
21
10200
31
0
0
TEXT
5
4E3
330
10E
100
AcDbEntity
8
ST-SHEET-TITLE
100
AcDbText
10
64750
20
11500
30
0
40
150
1
POST-TENSION SUB-CONTRACTOR / SHOP DRAWINGS BY
7
STANDARD
72
0
100
AcDbText
73
0
0
TEXT
5
4E4
330
10E
100
AcDbEntity
8
ST-SHEET-TEXT
100
AcDbText
10
73850
20
10950
30
0
40
400
1
SPAN TECH CONTRACTING
7
STANDARD
72
1
11
73850
21
10950
31
0
100
AcDbText
73
2
0
TEXT
5
4E5
330
10E
100
AcDbEntity
8
ST-SHEET-TITLE
100
AcDbText
10
73850
20
10450
30
0
40
170
1
POST-TENSIONED SLABS \U+00B7 KSA \U+00B7 EGYPT \U+00B7 QATAR
7
STANDARD
72
1
11
73850
21
10450
31
0
100
AcDbText
73
2
0
LINE
5
4E6
330
10E
100
AcDbEntity
8
ST-SHEET-TITLE
100
AcDbLine
10
64600
20
8200
30
0
11
83100
21
8200
31
0
0
TEXT
5
4E7
330
10E
100
AcDbEntity
8
ST-SHEET-TITLE
100
AcDbText
10
64750
20
9900
30
0
40
150
1
DRAWING TITLE
7
STANDARD
72
0
100
AcDbText
73
0
0
TEXT
5
4E8
330
10E
100
AcDbEntity
8
ST-SHEET-TEXT
100
AcDbText
10
64750
20
9450
30
0
40
290
1
U-BARS AT SLAB EDGES AND AROUND CIRCULAR
7
STANDARD
72
0
100
AcDbText
73
0
0
TEXT
5
4E9
330
10E
100
AcDbEntity
8
ST-SHEET-TEXT
100
AcDbText
10
64750
20
9060
30
0
40
290
1
REGIONS
7
STANDARD
72
0
100
AcDbText
73
0
0
TEXT
5
4EA
330
10E
100
AcDbEntity
8
ST-SHEET-TITLE
100
AcDbText
10
64750
20
8330
30
0
40
200
1
L01 - FIRST FLOOR SLAB PLAN
7
STANDARD
72
0
100
AcDbText
73
0
0
LINE
5
4EB
330
10E
100
AcDbEntity
8
ST-SHEET-TITLE
100
AcDbLine
10
64600
20
7100
30
0
11
83100
21
7100
31
0
0
LINE
5
4EC
330
10E
100
AcDbEntity
8
ST-SHEET-TITLE
100
AcDbLine
10
73850
20
7100
30
0
11
73850
21
8200
31
0
0
LINE
5
4ED
330
10E
100
AcDbEntity
8
ST-SHEET-TITLE
100
AcDbLine
10
77920
20
7100
30
0
11
77920
21
8200
31
0
0
TEXT
5
4EE
330
10E
100
AcDbEntity
8
ST-SHEET-TITLE
100
AcDbText
10
64750
20
7900
30
0
40
150
1
DRAWING No.
7
STANDARD
72
0
100
AcDbText
73
0
0
TEXT
5
4EF
330
10E
100
AcDbEntity
8
ST-SHEET-TEXT
100
AcDbText
10
64750
20
7480
30
0
40
320
1
ST-SD-L01-04
7
STANDARD
72
0
100
AcDbText
73
0
0
TEXT
5
4F0
330
10E
100
AcDbEntity
8
ST-SHEET-TITLE
100
AcDbText
10
74000
20
7900
30
0
40
150
1
REV.
7
STANDARD
72
0
100
AcDbText
73
0
0
TEXT
5
4F1
330
10E
100
AcDbEntity
8
ST-SHEET-TEXT
100
AcDbText
10
74000
20
7480
30
0
40
320
1
00
7
STANDARD
72
0
100
AcDbText
73
0
0
TEXT
5
4F2
330
10E
100
AcDbEntity
8
ST-SHEET-TITLE
100
AcDbText
10
78070
20
7900
30
0
40
150
1
DATE
7
STANDARD
72
0
100
AcDbText
73
0
0
TEXT
5
4F3
330
10E
100
AcDbEntity
8
ST-SHEET-TEXT
100
AcDbText
10
78070
20
7560
30
0
40
240
1
2026-09-26
7
STANDARD
72
0
100
AcDbText
73
0
0
LINE
5
4F4
330
10E
100
AcDbEntity
8
ST-SHEET-TITLE
100
AcDbLine
10
64600
20
6000
30
0
11
83100
21
6000
31
0
0
LINE
5
4F5
330
10E
100
AcDbEntity
8
ST-SHEET-TITLE
100
AcDbLine
10
72000
20
6000
30
0
11
72000
21
7100
31
0
0
LINE
5
4F6
330
10E
100
AcDbEntity
8
ST-SHEET-TITLE
100
AcDbLine
10
76810
20
6000
30
0
11
76810
21
7100
31
0
0
TEXT
5
4F7
330
10E
100
AcDbEntity
8
ST-SHEET-TITLE
100
AcDbText
10
64750
20
6800
30
0
40
150
1
SCALE (A1)
7
STANDARD
72
0
100
AcDbText
73
0
0
TEXT
5
4F8
330
10E
100
AcDbEntity
8
ST-SHEET-TEXT
100
AcDbText
10
64750
20
6460
30
0
40
240
1
1:100 (DETAILS AS NOTED)
7
STANDARD
72
0
100
AcDbText
73
0
0
TEXT
5
4F9
330
10E
100
AcDbEntity
8
ST-SHEET-TITLE
100
AcDbText
10
72150
20
6800
30
0
40
150
1
SHEET
7
STANDARD
72
0
100
AcDbText
73
0
0
TEXT
5
4FA
330
10E
100
AcDbEntity
8
ST-SHEET-TEXT
100
AcDbText
10
72150
20
6460
30
0
40
240
1
5 OF 17
7
STANDARD
72
0
100
AcDbText
73
0
0
TEXT
5
4FB
330
10E
100
AcDbEntity
8
ST-SHEET-TITLE
100
AcDbText
10
76960
20
6800
30
0
40
150
1
GRID REFERENCE
7
STANDARD
72
0
100
AcDbText
73
0
0
TEXT
5
4FC
330
10E
100
AcDbEntity
8
ST-SHEET-TEXT
100
AcDbText
10
76960
20
6480
30
0
40
220
1
A-E / 1-4
7
STANDARD
72
0
100
AcDbText
73
0
0
LINE
5
4FD
330
10E
100
AcDbEntity
8
ST-SHEET-TITLE
100
AcDbLine
10
64600
20
4500
30
0
11
83100
21
4500
31
0
0
LINE
5
4FE
330
10E
100
AcDbEntity
8
ST-SHEET-TITLE
100
AcDbLine
10
70766.666667
20
4500
30
0
11
70766.666667
21
6000
31
0
0
LINE
5
4FF
330
10E
100
AcDbEntity
8
ST-SHEET-TITLE
100
AcDbLine
10
76933.333333
20
4500
30
0
11
76933.333333
21
6000
31
0
0
TEXT
5
500
330
10E
100
AcDbEntity
8
ST-SHEET-TITLE
100
AcDbText
10
64750
20
5700
30
0
40
150
1
PREPARED
7
STANDARD
72
0
100
AcDbText
73
0
0
TEXT
5
501
330
10E
100
AcDbEntity
8
ST-SHEET-TEXT
100
AcDbText
10
64750
20
5250
30
0
40
200
1
SPAN TECH DESIGN OFFICE
7
STANDARD
72
0
100
AcDbText
73
0
0
TEXT
5
502
330
10E
100
AcDbEntity
8
ST-SHEET-TITLE
100
AcDbText
10
64750
20
4630
30
0
40
140
1
SIGN / DATE: ..........
7
STANDARD
72
0
100
AcDbText
73
0
0
TEXT
5
503
330
10E
100
AcDbEntity
8
ST-SHEET-TITLE
100
AcDbText
10
70916.666667
20
5700
30
0
40
150
1
CHECKED
7
STANDARD
72
0
100
AcDbText
73
0
0
TEXT
5
504
330
10E
100
AcDbEntity
8
ST-SHEET-TEXT
100
AcDbText
10
70916.666667
20
5250
30
0
40
200
1

7
STANDARD
72
0
100
AcDbText
73
0
0
TEXT
5
505
330
10E
100
AcDbEntity
8
ST-SHEET-TITLE
100
AcDbText
10
70916.666667
20
4630
30
0
40
140
1
SIGN / DATE: ..........
7
STANDARD
72
0
100
AcDbText
73
0
0
TEXT
5
506
330
10E
100
AcDbEntity
8
ST-SHEET-TITLE
100
AcDbText
10
77083.333333
20
5700
30
0
40
150
1
APPROVED
7
STANDARD
72
0
100
AcDbText
73
0
0
TEXT
5
507
330
10E
100
AcDbEntity
8
ST-SHEET-TEXT
100
AcDbText
10
77083.333333
20
5250
30
0
40
200
1

7
STANDARD
72
0
100
AcDbText
73
0
0
TEXT
5
508
330
10E
100
AcDbEntity
8
ST-SHEET-TITLE
100
AcDbText
10
77083.333333
20
4630
30
0
40
140
1
SIGN / DATE: ..........
7
STANDARD
72
0
100
AcDbText
73
0
0
LINE
5
509
330
10E
100
AcDbEntity
8
ST-SHEET-TITLE
100
AcDbLine
10
64600
20
3500
30
0
11
83100
21
3500
31
0
0
LINE
5
50A
330
10E
100
AcDbEntity
8
ST-SHEET-TITLE
100
AcDbLine
10
70150
20
3500
30
0
11
70150
21
4500
31
0
0
LINE
5
50B
330
10E
100
AcDbEntity
8
ST-SHEET-TITLE
100
AcDbLine
10
76070
20
3500
30
0
11
76070
21
4500
31
0
0
TEXT
5
50C
330
10E
100
AcDbEntity
8
ST-SHEET-TITLE
100
AcDbText
10
64750
20
4200
30
0
40
150
1
DRAWING INDEX
7
STANDARD
72
0
100
AcDbText
73
0
0
TEXT
5
50D
330
10E
100
AcDbEntity
8
ST-SHEET-TEXT
100
AcDbText
10
64750
20
3900
30
0
40
200
1
ST-SD-000
7
STANDARD
72
0
100
AcDbText
73
0
0
TEXT
5
50E
330
10E
100
AcDbEntity
8
ST-SHEET-TITLE
100
AcDbText
10
70300
20
4200
30
0
40
150
1
CODE REFERENCE
7
STANDARD
72
0
100
AcDbText
73
0
0
TEXT
5
50F
330
10E
100
AcDbEntity
8
ST-SHEET-TEXT
100
AcDbText
10
70300
20
3920
30
0
40
180
1
SBC 304-18 (ON DRAWINGS)
7
STANDARD
72
0
100
AcDbText
73
0
0
TEXT
5
510
330
10E
100
AcDbEntity
8
ST-SHEET-TITLE
100
AcDbText
10
76220
20
4200
30
0
40
150
1
BLOCK / XREF
7
STANDARD
72
0
100
AcDbText
73
0
0
TEXT
5
511
330
10E
100
AcDbEntity
8
ST-SHEET-TEXT
100
AcDbText
10
76220
20
3960
30
0
40
140
1
FRAMING_REBAR_U_BARS_AROUND_REGIONS_L01
7
STANDARD
72
0
100
AcDbText
73
0
0
TEXT
5
512
330
10E
100
AcDbEntity
8
ST-SHEET-TEXT
100
AcDbText
10
73850
20
2250
30
0
40
230
1
SHOP DRAWING - FOR CONSULTANT APPROVAL
7
STANDARD
72
1
11
73850
21
2250
31
0
100
AcDbText
73
2
0
LWPOLYLINE
5
513
330
10E
100
AcDbEntity
8
ST-SHEET-TITLE
370
50
100
AcDbPolyline
90
4
70
1
43
0
10
64600
20
1000
10
83100
20
1000
10
83100
20
16000
10
64600
20
16000
0
CIRCLE
5
514
330
10E
100
AcDbEntity
8
ST-CALLOUT
100
AcDbCircle
10
3400
20
14220
30
0
40
400
0
TEXT
5
515
330
10E
100
AcDbEntity
8
ST-CALLOUT
100
AcDbText
10
3400
20
14220
30
0
40
320
1
1
7
STANDARD
72
1
11
3400
21
14220
31
0
100
AcDbText
73
2
0
TEXT
5
516
330
10E
100
AcDbEntity
8
ST-SHEET-TEXT
100
AcDbText
10
4100
20
14100
30
0
40
340
1
FIRST FLOOR SLAB PLAN - U-BARS AT SLAB EDGES AND AROUND CIRCULAR REGIONS
7
STANDARD
72
0
100
AcDbText
73
0
0
LINE
5
517
330
10E
100
AcDbEntity
8
ST-SHEET-TITLE
370
35
100
AcDbLine
10
4100
20
13980
30
0
11
22820
21
13980
31
0
0
TEXT
5
518
330
10E
100
AcDbEntity
8
ST-SHEET-TITLE
100
AcDbText
10
4100
20
13680
30
0
40
200
1
SCALE : 1:100
7
STANDARD
72
0
100
AcDbText
73
0
0
ENDBLK
5
519
330
10E
100
AcDbEntity
8
0
100
AcDbBlockEnd
0
ENDSEC
0
SECTION
2
ENTITIES
0
INSERT
5
51A
330
108
100
AcDbEntity
8
0
100
AcDbBlockReference
2
FRAMING_REBAR_U_BARS_AROUND_REGIONS_L01
10
0
20
0
30
0
41
1
42
1
43
1
50
0
0
ENDSEC
0
SECTION
2
OBJECTS
0
DICTIONARY
5
100
330
0
100
AcDbDictionary
281
1
3
ACAD_GROUP
350
101
3
ACAD_LAYOUT
350
104
3
ACAD_PLOTSTYLENAME
350
102
0
DICTIONARY
5
101
330
100
100
AcDbDictionary
281
1
0
ACDBDICTIONARYWDFLT
5
102
330
100
100
AcDbDictionary
281
1
3
Normal
350
103
100
AcDbDictionaryWithDefault
340
103
0
ACDBPLACEHOLDER
5
103
330
102
0
DICTIONARY
5
104
330
100
100
AcDbDictionary
281
1
3
Model
350
105
3
Layout1
350
106
0
LAYOUT
5
105
330
104
100
AcDbPlotSettings
1

2
none_device
4

6

40
0
41
0
42
0
43
0
44
0
45
0
46
0
47
0
48
0
49
0
140
0
141
0
142
1
143
1
70
1712
72
0
73
0
74
5
7

75
16
147
1
148
0
149
0
100
AcDbLayout
1
Model
70
1
71
0
10
0
20
0
11
12
21
9
12
0
22
0
32
0
14
0
24
0
34
0
15
0
25
0
35
0
146
0
13
0
23
0
33
0
16
1
26
0
36
0
17
0
27
1
37
0
76
0
330
108
0
LAYOUT
5
106
330
104
100
AcDbPlotSettings
1

2
none_device
4

6

40
0
41
0
42
0
43
0
44
0
45
0
46
0
47
0
48
0
49
0
140
0
141
0
142
1
143
1
70
688
72
0
73
0
74
5
7

75
16
147
1
148
0
149
0
100
AcDbLayout
1
Layout1
70
1
71
1
10
0
20
0
11
12
21
9
12
0
22
0
32
0
14
0
24
0
34
0
15
0
25
0
35
0
146
0
13
0
23
0
33
0
16
1
26
0
36
0
17
0
27
1
37
0
76
0
330
109
0
ENDSEC
0
EOF
