0
SECTION
2
HEADER
9
$ACADVER
1
AC1015
9
$DWGCODEPAGE
3
ANSI_1252
9
$INSBASE
10
0
20
0
30
0
9
$EXTMIN
10
0
20
0
30
0
9
$EXTMAX
10
85296
20
59400
30
0
9
$LIMMIN
10
0
20
0
9
$LIMMAX
10
85296
20
59400
9
$ORTHOMODE
70
0
9
$LTSCALE
40
25
9
$TEXTSIZE
40
2.5
9
$TEXTSTYLE
7
STANDARD
9
$CLAYER
8
0
9
$CELTYPE
6
BYLAYER
9
$CECOLOR
62
256
9
$DIMSTYLE
2
STANDARD
9
$INSUNITS
70
4
9
$MEASUREMENT
70
1
9
$PDMODE
70
0
9
$PSLTSCALE
70
1
9
$TILEMODE
70
1
9
$HANDSEED
5
665
0
ENDSEC
0
SECTION
2
CLASSES
0
ENDSEC
0
SECTION
2
TABLES
0
TABLE
2
VPORT
5
10F
330
0
100
AcDbSymbolTable
70
1
0
VPORT
5
110
330
10F
100
AcDbSymbolTableRecord
100
AcDbViewportTableRecord
2
*Active
70
0
10
0
20
0
11
1
21
1
12
42648
22
29700
13
0
23
0
14
10
24
10
15
10
25
10
16
0
26
0
36
1
17
0
27
0
37
0
40
65340
41
1.43596
42
50
43
0
44
0
50
0
51
0
71
0
72
1000
73
1
74
3
75
0
76
0
77
0
78
0
281
0
65
1
110
0
120
0
130
0
111
1
121
0
131
0
112
0
122
1
132
0
79
0
146
0
0
ENDTAB
0
TABLE
2
LTYPE
5
111
330
0
100
AcDbSymbolTable
70
8
0
LTYPE
5
112
330
111
100
AcDbSymbolTableRecord
100
AcDbLinetypeTableRecord
2
ByBlock
70
0
3

72
65
73
0
40
0
0
LTYPE
5
113
330
111
100
AcDbSymbolTableRecord
100
AcDbLinetypeTableRecord
2
ByLayer
70
0
3

72
65
73
0
40
0
0
LTYPE
5
114
330
111
100
AcDbSymbolTableRecord
100
AcDbLinetypeTableRecord
2
CONTINUOUS
70
0
3
Solid line
72
65
73
0
40
0
0
LTYPE
5
115
330
111
100
AcDbSymbolTableRecord
100
AcDbLinetypeTableRecord
2
DASHED
70
0
3
Dashed __ __ __
72
65
73
2
40
19.05
49
12.7
74
0
49
-6.35
74
0
0
LTYPE
5
116
330
111
100
AcDbSymbolTableRecord
100
AcDbLinetypeTableRecord
2
HIDDEN
70
0
3
Hidden __ __ __
72
65
73
2
40
9.525
49
6.35
74
0
49
-3.175
74
0
0
LTYPE
5
117
330
111
100
AcDbSymbolTableRecord
100
AcDbLinetypeTableRecord
2
CENTER
70
0
3
Center ____ _ ____ _
72
65
73
4
40
50.8
49
31.75
74
0
49
-6.35
74
0
49
6.35
74
0
49
-6.35
74
0
0
LTYPE
5
118
330
111
100
AcDbSymbolTableRecord
100
AcDbLinetypeTableRecord
2
DASHDOT
70
0
3
Dash dot __ . __ . __
72
65
73
4
40
25.4
49
12.7
74
0
49
-6.35
74
0
49
0
74
0
49
-6.35
74
0
0
LTYPE
5
119
330
111
100
AcDbSymbolTableRecord
100
AcDbLinetypeTableRecord
2
PHANTOM
70
0
3
Phantom ____ _ _ ____
72
65
73
6
40
63.5
49
31.75
74
0
49
-6.35
74
0
49
6.35
74
0
49
-6.35
74
0
49
6.35
74
0
49
-6.35
74
0
0
ENDTAB
0
TABLE
2
LAYER
5
11A
330
0
100
AcDbSymbolTable
70
34
0
LAYER
5
11B
330
11A
100
AcDbSymbolTableRecord
100
AcDbLayerTableRecord
2
0
70
0
62
7
6
CONTINUOUS
370
-3
390
103
0
LAYER
5
11C
330
11A
100
AcDbSymbolTableRecord
100
AcDbLayerTableRecord
2
FRAME
70
0
62
7
6
CONTINUOUS
370
50
390
103
0
LAYER
5
11D
330
11A
100
AcDbSymbolTableRecord
100
AcDbLayerTableRecord
2
TITLE
70
0
62
7
6
CONTINUOUS
370
25
390
103
0
LAYER
5
11E
330
11A
100
AcDbSymbolTableRecord
100
AcDbLayerTableRecord
2
TEXT
70
0
62
7
6
CONTINUOUS
370
-3
390
103
0
LAYER
5
11F
330
11A
100
AcDbSymbolTableRecord
100
AcDbLayerTableRecord
2
TEXT-TITLE
70
0
62
2
6
CONTINUOUS
370
-3
390
103
0
LAYER
5
120
330
11A
100
AcDbSymbolTableRecord
100
AcDbLayerTableRecord
2
NOTES
70
0
62
7
6
CONTINUOUS
370
-3
390
103
0
LAYER
5
121
330
11A
100
AcDbSymbolTableRecord
100
AcDbLayerTableRecord
2
GRID
70
0
62
8
6
CENTER
370
-3
390
103
0
LAYER
5
122
330
11A
100
AcDbSymbolTableRecord
100
AcDbLayerTableRecord
2
GRID-BUBBLE
70
0
62
8
6
CONTINUOUS
370
-3
390
103
0
LAYER
5
123
330
11A
100
AcDbSymbolTableRecord
100
AcDbLayerTableRecord
2
OUTLINE
70
0
62
4
6
CONTINUOUS
370
35
390
103
0
LAYER
5
124
330
11A
100
AcDbSymbolTableRecord
100
AcDbLayerTableRecord
2
COLUMN
70
0
62
5
6
CONTINUOUS
370
35
390
103
0
LAYER
5
125
330
11A
100
AcDbSymbolTableRecord
100
AcDbLayerTableRecord
2
COLUMN-HATCH
70
0
62
8
6
CONTINUOUS
370
-3
390
103
0
LAYER
5
126
330
11A
100
AcDbSymbolTableRecord
100
AcDbLayerTableRecord
2
OPENING
70
0
62
6
6
CONTINUOUS
370
-3
390
103
0
LAYER
5
127
330
11A
100
AcDbSymbolTableRecord
100
AcDbLayerTableRecord
2
OPENING-HATCH
70
0
62
6
6
CONTINUOUS
370
-3
390
103
0
LAYER
5
128
330
11A
100
AcDbSymbolTableRecord
100
AcDbLayerTableRecord
2
VOID
70
0
62
30
6
DASHED
370
-3
390
103
0
LAYER
5
129
330
11A
100
AcDbSymbolTableRecord
100
AcDbLayerTableRecord
2
VOID-HATCH
70
0
62
30
6
CONTINUOUS
370
-3
390
103
0
LAYER
5
12A
330
11A
100
AcDbSymbolTableRecord
100
AcDbLayerTableRecord
2
PT-ZONE
70
0
62
4
6
DASHDOT
370
-3
390
103
0
LAYER
5
12B
330
11A
100
AcDbSymbolTableRecord
100
AcDbLayerTableRecord
2
PT-TENDON
70
0
62
3
6
CONTINUOUS
370
-3
390
103
0
LAYER
5
12C
330
11A
100
AcDbSymbolTableRecord
100
AcDbLayerTableRecord
2
PT-HATCH
70
0
62
4
6
CONTINUOUS
370
-3
390
103
0
LAYER
5
12D
330
11A
100
AcDbSymbolTableRecord
100
AcDbLayerTableRecord
2
REBAR-BOT
70
0
62
1
6
CONTINUOUS
370
50
390
103
0
LAYER
5
12E
330
11A
100
AcDbSymbolTableRecord
100
AcDbLayerTableRecord
2
REBAR-TOP
70
0
62
5
6
CONTINUOUS
370
50
390
103
0
LAYER
5
12F
330
11A
100
AcDbSymbolTableRecord
100
AcDbLayerTableRecord
2
REBAR-U
70
0
62
6
6
CONTINUOUS
370
50
390
103
0
LAYER
5
130
330
11A
100
AcDbSymbolTableRecord
100
AcDbLayerTableRecord
2
REBAR-TRIM
70
0
62
2
6
CONTINUOUS
370
50
390
103
0
LAYER
5
131
330
11A
100
AcDbSymbolTableRecord
100
AcDbLayerTableRecord
2
REBAR-EXTENT
70
0
62
1
6
CONTINUOUS
370
-3
390
103
0
LAYER
5
132
330
11A
100
AcDbSymbolTableRecord
100
AcDbLayerTableRecord
2
REBAR-TEXT
70
0
62
1
6
CONTINUOUS
370
-3
390
103
0
LAYER
5
133
330
11A
100
AcDbSymbolTableRecord
100
AcDbLayerTableRecord
2
CALLOUT
70
0
62
3
6
CONTINUOUS
370
-3
390
103
0
LAYER
5
134
330
11A
100
AcDbSymbolTableRecord
100
AcDbLayerTableRecord
2
DIM
70
0
62
8
6
CONTINUOUS
370
-3
390
103
0
LAYER
5
135
330
11A
100
AcDbSymbolTableRecord
100
AcDbLayerTableRecord
2
DETAIL
70
0
62
7
6
CONTINUOUS
370
-3
390
103
0
LAYER
5
136
330
11A
100
AcDbSymbolTableRecord
100
AcDbLayerTableRecord
2
DETAIL-HATCH
70
0
62
8
6
CONTINUOUS
370
-3
390
103
0
LAYER
5
137
330
11A
100
AcDbSymbolTableRecord
100
AcDbLayerTableRecord
2
SCHEDULE
70
0
62
7
6
CONTINUOUS
370
-3
390
103
0
LAYER
5
138
330
11A
100
AcDbSymbolTableRecord
100
AcDbLayerTableRecord
2
SCHEDULE-TEXT
70
0
62
7
6
CONTINUOUS
370
-3
390
103
0
LAYER
5
139
330
11A
100
AcDbSymbolTableRecord
100
AcDbLayerTableRecord
2
HATCH
70
0
62
8
6
CONTINUOUS
370
-3
390
103
0
LAYER
5
13A
330
11A
100
AcDbSymbolTableRecord
100
AcDbLayerTableRecord
2
CABLE
70
0
62
3
6
CONTINUOUS
370
50
390
103
0
LAYER
5
13B
330
11A
100
AcDbSymbolTableRecord
100
AcDbLayerTableRecord
2
CABLE-TEXT
70
0
62
3
6
CONTINUOUS
370
-3
390
103
0
LAYER
5
13C
330
11A
100
AcDbSymbolTableRecord
100
AcDbLayerTableRecord
2
XREF
70
0
62
7
6
CONTINUOUS
370
-3
390
103
0
ENDTAB
0
TABLE
2
STYLE
5
13D
330
0
100
AcDbSymbolTable
70
1
0
STYLE
5
13E
330
13D
100
AcDbSymbolTableRecord
100
AcDbTextStyleTableRecord
2
STANDARD
70
0
40
0
41
1
50
0
71
0
42
2.5
3
arial.ttf
4

0
ENDTAB
0
TABLE
2
VIEW
5
13F
330
0
100
AcDbSymbolTable
70
0
0
ENDTAB
0
TABLE
2
UCS
5
140
330
0
100
AcDbSymbolTable
70
0
0
ENDTAB
0
TABLE
2
APPID
5
141
330
0
100
AcDbSymbolTable
70
1
0
APPID
5
142
330
141
100
AcDbSymbolTableRecord
100
AcDbRegAppTableRecord
2
ACAD
70
0
0
ENDTAB
0
TABLE
2
DIMSTYLE
5
143
330
0
100
AcDbSymbolTable
70
1
100
AcDbDimStyleTable
0
DIMSTYLE
105
144
330
143
100
AcDbSymbolTableRecord
100
AcDbDimStyleTableRecord
2
STANDARD
70
0
40
1
41
2.5
42
0.625
43
3.75
44
1.25
140
2.5
141
2.5
147
0.625
0
ENDTAB
0
TABLE
2
BLOCK_RECORD
5
107
330
0
100
AcDbSymbolTable
70
3
0
BLOCK_RECORD
5
108
330
107
100
AcDbSymbolTableRecord
100
AcDbBlockTableRecord
2
*Model_Space
340
105
0
BLOCK_RECORD
5
109
330
107
100
AcDbSymbolTableRecord
100
AcDbBlockTableRecord
2
*Paper_Space
340
106
0
BLOCK_RECORD
5
10E
330
107
100
AcDbSymbolTableRecord
100
AcDbBlockTableRecord
2
FRAMING_REBAR_ADDITIONAL_AT_COLUMNS_L01
340
0
0
ENDTAB
0
ENDSEC
0
SECTION
2
BLOCKS
0
BLOCK
5
10A
330
108
100
AcDbEntity
8
0
100
AcDbBlockBegin
2
*Model_Space
70
0
10
0
20
0
30
0
3
*Model_Space
1

0
ENDBLK
5
10B
330
108
100
AcDbEntity
8
0
100
AcDbBlockEnd
0
BLOCK
5
10C
330
109
100
AcDbEntity
67
1
8
0
100
AcDbBlockBegin
2
*Paper_Space
70
0
10
0
20
0
30
0
3
*Paper_Space
1

0
ENDBLK
5
10D
330
109
100
AcDbEntity
67
1
8
0
100
AcDbBlockEnd
0
BLOCK
5
145
330
10E
100
AcDbEntity
8
0
100
AcDbBlockBegin
2
FRAMING_REBAR_ADDITIONAL_AT_COLUMNS_L01
70
0
10
0
20
0
30
0
3
FRAMING_REBAR_ADDITIONAL_AT_COLUMNS_L01
1

0
LWPOLYLINE
5
146
330
10E
100
AcDbEntity
8
FRAME
370
13
100
AcDbPolyline
90
4
70
1
43
0
10
0
20
0
10
84100
20
0
10
84100
20
59400
10
0
20
59400
0
LWPOLYLINE
5
147
330
10E
100
AcDbEntity
8
FRAME
100
AcDbPolyline
90
4
70
1
43
0
10
2000
20
1000
10
83100
20
1000
10
83100
20
58400
10
2000
20
58400
0
LINE
5
148
330
10E
100
AcDbEntity
8
FRAME
100
AcDbLine
10
42050
20
0
30
0
11
42050
21
600
31
0
0
LINE
5
149
330
10E
100
AcDbEntity
8
FRAME
100
AcDbLine
10
42050
20
59400
30
0
11
42050
21
58800
31
0
0
LINE
5
14A
330
10E
100
AcDbEntity
8
FRAME
100
AcDbLine
10
0
20
29700
30
0
11
600
21
29700
31
0
0
LINE
5
14B
330
10E
100
AcDbEntity
8
FRAME
100
AcDbLine
10
84100
20
29700
30
0
11
83500
21
29700
31
0
0
LINE
5
14C
330
10E
100
AcDbEntity
8
FRAME
370
13
100
AcDbLine
10
2000
20
58400
30
0
11
2000
21
59400
31
0
0
LINE
5
14D
330
10E
100
AcDbEntity
8
FRAME
370
13
100
AcDbLine
10
2000
20
0
30
0
11
2000
21
1000
31
0
0
TEXT
5
14E
330
10E
100
AcDbEntity
8
FRAME
100
AcDbText
10
7068.75
20
58900
30
0
40
250
1
1
7
STANDARD
72
1
11
7068.75
21
58900
31
0
100
AcDbText
73
2
0
TEXT
5
14F
330
10E
100
AcDbEntity
8
FRAME
100
AcDbText
10
7068.75
20
500
30
0
40
250
1
1
7
STANDARD
72
1
11
7068.75
21
500
31
0
100
AcDbText
73
2
0
LINE
5
150
330
10E
100
AcDbEntity
8
FRAME
370
13
100
AcDbLine
10
12137.5
20
58400
30
0
11
12137.5
21
59400
31
0
0
LINE
5
151
330
10E
100
AcDbEntity
8
FRAME
370
13
100
AcDbLine
10
12137.5
20
0
30
0
11
12137.5
21
1000
31
0
0
TEXT
5
152
330
10E
100
AcDbEntity
8
FRAME
100
AcDbText
10
17206.25
20
58900
30
0
40
250
1
2
7
STANDARD
72
1
11
17206.25
21
58900
31
0
100
AcDbText
73
2
0
TEXT
5
153
330
10E
100
AcDbEntity
8
FRAME
100
AcDbText
10
17206.25
20
500
30
0
40
250
1
2
7
STANDARD
72
1
11
17206.25
21
500
31
0
100
AcDbText
73
2
0
LINE
5
154
330
10E
100
AcDbEntity
8
FRAME
370
13
100
AcDbLine
10
22275
20
58400
30
0
11
22275
21
59400
31
0
0
LINE
5
155
330
10E
100
AcDbEntity
8
FRAME
370
13
100
AcDbLine
10
22275
20
0
30
0
11
22275
21
1000
31
0
0
TEXT
5
156
330
10E
100
AcDbEntity
8
FRAME
100
AcDbText
10
27343.75
20
58900
30
0
40
250
1
3
7
STANDARD
72
1
11
27343.75
21
58900
31
0
100
AcDbText
73
2
0
TEXT
5
157
330
10E
100
AcDbEntity
8
FRAME
100
AcDbText
10
27343.75
20
500
30
0
40
250
1
3
7
STANDARD
72
1
11
27343.75
21
500
31
0
100
AcDbText
73
2
0
LINE
5
158
330
10E
100
AcDbEntity
8
FRAME
370
13
100
AcDbLine
10
32412.5
20
58400
30
0
11
32412.5
21
59400
31
0
0
LINE
5
159
330
10E
100
AcDbEntity
8
FRAME
370
13
100
AcDbLine
10
32412.5
20
0
30
0
11
32412.5
21
1000
31
0
0
TEXT
5
15A
330
10E
100
AcDbEntity
8
FRAME
100
AcDbText
10
37481.25
20
58900
30
0
40
250
1
4
7
STANDARD
72
1
11
37481.25
21
58900
31
0
100
AcDbText
73
2
0
TEXT
5
15B
330
10E
100
AcDbEntity
8
FRAME
100
AcDbText
10
37481.25
20
500
30
0
40
250
1
4
7
STANDARD
72
1
11
37481.25
21
500
31
0
100
AcDbText
73
2
0
LINE
5
15C
330
10E
100
AcDbEntity
8
FRAME
370
13
100
AcDbLine
10
42550
20
58400
30
0
11
42550
21
59400
31
0
0
LINE
5
15D
330
10E
100
AcDbEntity
8
FRAME
370
13
100
AcDbLine
10
42550
20
0
30
0
11
42550
21
1000
31
0
0
TEXT
5
15E
330
10E
100
AcDbEntity
8
FRAME
100
AcDbText
10
47618.75
20
58900
30
0
40
250
1
5
7
STANDARD
72
1
11
47618.75
21
58900
31
0
100
AcDbText
73
2
0
TEXT
5
15F
330
10E
100
AcDbEntity
8
FRAME
100
AcDbText
10
47618.75
20
500
30
0
40
250
1
5
7
STANDARD
72
1
11
47618.75
21
500
31
0
100
AcDbText
73
2
0
LINE
5
160
330
10E
100
AcDbEntity
8
FRAME
370
13
100
AcDbLine
10
52687.5
20
58400
30
0
11
52687.5
21
59400
31
0
0
LINE
5
161
330
10E
100
AcDbEntity
8
FRAME
370
13
100
AcDbLine
10
52687.5
20
0
30
0
11
52687.5
21
1000
31
0
0
TEXT
5
162
330
10E
100
AcDbEntity
8
FRAME
100
AcDbText
10
57756.25
20
58900
30
0
40
250
1
6
7
STANDARD
72
1
11
57756.25
21
58900
31
0
100
AcDbText
73
2
0
TEXT
5
163
330
10E
100
AcDbEntity
8
FRAME
100
AcDbText
10
57756.25
20
500
30
0
40
250
1
6
7
STANDARD
72
1
11
57756.25
21
500
31
0
100
AcDbText
73
2
0
LINE
5
164
330
10E
100
AcDbEntity
8
FRAME
370
13
100
AcDbLine
10
62825
20
58400
30
0
11
62825
21
59400
31
0
0
LINE
5
165
330
10E
100
AcDbEntity
8
FRAME
370
13
100
AcDbLine
10
62825
20
0
30
0
11
62825
21
1000
31
0
0
TEXT
5
166
330
10E
100
AcDbEntity
8
FRAME
100
AcDbText
10
67893.75
20
58900
30
0
40
250
1
7
7
STANDARD
72
1
11
67893.75
21
58900
31
0
100
AcDbText
73
2
0
TEXT
5
167
330
10E
100
AcDbEntity
8
FRAME
100
AcDbText
10
67893.75
20
500
30
0
40
250
1
7
7
STANDARD
72
1
11
67893.75
21
500
31
0
100
AcDbText
73
2
0
LINE
5
168
330
10E
100
AcDbEntity
8
FRAME
370
13
100
AcDbLine
10
72962.5
20
58400
30
0
11
72962.5
21
59400
31
0
0
LINE
5
169
330
10E
100
AcDbEntity
8
FRAME
370
13
100
AcDbLine
10
72962.5
20
0
30
0
11
72962.5
21
1000
31
0
0
TEXT
5
16A
330
10E
100
AcDbEntity
8
FRAME
100
AcDbText
10
78031.25
20
58900
30
0
40
250
1
8
7
STANDARD
72
1
11
78031.25
21
58900
31
0
100
AcDbText
73
2
0
TEXT
5
16B
330
10E
100
AcDbEntity
8
FRAME
100
AcDbText
10
78031.25
20
500
30
0
40
250
1
8
7
STANDARD
72
1
11
78031.25
21
500
31
0
100
AcDbText
73
2
0
LINE
5
16C
330
10E
100
AcDbEntity
8
FRAME
370
13
100
AcDbLine
10
83100
20
58400
30
0
11
83100
21
59400
31
0
0
LINE
5
16D
330
10E
100
AcDbEntity
8
FRAME
370
13
100
AcDbLine
10
83100
20
0
30
0
11
83100
21
1000
31
0
0
LINE
5
16E
330
10E
100
AcDbEntity
8
FRAME
370
13
100
AcDbLine
10
0
20
1000
30
0
11
2000
21
1000
31
0
0
LINE
5
16F
330
10E
100
AcDbEntity
8
FRAME
370
13
100
AcDbLine
10
83100
20
1000
30
0
11
84100
21
1000
31
0
0
TEXT
5
170
330
10E
100
AcDbEntity
8
FRAME
100
AcDbText
10
1000
20
5783.333333
30
0
40
250
1
F
7
STANDARD
72
1
11
1000
21
5783.333333
31
0
100
AcDbText
73
2
0
TEXT
5
171
330
10E
100
AcDbEntity
8
FRAME
100
AcDbText
10
83600
20
5783.333333
30
0
40
250
1
F
7
STANDARD
72
1
11
83600
21
5783.333333
31
0
100
AcDbText
73
2
0
LINE
5
172
330
10E
100
AcDbEntity
8
FRAME
370
13
100
AcDbLine
10
0
20
10566.666667
30
0
11
2000
21
10566.666667
31
0
0
LINE
5
173
330
10E
100
AcDbEntity
8
FRAME
370
13
100
AcDbLine
10
83100
20
10566.666667
30
0
11
84100
21
10566.666667
31
0
0
TEXT
5
174
330
10E
100
AcDbEntity
8
FRAME
100
AcDbText
10
1000
20
15350
30
0
40
250
1
E
7
STANDARD
72
1
11
1000
21
15350
31
0
100
AcDbText
73
2
0
TEXT
5
175
330
10E
100
AcDbEntity
8
FRAME
100
AcDbText
10
83600
20
15350
30
0
40
250
1
E
7
STANDARD
72
1
11
83600
21
15350
31
0
100
AcDbText
73
2
0
LINE
5
176
330
10E
100
AcDbEntity
8
FRAME
370
13
100
AcDbLine
10
0
20
20133.333333
30
0
11
2000
21
20133.333333
31
0
0
LINE
5
177
330
10E
100
AcDbEntity
8
FRAME
370
13
100
AcDbLine
10
83100
20
20133.333333
30
0
11
84100
21
20133.333333
31
0
0
TEXT
5
178
330
10E
100
AcDbEntity
8
FRAME
100
AcDbText
10
1000
20
24916.666667
30
0
40
250
1
D
7
STANDARD
72
1
11
1000
21
24916.666667
31
0
100
AcDbText
73
2
0
TEXT
5
179
330
10E
100
AcDbEntity
8
FRAME
100
AcDbText
10
83600
20
24916.666667
30
0
40
250
1
D
7
STANDARD
72
1
11
83600
21
24916.666667
31
0
100
AcDbText
73
2
0
LINE
5
17A
330
10E
100
AcDbEntity
8
FRAME
370
13
100
AcDbLine
10
0
20
29700
30
0
11
2000
21
29700
31
0
0
LINE
5
17B
330
10E
100
AcDbEntity
8
FRAME
370
13
100
AcDbLine
10
83100
20
29700
30
0
11
84100
21
29700
31
0
0
TEXT
5
17C
330
10E
100
AcDbEntity
8
FRAME
100
AcDbText
10
1000
20
34483.333333
30
0
40
250
1
C
7
STANDARD
72
1
11
1000
21
34483.333333
31
0
100
AcDbText
73
2
0
TEXT
5
17D
330
10E
100
AcDbEntity
8
FRAME
100
AcDbText
10
83600
20
34483.333333
30
0
40
250
1
C
7
STANDARD
72
1
11
83600
21
34483.333333
31
0
100
AcDbText
73
2
0
LINE
5
17E
330
10E
100
AcDbEntity
8
FRAME
370
13
100
AcDbLine
10
0
20
39266.666667
30
0
11
2000
21
39266.666667
31
0
0
LINE
5
17F
330
10E
100
AcDbEntity
8
FRAME
370
13
100
AcDbLine
10
83100
20
39266.666667
30
0
11
84100
21
39266.666667
31
0
0
TEXT
5
180
330
10E
100
AcDbEntity
8
FRAME
100
AcDbText
10
1000
20
44050
30
0
40
250
1
B
7
STANDARD
72
1
11
1000
21
44050
31
0
100
AcDbText
73
2
0
TEXT
5
181
330
10E
100
AcDbEntity
8
FRAME
100
AcDbText
10
83600
20
44050
30
0
40
250
1
B
7
STANDARD
72
1
11
83600
21
44050
31
0
100
AcDbText
73
2
0
LINE
5
182
330
10E
100
AcDbEntity
8
FRAME
370
13
100
AcDbLine
10
0
20
48833.333333
30
0
11
2000
21
48833.333333
31
0
0
LINE
5
183
330
10E
100
AcDbEntity
8
FRAME
370
13
100
AcDbLine
10
83100
20
48833.333333
30
0
11
84100
21
48833.333333
31
0
0
TEXT
5
184
330
10E
100
AcDbEntity
8
FRAME
100
AcDbText
10
1000
20
53616.666667
30
0
40
250
1
A
7
STANDARD
72
1
11
1000
21
53616.666667
31
0
100
AcDbText
73
2
0
TEXT
5
185
330
10E
100
AcDbEntity
8
FRAME
100
AcDbText
10
83600
20
53616.666667
30
0
40
250
1
A
7
STANDARD
72
1
11
83600
21
53616.666667
31
0
100
AcDbText
73
2
0
LINE
5
186
330
10E
100
AcDbEntity
8
FRAME
370
13
100
AcDbLine
10
0
20
58400
30
0
11
2000
21
58400
31
0
0
LINE
5
187
330
10E
100
AcDbEntity
8
FRAME
370
13
100
AcDbLine
10
83100
20
58400
30
0
11
84100
21
58400
31
0
0
LINE
5
188
330
10E
100
AcDbEntity
8
FRAME
100
AcDbLine
10
64600
20
1000
30
0
11
64600
21
58400
31
0
0
LINE
5
189
330
10E
100
AcDbEntity
8
FRAME
100
AcDbLine
10
2000
20
13500
30
0
11
64600
21
13500
31
0
0
LINE
5
18A
330
10E
100
AcDbEntity
8
FRAME
100
AcDbLine
10
64600
20
13500
30
0
11
83100
21
13500
31
0
0
LINE
5
18B
330
10E
100
AcDbEntity
8
FRAME
100
AcDbLine
10
64600
20
38600
30
0
11
83100
21
38600
31
0
0
LINE
5
18C
330
10E
100
AcDbEntity
8
GRID
100
AcDbLine
10
18550
20
19950
30
0
11
18550
21
51950
31
0
0
CIRCLE
5
18D
330
10E
100
AcDbEntity
8
GRID-BUBBLE
100
AcDbCircle
10
18550
20
52350
30
0
40
400
0
TEXT
5
18E
330
10E
100
AcDbEntity
8
TEXT
100
AcDbText
10
18550
20
52350
30
0
40
320
1
A
7
STANDARD
72
1
11
18550
21
52350
31
0
100
AcDbText
73
2
0
LINE
5
18F
330
10E
100
AcDbEntity
8
GRID
100
AcDbLine
10
26050
20
19950
30
0
11
26050
21
51950
31
0
0
CIRCLE
5
190
330
10E
100
AcDbEntity
8
GRID-BUBBLE
100
AcDbCircle
10
26050
20
52350
30
0
40
400
0
TEXT
5
191
330
10E
100
AcDbEntity
8
TEXT
100
AcDbText
10
26050
20
52350
30
0
40
320
1
B
7
STANDARD
72
1
11
26050
21
52350
31
0
100
AcDbText
73
2
0
LINE
5
192
330
10E
100
AcDbEntity
8
GRID
100
AcDbLine
10
33550
20
19950
30
0
11
33550
21
51950
31
0
0
CIRCLE
5
193
330
10E
100
AcDbEntity
8
GRID-BUBBLE
100
AcDbCircle
10
33550
20
52350
30
0
40
400
0
TEXT
5
194
330
10E
100
AcDbEntity
8
TEXT
100
AcDbText
10
33550
20
52350
30
0
40
320
1
C
7
STANDARD
72
1
11
33550
21
52350
31
0
100
AcDbText
73
2
0
LINE
5
195
330
10E
100
AcDbEntity
8
GRID
100
AcDbLine
10
41050
20
19950
30
0
11
41050
21
51950
31
0
0
CIRCLE
5
196
330
10E
100
AcDbEntity
8
GRID-BUBBLE
100
AcDbCircle
10
41050
20
52350
30
0
40
400
0
TEXT
5
197
330
10E
100
AcDbEntity
8
TEXT
100
AcDbText
10
41050
20
52350
30
0
40
320
1
D
7
STANDARD
72
1
11
41050
21
52350
31
0
100
AcDbText
73
2
0
LINE
5
198
330
10E
100
AcDbEntity
8
GRID
100
AcDbLine
10
48550
20
19950
30
0
11
48550
21
51950
31
0
0
CIRCLE
5
199
330
10E
100
AcDbEntity
8
GRID-BUBBLE
100
AcDbCircle
10
48550
20
52350
30
0
40
400
0
TEXT
5
19A
330
10E
100
AcDbEntity
8
TEXT
100
AcDbText
10
48550
20
52350
30
0
40
320
1
E
7
STANDARD
72
1
11
48550
21
52350
31
0
100
AcDbText
73
2
0
LINE
5
19B
330
10E
100
AcDbEntity
8
GRID
100
AcDbLine
10
14050
20
23950
30
0
11
52550
21
23950
31
0
0
CIRCLE
5
19C
330
10E
100
AcDbEntity
8
GRID-BUBBLE
100
AcDbCircle
10
13650
20
23950
30
0
40
400
0
TEXT
5
19D
330
10E
100
AcDbEntity
8
TEXT
100
AcDbText
10
13650
20
23950
30
0
40
320
1
1
7
STANDARD
72
1
11
13650
21
23950
31
0
100
AcDbText
73
2
0
LINE
5
19E
330
10E
100
AcDbEntity
8
GRID
100
AcDbLine
10
14050
20
31950
30
0
11
52550
21
31950
31
0
0
CIRCLE
5
19F
330
10E
100
AcDbEntity
8
GRID-BUBBLE
100
AcDbCircle
10
13650
20
31950
30
0
40
400
0
TEXT
5
1A0
330
10E
100
AcDbEntity
8
TEXT
100
AcDbText
10
13650
20
31950
30
0
40
320
1
2
7
STANDARD
72
1
11
13650
21
31950
31
0
100
AcDbText
73
2
0
LINE
5
1A1
330
10E
100
AcDbEntity
8
GRID
100
AcDbLine
10
14050
20
39950
30
0
11
52550
21
39950
31
0
0
CIRCLE
5
1A2
330
10E
100
AcDbEntity
8
GRID-BUBBLE
100
AcDbCircle
10
13650
20
39950
30
0
40
400
0
TEXT
5
1A3
330
10E
100
AcDbEntity
8
TEXT
100
AcDbText
10
13650
20
39950
30
0
40
320
1
3
7
STANDARD
72
1
11
13650
21
39950
31
0
100
AcDbText
73
2
0
LINE
5
1A4
330
10E
100
AcDbEntity
8
GRID
100
AcDbLine
10
14050
20
47950
30
0
11
52550
21
47950
31
0
0
CIRCLE
5
1A5
330
10E
100
AcDbEntity
8
GRID-BUBBLE
100
AcDbCircle
10
13650
20
47950
30
0
40
400
0
TEXT
5
1A6
330
10E
100
AcDbEntity
8
TEXT
100
AcDbText
10
13650
20
47950
30
0
40
320
1
4
7
STANDARD
72
1
11
13650
21
47950
31
0
100
AcDbText
73
2
0
LINE
5
1A7
330
10E
100
AcDbEntity
8
DIM
100
AcDbLine
10
18550
20
20750
30
0
11
18550
21
20300
31
0
0
LINE
5
1A8
330
10E
100
AcDbEntity
8
DIM
100
AcDbLine
10
26050
20
20750
30
0
11
26050
21
20300
31
0
0
LINE
5
1A9
330
10E
100
AcDbEntity
8
DIM
100
AcDbLine
10
18550
20
20150
30
0
11
26050
21
20150
31
0
0
LINE
5
1AA
330
10E
100
AcDbEntity
8
DIM
100
AcDbLine
10
18480
20
20080
30
0
11
18620
21
20220
31
0
0
LINE
5
1AB
330
10E
100
AcDbEntity
8
DIM
100
AcDbLine
10
25980
20
20080
30
0
11
26120
21
20220
31
0
0
TEXT
5
1AC
330
10E
100
AcDbEntity
8
DIM
100
AcDbText
10
22300
20
20230
30
0
40
200
1
7500
7
STANDARD
72
1
11
22300
21
20230
31
0
100
AcDbText
73
0
0
LINE
5
1AD
330
10E
100
AcDbEntity
8
DIM
100
AcDbLine
10
26050
20
20750
30
0
11
26050
21
20300
31
0
0
LINE
5
1AE
330
10E
100
AcDbEntity
8
DIM
100
AcDbLine
10
33550
20
20750
30
0
11
33550
21
20300
31
0
0
LINE
5
1AF
330
10E
100
AcDbEntity
8
DIM
100
AcDbLine
10
26050
20
20150
30
0
11
33550
21
20150
31
0
0
LINE
5
1B0
330
10E
100
AcDbEntity
8
DIM
100
AcDbLine
10
25980
20
20080
30
0
11
26120
21
20220
31
0
0
LINE
5
1B1
330
10E
100
AcDbEntity
8
DIM
100
AcDbLine
10
33480
20
20080
30
0
11
33620
21
20220
31
0
0
TEXT
5
1B2
330
10E
100
AcDbEntity
8
DIM
100
AcDbText
10
29800
20
20230
30
0
40
200
1
7500
7
STANDARD
72
1
11
29800
21
20230
31
0
100
AcDbText
73
0
0
LINE
5
1B3
330
10E
100
AcDbEntity
8
DIM
100
AcDbLine
10
33550
20
20750
30
0
11
33550
21
20300
31
0
0
LINE
5
1B4
330
10E
100
AcDbEntity
8
DIM
100
AcDbLine
10
41050
20
20750
30
0
11
41050
21
20300
31
0
0
LINE
5
1B5
330
10E
100
AcDbEntity
8
DIM
100
AcDbLine
10
33550
20
20150
30
0
11
41050
21
20150
31
0
0
LINE
5
1B6
330
10E
100
AcDbEntity
8
DIM
100
AcDbLine
10
33480
20
20080
30
0
11
33620
21
20220
31
0
0
LINE
5
1B7
330
10E
100
AcDbEntity
8
DIM
100
AcDbLine
10
40980
20
20080
30
0
11
41120
21
20220
31
0
0
TEXT
5
1B8
330
10E
100
AcDbEntity
8
DIM
100
AcDbText
10
37300
20
20230
30
0
40
200
1
7500
7
STANDARD
72
1
11
37300
21
20230
31
0
100
AcDbText
73
0
0
LINE
5
1B9
330
10E
100
AcDbEntity
8
DIM
100
AcDbLine
10
41050
20
20750
30
0
11
41050
21
20300
31
0
0
LINE
5
1BA
330
10E
100
AcDbEntity
8
DIM
100
AcDbLine
10
48550
20
20750
30
0
11
48550
21
20300
31
0
0
LINE
5
1BB
330
10E
100
AcDbEntity
8
DIM
100
AcDbLine
10
41050
20
20150
30
0
11
48550
21
20150
31
0
0
LINE
5
1BC
330
10E
100
AcDbEntity
8
DIM
100
AcDbLine
10
40980
20
20080
30
0
11
41120
21
20220
31
0
0
LINE
5
1BD
330
10E
100
AcDbEntity
8
DIM
100
AcDbLine
10
48480
20
20080
30
0
11
48620
21
20220
31
0
0
TEXT
5
1BE
330
10E
100
AcDbEntity
8
DIM
100
AcDbText
10
44800
20
20230
30
0
40
200
1
7500
7
STANDARD
72
1
11
44800
21
20230
31
0
100
AcDbText
73
0
0
LINE
5
1BF
330
10E
100
AcDbEntity
8
DIM
100
AcDbLine
10
18550
20
20750
30
0
11
18550
21
19600
31
0
0
LINE
5
1C0
330
10E
100
AcDbEntity
8
DIM
100
AcDbLine
10
48550
20
20750
30
0
11
48550
21
19600
31
0
0
LINE
5
1C1
330
10E
100
AcDbEntity
8
DIM
100
AcDbLine
10
18550
20
19450
30
0
11
48550
21
19450
31
0
0
LINE
5
1C2
330
10E
100
AcDbEntity
8
DIM
100
AcDbLine
10
18480
20
19380
30
0
11
18620
21
19520
31
0
0
LINE
5
1C3
330
10E
100
AcDbEntity
8
DIM
100
AcDbLine
10
48480
20
19380
30
0
11
48620
21
19520
31
0
0
TEXT
5
1C4
330
10E
100
AcDbEntity
8
DIM
100
AcDbText
10
33550
20
19530
30
0
40
200
1
30000
7
STANDARD
72
1
11
33550
21
19530
31
0
100
AcDbText
73
0
0
LINE
5
1C5
330
10E
100
AcDbEntity
8
DIM
100
AcDbLine
10
51750
20
23950
30
0
11
52200
21
23950
31
0
0
LINE
5
1C6
330
10E
100
AcDbEntity
8
DIM
100
AcDbLine
10
51750
20
31950
30
0
11
52200
21
31950
31
0
0
LINE
5
1C7
330
10E
100
AcDbEntity
8
DIM
100
AcDbLine
10
52350
20
23950
30
0
11
52350
21
31950
31
0
0
LINE
5
1C8
330
10E
100
AcDbEntity
8
DIM
100
AcDbLine
10
52420
20
23880
30
0
11
52280
21
24020
31
0
0
LINE
5
1C9
330
10E
100
AcDbEntity
8
DIM
100
AcDbLine
10
52420
20
31880
30
0
11
52280
21
32020
31
0
0
TEXT
5
1CA
330
10E
100
AcDbEntity
8
DIM
100
AcDbText
10
52270
20
27950
30
0
40
200
1
8000
50
90
7
STANDARD
72
1
11
52270
21
27950
31
0
100
AcDbText
73
0
0
LINE
5
1CB
330
10E
100
AcDbEntity
8
DIM
100
AcDbLine
10
51750
20
31950
30
0
11
52200
21
31950
31
0
0
LINE
5
1CC
330
10E
100
AcDbEntity
8
DIM
100
AcDbLine
10
51750
20
39950
30
0
11
52200
21
39950
31
0
0
LINE
5
1CD
330
10E
100
AcDbEntity
8
DIM
100
AcDbLine
10
52350
20
31950
30
0
11
52350
21
39950
31
0
0
LINE
5
1CE
330
10E
100
AcDbEntity
8
DIM
100
AcDbLine
10
52420
20
31880
30
0
11
52280
21
32020
31
0
0
LINE
5
1CF
330
10E
100
AcDbEntity
8
DIM
100
AcDbLine
10
52420
20
39880
30
0
11
52280
21
40020
31
0
0
TEXT
5
1D0
330
10E
100
AcDbEntity
8
DIM
100
AcDbText
10
52270
20
35950
30
0
40
200
1
8000
50
90
7
STANDARD
72
1
11
52270
21
35950
31
0
100
AcDbText
73
0
0
LINE
5
1D1
330
10E
100
AcDbEntity
8
DIM
100
AcDbLine
10
51750
20
39950
30
0
11
52200
21
39950
31
0
0
LINE
5
1D2
330
10E
100
AcDbEntity
8
DIM
100
AcDbLine
10
51750
20
47950
30
0
11
52200
21
47950
31
0
0
LINE
5
1D3
330
10E
100
AcDbEntity
8
DIM
100
AcDbLine
10
52350
20
39950
30
0
11
52350
21
47950
31
0
0
LINE
5
1D4
330
10E
100
AcDbEntity
8
DIM
100
AcDbLine
10
52420
20
39880
30
0
11
52280
21
40020
31
0
0
LINE
5
1D5
330
10E
100
AcDbEntity
8
DIM
100
AcDbLine
10
52420
20
47880
30
0
11
52280
21
48020
31
0
0
TEXT
5
1D6
330
10E
100
AcDbEntity
8
DIM
100
AcDbText
10
52270
20
43950
30
0
40
200
1
8000
50
90
7
STANDARD
72
1
11
52270
21
43950
31
0
100
AcDbText
73
0
0
LINE
5
1D7
330
10E
100
AcDbEntity
8
DIM
100
AcDbLine
10
51750
20
23950
30
0
11
52900
21
23950
31
0
0
LINE
5
1D8
330
10E
100
AcDbEntity
8
DIM
100
AcDbLine
10
51750
20
47950
30
0
11
52900
21
47950
31
0
0
LINE
5
1D9
330
10E
100
AcDbEntity
8
DIM
100
AcDbLine
10
53050
20
23950
30
0
11
53050
21
47950
31
0
0
LINE
5
1DA
330
10E
100
AcDbEntity
8
DIM
100
AcDbLine
10
53120
20
23880
30
0
11
52980
21
24020
31
0
0
LINE
5
1DB
330
10E
100
AcDbEntity
8
DIM
100
AcDbLine
10
53120
20
47880
30
0
11
52980
21
48020
31
0
0
TEXT
5
1DC
330
10E
100
AcDbEntity
8
DIM
100
AcDbText
10
52970
20
35950
30
0
40
200
1
24000
50
90
7
STANDARD
72
1
11
52970
21
35950
31
0
100
AcDbText
73
0
0
LWPOLYLINE
5
1DD
330
10E
100
AcDbEntity
8
OUTLINE
100
AcDbPolyline
90
6
70
1
43
0
10
17050
20
22950
10
49550
20
22950
10
49550
20
43950
10
44550
20
43950
10
44550
20
48950
10
17050
20
48950
0
LWPOLYLINE
5
1DE
330
10E
100
AcDbEntity
8
PT-ZONE
100
AcDbPolyline
90
6
70
1
43
0
10
17050
20
22950
10
49550
20
22950
10
49550
20
43950
10
44550
20
43950
10
44550
20
48950
10
17050
20
48950
0
TEXT
5
1DF
330
10E
100
AcDbEntity
8
PT-ZONE
100
AcDbText
10
17650
20
48050
30
0
40
220
1
PT1 - PT SLAB ZONE
7
STANDARD
72
0
100
AcDbText
73
0
0
LWPOLYLINE
5
1E0
330
10E
100
AcDbEntity
8
COLUMN
100
AcDbPolyline
90
4
70
1
43
0
10
18250
20
47650
10
18850
20
47650
10
18850
20
48250
10
18250
20
48250
0
HATCH
5
1E1
330
10E
100
AcDbEntity
8
COLUMN-HATCH
100
AcDbHatch
10
0
20
0
30
0
210
0
220
0
230
1
2
ANSI31
70
0
71
0
91
1
92
3
72
0
73
1
93
4
10
18250
20
47650
10
18850
20
47650
10
18850
20
48250
10
18250
20
48250
97
0
75
1
76
1
52
0
41
37.795276
77
0
78
1
53
45
43
0
44
0
45
-84.852814
46
84.852814
79
0
47
1
98
0
0
TEXT
5
1E2
330
10E
100
AcDbEntity
8
TEXT
100
AcDbText
10
19000
20
48400
30
0
40
160
1
A/4
7
STANDARD
72
0
100
AcDbText
73
0
0
LWPOLYLINE
5
1E3
330
10E
100
AcDbEntity
8
COLUMN
100
AcDbPolyline
90
4
70
1
43
0
10
25750
20
47650
10
26350
20
47650
10
26350
20
48250
10
25750
20
48250
0
HATCH
5
1E4
330
10E
100
AcDbEntity
8
COLUMN-HATCH
100
AcDbHatch
10
0
20
0
30
0
210
0
220
0
230
1
2
ANSI31
70
0
71
0
91
1
92
3
72
0
73
1
93
4
10
25750
20
47650
10
26350
20
47650
10
26350
20
48250
10
25750
20
48250
97
0
75
1
76
1
52
0
41
37.795276
77
0
78
1
53
45
43
0
44
0
45
-84.852814
46
84.852814
79
0
47
1
98
0
0
TEXT
5
1E5
330
10E
100
AcDbEntity
8
TEXT
100
AcDbText
10
26500
20
48400
30
0
40
160
1
B/4
7
STANDARD
72
0
100
AcDbText
73
0
0
LWPOLYLINE
5
1E6
330
10E
100
AcDbEntity
8
COLUMN
100
AcDbPolyline
90
4
70
1
43
0
10
33250
20
47650
10
33850
20
47650
10
33850
20
48250
10
33250
20
48250
0
HATCH
5
1E7
330
10E
100
AcDbEntity
8
COLUMN-HATCH
100
AcDbHatch
10
0
20
0
30
0
210
0
220
0
230
1
2
ANSI31
70
0
71
0
91
1
92
3
72
0
73
1
93
4
10
33250
20
47650
10
33850
20
47650
10
33850
20
48250
10
33250
20
48250
97
0
75
1
76
1
52
0
41
37.795276
77
0
78
1
53
45
43
0
44
0
45
-84.852814
46
84.852814
79
0
47
1
98
0
0
TEXT
5
1E8
330
10E
100
AcDbEntity
8
TEXT
100
AcDbText
10
34000
20
48400
30
0
40
160
1
C/4
7
STANDARD
72
0
100
AcDbText
73
0
0
LWPOLYLINE
5
1E9
330
10E
100
AcDbEntity
8
COLUMN
100
AcDbPolyline
90
4
70
1
43
0
10
40750
20
47650
10
41350
20
47650
10
41350
20
48250
10
40750
20
48250
0
HATCH
5
1EA
330
10E
100
AcDbEntity
8
COLUMN-HATCH
100
AcDbHatch
10
0
20
0
30
0
210
0
220
0
230
1
2
ANSI31
70
0
71
0
91
1
92
3
72
0
73
1
93
4
10
40750
20
47650
10
41350
20
47650
10
41350
20
48250
10
40750
20
48250
97
0
75
1
76
1
52
0
41
37.795276
77
0
78
1
53
45
43
0
44
0
45
-84.852814
46
84.852814
79
0
47
1
98
0
0
TEXT
5
1EB
330
10E
100
AcDbEntity
8
TEXT
100
AcDbText
10
41500
20
48400
30
0
40
160
1
D/4
7
STANDARD
72
0
100
AcDbText
73
0
0
LWPOLYLINE
5
1EC
330
10E
100
AcDbEntity
8
COLUMN
100
AcDbPolyline
90
4
70
1
43
0
10
18250
20
39650
10
18850
20
39650
10
18850
20
40250
10
18250
20
40250
0
HATCH
5
1ED
330
10E
100
AcDbEntity
8
COLUMN-HATCH
100
AcDbHatch
10
0
20
0
30
0
210
0
220
0
230
1
2
ANSI31
70
0
71
0
91
1
92
3
72
0
73
1
93
4
10
18250
20
39650
10
18850
20
39650
10
18850
20
40250
10
18250
20
40250
97
0
75
1
76
1
52
0
41
37.795276
77
0
78
1
53
45
43
0
44
0
45
-84.852814
46
84.852814
79
0
47
1
98
0
0
TEXT
5
1EE
330
10E
100
AcDbEntity
8
TEXT
100
AcDbText
10
19000
20
40400
30
0
40
160
1
A/3
7
STANDARD
72
0
100
AcDbText
73
0
0
LWPOLYLINE
5
1EF
330
10E
100
AcDbEntity
8
COLUMN
100
AcDbPolyline
90
4
70
1
43
0
10
25750
20
39650
10
26350
20
39650
10
26350
20
40250
10
25750
20
40250
0
HATCH
5
1F0
330
10E
100
AcDbEntity
8
COLUMN-HATCH
100
AcDbHatch
10
0
20
0
30
0
210
0
220
0
230
1
2
ANSI31
70
0
71
0
91
1
92
3
72
0
73
1
93
4
10
25750
20
39650
10
26350
20
39650
10
26350
20
40250
10
25750
20
40250
97
0
75
1
76
1
52
0
41
37.795276
77
0
78
1
53
45
43
0
44
0
45
-84.852814
46
84.852814
79
0
47
1
98
0
0
TEXT
5
1F1
330
10E
100
AcDbEntity
8
TEXT
100
AcDbText
10
26500
20
40400
30
0
40
160
1
B/3
7
STANDARD
72
0
100
AcDbText
73
0
0
LWPOLYLINE
5
1F2
330
10E
100
AcDbEntity
8
COLUMN
100
AcDbPolyline
90
4
70
1
43
0
10
33250
20
39650
10
33850
20
39650
10
33850
20
40250
10
33250
20
40250
0
HATCH
5
1F3
330
10E
100
AcDbEntity
8
COLUMN-HATCH
100
AcDbHatch
10
0
20
0
30
0
210
0
220
0
230
1
2
ANSI31
70
0
71
0
91
1
92
3
72
0
73
1
93
4
10
33250
20
39650
10
33850
20
39650
10
33850
20
40250
10
33250
20
40250
97
0
75
1
76
1
52
0
41
37.795276
77
0
78
1
53
45
43
0
44
0
45
-84.852814
46
84.852814
79
0
47
1
98
0
0
TEXT
5
1F4
330
10E
100
AcDbEntity
8
TEXT
100
AcDbText
10
34000
20
40400
30
0
40
160
1
C/3
7
STANDARD
72
0
100
AcDbText
73
0
0
LWPOLYLINE
5
1F5
330
10E
100
AcDbEntity
8
COLUMN
100
AcDbPolyline
90
4
70
1
43
0
10
40750
20
39650
10
41350
20
39650
10
41350
20
40250
10
40750
20
40250
0
HATCH
5
1F6
330
10E
100
AcDbEntity
8
COLUMN-HATCH
100
AcDbHatch
10
0
20
0
30
0
210
0
220
0
230
1
2
ANSI31
70
0
71
0
91
1
92
3
72
0
73
1
93
4
10
40750
20
39650
10
41350
20
39650
10
41350
20
40250
10
40750
20
40250
97
0
75
1
76
1
52
0
41
37.795276
77
0
78
1
53
45
43
0
44
0
45
-84.852814
46
84.852814
79
0
47
1
98
0
0
TEXT
5
1F7
330
10E
100
AcDbEntity
8
TEXT
100
AcDbText
10
41500
20
40400
30
0
40
160
1
D/3
7
STANDARD
72
0
100
AcDbText
73
0
0
LWPOLYLINE
5
1F8
330
10E
100
AcDbEntity
8
COLUMN
100
AcDbPolyline
90
4
70
1
43
0
10
48250
20
39650
10
48850
20
39650
10
48850
20
40250
10
48250
20
40250
0
HATCH
5
1F9
330
10E
100
AcDbEntity
8
COLUMN-HATCH
100
AcDbHatch
10
0
20
0
30
0
210
0
220
0
230
1
2
ANSI31
70
0
71
0
91
1
92
3
72
0
73
1
93
4
10
48250
20
39650
10
48850
20
39650
10
48850
20
40250
10
48250
20
40250
97
0
75
1
76
1
52
0
41
37.795276
77
0
78
1
53
45
43
0
44
0
45
-84.852814
46
84.852814
79
0
47
1
98
0
0
TEXT
5
1FA
330
10E
100
AcDbEntity
8
TEXT
100
AcDbText
10
49000
20
40400
30
0
40
160
1
E/3
7
STANDARD
72
0
100
AcDbText
73
0
0
LWPOLYLINE
5
1FB
330
10E
100
AcDbEntity
8
COLUMN
100
AcDbPolyline
90
4
70
1
43
0
10
18250
20
31650
10
18850
20
31650
10
18850
20
32250
10
18250
20
32250
0
HATCH
5
1FC
330
10E
100
AcDbEntity
8
COLUMN-HATCH
100
AcDbHatch
10
0
20
0
30
0
210
0
220
0
230
1
2
ANSI31
70
0
71
0
91
1
92
3
72
0
73
1
93
4
10
18250
20
31650
10
18850
20
31650
10
18850
20
32250
10
18250
20
32250
97
0
75
1
76
1
52
0
41
37.795276
77
0
78
1
53
45
43
0
44
0
45
-84.852814
46
84.852814
79
0
47
1
98
0
0
TEXT
5
1FD
330
10E
100
AcDbEntity
8
TEXT
100
AcDbText
10
19000
20
32400
30
0
40
160
1
A/2
7
STANDARD
72
0
100
AcDbText
73
0
0
LWPOLYLINE
5
1FE
330
10E
100
AcDbEntity
8
COLUMN
100
AcDbPolyline
90
4
70
1
43
0
10
25750
20
31650
10
26350
20
31650
10
26350
20
32250
10
25750
20
32250
0
HATCH
5
1FF
330
10E
100
AcDbEntity
8
COLUMN-HATCH
100
AcDbHatch
10
0
20
0
30
0
210
0
220
0
230
1
2
ANSI31
70
0
71
0
91
1
92
3
72
0
73
1
93
4
10
25750
20
31650
10
26350
20
31650
10
26350
20
32250
10
25750
20
32250
97
0
75
1
76
1
52
0
41
37.795276
77
0
78
1
53
45
43
0
44
0
45
-84.852814
46
84.852814
79
0
47
1
98
0
0
TEXT
5
200
330
10E
100
AcDbEntity
8
TEXT
100
AcDbText
10
26500
20
32400
30
0
40
160
1
B/2
7
STANDARD
72
0
100
AcDbText
73
0
0
LWPOLYLINE
5
201
330
10E
100
AcDbEntity
8
COLUMN
100
AcDbPolyline
90
4
70
1
43
0
10
33250
20
31650
10
33850
20
31650
10
33850
20
32250
10
33250
20
32250
0
HATCH
5
202
330
10E
100
AcDbEntity
8
COLUMN-HATCH
100
AcDbHatch
10
0
20
0
30
0
210
0
220
0
230
1
2
ANSI31
70
0
71
0
91
1
92
3
72
0
73
1
93
4
10
33250
20
31650
10
33850
20
31650
10
33850
20
32250
10
33250
20
32250
97
0
75
1
76
1
52
0
41
37.795276
77
0
78
1
53
45
43
0
44
0
45
-84.852814
46
84.852814
79
0
47
1
98
0
0
TEXT
5
203
330
10E
100
AcDbEntity
8
TEXT
100
AcDbText
10
34000
20
32400
30
0
40
160
1
C/2
7
STANDARD
72
0
100
AcDbText
73
0
0
LWPOLYLINE
5
204
330
10E
100
AcDbEntity
8
COLUMN
100
AcDbPolyline
90
4
70
1
43
0
10
40750
20
31650
10
41350
20
31650
10
41350
20
32250
10
40750
20
32250
0
HATCH
5
205
330
10E
100
AcDbEntity
8
COLUMN-HATCH
100
AcDbHatch
10
0
20
0
30
0
210
0
220
0
230
1
2
ANSI31
70
0
71
0
91
1
92
3
72
0
73
1
93
4
10
40750
20
31650
10
41350
20
31650
10
41350
20
32250
10
40750
20
32250
97
0
75
1
76
1
52
0
41
37.795276
77
0
78
1
53
45
43
0
44
0
45
-84.852814
46
84.852814
79
0
47
1
98
0
0
TEXT
5
206
330
10E
100
AcDbEntity
8
TEXT
100
AcDbText
10
41500
20
32400
30
0
40
160
1
D/2
7
STANDARD
72
0
100
AcDbText
73
0
0
LWPOLYLINE
5
207
330
10E
100
AcDbEntity
8
COLUMN
100
AcDbPolyline
90
4
70
1
43
0
10
48250
20
31650
10
48850
20
31650
10
48850
20
32250
10
48250
20
32250
0
HATCH
5
208
330
10E
100
AcDbEntity
8
COLUMN-HATCH
100
AcDbHatch
10
0
20
0
30
0
210
0
220
0
230
1
2
ANSI31
70
0
71
0
91
1
92
3
72
0
73
1
93
4
10
48250
20
31650
10
48850
20
31650
10
48850
20
32250
10
48250
20
32250
97
0
75
1
76
1
52
0
41
37.795276
77
0
78
1
53
45
43
0
44
0
45
-84.852814
46
84.852814
79
0
47
1
98
0
0
TEXT
5
209
330
10E
100
AcDbEntity
8
TEXT
100
AcDbText
10
49000
20
32400
30
0
40
160
1
E/2
7
STANDARD
72
0
100
AcDbText
73
0
0
LWPOLYLINE
5
20A
330
10E
100
AcDbEntity
8
COLUMN
100
AcDbPolyline
90
4
70
1
43
0
10
18250
20
23650
10
18850
20
23650
10
18850
20
24250
10
18250
20
24250
0
HATCH
5
20B
330
10E
100
AcDbEntity
8
COLUMN-HATCH
100
AcDbHatch
10
0
20
0
30
0
210
0
220
0
230
1
2
ANSI31
70
0
71
0
91
1
92
3
72
0
73
1
93
4
10
18250
20
23650
10
18850
20
23650
10
18850
20
24250
10
18250
20
24250
97
0
75
1
76
1
52
0
41
37.795276
77
0
78
1
53
45
43
0
44
0
45
-84.852814
46
84.852814
79
0
47
1
98
0
0
TEXT
5
20C
330
10E
100
AcDbEntity
8
TEXT
100
AcDbText
10
19000
20
24400
30
0
40
160
1
A/1
7
STANDARD
72
0
100
AcDbText
73
0
0
LWPOLYLINE
5
20D
330
10E
100
AcDbEntity
8
COLUMN
100
AcDbPolyline
90
4
70
1
43
0
10
25750
20
23650
10
26350
20
23650
10
26350
20
24250
10
25750
20
24250
0
HATCH
5
20E
330
10E
100
AcDbEntity
8
COLUMN-HATCH
100
AcDbHatch
10
0
20
0
30
0
210
0
220
0
230
1
2
ANSI31
70
0
71
0
91
1
92
3
72
0
73
1
93
4
10
25750
20
23650
10
26350
20
23650
10
26350
20
24250
10
25750
20
24250
97
0
75
1
76
1
52
0
41
37.795276
77
0
78
1
53
45
43
0
44
0
45
-84.852814
46
84.852814
79
0
47
1
98
0
0
TEXT
5
20F
330
10E
100
AcDbEntity
8
TEXT
100
AcDbText
10
26500
20
24400
30
0
40
160
1
B/1
7
STANDARD
72
0
100
AcDbText
73
0
0
LWPOLYLINE
5
210
330
10E
100
AcDbEntity
8
COLUMN
100
AcDbPolyline
90
4
70
1
43
0
10
33250
20
23650
10
33850
20
23650
10
33850
20
24250
10
33250
20
24250
0
HATCH
5
211
330
10E
100
AcDbEntity
8
COLUMN-HATCH
100
AcDbHatch
10
0
20
0
30
0
210
0
220
0
230
1
2
ANSI31
70
0
71
0
91
1
92
3
72
0
73
1
93
4
10
33250
20
23650
10
33850
20
23650
10
33850
20
24250
10
33250
20
24250
97
0
75
1
76
1
52
0
41
37.795276
77
0
78
1
53
45
43
0
44
0
45
-84.852814
46
84.852814
79
0
47
1
98
0
0
TEXT
5
212
330
10E
100
AcDbEntity
8
TEXT
100
AcDbText
10
34000
20
24400
30
0
40
160
1
C/1
7
STANDARD
72
0
100
AcDbText
73
0
0
LWPOLYLINE
5
213
330
10E
100
AcDbEntity
8
COLUMN
100
AcDbPolyline
90
4
70
1
43
0
10
40750
20
23650
10
41350
20
23650
10
41350
20
24250
10
40750
20
24250
0
HATCH
5
214
330
10E
100
AcDbEntity
8
COLUMN-HATCH
100
AcDbHatch
10
0
20
0
30
0
210
0
220
0
230
1
2
ANSI31
70
0
71
0
91
1
92
3
72
0
73
1
93
4
10
40750
20
23650
10
41350
20
23650
10
41350
20
24250
10
40750
20
24250
97
0
75
1
76
1
52
0
41
37.795276
77
0
78
1
53
45
43
0
44
0
45
-84.852814
46
84.852814
79
0
47
1
98
0
0
TEXT
5
215
330
10E
100
AcDbEntity
8
TEXT
100
AcDbText
10
41500
20
24400
30
0
40
160
1
D/1
7
STANDARD
72
0
100
AcDbText
73
0
0
LWPOLYLINE
5
216
330
10E
100
AcDbEntity
8
COLUMN
100
AcDbPolyline
90
4
70
1
43
0
10
48250
20
23650
10
48850
20
23650
10
48850
20
24250
10
48250
20
24250
0
HATCH
5
217
330
10E
100
AcDbEntity
8
COLUMN-HATCH
100
AcDbHatch
10
0
20
0
30
0
210
0
220
0
230
1
2
ANSI31
70
0
71
0
91
1
92
3
72
0
73
1
93
4
10
48250
20
23650
10
48850
20
23650
10
48850
20
24250
10
48250
20
24250
97
0
75
1
76
1
52
0
41
37.795276
77
0
78
1
53
45
43
0
44
0
45
-84.852814
46
84.852814
79
0
47
1
98
0
0
TEXT
5
218
330
10E
100
AcDbEntity
8
TEXT
100
AcDbText
10
49000
20
24400
30
0
40
160
1
E/1
7
STANDARD
72
0
100
AcDbText
73
0
0
LWPOLYLINE
5
219
330
10E
100
AcDbEntity
8
OPENING
100
AcDbPolyline
90
4
70
1
43
0
10
28050
20
33450
10
31050
20
33450
10
31050
20
38450
10
28050
20
38450
0
LINE
5
21A
330
10E
100
AcDbEntity
8
OPENING
100
AcDbLine
10
28050
20
33450
30
0
11
31050
21
38450
31
0
0
LINE
5
21B
330
10E
100
AcDbEntity
8
OPENING
100
AcDbLine
10
31050
20
33450
30
0
11
28050
21
38450
31
0
0
LWPOLYLINE
5
21C
330
10E
100
AcDbEntity
8
OPENING
100
AcDbPolyline
90
4
70
1
43
0
10
36050
20
26950
10
37850
20
26950
10
37850
20
28450
10
36050
20
28450
0
LINE
5
21D
330
10E
100
AcDbEntity
8
OPENING
100
AcDbLine
10
36050
20
26950
30
0
11
37850
21
28450
31
0
0
LINE
5
21E
330
10E
100
AcDbEntity
8
OPENING
100
AcDbLine
10
37850
20
26950
30
0
11
36050
21
28450
31
0
0
LWPOLYLINE
5
21F
330
10E
100
AcDbEntity
8
VOID
100
AcDbPolyline
90
4
70
1
43
0
10
20550
20
25950
10
24550
20
25950
10
24550
20
28950
10
20550
20
28950
0
HATCH
5
220
330
10E
100
AcDbEntity
8
VOID-HATCH
100
AcDbHatch
10
0
20
0
30
0
210
0
220
0
230
1
2
ANSI37
70
0
71
0
91
1
92
3
72
0
73
1
93
4
10
20550
20
25950
10
24550
20
25950
10
24550
20
28950
10
20550
20
28950
97
0
75
1
76
1
52
0
41
78.740157
77
0
78
2
53
45
43
0
44
0
45
-176.776695
46
176.776695
79
0
53
135
43
0
44
0
45
-176.776695
46
-176.776695
79
0
47
1
98
0
0
LWPOLYLINE
5
221
330
10E
100
AcDbEntity
8
VOID
100
AcDbPolyline
90
4
70
1
43
0
10
35550
20
41950
10
40550
20
41950
10
40550
20
45450
10
35550
20
45450
0
HATCH
5
222
330
10E
100
AcDbEntity
8
VOID-HATCH
100
AcDbHatch
10
0
20
0
30
0
210
0
220
0
230
1
2
ANSI37
70
0
71
0
91
1
92
3
72
0
73
1
93
4
10
35550
20
41950
10
40550
20
41950
10
40550
20
45450
10
35550
20
45450
97
0
75
1
76
1
52
0
41
78.740157
77
0
78
2
53
45
43
0
44
0
45
-176.776695
46
176.776695
79
0
53
135
43
0
44
0
45
-176.776695
46
-176.776695
79
0
47
1
98
0
0
CIRCLE
5
223
330
10E
100
AcDbEntity
8
TEXT
100
AcDbCircle
10
3600
20
56400
30
0
40
700
0
SOLID
5
224
330
10E
100
AcDbEntity
8
TEXT
100
AcDbTrace
10
3600
20
57000
30
0
11
3300
21
56000
31
0
12
3900
22
56000
32
0
13
3600
23
56250
33
0
0
TEXT
5
225
330
10E
100
AcDbEntity
8
TEXT
100
AcDbText
10
3600
20
57300
30
0
40
300
1
N
7
STANDARD
72
1
11
3600
21
57300
31
0
100
AcDbText
73
0
0
LINE
5
226
330
10E
100
AcDbEntity
8
REBAR-TOP
100
AcDbLine
10
17075
20
47275
30
0
11
20000
21
47275
31
0
0
LINE
5
227
330
10E
100
AcDbEntity
8
REBAR-TOP
100
AcDbLine
10
17075
20
47205
30
0
11
17075
21
47345
31
0
0
LINE
5
228
330
10E
100
AcDbEntity
8
REBAR-TOP
100
AcDbLine
10
20000
20
47205
30
0
11
20000
21
47345
31
0
0
LINE
5
229
330
10E
100
AcDbEntity
8
REBAR-TOP
100
AcDbLine
10
17075
20
47275
30
0
11
17075
21
47125
31
0
0
LINE
5
22A
330
10E
100
AcDbEntity
8
REBAR-TOP
100
AcDbLine
10
17075
20
47425
30
0
11
20000
21
47425
31
0
0
LINE
5
22B
330
10E
100
AcDbEntity
8
REBAR-TOP
100
AcDbLine
10
17075
20
47425
30
0
11
17075
21
47275
31
0
0
LINE
5
22C
330
10E
100
AcDbEntity
8
REBAR-TOP
100
AcDbLine
10
17075
20
47575
30
0
11
20000
21
47575
31
0
0
LINE
5
22D
330
10E
100
AcDbEntity
8
REBAR-TOP
100
AcDbLine
10
17075
20
47575
30
0
11
17075
21
47425
31
0
0
LINE
5
22E
330
10E
100
AcDbEntity
8
REBAR-TOP
100
AcDbLine
10
17075
20
47725
30
0
11
20000
21
47725
31
0
0
LINE
5
22F
330
10E
100
AcDbEntity
8
REBAR-TOP
100
AcDbLine
10
17075
20
47725
30
0
11
17075
21
47575
31
0
0
LINE
5
230
330
10E
100
AcDbEntity
8
REBAR-TOP
100
AcDbLine
10
17075
20
47875
30
0
11
20000
21
47875
31
0
0
LINE
5
231
330
10E
100
AcDbEntity
8
REBAR-TOP
100
AcDbLine
10
17075
20
47875
30
0
11
17075
21
47725
31
0
0
LINE
5
232
330
10E
100
AcDbEntity
8
REBAR-TOP
100
AcDbLine
10
17075
20
48025
30
0
11
20000
21
48025
31
0
0
LINE
5
233
330
10E
100
AcDbEntity
8
REBAR-TOP
100
AcDbLine
10
17075
20
48025
30
0
11
17075
21
47875
31
0
0
LINE
5
234
330
10E
100
AcDbEntity
8
REBAR-TOP
100
AcDbLine
10
17075
20
48175
30
0
11
20000
21
48175
31
0
0
LINE
5
235
330
10E
100
AcDbEntity
8
REBAR-TOP
100
AcDbLine
10
17075
20
48175
30
0
11
17075
21
48025
31
0
0
LINE
5
236
330
10E
100
AcDbEntity
8
REBAR-TOP
100
AcDbLine
10
17075
20
48325
30
0
11
20000
21
48325
31
0
0
LINE
5
237
330
10E
100
AcDbEntity
8
REBAR-TOP
100
AcDbLine
10
17075
20
48325
30
0
11
17075
21
48175
31
0
0
LINE
5
238
330
10E
100
AcDbEntity
8
REBAR-TOP
100
AcDbLine
10
17075
20
48475
30
0
11
20000
21
48475
31
0
0
LINE
5
239
330
10E
100
AcDbEntity
8
REBAR-TOP
100
AcDbLine
10
17075
20
48475
30
0
11
17075
21
48325
31
0
0
LINE
5
23A
330
10E
100
AcDbEntity
8
REBAR-TOP
100
AcDbLine
10
17075
20
48625
30
0
11
20000
21
48625
31
0
0
LINE
5
23B
330
10E
100
AcDbEntity
8
REBAR-TOP
100
AcDbLine
10
17075
20
48555
30
0
11
17075
21
48695
31
0
0
LINE
5
23C
330
10E
100
AcDbEntity
8
REBAR-TOP
100
AcDbLine
10
20000
20
48555
30
0
11
20000
21
48695
31
0
0
LINE
5
23D
330
10E
100
AcDbEntity
8
REBAR-TOP
100
AcDbLine
10
17075
20
48625
30
0
11
17075
21
48475
31
0
0
LINE
5
23E
330
10E
100
AcDbEntity
8
REBAR-TOP
100
AcDbLine
10
17875
20
46400
30
0
11
17875
21
48925
31
0
0
LINE
5
23F
330
10E
100
AcDbEntity
8
REBAR-TOP
100
AcDbLine
10
17945
20
46400
30
0
11
17805
21
46400
31
0
0
LINE
5
240
330
10E
100
AcDbEntity
8
REBAR-TOP
100
AcDbLine
10
17945
20
48925
30
0
11
17805
21
48925
31
0
0
LINE
5
241
330
10E
100
AcDbEntity
8
REBAR-TOP
100
AcDbLine
10
17875
20
48925
30
0
11
17725
21
48925
31
0
0
LINE
5
242
330
10E
100
AcDbEntity
8
REBAR-TOP
100
AcDbLine
10
18025
20
46400
30
0
11
18025
21
48925
31
0
0
LINE
5
243
330
10E
100
AcDbEntity
8
REBAR-TOP
100
AcDbLine
10
18025
20
48925
30
0
11
17875
21
48925
31
0
0
LINE
5
244
330
10E
100
AcDbEntity
8
REBAR-TOP
100
AcDbLine
10
18175
20
46400
30
0
11
18175
21
48925
31
0
0
LINE
5
245
330
10E
100
AcDbEntity
8
REBAR-TOP
100
AcDbLine
10
18175
20
48925
30
0
11
18025
21
48925
31
0
0
LINE
5
246
330
10E
100
AcDbEntity
8
REBAR-TOP
100
AcDbLine
10
18325
20
46400
30
0
11
18325
21
48925
31
0
0
LINE
5
247
330
10E
100
AcDbEntity
8
REBAR-TOP
100
AcDbLine
10
18325
20
48925
30
0
11
18175
21
48925
31
0
0
LINE
5
248
330
10E
100
AcDbEntity
8
REBAR-TOP
100
AcDbLine
10
18475
20
46400
30
0
11
18475
21
48925
31
0
0
LINE
5
249
330
10E
100
AcDbEntity
8
REBAR-TOP
100
AcDbLine
10
18475
20
48925
30
0
11
18325
21
48925
31
0
0
LINE
5
24A
330
10E
100
AcDbEntity
8
REBAR-TOP
100
AcDbLine
10
18625
20
46400
30
0
11
18625
21
48925
31
0
0
LINE
5
24B
330
10E
100
AcDbEntity
8
REBAR-TOP
100
AcDbLine
10
18625
20
48925
30
0
11
18475
21
48925
31
0
0
LINE
5
24C
330
10E
100
AcDbEntity
8
REBAR-TOP
100
AcDbLine
10
18775
20
46400
30
0
11
18775
21
48925
31
0
0
LINE
5
24D
330
10E
100
AcDbEntity
8
REBAR-TOP
100
AcDbLine
10
18775
20
48925
30
0
11
18625
21
48925
31
0
0
LINE
5
24E
330
10E
100
AcDbEntity
8
REBAR-TOP
100
AcDbLine
10
18925
20
46400
30
0
11
18925
21
48925
31
0
0
LINE
5
24F
330
10E
100
AcDbEntity
8
REBAR-TOP
100
AcDbLine
10
18925
20
48925
30
0
11
18775
21
48925
31
0
0
LINE
5
250
330
10E
100
AcDbEntity
8
REBAR-TOP
100
AcDbLine
10
19075
20
46400
30
0
11
19075
21
48925
31
0
0
LINE
5
251
330
10E
100
AcDbEntity
8
REBAR-TOP
100
AcDbLine
10
19075
20
48925
30
0
11
18925
21
48925
31
0
0
LINE
5
252
330
10E
100
AcDbEntity
8
REBAR-TOP
100
AcDbLine
10
19225
20
46400
30
0
11
19225
21
48925
31
0
0
LINE
5
253
330
10E
100
AcDbEntity
8
REBAR-TOP
100
AcDbLine
10
19295
20
46400
30
0
11
19155
21
46400
31
0
0
LINE
5
254
330
10E
100
AcDbEntity
8
REBAR-TOP
100
AcDbLine
10
19295
20
48925
30
0
11
19155
21
48925
31
0
0
LINE
5
255
330
10E
100
AcDbEntity
8
REBAR-TOP
100
AcDbLine
10
19225
20
48925
30
0
11
19075
21
48925
31
0
0
CIRCLE
5
256
330
10E
100
AcDbEntity
8
CALLOUT
100
AcDbCircle
10
20010
20
49220
30
0
40
360
0
TEXT
5
257
330
10E
100
AcDbEntity
8
CALLOUT
100
AcDbText
10
20010
20
49220
30
0
40
190
1
TC1
7
STANDARD
72
1
11
20010
21
49220
31
0
100
AcDbText
73
2
0
LINE
5
258
330
10E
100
AcDbEntity
8
CALLOUT
100
AcDbLine
10
19755.441559
20
48965.441559
30
0
11
19310
21
48520
31
0
0
TEXT
5
259
330
10E
100
AcDbEntity
8
REBAR-TEXT
100
AcDbText
10
20500
20
46100
30
0
40
170
1
TC1: 10T16 X-DIR L=3130 (L)
7
STANDARD
72
0
100
AcDbText
73
0
0
TEXT
5
25A
330
10E
100
AcDbEntity
8
REBAR-TEXT
100
AcDbText
10
20500
20
45860
30
0
40
170
1
      10T16 Y-DIR L=2730 (L)  @150 TOP
7
STANDARD
72
0
100
AcDbText
73
0
0
LINE
5
25B
330
10E
100
AcDbEntity
8
REBAR-TOP
100
AcDbLine
10
24600
20
47275
30
0
11
27500
21
47275
31
0
0
LINE
5
25C
330
10E
100
AcDbEntity
8
REBAR-TOP
100
AcDbLine
10
24600
20
47205
30
0
11
24600
21
47345
31
0
0
LINE
5
25D
330
10E
100
AcDbEntity
8
REBAR-TOP
100
AcDbLine
10
27500
20
47205
30
0
11
27500
21
47345
31
0
0
LINE
5
25E
330
10E
100
AcDbEntity
8
REBAR-TOP
100
AcDbLine
10
24600
20
47425
30
0
11
27500
21
47425
31
0
0
LINE
5
25F
330
10E
100
AcDbEntity
8
REBAR-TOP
100
AcDbLine
10
24600
20
47575
30
0
11
27500
21
47575
31
0
0
LINE
5
260
330
10E
100
AcDbEntity
8
REBAR-TOP
100
AcDbLine
10
24600
20
47725
30
0
11
27500
21
47725
31
0
0
LINE
5
261
330
10E
100
AcDbEntity
8
REBAR-TOP
100
AcDbLine
10
24600
20
47875
30
0
11
27500
21
47875
31
0
0
LINE
5
262
330
10E
100
AcDbEntity
8
REBAR-TOP
100
AcDbLine
10
24600
20
48025
30
0
11
27500
21
48025
31
0
0
LINE
5
263
330
10E
100
AcDbEntity
8
REBAR-TOP
100
AcDbLine
10
24600
20
48175
30
0
11
27500
21
48175
31
0
0
LINE
5
264
330
10E
100
AcDbEntity
8
REBAR-TOP
100
AcDbLine
10
24600
20
48325
30
0
11
27500
21
48325
31
0
0
LINE
5
265
330
10E
100
AcDbEntity
8
REBAR-TOP
100
AcDbLine
10
24600
20
48475
30
0
11
27500
21
48475
31
0
0
LINE
5
266
330
10E
100
AcDbEntity
8
REBAR-TOP
100
AcDbLine
10
24600
20
48625
30
0
11
27500
21
48625
31
0
0
LINE
5
267
330
10E
100
AcDbEntity
8
REBAR-TOP
100
AcDbLine
10
24600
20
48555
30
0
11
24600
21
48695
31
0
0
LINE
5
268
330
10E
100
AcDbEntity
8
REBAR-TOP
100
AcDbLine
10
27500
20
48555
30
0
11
27500
21
48695
31
0
0
LINE
5
269
330
10E
100
AcDbEntity
8
REBAR-TOP
100
AcDbLine
10
25375
20
46400
30
0
11
25375
21
48925
31
0
0
LINE
5
26A
330
10E
100
AcDbEntity
8
REBAR-TOP
100
AcDbLine
10
25445
20
46400
30
0
11
25305
21
46400
31
0
0
LINE
5
26B
330
10E
100
AcDbEntity
8
REBAR-TOP
100
AcDbLine
10
25445
20
48925
30
0
11
25305
21
48925
31
0
0
LINE
5
26C
330
10E
100
AcDbEntity
8
REBAR-TOP
100
AcDbLine
10
25375
20
48925
30
0
11
25225
21
48925
31
0
0
LINE
5
26D
330
10E
100
AcDbEntity
8
REBAR-TOP
100
AcDbLine
10
25525
20
46400
30
0
11
25525
21
48925
31
0
0
LINE
5
26E
330
10E
100
AcDbEntity
8
REBAR-TOP
100
AcDbLine
10
25525
20
48925
30
0
11
25375
21
48925
31
0
0
LINE
5
26F
330
10E
100
AcDbEntity
8
REBAR-TOP
100
AcDbLine
10
25675
20
46400
30
0
11
25675
21
48925
31
0
0
LINE
5
270
330
10E
100
AcDbEntity
8
REBAR-TOP
100
AcDbLine
10
25675
20
48925
30
0
11
25525
21
48925
31
0
0
LINE
5
271
330
10E
100
AcDbEntity
8
REBAR-TOP
100
AcDbLine
10
25825
20
46400
30
0
11
25825
21
48925
31
0
0
LINE
5
272
330
10E
100
AcDbEntity
8
REBAR-TOP
100
AcDbLine
10
25825
20
48925
30
0
11
25675
21
48925
31
0
0
LINE
5
273
330
10E
100
AcDbEntity
8
REBAR-TOP
100
AcDbLine
10
25975
20
46400
30
0
11
25975
21
48925
31
0
0
LINE
5
274
330
10E
100
AcDbEntity
8
REBAR-TOP
100
AcDbLine
10
25975
20
48925
30
0
11
25825
21
48925
31
0
0
LINE
5
275
330
10E
100
AcDbEntity
8
REBAR-TOP
100
AcDbLine
10
26125
20
46400
30
0
11
26125
21
48925
31
0
0
LINE
5
276
330
10E
100
AcDbEntity
8
REBAR-TOP
100
AcDbLine
10
26125
20
48925
30
0
11
25975
21
48925
31
0
0
LINE
5
277
330
10E
100
AcDbEntity
8
REBAR-TOP
100
AcDbLine
10
26275
20
46400
30
0
11
26275
21
48925
31
0
0
LINE
5
278
330
10E
100
AcDbEntity
8
REBAR-TOP
100
AcDbLine
10
26275
20
48925
30
0
11
26125
21
48925
31
0
0
LINE
5
279
330
10E
100
AcDbEntity
8
REBAR-TOP
100
AcDbLine
10
26425
20
46400
30
0
11
26425
21
48925
31
0
0
LINE
5
27A
330
10E
100
AcDbEntity
8
REBAR-TOP
100
AcDbLine
10
26425
20
48925
30
0
11
26275
21
48925
31
0
0
LINE
5
27B
330
10E
100
AcDbEntity
8
REBAR-TOP
100
AcDbLine
10
26575
20
46400
30
0
11
26575
21
48925
31
0
0
LINE
5
27C
330
10E
100
AcDbEntity
8
REBAR-TOP
100
AcDbLine
10
26575
20
48925
30
0
11
26425
21
48925
31
0
0
LINE
5
27D
330
10E
100
AcDbEntity
8
REBAR-TOP
100
AcDbLine
10
26725
20
46400
30
0
11
26725
21
48925
31
0
0
LINE
5
27E
330
10E
100
AcDbEntity
8
REBAR-TOP
100
AcDbLine
10
26795
20
46400
30
0
11
26655
21
46400
31
0
0
LINE
5
27F
330
10E
100
AcDbEntity
8
REBAR-TOP
100
AcDbLine
10
26795
20
48925
30
0
11
26655
21
48925
31
0
0
LINE
5
280
330
10E
100
AcDbEntity
8
REBAR-TOP
100
AcDbLine
10
26725
20
48925
30
0
11
26575
21
48925
31
0
0
CIRCLE
5
281
330
10E
100
AcDbEntity
8
CALLOUT
100
AcDbCircle
10
27510
20
49220
30
0
40
360
0
TEXT
5
282
330
10E
100
AcDbEntity
8
CALLOUT
100
AcDbText
10
27510
20
49220
30
0
40
190
1
TC2
7
STANDARD
72
1
11
27510
21
49220
31
0
100
AcDbText
73
2
0
LINE
5
283
330
10E
100
AcDbEntity
8
CALLOUT
100
AcDbLine
10
27255.441559
20
48965.441559
30
0
11
26810
21
48520
31
0
0
TEXT
5
284
330
10E
100
AcDbEntity
8
REBAR-TEXT
100
AcDbText
10
28000
20
46100
30
0
40
170
1
TC2: 10T16 X-DIR L=2900 (STR)
7
STANDARD
72
0
100
AcDbText
73
0
0
TEXT
5
285
330
10E
100
AcDbEntity
8
REBAR-TEXT
100
AcDbText
10
28000
20
45860
30
0
40
170
1
      10T16 Y-DIR L=2730 (L)  @150 TOP
7
STANDARD
72
0
100
AcDbText
73
0
0
LINE
5
286
330
10E
100
AcDbEntity
8
REBAR-TOP
100
AcDbLine
10
32100
20
47275
30
0
11
35000
21
47275
31
0
0
LINE
5
287
330
10E
100
AcDbEntity
8
REBAR-TOP
100
AcDbLine
10
32100
20
47205
30
0
11
32100
21
47345
31
0
0
LINE
5
288
330
10E
100
AcDbEntity
8
REBAR-TOP
100
AcDbLine
10
35000
20
47205
30
0
11
35000
21
47345
31
0
0
LINE
5
289
330
10E
100
AcDbEntity
8
REBAR-TOP
100
AcDbLine
10
32100
20
47425
30
0
11
35000
21
47425
31
0
0
LINE
5
28A
330
10E
100
AcDbEntity
8
REBAR-TOP
100
AcDbLine
10
32100
20
47575
30
0
11
35000
21
47575
31
0
0
LINE
5
28B
330
10E
100
AcDbEntity
8
REBAR-TOP
100
AcDbLine
10
32100
20
47725
30
0
11
35000
21
47725
31
0
0
LINE
5
28C
330
10E
100
AcDbEntity
8
REBAR-TOP
100
AcDbLine
10
32100
20
47875
30
0
11
35000
21
47875
31
0
0
LINE
5
28D
330
10E
100
AcDbEntity
8
REBAR-TOP
100
AcDbLine
10
32100
20
48025
30
0
11
35000
21
48025
31
0
0
LINE
5
28E
330
10E
100
AcDbEntity
8
REBAR-TOP
100
AcDbLine
10
32100
20
48175
30
0
11
35000
21
48175
31
0
0
LINE
5
28F
330
10E
100
AcDbEntity
8
REBAR-TOP
100
AcDbLine
10
32100
20
48325
30
0
11
35000
21
48325
31
0
0
LINE
5
290
330
10E
100
AcDbEntity
8
REBAR-TOP
100
AcDbLine
10
32100
20
48475
30
0
11
35000
21
48475
31
0
0
LINE
5
291
330
10E
100
AcDbEntity
8
REBAR-TOP
100
AcDbLine
10
32100
20
48625
30
0
11
35000
21
48625
31
0
0
LINE
5
292
330
10E
100
AcDbEntity
8
REBAR-TOP
100
AcDbLine
10
32100
20
48555
30
0
11
32100
21
48695
31
0
0
LINE
5
293
330
10E
100
AcDbEntity
8
REBAR-TOP
100
AcDbLine
10
35000
20
48555
30
0
11
35000
21
48695
31
0
0
LINE
5
294
330
10E
100
AcDbEntity
8
REBAR-TOP
100
AcDbLine
10
32875
20
46400
30
0
11
32875
21
48925
31
0
0
LINE
5
295
330
10E
100
AcDbEntity
8
REBAR-TOP
100
AcDbLine
10
32945
20
46400
30
0
11
32805
21
46400
31
0
0
LINE
5
296
330
10E
100
AcDbEntity
8
REBAR-TOP
100
AcDbLine
10
32945
20
48925
30
0
11
32805
21
48925
31
0
0
LINE
5
297
330
10E
100
AcDbEntity
8
REBAR-TOP
100
AcDbLine
10
32875
20
48925
30
0
11
32725
21
48925
31
0
0
LINE
5
298
330
10E
100
AcDbEntity
8
REBAR-TOP
100
AcDbLine
10
33025
20
46400
30
0
11
33025
21
48925
31
0
0
LINE
5
299
330
10E
100
AcDbEntity
8
REBAR-TOP
100
AcDbLine
10
33025
20
48925
30
0
11
32875
21
48925
31
0
0
LINE
5
29A
330
10E
100
AcDbEntity
8
REBAR-TOP
100
AcDbLine
10
33175
20
46400
30
0
11
33175
21
48925
31
0
0
LINE
5
29B
330
10E
100
AcDbEntity
8
REBAR-TOP
100
AcDbLine
10
33175
20
48925
30
0
11
33025
21
48925
31
0
0
LINE
5
29C
330
10E
100
AcDbEntity
8
REBAR-TOP
100
AcDbLine
10
33325
20
46400
30
0
11
33325
21
48925
31
0
0
LINE
5
29D
330
10E
100
AcDbEntity
8
REBAR-TOP
100
AcDbLine
10
33325
20
48925
30
0
11
33175
21
48925
31
0
0
LINE
5
29E
330
10E
100
AcDbEntity
8
REBAR-TOP
100
AcDbLine
10
33475
20
46400
30
0
11
33475
21
48925
31
0
0
LINE
5
29F
330
10E
100
AcDbEntity
8
REBAR-TOP
100
AcDbLine
10
33475
20
48925
30
0
11
33325
21
48925
31
0
0
LINE
5
2A0
330
10E
100
AcDbEntity
8
REBAR-TOP
100
AcDbLine
10
33625
20
46400
30
0
11
33625
21
48925
31
0
0
LINE
5
2A1
330
10E
100
AcDbEntity
8
REBAR-TOP
100
AcDbLine
10
33625
20
48925
30
0
11
33475
21
48925
31
0
0
LINE
5
2A2
330
10E
100
AcDbEntity
8
REBAR-TOP
100
AcDbLine
10
33775
20
46400
30
0
11
33775
21
48925
31
0
0
LINE
5
2A3
330
10E
100
AcDbEntity
8
REBAR-TOP
100
AcDbLine
10
33775
20
48925
30
0
11
33625
21
48925
31
0
0
LINE
5
2A4
330
10E
100
AcDbEntity
8
REBAR-TOP
100
AcDbLine
10
33925
20
46400
30
0
11
33925
21
48925
31
0
0
LINE
5
2A5
330
10E
100
AcDbEntity
8
REBAR-TOP
100
AcDbLine
10
33925
20
48925
30
0
11
33775
21
48925
31
0
0
LINE
5
2A6
330
10E
100
AcDbEntity
8
REBAR-TOP
100
AcDbLine
10
34075
20
46400
30
0
11
34075
21
48925
31
0
0
LINE
5
2A7
330
10E
100
AcDbEntity
8
REBAR-TOP
100
AcDbLine
10
34075
20
48925
30
0
11
33925
21
48925
31
0
0
LINE
5
2A8
330
10E
100
AcDbEntity
8
REBAR-TOP
100
AcDbLine
10
34225
20
46400
30
0
11
34225
21
48925
31
0
0
LINE
5
2A9
330
10E
100
AcDbEntity
8
REBAR-TOP
100
AcDbLine
10
34295
20
46400
30
0
11
34155
21
46400
31
0
0
LINE
5
2AA
330
10E
100
AcDbEntity
8
REBAR-TOP
100
AcDbLine
10
34295
20
48925
30
0
11
34155
21
48925
31
0
0
LINE
5
2AB
330
10E
100
AcDbEntity
8
REBAR-TOP
100
AcDbLine
10
34225
20
48925
30
0
11
34075
21
48925
31
0
0
CIRCLE
5
2AC
330
10E
100
AcDbEntity
8
CALLOUT
100
AcDbCircle
10
35010
20
49220
30
0
40
360
0
TEXT
5
2AD
330
10E
100
AcDbEntity
8
CALLOUT
100
AcDbText
10
35010
20
49220
30
0
40
190
1
TC2
7
STANDARD
72
1
11
35010
21
49220
31
0
100
AcDbText
73
2
0
LINE
5
2AE
330
10E
100
AcDbEntity
8
CALLOUT
100
AcDbLine
10
34755.441559
20
48965.441559
30
0
11
34310
21
48520
31
0
0
LINE
5
2AF
330
10E
100
AcDbEntity
8
REBAR-TOP
100
AcDbLine
10
39600
20
47275
30
0
11
44525
21
47275
31
0
0
LINE
5
2B0
330
10E
100
AcDbEntity
8
REBAR-TOP
100
AcDbLine
10
39600
20
47205
30
0
11
39600
21
47345
31
0
0
LINE
5
2B1
330
10E
100
AcDbEntity
8
REBAR-TOP
100
AcDbLine
10
44525
20
47205
30
0
11
44525
21
47345
31
0
0
LINE
5
2B2
330
10E
100
AcDbEntity
8
REBAR-TOP
100
AcDbLine
10
44525
20
47275
30
0
11
44525
21
47125
31
0
0
LINE
5
2B3
330
10E
100
AcDbEntity
8
REBAR-TOP
100
AcDbLine
10
39600
20
47425
30
0
11
44525
21
47425
31
0
0
LINE
5
2B4
330
10E
100
AcDbEntity
8
REBAR-TOP
100
AcDbLine
10
44525
20
47425
30
0
11
44525
21
47275
31
0
0
LINE
5
2B5
330
10E
100
AcDbEntity
8
REBAR-TOP
100
AcDbLine
10
39600
20
47575
30
0
11
44525
21
47575
31
0
0
LINE
5
2B6
330
10E
100
AcDbEntity
8
REBAR-TOP
100
AcDbLine
10
44525
20
47575
30
0
11
44525
21
47425
31
0
0
LINE
5
2B7
330
10E
100
AcDbEntity
8
REBAR-TOP
100
AcDbLine
10
39600
20
47725
30
0
11
44525
21
47725
31
0
0
LINE
5
2B8
330
10E
100
AcDbEntity
8
REBAR-TOP
100
AcDbLine
10
44525
20
47725
30
0
11
44525
21
47575
31
0
0
LINE
5
2B9
330
10E
100
AcDbEntity
8
REBAR-TOP
100
AcDbLine
10
39600
20
47875
30
0
11
44525
21
47875
31
0
0
LINE
5
2BA
330
10E
100
AcDbEntity
8
REBAR-TOP
100
AcDbLine
10
44525
20
47875
30
0
11
44525
21
47725
31
0
0
LINE
5
2BB
330
10E
100
AcDbEntity
8
REBAR-TOP
100
AcDbLine
10
39600
20
48025
30
0
11
44525
21
48025
31
0
0
LINE
5
2BC
330
10E
100
AcDbEntity
8
REBAR-TOP
100
AcDbLine
10
44525
20
48025
30
0
11
44525
21
47875
31
0
0
LINE
5
2BD
330
10E
100
AcDbEntity
8
REBAR-TOP
100
AcDbLine
10
39600
20
48175
30
0
11
44525
21
48175
31
0
0
LINE
5
2BE
330
10E
100
AcDbEntity
8
REBAR-TOP
100
AcDbLine
10
44525
20
48175
30
0
11
44525
21
48025
31
0
0
LINE
5
2BF
330
10E
100
AcDbEntity
8
REBAR-TOP
100
AcDbLine
10
39600
20
48325
30
0
11
44525
21
48325
31
0
0
LINE
5
2C0
330
10E
100
AcDbEntity
8
REBAR-TOP
100
AcDbLine
10
44525
20
48325
30
0
11
44525
21
48175
31
0
0
LINE
5
2C1
330
10E
100
AcDbEntity
8
REBAR-TOP
100
AcDbLine
10
39600
20
48475
30
0
11
44525
21
48475
31
0
0
LINE
5
2C2
330
10E
100
AcDbEntity
8
REBAR-TOP
100
AcDbLine
10
44525
20
48475
30
0
11
44525
21
48325
31
0
0
LINE
5
2C3
330
10E
100
AcDbEntity
8
REBAR-TOP
100
AcDbLine
10
39600
20
48625
30
0
11
44525
21
48625
31
0
0
LINE
5
2C4
330
10E
100
AcDbEntity
8
REBAR-TOP
100
AcDbLine
10
39600
20
48555
30
0
11
39600
21
48695
31
0
0
LINE
5
2C5
330
10E
100
AcDbEntity
8
REBAR-TOP
100
AcDbLine
10
44525
20
48555
30
0
11
44525
21
48695
31
0
0
LINE
5
2C6
330
10E
100
AcDbEntity
8
REBAR-TOP
100
AcDbLine
10
44525
20
48625
30
0
11
44525
21
48475
31
0
0
LINE
5
2C7
330
10E
100
AcDbEntity
8
REBAR-TOP
100
AcDbLine
10
40375
20
46400
30
0
11
40375
21
48925
31
0
0
LINE
5
2C8
330
10E
100
AcDbEntity
8
REBAR-TOP
100
AcDbLine
10
40445
20
46400
30
0
11
40305
21
46400
31
0
0
LINE
5
2C9
330
10E
100
AcDbEntity
8
REBAR-TOP
100
AcDbLine
10
40445
20
48925
30
0
11
40305
21
48925
31
0
0
LINE
5
2CA
330
10E
100
AcDbEntity
8
REBAR-TOP
100
AcDbLine
10
40375
20
48925
30
0
11
40225
21
48925
31
0
0
LINE
5
2CB
330
10E
100
AcDbEntity
8
REBAR-TOP
100
AcDbLine
10
40525
20
46400
30
0
11
40525
21
48925
31
0
0
LINE
5
2CC
330
10E
100
AcDbEntity
8
REBAR-TOP
100
AcDbLine
10
40525
20
48925
30
0
11
40375
21
48925
31
0
0
LINE
5
2CD
330
10E
100
AcDbEntity
8
REBAR-TOP
100
AcDbLine
10
40675
20
46400
30
0
11
40675
21
48925
31
0
0
LINE
5
2CE
330
10E
100
AcDbEntity
8
REBAR-TOP
100
AcDbLine
10
40675
20
48925
30
0
11
40525
21
48925
31
0
0
LINE
5
2CF
330
10E
100
AcDbEntity
8
REBAR-TOP
100
AcDbLine
10
40825
20
46400
30
0
11
40825
21
48925
31
0
0
LINE
5
2D0
330
10E
100
AcDbEntity
8
REBAR-TOP
100
AcDbLine
10
40825
20
48925
30
0
11
40675
21
48925
31
0
0
LINE
5
2D1
330
10E
100
AcDbEntity
8
REBAR-TOP
100
AcDbLine
10
40975
20
46400
30
0
11
40975
21
48925
31
0
0
LINE
5
2D2
330
10E
100
AcDbEntity
8
REBAR-TOP
100
AcDbLine
10
40975
20
48925
30
0
11
40825
21
48925
31
0
0
LINE
5
2D3
330
10E
100
AcDbEntity
8
REBAR-TOP
100
AcDbLine
10
41125
20
46400
30
0
11
41125
21
48925
31
0
0
LINE
5
2D4
330
10E
100
AcDbEntity
8
REBAR-TOP
100
AcDbLine
10
41125
20
48925
30
0
11
40975
21
48925
31
0
0
LINE
5
2D5
330
10E
100
AcDbEntity
8
REBAR-TOP
100
AcDbLine
10
41275
20
46400
30
0
11
41275
21
48925
31
0
0
LINE
5
2D6
330
10E
100
AcDbEntity
8
REBAR-TOP
100
AcDbLine
10
41275
20
48925
30
0
11
41125
21
48925
31
0
0
LINE
5
2D7
330
10E
100
AcDbEntity
8
REBAR-TOP
100
AcDbLine
10
41425
20
46400
30
0
11
41425
21
48925
31
0
0
LINE
5
2D8
330
10E
100
AcDbEntity
8
REBAR-TOP
100
AcDbLine
10
41425
20
48925
30
0
11
41275
21
48925
31
0
0
LINE
5
2D9
330
10E
100
AcDbEntity
8
REBAR-TOP
100
AcDbLine
10
41575
20
46400
30
0
11
41575
21
48925
31
0
0
LINE
5
2DA
330
10E
100
AcDbEntity
8
REBAR-TOP
100
AcDbLine
10
41575
20
48925
30
0
11
41425
21
48925
31
0
0
LINE
5
2DB
330
10E
100
AcDbEntity
8
REBAR-TOP
100
AcDbLine
10
41725
20
46400
30
0
11
41725
21
48925
31
0
0
LINE
5
2DC
330
10E
100
AcDbEntity
8
REBAR-TOP
100
AcDbLine
10
41795
20
46400
30
0
11
41655
21
46400
31
0
0
LINE
5
2DD
330
10E
100
AcDbEntity
8
REBAR-TOP
100
AcDbLine
10
41795
20
48925
30
0
11
41655
21
48925
31
0
0
LINE
5
2DE
330
10E
100
AcDbEntity
8
REBAR-TOP
100
AcDbLine
10
41725
20
48925
30
0
11
41575
21
48925
31
0
0
CIRCLE
5
2DF
330
10E
100
AcDbEntity
8
CALLOUT
100
AcDbCircle
10
43320
20
49220
30
0
40
360
0
TEXT
5
2E0
330
10E
100
AcDbEntity
8
CALLOUT
100
AcDbText
10
43320
20
49220
30
0
40
190
1
TC3
7
STANDARD
72
1
11
43320
21
49220
31
0
100
AcDbText
73
2
0
LINE
5
2E1
330
10E
100
AcDbEntity
8
CALLOUT
100
AcDbLine
10
43065.441559
20
48965.441559
30
0
11
42620
21
48520
31
0
0
TEXT
5
2E2
330
10E
100
AcDbEntity
8
REBAR-TEXT
100
AcDbText
10
45025
20
46100
30
0
40
170
1
TC3: 10T16 X-DIR L=5130 (L)
7
STANDARD
72
0
100
AcDbText
73
0
0
TEXT
5
2E3
330
10E
100
AcDbEntity
8
REBAR-TEXT
100
AcDbText
10
45025
20
45860
30
0
40
170
1
      10T16 Y-DIR L=2730 (L)  @150 TOP
7
STANDARD
72
0
100
AcDbText
73
0
0
LINE
5
2E4
330
10E
100
AcDbEntity
8
REBAR-TOP
100
AcDbLine
10
17075
20
39275
30
0
11
20000
21
39275
31
0
0
LINE
5
2E5
330
10E
100
AcDbEntity
8
REBAR-TOP
100
AcDbLine
10
17075
20
39205
30
0
11
17075
21
39345
31
0
0
LINE
5
2E6
330
10E
100
AcDbEntity
8
REBAR-TOP
100
AcDbLine
10
20000
20
39205
30
0
11
20000
21
39345
31
0
0
LINE
5
2E7
330
10E
100
AcDbEntity
8
REBAR-TOP
100
AcDbLine
10
17075
20
39275
30
0
11
17075
21
39125
31
0
0
LINE
5
2E8
330
10E
100
AcDbEntity
8
REBAR-TOP
100
AcDbLine
10
17075
20
39425
30
0
11
20000
21
39425
31
0
0
LINE
5
2E9
330
10E
100
AcDbEntity
8
REBAR-TOP
100
AcDbLine
10
17075
20
39425
30
0
11
17075
21
39275
31
0
0
LINE
5
2EA
330
10E
100
AcDbEntity
8
REBAR-TOP
100
AcDbLine
10
17075
20
39575
30
0
11
20000
21
39575
31
0
0
LINE
5
2EB
330
10E
100
AcDbEntity
8
REBAR-TOP
100
AcDbLine
10
17075
20
39575
30
0
11
17075
21
39425
31
0
0
LINE
5
2EC
330
10E
100
AcDbEntity
8
REBAR-TOP
100
AcDbLine
10
17075
20
39725
30
0
11
20000
21
39725
31
0
0
LINE
5
2ED
330
10E
100
AcDbEntity
8
REBAR-TOP
100
AcDbLine
10
17075
20
39725
30
0
11
17075
21
39575
31
0
0
LINE
5
2EE
330
10E
100
AcDbEntity
8
REBAR-TOP
100
AcDbLine
10
17075
20
39875
30
0
11
20000
21
39875
31
0
0
LINE
5
2EF
330
10E
100
AcDbEntity
8
REBAR-TOP
100
AcDbLine
10
17075
20
39875
30
0
11
17075
21
39725
31
0
0
LINE
5
2F0
330
10E
100
AcDbEntity
8
REBAR-TOP
100
AcDbLine
10
17075
20
40025
30
0
11
20000
21
40025
31
0
0
LINE
5
2F1
330
10E
100
AcDbEntity
8
REBAR-TOP
100
AcDbLine
10
17075
20
40025
30
0
11
17075
21
39875
31
0
0
LINE
5
2F2
330
10E
100
AcDbEntity
8
REBAR-TOP
100
AcDbLine
10
17075
20
40175
30
0
11
20000
21
40175
31
0
0
LINE
5
2F3
330
10E
100
AcDbEntity
8
REBAR-TOP
100
AcDbLine
10
17075
20
40175
30
0
11
17075
21
40025
31
0
0
LINE
5
2F4
330
10E
100
AcDbEntity
8
REBAR-TOP
100
AcDbLine
10
17075
20
40325
30
0
11
20000
21
40325
31
0
0
LINE
5
2F5
330
10E
100
AcDbEntity
8
REBAR-TOP
100
AcDbLine
10
17075
20
40325
30
0
11
17075
21
40175
31
0
0
LINE
5
2F6
330
10E
100
AcDbEntity
8
REBAR-TOP
100
AcDbLine
10
17075
20
40475
30
0
11
20000
21
40475
31
0
0
LINE
5
2F7
330
10E
100
AcDbEntity
8
REBAR-TOP
100
AcDbLine
10
17075
20
40475
30
0
11
17075
21
40325
31
0
0
LINE
5
2F8
330
10E
100
AcDbEntity
8
REBAR-TOP
100
AcDbLine
10
17075
20
40625
30
0
11
20000
21
40625
31
0
0
LINE
5
2F9
330
10E
100
AcDbEntity
8
REBAR-TOP
100
AcDbLine
10
17075
20
40555
30
0
11
17075
21
40695
31
0
0
LINE
5
2FA
330
10E
100
AcDbEntity
8
REBAR-TOP
100
AcDbLine
10
20000
20
40555
30
0
11
20000
21
40695
31
0
0
LINE
5
2FB
330
10E
100
AcDbEntity
8
REBAR-TOP
100
AcDbLine
10
17075
20
40625
30
0
11
17075
21
40475
31
0
0
LINE
5
2FC
330
10E
100
AcDbEntity
8
REBAR-TOP
100
AcDbLine
10
17875
20
38400
30
0
11
17875
21
41500
31
0
0
LINE
5
2FD
330
10E
100
AcDbEntity
8
REBAR-TOP
100
AcDbLine
10
17945
20
38400
30
0
11
17805
21
38400
31
0
0
LINE
5
2FE
330
10E
100
AcDbEntity
8
REBAR-TOP
100
AcDbLine
10
17945
20
41500
30
0
11
17805
21
41500
31
0
0
LINE
5
2FF
330
10E
100
AcDbEntity
8
REBAR-TOP
100
AcDbLine
10
18025
20
38400
30
0
11
18025
21
41500
31
0
0
LINE
5
300
330
10E
100
AcDbEntity
8
REBAR-TOP
100
AcDbLine
10
18175
20
38400
30
0
11
18175
21
41500
31
0
0
LINE
5
301
330
10E
100
AcDbEntity
8
REBAR-TOP
100
AcDbLine
10
18325
20
38400
30
0
11
18325
21
41500
31
0
0
LINE
5
302
330
10E
100
AcDbEntity
8
REBAR-TOP
100
AcDbLine
10
18475
20
38400
30
0
11
18475
21
41500
31
0
0
LINE
5
303
330
10E
100
AcDbEntity
8
REBAR-TOP
100
AcDbLine
10
18625
20
38400
30
0
11
18625
21
41500
31
0
0
LINE
5
304
330
10E
100
AcDbEntity
8
REBAR-TOP
100
AcDbLine
10
18775
20
38400
30
0
11
18775
21
41500
31
0
0
LINE
5
305
330
10E
100
AcDbEntity
8
REBAR-TOP
100
AcDbLine
10
18925
20
38400
30
0
11
18925
21
41500
31
0
0
LINE
5
306
330
10E
100
AcDbEntity
8
REBAR-TOP
100
AcDbLine
10
19075
20
38400
30
0
11
19075
21
41500
31
0
0
LINE
5
307
330
10E
100
AcDbEntity
8
REBAR-TOP
100
AcDbLine
10
19225
20
38400
30
0
11
19225
21
41500
31
0
0
LINE
5
308
330
10E
100
AcDbEntity
8
REBAR-TOP
100
AcDbLine
10
19295
20
38400
30
0
11
19155
21
38400
31
0
0
LINE
5
309
330
10E
100
AcDbEntity
8
REBAR-TOP
100
AcDbLine
10
19295
20
41500
30
0
11
19155
21
41500
31
0
0
CIRCLE
5
30A
330
10E
100
AcDbEntity
8
CALLOUT
100
AcDbCircle
10
20010
20
41450
30
0
40
360
0
TEXT
5
30B
330
10E
100
AcDbEntity
8
CALLOUT
100
AcDbText
10
20010
20
41450
30
0
40
190
1
TC4
7
STANDARD
72
1
11
20010
21
41450
31
0
100
AcDbText
73
2
0
LINE
5
30C
330
10E
100
AcDbEntity
8
CALLOUT
100
AcDbLine
10
19755.441559
20
41195.441559
30
0
11
19310
21
40750
31
0
0
TEXT
5
30D
330
10E
100
AcDbEntity
8
REBAR-TEXT
100
AcDbText
10
20500
20
38100
30
0
40
170
1
TC4: 10T16 X-DIR L=3130 (L)
7
STANDARD
72
0
100
AcDbText
73
0
0
TEXT
5
30E
330
10E
100
AcDbEntity
8
REBAR-TEXT
100
AcDbText
10
20500
20
37860
30
0
40
170
1
      10T16 Y-DIR L=3100 (STR)  @150 TOP
7
STANDARD
72
0
100
AcDbText
73
0
0
LINE
5
30F
330
10E
100
AcDbEntity
8
REBAR-TOP
100
AcDbLine
10
24600
20
39275
30
0
11
27500
21
39275
31
0
0
LINE
5
310
330
10E
100
AcDbEntity
8
REBAR-TOP
100
AcDbLine
10
24600
20
39205
30
0
11
24600
21
39345
31
0
0
LINE
5
311
330
10E
100
AcDbEntity
8
REBAR-TOP
100
AcDbLine
10
27500
20
39205
30
0
11
27500
21
39345
31
0
0
LINE
5
312
330
10E
100
AcDbEntity
8
REBAR-TOP
100
AcDbLine
10
24600
20
39425
30
0
11
27500
21
39425
31
0
0
LINE
5
313
330
10E
100
AcDbEntity
8
REBAR-TOP
100
AcDbLine
10
24600
20
39575
30
0
11
27500
21
39575
31
0
0
LINE
5
314
330
10E
100
AcDbEntity
8
REBAR-TOP
100
AcDbLine
10
24600
20
39725
30
0
11
27500
21
39725
31
0
0
LINE
5
315
330
10E
100
AcDbEntity
8
REBAR-TOP
100
AcDbLine
10
24600
20
39875
30
0
11
27500
21
39875
31
0
0
LINE
5
316
330
10E
100
AcDbEntity
8
REBAR-TOP
100
AcDbLine
10
24600
20
40025
30
0
11
27500
21
40025
31
0
0
LINE
5
317
330
10E
100
AcDbEntity
8
REBAR-TOP
100
AcDbLine
10
24600
20
40175
30
0
11
27500
21
40175
31
0
0
LINE
5
318
330
10E
100
AcDbEntity
8
REBAR-TOP
100
AcDbLine
10
24600
20
40325
30
0
11
27500
21
40325
31
0
0
LINE
5
319
330
10E
100
AcDbEntity
8
REBAR-TOP
100
AcDbLine
10
24600
20
40475
30
0
11
27500
21
40475
31
0
0
LINE
5
31A
330
10E
100
AcDbEntity
8
REBAR-TOP
100
AcDbLine
10
24600
20
40625
30
0
11
27500
21
40625
31
0
0
LINE
5
31B
330
10E
100
AcDbEntity
8
REBAR-TOP
100
AcDbLine
10
24600
20
40555
30
0
11
24600
21
40695
31
0
0
LINE
5
31C
330
10E
100
AcDbEntity
8
REBAR-TOP
100
AcDbLine
10
27500
20
40555
30
0
11
27500
21
40695
31
0
0
LINE
5
31D
330
10E
100
AcDbEntity
8
REBAR-TOP
100
AcDbLine
10
25375
20
38400
30
0
11
25375
21
41500
31
0
0
LINE
5
31E
330
10E
100
AcDbEntity
8
REBAR-TOP
100
AcDbLine
10
25445
20
38400
30
0
11
25305
21
38400
31
0
0
LINE
5
31F
330
10E
100
AcDbEntity
8
REBAR-TOP
100
AcDbLine
10
25445
20
41500
30
0
11
25305
21
41500
31
0
0
LINE
5
320
330
10E
100
AcDbEntity
8
REBAR-TOP
100
AcDbLine
10
25525
20
38400
30
0
11
25525
21
41500
31
0
0
LINE
5
321
330
10E
100
AcDbEntity
8
REBAR-TOP
100
AcDbLine
10
25675
20
38400
30
0
11
25675
21
41500
31
0
0
LINE
5
322
330
10E
100
AcDbEntity
8
REBAR-TOP
100
AcDbLine
10
25825
20
38400
30
0
11
25825
21
41500
31
0
0
LINE
5
323
330
10E
100
AcDbEntity
8
REBAR-TOP
100
AcDbLine
10
25975
20
38400
30
0
11
25975
21
41500
31
0
0
LINE
5
324
330
10E
100
AcDbEntity
8
REBAR-TOP
100
AcDbLine
10
26125
20
38400
30
0
11
26125
21
41500
31
0
0
LINE
5
325
330
10E
100
AcDbEntity
8
REBAR-TOP
100
AcDbLine
10
26275
20
38400
30
0
11
26275
21
41500
31
0
0
LINE
5
326
330
10E
100
AcDbEntity
8
REBAR-TOP
100
AcDbLine
10
26425
20
38400
30
0
11
26425
21
41500
31
0
0
LINE
5
327
330
10E
100
AcDbEntity
8
REBAR-TOP
100
AcDbLine
10
26575
20
38400
30
0
11
26575
21
41500
31
0
0
LINE
5
328
330
10E
100
AcDbEntity
8
REBAR-TOP
100
AcDbLine
10
26725
20
38400
30
0
11
26725
21
41500
31
0
0
LINE
5
329
330
10E
100
AcDbEntity
8
REBAR-TOP
100
AcDbLine
10
26795
20
38400
30
0
11
26655
21
38400
31
0
0
LINE
5
32A
330
10E
100
AcDbEntity
8
REBAR-TOP
100
AcDbLine
10
26795
20
41500
30
0
11
26655
21
41500
31
0
0
CIRCLE
5
32B
330
10E
100
AcDbEntity
8
CALLOUT
100
AcDbCircle
10
27510
20
41450
30
0
40
360
0
TEXT
5
32C
330
10E
100
AcDbEntity
8
CALLOUT
100
AcDbText
10
27510
20
41450
30
0
40
190
1
TC5
7
STANDARD
72
1
11
27510
21
41450
31
0
100
AcDbText
73
2
0
LINE
5
32D
330
10E
100
AcDbEntity
8
CALLOUT
100
AcDbLine
10
27255.441559
20
41195.441559
30
0
11
26810
21
40750
31
0
0
TEXT
5
32E
330
10E
100
AcDbEntity
8
REBAR-TEXT
100
AcDbText
10
28000
20
38100
30
0
40
170
1
TC5: 10T16 X-DIR L=2900 (STR)
7
STANDARD
72
0
100
AcDbText
73
0
0
TEXT
5
32F
330
10E
100
AcDbEntity
8
REBAR-TEXT
100
AcDbText
10
28000
20
37860
30
0
40
170
1
      10T16 Y-DIR L=3100 (STR)  @150 TOP
7
STANDARD
72
0
100
AcDbText
73
0
0
LINE
5
330
330
10E
100
AcDbEntity
8
REBAR-TOP
100
AcDbLine
10
32100
20
39275
30
0
11
35000
21
39275
31
0
0
LINE
5
331
330
10E
100
AcDbEntity
8
REBAR-TOP
100
AcDbLine
10
32100
20
39205
30
0
11
32100
21
39345
31
0
0
LINE
5
332
330
10E
100
AcDbEntity
8
REBAR-TOP
100
AcDbLine
10
35000
20
39205
30
0
11
35000
21
39345
31
0
0
LINE
5
333
330
10E
100
AcDbEntity
8
REBAR-TOP
100
AcDbLine
10
32100
20
39425
30
0
11
35000
21
39425
31
0
0
LINE
5
334
330
10E
100
AcDbEntity
8
REBAR-TOP
100
AcDbLine
10
32100
20
39575
30
0
11
35000
21
39575
31
0
0
LINE
5
335
330
10E
100
AcDbEntity
8
REBAR-TOP
100
AcDbLine
10
32100
20
39725
30
0
11
35000
21
39725
31
0
0
LINE
5
336
330
10E
100
AcDbEntity
8
REBAR-TOP
100
AcDbLine
10
32100
20
39875
30
0
11
35000
21
39875
31
0
0
LINE
5
337
330
10E
100
AcDbEntity
8
REBAR-TOP
100
AcDbLine
10
32100
20
40025
30
0
11
35000
21
40025
31
0
0
LINE
5
338
330
10E
100
AcDbEntity
8
REBAR-TOP
100
AcDbLine
10
32100
20
40175
30
0
11
35000
21
40175
31
0
0
LINE
5
339
330
10E
100
AcDbEntity
8
REBAR-TOP
100
AcDbLine
10
32100
20
40325
30
0
11
35000
21
40325
31
0
0
LINE
5
33A
330
10E
100
AcDbEntity
8
REBAR-TOP
100
AcDbLine
10
32100
20
40475
30
0
11
35000
21
40475
31
0
0
LINE
5
33B
330
10E
100
AcDbEntity
8
REBAR-TOP
100
AcDbLine
10
32100
20
40625
30
0
11
35000
21
40625
31
0
0
LINE
5
33C
330
10E
100
AcDbEntity
8
REBAR-TOP
100
AcDbLine
10
32100
20
40555
30
0
11
32100
21
40695
31
0
0
LINE
5
33D
330
10E
100
AcDbEntity
8
REBAR-TOP
100
AcDbLine
10
35000
20
40555
30
0
11
35000
21
40695
31
0
0
LINE
5
33E
330
10E
100
AcDbEntity
8
REBAR-TOP
100
AcDbLine
10
32875
20
38400
30
0
11
32875
21
41500
31
0
0
LINE
5
33F
330
10E
100
AcDbEntity
8
REBAR-TOP
100
AcDbLine
10
32945
20
38400
30
0
11
32805
21
38400
31
0
0
LINE
5
340
330
10E
100
AcDbEntity
8
REBAR-TOP
100
AcDbLine
10
32945
20
41500
30
0
11
32805
21
41500
31
0
0
LINE
5
341
330
10E
100
AcDbEntity
8
REBAR-TOP
100
AcDbLine
10
33025
20
38400
30
0
11
33025
21
41500
31
0
0
LINE
5
342
330
10E
100
AcDbEntity
8
REBAR-TOP
100
AcDbLine
10
33175
20
38400
30
0
11
33175
21
41500
31
0
0
LINE
5
343
330
10E
100
AcDbEntity
8
REBAR-TOP
100
AcDbLine
10
33325
20
38400
30
0
11
33325
21
41500
31
0
0
LINE
5
344
330
10E
100
AcDbEntity
8
REBAR-TOP
100
AcDbLine
10
33475
20
38400
30
0
11
33475
21
41500
31
0
0
LINE
5
345
330
10E
100
AcDbEntity
8
REBAR-TOP
100
AcDbLine
10
33625
20
38400
30
0
11
33625
21
41500
31
0
0
LINE
5
346
330
10E
100
AcDbEntity
8
REBAR-TOP
100
AcDbLine
10
33775
20
38400
30
0
11
33775
21
41500
31
0
0
LINE
5
347
330
10E
100
AcDbEntity
8
REBAR-TOP
100
AcDbLine
10
33925
20
38400
30
0
11
33925
21
41500
31
0
0
LINE
5
348
330
10E
100
AcDbEntity
8
REBAR-TOP
100
AcDbLine
10
34075
20
38400
30
0
11
34075
21
41500
31
0
0
LINE
5
349
330
10E
100
AcDbEntity
8
REBAR-TOP
100
AcDbLine
10
34225
20
38400
30
0
11
34225
21
41500
31
0
0
LINE
5
34A
330
10E
100
AcDbEntity
8
REBAR-TOP
100
AcDbLine
10
34295
20
38400
30
0
11
34155
21
38400
31
0
0
LINE
5
34B
330
10E
100
AcDbEntity
8
REBAR-TOP
100
AcDbLine
10
34295
20
41500
30
0
11
34155
21
41500
31
0
0
CIRCLE
5
34C
330
10E
100
AcDbEntity
8
CALLOUT
100
AcDbCircle
10
35010
20
41450
30
0
40
360
0
TEXT
5
34D
330
10E
100
AcDbEntity
8
CALLOUT
100
AcDbText
10
35010
20
41450
30
0
40
190
1
TC5
7
STANDARD
72
1
11
35010
21
41450
31
0
100
AcDbText
73
2
0
LINE
5
34E
330
10E
100
AcDbEntity
8
CALLOUT
100
AcDbLine
10
34755.441559
20
41195.441559
30
0
11
34310
21
40750
31
0
0
LINE
5
34F
330
10E
100
AcDbEntity
8
REBAR-TOP
100
AcDbLine
10
39600
20
39275
30
0
11
42500
21
39275
31
0
0
LINE
5
350
330
10E
100
AcDbEntity
8
REBAR-TOP
100
AcDbLine
10
39600
20
39205
30
0
11
39600
21
39345
31
0
0
LINE
5
351
330
10E
100
AcDbEntity
8
REBAR-TOP
100
AcDbLine
10
42500
20
39205
30
0
11
42500
21
39345
31
0
0
LINE
5
352
330
10E
100
AcDbEntity
8
REBAR-TOP
100
AcDbLine
10
39600
20
39425
30
0
11
42500
21
39425
31
0
0
LINE
5
353
330
10E
100
AcDbEntity
8
REBAR-TOP
100
AcDbLine
10
39600
20
39575
30
0
11
42500
21
39575
31
0
0
LINE
5
354
330
10E
100
AcDbEntity
8
REBAR-TOP
100
AcDbLine
10
39600
20
39725
30
0
11
42500
21
39725
31
0
0
LINE
5
355
330
10E
100
AcDbEntity
8
REBAR-TOP
100
AcDbLine
10
39600
20
39875
30
0
11
42500
21
39875
31
0
0
LINE
5
356
330
10E
100
AcDbEntity
8
REBAR-TOP
100
AcDbLine
10
39600
20
40025
30
0
11
42500
21
40025
31
0
0
LINE
5
357
330
10E
100
AcDbEntity
8
REBAR-TOP
100
AcDbLine
10
39600
20
40175
30
0
11
42500
21
40175
31
0
0
LINE
5
358
330
10E
100
AcDbEntity
8
REBAR-TOP
100
AcDbLine
10
39600
20
40325
30
0
11
42500
21
40325
31
0
0
LINE
5
359
330
10E
100
AcDbEntity
8
REBAR-TOP
100
AcDbLine
10
39600
20
40475
30
0
11
42500
21
40475
31
0
0
LINE
5
35A
330
10E
100
AcDbEntity
8
REBAR-TOP
100
AcDbLine
10
39600
20
40625
30
0
11
42500
21
40625
31
0
0
LINE
5
35B
330
10E
100
AcDbEntity
8
REBAR-TOP
100
AcDbLine
10
39600
20
40555
30
0
11
39600
21
40695
31
0
0
LINE
5
35C
330
10E
100
AcDbEntity
8
REBAR-TOP
100
AcDbLine
10
42500
20
40555
30
0
11
42500
21
40695
31
0
0
LINE
5
35D
330
10E
100
AcDbEntity
8
REBAR-TOP
100
AcDbLine
10
40375
20
38400
30
0
11
40375
21
41500
31
0
0
LINE
5
35E
330
10E
100
AcDbEntity
8
REBAR-TOP
100
AcDbLine
10
40445
20
38400
30
0
11
40305
21
38400
31
0
0
LINE
5
35F
330
10E
100
AcDbEntity
8
REBAR-TOP
100
AcDbLine
10
40445
20
41500
30
0
11
40305
21
41500
31
0
0
LINE
5
360
330
10E
100
AcDbEntity
8
REBAR-TOP
100
AcDbLine
10
40525
20
38400
30
0
11
40525
21
41500
31
0
0
LINE
5
361
330
10E
100
AcDbEntity
8
REBAR-TOP
100
AcDbLine
10
40675
20
38400
30
0
11
40675
21
41500
31
0
0
LINE
5
362
330
10E
100
AcDbEntity
8
REBAR-TOP
100
AcDbLine
10
40825
20
38400
30
0
11
40825
21
41500
31
0
0
LINE
5
363
330
10E
100
AcDbEntity
8
REBAR-TOP
100
AcDbLine
10
40975
20
38400
30
0
11
40975
21
41500
31
0
0
LINE
5
364
330
10E
100
AcDbEntity
8
REBAR-TOP
100
AcDbLine
10
41125
20
38400
30
0
11
41125
21
41500
31
0
0
LINE
5
365
330
10E
100
AcDbEntity
8
REBAR-TOP
100
AcDbLine
10
41275
20
38400
30
0
11
41275
21
41500
31
0
0
LINE
5
366
330
10E
100
AcDbEntity
8
REBAR-TOP
100
AcDbLine
10
41425
20
38400
30
0
11
41425
21
41500
31
0
0
LINE
5
367
330
10E
100
AcDbEntity
8
REBAR-TOP
100
AcDbLine
10
41575
20
38400
30
0
11
41575
21
41500
31
0
0
LINE
5
368
330
10E
100
AcDbEntity
8
REBAR-TOP
100
AcDbLine
10
41725
20
38400
30
0
11
41725
21
41500
31
0
0
LINE
5
369
330
10E
100
AcDbEntity
8
REBAR-TOP
100
AcDbLine
10
41795
20
38400
30
0
11
41655
21
38400
31
0
0
LINE
5
36A
330
10E
100
AcDbEntity
8
REBAR-TOP
100
AcDbLine
10
41795
20
41500
30
0
11
41655
21
41500
31
0
0
CIRCLE
5
36B
330
10E
100
AcDbEntity
8
CALLOUT
100
AcDbCircle
10
42510
20
41450
30
0
40
360
0
TEXT
5
36C
330
10E
100
AcDbEntity
8
CALLOUT
100
AcDbText
10
42510
20
41450
30
0
40
190
1
TC5
7
STANDARD
72
1
11
42510
21
41450
31
0
100
AcDbText
73
2
0
LINE
5
36D
330
10E
100
AcDbEntity
8
CALLOUT
100
AcDbLine
10
42255.441559
20
41195.441559
30
0
11
41810
21
40750
31
0
0
LINE
5
36E
330
10E
100
AcDbEntity
8
REBAR-TOP
100
AcDbLine
10
47100
20
39275
30
0
11
49525
21
39275
31
0
0
LINE
5
36F
330
10E
100
AcDbEntity
8
REBAR-TOP
100
AcDbLine
10
47100
20
39205
30
0
11
47100
21
39345
31
0
0
LINE
5
370
330
10E
100
AcDbEntity
8
REBAR-TOP
100
AcDbLine
10
49525
20
39205
30
0
11
49525
21
39345
31
0
0
LINE
5
371
330
10E
100
AcDbEntity
8
REBAR-TOP
100
AcDbLine
10
49525
20
39275
30
0
11
49525
21
39125
31
0
0
LINE
5
372
330
10E
100
AcDbEntity
8
REBAR-TOP
100
AcDbLine
10
47100
20
39425
30
0
11
49525
21
39425
31
0
0
LINE
5
373
330
10E
100
AcDbEntity
8
REBAR-TOP
100
AcDbLine
10
49525
20
39425
30
0
11
49525
21
39275
31
0
0
LINE
5
374
330
10E
100
AcDbEntity
8
REBAR-TOP
100
AcDbLine
10
47100
20
39575
30
0
11
49525
21
39575
31
0
0
LINE
5
375
330
10E
100
AcDbEntity
8
REBAR-TOP
100
AcDbLine
10
49525
20
39575
30
0
11
49525
21
39425
31
0
0
LINE
5
376
330
10E
100
AcDbEntity
8
REBAR-TOP
100
AcDbLine
10
47100
20
39725
30
0
11
49525
21
39725
31
0
0
LINE
5
377
330
10E
100
AcDbEntity
8
REBAR-TOP
100
AcDbLine
10
49525
20
39725
30
0
11
49525
21
39575
31
0
0
LINE
5
378
330
10E
100
AcDbEntity
8
REBAR-TOP
100
AcDbLine
10
47100
20
39875
30
0
11
49525
21
39875
31
0
0
LINE
5
379
330
10E
100
AcDbEntity
8
REBAR-TOP
100
AcDbLine
10
49525
20
39875
30
0
11
49525
21
39725
31
0
0
LINE
5
37A
330
10E
100
AcDbEntity
8
REBAR-TOP
100
AcDbLine
10
47100
20
40025
30
0
11
49525
21
40025
31
0
0
LINE
5
37B
330
10E
100
AcDbEntity
8
REBAR-TOP
100
AcDbLine
10
49525
20
40025
30
0
11
49525
21
39875
31
0
0
LINE
5
37C
330
10E
100
AcDbEntity
8
REBAR-TOP
100
AcDbLine
10
47100
20
40175
30
0
11
49525
21
40175
31
0
0
LINE
5
37D
330
10E
100
AcDbEntity
8
REBAR-TOP
100
AcDbLine
10
49525
20
40175
30
0
11
49525
21
40025
31
0
0
LINE
5
37E
330
10E
100
AcDbEntity
8
REBAR-TOP
100
AcDbLine
10
47100
20
40325
30
0
11
49525
21
40325
31
0
0
LINE
5
37F
330
10E
100
AcDbEntity
8
REBAR-TOP
100
AcDbLine
10
49525
20
40325
30
0
11
49525
21
40175
31
0
0
LINE
5
380
330
10E
100
AcDbEntity
8
REBAR-TOP
100
AcDbLine
10
47100
20
40475
30
0
11
49525
21
40475
31
0
0
LINE
5
381
330
10E
100
AcDbEntity
8
REBAR-TOP
100
AcDbLine
10
49525
20
40475
30
0
11
49525
21
40325
31
0
0
LINE
5
382
330
10E
100
AcDbEntity
8
REBAR-TOP
100
AcDbLine
10
47100
20
40625
30
0
11
49525
21
40625
31
0
0
LINE
5
383
330
10E
100
AcDbEntity
8
REBAR-TOP
100
AcDbLine
10
47100
20
40555
30
0
11
47100
21
40695
31
0
0
LINE
5
384
330
10E
100
AcDbEntity
8
REBAR-TOP
100
AcDbLine
10
49525
20
40555
30
0
11
49525
21
40695
31
0
0
LINE
5
385
330
10E
100
AcDbEntity
8
REBAR-TOP
100
AcDbLine
10
49525
20
40625
30
0
11
49525
21
40475
31
0
0
LINE
5
386
330
10E
100
AcDbEntity
8
REBAR-TOP
100
AcDbLine
10
47875
20
38400
30
0
11
47875
21
43925
31
0
0
LINE
5
387
330
10E
100
AcDbEntity
8
REBAR-TOP
100
AcDbLine
10
47945
20
38400
30
0
11
47805
21
38400
31
0
0
LINE
5
388
330
10E
100
AcDbEntity
8
REBAR-TOP
100
AcDbLine
10
47945
20
43925
30
0
11
47805
21
43925
31
0
0
LINE
5
389
330
10E
100
AcDbEntity
8
REBAR-TOP
100
AcDbLine
10
47875
20
43925
30
0
11
47725
21
43925
31
0
0
LINE
5
38A
330
10E
100
AcDbEntity
8
REBAR-TOP
100
AcDbLine
10
48025
20
38400
30
0
11
48025
21
43925
31
0
0
LINE
5
38B
330
10E
100
AcDbEntity
8
REBAR-TOP
100
AcDbLine
10
48025
20
43925
30
0
11
47875
21
43925
31
0
0
LINE
5
38C
330
10E
100
AcDbEntity
8
REBAR-TOP
100
AcDbLine
10
48175
20
38400
30
0
11
48175
21
43925
31
0
0
LINE
5
38D
330
10E
100
AcDbEntity
8
REBAR-TOP
100
AcDbLine
10
48175
20
43925
30
0
11
48025
21
43925
31
0
0
LINE
5
38E
330
10E
100
AcDbEntity
8
REBAR-TOP
100
AcDbLine
10
48325
20
38400
30
0
11
48325
21
43925
31
0
0
LINE
5
38F
330
10E
100
AcDbEntity
8
REBAR-TOP
100
AcDbLine
10
48325
20
43925
30
0
11
48175
21
43925
31
0
0
LINE
5
390
330
10E
100
AcDbEntity
8
REBAR-TOP
100
AcDbLine
10
48475
20
38400
30
0
11
48475
21
43925
31
0
0
LINE
5
391
330
10E
100
AcDbEntity
8
REBAR-TOP
100
AcDbLine
10
48475
20
43925
30
0
11
48325
21
43925
31
0
0
LINE
5
392
330
10E
100
AcDbEntity
8
REBAR-TOP
100
AcDbLine
10
48625
20
38400
30
0
11
48625
21
43925
31
0
0
LINE
5
393
330
10E
100
AcDbEntity
8
REBAR-TOP
100
AcDbLine
10
48625
20
43925
30
0
11
48475
21
43925
31
0
0
LINE
5
394
330
10E
100
AcDbEntity
8
REBAR-TOP
100
AcDbLine
10
48775
20
38400
30
0
11
48775
21
43925
31
0
0
LINE
5
395
330
10E
100
AcDbEntity
8
REBAR-TOP
100
AcDbLine
10
48775
20
43925
30
0
11
48625
21
43925
31
0
0
LINE
5
396
330
10E
100
AcDbEntity
8
REBAR-TOP
100
AcDbLine
10
48925
20
38400
30
0
11
48925
21
43925
31
0
0
LINE
5
397
330
10E
100
AcDbEntity
8
REBAR-TOP
100
AcDbLine
10
48925
20
43925
30
0
11
48775
21
43925
31
0
0
LINE
5
398
330
10E
100
AcDbEntity
8
REBAR-TOP
100
AcDbLine
10
49075
20
38400
30
0
11
49075
21
43925
31
0
0
LINE
5
399
330
10E
100
AcDbEntity
8
REBAR-TOP
100
AcDbLine
10
49075
20
43925
30
0
11
48925
21
43925
31
0
0
LINE
5
39A
330
10E
100
AcDbEntity
8
REBAR-TOP
100
AcDbLine
10
49225
20
38400
30
0
11
49225
21
43925
31
0
0
LINE
5
39B
330
10E
100
AcDbEntity
8
REBAR-TOP
100
AcDbLine
10
49295
20
38400
30
0
11
49155
21
38400
31
0
0
LINE
5
39C
330
10E
100
AcDbEntity
8
REBAR-TOP
100
AcDbLine
10
49295
20
43925
30
0
11
49155
21
43925
31
0
0
LINE
5
39D
330
10E
100
AcDbEntity
8
REBAR-TOP
100
AcDbLine
10
49225
20
43925
30
0
11
49075
21
43925
31
0
0
CIRCLE
5
39E
330
10E
100
AcDbEntity
8
CALLOUT
100
AcDbCircle
10
49820
20
42420
30
0
40
360
0
TEXT
5
39F
330
10E
100
AcDbEntity
8
CALLOUT
100
AcDbText
10
49820
20
42420
30
0
40
190
1
TC6
7
STANDARD
72
1
11
49820
21
42420
31
0
100
AcDbText
73
2
0
LINE
5
3A0
330
10E
100
AcDbEntity
8
CALLOUT
100
AcDbLine
10
49565.441559
20
42165.441559
30
0
11
49120
21
41720
31
0
0
TEXT
5
3A1
330
10E
100
AcDbEntity
8
REBAR-TEXT
100
AcDbText
10
50025
20
38100
30
0
40
170
1
TC6: 10T16 X-DIR L=2630 (L)
7
STANDARD
72
0
100
AcDbText
73
0
0
TEXT
5
3A2
330
10E
100
AcDbEntity
8
REBAR-TEXT
100
AcDbText
10
50025
20
37860
30
0
40
170
1
      10T16 Y-DIR L=5730 (L)  @150 TOP
7
STANDARD
72
0
100
AcDbText
73
0
0
LINE
5
3A3
330
10E
100
AcDbEntity
8
REBAR-TOP
100
AcDbLine
10
17075
20
31275
30
0
11
20000
21
31275
31
0
0
LINE
5
3A4
330
10E
100
AcDbEntity
8
REBAR-TOP
100
AcDbLine
10
17075
20
31205
30
0
11
17075
21
31345
31
0
0
LINE
5
3A5
330
10E
100
AcDbEntity
8
REBAR-TOP
100
AcDbLine
10
20000
20
31205
30
0
11
20000
21
31345
31
0
0
LINE
5
3A6
330
10E
100
AcDbEntity
8
REBAR-TOP
100
AcDbLine
10
17075
20
31275
30
0
11
17075
21
31125
31
0
0
LINE
5
3A7
330
10E
100
AcDbEntity
8
REBAR-TOP
100
AcDbLine
10
17075
20
31425
30
0
11
20000
21
31425
31
0
0
LINE
5
3A8
330
10E
100
AcDbEntity
8
REBAR-TOP
100
AcDbLine
10
17075
20
31425
30
0
11
17075
21
31275
31
0
0
LINE
5
3A9
330
10E
100
AcDbEntity
8
REBAR-TOP
100
AcDbLine
10
17075
20
31575
30
0
11
20000
21
31575
31
0
0
LINE
5
3AA
330
10E
100
AcDbEntity
8
REBAR-TOP
100
AcDbLine
10
17075
20
31575
30
0
11
17075
21
31425
31
0
0
LINE
5
3AB
330
10E
100
AcDbEntity
8
REBAR-TOP
100
AcDbLine
10
17075
20
31725
30
0
11
20000
21
31725
31
0
0
LINE
5
3AC
330
10E
100
AcDbEntity
8
REBAR-TOP
100
AcDbLine
10
17075
20
31725
30
0
11
17075
21
31575
31
0
0
LINE
5
3AD
330
10E
100
AcDbEntity
8
REBAR-TOP
100
AcDbLine
10
17075
20
31875
30
0
11
20000
21
31875
31
0
0
LINE
5
3AE
330
10E
100
AcDbEntity
8
REBAR-TOP
100
AcDbLine
10
17075
20
31875
30
0
11
17075
21
31725
31
0
0
LINE
5
3AF
330
10E
100
AcDbEntity
8
REBAR-TOP
100
AcDbLine
10
17075
20
32025
30
0
11
20000
21
32025
31
0
0
LINE
5
3B0
330
10E
100
AcDbEntity
8
REBAR-TOP
100
AcDbLine
10
17075
20
32025
30
0
11
17075
21
31875
31
0
0
LINE
5
3B1
330
10E
100
AcDbEntity
8
REBAR-TOP
100
AcDbLine
10
17075
20
32175
30
0
11
20000
21
32175
31
0
0
LINE
5
3B2
330
10E
100
AcDbEntity
8
REBAR-TOP
100
AcDbLine
10
17075
20
32175
30
0
11
17075
21
32025
31
0
0
LINE
5
3B3
330
10E
100
AcDbEntity
8
REBAR-TOP
100
AcDbLine
10
17075
20
32325
30
0
11
20000
21
32325
31
0
0
LINE
5
3B4
330
10E
100
AcDbEntity
8
REBAR-TOP
100
AcDbLine
10
17075
20
32325
30
0
11
17075
21
32175
31
0
0
LINE
5
3B5
330
10E
100
AcDbEntity
8
REBAR-TOP
100
AcDbLine
10
17075
20
32475
30
0
11
20000
21
32475
31
0
0
LINE
5
3B6
330
10E
100
AcDbEntity
8
REBAR-TOP
100
AcDbLine
10
17075
20
32475
30
0
11
17075
21
32325
31
0
0
LINE
5
3B7
330
10E
100
AcDbEntity
8
REBAR-TOP
100
AcDbLine
10
17075
20
32625
30
0
11
20000
21
32625
31
0
0
LINE
5
3B8
330
10E
100
AcDbEntity
8
REBAR-TOP
100
AcDbLine
10
17075
20
32555
30
0
11
17075
21
32695
31
0
0
LINE
5
3B9
330
10E
100
AcDbEntity
8
REBAR-TOP
100
AcDbLine
10
20000
20
32555
30
0
11
20000
21
32695
31
0
0
LINE
5
3BA
330
10E
100
AcDbEntity
8
REBAR-TOP
100
AcDbLine
10
17075
20
32625
30
0
11
17075
21
32475
31
0
0
LINE
5
3BB
330
10E
100
AcDbEntity
8
REBAR-TOP
100
AcDbLine
10
17875
20
30400
30
0
11
17875
21
33500
31
0
0
LINE
5
3BC
330
10E
100
AcDbEntity
8
REBAR-TOP
100
AcDbLine
10
17945
20
30400
30
0
11
17805
21
30400
31
0
0
LINE
5
3BD
330
10E
100
AcDbEntity
8
REBAR-TOP
100
AcDbLine
10
17945
20
33500
30
0
11
17805
21
33500
31
0
0
LINE
5
3BE
330
10E
100
AcDbEntity
8
REBAR-TOP
100
AcDbLine
10
18025
20
30400
30
0
11
18025
21
33500
31
0
0
LINE
5
3BF
330
10E
100
AcDbEntity
8
REBAR-TOP
100
AcDbLine
10
18175
20
30400
30
0
11
18175
21
33500
31
0
0
LINE
5
3C0
330
10E
100
AcDbEntity
8
REBAR-TOP
100
AcDbLine
10
18325
20
30400
30
0
11
18325
21
33500
31
0
0
LINE
5
3C1
330
10E
100
AcDbEntity
8
REBAR-TOP
100
AcDbLine
10
18475
20
30400
30
0
11
18475
21
33500
31
0
0
LINE
5
3C2
330
10E
100
AcDbEntity
8
REBAR-TOP
100
AcDbLine
10
18625
20
30400
30
0
11
18625
21
33500
31
0
0
LINE
5
3C3
330
10E
100
AcDbEntity
8
REBAR-TOP
100
AcDbLine
10
18775
20
30400
30
0
11
18775
21
33500
31
0
0
LINE
5
3C4
330
10E
100
AcDbEntity
8
REBAR-TOP
100
AcDbLine
10
18925
20
30400
30
0
11
18925
21
33500
31
0
0
LINE
5
3C5
330
10E
100
AcDbEntity
8
REBAR-TOP
100
AcDbLine
10
19075
20
30400
30
0
11
19075
21
33500
31
0
0
LINE
5
3C6
330
10E
100
AcDbEntity
8
REBAR-TOP
100
AcDbLine
10
19225
20
30400
30
0
11
19225
21
33500
31
0
0
LINE
5
3C7
330
10E
100
AcDbEntity
8
REBAR-TOP
100
AcDbLine
10
19295
20
30400
30
0
11
19155
21
30400
31
0
0
LINE
5
3C8
330
10E
100
AcDbEntity
8
REBAR-TOP
100
AcDbLine
10
19295
20
33500
30
0
11
19155
21
33500
31
0
0
CIRCLE
5
3C9
330
10E
100
AcDbEntity
8
CALLOUT
100
AcDbCircle
10
20010
20
33450
30
0
40
360
0
TEXT
5
3CA
330
10E
100
AcDbEntity
8
CALLOUT
100
AcDbText
10
20010
20
33450
30
0
40
190
1
TC4
7
STANDARD
72
1
11
20010
21
33450
31
0
100
AcDbText
73
2
0
LINE
5
3CB
330
10E
100
AcDbEntity
8
CALLOUT
100
AcDbLine
10
19755.441559
20
33195.441559
30
0
11
19310
21
32750
31
0
0
LINE
5
3CC
330
10E
100
AcDbEntity
8
REBAR-TOP
100
AcDbLine
10
24600
20
31275
30
0
11
27500
21
31275
31
0
0
LINE
5
3CD
330
10E
100
AcDbEntity
8
REBAR-TOP
100
AcDbLine
10
24600
20
31205
30
0
11
24600
21
31345
31
0
0
LINE
5
3CE
330
10E
100
AcDbEntity
8
REBAR-TOP
100
AcDbLine
10
27500
20
31205
30
0
11
27500
21
31345
31
0
0
LINE
5
3CF
330
10E
100
AcDbEntity
8
REBAR-TOP
100
AcDbLine
10
24600
20
31425
30
0
11
27500
21
31425
31
0
0
LINE
5
3D0
330
10E
100
AcDbEntity
8
REBAR-TOP
100
AcDbLine
10
24600
20
31575
30
0
11
27500
21
31575
31
0
0
LINE
5
3D1
330
10E
100
AcDbEntity
8
REBAR-TOP
100
AcDbLine
10
24600
20
31725
30
0
11
27500
21
31725
31
0
0
LINE
5
3D2
330
10E
100
AcDbEntity
8
REBAR-TOP
100
AcDbLine
10
24600
20
31875
30
0
11
27500
21
31875
31
0
0
LINE
5
3D3
330
10E
100
AcDbEntity
8
REBAR-TOP
100
AcDbLine
10
24600
20
32025
30
0
11
27500
21
32025
31
0
0
LINE
5
3D4
330
10E
100
AcDbEntity
8
REBAR-TOP
100
AcDbLine
10
24600
20
32175
30
0
11
27500
21
32175
31
0
0
LINE
5
3D5
330
10E
100
AcDbEntity
8
REBAR-TOP
100
AcDbLine
10
24600
20
32325
30
0
11
27500
21
32325
31
0
0
LINE
5
3D6
330
10E
100
AcDbEntity
8
REBAR-TOP
100
AcDbLine
10
24600
20
32475
30
0
11
27500
21
32475
31
0
0
LINE
5
3D7
330
10E
100
AcDbEntity
8
REBAR-TOP
100
AcDbLine
10
24600
20
32625
30
0
11
27500
21
32625
31
0
0
LINE
5
3D8
330
10E
100
AcDbEntity
8
REBAR-TOP
100
AcDbLine
10
24600
20
32555
30
0
11
24600
21
32695
31
0
0
LINE
5
3D9
330
10E
100
AcDbEntity
8
REBAR-TOP
100
AcDbLine
10
27500
20
32555
30
0
11
27500
21
32695
31
0
0
LINE
5
3DA
330
10E
100
AcDbEntity
8
REBAR-TOP
100
AcDbLine
10
25375
20
30400
30
0
11
25375
21
33500
31
0
0
LINE
5
3DB
330
10E
100
AcDbEntity
8
REBAR-TOP
100
AcDbLine
10
25445
20
30400
30
0
11
25305
21
30400
31
0
0
LINE
5
3DC
330
10E
100
AcDbEntity
8
REBAR-TOP
100
AcDbLine
10
25445
20
33500
30
0
11
25305
21
33500
31
0
0
LINE
5
3DD
330
10E
100
AcDbEntity
8
REBAR-TOP
100
AcDbLine
10
25525
20
30400
30
0
11
25525
21
33500
31
0
0
LINE
5
3DE
330
10E
100
AcDbEntity
8
REBAR-TOP
100
AcDbLine
10
25675
20
30400
30
0
11
25675
21
33500
31
0
0
LINE
5
3DF
330
10E
100
AcDbEntity
8
REBAR-TOP
100
AcDbLine
10
25825
20
30400
30
0
11
25825
21
33500
31
0
0
LINE
5
3E0
330
10E
100
AcDbEntity
8
REBAR-TOP
100
AcDbLine
10
25975
20
30400
30
0
11
25975
21
33500
31
0
0
LINE
5
3E1
330
10E
100
AcDbEntity
8
REBAR-TOP
100
AcDbLine
10
26125
20
30400
30
0
11
26125
21
33500
31
0
0
LINE
5
3E2
330
10E
100
AcDbEntity
8
REBAR-TOP
100
AcDbLine
10
26275
20
30400
30
0
11
26275
21
33500
31
0
0
LINE
5
3E3
330
10E
100
AcDbEntity
8
REBAR-TOP
100
AcDbLine
10
26425
20
30400
30
0
11
26425
21
33500
31
0
0
LINE
5
3E4
330
10E
100
AcDbEntity
8
REBAR-TOP
100
AcDbLine
10
26575
20
30400
30
0
11
26575
21
33500
31
0
0
LINE
5
3E5
330
10E
100
AcDbEntity
8
REBAR-TOP
100
AcDbLine
10
26725
20
30400
30
0
11
26725
21
33500
31
0
0
LINE
5
3E6
330
10E
100
AcDbEntity
8
REBAR-TOP
100
AcDbLine
10
26795
20
30400
30
0
11
26655
21
30400
31
0
0
LINE
5
3E7
330
10E
100
AcDbEntity
8
REBAR-TOP
100
AcDbLine
10
26795
20
33500
30
0
11
26655
21
33500
31
0
0
CIRCLE
5
3E8
330
10E
100
AcDbEntity
8
CALLOUT
100
AcDbCircle
10
27510
20
33450
30
0
40
360
0
TEXT
5
3E9
330
10E
100
AcDbEntity
8
CALLOUT
100
AcDbText
10
27510
20
33450
30
0
40
190
1
TC5
7
STANDARD
72
1
11
27510
21
33450
31
0
100
AcDbText
73
2
0
LINE
5
3EA
330
10E
100
AcDbEntity
8
CALLOUT
100
AcDbLine
10
27255.441559
20
33195.441559
30
0
11
26810
21
32750
31
0
0
LINE
5
3EB
330
10E
100
AcDbEntity
8
REBAR-TOP
100
AcDbLine
10
32100
20
31275
30
0
11
35000
21
31275
31
0
0
LINE
5
3EC
330
10E
100
AcDbEntity
8
REBAR-TOP
100
AcDbLine
10
32100
20
31205
30
0
11
32100
21
31345
31
0
0
LINE
5
3ED
330
10E
100
AcDbEntity
8
REBAR-TOP
100
AcDbLine
10
35000
20
31205
30
0
11
35000
21
31345
31
0
0
LINE
5
3EE
330
10E
100
AcDbEntity
8
REBAR-TOP
100
AcDbLine
10
32100
20
31425
30
0
11
35000
21
31425
31
0
0
LINE
5
3EF
330
10E
100
AcDbEntity
8
REBAR-TOP
100
AcDbLine
10
32100
20
31575
30
0
11
35000
21
31575
31
0
0
LINE
5
3F0
330
10E
100
AcDbEntity
8
REBAR-TOP
100
AcDbLine
10
32100
20
31725
30
0
11
35000
21
31725
31
0
0
LINE
5
3F1
330
10E
100
AcDbEntity
8
REBAR-TOP
100
AcDbLine
10
32100
20
31875
30
0
11
35000
21
31875
31
0
0
LINE
5
3F2
330
10E
100
AcDbEntity
8
REBAR-TOP
100
AcDbLine
10
32100
20
32025
30
0
11
35000
21
32025
31
0
0
LINE
5
3F3
330
10E
100
AcDbEntity
8
REBAR-TOP
100
AcDbLine
10
32100
20
32175
30
0
11
35000
21
32175
31
0
0
LINE
5
3F4
330
10E
100
AcDbEntity
8
REBAR-TOP
100
AcDbLine
10
32100
20
32325
30
0
11
35000
21
32325
31
0
0
LINE
5
3F5
330
10E
100
AcDbEntity
8
REBAR-TOP
100
AcDbLine
10
32100
20
32475
30
0
11
35000
21
32475
31
0
0
LINE
5
3F6
330
10E
100
AcDbEntity
8
REBAR-TOP
100
AcDbLine
10
32100
20
32625
30
0
11
35000
21
32625
31
0
0
LINE
5
3F7
330
10E
100
AcDbEntity
8
REBAR-TOP
100
AcDbLine
10
32100
20
32555
30
0
11
32100
21
32695
31
0
0
LINE
5
3F8
330
10E
100
AcDbEntity
8
REBAR-TOP
100
AcDbLine
10
35000
20
32555
30
0
11
35000
21
32695
31
0
0
LINE
5
3F9
330
10E
100
AcDbEntity
8
REBAR-TOP
100
AcDbLine
10
32875
20
30400
30
0
11
32875
21
33500
31
0
0
LINE
5
3FA
330
10E
100
AcDbEntity
8
REBAR-TOP
100
AcDbLine
10
32945
20
30400
30
0
11
32805
21
30400
31
0
0
LINE
5
3FB
330
10E
100
AcDbEntity
8
REBAR-TOP
100
AcDbLine
10
32945
20
33500
30
0
11
32805
21
33500
31
0
0
LINE
5
3FC
330
10E
100
AcDbEntity
8
REBAR-TOP
100
AcDbLine
10
33025
20
30400
30
0
11
33025
21
33500
31
0
0
LINE
5
3FD
330
10E
100
AcDbEntity
8
REBAR-TOP
100
AcDbLine
10
33175
20
30400
30
0
11
33175
21
33500
31
0
0
LINE
5
3FE
330
10E
100
AcDbEntity
8
REBAR-TOP
100
AcDbLine
10
33325
20
30400
30
0
11
33325
21
33500
31
0
0
LINE
5
3FF
330
10E
100
AcDbEntity
8
REBAR-TOP
100
AcDbLine
10
33475
20
30400
30
0
11
33475
21
33500
31
0
0
LINE
5
400
330
10E
100
AcDbEntity
8
REBAR-TOP
100
AcDbLine
10
33625
20
30400
30
0
11
33625
21
33500
31
0
0
LINE
5
401
330
10E
100
AcDbEntity
8
REBAR-TOP
100
AcDbLine
10
33775
20
30400
30
0
11
33775
21
33500
31
0
0
LINE
5
402
330
10E
100
AcDbEntity
8
REBAR-TOP
100
AcDbLine
10
33925
20
30400
30
0
11
33925
21
33500
31
0
0
LINE
5
403
330
10E
100
AcDbEntity
8
REBAR-TOP
100
AcDbLine
10
34075
20
30400
30
0
11
34075
21
33500
31
0
0
LINE
5
404
330
10E
100
AcDbEntity
8
REBAR-TOP
100
AcDbLine
10
34225
20
30400
30
0
11
34225
21
33500
31
0
0
LINE
5
405
330
10E
100
AcDbEntity
8
REBAR-TOP
100
AcDbLine
10
34295
20
30400
30
0
11
34155
21
30400
31
0
0
LINE
5
406
330
10E
100
AcDbEntity
8
REBAR-TOP
100
AcDbLine
10
34295
20
33500
30
0
11
34155
21
33500
31
0
0
CIRCLE
5
407
330
10E
100
AcDbEntity
8
CALLOUT
100
AcDbCircle
10
35010
20
33450
30
0
40
360
0
TEXT
5
408
330
10E
100
AcDbEntity
8
CALLOUT
100
AcDbText
10
35010
20
33450
30
0
40
190
1
TC5
7
STANDARD
72
1
11
35010
21
33450
31
0
100
AcDbText
73
2
0
LINE
5
409
330
10E
100
AcDbEntity
8
CALLOUT
100
AcDbLine
10
34755.441559
20
33195.441559
30
0
11
34310
21
32750
31
0
0
LINE
5
40A
330
10E
100
AcDbEntity
8
REBAR-TOP
100
AcDbLine
10
39600
20
31275
30
0
11
42500
21
31275
31
0
0
LINE
5
40B
330
10E
100
AcDbEntity
8
REBAR-TOP
100
AcDbLine
10
39600
20
31205
30
0
11
39600
21
31345
31
0
0
LINE
5
40C
330
10E
100
AcDbEntity
8
REBAR-TOP
100
AcDbLine
10
42500
20
31205
30
0
11
42500
21
31345
31
0
0
LINE
5
40D
330
10E
100
AcDbEntity
8
REBAR-TOP
100
AcDbLine
10
39600
20
31425
30
0
11
42500
21
31425
31
0
0
LINE
5
40E
330
10E
100
AcDbEntity
8
REBAR-TOP
100
AcDbLine
10
39600
20
31575
30
0
11
42500
21
31575
31
0
0
LINE
5
40F
330
10E
100
AcDbEntity
8
REBAR-TOP
100
AcDbLine
10
39600
20
31725
30
0
11
42500
21
31725
31
0
0
LINE
5
410
330
10E
100
AcDbEntity
8
REBAR-TOP
100
AcDbLine
10
39600
20
31875
30
0
11
42500
21
31875
31
0
0
LINE
5
411
330
10E
100
AcDbEntity
8
REBAR-TOP
100
AcDbLine
10
39600
20
32025
30
0
11
42500
21
32025
31
0
0
LINE
5
412
330
10E
100
AcDbEntity
8
REBAR-TOP
100
AcDbLine
10
39600
20
32175
30
0
11
42500
21
32175
31
0
0
LINE
5
413
330
10E
100
AcDbEntity
8
REBAR-TOP
100
AcDbLine
10
39600
20
32325
30
0
11
42500
21
32325
31
0
0
LINE
5
414
330
10E
100
AcDbEntity
8
REBAR-TOP
100
AcDbLine
10
39600
20
32475
30
0
11
42500
21
32475
31
0
0
LINE
5
415
330
10E
100
AcDbEntity
8
REBAR-TOP
100
AcDbLine
10
39600
20
32625
30
0
11
42500
21
32625
31
0
0
LINE
5
416
330
10E
100
AcDbEntity
8
REBAR-TOP
100
AcDbLine
10
39600
20
32555
30
0
11
39600
21
32695
31
0
0
LINE
5
417
330
10E
100
AcDbEntity
8
REBAR-TOP
100
AcDbLine
10
42500
20
32555
30
0
11
42500
21
32695
31
0
0
LINE
5
418
330
10E
100
AcDbEntity
8
REBAR-TOP
100
AcDbLine
10
40375
20
30400
30
0
11
40375
21
33500
31
0
0
LINE
5
419
330
10E
100
AcDbEntity
8
REBAR-TOP
100
AcDbLine
10
40445
20
30400
30
0
11
40305
21
30400
31
0
0
LINE
5
41A
330
10E
100
AcDbEntity
8
REBAR-TOP
100
AcDbLine
10
40445
20
33500
30
0
11
40305
21
33500
31
0
0
LINE
5
41B
330
10E
100
AcDbEntity
8
REBAR-TOP
100
AcDbLine
10
40525
20
30400
30
0
11
40525
21
33500
31
0
0
LINE
5
41C
330
10E
100
AcDbEntity
8
REBAR-TOP
100
AcDbLine
10
40675
20
30400
30
0
11
40675
21
33500
31
0
0
LINE
5
41D
330
10E
100
AcDbEntity
8
REBAR-TOP
100
AcDbLine
10
40825
20
30400
30
0
11
40825
21
33500
31
0
0
LINE
5
41E
330
10E
100
AcDbEntity
8
REBAR-TOP
100
AcDbLine
10
40975
20
30400
30
0
11
40975
21
33500
31
0
0
LINE
5
41F
330
10E
100
AcDbEntity
8
REBAR-TOP
100
AcDbLine
10
41125
20
30400
30
0
11
41125
21
33500
31
0
0
LINE
5
420
330
10E
100
AcDbEntity
8
REBAR-TOP
100
AcDbLine
10
41275
20
30400
30
0
11
41275
21
33500
31
0
0
LINE
5
421
330
10E
100
AcDbEntity
8
REBAR-TOP
100
AcDbLine
10
41425
20
30400
30
0
11
41425
21
33500
31
0
0
LINE
5
422
330
10E
100
AcDbEntity
8
REBAR-TOP
100
AcDbLine
10
41575
20
30400
30
0
11
41575
21
33500
31
0
0
LINE
5
423
330
10E
100
AcDbEntity
8
REBAR-TOP
100
AcDbLine
10
41725
20
30400
30
0
11
41725
21
33500
31
0
0
LINE
5
424
330
10E
100
AcDbEntity
8
REBAR-TOP
100
AcDbLine
10
41795
20
30400
30
0
11
41655
21
30400
31
0
0
LINE
5
425
330
10E
100
AcDbEntity
8
REBAR-TOP
100
AcDbLine
10
41795
20
33500
30
0
11
41655
21
33500
31
0
0
CIRCLE
5
426
330
10E
100
AcDbEntity
8
CALLOUT
100
AcDbCircle
10
42510
20
33450
30
0
40
360
0
TEXT
5
427
330
10E
100
AcDbEntity
8
CALLOUT
100
AcDbText
10
42510
20
33450
30
0
40
190
1
TC5
7
STANDARD
72
1
11
42510
21
33450
31
0
100
AcDbText
73
2
0
LINE
5
428
330
10E
100
AcDbEntity
8
CALLOUT
100
AcDbLine
10
42255.441559
20
33195.441559
30
0
11
41810
21
32750
31
0
0
LINE
5
429
330
10E
100
AcDbEntity
8
REBAR-TOP
100
AcDbLine
10
47100
20
31275
30
0
11
49525
21
31275
31
0
0
LINE
5
42A
330
10E
100
AcDbEntity
8
REBAR-TOP
100
AcDbLine
10
47100
20
31205
30
0
11
47100
21
31345
31
0
0
LINE
5
42B
330
10E
100
AcDbEntity
8
REBAR-TOP
100
AcDbLine
10
49525
20
31205
30
0
11
49525
21
31345
31
0
0
LINE
5
42C
330
10E
100
AcDbEntity
8
REBAR-TOP
100
AcDbLine
10
49525
20
31275
30
0
11
49525
21
31125
31
0
0
LINE
5
42D
330
10E
100
AcDbEntity
8
REBAR-TOP
100
AcDbLine
10
47100
20
31425
30
0
11
49525
21
31425
31
0
0
LINE
5
42E
330
10E
100
AcDbEntity
8
REBAR-TOP
100
AcDbLine
10
49525
20
31425
30
0
11
49525
21
31275
31
0
0
LINE
5
42F
330
10E
100
AcDbEntity
8
REBAR-TOP
100
AcDbLine
10
47100
20
31575
30
0
11
49525
21
31575
31
0
0
LINE
5
430
330
10E
100
AcDbEntity
8
REBAR-TOP
100
AcDbLine
10
49525
20
31575
30
0
11
49525
21
31425
31
0
0
LINE
5
431
330
10E
100
AcDbEntity
8
REBAR-TOP
100
AcDbLine
10
47100
20
31725
30
0
11
49525
21
31725
31
0
0
LINE
5
432
330
10E
100
AcDbEntity
8
REBAR-TOP
100
AcDbLine
10
49525
20
31725
30
0
11
49525
21
31575
31
0
0
LINE
5
433
330
10E
100
AcDbEntity
8
REBAR-TOP
100
AcDbLine
10
47100
20
31875
30
0
11
49525
21
31875
31
0
0
LINE
5
434
330
10E
100
AcDbEntity
8
REBAR-TOP
100
AcDbLine
10
49525
20
31875
30
0
11
49525
21
31725
31
0
0
LINE
5
435
330
10E
100
AcDbEntity
8
REBAR-TOP
100
AcDbLine
10
47100
20
32025
30
0
11
49525
21
32025
31
0
0
LINE
5
436
330
10E
100
AcDbEntity
8
REBAR-TOP
100
AcDbLine
10
49525
20
32025
30
0
11
49525
21
31875
31
0
0
LINE
5
437
330
10E
100
AcDbEntity
8
REBAR-TOP
100
AcDbLine
10
47100
20
32175
30
0
11
49525
21
32175
31
0
0
LINE
5
438
330
10E
100
AcDbEntity
8
REBAR-TOP
100
AcDbLine
10
49525
20
32175
30
0
11
49525
21
32025
31
0
0
LINE
5
439
330
10E
100
AcDbEntity
8
REBAR-TOP
100
AcDbLine
10
47100
20
32325
30
0
11
49525
21
32325
31
0
0
LINE
5
43A
330
10E
100
AcDbEntity
8
REBAR-TOP
100
AcDbLine
10
49525
20
32325
30
0
11
49525
21
32175
31
0
0
LINE
5
43B
330
10E
100
AcDbEntity
8
REBAR-TOP
100
AcDbLine
10
47100
20
32475
30
0
11
49525
21
32475
31
0
0
LINE
5
43C
330
10E
100
AcDbEntity
8
REBAR-TOP
100
AcDbLine
10
49525
20
32475
30
0
11
49525
21
32325
31
0
0
LINE
5
43D
330
10E
100
AcDbEntity
8
REBAR-TOP
100
AcDbLine
10
47100
20
32625
30
0
11
49525
21
32625
31
0
0
LINE
5
43E
330
10E
100
AcDbEntity
8
REBAR-TOP
100
AcDbLine
10
47100
20
32555
30
0
11
47100
21
32695
31
0
0
LINE
5
43F
330
10E
100
AcDbEntity
8
REBAR-TOP
100
AcDbLine
10
49525
20
32555
30
0
11
49525
21
32695
31
0
0
LINE
5
440
330
10E
100
AcDbEntity
8
REBAR-TOP
100
AcDbLine
10
49525
20
32625
30
0
11
49525
21
32475
31
0
0
LINE
5
441
330
10E
100
AcDbEntity
8
REBAR-TOP
100
AcDbLine
10
47875
20
30400
30
0
11
47875
21
33500
31
0
0
LINE
5
442
330
10E
100
AcDbEntity
8
REBAR-TOP
100
AcDbLine
10
47945
20
30400
30
0
11
47805
21
30400
31
0
0
LINE
5
443
330
10E
100
AcDbEntity
8
REBAR-TOP
100
AcDbLine
10
47945
20
33500
30
0
11
47805
21
33500
31
0
0
LINE
5
444
330
10E
100
AcDbEntity
8
REBAR-TOP
100
AcDbLine
10
48025
20
30400
30
0
11
48025
21
33500
31
0
0
LINE
5
445
330
10E
100
AcDbEntity
8
REBAR-TOP
100
AcDbLine
10
48175
20
30400
30
0
11
48175
21
33500
31
0
0
LINE
5
446
330
10E
100
AcDbEntity
8
REBAR-TOP
100
AcDbLine
10
48325
20
30400
30
0
11
48325
21
33500
31
0
0
LINE
5
447
330
10E
100
AcDbEntity
8
REBAR-TOP
100
AcDbLine
10
48475
20
30400
30
0
11
48475
21
33500
31
0
0
LINE
5
448
330
10E
100
AcDbEntity
8
REBAR-TOP
100
AcDbLine
10
48625
20
30400
30
0
11
48625
21
33500
31
0
0
LINE
5
449
330
10E
100
AcDbEntity
8
REBAR-TOP
100
AcDbLine
10
48775
20
30400
30
0
11
48775
21
33500
31
0
0
LINE
5
44A
330
10E
100
AcDbEntity
8
REBAR-TOP
100
AcDbLine
10
48925
20
30400
30
0
11
48925
21
33500
31
0
0
LINE
5
44B
330
10E
100
AcDbEntity
8
REBAR-TOP
100
AcDbLine
10
49075
20
30400
30
0
11
49075
21
33500
31
0
0
LINE
5
44C
330
10E
100
AcDbEntity
8
REBAR-TOP
100
AcDbLine
10
49225
20
30400
30
0
11
49225
21
33500
31
0
0
LINE
5
44D
330
10E
100
AcDbEntity
8
REBAR-TOP
100
AcDbLine
10
49295
20
30400
30
0
11
49155
21
30400
31
0
0
LINE
5
44E
330
10E
100
AcDbEntity
8
REBAR-TOP
100
AcDbLine
10
49295
20
33500
30
0
11
49155
21
33500
31
0
0
CIRCLE
5
44F
330
10E
100
AcDbEntity
8
CALLOUT
100
AcDbCircle
10
49820
20
33450
30
0
40
360
0
TEXT
5
450
330
10E
100
AcDbEntity
8
CALLOUT
100
AcDbText
10
49820
20
33450
30
0
40
190
1
TC7
7
STANDARD
72
1
11
49820
21
33450
31
0
100
AcDbText
73
2
0
LINE
5
451
330
10E
100
AcDbEntity
8
CALLOUT
100
AcDbLine
10
49565.441559
20
33195.441559
30
0
11
49120
21
32750
31
0
0
TEXT
5
452
330
10E
100
AcDbEntity
8
REBAR-TEXT
100
AcDbText
10
50025
20
30100
30
0
40
170
1
TC7: 10T16 X-DIR L=2630 (L)
7
STANDARD
72
0
100
AcDbText
73
0
0
TEXT
5
453
330
10E
100
AcDbEntity
8
REBAR-TEXT
100
AcDbText
10
50025
20
29860
30
0
40
170
1
      10T16 Y-DIR L=3100 (STR)  @150 TOP
7
STANDARD
72
0
100
AcDbText
73
0
0
LINE
5
454
330
10E
100
AcDbEntity
8
REBAR-TOP
100
AcDbLine
10
17075
20
23275
30
0
11
20000
21
23275
31
0
0
LINE
5
455
330
10E
100
AcDbEntity
8
REBAR-TOP
100
AcDbLine
10
17075
20
23205
30
0
11
17075
21
23345
31
0
0
LINE
5
456
330
10E
100
AcDbEntity
8
REBAR-TOP
100
AcDbLine
10
20000
20
23205
30
0
11
20000
21
23345
31
0
0
LINE
5
457
330
10E
100
AcDbEntity
8
REBAR-TOP
100
AcDbLine
10
17075
20
23275
30
0
11
17075
21
23125
31
0
0
LINE
5
458
330
10E
100
AcDbEntity
8
REBAR-TOP
100
AcDbLine
10
17075
20
23425
30
0
11
20000
21
23425
31
0
0
LINE
5
459
330
10E
100
AcDbEntity
8
REBAR-TOP
100
AcDbLine
10
17075
20
23425
30
0
11
17075
21
23275
31
0
0
LINE
5
45A
330
10E
100
AcDbEntity
8
REBAR-TOP
100
AcDbLine
10
17075
20
23575
30
0
11
20000
21
23575
31
0
0
LINE
5
45B
330
10E
100
AcDbEntity
8
REBAR-TOP
100
AcDbLine
10
17075
20
23575
30
0
11
17075
21
23425
31
0
0
LINE
5
45C
330
10E
100
AcDbEntity
8
REBAR-TOP
100
AcDbLine
10
17075
20
23725
30
0
11
20000
21
23725
31
0
0
LINE
5
45D
330
10E
100
AcDbEntity
8
REBAR-TOP
100
AcDbLine
10
17075
20
23725
30
0
11
17075
21
23575
31
0
0
LINE
5
45E
330
10E
100
AcDbEntity
8
REBAR-TOP
100
AcDbLine
10
17075
20
23875
30
0
11
20000
21
23875
31
0
0
LINE
5
45F
330
10E
100
AcDbEntity
8
REBAR-TOP
100
AcDbLine
10
17075
20
23875
30
0
11
17075
21
23725
31
0
0
LINE
5
460
330
10E
100
AcDbEntity
8
REBAR-TOP
100
AcDbLine
10
17075
20
24025
30
0
11
20000
21
24025
31
0
0
LINE
5
461
330
10E
100
AcDbEntity
8
REBAR-TOP
100
AcDbLine
10
17075
20
24025
30
0
11
17075
21
23875
31
0
0
LINE
5
462
330
10E
100
AcDbEntity
8
REBAR-TOP
100
AcDbLine
10
17075
20
24175
30
0
11
20000
21
24175
31
0
0
LINE
5
463
330
10E
100
AcDbEntity
8
REBAR-TOP
100
AcDbLine
10
17075
20
24175
30
0
11
17075
21
24025
31
0
0
LINE
5
464
330
10E
100
AcDbEntity
8
REBAR-TOP
100
AcDbLine
10
17075
20
24325
30
0
11
20000
21
24325
31
0
0
LINE
5
465
330
10E
100
AcDbEntity
8
REBAR-TOP
100
AcDbLine
10
17075
20
24325
30
0
11
17075
21
24175
31
0
0
LINE
5
466
330
10E
100
AcDbEntity
8
REBAR-TOP
100
AcDbLine
10
17075
20
24475
30
0
11
20000
21
24475
31
0
0
LINE
5
467
330
10E
100
AcDbEntity
8
REBAR-TOP
100
AcDbLine
10
17075
20
24475
30
0
11
17075
21
24325
31
0
0
LINE
5
468
330
10E
100
AcDbEntity
8
REBAR-TOP
100
AcDbLine
10
17075
20
24625
30
0
11
20000
21
24625
31
0
0
LINE
5
469
330
10E
100
AcDbEntity
8
REBAR-TOP
100
AcDbLine
10
17075
20
24555
30
0
11
17075
21
24695
31
0
0
LINE
5
46A
330
10E
100
AcDbEntity
8
REBAR-TOP
100
AcDbLine
10
20000
20
24555
30
0
11
20000
21
24695
31
0
0
LINE
5
46B
330
10E
100
AcDbEntity
8
REBAR-TOP
100
AcDbLine
10
17075
20
24625
30
0
11
17075
21
24475
31
0
0
LINE
5
46C
330
10E
100
AcDbEntity
8
REBAR-TOP
100
AcDbLine
10
17875
20
22975
30
0
11
17875
21
25500
31
0
0
LINE
5
46D
330
10E
100
AcDbEntity
8
REBAR-TOP
100
AcDbLine
10
17945
20
22975
30
0
11
17805
21
22975
31
0
0
LINE
5
46E
330
10E
100
AcDbEntity
8
REBAR-TOP
100
AcDbLine
10
17945
20
25500
30
0
11
17805
21
25500
31
0
0
LINE
5
46F
330
10E
100
AcDbEntity
8
REBAR-TOP
100
AcDbLine
10
17875
20
22975
30
0
11
17725
21
22975
31
0
0
LINE
5
470
330
10E
100
AcDbEntity
8
REBAR-TOP
100
AcDbLine
10
18025
20
22975
30
0
11
18025
21
25500
31
0
0
LINE
5
471
330
10E
100
AcDbEntity
8
REBAR-TOP
100
AcDbLine
10
18025
20
22975
30
0
11
17875
21
22975
31
0
0
LINE
5
472
330
10E
100
AcDbEntity
8
REBAR-TOP
100
AcDbLine
10
18175
20
22975
30
0
11
18175
21
25500
31
0
0
LINE
5
473
330
10E
100
AcDbEntity
8
REBAR-TOP
100
AcDbLine
10
18175
20
22975
30
0
11
18025
21
22975
31
0
0
LINE
5
474
330
10E
100
AcDbEntity
8
REBAR-TOP
100
AcDbLine
10
18325
20
22975
30
0
11
18325
21
25500
31
0
0
LINE
5
475
330
10E
100
AcDbEntity
8
REBAR-TOP
100
AcDbLine
10
18325
20
22975
30
0
11
18175
21
22975
31
0
0
LINE
5
476
330
10E
100
AcDbEntity
8
REBAR-TOP
100
AcDbLine
10
18475
20
22975
30
0
11
18475
21
25500
31
0
0
LINE
5
477
330
10E
100
AcDbEntity
8
REBAR-TOP
100
AcDbLine
10
18475
20
22975
30
0
11
18325
21
22975
31
0
0
LINE
5
478
330
10E
100
AcDbEntity
8
REBAR-TOP
100
AcDbLine
10
18625
20
22975
30
0
11
18625
21
25500
31
0
0
LINE
5
479
330
10E
100
AcDbEntity
8
REBAR-TOP
100
AcDbLine
10
18625
20
22975
30
0
11
18475
21
22975
31
0
0
LINE
5
47A
330
10E
100
AcDbEntity
8
REBAR-TOP
100
AcDbLine
10
18775
20
22975
30
0
11
18775
21
25500
31
0
0
LINE
5
47B
330
10E
100
AcDbEntity
8
REBAR-TOP
100
AcDbLine
10
18775
20
22975
30
0
11
18625
21
22975
31
0
0
LINE
5
47C
330
10E
100
AcDbEntity
8
REBAR-TOP
100
AcDbLine
10
18925
20
22975
30
0
11
18925
21
25500
31
0
0
LINE
5
47D
330
10E
100
AcDbEntity
8
REBAR-TOP
100
AcDbLine
10
18925
20
22975
30
0
11
18775
21
22975
31
0
0
LINE
5
47E
330
10E
100
AcDbEntity
8
REBAR-TOP
100
AcDbLine
10
19075
20
22975
30
0
11
19075
21
25500
31
0
0
LINE
5
47F
330
10E
100
AcDbEntity
8
REBAR-TOP
100
AcDbLine
10
19075
20
22975
30
0
11
18925
21
22975
31
0
0
LINE
5
480
330
10E
100
AcDbEntity
8
REBAR-TOP
100
AcDbLine
10
19225
20
22975
30
0
11
19225
21
25500
31
0
0
LINE
5
481
330
10E
100
AcDbEntity
8
REBAR-TOP
100
AcDbLine
10
19295
20
22975
30
0
11
19155
21
22975
31
0
0
LINE
5
482
330
10E
100
AcDbEntity
8
REBAR-TOP
100
AcDbLine
10
19295
20
25500
30
0
11
19155
21
25500
31
0
0
LINE
5
483
330
10E
100
AcDbEntity
8
REBAR-TOP
100
AcDbLine
10
19225
20
22975
30
0
11
19075
21
22975
31
0
0
CIRCLE
5
484
330
10E
100
AcDbEntity
8
CALLOUT
100
AcDbCircle
10
20010
20
25450
30
0
40
360
0
TEXT
5
485
330
10E
100
AcDbEntity
8
CALLOUT
100
AcDbText
10
20010
20
25450
30
0
40
190
1
TC1
7
STANDARD
72
1
11
20010
21
25450
31
0
100
AcDbText
73
2
0
LINE
5
486
330
10E
100
AcDbEntity
8
CALLOUT
100
AcDbLine
10
19755.441559
20
25195.441559
30
0
11
19310
21
24750
31
0
0
LINE
5
487
330
10E
100
AcDbEntity
8
REBAR-TOP
100
AcDbLine
10
24600
20
23275
30
0
11
27500
21
23275
31
0
0
LINE
5
488
330
10E
100
AcDbEntity
8
REBAR-TOP
100
AcDbLine
10
24600
20
23205
30
0
11
24600
21
23345
31
0
0
LINE
5
489
330
10E
100
AcDbEntity
8
REBAR-TOP
100
AcDbLine
10
27500
20
23205
30
0
11
27500
21
23345
31
0
0
LINE
5
48A
330
10E
100
AcDbEntity
8
REBAR-TOP
100
AcDbLine
10
24600
20
23425
30
0
11
27500
21
23425
31
0
0
LINE
5
48B
330
10E
100
AcDbEntity
8
REBAR-TOP
100
AcDbLine
10
24600
20
23575
30
0
11
27500
21
23575
31
0
0
LINE
5
48C
330
10E
100
AcDbEntity
8
REBAR-TOP
100
AcDbLine
10
24600
20
23725
30
0
11
27500
21
23725
31
0
0
LINE
5
48D
330
10E
100
AcDbEntity
8
REBAR-TOP
100
AcDbLine
10
24600
20
23875
30
0
11
27500
21
23875
31
0
0
LINE
5
48E
330
10E
100
AcDbEntity
8
REBAR-TOP
100
AcDbLine
10
24600
20
24025
30
0
11
27500
21
24025
31
0
0
LINE
5
48F
330
10E
100
AcDbEntity
8
REBAR-TOP
100
AcDbLine
10
24600
20
24175
30
0
11
27500
21
24175
31
0
0
LINE
5
490
330
10E
100
AcDbEntity
8
REBAR-TOP
100
AcDbLine
10
24600
20
24325
30
0
11
27500
21
24325
31
0
0
LINE
5
491
330
10E
100
AcDbEntity
8
REBAR-TOP
100
AcDbLine
10
24600
20
24475
30
0
11
27500
21
24475
31
0
0
LINE
5
492
330
10E
100
AcDbEntity
8
REBAR-TOP
100
AcDbLine
10
24600
20
24625
30
0
11
27500
21
24625
31
0
0
LINE
5
493
330
10E
100
AcDbEntity
8
REBAR-TOP
100
AcDbLine
10
24600
20
24555
30
0
11
24600
21
24695
31
0
0
LINE
5
494
330
10E
100
AcDbEntity
8
REBAR-TOP
100
AcDbLine
10
27500
20
24555
30
0
11
27500
21
24695
31
0
0
LINE
5
495
330
10E
100
AcDbEntity
8
REBAR-TOP
100
AcDbLine
10
25375
20
22975
30
0
11
25375
21
25500
31
0
0
LINE
5
496
330
10E
100
AcDbEntity
8
REBAR-TOP
100
AcDbLine
10
25445
20
22975
30
0
11
25305
21
22975
31
0
0
LINE
5
497
330
10E
100
AcDbEntity
8
REBAR-TOP
100
AcDbLine
10
25445
20
25500
30
0
11
25305
21
25500
31
0
0
LINE
5
498
330
10E
100
AcDbEntity
8
REBAR-TOP
100
AcDbLine
10
25375
20
22975
30
0
11
25225
21
22975
31
0
0
LINE
5
499
330
10E
100
AcDbEntity
8
REBAR-TOP
100
AcDbLine
10
25525
20
22975
30
0
11
25525
21
25500
31
0
0
LINE
5
49A
330
10E
100
AcDbEntity
8
REBAR-TOP
100
AcDbLine
10
25525
20
22975
30
0
11
25375
21
22975
31
0
0
LINE
5
49B
330
10E
100
AcDbEntity
8
REBAR-TOP
100
AcDbLine
10
25675
20
22975
30
0
11
25675
21
25500
31
0
0
LINE
5
49C
330
10E
100
AcDbEntity
8
REBAR-TOP
100
AcDbLine
10
25675
20
22975
30
0
11
25525
21
22975
31
0
0
LINE
5
49D
330
10E
100
AcDbEntity
8
REBAR-TOP
100
AcDbLine
10
25825
20
22975
30
0
11
25825
21
25500
31
0
0
LINE
5
49E
330
10E
100
AcDbEntity
8
REBAR-TOP
100
AcDbLine
10
25825
20
22975
30
0
11
25675
21
22975
31
0
0
LINE
5
49F
330
10E
100
AcDbEntity
8
REBAR-TOP
100
AcDbLine
10
25975
20
22975
30
0
11
25975
21
25500
31
0
0
LINE
5
4A0
330
10E
100
AcDbEntity
8
REBAR-TOP
100
AcDbLine
10
25975
20
22975
30
0
11
25825
21
22975
31
0
0
LINE
5
4A1
330
10E
100
AcDbEntity
8
REBAR-TOP
100
AcDbLine
10
26125
20
22975
30
0
11
26125
21
25500
31
0
0
LINE
5
4A2
330
10E
100
AcDbEntity
8
REBAR-TOP
100
AcDbLine
10
26125
20
22975
30
0
11
25975
21
22975
31
0
0
LINE
5
4A3
330
10E
100
AcDbEntity
8
REBAR-TOP
100
AcDbLine
10
26275
20
22975
30
0
11
26275
21
25500
31
0
0
LINE
5
4A4
330
10E
100
AcDbEntity
8
REBAR-TOP
100
AcDbLine
10
26275
20
22975
30
0
11
26125
21
22975
31
0
0
LINE
5
4A5
330
10E
100
AcDbEntity
8
REBAR-TOP
100
AcDbLine
10
26425
20
22975
30
0
11
26425
21
25500
31
0
0
LINE
5
4A6
330
10E
100
AcDbEntity
8
REBAR-TOP
100
AcDbLine
10
26425
20
22975
30
0
11
26275
21
22975
31
0
0
LINE
5
4A7
330
10E
100
AcDbEntity
8
REBAR-TOP
100
AcDbLine
10
26575
20
22975
30
0
11
26575
21
25500
31
0
0
LINE
5
4A8
330
10E
100
AcDbEntity
8
REBAR-TOP
100
AcDbLine
10
26575
20
22975
30
0
11
26425
21
22975
31
0
0
LINE
5
4A9
330
10E
100
AcDbEntity
8
REBAR-TOP
100
AcDbLine
10
26725
20
22975
30
0
11
26725
21
25500
31
0
0
LINE
5
4AA
330
10E
100
AcDbEntity
8
REBAR-TOP
100
AcDbLine
10
26795
20
22975
30
0
11
26655
21
22975
31
0
0
LINE
5
4AB
330
10E
100
AcDbEntity
8
REBAR-TOP
100
AcDbLine
10
26795
20
25500
30
0
11
26655
21
25500
31
0
0
LINE
5
4AC
330
10E
100
AcDbEntity
8
REBAR-TOP
100
AcDbLine
10
26725
20
22975
30
0
11
26575
21
22975
31
0
0
CIRCLE
5
4AD
330
10E
100
AcDbEntity
8
CALLOUT
100
AcDbCircle
10
27510
20
25450
30
0
40
360
0
TEXT
5
4AE
330
10E
100
AcDbEntity
8
CALLOUT
100
AcDbText
10
27510
20
25450
30
0
40
190
1
TC2
7
STANDARD
72
1
11
27510
21
25450
31
0
100
AcDbText
73
2
0
LINE
5
4AF
330
10E
100
AcDbEntity
8
CALLOUT
100
AcDbLine
10
27255.441559
20
25195.441559
30
0
11
26810
21
24750
31
0
0
LINE
5
4B0
330
10E
100
AcDbEntity
8
REBAR-TOP
100
AcDbLine
10
32100
20
23275
30
0
11
35000
21
23275
31
0
0
LINE
5
4B1
330
10E
100
AcDbEntity
8
REBAR-TOP
100
AcDbLine
10
32100
20
23205
30
0
11
32100
21
23345
31
0
0
LINE
5
4B2
330
10E
100
AcDbEntity
8
REBAR-TOP
100
AcDbLine
10
35000
20
23205
30
0
11
35000
21
23345
31
0
0
LINE
5
4B3
330
10E
100
AcDbEntity
8
REBAR-TOP
100
AcDbLine
10
32100
20
23425
30
0
11
35000
21
23425
31
0
0
LINE
5
4B4
330
10E
100
AcDbEntity
8
REBAR-TOP
100
AcDbLine
10
32100
20
23575
30
0
11
35000
21
23575
31
0
0
LINE
5
4B5
330
10E
100
AcDbEntity
8
REBAR-TOP
100
AcDbLine
10
32100
20
23725
30
0
11
35000
21
23725
31
0
0
LINE
5
4B6
330
10E
100
AcDbEntity
8
REBAR-TOP
100
AcDbLine
10
32100
20
23875
30
0
11
35000
21
23875
31
0
0
LINE
5
4B7
330
10E
100
AcDbEntity
8
REBAR-TOP
100
AcDbLine
10
32100
20
24025
30
0
11
35000
21
24025
31
0
0
LINE
5
4B8
330
10E
100
AcDbEntity
8
REBAR-TOP
100
AcDbLine
10
32100
20
24175
30
0
11
35000
21
24175
31
0
0
LINE
5
4B9
330
10E
100
AcDbEntity
8
REBAR-TOP
100
AcDbLine
10
32100
20
24325
30
0
11
35000
21
24325
31
0
0
LINE
5
4BA
330
10E
100
AcDbEntity
8
REBAR-TOP
100
AcDbLine
10
32100
20
24475
30
0
11
35000
21
24475
31
0
0
LINE
5
4BB
330
10E
100
AcDbEntity
8
REBAR-TOP
100
AcDbLine
10
32100
20
24625
30
0
11
35000
21
24625
31
0
0
LINE
5
4BC
330
10E
100
AcDbEntity
8
REBAR-TOP
100
AcDbLine
10
32100
20
24555
30
0
11
32100
21
24695
31
0
0
LINE
5
4BD
330
10E
100
AcDbEntity
8
REBAR-TOP
100
AcDbLine
10
35000
20
24555
30
0
11
35000
21
24695
31
0
0
LINE
5
4BE
330
10E
100
AcDbEntity
8
REBAR-TOP
100
AcDbLine
10
32875
20
22975
30
0
11
32875
21
25500
31
0
0
LINE
5
4BF
330
10E
100
AcDbEntity
8
REBAR-TOP
100
AcDbLine
10
32945
20
22975
30
0
11
32805
21
22975
31
0
0
LINE
5
4C0
330
10E
100
AcDbEntity
8
REBAR-TOP
100
AcDbLine
10
32945
20
25500
30
0
11
32805
21
25500
31
0
0
LINE
5
4C1
330
10E
100
AcDbEntity
8
REBAR-TOP
100
AcDbLine
10
32875
20
22975
30
0
11
32725
21
22975
31
0
0
LINE
5
4C2
330
10E
100
AcDbEntity
8
REBAR-TOP
100
AcDbLine
10
33025
20
22975
30
0
11
33025
21
25500
31
0
0
LINE
5
4C3
330
10E
100
AcDbEntity
8
REBAR-TOP
100
AcDbLine
10
33025
20
22975
30
0
11
32875
21
22975
31
0
0
LINE
5
4C4
330
10E
100
AcDbEntity
8
REBAR-TOP
100
AcDbLine
10
33175
20
22975
30
0
11
33175
21
25500
31
0
0
LINE
5
4C5
330
10E
100
AcDbEntity
8
REBAR-TOP
100
AcDbLine
10
33175
20
22975
30
0
11
33025
21
22975
31
0
0
LINE
5
4C6
330
10E
100
AcDbEntity
8
REBAR-TOP
100
AcDbLine
10
33325
20
22975
30
0
11
33325
21
25500
31
0
0
LINE
5
4C7
330
10E
100
AcDbEntity
8
REBAR-TOP
100
AcDbLine
10
33325
20
22975
30
0
11
33175
21
22975
31
0
0
LINE
5
4C8
330
10E
100
AcDbEntity
8
REBAR-TOP
100
AcDbLine
10
33475
20
22975
30
0
11
33475
21
25500
31
0
0
LINE
5
4C9
330
10E
100
AcDbEntity
8
REBAR-TOP
100
AcDbLine
10
33475
20
22975
30
0
11
33325
21
22975
31
0
0
LINE
5
4CA
330
10E
100
AcDbEntity
8
REBAR-TOP
100
AcDbLine
10
33625
20
22975
30
0
11
33625
21
25500
31
0
0
LINE
5
4CB
330
10E
100
AcDbEntity
8
REBAR-TOP
100
AcDbLine
10
33625
20
22975
30
0
11
33475
21
22975
31
0
0
LINE
5
4CC
330
10E
100
AcDbEntity
8
REBAR-TOP
100
AcDbLine
10
33775
20
22975
30
0
11
33775
21
25500
31
0
0
LINE
5
4CD
330
10E
100
AcDbEntity
8
REBAR-TOP
100
AcDbLine
10
33775
20
22975
30
0
11
33625
21
22975
31
0
0
LINE
5
4CE
330
10E
100
AcDbEntity
8
REBAR-TOP
100
AcDbLine
10
33925
20
22975
30
0
11
33925
21
25500
31
0
0
LINE
5
4CF
330
10E
100
AcDbEntity
8
REBAR-TOP
100
AcDbLine
10
33925
20
22975
30
0
11
33775
21
22975
31
0
0
LINE
5
4D0
330
10E
100
AcDbEntity
8
REBAR-TOP
100
AcDbLine
10
34075
20
22975
30
0
11
34075
21
25500
31
0
0
LINE
5
4D1
330
10E
100
AcDbEntity
8
REBAR-TOP
100
AcDbLine
10
34075
20
22975
30
0
11
33925
21
22975
31
0
0
LINE
5
4D2
330
10E
100
AcDbEntity
8
REBAR-TOP
100
AcDbLine
10
34225
20
22975
30
0
11
34225
21
25500
31
0
0
LINE
5
4D3
330
10E
100
AcDbEntity
8
REBAR-TOP
100
AcDbLine
10
34295
20
22975
30
0
11
34155
21
22975
31
0
0
LINE
5
4D4
330
10E
100
AcDbEntity
8
REBAR-TOP
100
AcDbLine
10
34295
20
25500
30
0
11
34155
21
25500
31
0
0
LINE
5
4D5
330
10E
100
AcDbEntity
8
REBAR-TOP
100
AcDbLine
10
34225
20
22975
30
0
11
34075
21
22975
31
0
0
CIRCLE
5
4D6
330
10E
100
AcDbEntity
8
CALLOUT
100
AcDbCircle
10
35010
20
25450
30
0
40
360
0
TEXT
5
4D7
330
10E
100
AcDbEntity
8
CALLOUT
100
AcDbText
10
35010
20
25450
30
0
40
190
1
TC2
7
STANDARD
72
1
11
35010
21
25450
31
0
100
AcDbText
73
2
0
LINE
5
4D8
330
10E
100
AcDbEntity
8
CALLOUT
100
AcDbLine
10
34755.441559
20
25195.441559
30
0
11
34310
21
24750
31
0
0
LINE
5
4D9
330
10E
100
AcDbEntity
8
REBAR-TOP
100
AcDbLine
10
39600
20
23275
30
0
11
42500
21
23275
31
0
0
LINE
5
4DA
330
10E
100
AcDbEntity
8
REBAR-TOP
100
AcDbLine
10
39600
20
23205
30
0
11
39600
21
23345
31
0
0
LINE
5
4DB
330
10E
100
AcDbEntity
8
REBAR-TOP
100
AcDbLine
10
42500
20
23205
30
0
11
42500
21
23345
31
0
0
LINE
5
4DC
330
10E
100
AcDbEntity
8
REBAR-TOP
100
AcDbLine
10
39600
20
23425
30
0
11
42500
21
23425
31
0
0
LINE
5
4DD
330
10E
100
AcDbEntity
8
REBAR-TOP
100
AcDbLine
10
39600
20
23575
30
0
11
42500
21
23575
31
0
0
LINE
5
4DE
330
10E
100
AcDbEntity
8
REBAR-TOP
100
AcDbLine
10
39600
20
23725
30
0
11
42500
21
23725
31
0
0
LINE
5
4DF
330
10E
100
AcDbEntity
8
REBAR-TOP
100
AcDbLine
10
39600
20
23875
30
0
11
42500
21
23875
31
0
0
LINE
5
4E0
330
10E
100
AcDbEntity
8
REBAR-TOP
100
AcDbLine
10
39600
20
24025
30
0
11
42500
21
24025
31
0
0
LINE
5
4E1
330
10E
100
AcDbEntity
8
REBAR-TOP
100
AcDbLine
10
39600
20
24175
30
0
11
42500
21
24175
31
0
0
LINE
5
4E2
330
10E
100
AcDbEntity
8
REBAR-TOP
100
AcDbLine
10
39600
20
24325
30
0
11
42500
21
24325
31
0
0
LINE
5
4E3
330
10E
100
AcDbEntity
8
REBAR-TOP
100
AcDbLine
10
39600
20
24475
30
0
11
42500
21
24475
31
0
0
LINE
5
4E4
330
10E
100
AcDbEntity
8
REBAR-TOP
100
AcDbLine
10
39600
20
24625
30
0
11
42500
21
24625
31
0
0
LINE
5
4E5
330
10E
100
AcDbEntity
8
REBAR-TOP
100
AcDbLine
10
39600
20
24555
30
0
11
39600
21
24695
31
0
0
LINE
5
4E6
330
10E
100
AcDbEntity
8
REBAR-TOP
100
AcDbLine
10
42500
20
24555
30
0
11
42500
21
24695
31
0
0
LINE
5
4E7
330
10E
100
AcDbEntity
8
REBAR-TOP
100
AcDbLine
10
40375
20
22975
30
0
11
40375
21
25500
31
0
0
LINE
5
4E8
330
10E
100
AcDbEntity
8
REBAR-TOP
100
AcDbLine
10
40445
20
22975
30
0
11
40305
21
22975
31
0
0
LINE
5
4E9
330
10E
100
AcDbEntity
8
REBAR-TOP
100
AcDbLine
10
40445
20
25500
30
0
11
40305
21
25500
31
0
0
LINE
5
4EA
330
10E
100
AcDbEntity
8
REBAR-TOP
100
AcDbLine
10
40375
20
22975
30
0
11
40225
21
22975
31
0
0
LINE
5
4EB
330
10E
100
AcDbEntity
8
REBAR-TOP
100
AcDbLine
10
40525
20
22975
30
0
11
40525
21
25500
31
0
0
LINE
5
4EC
330
10E
100
AcDbEntity
8
REBAR-TOP
100
AcDbLine
10
40525
20
22975
30
0
11
40375
21
22975
31
0
0
LINE
5
4ED
330
10E
100
AcDbEntity
8
REBAR-TOP
100
AcDbLine
10
40675
20
22975
30
0
11
40675
21
25500
31
0
0
LINE
5
4EE
330
10E
100
AcDbEntity
8
REBAR-TOP
100
AcDbLine
10
40675
20
22975
30
0
11
40525
21
22975
31
0
0
LINE
5
4EF
330
10E
100
AcDbEntity
8
REBAR-TOP
100
AcDbLine
10
40825
20
22975
30
0
11
40825
21
25500
31
0
0
LINE
5
4F0
330
10E
100
AcDbEntity
8
REBAR-TOP
100
AcDbLine
10
40825
20
22975
30
0
11
40675
21
22975
31
0
0
LINE
5
4F1
330
10E
100
AcDbEntity
8
REBAR-TOP
100
AcDbLine
10
40975
20
22975
30
0
11
40975
21
25500
31
0
0
LINE
5
4F2
330
10E
100
AcDbEntity
8
REBAR-TOP
100
AcDbLine
10
40975
20
22975
30
0
11
40825
21
22975
31
0
0
LINE
5
4F3
330
10E
100
AcDbEntity
8
REBAR-TOP
100
AcDbLine
10
41125
20
22975
30
0
11
41125
21
25500
31
0
0
LINE
5
4F4
330
10E
100
AcDbEntity
8
REBAR-TOP
100
AcDbLine
10
41125
20
22975
30
0
11
40975
21
22975
31
0
0
LINE
5
4F5
330
10E
100
AcDbEntity
8
REBAR-TOP
100
AcDbLine
10
41275
20
22975
30
0
11
41275
21
25500
31
0
0
LINE
5
4F6
330
10E
100
AcDbEntity
8
REBAR-TOP
100
AcDbLine
10
41275
20
22975
30
0
11
41125
21
22975
31
0
0
LINE
5
4F7
330
10E
100
AcDbEntity
8
REBAR-TOP
100
AcDbLine
10
41425
20
22975
30
0
11
41425
21
25500
31
0
0
LINE
5
4F8
330
10E
100
AcDbEntity
8
REBAR-TOP
100
AcDbLine
10
41425
20
22975
30
0
11
41275
21
22975
31
0
0
LINE
5
4F9
330
10E
100
AcDbEntity
8
REBAR-TOP
100
AcDbLine
10
41575
20
22975
30
0
11
41575
21
25500
31
0
0
LINE
5
4FA
330
10E
100
AcDbEntity
8
REBAR-TOP
100
AcDbLine
10
41575
20
22975
30
0
11
41425
21
22975
31
0
0
LINE
5
4FB
330
10E
100
AcDbEntity
8
REBAR-TOP
100
AcDbLine
10
41725
20
22975
30
0
11
41725
21
25500
31
0
0
LINE
5
4FC
330
10E
100
AcDbEntity
8
REBAR-TOP
100
AcDbLine
10
41795
20
22975
30
0
11
41655
21
22975
31
0
0
LINE
5
4FD
330
10E
100
AcDbEntity
8
REBAR-TOP
100
AcDbLine
10
41795
20
25500
30
0
11
41655
21
25500
31
0
0
LINE
5
4FE
330
10E
100
AcDbEntity
8
REBAR-TOP
100
AcDbLine
10
41725
20
22975
30
0
11
41575
21
22975
31
0
0
CIRCLE
5
4FF
330
10E
100
AcDbEntity
8
CALLOUT
100
AcDbCircle
10
42510
20
25450
30
0
40
360
0
TEXT
5
500
330
10E
100
AcDbEntity
8
CALLOUT
100
AcDbText
10
42510
20
25450
30
0
40
190
1
TC2
7
STANDARD
72
1
11
42510
21
25450
31
0
100
AcDbText
73
2
0
LINE
5
501
330
10E
100
AcDbEntity
8
CALLOUT
100
AcDbLine
10
42255.441559
20
25195.441559
30
0
11
41810
21
24750
31
0
0
LINE
5
502
330
10E
100
AcDbEntity
8
REBAR-TOP
100
AcDbLine
10
47100
20
23275
30
0
11
49525
21
23275
31
0
0
LINE
5
503
330
10E
100
AcDbEntity
8
REBAR-TOP
100
AcDbLine
10
47100
20
23205
30
0
11
47100
21
23345
31
0
0
LINE
5
504
330
10E
100
AcDbEntity
8
REBAR-TOP
100
AcDbLine
10
49525
20
23205
30
0
11
49525
21
23345
31
0
0
LINE
5
505
330
10E
100
AcDbEntity
8
REBAR-TOP
100
AcDbLine
10
49525
20
23275
30
0
11
49525
21
23125
31
0
0
LINE
5
506
330
10E
100
AcDbEntity
8
REBAR-TOP
100
AcDbLine
10
47100
20
23425
30
0
11
49525
21
23425
31
0
0
LINE
5
507
330
10E
100
AcDbEntity
8
REBAR-TOP
100
AcDbLine
10
49525
20
23425
30
0
11
49525
21
23275
31
0
0
LINE
5
508
330
10E
100
AcDbEntity
8
REBAR-TOP
100
AcDbLine
10
47100
20
23575
30
0
11
49525
21
23575
31
0
0
LINE
5
509
330
10E
100
AcDbEntity
8
REBAR-TOP
100
AcDbLine
10
49525
20
23575
30
0
11
49525
21
23425
31
0
0
LINE
5
50A
330
10E
100
AcDbEntity
8
REBAR-TOP
100
AcDbLine
10
47100
20
23725
30
0
11
49525
21
23725
31
0
0
LINE
5
50B
330
10E
100
AcDbEntity
8
REBAR-TOP
100
AcDbLine
10
49525
20
23725
30
0
11
49525
21
23575
31
0
0
LINE
5
50C
330
10E
100
AcDbEntity
8
REBAR-TOP
100
AcDbLine
10
47100
20
23875
30
0
11
49525
21
23875
31
0
0
LINE
5
50D
330
10E
100
AcDbEntity
8
REBAR-TOP
100
AcDbLine
10
49525
20
23875
30
0
11
49525
21
23725
31
0
0
LINE
5
50E
330
10E
100
AcDbEntity
8
REBAR-TOP
100
AcDbLine
10
47100
20
24025
30
0
11
49525
21
24025
31
0
0
LINE
5
50F
330
10E
100
AcDbEntity
8
REBAR-TOP
100
AcDbLine
10
49525
20
24025
30
0
11
49525
21
23875
31
0
0
LINE
5
510
330
10E
100
AcDbEntity
8
REBAR-TOP
100
AcDbLine
10
47100
20
24175
30
0
11
49525
21
24175
31
0
0
LINE
5
511
330
10E
100
AcDbEntity
8
REBAR-TOP
100
AcDbLine
10
49525
20
24175
30
0
11
49525
21
24025
31
0
0
LINE
5
512
330
10E
100
AcDbEntity
8
REBAR-TOP
100
AcDbLine
10
47100
20
24325
30
0
11
49525
21
24325
31
0
0
LINE
5
513
330
10E
100
AcDbEntity
8
REBAR-TOP
100
AcDbLine
10
49525
20
24325
30
0
11
49525
21
24175
31
0
0
LINE
5
514
330
10E
100
AcDbEntity
8
REBAR-TOP
100
AcDbLine
10
47100
20
24475
30
0
11
49525
21
24475
31
0
0
LINE
5
515
330
10E
100
AcDbEntity
8
REBAR-TOP
100
AcDbLine
10
49525
20
24475
30
0
11
49525
21
24325
31
0
0
LINE
5
516
330
10E
100
AcDbEntity
8
REBAR-TOP
100
AcDbLine
10
47100
20
24625
30
0
11
49525
21
24625
31
0
0
LINE
5
517
330
10E
100
AcDbEntity
8
REBAR-TOP
100
AcDbLine
10
47100
20
24555
30
0
11
47100
21
24695
31
0
0
LINE
5
518
330
10E
100
AcDbEntity
8
REBAR-TOP
100
AcDbLine
10
49525
20
24555
30
0
11
49525
21
24695
31
0
0
LINE
5
519
330
10E
100
AcDbEntity
8
REBAR-TOP
100
AcDbLine
10
49525
20
24625
30
0
11
49525
21
24475
31
0
0
LINE
5
51A
330
10E
100
AcDbEntity
8
REBAR-TOP
100
AcDbLine
10
47875
20
22975
30
0
11
47875
21
25500
31
0
0
LINE
5
51B
330
10E
100
AcDbEntity
8
REBAR-TOP
100
AcDbLine
10
47945
20
22975
30
0
11
47805
21
22975
31
0
0
LINE
5
51C
330
10E
100
AcDbEntity
8
REBAR-TOP
100
AcDbLine
10
47945
20
25500
30
0
11
47805
21
25500
31
0
0
LINE
5
51D
330
10E
100
AcDbEntity
8
REBAR-TOP
100
AcDbLine
10
47875
20
22975
30
0
11
47725
21
22975
31
0
0
LINE
5
51E
330
10E
100
AcDbEntity
8
REBAR-TOP
100
AcDbLine
10
48025
20
22975
30
0
11
48025
21
25500
31
0
0
LINE
5
51F
330
10E
100
AcDbEntity
8
REBAR-TOP
100
AcDbLine
10
48025
20
22975
30
0
11
47875
21
22975
31
0
0
LINE
5
520
330
10E
100
AcDbEntity
8
REBAR-TOP
100
AcDbLine
10
48175
20
22975
30
0
11
48175
21
25500
31
0
0
LINE
5
521
330
10E
100
AcDbEntity
8
REBAR-TOP
100
AcDbLine
10
48175
20
22975
30
0
11
48025
21
22975
31
0
0
LINE
5
522
330
10E
100
AcDbEntity
8
REBAR-TOP
100
AcDbLine
10
48325
20
22975
30
0
11
48325
21
25500
31
0
0
LINE
5
523
330
10E
100
AcDbEntity
8
REBAR-TOP
100
AcDbLine
10
48325
20
22975
30
0
11
48175
21
22975
31
0
0
LINE
5
524
330
10E
100
AcDbEntity
8
REBAR-TOP
100
AcDbLine
10
48475
20
22975
30
0
11
48475
21
25500
31
0
0
LINE
5
525
330
10E
100
AcDbEntity
8
REBAR-TOP
100
AcDbLine
10
48475
20
22975
30
0
11
48325
21
22975
31
0
0
LINE
5
526
330
10E
100
AcDbEntity
8
REBAR-TOP
100
AcDbLine
10
48625
20
22975
30
0
11
48625
21
25500
31
0
0
LINE
5
527
330
10E
100
AcDbEntity
8
REBAR-TOP
100
AcDbLine
10
48625
20
22975
30
0
11
48475
21
22975
31
0
0
LINE
5
528
330
10E
100
AcDbEntity
8
REBAR-TOP
100
AcDbLine
10
48775
20
22975
30
0
11
48775
21
25500
31
0
0
LINE
5
529
330
10E
100
AcDbEntity
8
REBAR-TOP
100
AcDbLine
10
48775
20
22975
30
0
11
48625
21
22975
31
0
0
LINE
5
52A
330
10E
100
AcDbEntity
8
REBAR-TOP
100
AcDbLine
10
48925
20
22975
30
0
11
48925
21
25500
31
0
0
LINE
5
52B
330
10E
100
AcDbEntity
8
REBAR-TOP
100
AcDbLine
10
48925
20
22975
30
0
11
48775
21
22975
31
0
0
LINE
5
52C
330
10E
100
AcDbEntity
8
REBAR-TOP
100
AcDbLine
10
49075
20
22975
30
0
11
49075
21
25500
31
0
0
LINE
5
52D
330
10E
100
AcDbEntity
8
REBAR-TOP
100
AcDbLine
10
49075
20
22975
30
0
11
48925
21
22975
31
0
0
LINE
5
52E
330
10E
100
AcDbEntity
8
REBAR-TOP
100
AcDbLine
10
49225
20
22975
30
0
11
49225
21
25500
31
0
0
LINE
5
52F
330
10E
100
AcDbEntity
8
REBAR-TOP
100
AcDbLine
10
49295
20
22975
30
0
11
49155
21
22975
31
0
0
LINE
5
530
330
10E
100
AcDbEntity
8
REBAR-TOP
100
AcDbLine
10
49295
20
25500
30
0
11
49155
21
25500
31
0
0
LINE
5
531
330
10E
100
AcDbEntity
8
REBAR-TOP
100
AcDbLine
10
49225
20
22975
30
0
11
49075
21
22975
31
0
0
CIRCLE
5
532
330
10E
100
AcDbEntity
8
CALLOUT
100
AcDbCircle
10
49820
20
25450
30
0
40
360
0
TEXT
5
533
330
10E
100
AcDbEntity
8
CALLOUT
100
AcDbText
10
49820
20
25450
30
0
40
190
1
TC8
7
STANDARD
72
1
11
49820
21
25450
31
0
100
AcDbText
73
2
0
LINE
5
534
330
10E
100
AcDbEntity
8
CALLOUT
100
AcDbLine
10
49565.441559
20
25195.441559
30
0
11
49120
21
24750
31
0
0
TEXT
5
535
330
10E
100
AcDbEntity
8
REBAR-TEXT
100
AcDbText
10
50025
20
22675
30
0
40
170
1
TC8: 10T16 X-DIR L=2630 (L)
7
STANDARD
72
0
100
AcDbText
73
0
0
TEXT
5
536
330
10E
100
AcDbEntity
8
REBAR-TEXT
100
AcDbText
10
50025
20
22435
30
0
40
170
1
      10T16 Y-DIR L=2730 (L)  @150 TOP
7
STANDARD
72
0
100
AcDbText
73
0
0
LWPOLYLINE
5
537
330
10E
100
AcDbEntity
8
FRAME
100
AcDbPolyline
90
4
70
1
43
0
10
2000
20
1000
10
22866.666667
20
1000
10
22866.666667
20
13500
10
2000
20
13500
0
LINE
5
538
330
10E
100
AcDbEntity
8
FRAME
100
AcDbLine
10
2000
20
12700
30
0
11
22866.666667
21
12700
31
0
0
CIRCLE
5
539
330
10E
100
AcDbEntity
8
CALLOUT
100
AcDbCircle
10
2700
20
13100
30
0
40
300
0
TEXT
5
53A
330
10E
100
AcDbEntity
8
CALLOUT
100
AcDbText
10
2700
20
13100
30
0
40
220
1
1
7
STANDARD
72
1
11
2700
21
13100
31
0
100
AcDbText
73
2
0
TEXT
5
53B
330
10E
100
AcDbEntity
8
TEXT-TITLE
100
AcDbText
10
3200
20
13100
30
0
40
240
1
SECTION AT COLUMN - TOP BARS
7
STANDARD
72
0
11
3200
21
13100
31
0
100
AcDbText
73
2
0
TEXT
5
53C
330
10E
100
AcDbEntity
8
TITLE
100
AcDbText
10
22666.666667
20
13100
30
0
40
180
1
1:25
7
STANDARD
72
2
11
22666.666667
21
13100
31
0
100
AcDbText
73
2
0
LWPOLYLINE
5
53D
330
10E
100
AcDbEntity
8
DETAIL
370
35
100
AcDbPolyline
90
4
70
1
43
0
10
5133.333333
20
7300
10
19733.333333
20
7300
10
19733.333333
20
8300
10
5133.333333
20
8300
0
HATCH
5
53E
330
10E
100
AcDbEntity
8
DETAIL-HATCH
100
AcDbHatch
10
0
20
0
30
0
210
0
220
0
230
1
2
ANSI31
70
0
71
0
91
1
92
3
72
0
73
1
93
4
10
5133.333333
20
7300
10
19733.333333
20
7300
10
19733.333333
20
8300
10
5133.333333
20
8300
97
0
75
1
76
1
52
0
41
50.393701
77
0
78
1
53
45
43
0
44
0
45
-113.137085
46
113.137085
79
0
47
1
98
0
0
LWPOLYLINE
5
53F
330
10E
100
AcDbEntity
8
COLUMN
370
35
100
AcDbPolyline
90
4
70
1
43
0
10
11233.333333
20
3700
10
13633.333333
20
3700
10
13633.333333
20
7300
10
11233.333333
20
7300
0
HATCH
5
540
330
10E
100
AcDbEntity
8
DETAIL-HATCH
100
AcDbHatch
10
0
20
0
30
0
210
0
220
0
230
1
2
ANSI31
70
0
71
0
91
1
92
3
72
0
73
1
93
4
10
11233.333333
20
3700
10
13633.333333
20
3700
10
13633.333333
20
7300
10
11233.333333
20
7300
97
0
75
1
76
1
52
0
41
69.291339
77
0
78
1
53
45
43
0
44
0
45
-155.563492
46
155.563492
79
0
47
1
98
0
0
LWPOLYLINE
5
541
330
10E
100
AcDbEntity
8
REBAR-TOP
370
70
100
AcDbPolyline
90
3
70
0
43
0
10
6533.333333
20
7368
10
6533.333333
20
8168
10
18333.333333
20
8168
0
LINE
5
542
330
10E
100
AcDbEntity
8
REBAR-TOP
100
AcDbLine
10
6533.333333
20
8068
30
0
11
6533.333333
21
8268
31
0
0
LINE
5
543
330
10E
100
AcDbEntity
8
REBAR-TOP
100
AcDbLine
10
18333.333333
20
8068
30
0
11
18333.333333
21
8268
31
0
0
LINE
5
544
330
10E
100
AcDbEntity
8
REBAR-BOT
370
35
100
AcDbLine
10
5373.333333
20
7424
30
0
11
19493.333333
21
7424
31
0
0
LWPOLYLINE
5
545
330
10E
100
AcDbEntity
8
PT-TENDON
6
DASHED
100
AcDbPolyline
90
4
70
0
43
0
10
5133.333333
20
7640
10
11233.333333
20
8020
10
13633.333333
20
8020
10
19733.333333
20
7640
0
LINE
5
546
330
10E
100
AcDbEntity
8
DIM
100
AcDbLine
10
6533.333333
20
8300
30
0
11
6533.333333
21
9150
31
0
0
LINE
5
547
330
10E
100
AcDbEntity
8
DIM
100
AcDbLine
10
11233.333333
20
8300
30
0
11
11233.333333
21
9150
31
0
0
LINE
5
548
330
10E
100
AcDbEntity
8
DIM
100
AcDbLine
10
6533.333333
20
9000
30
0
11
11233.333333
21
9000
31
0
0
LINE
5
549
330
10E
100
AcDbEntity
8
DIM
100
AcDbLine
10
6463.333333
20
8930
30
0
11
6603.333333
21
9070
31
0
0
LINE
5
54A
330
10E
100
AcDbEntity
8
DIM
100
AcDbLine
10
11163.333333
20
8930
30
0
11
11303.333333
21
9070
31
0
0
TEXT
5
54B
330
10E
100
AcDbEntity
8
DIM
100
AcDbText
10
8883.333333
20
9072
30
0
40
180
1
1175 (\U+2265 ln/6)
7
STANDARD
72
1
11
8883.333333
21
9072
31
0
100
AcDbText
73
0
0
LINE
5
54C
330
10E
100
AcDbEntity
8
DIM
100
AcDbLine
10
13633.333333
20
8300
30
0
11
13633.333333
21
9150
31
0
0
LINE
5
54D
330
10E
100
AcDbEntity
8
DIM
100
AcDbLine
10
18333.333333
20
8300
30
0
11
18333.333333
21
9150
31
0
0
LINE
5
54E
330
10E
100
AcDbEntity
8
DIM
100
AcDbLine
10
13633.333333
20
9000
30
0
11
18333.333333
21
9000
31
0
0
LINE
5
54F
330
10E
100
AcDbEntity
8
DIM
100
AcDbLine
10
13563.333333
20
8930
30
0
11
13703.333333
21
9070
31
0
0
LINE
5
550
330
10E
100
AcDbEntity
8
DIM
100
AcDbLine
10
18263.333333
20
8930
30
0
11
18403.333333
21
9070
31
0
0
TEXT
5
551
330
10E
100
AcDbEntity
8
DIM
100
AcDbText
10
15983.333333
20
9072
30
0
40
180
1
1175 (\U+2265 ln/6)
7
STANDARD
72
1
11
15983.333333
21
9072
31
0
100
AcDbText
73
0
0
LINE
5
552
330
10E
100
AcDbEntity
8
DIM
100
AcDbLine
10
11233.333333
20
8300
30
0
11
11233.333333
21
9150
31
0
0
LINE
5
553
330
10E
100
AcDbEntity
8
DIM
100
AcDbLine
10
13633.333333
20
8300
30
0
11
13633.333333
21
9150
31
0
0
LINE
5
554
330
10E
100
AcDbEntity
8
DIM
100
AcDbLine
10
11233.333333
20
9000
30
0
11
13633.333333
21
9000
31
0
0
LINE
5
555
330
10E
100
AcDbEntity
8
DIM
100
AcDbLine
10
11163.333333
20
8930
30
0
11
11303.333333
21
9070
31
0
0
LINE
5
556
330
10E
100
AcDbEntity
8
DIM
100
AcDbLine
10
13563.333333
20
8930
30
0
11
13703.333333
21
9070
31
0
0
TEXT
5
557
330
10E
100
AcDbEntity
8
DIM
100
AcDbText
10
12433.333333
20
9072
30
0
40
180
1
600
7
STANDARD
72
1
11
12433.333333
21
9072
31
0
100
AcDbText
73
0
0
LINE
5
558
330
10E
100
AcDbEntity
8
DIM
100
AcDbLine
10
19733.333333
20
7300
30
0
11
20183.333333
21
7300
31
0
0
LINE
5
559
330
10E
100
AcDbEntity
8
DIM
100
AcDbLine
10
19733.333333
20
8300
30
0
11
20183.333333
21
8300
31
0
0
LINE
5
55A
330
10E
100
AcDbEntity
8
DIM
100
AcDbLine
10
20333.333333
20
7300
30
0
11
20333.333333
21
8300
31
0
0
LINE
5
55B
330
10E
100
AcDbEntity
8
DIM
100
AcDbLine
10
20403.333333
20
7230
30
0
11
20263.333333
21
7370
31
0
0
LINE
5
55C
330
10E
100
AcDbEntity
8
DIM
100
AcDbLine
10
20403.333333
20
8230
30
0
11
20263.333333
21
8370
31
0
0
TEXT
5
55D
330
10E
100
AcDbEntity
8
DIM
100
AcDbText
10
20261.333333
20
7800
30
0
40
180
1
250
50
90
7
STANDARD
72
1
11
20261.333333
21
7800
31
0
100
AcDbText
73
0
0
TEXT
5
55E
330
10E
100
AcDbEntity
8
REBAR-TEXT
100
AcDbText
10
12433.333333
20
9580
30
0
40
190
1
T16@150 TOP E.W. WITHIN c + 3h - EXTEND \U+2265 ln/6 FROM FACE OF SUPPORT
7
STANDARD
72
1
11
12433.333333
21
9580
31
0
100
AcDbText
73
0
0
TEXT
5
55F
330
10E
100
AcDbEntity
8
NOTES
100
AcDbText
10
12433.333333
20
3380
30
0
40
160
1
COLUMN  \U+00B7  90\U+00B0 HOOK 200 (12\U+00D8) WHERE BAR ENDS AT SLAB EDGE
7
STANDARD
72
1
11
12433.333333
21
3380
31
0
100
AcDbText
73
0
0
LWPOLYLINE
5
560
330
10E
100
AcDbEntity
8
FRAME
100
AcDbPolyline
90
4
70
1
43
0
10
22866.666667
20
1000
10
43733.333333
20
1000
10
43733.333333
20
13500
10
22866.666667
20
13500
0
LINE
5
561
330
10E
100
AcDbEntity
8
FRAME
100
AcDbLine
10
22866.666667
20
12700
30
0
11
43733.333333
21
12700
31
0
0
CIRCLE
5
562
330
10E
100
AcDbEntity
8
CALLOUT
100
AcDbCircle
10
23566.666667
20
13100
30
0
40
300
0
TEXT
5
563
330
10E
100
AcDbEntity
8
CALLOUT
100
AcDbText
10
23566.666667
20
13100
30
0
40
220
1
2
7
STANDARD
72
1
11
23566.666667
21
13100
31
0
100
AcDbText
73
2
0
TEXT
5
564
330
10E
100
AcDbEntity
8
TEXT-TITLE
100
AcDbText
10
24066.666667
20
13100
30
0
40
240
1
TOP BAR TYPES OVER COLUMNS
7
STANDARD
72
0
11
24066.666667
21
13100
31
0
100
AcDbText
73
2
0
TEXT
5
565
330
10E
100
AcDbEntity
8
TITLE
100
AcDbText
10
43533.333333
20
13100
30
0
40
180
1

7
STANDARD
72
2
11
43533.333333
21
13100
31
0
100
AcDbText
73
2
0
LWPOLYLINE
5
566
330
10E
100
AcDbEntity
8
SCHEDULE
100
AcDbPolyline
90
4
70
1
43
0
10
23166.666667
20
12000
10
43433.333333
20
12000
10
43433.333333
20
12500
10
23166.666667
20
12500
0
TEXT
5
567
330
10E
100
AcDbEntity
8
SCHEDULE-TEXT
100
AcDbText
10
23866.666667
20
12250
30
0
40
150
1
TYPE
7
STANDARD
72
1
11
23866.666667
21
12250
31
0
100
AcDbText
73
2
0
TEXT
5
568
330
10E
100
AcDbEntity
8
SCHEDULE-TEXT
100
AcDbText
10
26866.666667
20
12250
30
0
40
150
1
X-DIR BARS
7
STANDARD
72
1
11
26866.666667
21
12250
31
0
100
AcDbText
73
2
0
TEXT
5
569
330
10E
100
AcDbEntity
8
SCHEDULE-TEXT
100
AcDbText
10
31466.666667
20
12250
30
0
40
150
1
Y-DIR BARS
7
STANDARD
72
1
11
31466.666667
21
12250
31
0
100
AcDbText
73
2
0
TEXT
5
56A
330
10E
100
AcDbEntity
8
SCHEDULE-TEXT
100
AcDbText
10
35466.666667
20
12250
30
0
40
150
1
As req/prov (mm\U+00B2)
7
STANDARD
72
1
11
35466.666667
21
12250
31
0
100
AcDbText
73
2
0
TEXT
5
56B
330
10E
100
AcDbEntity
8
SCHEDULE-TEXT
100
AcDbText
10
40300
20
12250
30
0
40
150
1
COLUMNS
7
STANDARD
72
1
11
40300
21
12250
31
0
100
AcDbText
73
2
0
TEXT
5
56C
330
10E
100
AcDbEntity
8
SCHEDULE-TEXT
100
AcDbText
10
23866.666667
20
11800
30
0
40
160
1
TC1
7
STANDARD
72
1
11
23866.666667
21
11800
31
0
100
AcDbText
73
2
0
TEXT
5
56D
330
10E
100
AcDbEntity
8
SCHEDULE-TEXT
100
AcDbText
10
24666.666667
20
11800
30
0
40
160
1
10T16 L=3130 L
7
STANDARD
72
0
11
24666.666667
21
11800
31
0
100
AcDbText
73
2
0
TEXT
5
56E
330
10E
100
AcDbEntity
8
SCHEDULE-TEXT
100
AcDbText
10
29266.666667
20
11800
30
0
40
160
1
10T16 L=2730 L
7
STANDARD
72
0
11
29266.666667
21
11800
31
0
100
AcDbText
73
2
0
TEXT
5
56F
330
10E
100
AcDbEntity
8
SCHEDULE-TEXT
100
AcDbText
10
35466.666667
20
11800
30
0
40
160
1
1500 / 2011
7
STANDARD
72
1
11
35466.666667
21
11800
31
0
100
AcDbText
73
2
0
TEXT
5
570
330
10E
100
AcDbEntity
8
SCHEDULE-TEXT
100
AcDbText
10
37266.666667
20
11800
30
0
40
160
1
A/4, A/1
7
STANDARD
72
0
11
37266.666667
21
11800
31
0
100
AcDbText
73
2
0
LINE
5
571
330
10E
100
AcDbEntity
8
SCHEDULE
370
5
100
AcDbLine
10
23166.666667
20
11600
30
0
11
43433.333333
21
11600
31
0
0
TEXT
5
572
330
10E
100
AcDbEntity
8
SCHEDULE-TEXT
100
AcDbText
10
23866.666667
20
11400
30
0
40
160
1
TC2
7
STANDARD
72
1
11
23866.666667
21
11400
31
0
100
AcDbText
73
2
0
TEXT
5
573
330
10E
100
AcDbEntity
8
SCHEDULE-TEXT
100
AcDbText
10
24666.666667
20
11400
30
0
40
160
1
10T16 L=2900 STR
7
STANDARD
72
0
11
24666.666667
21
11400
31
0
100
AcDbText
73
2
0
TEXT
5
574
330
10E
100
AcDbEntity
8
SCHEDULE-TEXT
100
AcDbText
10
29266.666667
20
11400
30
0
40
160
1
10T16 L=2730 L
7
STANDARD
72
0
11
29266.666667
21
11400
31
0
100
AcDbText
73
2
0
TEXT
5
575
330
10E
100
AcDbEntity
8
SCHEDULE-TEXT
100
AcDbText
10
35466.666667
20
11400
30
0
40
160
1
1500 / 2011
7
STANDARD
72
1
11
35466.666667
21
11400
31
0
100
AcDbText
73
2
0
TEXT
5
576
330
10E
100
AcDbEntity
8
SCHEDULE-TEXT
100
AcDbText
10
37266.666667
20
11400
30
0
40
160
1
B/4, C/4, B/1, C/1, D/1
7
STANDARD
72
0
11
37266.666667
21
11400
31
0
100
AcDbText
73
2
0
LINE
5
577
330
10E
100
AcDbEntity
8
SCHEDULE
370
5
100
AcDbLine
10
23166.666667
20
11200
30
0
11
43433.333333
21
11200
31
0
0
TEXT
5
578
330
10E
100
AcDbEntity
8
SCHEDULE-TEXT
100
AcDbText
10
23866.666667
20
11000
30
0
40
160
1
TC3
7
STANDARD
72
1
11
23866.666667
21
11000
31
0
100
AcDbText
73
2
0
TEXT
5
579
330
10E
100
AcDbEntity
8
SCHEDULE-TEXT
100
AcDbText
10
24666.666667
20
11000
30
0
40
160
1
10T16 L=5130 L
7
STANDARD
72
0
11
24666.666667
21
11000
31
0
100
AcDbText
73
2
0
TEXT
5
57A
330
10E
100
AcDbEntity
8
SCHEDULE-TEXT
100
AcDbText
10
29266.666667
20
11000
30
0
40
160
1
10T16 L=2730 L
7
STANDARD
72
0
11
29266.666667
21
11000
31
0
100
AcDbText
73
2
0
TEXT
5
57B
330
10E
100
AcDbEntity
8
SCHEDULE-TEXT
100
AcDbText
10
35466.666667
20
11000
30
0
40
160
1
1500 / 2011
7
STANDARD
72
1
11
35466.666667
21
11000
31
0
100
AcDbText
73
2
0
TEXT
5
57C
330
10E
100
AcDbEntity
8
SCHEDULE-TEXT
100
AcDbText
10
37266.666667
20
11000
30
0
40
160
1
D/4
7
STANDARD
72
0
11
37266.666667
21
11000
31
0
100
AcDbText
73
2
0
LINE
5
57D
330
10E
100
AcDbEntity
8
SCHEDULE
370
5
100
AcDbLine
10
23166.666667
20
10800
30
0
11
43433.333333
21
10800
31
0
0
TEXT
5
57E
330
10E
100
AcDbEntity
8
SCHEDULE-TEXT
100
AcDbText
10
23866.666667
20
10600
30
0
40
160
1
TC4
7
STANDARD
72
1
11
23866.666667
21
10600
31
0
100
AcDbText
73
2
0
TEXT
5
57F
330
10E
100
AcDbEntity
8
SCHEDULE-TEXT
100
AcDbText
10
24666.666667
20
10600
30
0
40
160
1
10T16 L=3130 L
7
STANDARD
72
0
11
24666.666667
21
10600
31
0
100
AcDbText
73
2
0
TEXT
5
580
330
10E
100
AcDbEntity
8
SCHEDULE-TEXT
100
AcDbText
10
29266.666667
20
10600
30
0
40
160
1
10T16 L=3100 STR
7
STANDARD
72
0
11
29266.666667
21
10600
31
0
100
AcDbText
73
2
0
TEXT
5
581
330
10E
100
AcDbEntity
8
SCHEDULE-TEXT
100
AcDbText
10
35466.666667
20
10600
30
0
40
160
1
1500 / 2011
7
STANDARD
72
1
11
35466.666667
21
10600
31
0
100
AcDbText
73
2
0
TEXT
5
582
330
10E
100
AcDbEntity
8
SCHEDULE-TEXT
100
AcDbText
10
37266.666667
20
10600
30
0
40
160
1
A/3, A/2
7
STANDARD
72
0
11
37266.666667
21
10600
31
0
100
AcDbText
73
2
0
LINE
5
583
330
10E
100
AcDbEntity
8
SCHEDULE
370
5
100
AcDbLine
10
23166.666667
20
10400
30
0
11
43433.333333
21
10400
31
0
0
TEXT
5
584
330
10E
100
AcDbEntity
8
SCHEDULE-TEXT
100
AcDbText
10
23866.666667
20
10200
30
0
40
160
1
TC5
7
STANDARD
72
1
11
23866.666667
21
10200
31
0
100
AcDbText
73
2
0
TEXT
5
585
330
10E
100
AcDbEntity
8
SCHEDULE-TEXT
100
AcDbText
10
24666.666667
20
10200
30
0
40
160
1
10T16 L=2900 STR
7
STANDARD
72
0
11
24666.666667
21
10200
31
0
100
AcDbText
73
2
0
TEXT
5
586
330
10E
100
AcDbEntity
8
SCHEDULE-TEXT
100
AcDbText
10
29266.666667
20
10200
30
0
40
160
1
10T16 L=3100 STR
7
STANDARD
72
0
11
29266.666667
21
10200
31
0
100
AcDbText
73
2
0
TEXT
5
587
330
10E
100
AcDbEntity
8
SCHEDULE-TEXT
100
AcDbText
10
35466.666667
20
10200
30
0
40
160
1
1500 / 2011
7
STANDARD
72
1
11
35466.666667
21
10200
31
0
100
AcDbText
73
2
0
TEXT
5
588
330
10E
100
AcDbEntity
8
SCHEDULE-TEXT
100
AcDbText
10
37266.666667
20
10200
30
0
40
160
1
B/3, C/3, D/3, B/2, C/2, D/2
7
STANDARD
72
0
11
37266.666667
21
10200
31
0
100
AcDbText
73
2
0
LINE
5
589
330
10E
100
AcDbEntity
8
SCHEDULE
370
5
100
AcDbLine
10
23166.666667
20
10000
30
0
11
43433.333333
21
10000
31
0
0
TEXT
5
58A
330
10E
100
AcDbEntity
8
SCHEDULE-TEXT
100
AcDbText
10
23866.666667
20
9800
30
0
40
160
1
TC6
7
STANDARD
72
1
11
23866.666667
21
9800
31
0
100
AcDbText
73
2
0
TEXT
5
58B
330
10E
100
AcDbEntity
8
SCHEDULE-TEXT
100
AcDbText
10
24666.666667
20
9800
30
0
40
160
1
10T16 L=2630 L
7
STANDARD
72
0
11
24666.666667
21
9800
31
0
100
AcDbText
73
2
0
TEXT
5
58C
330
10E
100
AcDbEntity
8
SCHEDULE-TEXT
100
AcDbText
10
29266.666667
20
9800
30
0
40
160
1
10T16 L=5730 L
7
STANDARD
72
0
11
29266.666667
21
9800
31
0
100
AcDbText
73
2
0
TEXT
5
58D
330
10E
100
AcDbEntity
8
SCHEDULE-TEXT
100
AcDbText
10
35466.666667
20
9800
30
0
40
160
1
1500 / 2011
7
STANDARD
72
1
11
35466.666667
21
9800
31
0
100
AcDbText
73
2
0
TEXT
5
58E
330
10E
100
AcDbEntity
8
SCHEDULE-TEXT
100
AcDbText
10
37266.666667
20
9800
30
0
40
160
1
E/3
7
STANDARD
72
0
11
37266.666667
21
9800
31
0
100
AcDbText
73
2
0
LINE
5
58F
330
10E
100
AcDbEntity
8
SCHEDULE
370
5
100
AcDbLine
10
23166.666667
20
9600
30
0
11
43433.333333
21
9600
31
0
0
TEXT
5
590
330
10E
100
AcDbEntity
8
SCHEDULE-TEXT
100
AcDbText
10
23866.666667
20
9400
30
0
40
160
1
TC7
7
STANDARD
72
1
11
23866.666667
21
9400
31
0
100
AcDbText
73
2
0
TEXT
5
591
330
10E
100
AcDbEntity
8
SCHEDULE-TEXT
100
AcDbText
10
24666.666667
20
9400
30
0
40
160
1
10T16 L=2630 L
7
STANDARD
72
0
11
24666.666667
21
9400
31
0
100
AcDbText
73
2
0
TEXT
5
592
330
10E
100
AcDbEntity
8
SCHEDULE-TEXT
100
AcDbText
10
29266.666667
20
9400
30
0
40
160
1
10T16 L=3100 STR
7
STANDARD
72
0
11
29266.666667
21
9400
31
0
100
AcDbText
73
2
0
TEXT
5
593
330
10E
100
AcDbEntity
8
SCHEDULE-TEXT
100
AcDbText
10
35466.666667
20
9400
30
0
40
160
1
1500 / 2011
7
STANDARD
72
1
11
35466.666667
21
9400
31
0
100
AcDbText
73
2
0
TEXT
5
594
330
10E
100
AcDbEntity
8
SCHEDULE-TEXT
100
AcDbText
10
37266.666667
20
9400
30
0
40
160
1
E/2
7
STANDARD
72
0
11
37266.666667
21
9400
31
0
100
AcDbText
73
2
0
LINE
5
595
330
10E
100
AcDbEntity
8
SCHEDULE
370
5
100
AcDbLine
10
23166.666667
20
9200
30
0
11
43433.333333
21
9200
31
0
0
TEXT
5
596
330
10E
100
AcDbEntity
8
SCHEDULE-TEXT
100
AcDbText
10
23866.666667
20
9000
30
0
40
160
1
TC8
7
STANDARD
72
1
11
23866.666667
21
9000
31
0
100
AcDbText
73
2
0
TEXT
5
597
330
10E
100
AcDbEntity
8
SCHEDULE-TEXT
100
AcDbText
10
24666.666667
20
9000
30
0
40
160
1
10T16 L=2630 L
7
STANDARD
72
0
11
24666.666667
21
9000
31
0
100
AcDbText
73
2
0
TEXT
5
598
330
10E
100
AcDbEntity
8
SCHEDULE-TEXT
100
AcDbText
10
29266.666667
20
9000
30
0
40
160
1
10T16 L=2730 L
7
STANDARD
72
0
11
29266.666667
21
9000
31
0
100
AcDbText
73
2
0
TEXT
5
599
330
10E
100
AcDbEntity
8
SCHEDULE-TEXT
100
AcDbText
10
35466.666667
20
9000
30
0
40
160
1
1500 / 2011
7
STANDARD
72
1
11
35466.666667
21
9000
31
0
100
AcDbText
73
2
0
TEXT
5
59A
330
10E
100
AcDbEntity
8
SCHEDULE-TEXT
100
AcDbText
10
37266.666667
20
9000
30
0
40
160
1
E/1
7
STANDARD
72
0
11
37266.666667
21
9000
31
0
100
AcDbText
73
2
0
LINE
5
59B
330
10E
100
AcDbEntity
8
SCHEDULE
370
5
100
AcDbLine
10
23166.666667
20
8800
30
0
11
43433.333333
21
8800
31
0
0
LINE
5
59C
330
10E
100
AcDbEntity
8
SCHEDULE
100
AcDbLine
10
23166.666667
20
12500
30
0
11
23166.666667
21
8800
31
0
0
LINE
5
59D
330
10E
100
AcDbEntity
8
SCHEDULE
100
AcDbLine
10
24566.666667
20
12500
30
0
11
24566.666667
21
8800
31
0
0
LINE
5
59E
330
10E
100
AcDbEntity
8
SCHEDULE
100
AcDbLine
10
29166.666667
20
12500
30
0
11
29166.666667
21
8800
31
0
0
LINE
5
59F
330
10E
100
AcDbEntity
8
SCHEDULE
100
AcDbLine
10
33766.666667
20
12500
30
0
11
33766.666667
21
8800
31
0
0
LINE
5
5A0
330
10E
100
AcDbEntity
8
SCHEDULE
100
AcDbLine
10
37166.666667
20
12500
30
0
11
37166.666667
21
8800
31
0
0
LINE
5
5A1
330
10E
100
AcDbEntity
8
SCHEDULE
100
AcDbLine
10
43433.333333
20
12500
30
0
11
43433.333333
21
8800
31
0
0
LINE
5
5A2
330
10E
100
AcDbEntity
8
SCHEDULE
100
AcDbLine
10
23166.666667
20
8800
30
0
11
43433.333333
21
8800
31
0
0
LWPOLYLINE
5
5A3
330
10E
100
AcDbEntity
8
SCHEDULE
100
AcDbPolyline
90
4
70
1
43
0
10
64600
20
57500
10
83100
20
57500
10
83100
20
58100
10
64600
20
58100
0
TEXT
5
5A4
330
10E
100
AcDbEntity
8
TEXT-TITLE
100
AcDbText
10
73850
20
57800
30
0
40
260
1
BAR BENDING SCHEDULE
7
STANDARD
72
1
11
73850
21
57800
31
0
100
AcDbText
73
2
0
LWPOLYLINE
5
5A5
330
10E
100
AcDbEntity
8
SCHEDULE
100
AcDbPolyline
90
4
70
1
43
0
10
64600
20
57000
10
83100
20
57000
10
83100
20
57500
10
64600
20
57500
0
TEXT
5
5A6
330
10E
100
AcDbEntity
8
SCHEDULE-TEXT
100
AcDbText
10
65300
20
57250
30
0
40
160
1
MARK
7
STANDARD
72
1
11
65300
21
57250
31
0
100
AcDbText
73
2
0
TEXT
5
5A7
330
10E
100
AcDbEntity
8
SCHEDULE-TEXT
100
AcDbText
10
66450
20
57250
30
0
40
160
1
\U+00D8
7
STANDARD
72
1
11
66450
21
57250
31
0
100
AcDbText
73
2
0
TEXT
5
5A8
330
10E
100
AcDbEntity
8
SCHEDULE-TEXT
100
AcDbText
10
67550
20
57250
30
0
40
160
1
SHAPE
7
STANDARD
72
1
11
67550
21
57250
31
0
100
AcDbText
73
2
0
TEXT
5
5A9
330
10E
100
AcDbEntity
8
SCHEDULE-TEXT
100
AcDbText
10
68850
20
57250
30
0
40
160
1
SPAC.
7
STANDARD
72
1
11
68850
21
57250
31
0
100
AcDbText
73
2
0
TEXT
5
5AA
330
10E
100
AcDbEntity
8
SCHEDULE-TEXT
100
AcDbText
10
70350
20
57355
30
0
40
160
1
LENGTH
7
STANDARD
72
1
11
70350
21
57355
31
0
100
AcDbText
73
2
0
TEXT
5
5AB
330
10E
100
AcDbEntity
8
SCHEDULE-TEXT
100
AcDbText
10
70350
20
57145
30
0
40
160
1
(mm)
7
STANDARD
72
1
11
70350
21
57145
31
0
100
AcDbText
73
2
0
TEXT
5
5AC
330
10E
100
AcDbEntity
8
SCHEDULE-TEXT
100
AcDbText
10
71850
20
57250
30
0
40
160
1
QTY
7
STANDARD
72
1
11
71850
21
57250
31
0
100
AcDbText
73
2
0
TEXT
5
5AD
330
10E
100
AcDbEntity
8
SCHEDULE-TEXT
100
AcDbText
10
73350
20
57355
30
0
40
160
1
TOTAL
7
STANDARD
72
1
11
73350
21
57355
31
0
100
AcDbText
73
2
0
TEXT
5
5AE
330
10E
100
AcDbEntity
8
SCHEDULE-TEXT
100
AcDbText
10
73350
20
57145
30
0
40
160
1
(m)
7
STANDARD
72
1
11
73350
21
57145
31
0
100
AcDbText
73
2
0
TEXT
5
5AF
330
10E
100
AcDbEntity
8
SCHEDULE-TEXT
100
AcDbText
10
75050
20
57355
30
0
40
160
1
WT.
7
STANDARD
72
1
11
75050
21
57355
31
0
100
AcDbText
73
2
0
TEXT
5
5B0
330
10E
100
AcDbEntity
8
SCHEDULE-TEXT
100
AcDbText
10
75050
20
57145
30
0
40
160
1
(kg)
7
STANDARD
72
1
11
75050
21
57145
31
0
100
AcDbText
73
2
0
TEXT
5
5B1
330
10E
100
AcDbEntity
8
SCHEDULE-TEXT
100
AcDbText
10
79500
20
57250
30
0
40
160
1
ZONES / REMARKS
7
STANDARD
72
1
11
79500
21
57250
31
0
100
AcDbText
73
2
0
TEXT
5
5B2
330
10E
100
AcDbEntity
8
SCHEDULE-TEXT
100
AcDbText
10
65300
20
56800
30
0
40
170
1
C01
7
STANDARD
72
1
11
65300
21
56800
31
0
100
AcDbText
73
2
0
TEXT
5
5B3
330
10E
100
AcDbEntity
8
SCHEDULE-TEXT
100
AcDbText
10
66450
20
56800
30
0
40
170
1
16
7
STANDARD
72
1
11
66450
21
56800
31
0
100
AcDbText
73
2
0
TEXT
5
5B4
330
10E
100
AcDbEntity
8
SCHEDULE-TEXT
100
AcDbText
10
67550
20
56800
30
0
40
170
1
L
7
STANDARD
72
1
11
67550
21
56800
31
0
100
AcDbText
73
2
0
TEXT
5
5B5
330
10E
100
AcDbEntity
8
SCHEDULE-TEXT
100
AcDbText
10
68850
20
56800
30
0
40
170
1
150
7
STANDARD
72
1
11
68850
21
56800
31
0
100
AcDbText
73
2
0
TEXT
5
5B6
330
10E
100
AcDbEntity
8
SCHEDULE-TEXT
100
AcDbText
10
70350
20
56800
30
0
40
170
1
5730
7
STANDARD
72
1
11
70350
21
56800
31
0
100
AcDbText
73
2
0
TEXT
5
5B7
330
10E
100
AcDbEntity
8
SCHEDULE-TEXT
100
AcDbText
10
71850
20
56800
30
0
40
170
1
10
7
STANDARD
72
1
11
71850
21
56800
31
0
100
AcDbText
73
2
0
TEXT
5
5B8
330
10E
100
AcDbEntity
8
SCHEDULE-TEXT
100
AcDbText
10
73350
20
56800
30
0
40
170
1
57.3
7
STANDARD
72
1
11
73350
21
56800
31
0
100
AcDbText
73
2
0
TEXT
5
5B9
330
10E
100
AcDbEntity
8
SCHEDULE-TEXT
100
AcDbText
10
75050
20
56800
30
0
40
170
1
90.4
7
STANDARD
72
1
11
75050
21
56800
31
0
100
AcDbText
73
2
0
TEXT
5
5BA
330
10E
100
AcDbEntity
8
SCHEDULE-TEXT
100
AcDbText
10
76000
20
56800
30
0
40
170
1
TC6
7
STANDARD
72
0
11
76000
21
56800
31
0
100
AcDbText
73
2
0
LINE
5
5BB
330
10E
100
AcDbEntity
8
SCHEDULE
370
5
100
AcDbLine
10
64600
20
56600
30
0
11
83100
21
56600
31
0
0
TEXT
5
5BC
330
10E
100
AcDbEntity
8
SCHEDULE-TEXT
100
AcDbText
10
65300
20
56400
30
0
40
170
1
C02
7
STANDARD
72
1
11
65300
21
56400
31
0
100
AcDbText
73
2
0
TEXT
5
5BD
330
10E
100
AcDbEntity
8
SCHEDULE-TEXT
100
AcDbText
10
66450
20
56400
30
0
40
170
1
16
7
STANDARD
72
1
11
66450
21
56400
31
0
100
AcDbText
73
2
0
TEXT
5
5BE
330
10E
100
AcDbEntity
8
SCHEDULE-TEXT
100
AcDbText
10
67550
20
56400
30
0
40
170
1
L
7
STANDARD
72
1
11
67550
21
56400
31
0
100
AcDbText
73
2
0
TEXT
5
5BF
330
10E
100
AcDbEntity
8
SCHEDULE-TEXT
100
AcDbText
10
68850
20
56400
30
0
40
170
1
150
7
STANDARD
72
1
11
68850
21
56400
31
0
100
AcDbText
73
2
0
TEXT
5
5C0
330
10E
100
AcDbEntity
8
SCHEDULE-TEXT
100
AcDbText
10
70350
20
56400
30
0
40
170
1
5130
7
STANDARD
72
1
11
70350
21
56400
31
0
100
AcDbText
73
2
0
TEXT
5
5C1
330
10E
100
AcDbEntity
8
SCHEDULE-TEXT
100
AcDbText
10
71850
20
56400
30
0
40
170
1
10
7
STANDARD
72
1
11
71850
21
56400
31
0
100
AcDbText
73
2
0
TEXT
5
5C2
330
10E
100
AcDbEntity
8
SCHEDULE-TEXT
100
AcDbText
10
73350
20
56400
30
0
40
170
1
51.3
7
STANDARD
72
1
11
73350
21
56400
31
0
100
AcDbText
73
2
0
TEXT
5
5C3
330
10E
100
AcDbEntity
8
SCHEDULE-TEXT
100
AcDbText
10
75050
20
56400
30
0
40
170
1
81
7
STANDARD
72
1
11
75050
21
56400
31
0
100
AcDbText
73
2
0
TEXT
5
5C4
330
10E
100
AcDbEntity
8
SCHEDULE-TEXT
100
AcDbText
10
76000
20
56400
30
0
40
170
1
TC3
7
STANDARD
72
0
11
76000
21
56400
31
0
100
AcDbText
73
2
0
LINE
5
5C5
330
10E
100
AcDbEntity
8
SCHEDULE
370
5
100
AcDbLine
10
64600
20
56200
30
0
11
83100
21
56200
31
0
0
TEXT
5
5C6
330
10E
100
AcDbEntity
8
SCHEDULE-TEXT
100
AcDbText
10
65300
20
56000
30
0
40
170
1
C03
7
STANDARD
72
1
11
65300
21
56000
31
0
100
AcDbText
73
2
0
TEXT
5
5C7
330
10E
100
AcDbEntity
8
SCHEDULE-TEXT
100
AcDbText
10
66450
20
56000
30
0
40
170
1
16
7
STANDARD
72
1
11
66450
21
56000
31
0
100
AcDbText
73
2
0
TEXT
5
5C8
330
10E
100
AcDbEntity
8
SCHEDULE-TEXT
100
AcDbText
10
67550
20
56000
30
0
40
170
1
L
7
STANDARD
72
1
11
67550
21
56000
31
0
100
AcDbText
73
2
0
TEXT
5
5C9
330
10E
100
AcDbEntity
8
SCHEDULE-TEXT
100
AcDbText
10
68850
20
56000
30
0
40
170
1
150
7
STANDARD
72
1
11
68850
21
56000
31
0
100
AcDbText
73
2
0
TEXT
5
5CA
330
10E
100
AcDbEntity
8
SCHEDULE-TEXT
100
AcDbText
10
70350
20
56000
30
0
40
170
1
3130
7
STANDARD
72
1
11
70350
21
56000
31
0
100
AcDbText
73
2
0
TEXT
5
5CB
330
10E
100
AcDbEntity
8
SCHEDULE-TEXT
100
AcDbText
10
71850
20
56000
30
0
40
170
1
40
7
STANDARD
72
1
11
71850
21
56000
31
0
100
AcDbText
73
2
0
TEXT
5
5CC
330
10E
100
AcDbEntity
8
SCHEDULE-TEXT
100
AcDbText
10
73350
20
56000
30
0
40
170
1
125.2
7
STANDARD
72
1
11
73350
21
56000
31
0
100
AcDbText
73
2
0
TEXT
5
5CD
330
10E
100
AcDbEntity
8
SCHEDULE-TEXT
100
AcDbText
10
75050
20
56000
30
0
40
170
1
197.6
7
STANDARD
72
1
11
75050
21
56000
31
0
100
AcDbText
73
2
0
TEXT
5
5CE
330
10E
100
AcDbEntity
8
SCHEDULE-TEXT
100
AcDbText
10
76000
20
56000
30
0
40
170
1
TC1, TC4
7
STANDARD
72
0
11
76000
21
56000
31
0
100
AcDbText
73
2
0
LINE
5
5CF
330
10E
100
AcDbEntity
8
SCHEDULE
370
5
100
AcDbLine
10
64600
20
55800
30
0
11
83100
21
55800
31
0
0
TEXT
5
5D0
330
10E
100
AcDbEntity
8
SCHEDULE-TEXT
100
AcDbText
10
65300
20
55600
30
0
40
170
1
C04
7
STANDARD
72
1
11
65300
21
55600
31
0
100
AcDbText
73
2
0
TEXT
5
5D1
330
10E
100
AcDbEntity
8
SCHEDULE-TEXT
100
AcDbText
10
66450
20
55600
30
0
40
170
1
16
7
STANDARD
72
1
11
66450
21
55600
31
0
100
AcDbText
73
2
0
TEXT
5
5D2
330
10E
100
AcDbEntity
8
SCHEDULE-TEXT
100
AcDbText
10
67550
20
55600
30
0
40
170
1
L
7
STANDARD
72
1
11
67550
21
55600
31
0
100
AcDbText
73
2
0
TEXT
5
5D3
330
10E
100
AcDbEntity
8
SCHEDULE-TEXT
100
AcDbText
10
68850
20
55600
30
0
40
170
1
150
7
STANDARD
72
1
11
68850
21
55600
31
0
100
AcDbText
73
2
0
TEXT
5
5D4
330
10E
100
AcDbEntity
8
SCHEDULE-TEXT
100
AcDbText
10
70350
20
55600
30
0
40
170
1
2730
7
STANDARD
72
1
11
70350
21
55600
31
0
100
AcDbText
73
2
0
TEXT
5
5D5
330
10E
100
AcDbEntity
8
SCHEDULE-TEXT
100
AcDbText
10
71850
20
55600
30
0
40
170
1
90
7
STANDARD
72
1
11
71850
21
55600
31
0
100
AcDbText
73
2
0
TEXT
5
5D6
330
10E
100
AcDbEntity
8
SCHEDULE-TEXT
100
AcDbText
10
73350
20
55600
30
0
40
170
1
245.7
7
STANDARD
72
1
11
73350
21
55600
31
0
100
AcDbText
73
2
0
TEXT
5
5D7
330
10E
100
AcDbEntity
8
SCHEDULE-TEXT
100
AcDbText
10
75050
20
55600
30
0
40
170
1
387.8
7
STANDARD
72
1
11
75050
21
55600
31
0
100
AcDbText
73
2
0
TEXT
5
5D8
330
10E
100
AcDbEntity
8
SCHEDULE-TEXT
100
AcDbText
10
76000
20
55600
30
0
40
170
1
TC1, TC2, TC3, TC8
7
STANDARD
72
0
11
76000
21
55600
31
0
100
AcDbText
73
2
0
LINE
5
5D9
330
10E
100
AcDbEntity
8
SCHEDULE
370
5
100
AcDbLine
10
64600
20
55400
30
0
11
83100
21
55400
31
0
0
TEXT
5
5DA
330
10E
100
AcDbEntity
8
SCHEDULE-TEXT
100
AcDbText
10
65300
20
55200
30
0
40
170
1
C05
7
STANDARD
72
1
11
65300
21
55200
31
0
100
AcDbText
73
2
0
TEXT
5
5DB
330
10E
100
AcDbEntity
8
SCHEDULE-TEXT
100
AcDbText
10
66450
20
55200
30
0
40
170
1
16
7
STANDARD
72
1
11
66450
21
55200
31
0
100
AcDbText
73
2
0
TEXT
5
5DC
330
10E
100
AcDbEntity
8
SCHEDULE-TEXT
100
AcDbText
10
67550
20
55200
30
0
40
170
1
L
7
STANDARD
72
1
11
67550
21
55200
31
0
100
AcDbText
73
2
0
TEXT
5
5DD
330
10E
100
AcDbEntity
8
SCHEDULE-TEXT
100
AcDbText
10
68850
20
55200
30
0
40
170
1
150
7
STANDARD
72
1
11
68850
21
55200
31
0
100
AcDbText
73
2
0
TEXT
5
5DE
330
10E
100
AcDbEntity
8
SCHEDULE-TEXT
100
AcDbText
10
70350
20
55200
30
0
40
170
1
2630
7
STANDARD
72
1
11
70350
21
55200
31
0
100
AcDbText
73
2
0
TEXT
5
5DF
330
10E
100
AcDbEntity
8
SCHEDULE-TEXT
100
AcDbText
10
71850
20
55200
30
0
40
170
1
30
7
STANDARD
72
1
11
71850
21
55200
31
0
100
AcDbText
73
2
0
TEXT
5
5E0
330
10E
100
AcDbEntity
8
SCHEDULE-TEXT
100
AcDbText
10
73350
20
55200
30
0
40
170
1
78.9
7
STANDARD
72
1
11
73350
21
55200
31
0
100
AcDbText
73
2
0
TEXT
5
5E1
330
10E
100
AcDbEntity
8
SCHEDULE-TEXT
100
AcDbText
10
75050
20
55200
30
0
40
170
1
124.5
7
STANDARD
72
1
11
75050
21
55200
31
0
100
AcDbText
73
2
0
TEXT
5
5E2
330
10E
100
AcDbEntity
8
SCHEDULE-TEXT
100
AcDbText
10
76000
20
55200
30
0
40
170
1
TC6, TC7, TC8
7
STANDARD
72
0
11
76000
21
55200
31
0
100
AcDbText
73
2
0
LINE
5
5E3
330
10E
100
AcDbEntity
8
SCHEDULE
370
5
100
AcDbLine
10
64600
20
55000
30
0
11
83100
21
55000
31
0
0
TEXT
5
5E4
330
10E
100
AcDbEntity
8
SCHEDULE-TEXT
100
AcDbText
10
65300
20
54800
30
0
40
170
1
C06
7
STANDARD
72
1
11
65300
21
54800
31
0
100
AcDbText
73
2
0
TEXT
5
5E5
330
10E
100
AcDbEntity
8
SCHEDULE-TEXT
100
AcDbText
10
66450
20
54800
30
0
40
170
1
16
7
STANDARD
72
1
11
66450
21
54800
31
0
100
AcDbText
73
2
0
TEXT
5
5E6
330
10E
100
AcDbEntity
8
SCHEDULE-TEXT
100
AcDbText
10
67550
20
54800
30
0
40
170
1
STR
7
STANDARD
72
1
11
67550
21
54800
31
0
100
AcDbText
73
2
0
TEXT
5
5E7
330
10E
100
AcDbEntity
8
SCHEDULE-TEXT
100
AcDbText
10
68850
20
54800
30
0
40
170
1
150
7
STANDARD
72
1
11
68850
21
54800
31
0
100
AcDbText
73
2
0
TEXT
5
5E8
330
10E
100
AcDbEntity
8
SCHEDULE-TEXT
100
AcDbText
10
70350
20
54800
30
0
40
170
1
3100
7
STANDARD
72
1
11
70350
21
54800
31
0
100
AcDbText
73
2
0
TEXT
5
5E9
330
10E
100
AcDbEntity
8
SCHEDULE-TEXT
100
AcDbText
10
71850
20
54800
30
0
40
170
1
90
7
STANDARD
72
1
11
71850
21
54800
31
0
100
AcDbText
73
2
0
TEXT
5
5EA
330
10E
100
AcDbEntity
8
SCHEDULE-TEXT
100
AcDbText
10
73350
20
54800
30
0
40
170
1
279
7
STANDARD
72
1
11
73350
21
54800
31
0
100
AcDbText
73
2
0
TEXT
5
5EB
330
10E
100
AcDbEntity
8
SCHEDULE-TEXT
100
AcDbText
10
75050
20
54800
30
0
40
170
1
440.3
7
STANDARD
72
1
11
75050
21
54800
31
0
100
AcDbText
73
2
0
TEXT
5
5EC
330
10E
100
AcDbEntity
8
SCHEDULE-TEXT
100
AcDbText
10
76000
20
54800
30
0
40
170
1
TC4, TC5, TC7
7
STANDARD
72
0
11
76000
21
54800
31
0
100
AcDbText
73
2
0
LINE
5
5ED
330
10E
100
AcDbEntity
8
SCHEDULE
370
5
100
AcDbLine
10
64600
20
54600
30
0
11
83100
21
54600
31
0
0
TEXT
5
5EE
330
10E
100
AcDbEntity
8
SCHEDULE-TEXT
100
AcDbText
10
65300
20
54400
30
0
40
170
1
C07
7
STANDARD
72
1
11
65300
21
54400
31
0
100
AcDbText
73
2
0
TEXT
5
5EF
330
10E
100
AcDbEntity
8
SCHEDULE-TEXT
100
AcDbText
10
66450
20
54400
30
0
40
170
1
16
7
STANDARD
72
1
11
66450
21
54400
31
0
100
AcDbText
73
2
0
TEXT
5
5F0
330
10E
100
AcDbEntity
8
SCHEDULE-TEXT
100
AcDbText
10
67550
20
54400
30
0
40
170
1
STR
7
STANDARD
72
1
11
67550
21
54400
31
0
100
AcDbText
73
2
0
TEXT
5
5F1
330
10E
100
AcDbEntity
8
SCHEDULE-TEXT
100
AcDbText
10
68850
20
54400
30
0
40
170
1
150
7
STANDARD
72
1
11
68850
21
54400
31
0
100
AcDbText
73
2
0
TEXT
5
5F2
330
10E
100
AcDbEntity
8
SCHEDULE-TEXT
100
AcDbText
10
70350
20
54400
30
0
40
170
1
2900
7
STANDARD
72
1
11
70350
21
54400
31
0
100
AcDbText
73
2
0
TEXT
5
5F3
330
10E
100
AcDbEntity
8
SCHEDULE-TEXT
100
AcDbText
10
71850
20
54400
30
0
40
170
1
110
7
STANDARD
72
1
11
71850
21
54400
31
0
100
AcDbText
73
2
0
TEXT
5
5F4
330
10E
100
AcDbEntity
8
SCHEDULE-TEXT
100
AcDbText
10
73350
20
54400
30
0
40
170
1
319
7
STANDARD
72
1
11
73350
21
54400
31
0
100
AcDbText
73
2
0
TEXT
5
5F5
330
10E
100
AcDbEntity
8
SCHEDULE-TEXT
100
AcDbText
10
75050
20
54400
30
0
40
170
1
503.5
7
STANDARD
72
1
11
75050
21
54400
31
0
100
AcDbText
73
2
0
TEXT
5
5F6
330
10E
100
AcDbEntity
8
SCHEDULE-TEXT
100
AcDbText
10
76000
20
54400
30
0
40
170
1
TC2, TC5
7
STANDARD
72
0
11
76000
21
54400
31
0
100
AcDbText
73
2
0
LINE
5
5F7
330
10E
100
AcDbEntity
8
SCHEDULE
370
5
100
AcDbLine
10
64600
20
54200
30
0
11
83100
21
54200
31
0
0
LWPOLYLINE
5
5F8
330
10E
100
AcDbEntity
8
SCHEDULE
100
AcDbPolyline
90
4
70
1
43
0
10
64600
20
53750
10
83100
20
53750
10
83100
20
54200
10
64600
20
54200
0
TEXT
5
5F9
330
10E
100
AcDbEntity
8
SCHEDULE-TEXT
100
AcDbText
10
64800
20
53975
30
0
40
170
1
TOTAL 1,825.1 kg  \U+00B7  \U+00D816: 1156.4 m
7
STANDARD
72
0
11
64800
21
53975
31
0
100
AcDbText
73
2
0
LINE
5
5FA
330
10E
100
AcDbEntity
8
SCHEDULE
100
AcDbLine
10
64600
20
57500
30
0
11
64600
21
53750
31
0
0
LINE
5
5FB
330
10E
100
AcDbEntity
8
SCHEDULE
100
AcDbLine
10
66000
20
57500
30
0
11
66000
21
53750
31
0
0
LINE
5
5FC
330
10E
100
AcDbEntity
8
SCHEDULE
100
AcDbLine
10
66900
20
57500
30
0
11
66900
21
53750
31
0
0
LINE
5
5FD
330
10E
100
AcDbEntity
8
SCHEDULE
100
AcDbLine
10
68200
20
57500
30
0
11
68200
21
53750
31
0
0
LINE
5
5FE
330
10E
100
AcDbEntity
8
SCHEDULE
100
AcDbLine
10
69500
20
57500
30
0
11
69500
21
53750
31
0
0
LINE
5
5FF
330
10E
100
AcDbEntity
8
SCHEDULE
100
AcDbLine
10
71200
20
57500
30
0
11
71200
21
53750
31
0
0
LINE
5
600
330
10E
100
AcDbEntity
8
SCHEDULE
100
AcDbLine
10
72500
20
57500
30
0
11
72500
21
53750
31
0
0
LINE
5
601
330
10E
100
AcDbEntity
8
SCHEDULE
100
AcDbLine
10
74200
20
57500
30
0
11
74200
21
53750
31
0
0
LINE
5
602
330
10E
100
AcDbEntity
8
SCHEDULE
100
AcDbLine
10
75900
20
57500
30
0
11
75900
21
53750
31
0
0
LINE
5
603
330
10E
100
AcDbEntity
8
SCHEDULE
100
AcDbLine
10
83100
20
57500
30
0
11
83100
21
53750
31
0
0
LINE
5
604
330
10E
100
AcDbEntity
8
SCHEDULE
100
AcDbLine
10
64600
20
53750
30
0
11
83100
21
53750
31
0
0
TEXT
5
605
330
10E
100
AcDbEntity
8
TEXT-TITLE
100
AcDbText
10
64900
20
37950
30
0
40
260
1
GENERAL NOTES
7
STANDARD
72
0
100
AcDbText
73
0
0
TEXT
5
606
330
10E
100
AcDbEntity
8
TEXT-TITLE
100
AcDbText
10
82800
20
37950
30
0
40
240
1
\U+0645\U+0644\U+0627\U+062D\U+0638\U+0627\U+062A \U+0639\U+0627\U+0645\U+0629
7
STANDARD
72
2
11
82800
21
37950
31
0
100
AcDbText
73
0
0
LINE
5
607
330
10E
100
AcDbEntity
8
NOTES
100
AcDbLine
10
64900
20
37830
30
0
11
82800
21
37830
31
0
0
MTEXT
5
608
330
10E
100
AcDbEntity
8
NOTES
100
AcDbMText
10
64900
20
37680
30
0
40
190
41
17800
71
1
72
1
1
1. ALL DIMENSIONS ARE IN MILLIMETRES UNLESS NOTED OTHERWISE. DO NOT SCALE FROM THIS DRAWING.
7
STANDARD
44
1
0
MTEXT
5
609
330
10E
100
AcDbEntity
8
NOTES
100
AcDbMText
10
64900
20
37330
30
0
40
190
41
17800
71
1
72
1
1
2. CONCRETE f'c = 35 MPa (drawing). REINFORCEMENT: DEFORMED BARS fy = 420 MPa (drawing). CLEAR COVER 25 mm TOP AND BOTTOM (drawing).
7
STANDARD
44
1
0
MTEXT
5
60A
330
10E
100
AcDbEntity
8
NOTES
100
AcDbMText
10
64900
20
36685.5
30
0
40
190
41
17800
71
1
72
1
1
3. SLAB THICKNESS 250 mm. THIS SHEET IS TO BE READ WITH THE STRUCTURAL CONSULTANT'S DRAWINGS AND THE PT LAYOUT; ANY DISCREPANCY TO BE REFERRED TO THE ENGINEER BEFORE FABRICATION.
7
STANDARD
44
1
0
MTEXT
5
60B
330
10E
100
AcDbEntity
8
NOTES
100
AcDbMText
10
64900
20
36041
30
0
40
190
41
17800
71
1
72
1
1
4. BAR MARKS REFER TO THE SCHEDULE ON THIS SHEET. LENGTHS ARE CUTTING LENGTHS INCLUDING HOOKS. QUANTITIES ARE FOR THIS LEVEL ONLY.
7
STANDARD
44
1
0
MTEXT
5
60C
330
10E
100
AcDbEntity
8
NOTES
100
AcDbMText
10
64900
20
35396.5
30
0
40
190
41
17800
71
1
72
1
1
5. TENSION LAPS ARE CLASS B (1.3 ld) PER SBC 304-18 \U+00A725.5.2; NOT MORE THAN 50 % OF BARS LAPPED AT ONE SECTION, LAPS STAGGERED BY AT LEAST ONE LAP LENGTH.
7
STANDARD
44
1
0
MTEXT
5
60D
330
10E
100
AcDbEntity
8
NOTES
100
AcDbMText
10
64900
20
34752
30
0
40
190
41
17800
71
1
72
1
1
6. BARS ENDING AT A FREE EDGE TERMINATE WITH A STANDARD 90\U+00B0 HOOK (12 \U+00D8) UNLESS NOTED.
7
STANDARD
44
1
0
MTEXT
5
60E
330
10E
100
AcDbEntity
8
NOTES
100
AcDbMText
10
64900
20
34402
30
0
40
190
41
17800
71
1
72
1
1
7. ADDITIONAL TOP BARS T16@150 BOTH WAYS OVER EVERY COLUMN, PLACED WITHIN A BAND OF c2 + 1.5h EACH SIDE OF THE COLUMN (SBC 304-18 \U+00A78.7.5.5.1), EXTENDING NOT LESS THAN ln/6 BEYOND THE FACE OF SUPPORT ON EACH SIDE (\U+00A78.7.5.5.2).
7
STANDARD
44
1
0
MTEXT
5
60F
330
10E
100
AcDbEntity
8
NOTES
100
AcDbMText
10
64900
20
33757.5
30
0
40
190
41
17800
71
1
72
1
1
8. MINIMUM BONDED REINFORCEMENT OVER COLUMNS As = 0.00075\U+00B7Acf (\U+00A78.6.2.3) IS CHECKED PER COLUMN; WHERE IT GOVERNS THE BAR COUNT IS INCREASED (SEE TYPE TABLE, DETAIL 2).
7
STANDARD
44
1
0
MTEXT
5
610
330
10E
100
AcDbEntity
8
NOTES
100
AcDbMText
10
64900
20
33113
30
0
40
190
41
17800
71
1
72
1
1
9. TOP BARS SIT DIRECTLY BELOW THE TOP COVER, ABOVE THE TENDONS, SUPPORTED ON CHAIRS. BAR TYPES (TC) ARE CALLED OUT AT EACH COLUMN.
7
STANDARD
44
1
0
MTEXT
5
611
330
10E
100
AcDbEntity
8
NOTES
100
AcDbMText
10
64900
20
32468.5
30
0
40
190
41
17800
71
1
72
1
1
10. \U+00D816: ld 550 (bot) / 710 (top) \U+00B7 LAP 750 (bot) / 950 (top) \U+00B7 ldh 280
7
STANDARD
44
1
0
TEXT
5
612
330
10E
100
AcDbEntity
8
TEXT-TITLE
100
AcDbText
10
64900
20
31768.5
30
0
40
260
1
ASSUMPTIONS
7
STANDARD
72
0
100
AcDbText
73
0
0
TEXT
5
613
330
10E
100
AcDbEntity
8
TEXT-TITLE
100
AcDbText
10
82800
20
31768.5
30
0
40
240
1
\U+0627\U+0641\U+062A\U+0631\U+0627\U+0636\U+0627\U+062A
7
STANDARD
72
2
11
82800
21
31768.5
31
0
100
AcDbText
73
0
0
LINE
5
614
330
10E
100
AcDbEntity
8
NOTES
100
AcDbLine
10
64900
20
31648.5
30
0
11
82800
21
31648.5
31
0
0
MTEXT
5
615
330
10E
100
AcDbEntity
8
NOTES
100
AcDbMText
10
64900
20
31498.5
30
0
40
180
41
17800
71
1
72
1
1
A1. Bottom mesh not specified: T12@200 both ways assumed as bonded reinforcement in PT zones.
7
STANDARD
44
1
0
MTEXT
5
616
330
10E
100
AcDbEntity
8
NOTES
100
AcDbMText
10
64900
20
31158.5
30
0
40
180
41
17800
71
1
72
1
1
A2. Edge U-bars not specified: T12@200 with 1200 mm legs assumed at PT anchorage edges.
7
STANDARD
44
1
0
MTEXT
5
617
330
10E
100
AcDbEntity
8
NOTES
100
AcDbMText
10
64900
20
30818.5
30
0
40
180
41
17800
71
1
72
1
1
A3. Opening trimmers not specified: 2T16 T&B each side + 2T12 diagonals at corners assumed.
7
STANDARD
44
1
0
MTEXT
5
618
330
10E
100
AcDbEntity
8
NOTES
100
AcDbMText
10
64900
20
30478.5
30
0
40
180
41
17800
71
1
72
1
1
A4. Void trimmers not specified: 2T12 T&B each side assumed.
7
STANDARD
44
1
0
MTEXT
5
619
330
10E
100
AcDbEntity
8
NOTES
100
AcDbMText
10
64900
20
30138.5
30
0
40
180
41
17800
71
1
72
1
1
A5. Stock bar length 12 m; laps staggered so that not more than 50 % of bars lap at one section.
7
STANDARD
44
1
0
TEXT
5
61A
330
10E
100
AcDbEntity
8
TEXT-TITLE
100
AcDbText
10
64900
20
29448.5
30
0
40
260
1
CODE REFERENCE
7
STANDARD
72
0
100
AcDbText
73
0
0
TEXT
5
61B
330
10E
100
AcDbEntity
8
TEXT-TITLE
100
AcDbText
10
82800
20
29448.5
30
0
40
240
1
\U+0627\U+0644\U+0645\U+0631\U+062C\U+0639 \U+0627\U+0644\U+0643\U+0648\U+062F\U+064A
7
STANDARD
72
2
11
82800
21
29448.5
31
0
100
AcDbText
73
0
0
LINE
5
61C
330
10E
100
AcDbEntity
8
NOTES
100
AcDbLine
10
64900
20
29328.5
30
0
11
82800
21
29328.5
31
0
0
MTEXT
5
61D
330
10E
100
AcDbEntity
8
NOTES
100
AcDbMText
10
64900
20
29178.5
30
0
40
190
41
17800
71
1
72
1
1
SBC 304-18 AS STATED ON THE STRUCTURAL DRAWINGS. DEVELOPMENT, ANCHORAGE AND LAP LENGTHS PER SBC 304-18 CHAPTER 25 (ACI 318-14 BASIS).
7
STANDARD
44
1
0
TEXT
5
61E
330
10E
100
AcDbEntity
8
TEXT-TITLE
100
AcDbText
10
64900
20
28184
30
0
40
260
1
LEGEND
7
STANDARD
72
0
100
AcDbText
73
0
0
TEXT
5
61F
330
10E
100
AcDbEntity
8
TEXT-TITLE
100
AcDbText
10
82800
20
28184
30
0
40
240
1
\U+0645\U+0641\U+062A\U+0627\U+062D \U+0627\U+0644\U+0631\U+0645\U+0648\U+0632
7
STANDARD
72
2
11
82800
21
28184
31
0
100
AcDbText
73
0
0
LINE
5
620
330
10E
100
AcDbEntity
8
NOTES
100
AcDbLine
10
64900
20
28064
30
0
11
82800
21
28064
31
0
0
LINE
5
621
330
10E
100
AcDbEntity
8
REBAR-TOP
370
50
100
AcDbLine
10
64900
20
27744
30
0
11
65700
21
27744
31
0
0
TEXT
5
622
330
10E
100
AcDbEntity
8
NOTES
100
AcDbText
10
65900
20
27694
30
0
40
180
1
T16 TOP BAR
7
STANDARD
72
0
100
AcDbText
73
0
0
LINE
5
623
330
10E
100
AcDbEntity
8
CALLOUT
100
AcDbLine
10
64900
20
27444
30
0
11
65700
21
27444
31
0
0
TEXT
5
624
330
10E
100
AcDbEntity
8
NOTES
100
AcDbText
10
65900
20
27394
30
0
40
180
1
TOP BAR TYPE CALL-OUT
7
STANDARD
72
0
100
AcDbText
73
0
0
HATCH
5
625
330
10E
100
AcDbEntity
8
COLUMN-HATCH
100
AcDbHatch
10
0
20
0
30
0
210
0
220
0
230
1
2
ANSI31
70
0
71
0
91
1
92
3
72
0
73
1
93
4
10
64900
20
27014
10
65700
20
27014
10
65700
20
27274
10
64900
20
27274
97
0
75
1
76
1
52
0
41
31.496063
77
0
78
1
53
45
43
0
44
0
45
-70.710678
46
70.710678
79
0
47
1
98
0
0
TEXT
5
626
330
10E
100
AcDbEntity
8
NOTES
100
AcDbText
10
65900
20
27094
30
0
40
180
1
COLUMN
7
STANDARD
72
0
100
AcDbText
73
0
0
LINE
5
627
330
10E
100
AcDbEntity
8
TITLE
100
AcDbLine
10
64600
20
11700
30
0
11
83100
21
11700
31
0
0
TEXT
5
628
330
10E
100
AcDbEntity
8
TEXT-TITLE
100
AcDbText
10
73850
20
12800
30
0
40
450
1
SPAN TECH CONTRACTING
7
STANDARD
72
1
11
73850
21
12800
31
0
100
AcDbText
73
2
0
TEXT
5
629
330
10E
100
AcDbEntity
8
TITLE
100
AcDbText
10
73850
20
12150
30
0
40
200
1
POST-TENSIONED SLABS \U+00B7 KSA \U+00B7 EGYPT \U+00B7 QATAR
7
STANDARD
72
1
11
73850
21
12150
31
0
100
AcDbText
73
2
0
LINE
5
62A
330
10E
100
AcDbEntity
8
TITLE
100
AcDbLine
10
64600
20
10300
30
0
11
83100
21
10300
31
0
0
TEXT
5
62B
330
10E
100
AcDbEntity
8
TITLE
100
AcDbText
10
64750
20
11380
30
0
40
160
1
PROJECT
7
STANDARD
72
0
100
AcDbText
73
0
0
TEXT
5
62C
330
10E
100
AcDbEntity
8
TEXT-TITLE
100
AcDbText
10
64750
20
10960
30
0
40
300
1
PROPOSED MIXED-USE BUILDING
7
STANDARD
72
0
100
AcDbText
73
0
0
TEXT
5
62D
330
10E
100
AcDbEntity
8
TITLE
100
AcDbText
10
64750
20
10450
30
0
40
180
1
CLIENT: DEMO CLIENT   LOCATION: RIYADH, KSA
7
STANDARD
72
0
100
AcDbText
73
0
0
LINE
5
62E
330
10E
100
AcDbEntity
8
TITLE
100
AcDbLine
10
64600
20
8400
30
0
11
83100
21
8400
31
0
0
TEXT
5
62F
330
10E
100
AcDbEntity
8
TITLE
100
AcDbText
10
64750
20
9980
30
0
40
160
1
DRAWING TITLE
7
STANDARD
72
0
100
AcDbText
73
0
0
TEXT
5
630
330
10E
100
AcDbEntity
8
TEXT-TITLE
100
AcDbText
10
64750
20
9500
30
0
40
320
1
REBAR - ADDITIONAL TOP BARS OVER
7
STANDARD
72
0
100
AcDbText
73
0
0
TEXT
5
631
330
10E
100
AcDbEntity
8
TEXT-TITLE
100
AcDbText
10
64750
20
9080
30
0
40
320
1
COLUMNS
7
STANDARD
72
0
100
AcDbText
73
0
0
TEXT
5
632
330
10E
100
AcDbEntity
8
TITLE
100
AcDbText
10
64750
20
8550
30
0
40
220
1
L01 - FIRST FLOOR SLAB PLAN
7
STANDARD
72
0
100
AcDbText
73
0
0
LINE
5
633
330
10E
100
AcDbEntity
8
TITLE
100
AcDbLine
10
64600
20
7300
30
0
11
83100
21
7300
31
0
0
LINE
5
634
330
10E
100
AcDbEntity
8
TITLE
100
AcDbLine
10
73850
20
7300
30
0
11
73850
21
8400
31
0
0
LINE
5
635
330
10E
100
AcDbEntity
8
TITLE
100
AcDbLine
10
78475
20
7300
30
0
11
78475
21
8400
31
0
0
TEXT
5
636
330
10E
100
AcDbEntity
8
TITLE
100
AcDbText
10
64750
20
8080
30
0
40
160
1
DRAWING No.
7
STANDARD
72
0
100
AcDbText
73
0
0
TEXT
5
637
330
10E
100
AcDbEntity
8
TEXT-TITLE
100
AcDbText
10
64750
20
7640
30
0
40
320
1
ST-SD-L01-03
7
STANDARD
72
0
100
AcDbText
73
0
0
TEXT
5
638
330
10E
100
AcDbEntity
8
TITLE
100
AcDbText
10
74000
20
8080
30
0
40
160
1
REV.
7
STANDARD
72
0
100
AcDbText
73
0
0
TEXT
5
639
330
10E
100
AcDbEntity
8
TEXT-TITLE
100
AcDbText
10
74000
20
7640
30
0
40
320
1
00
7
STANDARD
72
0
100
AcDbText
73
0
0
TEXT
5
63A
330
10E
100
AcDbEntity
8
TITLE
100
AcDbText
10
78625
20
8080
30
0
40
160
1
DATE
7
STANDARD
72
0
100
AcDbText
73
0
0
TEXT
5
63B
330
10E
100
AcDbEntity
8
TEXT-TITLE
100
AcDbText
10
78625
20
7700
30
0
40
260
1
2026-09-26
7
STANDARD
72
0
100
AcDbText
73
0
0
LINE
5
63C
330
10E
100
AcDbEntity
8
TITLE
100
AcDbLine
10
64600
20
6200
30
0
11
83100
21
6200
31
0
0
LINE
5
63D
330
10E
100
AcDbEntity
8
TITLE
100
AcDbLine
10
70890
20
6200
30
0
11
70890
21
7300
31
0
0
LINE
5
63E
330
10E
100
AcDbEntity
8
TITLE
100
AcDbLine
10
76810
20
6200
30
0
11
76810
21
7300
31
0
0
TEXT
5
63F
330
10E
100
AcDbEntity
8
TITLE
100
AcDbText
10
64750
20
6980
30
0
40
160
1
SCALE
7
STANDARD
72
0
100
AcDbText
73
0
0
TEXT
5
640
330
10E
100
AcDbEntity
8
TEXT-TITLE
100
AcDbText
10
64750
20
6580
30
0
40
280
1
1:100 @ A1 (DETAILS AS NOTED)
7
STANDARD
72
0
100
AcDbText
73
0
0
TEXT
5
641
330
10E
100
AcDbEntity
8
TITLE
100
AcDbText
10
71040
20
6980
30
0
40
160
1
SHEET SIZE
7
STANDARD
72
0
100
AcDbText
73
0
0
TEXT
5
642
330
10E
100
AcDbEntity
8
TEXT-TITLE
100
AcDbText
10
71040
20
6580
30
0
40
280
1
A1
7
STANDARD
72
0
100
AcDbText
73
0
0
TEXT
5
643
330
10E
100
AcDbEntity
8
TITLE
100
AcDbText
10
76960
20
6980
30
0
40
160
1
SHEET
7
STANDARD
72
0
100
AcDbText
73
0
0
TEXT
5
644
330
10E
100
AcDbEntity
8
TEXT-TITLE
100
AcDbText
10
76960
20
6580
30
0
40
280
1
4 OF 15
7
STANDARD
72
0
100
AcDbText
73
0
0
LINE
5
645
330
10E
100
AcDbEntity
8
TITLE
100
AcDbLine
10
64600
20
4400
30
0
11
83100
21
4400
31
0
0
LINE
5
646
330
10E
100
AcDbEntity
8
TITLE
100
AcDbLine
10
70766.666667
20
4400
30
0
11
70766.666667
21
6200
31
0
0
LINE
5
647
330
10E
100
AcDbEntity
8
TITLE
100
AcDbLine
10
76933.333333
20
4400
30
0
11
76933.333333
21
6200
31
0
0
TEXT
5
648
330
10E
100
AcDbEntity
8
TITLE
100
AcDbText
10
64750
20
5880
30
0
40
160
1
PREPARED
7
STANDARD
72
0
100
AcDbText
73
0
0
TEXT
5
649
330
10E
100
AcDbEntity
8
TEXT-TITLE
100
AcDbText
10
64750
20
5350
30
0
40
220
1
SPAN TECH DESIGN OFFICE
7
STANDARD
72
0
100
AcDbText
73
0
0
TEXT
5
64A
330
10E
100
AcDbEntity
8
TITLE
100
AcDbText
10
64750
20
4550
30
0
40
150
1
SIGN / DATE: ..........
7
STANDARD
72
0
100
AcDbText
73
0
0
TEXT
5
64B
330
10E
100
AcDbEntity
8
TITLE
100
AcDbText
10
70916.666667
20
5880
30
0
40
160
1
CHECKED
7
STANDARD
72
0
100
AcDbText
73
0
0
TEXT
5
64C
330
10E
100
AcDbEntity
8
TEXT-TITLE
100
AcDbText
10
70916.666667
20
5350
30
0
40
220
1

7
STANDARD
72
0
100
AcDbText
73
0
0
TEXT
5
64D
330
10E
100
AcDbEntity
8
TITLE
100
AcDbText
10
70916.666667
20
4550
30
0
40
150
1
SIGN / DATE: ..........
7
STANDARD
72
0
100
AcDbText
73
0
0
TEXT
5
64E
330
10E
100
AcDbEntity
8
TITLE
100
AcDbText
10
77083.333333
20
5880
30
0
40
160
1
APPROVED
7
STANDARD
72
0
100
AcDbText
73
0
0
TEXT
5
64F
330
10E
100
AcDbEntity
8
TEXT-TITLE
100
AcDbText
10
77083.333333
20
5350
30
0
40
220
1

7
STANDARD
72
0
100
AcDbText
73
0
0
TEXT
5
650
330
10E
100
AcDbEntity
8
TITLE
100
AcDbText
10
77083.333333
20
4550
30
0
40
150
1
SIGN / DATE: ..........
7
STANDARD
72
0
100
AcDbText
73
0
0
LINE
5
651
330
10E
100
AcDbEntity
8
TITLE
100
AcDbLine
10
64600
20
3400
30
0
11
83100
21
3400
31
0
0
LINE
5
652
330
10E
100
AcDbEntity
8
TITLE
100
AcDbLine
10
73850
20
3400
30
0
11
73850
21
4400
31
0
0
TEXT
5
653
330
10E
100
AcDbEntity
8
TITLE
100
AcDbText
10
64750
20
4080
30
0
40
160
1
GRID REFERENCE
7
STANDARD
72
0
100
AcDbText
73
0
0
TEXT
5
654
330
10E
100
AcDbEntity
8
TEXT-TITLE
100
AcDbText
10
64750
20
3720
30
0
40
240
1
A-E / 1-4
7
STANDARD
72
0
100
AcDbText
73
0
0
TEXT
5
655
330
10E
100
AcDbEntity
8
TITLE
100
AcDbText
10
74000
20
4080
30
0
40
160
1
DRAWING INDEX
7
STANDARD
72
0
100
AcDbText
73
0
0
TEXT
5
656
330
10E
100
AcDbEntity
8
TEXT-TITLE
100
AcDbText
10
74000
20
3720
30
0
40
240
1
ST-SD-000
7
STANDARD
72
0
100
AcDbText
73
0
0
LINE
5
657
330
10E
100
AcDbEntity
8
TITLE
100
AcDbLine
10
64600
20
2400
30
0
11
83100
21
2400
31
0
0
LINE
5
658
330
10E
100
AcDbEntity
8
TITLE
100
AcDbLine
10
73850
20
2400
30
0
11
73850
21
3400
31
0
0
TEXT
5
659
330
10E
100
AcDbEntity
8
TITLE
100
AcDbText
10
64750
20
3080
30
0
40
160
1
CODE REFERENCE
7
STANDARD
72
0
100
AcDbText
73
0
0
TEXT
5
65A
330
10E
100
AcDbEntity
8
TEXT-TITLE
100
AcDbText
10
64750
20
2740
30
0
40
220
1
SBC 304-18 (ON DRAWINGS)
7
STANDARD
72
0
100
AcDbText
73
0
0
TEXT
5
65B
330
10E
100
AcDbEntity
8
TITLE
100
AcDbText
10
74000
20
3080
30
0
40
160
1
BLOCK / XREF NAME
7
STANDARD
72
0
100
AcDbText
73
0
0
TEXT
5
65C
330
10E
100
AcDbEntity
8
TEXT-TITLE
100
AcDbText
10
74000
20
2790
30
0
40
170
1
FRAMING_REBAR_ADDITIONAL_AT_COLUMNS_L01
7
STANDARD
72
0
100
AcDbText
73
0
0
TEXT
5
65D
330
10E
100
AcDbEntity
8
TEXT-TITLE
100
AcDbText
10
73850
20
1700
30
0
40
240
1
SHOP DRAWING - FOR CONSULTANT APPROVAL
7
STANDARD
72
1
11
73850
21
1700
31
0
100
AcDbText
73
2
0
LWPOLYLINE
5
65E
330
10E
100
AcDbEntity
8
TITLE
370
50
100
AcDbPolyline
90
4
70
1
43
0
10
64600
20
1000
10
83100
20
1000
10
83100
20
13500
10
64600
20
13500
0
TEXT
5
65F
330
10E
100
AcDbEntity
8
TEXT-TITLE
100
AcDbText
10
2600
20
13900
30
0
40
400
1
FIRST FLOOR SLAB PLAN - REBAR - ADDITIONAL TOP BARS OVER COLUMNS
7
STANDARD
72
0
100
AcDbText
73
0
0
LINE
5
660
330
10E
100
AcDbEntity
8
TITLE
370
50
100
AcDbLine
10
2600
20
13750
30
0
11
23080
21
13750
31
0
0
TEXT
5
661
330
10E
100
AcDbEntity
8
TITLE
100
AcDbText
10
23480
20
13900
30
0
40
250
1
SCALE 1:100
7
STANDARD
72
0
100
AcDbText
73
0
0
ENDBLK
5
662
330
10E
100
AcDbEntity
8
0
100
AcDbBlockEnd
0
ENDSEC
0
SECTION
2
ENTITIES
0
INSERT
5
663
330
108
100
AcDbEntity
8
0
100
AcDbBlockReference
2
FRAMING_REBAR_ADDITIONAL_AT_COLUMNS_L01
10
0
20
0
30
0
41
1
42
1
43
1
50
0
0
ENDSEC
0
SECTION
2
OBJECTS
0
DICTIONARY
5
100
330
0
100
AcDbDictionary
281
1
3
ACAD_GROUP
350
101
3
ACAD_LAYOUT
350
104
3
ACAD_PLOTSTYLENAME
350
102
0
DICTIONARY
5
101
330
100
100
AcDbDictionary
281
1
0
ACDBDICTIONARYWDFLT
5
102
330
100
100
AcDbDictionary
281
1
3
Normal
350
103
100
AcDbDictionaryWithDefault
340
103
0
ACDBPLACEHOLDER
5
103
330
102
0
DICTIONARY
5
104
330
100
100
AcDbDictionary
281
1
3
Model
350
105
3
Layout1
350
106
0
LAYOUT
5
105
330
104
100
AcDbPlotSettings
1

2
none_device
4

6

40
0
41
0
42
0
43
0
44
0
45
0
46
0
47
0
48
0
49
0
140
0
141
0
142
1
143
1
70
1712
72
0
73
0
74
5
7

75
16
147
1
148
0
149
0
100
AcDbLayout
1
Model
70
1
71
0
10
0
20
0
11
12
21
9
12
0
22
0
32
0
14
0
24
0
34
0
15
0
25
0
35
0
146
0
13
0
23
0
33
0
16
1
26
0
36
0
17
0
27
1
37
0
76
0
330
108
0
LAYOUT
5
106
330
104
100
AcDbPlotSettings
1

2
none_device
4

6

40
0
41
0
42
0
43
0
44
0
45
0
46
0
47
0
48
0
49
0
140
0
141
0
142
1
143
1
70
688
72
0
73
0
74
5
7

75
16
147
1
148
0
149
0
100
AcDbLayout
1
Layout1
70
1
71
1
10
0
20
0
11
12
21
9
12
0
22
0
32
0
14
0
24
0
34
0
15
0
25
0
35
0
146
0
13
0
23
0
33
0
16
1
26
0
36
0
17
0
27
1
37
0
76
0
330
109
0
ENDSEC
0
EOF
