0
SECTION
2
HEADER
9
$ACADVER
1
AC1015
9
$DWGCODEPAGE
3
ANSI_1252
9
$INSBASE
10
0
20
0
30
0
9
$EXTMIN
10
0
20
0
30
0
9
$EXTMAX
10
85088
20
59400
30
0
9
$LIMMIN
10
0
20
0
9
$LIMMAX
10
85088
20
59400
9
$ORTHOMODE
70
0
9
$LTSCALE
40
25
9
$TEXTSIZE
40
2.5
9
$TEXTSTYLE
7
STANDARD
9
$CLAYER
8
0
9
$CELTYPE
6
BYLAYER
9
$CECOLOR
62
256
9
$DIMSTYLE
2
STANDARD
9
$INSUNITS
70
4
9
$MEASUREMENT
70
1
9
$PDMODE
70
0
9
$PSLTSCALE
70
1
9
$TILEMODE
70
1
9
$HANDSEED
5
40B
0
ENDSEC
0
SECTION
2
CLASSES
0
ENDSEC
0
SECTION
2
TABLES
0
TABLE
2
VPORT
5
10F
330
0
100
AcDbSymbolTable
70
1
0
VPORT
5
110
330
10F
100
AcDbSymbolTableRecord
100
AcDbViewportTableRecord
2
*Active
70
0
10
0
20
0
11
1
21
1
12
42544
22
29700
13
0
23
0
14
10
24
10
15
10
25
10
16
0
26
0
36
1
17
0
27
0
37
0
40
65340
41
1.432458
42
50
43
0
44
0
50
0
51
0
71
0
72
1000
73
1
74
3
75
0
76
0
77
0
78
0
281
0
65
1
110
0
120
0
130
0
111
1
121
0
131
0
112
0
122
1
132
0
79
0
146
0
0
ENDTAB
0
TABLE
2
LTYPE
5
111
330
0
100
AcDbSymbolTable
70
8
0
LTYPE
5
112
330
111
100
AcDbSymbolTableRecord
100
AcDbLinetypeTableRecord
2
ByBlock
70
0
3

72
65
73
0
40
0
0
LTYPE
5
113
330
111
100
AcDbSymbolTableRecord
100
AcDbLinetypeTableRecord
2
ByLayer
70
0
3

72
65
73
0
40
0
0
LTYPE
5
114
330
111
100
AcDbSymbolTableRecord
100
AcDbLinetypeTableRecord
2
CONTINUOUS
70
0
3
Solid line
72
65
73
0
40
0
0
LTYPE
5
115
330
111
100
AcDbSymbolTableRecord
100
AcDbLinetypeTableRecord
2
DASHED
70
0
3
Dashed __ __ __
72
65
73
2
40
19.05
49
12.7
74
0
49
-6.35
74
0
0
LTYPE
5
116
330
111
100
AcDbSymbolTableRecord
100
AcDbLinetypeTableRecord
2
HIDDEN
70
0
3
Hidden __ __ __
72
65
73
2
40
9.525
49
6.35
74
0
49
-3.175
74
0
0
LTYPE
5
117
330
111
100
AcDbSymbolTableRecord
100
AcDbLinetypeTableRecord
2
CENTER
70
0
3
Center ____ _ ____ _
72
65
73
4
40
50.8
49
31.75
74
0
49
-6.35
74
0
49
6.35
74
0
49
-6.35
74
0
0
LTYPE
5
118
330
111
100
AcDbSymbolTableRecord
100
AcDbLinetypeTableRecord
2
DASHDOT
70
0
3
Dash dot __ . __ . __
72
65
73
4
40
25.4
49
12.7
74
0
49
-6.35
74
0
49
0
74
0
49
-6.35
74
0
0
LTYPE
5
119
330
111
100
AcDbSymbolTableRecord
100
AcDbLinetypeTableRecord
2
PHANTOM
70
0
3
Phantom ____ _ _ ____
72
65
73
6
40
63.5
49
31.75
74
0
49
-6.35
74
0
49
6.35
74
0
49
-6.35
74
0
49
6.35
74
0
49
-6.35
74
0
0
ENDTAB
0
TABLE
2
LAYER
5
11A
330
0
100
AcDbSymbolTable
70
50
0
LAYER
5
11B
330
11A
100
AcDbSymbolTableRecord
100
AcDbLayerTableRecord
2
0
70
0
62
7
6
CONTINUOUS
370
-3
390
103
0
LAYER
5
11C
330
11A
100
AcDbSymbolTableRecord
100
AcDbLayerTableRecord
2
ST-SHEET-FRAME
70
0
62
7
6
CONTINUOUS
370
50
390
103
0
LAYER
5
11D
330
11A
100
AcDbSymbolTableRecord
100
AcDbLayerTableRecord
2
ST-SHEET-TITLE
70
0
62
7
6
CONTINUOUS
370
25
390
103
0
LAYER
5
11E
330
11A
100
AcDbSymbolTableRecord
100
AcDbLayerTableRecord
2
ST-TEXT
70
0
62
7
6
CONTINUOUS
370
-3
390
103
0
LAYER
5
11F
330
11A
100
AcDbSymbolTableRecord
100
AcDbLayerTableRecord
2
ST-SHEET-TEXT
70
0
62
2
6
CONTINUOUS
370
-3
390
103
0
LAYER
5
120
330
11A
100
AcDbSymbolTableRecord
100
AcDbLayerTableRecord
2
ST-SHEET-NOTES
70
0
62
7
6
CONTINUOUS
370
-3
390
103
0
LAYER
5
121
330
11A
100
AcDbSymbolTableRecord
100
AcDbLayerTableRecord
2
ST-GRID
70
0
62
8
6
CENTER
370
-3
390
103
0
LAYER
5
122
330
11A
100
AcDbSymbolTableRecord
100
AcDbLayerTableRecord
2
ST-GRID-BUBBLE
70
0
62
8
6
CONTINUOUS
370
-3
390
103
0
LAYER
5
123
330
11A
100
AcDbSymbolTableRecord
100
AcDbLayerTableRecord
2
ST-SLAB-EDGE
70
0
62
3
6
CONTINUOUS
370
35
390
103
0
LAYER
5
124
330
11A
100
AcDbSymbolTableRecord
100
AcDbLayerTableRecord
2
ST-COL
70
0
62
7
6
CONTINUOUS
370
35
390
103
0
LAYER
5
125
330
11A
100
AcDbSymbolTableRecord
100
AcDbLayerTableRecord
2
ST-COL-HATCH
70
0
62
7
6
CONTINUOUS
370
-3
390
103
0
LAYER
5
126
330
11A
100
AcDbSymbolTableRecord
100
AcDbLayerTableRecord
2
ST-OPENING
70
0
62
6
6
CONTINUOUS
370
-3
390
103
0
LAYER
5
127
330
11A
100
AcDbSymbolTableRecord
100
AcDbLayerTableRecord
2
ST-OPENING-HATCH
70
0
62
6
6
CONTINUOUS
370
-3
390
103
0
LAYER
5
128
330
11A
100
AcDbSymbolTableRecord
100
AcDbLayerTableRecord
2
ST-VOID
70
0
62
30
6
DASHED
370
-3
390
103
0
LAYER
5
129
330
11A
100
AcDbSymbolTableRecord
100
AcDbLayerTableRecord
2
ST-VOID-HATCH
70
0
62
30
6
CONTINUOUS
370
-3
390
103
0
LAYER
5
12A
330
11A
100
AcDbSymbolTableRecord
100
AcDbLayerTableRecord
2
ST-PT-ZONE
70
0
62
4
6
DASHDOT
370
-3
390
103
0
LAYER
5
12B
330
11A
100
AcDbSymbolTableRecord
100
AcDbLayerTableRecord
2
ST-PT-TENDON
70
0
62
3
6
CONTINUOUS
370
-3
390
103
0
LAYER
5
12C
330
11A
100
AcDbSymbolTableRecord
100
AcDbLayerTableRecord
2
ST-PT-HATCH
70
0
62
4
6
CONTINUOUS
370
-3
390
103
0
LAYER
5
12D
330
11A
100
AcDbSymbolTableRecord
100
AcDbLayerTableRecord
2
ST-RB-BOT
70
0
62
1
6
CONTINUOUS
370
50
390
103
0
LAYER
5
12E
330
11A
100
AcDbSymbolTableRecord
100
AcDbLayerTableRecord
2
ST-RB-TOP
70
0
62
5
6
CONTINUOUS
370
50
390
103
0
LAYER
5
12F
330
11A
100
AcDbSymbolTableRecord
100
AcDbLayerTableRecord
2
ST-RB-UBAR
70
0
62
6
6
CONTINUOUS
370
50
390
103
0
LAYER
5
130
330
11A
100
AcDbSymbolTableRecord
100
AcDbLayerTableRecord
2
ST-RB-TRIM
70
0
62
6
6
CONTINUOUS
370
50
390
103
0
LAYER
5
131
330
11A
100
AcDbSymbolTableRecord
100
AcDbLayerTableRecord
2
ST-RB-RANGE
70
0
62
6
6
CONTINUOUS
370
-3
390
103
0
LAYER
5
132
330
11A
100
AcDbSymbolTableRecord
100
AcDbLayerTableRecord
2
ST-RB-TEXT
70
0
62
7
6
CONTINUOUS
370
-3
390
103
0
LAYER
5
133
330
11A
100
AcDbSymbolTableRecord
100
AcDbLayerTableRecord
2
ST-RB-MESH
70
0
62
4
6
CONTINUOUS
370
-3
390
103
0
LAYER
5
134
330
11A
100
AcDbSymbolTableRecord
100
AcDbLayerTableRecord
2
ST-RB-PUNCH
70
0
62
6
6
CONTINUOUS
370
35
390
103
0
LAYER
5
135
330
11A
100
AcDbSymbolTableRecord
100
AcDbLayerTableRecord
2
ST-RB-TYPE
70
0
62
1
6
CONTINUOUS
370
-3
390
103
0
LAYER
5
136
330
11A
100
AcDbSymbolTableRecord
100
AcDbLayerTableRecord
2
ST-RB
70
0
62
6
6
CONTINUOUS
370
50
390
103
0
LAYER
5
137
330
11A
100
AcDbSymbolTableRecord
100
AcDbLayerTableRecord
2
ST-RB-B1
70
0
62
6
6
CONTINUOUS
370
50
390
103
0
LAYER
5
138
330
11A
100
AcDbSymbolTableRecord
100
AcDbLayerTableRecord
2
ST-RB-B2
70
0
62
6
6
CONTINUOUS
370
50
390
103
0
LAYER
5
139
330
11A
100
AcDbSymbolTableRecord
100
AcDbLayerTableRecord
2
ST-RB-T1
70
0
62
6
6
CONTINUOUS
370
50
390
103
0
LAYER
5
13A
330
11A
100
AcDbSymbolTableRecord
100
AcDbLayerTableRecord
2
ST-RB-T2
70
0
62
6
6
CONTINUOUS
370
50
390
103
0
LAYER
5
13B
330
11A
100
AcDbSymbolTableRecord
100
AcDbLayerTableRecord
2
ST-STAIR
70
0
62
8
6
CONTINUOUS
370
-3
390
103
0
LAYER
5
13C
330
11A
100
AcDbSymbolTableRecord
100
AcDbLayerTableRecord
2
ST-WALL
70
0
62
8
6
CONTINUOUS
370
50
390
103
0
LAYER
5
13D
330
11A
100
AcDbSymbolTableRecord
100
AcDbLayerTableRecord
2
ST-SLAB-THK
70
0
62
3
6
DASHED
370
-3
390
103
0
LAYER
5
13E
330
11A
100
AcDbSymbolTableRecord
100
AcDbLayerTableRecord
2
ST-SLAB-THK-HATCH
70
0
62
8
6
CONTINUOUS
370
-3
390
103
0
LAYER
5
13F
330
11A
100
AcDbSymbolTableRecord
100
AcDbLayerTableRecord
2
ST-PT-ANCHOR
70
0
62
3
6
CONTINUOUS
370
-3
390
103
0
LAYER
5
140
330
11A
100
AcDbSymbolTableRecord
100
AcDbLayerTableRecord
2
ST-BEAM
70
0
62
3
6
CONTINUOUS
370
25
390
103
0
LAYER
5
141
330
11A
100
AcDbSymbolTableRecord
100
AcDbLayerTableRecord
2
ST-SUNKEN
70
0
62
4
6
CONTINUOUS
370
-3
390
103
0
LAYER
5
142
330
11A
100
AcDbSymbolTableRecord
100
AcDbLayerTableRecord
2
ST-SUNKEN-HATCH
70
0
62
8
6
CONTINUOUS
370
-3
390
103
0
LAYER
5
143
330
11A
100
AcDbSymbolTableRecord
100
AcDbLayerTableRecord
2
ST-CALLOUT
70
0
62
3
6
CONTINUOUS
370
-3
390
103
0
LAYER
5
144
330
11A
100
AcDbSymbolTableRecord
100
AcDbLayerTableRecord
2
ST-DIM
70
0
62
8
6
CONTINUOUS
370
-3
390
103
0
LAYER
5
145
330
11A
100
AcDbSymbolTableRecord
100
AcDbLayerTableRecord
2
ST-DETAIL
70
0
62
7
6
CONTINUOUS
370
-3
390
103
0
LAYER
5
146
330
11A
100
AcDbSymbolTableRecord
100
AcDbLayerTableRecord
2
ST-DETAIL-HATCH
70
0
62
8
6
CONTINUOUS
370
-3
390
103
0
LAYER
5
147
330
11A
100
AcDbSymbolTableRecord
100
AcDbLayerTableRecord
2
ST-SHEET-SCHEDULE
70
0
62
7
6
CONTINUOUS
370
-3
390
103
0
LAYER
5
148
330
11A
100
AcDbSymbolTableRecord
100
AcDbLayerTableRecord
2
ST-SHEET-SCHEDULE-TEXT
70
0
62
7
6
CONTINUOUS
370
-3
390
103
0
LAYER
5
149
330
11A
100
AcDbSymbolTableRecord
100
AcDbLayerTableRecord
2
ST-HATCH
70
0
62
8
6
CONTINUOUS
370
-3
390
103
0
LAYER
5
14A
330
11A
100
AcDbSymbolTableRecord
100
AcDbLayerTableRecord
2
ST-PT-CABLE
70
0
62
3
6
CONTINUOUS
370
50
390
103
0
LAYER
5
14B
330
11A
100
AcDbSymbolTableRecord
100
AcDbLayerTableRecord
2
ST-PT-TEXT
70
0
62
3
6
CONTINUOUS
370
-3
390
103
0
LAYER
5
14C
330
11A
100
AcDbSymbolTableRecord
100
AcDbLayerTableRecord
2
ST-XREF
70
0
62
7
6
CONTINUOUS
370
-3
390
103
0
ENDTAB
0
TABLE
2
STYLE
5
14D
330
0
100
AcDbSymbolTable
70
3
0
STYLE
5
14E
330
14D
100
AcDbSymbolTableRecord
100
AcDbTextStyleTableRecord
2
STANDARD
70
0
40
0
41
1
50
0
71
0
42
2.5
3
arial.ttf
4

0
STYLE
5
14F
330
14D
100
AcDbSymbolTableRecord
100
AcDbTextStyleTableRecord
2
ST-REBAR
70
0
40
0
41
1
50
0
71
0
42
2.5
3
romans.shx
4

0
STYLE
5
150
330
14D
100
AcDbSymbolTableRecord
100
AcDbTextStyleTableRecord
2
ST-TITLE
70
0
40
0
41
1
50
0
71
0
42
2.5
3
arial.ttf
4

0
ENDTAB
0
TABLE
2
VIEW
5
151
330
0
100
AcDbSymbolTable
70
0
0
ENDTAB
0
TABLE
2
UCS
5
152
330
0
100
AcDbSymbolTable
70
0
0
ENDTAB
0
TABLE
2
APPID
5
153
330
0
100
AcDbSymbolTable
70
1
0
APPID
5
154
330
153
100
AcDbSymbolTableRecord
100
AcDbRegAppTableRecord
2
ACAD
70
0
0
ENDTAB
0
TABLE
2
DIMSTYLE
5
155
330
0
100
AcDbSymbolTable
70
1
100
AcDbDimStyleTable
0
DIMSTYLE
105
156
330
155
100
AcDbSymbolTableRecord
100
AcDbDimStyleTableRecord
2
STANDARD
70
0
40
1
41
2.5
42
0.625
43
3.75
44
1.25
140
2.5
141
2.5
147
0.625
0
ENDTAB
0
TABLE
2
BLOCK_RECORD
5
107
330
0
100
AcDbSymbolTable
70
3
0
BLOCK_RECORD
5
108
330
107
100
AcDbSymbolTableRecord
100
AcDbBlockTableRecord
2
*Model_Space
340
105
0
BLOCK_RECORD
5
109
330
107
100
AcDbSymbolTableRecord
100
AcDbBlockTableRecord
2
*Paper_Space
340
106
0
BLOCK_RECORD
5
10E
330
107
100
AcDbSymbolTableRecord
100
AcDbBlockTableRecord
2
FRAMING_REBAR_AROUND_OPENINGS_L02
340
0
0
ENDTAB
0
ENDSEC
0
SECTION
2
BLOCKS
0
BLOCK
5
10A
330
108
100
AcDbEntity
8
0
100
AcDbBlockBegin
2
*Model_Space
70
0
10
0
20
0
30
0
3
*Model_Space
1

0
ENDBLK
5
10B
330
108
100
AcDbEntity
8
0
100
AcDbBlockEnd
0
BLOCK
5
10C
330
109
100
AcDbEntity
67
1
8
0
100
AcDbBlockBegin
2
*Paper_Space
70
0
10
0
20
0
30
0
3
*Paper_Space
1

0
ENDBLK
5
10D
330
109
100
AcDbEntity
67
1
8
0
100
AcDbBlockEnd
0
BLOCK
5
157
330
10E
100
AcDbEntity
8
0
100
AcDbBlockBegin
2
FRAMING_REBAR_AROUND_OPENINGS_L02
70
0
10
0
20
0
30
0
3
FRAMING_REBAR_AROUND_OPENINGS_L02
1

0
LWPOLYLINE
5
158
330
10E
100
AcDbEntity
8
ST-SHEET-FRAME
370
13
100
AcDbPolyline
90
4
70
1
43
0
10
0
20
0
10
84100
20
0
10
84100
20
59400
10
0
20
59400
0
LWPOLYLINE
5
159
330
10E
100
AcDbEntity
8
ST-SHEET-FRAME
100
AcDbPolyline
90
4
70
1
43
0
10
2000
20
1000
10
83100
20
1000
10
83100
20
58400
10
2000
20
58400
0
LINE
5
15A
330
10E
100
AcDbEntity
8
ST-SHEET-FRAME
100
AcDbLine
10
42050
20
0
30
0
11
42050
21
600
31
0
0
LINE
5
15B
330
10E
100
AcDbEntity
8
ST-SHEET-FRAME
100
AcDbLine
10
42050
20
59400
30
0
11
42050
21
58800
31
0
0
LINE
5
15C
330
10E
100
AcDbEntity
8
ST-SHEET-FRAME
100
AcDbLine
10
0
20
29700
30
0
11
600
21
29700
31
0
0
LINE
5
15D
330
10E
100
AcDbEntity
8
ST-SHEET-FRAME
100
AcDbLine
10
84100
20
29700
30
0
11
83500
21
29700
31
0
0
LINE
5
15E
330
10E
100
AcDbEntity
8
ST-SHEET-FRAME
370
13
100
AcDbLine
10
2000
20
58400
30
0
11
2000
21
59400
31
0
0
LINE
5
15F
330
10E
100
AcDbEntity
8
ST-SHEET-FRAME
370
13
100
AcDbLine
10
2000
20
0
30
0
11
2000
21
1000
31
0
0
TEXT
5
160
330
10E
100
AcDbEntity
8
ST-SHEET-FRAME
100
AcDbText
10
7068.75
20
58900
30
0
40
250
1
1
7
STANDARD
72
1
11
7068.75
21
58900
31
0
100
AcDbText
73
2
0
TEXT
5
161
330
10E
100
AcDbEntity
8
ST-SHEET-FRAME
100
AcDbText
10
7068.75
20
500
30
0
40
250
1
1
7
STANDARD
72
1
11
7068.75
21
500
31
0
100
AcDbText
73
2
0
LINE
5
162
330
10E
100
AcDbEntity
8
ST-SHEET-FRAME
370
13
100
AcDbLine
10
12137.5
20
58400
30
0
11
12137.5
21
59400
31
0
0
LINE
5
163
330
10E
100
AcDbEntity
8
ST-SHEET-FRAME
370
13
100
AcDbLine
10
12137.5
20
0
30
0
11
12137.5
21
1000
31
0
0
TEXT
5
164
330
10E
100
AcDbEntity
8
ST-SHEET-FRAME
100
AcDbText
10
17206.25
20
58900
30
0
40
250
1
2
7
STANDARD
72
1
11
17206.25
21
58900
31
0
100
AcDbText
73
2
0
TEXT
5
165
330
10E
100
AcDbEntity
8
ST-SHEET-FRAME
100
AcDbText
10
17206.25
20
500
30
0
40
250
1
2
7
STANDARD
72
1
11
17206.25
21
500
31
0
100
AcDbText
73
2
0
LINE
5
166
330
10E
100
AcDbEntity
8
ST-SHEET-FRAME
370
13
100
AcDbLine
10
22275
20
58400
30
0
11
22275
21
59400
31
0
0
LINE
5
167
330
10E
100
AcDbEntity
8
ST-SHEET-FRAME
370
13
100
AcDbLine
10
22275
20
0
30
0
11
22275
21
1000
31
0
0
TEXT
5
168
330
10E
100
AcDbEntity
8
ST-SHEET-FRAME
100
AcDbText
10
27343.75
20
58900
30
0
40
250
1
3
7
STANDARD
72
1
11
27343.75
21
58900
31
0
100
AcDbText
73
2
0
TEXT
5
169
330
10E
100
AcDbEntity
8
ST-SHEET-FRAME
100
AcDbText
10
27343.75
20
500
30
0
40
250
1
3
7
STANDARD
72
1
11
27343.75
21
500
31
0
100
AcDbText
73
2
0
LINE
5
16A
330
10E
100
AcDbEntity
8
ST-SHEET-FRAME
370
13
100
AcDbLine
10
32412.5
20
58400
30
0
11
32412.5
21
59400
31
0
0
LINE
5
16B
330
10E
100
AcDbEntity
8
ST-SHEET-FRAME
370
13
100
AcDbLine
10
32412.5
20
0
30
0
11
32412.5
21
1000
31
0
0
TEXT
5
16C
330
10E
100
AcDbEntity
8
ST-SHEET-FRAME
100
AcDbText
10
37481.25
20
58900
30
0
40
250
1
4
7
STANDARD
72
1
11
37481.25
21
58900
31
0
100
AcDbText
73
2
0
TEXT
5
16D
330
10E
100
AcDbEntity
8
ST-SHEET-FRAME
100
AcDbText
10
37481.25
20
500
30
0
40
250
1
4
7
STANDARD
72
1
11
37481.25
21
500
31
0
100
AcDbText
73
2
0
LINE
5
16E
330
10E
100
AcDbEntity
8
ST-SHEET-FRAME
370
13
100
AcDbLine
10
42550
20
58400
30
0
11
42550
21
59400
31
0
0
LINE
5
16F
330
10E
100
AcDbEntity
8
ST-SHEET-FRAME
370
13
100
AcDbLine
10
42550
20
0
30
0
11
42550
21
1000
31
0
0
TEXT
5
170
330
10E
100
AcDbEntity
8
ST-SHEET-FRAME
100
AcDbText
10
47618.75
20
58900
30
0
40
250
1
5
7
STANDARD
72
1
11
47618.75
21
58900
31
0
100
AcDbText
73
2
0
TEXT
5
171
330
10E
100
AcDbEntity
8
ST-SHEET-FRAME
100
AcDbText
10
47618.75
20
500
30
0
40
250
1
5
7
STANDARD
72
1
11
47618.75
21
500
31
0
100
AcDbText
73
2
0
LINE
5
172
330
10E
100
AcDbEntity
8
ST-SHEET-FRAME
370
13
100
AcDbLine
10
52687.5
20
58400
30
0
11
52687.5
21
59400
31
0
0
LINE
5
173
330
10E
100
AcDbEntity
8
ST-SHEET-FRAME
370
13
100
AcDbLine
10
52687.5
20
0
30
0
11
52687.5
21
1000
31
0
0
TEXT
5
174
330
10E
100
AcDbEntity
8
ST-SHEET-FRAME
100
AcDbText
10
57756.25
20
58900
30
0
40
250
1
6
7
STANDARD
72
1
11
57756.25
21
58900
31
0
100
AcDbText
73
2
0
TEXT
5
175
330
10E
100
AcDbEntity
8
ST-SHEET-FRAME
100
AcDbText
10
57756.25
20
500
30
0
40
250
1
6
7
STANDARD
72
1
11
57756.25
21
500
31
0
100
AcDbText
73
2
0
LINE
5
176
330
10E
100
AcDbEntity
8
ST-SHEET-FRAME
370
13
100
AcDbLine
10
62825
20
58400
30
0
11
62825
21
59400
31
0
0
LINE
5
177
330
10E
100
AcDbEntity
8
ST-SHEET-FRAME
370
13
100
AcDbLine
10
62825
20
0
30
0
11
62825
21
1000
31
0
0
TEXT
5
178
330
10E
100
AcDbEntity
8
ST-SHEET-FRAME
100
AcDbText
10
67893.75
20
58900
30
0
40
250
1
7
7
STANDARD
72
1
11
67893.75
21
58900
31
0
100
AcDbText
73
2
0
TEXT
5
179
330
10E
100
AcDbEntity
8
ST-SHEET-FRAME
100
AcDbText
10
67893.75
20
500
30
0
40
250
1
7
7
STANDARD
72
1
11
67893.75
21
500
31
0
100
AcDbText
73
2
0
LINE
5
17A
330
10E
100
AcDbEntity
8
ST-SHEET-FRAME
370
13
100
AcDbLine
10
72962.5
20
58400
30
0
11
72962.5
21
59400
31
0
0
LINE
5
17B
330
10E
100
AcDbEntity
8
ST-SHEET-FRAME
370
13
100
AcDbLine
10
72962.5
20
0
30
0
11
72962.5
21
1000
31
0
0
TEXT
5
17C
330
10E
100
AcDbEntity
8
ST-SHEET-FRAME
100
AcDbText
10
78031.25
20
58900
30
0
40
250
1
8
7
STANDARD
72
1
11
78031.25
21
58900
31
0
100
AcDbText
73
2
0
TEXT
5
17D
330
10E
100
AcDbEntity
8
ST-SHEET-FRAME
100
AcDbText
10
78031.25
20
500
30
0
40
250
1
8
7
STANDARD
72
1
11
78031.25
21
500
31
0
100
AcDbText
73
2
0
LINE
5
17E
330
10E
100
AcDbEntity
8
ST-SHEET-FRAME
370
13
100
AcDbLine
10
83100
20
58400
30
0
11
83100
21
59400
31
0
0
LINE
5
17F
330
10E
100
AcDbEntity
8
ST-SHEET-FRAME
370
13
100
AcDbLine
10
83100
20
0
30
0
11
83100
21
1000
31
0
0
LINE
5
180
330
10E
100
AcDbEntity
8
ST-SHEET-FRAME
370
13
100
AcDbLine
10
0
20
1000
30
0
11
2000
21
1000
31
0
0
LINE
5
181
330
10E
100
AcDbEntity
8
ST-SHEET-FRAME
370
13
100
AcDbLine
10
83100
20
1000
30
0
11
84100
21
1000
31
0
0
TEXT
5
182
330
10E
100
AcDbEntity
8
ST-SHEET-FRAME
100
AcDbText
10
1000
20
5783.333333
30
0
40
250
1
F
7
STANDARD
72
1
11
1000
21
5783.333333
31
0
100
AcDbText
73
2
0
TEXT
5
183
330
10E
100
AcDbEntity
8
ST-SHEET-FRAME
100
AcDbText
10
83600
20
5783.333333
30
0
40
250
1
F
7
STANDARD
72
1
11
83600
21
5783.333333
31
0
100
AcDbText
73
2
0
LINE
5
184
330
10E
100
AcDbEntity
8
ST-SHEET-FRAME
370
13
100
AcDbLine
10
0
20
10566.666667
30
0
11
2000
21
10566.666667
31
0
0
LINE
5
185
330
10E
100
AcDbEntity
8
ST-SHEET-FRAME
370
13
100
AcDbLine
10
83100
20
10566.666667
30
0
11
84100
21
10566.666667
31
0
0
TEXT
5
186
330
10E
100
AcDbEntity
8
ST-SHEET-FRAME
100
AcDbText
10
1000
20
15350
30
0
40
250
1
E
7
STANDARD
72
1
11
1000
21
15350
31
0
100
AcDbText
73
2
0
TEXT
5
187
330
10E
100
AcDbEntity
8
ST-SHEET-FRAME
100
AcDbText
10
83600
20
15350
30
0
40
250
1
E
7
STANDARD
72
1
11
83600
21
15350
31
0
100
AcDbText
73
2
0
LINE
5
188
330
10E
100
AcDbEntity
8
ST-SHEET-FRAME
370
13
100
AcDbLine
10
0
20
20133.333333
30
0
11
2000
21
20133.333333
31
0
0
LINE
5
189
330
10E
100
AcDbEntity
8
ST-SHEET-FRAME
370
13
100
AcDbLine
10
83100
20
20133.333333
30
0
11
84100
21
20133.333333
31
0
0
TEXT
5
18A
330
10E
100
AcDbEntity
8
ST-SHEET-FRAME
100
AcDbText
10
1000
20
24916.666667
30
0
40
250
1
D
7
STANDARD
72
1
11
1000
21
24916.666667
31
0
100
AcDbText
73
2
0
TEXT
5
18B
330
10E
100
AcDbEntity
8
ST-SHEET-FRAME
100
AcDbText
10
83600
20
24916.666667
30
0
40
250
1
D
7
STANDARD
72
1
11
83600
21
24916.666667
31
0
100
AcDbText
73
2
0
LINE
5
18C
330
10E
100
AcDbEntity
8
ST-SHEET-FRAME
370
13
100
AcDbLine
10
0
20
29700
30
0
11
2000
21
29700
31
0
0
LINE
5
18D
330
10E
100
AcDbEntity
8
ST-SHEET-FRAME
370
13
100
AcDbLine
10
83100
20
29700
30
0
11
84100
21
29700
31
0
0
TEXT
5
18E
330
10E
100
AcDbEntity
8
ST-SHEET-FRAME
100
AcDbText
10
1000
20
34483.333333
30
0
40
250
1
C
7
STANDARD
72
1
11
1000
21
34483.333333
31
0
100
AcDbText
73
2
0
TEXT
5
18F
330
10E
100
AcDbEntity
8
ST-SHEET-FRAME
100
AcDbText
10
83600
20
34483.333333
30
0
40
250
1
C
7
STANDARD
72
1
11
83600
21
34483.333333
31
0
100
AcDbText
73
2
0
LINE
5
190
330
10E
100
AcDbEntity
8
ST-SHEET-FRAME
370
13
100
AcDbLine
10
0
20
39266.666667
30
0
11
2000
21
39266.666667
31
0
0
LINE
5
191
330
10E
100
AcDbEntity
8
ST-SHEET-FRAME
370
13
100
AcDbLine
10
83100
20
39266.666667
30
0
11
84100
21
39266.666667
31
0
0
TEXT
5
192
330
10E
100
AcDbEntity
8
ST-SHEET-FRAME
100
AcDbText
10
1000
20
44050
30
0
40
250
1
B
7
STANDARD
72
1
11
1000
21
44050
31
0
100
AcDbText
73
2
0
TEXT
5
193
330
10E
100
AcDbEntity
8
ST-SHEET-FRAME
100
AcDbText
10
83600
20
44050
30
0
40
250
1
B
7
STANDARD
72
1
11
83600
21
44050
31
0
100
AcDbText
73
2
0
LINE
5
194
330
10E
100
AcDbEntity
8
ST-SHEET-FRAME
370
13
100
AcDbLine
10
0
20
48833.333333
30
0
11
2000
21
48833.333333
31
0
0
LINE
5
195
330
10E
100
AcDbEntity
8
ST-SHEET-FRAME
370
13
100
AcDbLine
10
83100
20
48833.333333
30
0
11
84100
21
48833.333333
31
0
0
TEXT
5
196
330
10E
100
AcDbEntity
8
ST-SHEET-FRAME
100
AcDbText
10
1000
20
53616.666667
30
0
40
250
1
A
7
STANDARD
72
1
11
1000
21
53616.666667
31
0
100
AcDbText
73
2
0
TEXT
5
197
330
10E
100
AcDbEntity
8
ST-SHEET-FRAME
100
AcDbText
10
83600
20
53616.666667
30
0
40
250
1
A
7
STANDARD
72
1
11
83600
21
53616.666667
31
0
100
AcDbText
73
2
0
LINE
5
198
330
10E
100
AcDbEntity
8
ST-SHEET-FRAME
370
13
100
AcDbLine
10
0
20
58400
30
0
11
2000
21
58400
31
0
0
LINE
5
199
330
10E
100
AcDbEntity
8
ST-SHEET-FRAME
370
13
100
AcDbLine
10
83100
20
58400
30
0
11
84100
21
58400
31
0
0
LINE
5
19A
330
10E
100
AcDbEntity
8
ST-SHEET-FRAME
100
AcDbLine
10
64600
20
1000
30
0
11
64600
21
58400
31
0
0
LINE
5
19B
330
10E
100
AcDbEntity
8
ST-SHEET-FRAME
100
AcDbLine
10
2000
20
13500
30
0
11
64600
21
13500
31
0
0
LINE
5
19C
330
10E
100
AcDbEntity
8
ST-SHEET-FRAME
100
AcDbLine
10
64600
20
16000
30
0
11
83100
21
16000
31
0
0
LINE
5
19D
330
10E
100
AcDbEntity
8
ST-SHEET-FRAME
100
AcDbLine
10
64600
20
21200
30
0
11
83100
21
21200
31
0
0
LINE
5
19E
330
10E
100
AcDbEntity
8
ST-SHEET-FRAME
100
AcDbLine
10
64600
20
39800
30
0
11
83100
21
39800
31
0
0
LINE
5
19F
330
10E
100
AcDbEntity
8
ST-SHEET-FRAME
100
AcDbLine
10
64600
20
53800
30
0
11
83100
21
53800
31
0
0
LINE
5
1A0
330
10E
100
AcDbEntity
8
ST-GRID
100
AcDbLine
10
18550
20
20650
30
0
11
18550
21
52650
31
0
0
CIRCLE
5
1A1
330
10E
100
AcDbEntity
8
ST-GRID-BUBBLE
100
AcDbCircle
10
18550
20
53050
30
0
40
400
0
TEXT
5
1A2
330
10E
100
AcDbEntity
8
ST-TEXT
100
AcDbText
10
18550
20
53050
30
0
40
300
1
A
7
STANDARD
72
1
11
18550
21
53050
31
0
100
AcDbText
73
2
0
CIRCLE
5
1A3
330
10E
100
AcDbEntity
8
ST-GRID-BUBBLE
100
AcDbCircle
10
18550
20
20250
30
0
40
400
0
TEXT
5
1A4
330
10E
100
AcDbEntity
8
ST-TEXT
100
AcDbText
10
18550
20
20250
30
0
40
300
1
A
7
STANDARD
72
1
11
18550
21
20250
31
0
100
AcDbText
73
2
0
LINE
5
1A5
330
10E
100
AcDbEntity
8
ST-GRID
100
AcDbLine
10
26050
20
20650
30
0
11
26050
21
52650
31
0
0
CIRCLE
5
1A6
330
10E
100
AcDbEntity
8
ST-GRID-BUBBLE
100
AcDbCircle
10
26050
20
53050
30
0
40
400
0
TEXT
5
1A7
330
10E
100
AcDbEntity
8
ST-TEXT
100
AcDbText
10
26050
20
53050
30
0
40
300
1
B
7
STANDARD
72
1
11
26050
21
53050
31
0
100
AcDbText
73
2
0
CIRCLE
5
1A8
330
10E
100
AcDbEntity
8
ST-GRID-BUBBLE
100
AcDbCircle
10
26050
20
20250
30
0
40
400
0
TEXT
5
1A9
330
10E
100
AcDbEntity
8
ST-TEXT
100
AcDbText
10
26050
20
20250
30
0
40
300
1
B
7
STANDARD
72
1
11
26050
21
20250
31
0
100
AcDbText
73
2
0
LINE
5
1AA
330
10E
100
AcDbEntity
8
ST-GRID
100
AcDbLine
10
33550
20
20650
30
0
11
33550
21
52650
31
0
0
CIRCLE
5
1AB
330
10E
100
AcDbEntity
8
ST-GRID-BUBBLE
100
AcDbCircle
10
33550
20
53050
30
0
40
400
0
TEXT
5
1AC
330
10E
100
AcDbEntity
8
ST-TEXT
100
AcDbText
10
33550
20
53050
30
0
40
300
1
C
7
STANDARD
72
1
11
33550
21
53050
31
0
100
AcDbText
73
2
0
CIRCLE
5
1AD
330
10E
100
AcDbEntity
8
ST-GRID-BUBBLE
100
AcDbCircle
10
33550
20
20250
30
0
40
400
0
TEXT
5
1AE
330
10E
100
AcDbEntity
8
ST-TEXT
100
AcDbText
10
33550
20
20250
30
0
40
300
1
C
7
STANDARD
72
1
11
33550
21
20250
31
0
100
AcDbText
73
2
0
LINE
5
1AF
330
10E
100
AcDbEntity
8
ST-GRID
100
AcDbLine
10
41050
20
20650
30
0
11
41050
21
52650
31
0
0
CIRCLE
5
1B0
330
10E
100
AcDbEntity
8
ST-GRID-BUBBLE
100
AcDbCircle
10
41050
20
53050
30
0
40
400
0
TEXT
5
1B1
330
10E
100
AcDbEntity
8
ST-TEXT
100
AcDbText
10
41050
20
53050
30
0
40
300
1
D
7
STANDARD
72
1
11
41050
21
53050
31
0
100
AcDbText
73
2
0
CIRCLE
5
1B2
330
10E
100
AcDbEntity
8
ST-GRID-BUBBLE
100
AcDbCircle
10
41050
20
20250
30
0
40
400
0
TEXT
5
1B3
330
10E
100
AcDbEntity
8
ST-TEXT
100
AcDbText
10
41050
20
20250
30
0
40
300
1
D
7
STANDARD
72
1
11
41050
21
20250
31
0
100
AcDbText
73
2
0
LINE
5
1B4
330
10E
100
AcDbEntity
8
ST-GRID
100
AcDbLine
10
48550
20
20650
30
0
11
48550
21
52650
31
0
0
CIRCLE
5
1B5
330
10E
100
AcDbEntity
8
ST-GRID-BUBBLE
100
AcDbCircle
10
48550
20
53050
30
0
40
400
0
TEXT
5
1B6
330
10E
100
AcDbEntity
8
ST-TEXT
100
AcDbText
10
48550
20
53050
30
0
40
300
1
E
7
STANDARD
72
1
11
48550
21
53050
31
0
100
AcDbText
73
2
0
CIRCLE
5
1B7
330
10E
100
AcDbEntity
8
ST-GRID-BUBBLE
100
AcDbCircle
10
48550
20
20250
30
0
40
400
0
TEXT
5
1B8
330
10E
100
AcDbEntity
8
ST-TEXT
100
AcDbText
10
48550
20
20250
30
0
40
300
1
E
7
STANDARD
72
1
11
48550
21
20250
31
0
100
AcDbText
73
2
0
LINE
5
1B9
330
10E
100
AcDbEntity
8
ST-GRID
100
AcDbLine
10
14050
20
24650
30
0
11
52550
21
24650
31
0
0
CIRCLE
5
1BA
330
10E
100
AcDbEntity
8
ST-GRID-BUBBLE
100
AcDbCircle
10
13650
20
24650
30
0
40
400
0
TEXT
5
1BB
330
10E
100
AcDbEntity
8
ST-TEXT
100
AcDbText
10
13650
20
24650
30
0
40
300
1
1
7
STANDARD
72
1
11
13650
21
24650
31
0
100
AcDbText
73
2
0
CIRCLE
5
1BC
330
10E
100
AcDbEntity
8
ST-GRID-BUBBLE
100
AcDbCircle
10
52950
20
24650
30
0
40
400
0
TEXT
5
1BD
330
10E
100
AcDbEntity
8
ST-TEXT
100
AcDbText
10
52950
20
24650
30
0
40
300
1
1
7
STANDARD
72
1
11
52950
21
24650
31
0
100
AcDbText
73
2
0
LINE
5
1BE
330
10E
100
AcDbEntity
8
ST-GRID
100
AcDbLine
10
14050
20
32650
30
0
11
52550
21
32650
31
0
0
CIRCLE
5
1BF
330
10E
100
AcDbEntity
8
ST-GRID-BUBBLE
100
AcDbCircle
10
13650
20
32650
30
0
40
400
0
TEXT
5
1C0
330
10E
100
AcDbEntity
8
ST-TEXT
100
AcDbText
10
13650
20
32650
30
0
40
300
1
2
7
STANDARD
72
1
11
13650
21
32650
31
0
100
AcDbText
73
2
0
CIRCLE
5
1C1
330
10E
100
AcDbEntity
8
ST-GRID-BUBBLE
100
AcDbCircle
10
52950
20
32650
30
0
40
400
0
TEXT
5
1C2
330
10E
100
AcDbEntity
8
ST-TEXT
100
AcDbText
10
52950
20
32650
30
0
40
300
1
2
7
STANDARD
72
1
11
52950
21
32650
31
0
100
AcDbText
73
2
0
LINE
5
1C3
330
10E
100
AcDbEntity
8
ST-GRID
100
AcDbLine
10
14050
20
40650
30
0
11
52550
21
40650
31
0
0
CIRCLE
5
1C4
330
10E
100
AcDbEntity
8
ST-GRID-BUBBLE
100
AcDbCircle
10
13650
20
40650
30
0
40
400
0
TEXT
5
1C5
330
10E
100
AcDbEntity
8
ST-TEXT
100
AcDbText
10
13650
20
40650
30
0
40
300
1
3
7
STANDARD
72
1
11
13650
21
40650
31
0
100
AcDbText
73
2
0
CIRCLE
5
1C6
330
10E
100
AcDbEntity
8
ST-GRID-BUBBLE
100
AcDbCircle
10
52950
20
40650
30
0
40
400
0
TEXT
5
1C7
330
10E
100
AcDbEntity
8
ST-TEXT
100
AcDbText
10
52950
20
40650
30
0
40
300
1
3
7
STANDARD
72
1
11
52950
21
40650
31
0
100
AcDbText
73
2
0
LINE
5
1C8
330
10E
100
AcDbEntity
8
ST-GRID
100
AcDbLine
10
14050
20
48650
30
0
11
52550
21
48650
31
0
0
CIRCLE
5
1C9
330
10E
100
AcDbEntity
8
ST-GRID-BUBBLE
100
AcDbCircle
10
13650
20
48650
30
0
40
400
0
TEXT
5
1CA
330
10E
100
AcDbEntity
8
ST-TEXT
100
AcDbText
10
13650
20
48650
30
0
40
300
1
4
7
STANDARD
72
1
11
13650
21
48650
31
0
100
AcDbText
73
2
0
CIRCLE
5
1CB
330
10E
100
AcDbEntity
8
ST-GRID-BUBBLE
100
AcDbCircle
10
52950
20
48650
30
0
40
400
0
TEXT
5
1CC
330
10E
100
AcDbEntity
8
ST-TEXT
100
AcDbText
10
52950
20
48650
30
0
40
300
1
4
7
STANDARD
72
1
11
52950
21
48650
31
0
100
AcDbText
73
2
0
LINE
5
1CD
330
10E
100
AcDbEntity
8
ST-DIM
100
AcDbLine
10
18550
20
18450
30
0
11
18550
21
18000
31
0
0
LINE
5
1CE
330
10E
100
AcDbEntity
8
ST-DIM
100
AcDbLine
10
26050
20
18450
30
0
11
26050
21
18000
31
0
0
LINE
5
1CF
330
10E
100
AcDbEntity
8
ST-DIM
100
AcDbLine
10
18550
20
17850
30
0
11
26050
21
17850
31
0
0
LINE
5
1D0
330
10E
100
AcDbEntity
8
ST-DIM
100
AcDbLine
10
18480
20
17780
30
0
11
18620
21
17920
31
0
0
LINE
5
1D1
330
10E
100
AcDbEntity
8
ST-DIM
100
AcDbLine
10
25980
20
17780
30
0
11
26120
21
17920
31
0
0
TEXT
5
1D2
330
10E
100
AcDbEntity
8
ST-DIM
100
AcDbText
10
22300
20
17922
30
0
40
180
1
7500
7
STANDARD
72
1
11
22300
21
17922
31
0
100
AcDbText
73
0
0
LINE
5
1D3
330
10E
100
AcDbEntity
8
ST-DIM
100
AcDbLine
10
26050
20
18450
30
0
11
26050
21
18000
31
0
0
LINE
5
1D4
330
10E
100
AcDbEntity
8
ST-DIM
100
AcDbLine
10
33550
20
18450
30
0
11
33550
21
18000
31
0
0
LINE
5
1D5
330
10E
100
AcDbEntity
8
ST-DIM
100
AcDbLine
10
26050
20
17850
30
0
11
33550
21
17850
31
0
0
LINE
5
1D6
330
10E
100
AcDbEntity
8
ST-DIM
100
AcDbLine
10
25980
20
17780
30
0
11
26120
21
17920
31
0
0
LINE
5
1D7
330
10E
100
AcDbEntity
8
ST-DIM
100
AcDbLine
10
33480
20
17780
30
0
11
33620
21
17920
31
0
0
TEXT
5
1D8
330
10E
100
AcDbEntity
8
ST-DIM
100
AcDbText
10
29800
20
17922
30
0
40
180
1
7500
7
STANDARD
72
1
11
29800
21
17922
31
0
100
AcDbText
73
0
0
LINE
5
1D9
330
10E
100
AcDbEntity
8
ST-DIM
100
AcDbLine
10
33550
20
18450
30
0
11
33550
21
18000
31
0
0
LINE
5
1DA
330
10E
100
AcDbEntity
8
ST-DIM
100
AcDbLine
10
41050
20
18450
30
0
11
41050
21
18000
31
0
0
LINE
5
1DB
330
10E
100
AcDbEntity
8
ST-DIM
100
AcDbLine
10
33550
20
17850
30
0
11
41050
21
17850
31
0
0
LINE
5
1DC
330
10E
100
AcDbEntity
8
ST-DIM
100
AcDbLine
10
33480
20
17780
30
0
11
33620
21
17920
31
0
0
LINE
5
1DD
330
10E
100
AcDbEntity
8
ST-DIM
100
AcDbLine
10
40980
20
17780
30
0
11
41120
21
17920
31
0
0
TEXT
5
1DE
330
10E
100
AcDbEntity
8
ST-DIM
100
AcDbText
10
37300
20
17922
30
0
40
180
1
7500
7
STANDARD
72
1
11
37300
21
17922
31
0
100
AcDbText
73
0
0
LINE
5
1DF
330
10E
100
AcDbEntity
8
ST-DIM
100
AcDbLine
10
41050
20
18450
30
0
11
41050
21
18000
31
0
0
LINE
5
1E0
330
10E
100
AcDbEntity
8
ST-DIM
100
AcDbLine
10
48550
20
18450
30
0
11
48550
21
18000
31
0
0
LINE
5
1E1
330
10E
100
AcDbEntity
8
ST-DIM
100
AcDbLine
10
41050
20
17850
30
0
11
48550
21
17850
31
0
0
LINE
5
1E2
330
10E
100
AcDbEntity
8
ST-DIM
100
AcDbLine
10
40980
20
17780
30
0
11
41120
21
17920
31
0
0
LINE
5
1E3
330
10E
100
AcDbEntity
8
ST-DIM
100
AcDbLine
10
48480
20
17780
30
0
11
48620
21
17920
31
0
0
TEXT
5
1E4
330
10E
100
AcDbEntity
8
ST-DIM
100
AcDbText
10
44800
20
17922
30
0
40
180
1
7500
7
STANDARD
72
1
11
44800
21
17922
31
0
100
AcDbText
73
0
0
LINE
5
1E5
330
10E
100
AcDbEntity
8
ST-DIM
100
AcDbLine
10
18550
20
18450
30
0
11
18550
21
17400
31
0
0
LINE
5
1E6
330
10E
100
AcDbEntity
8
ST-DIM
100
AcDbLine
10
48550
20
18450
30
0
11
48550
21
17400
31
0
0
LINE
5
1E7
330
10E
100
AcDbEntity
8
ST-DIM
100
AcDbLine
10
18550
20
17250
30
0
11
48550
21
17250
31
0
0
LINE
5
1E8
330
10E
100
AcDbEntity
8
ST-DIM
100
AcDbLine
10
18480
20
17180
30
0
11
18620
21
17320
31
0
0
LINE
5
1E9
330
10E
100
AcDbEntity
8
ST-DIM
100
AcDbLine
10
48480
20
17180
30
0
11
48620
21
17320
31
0
0
TEXT
5
1EA
330
10E
100
AcDbEntity
8
ST-DIM
100
AcDbText
10
33550
20
17322
30
0
40
180
1
30000
7
STANDARD
72
1
11
33550
21
17322
31
0
100
AcDbText
73
0
0
LINE
5
1EB
330
10E
100
AcDbEntity
8
ST-DIM
100
AcDbLine
10
54750
20
24650
30
0
11
55200
21
24650
31
0
0
LINE
5
1EC
330
10E
100
AcDbEntity
8
ST-DIM
100
AcDbLine
10
54750
20
32650
30
0
11
55200
21
32650
31
0
0
LINE
5
1ED
330
10E
100
AcDbEntity
8
ST-DIM
100
AcDbLine
10
55350
20
24650
30
0
11
55350
21
32650
31
0
0
LINE
5
1EE
330
10E
100
AcDbEntity
8
ST-DIM
100
AcDbLine
10
55420
20
24580
30
0
11
55280
21
24720
31
0
0
LINE
5
1EF
330
10E
100
AcDbEntity
8
ST-DIM
100
AcDbLine
10
55420
20
32580
30
0
11
55280
21
32720
31
0
0
TEXT
5
1F0
330
10E
100
AcDbEntity
8
ST-DIM
100
AcDbText
10
55278
20
28650
30
0
40
180
1
8000
50
90
7
STANDARD
72
1
11
55278
21
28650
31
0
100
AcDbText
73
0
0
LINE
5
1F1
330
10E
100
AcDbEntity
8
ST-DIM
100
AcDbLine
10
54750
20
32650
30
0
11
55200
21
32650
31
0
0
LINE
5
1F2
330
10E
100
AcDbEntity
8
ST-DIM
100
AcDbLine
10
54750
20
40650
30
0
11
55200
21
40650
31
0
0
LINE
5
1F3
330
10E
100
AcDbEntity
8
ST-DIM
100
AcDbLine
10
55350
20
32650
30
0
11
55350
21
40650
31
0
0
LINE
5
1F4
330
10E
100
AcDbEntity
8
ST-DIM
100
AcDbLine
10
55420
20
32580
30
0
11
55280
21
32720
31
0
0
LINE
5
1F5
330
10E
100
AcDbEntity
8
ST-DIM
100
AcDbLine
10
55420
20
40580
30
0
11
55280
21
40720
31
0
0
TEXT
5
1F6
330
10E
100
AcDbEntity
8
ST-DIM
100
AcDbText
10
55278
20
36650
30
0
40
180
1
8000
50
90
7
STANDARD
72
1
11
55278
21
36650
31
0
100
AcDbText
73
0
0
LINE
5
1F7
330
10E
100
AcDbEntity
8
ST-DIM
100
AcDbLine
10
54750
20
40650
30
0
11
55200
21
40650
31
0
0
LINE
5
1F8
330
10E
100
AcDbEntity
8
ST-DIM
100
AcDbLine
10
54750
20
48650
30
0
11
55200
21
48650
31
0
0
LINE
5
1F9
330
10E
100
AcDbEntity
8
ST-DIM
100
AcDbLine
10
55350
20
40650
30
0
11
55350
21
48650
31
0
0
LINE
5
1FA
330
10E
100
AcDbEntity
8
ST-DIM
100
AcDbLine
10
55420
20
40580
30
0
11
55280
21
40720
31
0
0
LINE
5
1FB
330
10E
100
AcDbEntity
8
ST-DIM
100
AcDbLine
10
55420
20
48580
30
0
11
55280
21
48720
31
0
0
TEXT
5
1FC
330
10E
100
AcDbEntity
8
ST-DIM
100
AcDbText
10
55278
20
44650
30
0
40
180
1
8000
50
90
7
STANDARD
72
1
11
55278
21
44650
31
0
100
AcDbText
73
0
0
LINE
5
1FD
330
10E
100
AcDbEntity
8
ST-DIM
100
AcDbLine
10
54750
20
24650
30
0
11
55800
21
24650
31
0
0
LINE
5
1FE
330
10E
100
AcDbEntity
8
ST-DIM
100
AcDbLine
10
54750
20
48650
30
0
11
55800
21
48650
31
0
0
LINE
5
1FF
330
10E
100
AcDbEntity
8
ST-DIM
100
AcDbLine
10
55950
20
24650
30
0
11
55950
21
48650
31
0
0
LINE
5
200
330
10E
100
AcDbEntity
8
ST-DIM
100
AcDbLine
10
56020
20
24580
30
0
11
55880
21
24720
31
0
0
LINE
5
201
330
10E
100
AcDbEntity
8
ST-DIM
100
AcDbLine
10
56020
20
48580
30
0
11
55880
21
48720
31
0
0
TEXT
5
202
330
10E
100
AcDbEntity
8
ST-DIM
100
AcDbText
10
55878
20
36650
30
0
40
180
1
24000
50
90
7
STANDARD
72
1
11
55878
21
36650
31
0
100
AcDbText
73
0
0
LWPOLYLINE
5
203
330
10E
100
AcDbEntity
8
ST-SLAB-EDGE
62
3
100
AcDbPolyline
90
4
70
1
43
0
10
17050
20
23650
10
49550
20
23650
10
49550
20
49650
10
17050
20
49650
0
LWPOLYLINE
5
204
330
10E
100
AcDbEntity
8
ST-COL
100
AcDbPolyline
90
4
70
1
43
0
10
18250
20
48350
10
18850
20
48350
10
18850
20
48950
10
18250
20
48950
0
HATCH
5
205
330
10E
100
AcDbEntity
8
ST-COL-HATCH
62
7
100
AcDbHatch
10
0
20
0
30
0
210
0
220
0
230
1
2
SOLID
70
1
71
0
91
1
92
3
72
0
73
1
93
4
10
18250
20
48350
10
18850
20
48350
10
18850
20
48950
10
18250
20
48950
97
0
75
1
76
1
47
1
98
0
0
LWPOLYLINE
5
206
330
10E
100
AcDbEntity
8
ST-COL
100
AcDbPolyline
90
4
70
1
43
0
10
25750
20
48350
10
26350
20
48350
10
26350
20
48950
10
25750
20
48950
0
HATCH
5
207
330
10E
100
AcDbEntity
8
ST-COL-HATCH
62
7
100
AcDbHatch
10
0
20
0
30
0
210
0
220
0
230
1
2
SOLID
70
1
71
0
91
1
92
3
72
0
73
1
93
4
10
25750
20
48350
10
26350
20
48350
10
26350
20
48950
10
25750
20
48950
97
0
75
1
76
1
47
1
98
0
0
LWPOLYLINE
5
208
330
10E
100
AcDbEntity
8
ST-COL
100
AcDbPolyline
90
4
70
1
43
0
10
33250
20
48350
10
33850
20
48350
10
33850
20
48950
10
33250
20
48950
0
HATCH
5
209
330
10E
100
AcDbEntity
8
ST-COL-HATCH
62
7
100
AcDbHatch
10
0
20
0
30
0
210
0
220
0
230
1
2
SOLID
70
1
71
0
91
1
92
3
72
0
73
1
93
4
10
33250
20
48350
10
33850
20
48350
10
33850
20
48950
10
33250
20
48950
97
0
75
1
76
1
47
1
98
0
0
LWPOLYLINE
5
20A
330
10E
100
AcDbEntity
8
ST-COL
100
AcDbPolyline
90
4
70
1
43
0
10
40750
20
48350
10
41350
20
48350
10
41350
20
48950
10
40750
20
48950
0
HATCH
5
20B
330
10E
100
AcDbEntity
8
ST-COL-HATCH
62
7
100
AcDbHatch
10
0
20
0
30
0
210
0
220
0
230
1
2
SOLID
70
1
71
0
91
1
92
3
72
0
73
1
93
4
10
40750
20
48350
10
41350
20
48350
10
41350
20
48950
10
40750
20
48950
97
0
75
1
76
1
47
1
98
0
0
LWPOLYLINE
5
20C
330
10E
100
AcDbEntity
8
ST-COL
100
AcDbPolyline
90
4
70
1
43
0
10
48250
20
48350
10
48850
20
48350
10
48850
20
48950
10
48250
20
48950
0
HATCH
5
20D
330
10E
100
AcDbEntity
8
ST-COL-HATCH
62
7
100
AcDbHatch
10
0
20
0
30
0
210
0
220
0
230
1
2
SOLID
70
1
71
0
91
1
92
3
72
0
73
1
93
4
10
48250
20
48350
10
48850
20
48350
10
48850
20
48950
10
48250
20
48950
97
0
75
1
76
1
47
1
98
0
0
LWPOLYLINE
5
20E
330
10E
100
AcDbEntity
8
ST-COL
100
AcDbPolyline
90
4
70
1
43
0
10
18250
20
40350
10
18850
20
40350
10
18850
20
40950
10
18250
20
40950
0
HATCH
5
20F
330
10E
100
AcDbEntity
8
ST-COL-HATCH
62
7
100
AcDbHatch
10
0
20
0
30
0
210
0
220
0
230
1
2
SOLID
70
1
71
0
91
1
92
3
72
0
73
1
93
4
10
18250
20
40350
10
18850
20
40350
10
18850
20
40950
10
18250
20
40950
97
0
75
1
76
1
47
1
98
0
0
LWPOLYLINE
5
210
330
10E
100
AcDbEntity
8
ST-COL
100
AcDbPolyline
90
4
70
1
43
0
10
25750
20
40350
10
26350
20
40350
10
26350
20
40950
10
25750
20
40950
0
HATCH
5
211
330
10E
100
AcDbEntity
8
ST-COL-HATCH
62
7
100
AcDbHatch
10
0
20
0
30
0
210
0
220
0
230
1
2
SOLID
70
1
71
0
91
1
92
3
72
0
73
1
93
4
10
25750
20
40350
10
26350
20
40350
10
26350
20
40950
10
25750
20
40950
97
0
75
1
76
1
47
1
98
0
0
LWPOLYLINE
5
212
330
10E
100
AcDbEntity
8
ST-COL
100
AcDbPolyline
90
4
70
1
43
0
10
33250
20
40350
10
33850
20
40350
10
33850
20
40950
10
33250
20
40950
0
HATCH
5
213
330
10E
100
AcDbEntity
8
ST-COL-HATCH
62
7
100
AcDbHatch
10
0
20
0
30
0
210
0
220
0
230
1
2
SOLID
70
1
71
0
91
1
92
3
72
0
73
1
93
4
10
33250
20
40350
10
33850
20
40350
10
33850
20
40950
10
33250
20
40950
97
0
75
1
76
1
47
1
98
0
0
LWPOLYLINE
5
214
330
10E
100
AcDbEntity
8
ST-COL
100
AcDbPolyline
90
4
70
1
43
0
10
40750
20
40350
10
41350
20
40350
10
41350
20
40950
10
40750
20
40950
0
HATCH
5
215
330
10E
100
AcDbEntity
8
ST-COL-HATCH
62
7
100
AcDbHatch
10
0
20
0
30
0
210
0
220
0
230
1
2
SOLID
70
1
71
0
91
1
92
3
72
0
73
1
93
4
10
40750
20
40350
10
41350
20
40350
10
41350
20
40950
10
40750
20
40950
97
0
75
1
76
1
47
1
98
0
0
LWPOLYLINE
5
216
330
10E
100
AcDbEntity
8
ST-COL
100
AcDbPolyline
90
4
70
1
43
0
10
48250
20
40350
10
48850
20
40350
10
48850
20
40950
10
48250
20
40950
0
HATCH
5
217
330
10E
100
AcDbEntity
8
ST-COL-HATCH
62
7
100
AcDbHatch
10
0
20
0
30
0
210
0
220
0
230
1
2
SOLID
70
1
71
0
91
1
92
3
72
0
73
1
93
4
10
48250
20
40350
10
48850
20
40350
10
48850
20
40950
10
48250
20
40950
97
0
75
1
76
1
47
1
98
0
0
LWPOLYLINE
5
218
330
10E
100
AcDbEntity
8
ST-COL
100
AcDbPolyline
90
4
70
1
43
0
10
18250
20
32350
10
18850
20
32350
10
18850
20
32950
10
18250
20
32950
0
HATCH
5
219
330
10E
100
AcDbEntity
8
ST-COL-HATCH
62
7
100
AcDbHatch
10
0
20
0
30
0
210
0
220
0
230
1
2
SOLID
70
1
71
0
91
1
92
3
72
0
73
1
93
4
10
18250
20
32350
10
18850
20
32350
10
18850
20
32950
10
18250
20
32950
97
0
75
1
76
1
47
1
98
0
0
LWPOLYLINE
5
21A
330
10E
100
AcDbEntity
8
ST-COL
100
AcDbPolyline
90
4
70
1
43
0
10
25750
20
32350
10
26350
20
32350
10
26350
20
32950
10
25750
20
32950
0
HATCH
5
21B
330
10E
100
AcDbEntity
8
ST-COL-HATCH
62
7
100
AcDbHatch
10
0
20
0
30
0
210
0
220
0
230
1
2
SOLID
70
1
71
0
91
1
92
3
72
0
73
1
93
4
10
25750
20
32350
10
26350
20
32350
10
26350
20
32950
10
25750
20
32950
97
0
75
1
76
1
47
1
98
0
0
LWPOLYLINE
5
21C
330
10E
100
AcDbEntity
8
ST-COL
100
AcDbPolyline
90
4
70
1
43
0
10
33250
20
32350
10
33850
20
32350
10
33850
20
32950
10
33250
20
32950
0
HATCH
5
21D
330
10E
100
AcDbEntity
8
ST-COL-HATCH
62
7
100
AcDbHatch
10
0
20
0
30
0
210
0
220
0
230
1
2
SOLID
70
1
71
0
91
1
92
3
72
0
73
1
93
4
10
33250
20
32350
10
33850
20
32350
10
33850
20
32950
10
33250
20
32950
97
0
75
1
76
1
47
1
98
0
0
LWPOLYLINE
5
21E
330
10E
100
AcDbEntity
8
ST-COL
100
AcDbPolyline
90
4
70
1
43
0
10
40750
20
32350
10
41350
20
32350
10
41350
20
32950
10
40750
20
32950
0
HATCH
5
21F
330
10E
100
AcDbEntity
8
ST-COL-HATCH
62
7
100
AcDbHatch
10
0
20
0
30
0
210
0
220
0
230
1
2
SOLID
70
1
71
0
91
1
92
3
72
0
73
1
93
4
10
40750
20
32350
10
41350
20
32350
10
41350
20
32950
10
40750
20
32950
97
0
75
1
76
1
47
1
98
0
0
LWPOLYLINE
5
220
330
10E
100
AcDbEntity
8
ST-COL
100
AcDbPolyline
90
4
70
1
43
0
10
48250
20
32350
10
48850
20
32350
10
48850
20
32950
10
48250
20
32950
0
HATCH
5
221
330
10E
100
AcDbEntity
8
ST-COL-HATCH
62
7
100
AcDbHatch
10
0
20
0
30
0
210
0
220
0
230
1
2
SOLID
70
1
71
0
91
1
92
3
72
0
73
1
93
4
10
48250
20
32350
10
48850
20
32350
10
48850
20
32950
10
48250
20
32950
97
0
75
1
76
1
47
1
98
0
0
LWPOLYLINE
5
222
330
10E
100
AcDbEntity
8
ST-COL
100
AcDbPolyline
90
4
70
1
43
0
10
18250
20
24350
10
18850
20
24350
10
18850
20
24950
10
18250
20
24950
0
HATCH
5
223
330
10E
100
AcDbEntity
8
ST-COL-HATCH
62
7
100
AcDbHatch
10
0
20
0
30
0
210
0
220
0
230
1
2
SOLID
70
1
71
0
91
1
92
3
72
0
73
1
93
4
10
18250
20
24350
10
18850
20
24350
10
18850
20
24950
10
18250
20
24950
97
0
75
1
76
1
47
1
98
0
0
LWPOLYLINE
5
224
330
10E
100
AcDbEntity
8
ST-COL
100
AcDbPolyline
90
4
70
1
43
0
10
25750
20
24350
10
26350
20
24350
10
26350
20
24950
10
25750
20
24950
0
HATCH
5
225
330
10E
100
AcDbEntity
8
ST-COL-HATCH
62
7
100
AcDbHatch
10
0
20
0
30
0
210
0
220
0
230
1
2
SOLID
70
1
71
0
91
1
92
3
72
0
73
1
93
4
10
25750
20
24350
10
26350
20
24350
10
26350
20
24950
10
25750
20
24950
97
0
75
1
76
1
47
1
98
0
0
LWPOLYLINE
5
226
330
10E
100
AcDbEntity
8
ST-COL
100
AcDbPolyline
90
4
70
1
43
0
10
33250
20
24350
10
33850
20
24350
10
33850
20
24950
10
33250
20
24950
0
HATCH
5
227
330
10E
100
AcDbEntity
8
ST-COL-HATCH
62
7
100
AcDbHatch
10
0
20
0
30
0
210
0
220
0
230
1
2
SOLID
70
1
71
0
91
1
92
3
72
0
73
1
93
4
10
33250
20
24350
10
33850
20
24350
10
33850
20
24950
10
33250
20
24950
97
0
75
1
76
1
47
1
98
0
0
LWPOLYLINE
5
228
330
10E
100
AcDbEntity
8
ST-COL
100
AcDbPolyline
90
4
70
1
43
0
10
40750
20
24350
10
41350
20
24350
10
41350
20
24950
10
40750
20
24950
0
HATCH
5
229
330
10E
100
AcDbEntity
8
ST-COL-HATCH
62
7
100
AcDbHatch
10
0
20
0
30
0
210
0
220
0
230
1
2
SOLID
70
1
71
0
91
1
92
3
72
0
73
1
93
4
10
40750
20
24350
10
41350
20
24350
10
41350
20
24950
10
40750
20
24950
97
0
75
1
76
1
47
1
98
0
0
LWPOLYLINE
5
22A
330
10E
100
AcDbEntity
8
ST-COL
100
AcDbPolyline
90
4
70
1
43
0
10
48250
20
24350
10
48850
20
24350
10
48850
20
24950
10
48250
20
24950
0
HATCH
5
22B
330
10E
100
AcDbEntity
8
ST-COL-HATCH
62
7
100
AcDbHatch
10
0
20
0
30
0
210
0
220
0
230
1
2
SOLID
70
1
71
0
91
1
92
3
72
0
73
1
93
4
10
48250
20
24350
10
48850
20
24350
10
48850
20
24950
10
48250
20
24950
97
0
75
1
76
1
47
1
98
0
0
LWPOLYLINE
5
22C
330
10E
100
AcDbEntity
8
ST-OPENING
100
AcDbPolyline
90
4
70
1
43
0
10
28050
20
34150
10
31050
20
34150
10
31050
20
39150
10
28050
20
39150
0
LINE
5
22D
330
10E
100
AcDbEntity
8
ST-OPENING
100
AcDbLine
10
28050
20
34150
30
0
11
31050
21
39150
31
0
0
LINE
5
22E
330
10E
100
AcDbEntity
8
ST-OPENING
100
AcDbLine
10
31050
20
34150
30
0
11
28050
21
39150
31
0
0
LWPOLYLINE
5
22F
330
10E
100
AcDbEntity
8
ST-OPENING
100
AcDbPolyline
90
4
70
1
43
0
10
42550
20
34650
10
45050
20
34650
10
45050
20
37150
10
42550
20
37150
0
LINE
5
230
330
10E
100
AcDbEntity
8
ST-OPENING
100
AcDbLine
10
42550
20
34650
30
0
11
45050
21
37150
31
0
0
LINE
5
231
330
10E
100
AcDbEntity
8
ST-OPENING
100
AcDbLine
10
45050
20
34650
30
0
11
42550
21
37150
31
0
0
LWPOLYLINE
5
232
330
10E
100
AcDbEntity
8
ST-VOID
100
AcDbPolyline
90
4
70
1
43
0
10
20550
20
41650
10
24550
20
41650
10
24550
20
44650
10
20550
20
44650
0
HATCH
5
233
330
10E
100
AcDbEntity
8
ST-VOID-HATCH
100
AcDbHatch
10
0
20
0
30
0
210
0
220
0
230
1
2
ANSI37
70
0
71
0
91
1
92
3
72
0
73
1
93
4
10
20550
20
41650
10
24550
20
41650
10
24550
20
44650
10
20550
20
44650
97
0
75
1
76
1
52
0
41
78.740157
77
0
78
2
53
45
43
0
44
0
45
-176.776695
46
176.776695
79
0
53
135
43
0
44
0
45
-176.776695
46
-176.776695
79
0
47
1
98
0
0
LINE
5
234
330
10E
100
AcDbEntity
8
ST-RB-TRIM
100
AcDbLine
10
27340
20
34117
30
0
11
31760
21
34117
31
0
0
TEXT
5
235
330
10E
100
AcDbEntity
8
ST-RB-TEXT
100
AcDbText
10
29550
20
34062
30
0
40
210
1
4T16-T&B-O04-(L=4420)
7
ST-REBAR
72
1
11
29550
21
34062
31
0
100
AcDbText
73
0
0
TEXT
5
236
330
10E
100
AcDbEntity
8
ST-RB-TEXT
100
AcDbText
10
29550
20
34337
30
0
40
170
1
4420
7
ST-REBAR
72
1
11
29550
21
34337
31
0
100
AcDbText
73
0
0
LINE
5
237
330
10E
100
AcDbEntity
8
ST-RB-TRIM
100
AcDbLine
10
27340
20
34057
30
0
11
27340
21
34177
31
0
0
LINE
5
238
330
10E
100
AcDbEntity
8
ST-RB-TRIM
100
AcDbLine
10
31760
20
34057
30
0
11
31760
21
34177
31
0
0
LINE
5
239
330
10E
100
AcDbEntity
8
ST-RB-TRIM
100
AcDbLine
10
31083
20
33440
30
0
11
31083
21
39860
31
0
0
TEXT
5
23A
330
10E
100
AcDbEntity
8
ST-RB-TEXT
100
AcDbText
10
31138
20
36650
30
0
40
210
1
4T16-T&B-O03-(L=6420)
50
90
7
ST-REBAR
72
1
11
31138
21
36650
31
0
100
AcDbText
73
0
0
TEXT
5
23B
330
10E
100
AcDbEntity
8
ST-RB-TEXT
100
AcDbText
10
30863
20
36650
30
0
40
170
1
6420
50
90
7
ST-REBAR
72
1
11
30863
21
36650
31
0
100
AcDbText
73
0
0
LINE
5
23C
330
10E
100
AcDbEntity
8
ST-RB-TRIM
100
AcDbLine
10
31143
20
33440
30
0
11
31023
21
33440
31
0
0
LINE
5
23D
330
10E
100
AcDbEntity
8
ST-RB-TRIM
100
AcDbLine
10
31143
20
39860
30
0
11
31023
21
39860
31
0
0
LINE
5
23E
330
10E
100
AcDbEntity
8
ST-RB-TRIM
100
AcDbLine
10
31760
20
39183
30
0
11
27340
21
39183
31
0
0
TEXT
5
23F
330
10E
100
AcDbEntity
8
ST-RB-TEXT
100
AcDbText
10
29550
20
39128
30
0
40
210
1
4T16-T&B-O04-(L=4420)
50
360
7
ST-REBAR
72
1
11
29550
21
39128
31
0
100
AcDbText
73
0
0
TEXT
5
240
330
10E
100
AcDbEntity
8
ST-RB-TEXT
100
AcDbText
10
29550
20
39403
30
0
40
170
1
4420
50
360
7
ST-REBAR
72
1
11
29550
21
39403
31
0
100
AcDbText
73
0
0
LINE
5
241
330
10E
100
AcDbEntity
8
ST-RB-TRIM
100
AcDbLine
10
31760
20
39243
30
0
11
31760
21
39123
31
0
0
LINE
5
242
330
10E
100
AcDbEntity
8
ST-RB-TRIM
100
AcDbLine
10
27340
20
39243
30
0
11
27340
21
39123
31
0
0
LINE
5
243
330
10E
100
AcDbEntity
8
ST-RB-TRIM
100
AcDbLine
10
28017
20
39860
30
0
11
28017
21
33440
31
0
0
TEXT
5
244
330
10E
100
AcDbEntity
8
ST-RB-TEXT
100
AcDbText
10
28072
20
36650
30
0
40
210
1
4T16-T&B-O03-(L=6420)
50
90
7
ST-REBAR
72
1
11
28072
21
36650
31
0
100
AcDbText
73
0
0
TEXT
5
245
330
10E
100
AcDbEntity
8
ST-RB-TEXT
100
AcDbText
10
27797
20
36650
30
0
40
170
1
6420
50
90
7
ST-REBAR
72
1
11
27797
21
36650
31
0
100
AcDbText
73
0
0
LINE
5
246
330
10E
100
AcDbEntity
8
ST-RB-TRIM
100
AcDbLine
10
27957
20
39860
30
0
11
28077
21
39860
31
0
0
LINE
5
247
330
10E
100
AcDbEntity
8
ST-RB-TRIM
100
AcDbLine
10
27957
20
33440
30
0
11
28077
21
33440
31
0
0
LINE
5
248
330
10E
100
AcDbEntity
8
ST-RB-TRIM
100
AcDbLine
10
27696.446609
20
34644.974747
30
0
11
28544.974747
21
33796.446609
31
0
0
LINE
5
249
330
10E
100
AcDbEntity
8
ST-RB-TRIM
100
AcDbLine
10
30555.025253
20
33796.446609
30
0
11
31403.553391
21
34644.974747
31
0
0
LINE
5
24A
330
10E
100
AcDbEntity
8
ST-RB-TRIM
100
AcDbLine
10
31403.553391
20
38655.025253
30
0
11
30555.025253
21
39503.553391
31
0
0
LINE
5
24B
330
10E
100
AcDbEntity
8
ST-RB-TRIM
100
AcDbLine
10
28544.974747
20
39503.553391
30
0
11
27696.446609
21
38655.025253
31
0
0
TEXT
5
24C
330
10E
100
AcDbEntity
8
ST-RB-TEXT
100
AcDbText
10
28163.137085
20
34263.137085
30
0
40
170
1
4T12-DIAG-O01-(L=1200) AT 4 CORNERS
50
-45
7
STANDARD
72
1
11
28163.137085
21
34263.137085
31
0
100
AcDbText
73
0
0
LWPOLYLINE
5
24D
330
10E
100
AcDbEntity
8
ST-RB-UBAR
100
AcDbPolyline
90
4
70
0
43
0
10
28300
20
33550
10
28300
20
34150
10
28200
20
34150
10
28200
20
33550
0
LWPOLYLINE
5
24E
330
10E
100
AcDbEntity
8
ST-RB-UBAR
100
AcDbPolyline
90
4
70
0
43
0
10
28900
20
33550
10
28900
20
34150
10
28800
20
34150
10
28800
20
33550
0
LWPOLYLINE
5
24F
330
10E
100
AcDbEntity
8
ST-RB-UBAR
100
AcDbPolyline
90
4
70
0
43
0
10
29500
20
33550
10
29500
20
34150
10
29400
20
34150
10
29400
20
33550
0
LWPOLYLINE
5
250
330
10E
100
AcDbEntity
8
ST-RB-UBAR
100
AcDbPolyline
90
4
70
0
43
0
10
30100
20
33550
10
30100
20
34150
10
30000
20
34150
10
30000
20
33550
0
LWPOLYLINE
5
251
330
10E
100
AcDbEntity
8
ST-RB-UBAR
100
AcDbPolyline
90
4
70
0
43
0
10
30700
20
33550
10
30700
20
34150
10
30600
20
34150
10
30600
20
33550
0
LWPOLYLINE
5
252
330
10E
100
AcDbEntity
8
ST-RB-UBAR
100
AcDbPolyline
90
4
70
0
43
0
10
31650
20
34400
10
31050
20
34400
10
31050
20
34300
10
31650
20
34300
0
LWPOLYLINE
5
253
330
10E
100
AcDbEntity
8
ST-RB-UBAR
100
AcDbPolyline
90
4
70
0
43
0
10
31650
20
35000
10
31050
20
35000
10
31050
20
34900
10
31650
20
34900
0
LWPOLYLINE
5
254
330
10E
100
AcDbEntity
8
ST-RB-UBAR
100
AcDbPolyline
90
4
70
0
43
0
10
31650
20
35600
10
31050
20
35600
10
31050
20
35500
10
31650
20
35500
0
LWPOLYLINE
5
255
330
10E
100
AcDbEntity
8
ST-RB-UBAR
100
AcDbPolyline
90
4
70
0
43
0
10
31650
20
36200
10
31050
20
36200
10
31050
20
36100
10
31650
20
36100
0
LWPOLYLINE
5
256
330
10E
100
AcDbEntity
8
ST-RB-UBAR
100
AcDbPolyline
90
4
70
0
43
0
10
31650
20
36800
10
31050
20
36800
10
31050
20
36700
10
31650
20
36700
0
LWPOLYLINE
5
257
330
10E
100
AcDbEntity
8
ST-RB-UBAR
100
AcDbPolyline
90
4
70
0
43
0
10
31650
20
37400
10
31050
20
37400
10
31050
20
37300
10
31650
20
37300
0
LWPOLYLINE
5
258
330
10E
100
AcDbEntity
8
ST-RB-UBAR
100
AcDbPolyline
90
4
70
0
43
0
10
31650
20
38000
10
31050
20
38000
10
31050
20
37900
10
31650
20
37900
0
LWPOLYLINE
5
259
330
10E
100
AcDbEntity
8
ST-RB-UBAR
100
AcDbPolyline
90
4
70
0
43
0
10
31650
20
38600
10
31050
20
38600
10
31050
20
38500
10
31650
20
38500
0
LWPOLYLINE
5
25A
330
10E
100
AcDbEntity
8
ST-RB-UBAR
100
AcDbPolyline
90
4
70
0
43
0
10
30800
20
39750
10
30800
20
39150
10
30900
20
39150
10
30900
20
39750
0
LWPOLYLINE
5
25B
330
10E
100
AcDbEntity
8
ST-RB-UBAR
100
AcDbPolyline
90
4
70
0
43
0
10
30200
20
39750
10
30200
20
39150
10
30300
20
39150
10
30300
20
39750
0
LWPOLYLINE
5
25C
330
10E
100
AcDbEntity
8
ST-RB-UBAR
100
AcDbPolyline
90
4
70
0
43
0
10
29600
20
39750
10
29600
20
39150
10
29700
20
39150
10
29700
20
39750
0
LWPOLYLINE
5
25D
330
10E
100
AcDbEntity
8
ST-RB-UBAR
100
AcDbPolyline
90
4
70
0
43
0
10
29000
20
39750
10
29000
20
39150
10
29100
20
39150
10
29100
20
39750
0
LWPOLYLINE
5
25E
330
10E
100
AcDbEntity
8
ST-RB-UBAR
100
AcDbPolyline
90
4
70
0
43
0
10
28400
20
39750
10
28400
20
39150
10
28500
20
39150
10
28500
20
39750
0
LWPOLYLINE
5
25F
330
10E
100
AcDbEntity
8
ST-RB-UBAR
100
AcDbPolyline
90
4
70
0
43
0
10
27450
20
38900
10
28050
20
38900
10
28050
20
39000
10
27450
20
39000
0
LWPOLYLINE
5
260
330
10E
100
AcDbEntity
8
ST-RB-UBAR
100
AcDbPolyline
90
4
70
0
43
0
10
27450
20
38300
10
28050
20
38300
10
28050
20
38400
10
27450
20
38400
0
LWPOLYLINE
5
261
330
10E
100
AcDbEntity
8
ST-RB-UBAR
100
AcDbPolyline
90
4
70
0
43
0
10
27450
20
37700
10
28050
20
37700
10
28050
20
37800
10
27450
20
37800
0
LWPOLYLINE
5
262
330
10E
100
AcDbEntity
8
ST-RB-UBAR
100
AcDbPolyline
90
4
70
0
43
0
10
27450
20
37100
10
28050
20
37100
10
28050
20
37200
10
27450
20
37200
0
LWPOLYLINE
5
263
330
10E
100
AcDbEntity
8
ST-RB-UBAR
100
AcDbPolyline
90
4
70
0
43
0
10
27450
20
36500
10
28050
20
36500
10
28050
20
36600
10
27450
20
36600
0
LWPOLYLINE
5
264
330
10E
100
AcDbEntity
8
ST-RB-UBAR
100
AcDbPolyline
90
4
70
0
43
0
10
27450
20
35900
10
28050
20
35900
10
28050
20
36000
10
27450
20
36000
0
LWPOLYLINE
5
265
330
10E
100
AcDbEntity
8
ST-RB-UBAR
100
AcDbPolyline
90
4
70
0
43
0
10
27450
20
35300
10
28050
20
35300
10
28050
20
35400
10
27450
20
35400
0
LWPOLYLINE
5
266
330
10E
100
AcDbEntity
8
ST-RB-UBAR
100
AcDbPolyline
90
4
70
0
43
0
10
27450
20
34700
10
28050
20
34700
10
28050
20
34800
10
27450
20
34800
0
CIRCLE
5
267
330
10E
100
AcDbEntity
8
ST-CALLOUT
100
AcDbCircle
10
32050
20
39950
30
0
40
300
0
TEXT
5
268
330
10E
100
AcDbEntity
8
ST-CALLOUT
100
AcDbText
10
32050
20
39950
30
0
40
160
1
O1
7
STANDARD
72
1
11
32050
21
39950
31
0
100
AcDbText
73
2
0
LINE
5
269
330
10E
100
AcDbEntity
8
ST-CALLOUT
100
AcDbLine
10
31815.739357
20
39762.591486
30
0
11
31050
21
39150
31
0
0
TEXT
5
26A
330
10E
100
AcDbEntity
8
ST-RB-TEXT
100
AcDbText
10
32350
20
39800
30
0
40
170
1
O1 OPENING 3,000 x 5,000
7
STANDARD
72
0
100
AcDbText
73
0
0
TEXT
5
26B
330
10E
100
AcDbEntity
8
ST-RB-TEXT
100
AcDbText
10
32350
20
39560
30
0
40
170
1
79T12@200-O02-(L=1370) U-BARS AT FREE EDGES
7
STANDARD
72
0
100
AcDbText
73
0
0
LINE
5
26C
330
10E
100
AcDbEntity
8
ST-RB-TRIM
100
AcDbLine
10
41840
20
34617
30
0
11
45760
21
34617
31
0
0
TEXT
5
26D
330
10E
100
AcDbEntity
8
ST-RB-TEXT
100
AcDbText
10
43800
20
34562
30
0
40
210
1
4T16-T&B-O05-(L=3920)
7
ST-REBAR
72
1
11
43800
21
34562
31
0
100
AcDbText
73
0
0
TEXT
5
26E
330
10E
100
AcDbEntity
8
ST-RB-TEXT
100
AcDbText
10
43800
20
34837
30
0
40
170
1
3920
7
ST-REBAR
72
1
11
43800
21
34837
31
0
100
AcDbText
73
0
0
LINE
5
26F
330
10E
100
AcDbEntity
8
ST-RB-TRIM
100
AcDbLine
10
41840
20
34557
30
0
11
41840
21
34677
31
0
0
LINE
5
270
330
10E
100
AcDbEntity
8
ST-RB-TRIM
100
AcDbLine
10
45760
20
34557
30
0
11
45760
21
34677
31
0
0
LINE
5
271
330
10E
100
AcDbEntity
8
ST-RB-TRIM
100
AcDbLine
10
45083
20
33940
30
0
11
45083
21
37860
31
0
0
TEXT
5
272
330
10E
100
AcDbEntity
8
ST-RB-TEXT
100
AcDbText
10
45138
20
35900
30
0
40
210
1
4T16-T&B-O05-(L=3920)
50
90
7
ST-REBAR
72
1
11
45138
21
35900
31
0
100
AcDbText
73
0
0
TEXT
5
273
330
10E
100
AcDbEntity
8
ST-RB-TEXT
100
AcDbText
10
44863
20
35900
30
0
40
170
1
3920
50
90
7
ST-REBAR
72
1
11
44863
21
35900
31
0
100
AcDbText
73
0
0
LINE
5
274
330
10E
100
AcDbEntity
8
ST-RB-TRIM
100
AcDbLine
10
45143
20
33940
30
0
11
45023
21
33940
31
0
0
LINE
5
275
330
10E
100
AcDbEntity
8
ST-RB-TRIM
100
AcDbLine
10
45143
20
37860
30
0
11
45023
21
37860
31
0
0
LINE
5
276
330
10E
100
AcDbEntity
8
ST-RB-TRIM
100
AcDbLine
10
45760
20
37183
30
0
11
41840
21
37183
31
0
0
TEXT
5
277
330
10E
100
AcDbEntity
8
ST-RB-TEXT
100
AcDbText
10
43800
20
37128
30
0
40
210
1
4T16-T&B-O05-(L=3920)
50
360
7
ST-REBAR
72
1
11
43800
21
37128
31
0
100
AcDbText
73
0
0
TEXT
5
278
330
10E
100
AcDbEntity
8
ST-RB-TEXT
100
AcDbText
10
43800
20
37403
30
0
40
170
1
3920
50
360
7
ST-REBAR
72
1
11
43800
21
37403
31
0
100
AcDbText
73
0
0
LINE
5
279
330
10E
100
AcDbEntity
8
ST-RB-TRIM
100
AcDbLine
10
45760
20
37243
30
0
11
45760
21
37123
31
0
0
LINE
5
27A
330
10E
100
AcDbEntity
8
ST-RB-TRIM
100
AcDbLine
10
41840
20
37243
30
0
11
41840
21
37123
31
0
0
LINE
5
27B
330
10E
100
AcDbEntity
8
ST-RB-TRIM
100
AcDbLine
10
42517
20
37860
30
0
11
42517
21
33940
31
0
0
TEXT
5
27C
330
10E
100
AcDbEntity
8
ST-RB-TEXT
100
AcDbText
10
42572
20
35900
30
0
40
210
1
4T16-T&B-O05-(L=3920)
50
90
7
ST-REBAR
72
1
11
42572
21
35900
31
0
100
AcDbText
73
0
0
TEXT
5
27D
330
10E
100
AcDbEntity
8
ST-RB-TEXT
100
AcDbText
10
42297
20
35900
30
0
40
170
1
3920
50
90
7
ST-REBAR
72
1
11
42297
21
35900
31
0
100
AcDbText
73
0
0
LINE
5
27E
330
10E
100
AcDbEntity
8
ST-RB-TRIM
100
AcDbLine
10
42457
20
37860
30
0
11
42577
21
37860
31
0
0
LINE
5
27F
330
10E
100
AcDbEntity
8
ST-RB-TRIM
100
AcDbLine
10
42457
20
33940
30
0
11
42577
21
33940
31
0
0
LINE
5
280
330
10E
100
AcDbEntity
8
ST-RB-TRIM
100
AcDbLine
10
42196.446609
20
35144.974747
30
0
11
43044.974747
21
34296.446609
31
0
0
LINE
5
281
330
10E
100
AcDbEntity
8
ST-RB-TRIM
100
AcDbLine
10
44555.025253
20
34296.446609
30
0
11
45403.553391
21
35144.974747
31
0
0
LINE
5
282
330
10E
100
AcDbEntity
8
ST-RB-TRIM
100
AcDbLine
10
45403.553391
20
36655.025253
30
0
11
44555.025253
21
37503.553391
31
0
0
LINE
5
283
330
10E
100
AcDbEntity
8
ST-RB-TRIM
100
AcDbLine
10
43044.974747
20
37503.553391
30
0
11
42196.446609
21
36655.025253
31
0
0
TEXT
5
284
330
10E
100
AcDbEntity
8
ST-RB-TEXT
100
AcDbText
10
42663.137085
20
34763.137085
30
0
40
170
1
4T12-DIAG-O01-(L=1200) AT 4 CORNERS
50
-45
7
STANDARD
72
1
11
42663.137085
21
34763.137085
31
0
100
AcDbText
73
0
0
LWPOLYLINE
5
285
330
10E
100
AcDbEntity
8
ST-RB-UBAR
100
AcDbPolyline
90
4
70
0
43
0
10
42800
20
34050
10
42800
20
34650
10
42700
20
34650
10
42700
20
34050
0
LWPOLYLINE
5
286
330
10E
100
AcDbEntity
8
ST-RB-UBAR
100
AcDbPolyline
90
4
70
0
43
0
10
43400
20
34050
10
43400
20
34650
10
43300
20
34650
10
43300
20
34050
0
LWPOLYLINE
5
287
330
10E
100
AcDbEntity
8
ST-RB-UBAR
100
AcDbPolyline
90
4
70
0
43
0
10
44000
20
34050
10
44000
20
34650
10
43900
20
34650
10
43900
20
34050
0
LWPOLYLINE
5
288
330
10E
100
AcDbEntity
8
ST-RB-UBAR
100
AcDbPolyline
90
4
70
0
43
0
10
44600
20
34050
10
44600
20
34650
10
44500
20
34650
10
44500
20
34050
0
LWPOLYLINE
5
289
330
10E
100
AcDbEntity
8
ST-RB-UBAR
100
AcDbPolyline
90
4
70
0
43
0
10
45650
20
34900
10
45050
20
34900
10
45050
20
34800
10
45650
20
34800
0
LWPOLYLINE
5
28A
330
10E
100
AcDbEntity
8
ST-RB-UBAR
100
AcDbPolyline
90
4
70
0
43
0
10
45650
20
35500
10
45050
20
35500
10
45050
20
35400
10
45650
20
35400
0
LWPOLYLINE
5
28B
330
10E
100
AcDbEntity
8
ST-RB-UBAR
100
AcDbPolyline
90
4
70
0
43
0
10
45650
20
36100
10
45050
20
36100
10
45050
20
36000
10
45650
20
36000
0
LWPOLYLINE
5
28C
330
10E
100
AcDbEntity
8
ST-RB-UBAR
100
AcDbPolyline
90
4
70
0
43
0
10
45650
20
36700
10
45050
20
36700
10
45050
20
36600
10
45650
20
36600
0
LWPOLYLINE
5
28D
330
10E
100
AcDbEntity
8
ST-RB-UBAR
100
AcDbPolyline
90
4
70
0
43
0
10
44800
20
37750
10
44800
20
37150
10
44900
20
37150
10
44900
20
37750
0
LWPOLYLINE
5
28E
330
10E
100
AcDbEntity
8
ST-RB-UBAR
100
AcDbPolyline
90
4
70
0
43
0
10
44200
20
37750
10
44200
20
37150
10
44300
20
37150
10
44300
20
37750
0
LWPOLYLINE
5
28F
330
10E
100
AcDbEntity
8
ST-RB-UBAR
100
AcDbPolyline
90
4
70
0
43
0
10
43600
20
37750
10
43600
20
37150
10
43700
20
37150
10
43700
20
37750
0
LWPOLYLINE
5
290
330
10E
100
AcDbEntity
8
ST-RB-UBAR
100
AcDbPolyline
90
4
70
0
43
0
10
43000
20
37750
10
43000
20
37150
10
43100
20
37150
10
43100
20
37750
0
LWPOLYLINE
5
291
330
10E
100
AcDbEntity
8
ST-RB-UBAR
100
AcDbPolyline
90
4
70
0
43
0
10
41950
20
36900
10
42550
20
36900
10
42550
20
37000
10
41950
20
37000
0
LWPOLYLINE
5
292
330
10E
100
AcDbEntity
8
ST-RB-UBAR
100
AcDbPolyline
90
4
70
0
43
0
10
41950
20
36300
10
42550
20
36300
10
42550
20
36400
10
41950
20
36400
0
LWPOLYLINE
5
293
330
10E
100
AcDbEntity
8
ST-RB-UBAR
100
AcDbPolyline
90
4
70
0
43
0
10
41950
20
35700
10
42550
20
35700
10
42550
20
35800
10
41950
20
35800
0
LWPOLYLINE
5
294
330
10E
100
AcDbEntity
8
ST-RB-UBAR
100
AcDbPolyline
90
4
70
0
43
0
10
41950
20
35100
10
42550
20
35100
10
42550
20
35200
10
41950
20
35200
0
CIRCLE
5
295
330
10E
100
AcDbEntity
8
ST-CALLOUT
100
AcDbCircle
10
46050
20
37950
30
0
40
300
0
TEXT
5
296
330
10E
100
AcDbEntity
8
ST-CALLOUT
100
AcDbText
10
46050
20
37950
30
0
40
160
1
O2
7
STANDARD
72
1
11
46050
21
37950
31
0
100
AcDbText
73
2
0
LINE
5
297
330
10E
100
AcDbEntity
8
ST-CALLOUT
100
AcDbLine
10
45815.739357
20
37762.591486
30
0
11
45050
21
37150
31
0
0
TEXT
5
298
330
10E
100
AcDbEntity
8
ST-RB-TEXT
100
AcDbText
10
46350
20
37800
30
0
40
170
1
O2 OPENING 2,500 x 2,500
7
STANDARD
72
0
100
AcDbText
73
0
0
TEXT
5
299
330
10E
100
AcDbEntity
8
ST-RB-TEXT
100
AcDbText
10
46350
20
37560
30
0
40
170
1
49T12@200-O02-(L=1370) U-BARS AT FREE EDGES
7
STANDARD
72
0
100
AcDbText
73
0
0
LWPOLYLINE
5
29A
330
10E
100
AcDbEntity
8
ST-SHEET-FRAME
100
AcDbPolyline
90
4
70
1
43
0
10
2000
20
1000
10
22866.666667
20
1000
10
22866.666667
20
13500
10
2000
20
13500
0
LINE
5
29B
330
10E
100
AcDbEntity
8
ST-SHEET-FRAME
100
AcDbLine
10
2000
20
12700
30
0
11
22866.666667
21
12700
31
0
0
CIRCLE
5
29C
330
10E
100
AcDbEntity
8
ST-CALLOUT
100
AcDbCircle
10
2700
20
13100
30
0
40
300
0
TEXT
5
29D
330
10E
100
AcDbEntity
8
ST-CALLOUT
100
AcDbText
10
2700
20
13100
30
0
40
220
1
1
7
STANDARD
72
1
11
2700
21
13100
31
0
100
AcDbText
73
2
0
TEXT
5
29E
330
10E
100
AcDbEntity
8
ST-SHEET-TEXT
100
AcDbText
10
3200
20
13100
30
0
40
240
1
TRIMMERS AND DIAGONALS AT OPENING - PLAN
7
STANDARD
72
0
11
3200
21
13100
31
0
100
AcDbText
73
2
0
TEXT
5
29F
330
10E
100
AcDbEntity
8
ST-SHEET-TITLE
100
AcDbText
10
22666.666667
20
13100
30
0
40
180
1
1:40
7
STANDARD
72
2
11
22666.666667
21
13100
31
0
100
AcDbText
73
2
0
LWPOLYLINE
5
2A0
330
10E
100
AcDbEntity
8
ST-OPENING
370
35
100
AcDbPolyline
90
4
70
1
43
0
10
10558.333333
20
5675
10
14308.333333
20
5675
10
14308.333333
20
8175
10
10558.333333
20
8175
0
LINE
5
2A1
330
10E
100
AcDbEntity
8
ST-OPENING
100
AcDbLine
10
10558.333333
20
5675
30
0
11
14308.333333
21
8175
31
0
0
LINE
5
2A2
330
10E
100
AcDbEntity
8
ST-OPENING
100
AcDbLine
10
14308.333333
20
5675
30
0
11
10558.333333
21
8175
31
0
0
TEXT
5
2A3
330
10E
100
AcDbEntity
8
ST-OPENING
100
AcDbText
10
12433.333333
20
7075
30
0
40
180
1
OPENING
7
STANDARD
72
1
11
12433.333333
21
7075
31
0
100
AcDbText
73
0
0
LINE
5
2A4
330
10E
100
AcDbEntity
8
ST-RB-TRIM
370
60
100
AcDbLine
10
8783.333333
20
5525
30
0
11
16083.333333
21
5525
31
0
0
LINE
5
2A5
330
10E
100
AcDbEntity
8
ST-RB-TRIM
370
60
100
AcDbLine
10
8783.333333
20
8325
30
0
11
16083.333333
21
8325
31
0
0
LINE
5
2A6
330
10E
100
AcDbEntity
8
ST-RB-TRIM
370
60
100
AcDbLine
10
10408.333333
20
3900
30
0
11
10408.333333
21
9950
31
0
0
LINE
5
2A7
330
10E
100
AcDbEntity
8
ST-RB-TRIM
370
60
100
AcDbLine
10
14458.333333
20
3900
30
0
11
14458.333333
21
9950
31
0
0
LINE
5
2A8
330
10E
100
AcDbEntity
8
ST-RB-TRIM
100
AcDbLine
10
8783.333333
20
5425
30
0
11
8783.333333
21
5625
31
0
0
LINE
5
2A9
330
10E
100
AcDbEntity
8
ST-RB-TRIM
100
AcDbLine
10
16083.333333
20
5425
30
0
11
16083.333333
21
5625
31
0
0
LINE
5
2AA
330
10E
100
AcDbEntity
8
ST-RB-TRIM
100
AcDbLine
10
10508.333333
20
3900
30
0
11
10308.333333
21
3900
31
0
0
LINE
5
2AB
330
10E
100
AcDbEntity
8
ST-RB-TRIM
100
AcDbLine
10
10508.333333
20
9950
30
0
11
10308.333333
21
9950
31
0
0
LINE
5
2AC
330
10E
100
AcDbEntity
8
ST-RB-TRIM
370
60
100
AcDbLine
10
8783.333333
20
5337.5
30
0
11
16083.333333
21
5337.5
31
0
0
LINE
5
2AD
330
10E
100
AcDbEntity
8
ST-RB-TRIM
370
60
100
AcDbLine
10
8783.333333
20
8512.5
30
0
11
16083.333333
21
8512.5
31
0
0
LINE
5
2AE
330
10E
100
AcDbEntity
8
ST-RB-TRIM
370
60
100
AcDbLine
10
10220.833333
20
3900
30
0
11
10220.833333
21
9950
31
0
0
LINE
5
2AF
330
10E
100
AcDbEntity
8
ST-RB-TRIM
370
60
100
AcDbLine
10
14645.833333
20
3900
30
0
11
14645.833333
21
9950
31
0
0
LINE
5
2B0
330
10E
100
AcDbEntity
8
ST-RB-TRIM
100
AcDbLine
10
8783.333333
20
5237.5
30
0
11
8783.333333
21
5437.5
31
0
0
LINE
5
2B1
330
10E
100
AcDbEntity
8
ST-RB-TRIM
100
AcDbLine
10
16083.333333
20
5237.5
30
0
11
16083.333333
21
5437.5
31
0
0
LINE
5
2B2
330
10E
100
AcDbEntity
8
ST-RB-TRIM
100
AcDbLine
10
10320.833333
20
3900
30
0
11
10120.833333
21
3900
31
0
0
LINE
5
2B3
330
10E
100
AcDbEntity
8
ST-RB-TRIM
100
AcDbLine
10
10320.833333
20
9950
30
0
11
10120.833333
21
9950
31
0
0
LINE
5
2B4
330
10E
100
AcDbEntity
8
ST-RB-TRIM
370
60
100
AcDbLine
10
11198.282827
20
4335.050506
30
0
11
9076.962483
21
6456.37085
31
0
0
LINE
5
2B5
330
10E
100
AcDbEntity
8
ST-RB-TRIM
370
60
100
AcDbLine
10
11339.704183
20
4193.62915
30
0
11
9218.38384
21
6314.949494
31
0
0
LINE
5
2B6
330
10E
100
AcDbEntity
8
ST-RB-TRIM
370
60
100
AcDbLine
10
15648.282827
20
6314.949494
30
0
11
13526.962483
21
4193.62915
31
0
0
LINE
5
2B7
330
10E
100
AcDbEntity
8
ST-RB-TRIM
370
60
100
AcDbLine
10
15789.704183
20
6456.37085
30
0
11
13668.38384
21
4335.050506
31
0
0
LINE
5
2B8
330
10E
100
AcDbEntity
8
ST-RB-TRIM
370
60
100
AcDbLine
10
13668.38384
20
9514.949494
30
0
11
15789.704183
21
7393.62915
31
0
0
LINE
5
2B9
330
10E
100
AcDbEntity
8
ST-RB-TRIM
370
60
100
AcDbLine
10
13526.962483
20
9656.37085
30
0
11
15648.282827
21
7535.050506
31
0
0
LINE
5
2BA
330
10E
100
AcDbEntity
8
ST-RB-TRIM
370
60
100
AcDbLine
10
9218.38384
20
7535.050506
30
0
11
11339.704183
21
9656.37085
31
0
0
LINE
5
2BB
330
10E
100
AcDbEntity
8
ST-RB-TRIM
370
60
100
AcDbLine
10
9076.962483
20
7393.62915
30
0
11
11198.282827
21
9514.949494
31
0
0
LINE
5
2BC
330
10E
100
AcDbEntity
8
ST-RB-UBAR
100
AcDbLine
10
10808.333333
20
5675
30
0
11
10808.333333
21
4925
31
0
0
LINE
5
2BD
330
10E
100
AcDbEntity
8
ST-RB-UBAR
100
AcDbLine
10
10808.333333
20
8175
30
0
11
10808.333333
21
8925
31
0
0
LINE
5
2BE
330
10E
100
AcDbEntity
8
ST-RB-UBAR
100
AcDbLine
10
11308.333333
20
5675
30
0
11
11308.333333
21
4925
31
0
0
LINE
5
2BF
330
10E
100
AcDbEntity
8
ST-RB-UBAR
100
AcDbLine
10
11308.333333
20
8175
30
0
11
11308.333333
21
8925
31
0
0
LINE
5
2C0
330
10E
100
AcDbEntity
8
ST-RB-UBAR
100
AcDbLine
10
11808.333333
20
5675
30
0
11
11808.333333
21
4925
31
0
0
LINE
5
2C1
330
10E
100
AcDbEntity
8
ST-RB-UBAR
100
AcDbLine
10
11808.333333
20
8175
30
0
11
11808.333333
21
8925
31
0
0
LINE
5
2C2
330
10E
100
AcDbEntity
8
ST-RB-UBAR
100
AcDbLine
10
12308.333333
20
5675
30
0
11
12308.333333
21
4925
31
0
0
LINE
5
2C3
330
10E
100
AcDbEntity
8
ST-RB-UBAR
100
AcDbLine
10
12308.333333
20
8175
30
0
11
12308.333333
21
8925
31
0
0
LINE
5
2C4
330
10E
100
AcDbEntity
8
ST-RB-UBAR
100
AcDbLine
10
12808.333333
20
5675
30
0
11
12808.333333
21
4925
31
0
0
LINE
5
2C5
330
10E
100
AcDbEntity
8
ST-RB-UBAR
100
AcDbLine
10
12808.333333
20
8175
30
0
11
12808.333333
21
8925
31
0
0
LINE
5
2C6
330
10E
100
AcDbEntity
8
ST-RB-UBAR
100
AcDbLine
10
13308.333333
20
5675
30
0
11
13308.333333
21
4925
31
0
0
LINE
5
2C7
330
10E
100
AcDbEntity
8
ST-RB-UBAR
100
AcDbLine
10
13308.333333
20
8175
30
0
11
13308.333333
21
8925
31
0
0
LINE
5
2C8
330
10E
100
AcDbEntity
8
ST-RB-UBAR
100
AcDbLine
10
13808.333333
20
5675
30
0
11
13808.333333
21
4925
31
0
0
LINE
5
2C9
330
10E
100
AcDbEntity
8
ST-RB-UBAR
100
AcDbLine
10
13808.333333
20
8175
30
0
11
13808.333333
21
8925
31
0
0
LINE
5
2CA
330
10E
100
AcDbEntity
8
ST-RB-UBAR
100
AcDbLine
10
10558.333333
20
5925
30
0
11
9808.333333
21
5925
31
0
0
LINE
5
2CB
330
10E
100
AcDbEntity
8
ST-RB-UBAR
100
AcDbLine
10
14308.333333
20
5925
30
0
11
15058.333333
21
5925
31
0
0
LINE
5
2CC
330
10E
100
AcDbEntity
8
ST-RB-UBAR
100
AcDbLine
10
10558.333333
20
6425
30
0
11
9808.333333
21
6425
31
0
0
LINE
5
2CD
330
10E
100
AcDbEntity
8
ST-RB-UBAR
100
AcDbLine
10
14308.333333
20
6425
30
0
11
15058.333333
21
6425
31
0
0
LINE
5
2CE
330
10E
100
AcDbEntity
8
ST-RB-UBAR
100
AcDbLine
10
10558.333333
20
6925
30
0
11
9808.333333
21
6925
31
0
0
LINE
5
2CF
330
10E
100
AcDbEntity
8
ST-RB-UBAR
100
AcDbLine
10
14308.333333
20
6925
30
0
11
15058.333333
21
6925
31
0
0
LINE
5
2D0
330
10E
100
AcDbEntity
8
ST-RB-UBAR
100
AcDbLine
10
10558.333333
20
7425
30
0
11
9808.333333
21
7425
31
0
0
LINE
5
2D1
330
10E
100
AcDbEntity
8
ST-RB-UBAR
100
AcDbLine
10
14308.333333
20
7425
30
0
11
15058.333333
21
7425
31
0
0
LINE
5
2D2
330
10E
100
AcDbEntity
8
ST-RB-UBAR
100
AcDbLine
10
10558.333333
20
7925
30
0
11
9808.333333
21
7925
31
0
0
LINE
5
2D3
330
10E
100
AcDbEntity
8
ST-RB-UBAR
100
AcDbLine
10
14308.333333
20
7925
30
0
11
15058.333333
21
7925
31
0
0
LINE
5
2D4
330
10E
100
AcDbEntity
8
ST-DIM
100
AcDbLine
10
8783.333333
20
3475
30
0
11
8783.333333
21
3625
31
0
0
LINE
5
2D5
330
10E
100
AcDbEntity
8
ST-DIM
100
AcDbLine
10
10558.333333
20
3475
30
0
11
10558.333333
21
3625
31
0
0
LINE
5
2D6
330
10E
100
AcDbEntity
8
ST-DIM
100
AcDbLine
10
8783.333333
20
3475
30
0
11
10558.333333
21
3475
31
0
0
LINE
5
2D7
330
10E
100
AcDbEntity
8
ST-DIM
100
AcDbLine
10
8713.333333
20
3405
30
0
11
8853.333333
21
3545
31
0
0
LINE
5
2D8
330
10E
100
AcDbEntity
8
ST-DIM
100
AcDbLine
10
10488.333333
20
3405
30
0
11
10628.333333
21
3545
31
0
0
TEXT
5
2D9
330
10E
100
AcDbEntity
8
ST-DIM
100
AcDbText
10
9670.833333
20
3547
30
0
40
180
1
ld 710
7
STANDARD
72
1
11
9670.833333
21
3547
31
0
100
AcDbText
73
0
0
LINE
5
2DA
330
10E
100
AcDbEntity
8
ST-DIM
100
AcDbLine
10
14308.333333
20
3475
30
0
11
14308.333333
21
3625
31
0
0
LINE
5
2DB
330
10E
100
AcDbEntity
8
ST-DIM
100
AcDbLine
10
16083.333333
20
3475
30
0
11
16083.333333
21
3625
31
0
0
LINE
5
2DC
330
10E
100
AcDbEntity
8
ST-DIM
100
AcDbLine
10
14308.333333
20
3475
30
0
11
16083.333333
21
3475
31
0
0
LINE
5
2DD
330
10E
100
AcDbEntity
8
ST-DIM
100
AcDbLine
10
14238.333333
20
3405
30
0
11
14378.333333
21
3545
31
0
0
LINE
5
2DE
330
10E
100
AcDbEntity
8
ST-DIM
100
AcDbLine
10
16013.333333
20
3405
30
0
11
16153.333333
21
3545
31
0
0
TEXT
5
2DF
330
10E
100
AcDbEntity
8
ST-DIM
100
AcDbText
10
15195.833333
20
3547
30
0
40
180
1
ld 710
7
STANDARD
72
1
11
15195.833333
21
3547
31
0
100
AcDbText
73
0
0
LINE
5
2E0
330
10E
100
AcDbEntity
8
ST-DIM
100
AcDbLine
10
10558.333333
20
3475
30
0
11
10558.333333
21
3625
31
0
0
LINE
5
2E1
330
10E
100
AcDbEntity
8
ST-DIM
100
AcDbLine
10
14308.333333
20
3475
30
0
11
14308.333333
21
3625
31
0
0
LINE
5
2E2
330
10E
100
AcDbEntity
8
ST-DIM
100
AcDbLine
10
10558.333333
20
3475
30
0
11
14308.333333
21
3475
31
0
0
LINE
5
2E3
330
10E
100
AcDbEntity
8
ST-DIM
100
AcDbLine
10
10488.333333
20
3405
30
0
11
10628.333333
21
3545
31
0
0
LINE
5
2E4
330
10E
100
AcDbEntity
8
ST-DIM
100
AcDbLine
10
14238.333333
20
3405
30
0
11
14378.333333
21
3545
31
0
0
TEXT
5
2E5
330
10E
100
AcDbEntity
8
ST-DIM
100
AcDbText
10
12433.333333
20
3547
30
0
40
180
1
W
7
STANDARD
72
1
11
12433.333333
21
3547
31
0
100
AcDbText
73
0
0
TEXT
5
2E6
330
10E
100
AcDbEntity
8
ST-RB-TEXT
100
AcDbText
10
12433.333333
20
10850
30
0
40
180
1
2T16 T&B EACH SIDE, ANCHORED ld BEYOND CORNERS  +  2T12 DIAG. T&B L=1200  +  T12@200 U-BARS AT FREE EDGES
7
STANDARD
72
1
11
12433.333333
21
10850
31
0
100
AcDbText
73
0
0
LWPOLYLINE
5
2E7
330
10E
100
AcDbEntity
8
ST-SHEET-FRAME
100
AcDbPolyline
90
4
70
1
43
0
10
22866.666667
20
1000
10
43733.333333
20
1000
10
43733.333333
20
13500
10
22866.666667
20
13500
0
LINE
5
2E8
330
10E
100
AcDbEntity
8
ST-SHEET-FRAME
100
AcDbLine
10
22866.666667
20
12700
30
0
11
43733.333333
21
12700
31
0
0
CIRCLE
5
2E9
330
10E
100
AcDbEntity
8
ST-CALLOUT
100
AcDbCircle
10
23566.666667
20
13100
30
0
40
300
0
TEXT
5
2EA
330
10E
100
AcDbEntity
8
ST-CALLOUT
100
AcDbText
10
23566.666667
20
13100
30
0
40
220
1
2
7
STANDARD
72
1
11
23566.666667
21
13100
31
0
100
AcDbText
73
2
0
TEXT
5
2EB
330
10E
100
AcDbEntity
8
ST-SHEET-TEXT
100
AcDbText
10
24066.666667
20
13100
30
0
40
240
1
SECTION AT OPENING EDGE
7
STANDARD
72
0
11
24066.666667
21
13100
31
0
100
AcDbText
73
2
0
TEXT
5
2EC
330
10E
100
AcDbEntity
8
ST-SHEET-TITLE
100
AcDbText
10
43533.333333
20
13100
30
0
40
180
1
1:12.5
7
STANDARD
72
2
11
43533.333333
21
13100
31
0
100
AcDbText
73
2
0
LWPOLYLINE
5
2ED
330
10E
100
AcDbEntity
8
ST-DETAIL
370
35
100
AcDbPolyline
90
4
70
1
43
0
10
28900
20
5920
10
40100
20
5920
10
40100
20
7680
10
28900
20
7680
0
HATCH
5
2EE
330
10E
100
AcDbEntity
8
ST-DETAIL-HATCH
100
AcDbHatch
10
0
20
0
30
0
210
0
220
0
230
1
2
ANSI31
70
0
71
0
91
1
92
3
72
0
73
1
93
4
10
28900
20
5920
10
40100
20
5920
10
40100
20
7680
10
28900
20
7680
97
0
75
1
76
1
52
0
41
50.393701
77
0
78
1
53
45
43
0
44
0
45
-113.137085
46
113.137085
79
0
47
1
98
0
0
TEXT
5
2EF
330
10E
100
AcDbEntity
8
ST-OPENING
100
AcDbText
10
28420
20
6800
30
0
40
180
1
OPENING
7
STANDARD
72
2
11
28420
21
6800
31
0
100
AcDbText
73
2
0
CIRCLE
5
2F0
330
10E
100
AcDbEntity
8
ST-RB-TRIM
100
AcDbCircle
10
29484
20
6264
30
0
40
64
0
CIRCLE
5
2F1
330
10E
100
AcDbEntity
8
ST-RB-TRIM
100
AcDbCircle
10
29484
20
7336
30
0
40
64
0
CIRCLE
5
2F2
330
10E
100
AcDbEntity
8
ST-RB-TRIM
100
AcDbCircle
10
30084
20
6264
30
0
40
64
0
CIRCLE
5
2F3
330
10E
100
AcDbEntity
8
ST-RB-TRIM
100
AcDbCircle
10
30084
20
7336
30
0
40
64
0
LWPOLYLINE
5
2F4
330
10E
100
AcDbEntity
8
ST-RB-UBAR
370
60
100
AcDbPolyline
90
4
70
0
43
0
10
33700
20
6184
10
29164
20
6184
10
29164
20
7416
10
33700
20
7416
0
LINE
5
2F5
330
10E
100
AcDbEntity
8
ST-RB-BOT
370
35
100
AcDbLine
10
31300
20
6424
30
0
11
39620
21
6424
31
0
0
LINE
5
2F6
330
10E
100
AcDbEntity
8
ST-DIM
100
AcDbLine
10
40100
20
5920
30
0
11
40550
21
5920
31
0
0
LINE
5
2F7
330
10E
100
AcDbEntity
8
ST-DIM
100
AcDbLine
10
40100
20
7680
30
0
11
40550
21
7680
31
0
0
LINE
5
2F8
330
10E
100
AcDbEntity
8
ST-DIM
100
AcDbLine
10
40700
20
5920
30
0
11
40700
21
7680
31
0
0
LINE
5
2F9
330
10E
100
AcDbEntity
8
ST-DIM
100
AcDbLine
10
40770
20
5850
30
0
11
40630
21
5990
31
0
0
LINE
5
2FA
330
10E
100
AcDbEntity
8
ST-DIM
100
AcDbLine
10
40770
20
7610
30
0
11
40630
21
7750
31
0
0
TEXT
5
2FB
330
10E
100
AcDbEntity
8
ST-DIM
100
AcDbText
10
40628
20
6800
30
0
40
180
1
220
50
90
7
STANDARD
72
1
11
40628
21
6800
31
0
100
AcDbText
73
0
0
LINE
5
2FC
330
10E
100
AcDbEntity
8
ST-DIM
100
AcDbLine
10
28900
20
5920
30
0
11
28900
21
5370
31
0
0
LINE
5
2FD
330
10E
100
AcDbEntity
8
ST-DIM
100
AcDbLine
10
33700
20
5920
30
0
11
33700
21
5370
31
0
0
LINE
5
2FE
330
10E
100
AcDbEntity
8
ST-DIM
100
AcDbLine
10
28900
20
5220
30
0
11
33700
21
5220
31
0
0
LINE
5
2FF
330
10E
100
AcDbEntity
8
ST-DIM
100
AcDbLine
10
28830
20
5150
30
0
11
28970
21
5290
31
0
0
LINE
5
300
330
10E
100
AcDbEntity
8
ST-DIM
100
AcDbLine
10
33630
20
5150
30
0
11
33770
21
5290
31
0
0
TEXT
5
301
330
10E
100
AcDbEntity
8
ST-DIM
100
AcDbText
10
31300
20
5292
30
0
40
180
1
LEG 600
7
STANDARD
72
1
11
31300
21
5292
31
0
100
AcDbText
73
0
0
TEXT
5
302
330
10E
100
AcDbEntity
8
ST-RB-TEXT
100
AcDbText
10
34500
20
9280
30
0
40
190
1
2T16 TRIMMERS T&B + T12 U-BAR - SECTION AT EDGE
7
STANDARD
72
1
11
34500
21
9280
31
0
100
AcDbText
73
0
0
TEXT
5
303
330
10E
100
AcDbEntity
8
ST-SHEET-NOTES
100
AcDbText
10
34500
20
2880
30
0
40
160
1
TRIMMERS PLACED IN THE SAME LAYER AS THE MAIN MESH
7
STANDARD
72
1
11
34500
21
2880
31
0
100
AcDbText
73
0
0
LWPOLYLINE
5
304
330
10E
100
AcDbEntity
8
ST-SHEET-SCHEDULE
100
AcDbPolyline
90
4
70
1
43
0
10
64600
20
52900
10
83100
20
52900
10
83100
20
53500
10
64600
20
53500
0
TEXT
5
305
330
10E
100
AcDbEntity
8
ST-SHEET-TEXT
100
AcDbText
10
73850
20
53200
30
0
40
260
1
BAR BENDING SCHEDULE
7
STANDARD
72
1
11
73850
21
53200
31
0
100
AcDbText
73
2
0
LWPOLYLINE
5
306
330
10E
100
AcDbEntity
8
ST-SHEET-SCHEDULE
100
AcDbPolyline
90
4
70
1
43
0
10
64600
20
52400
10
83100
20
52400
10
83100
20
52900
10
64600
20
52900
0
TEXT
5
307
330
10E
100
AcDbEntity
8
ST-SHEET-SCHEDULE-TEXT
100
AcDbText
10
65450
20
52650
30
0
40
160
1
MARK
7
STANDARD
72
1
11
65450
21
52650
31
0
100
AcDbText
73
2
0
TEXT
5
308
330
10E
100
AcDbEntity
8
ST-SHEET-SCHEDULE-TEXT
100
AcDbText
10
66700
20
52650
30
0
40
160
1
\U+00D8
7
STANDARD
72
1
11
66700
21
52650
31
0
100
AcDbText
73
2
0
TEXT
5
309
330
10E
100
AcDbEntity
8
ST-SHEET-SCHEDULE-TEXT
100
AcDbText
10
67750
20
52650
30
0
40
160
1
SHAPE
7
STANDARD
72
1
11
67750
21
52650
31
0
100
AcDbText
73
2
0
TEXT
5
30A
330
10E
100
AcDbEntity
8
ST-SHEET-SCHEDULE-TEXT
100
AcDbText
10
69000
20
52650
30
0
40
160
1
SPAC.
7
STANDARD
72
1
11
69000
21
52650
31
0
100
AcDbText
73
2
0
TEXT
5
30B
330
10E
100
AcDbEntity
8
ST-SHEET-SCHEDULE-TEXT
100
AcDbText
10
70450
20
52755
30
0
40
160
1
LENGTH
7
STANDARD
72
1
11
70450
21
52755
31
0
100
AcDbText
73
2
0
TEXT
5
30C
330
10E
100
AcDbEntity
8
ST-SHEET-SCHEDULE-TEXT
100
AcDbText
10
70450
20
52545
30
0
40
160
1
(mm)
7
STANDARD
72
1
11
70450
21
52545
31
0
100
AcDbText
73
2
0
TEXT
5
30D
330
10E
100
AcDbEntity
8
ST-SHEET-SCHEDULE-TEXT
100
AcDbText
10
71950
20
52650
30
0
40
160
1
QTY
7
STANDARD
72
1
11
71950
21
52650
31
0
100
AcDbText
73
2
0
TEXT
5
30E
330
10E
100
AcDbEntity
8
ST-SHEET-SCHEDULE-TEXT
100
AcDbText
10
73400
20
52755
30
0
40
160
1
TOTAL
7
STANDARD
72
1
11
73400
21
52755
31
0
100
AcDbText
73
2
0
TEXT
5
30F
330
10E
100
AcDbEntity
8
ST-SHEET-SCHEDULE-TEXT
100
AcDbText
10
73400
20
52545
30
0
40
160
1
(m)
7
STANDARD
72
1
11
73400
21
52545
31
0
100
AcDbText
73
2
0
TEXT
5
310
330
10E
100
AcDbEntity
8
ST-SHEET-SCHEDULE-TEXT
100
AcDbText
10
75050
20
52755
30
0
40
160
1
WT.
7
STANDARD
72
1
11
75050
21
52755
31
0
100
AcDbText
73
2
0
TEXT
5
311
330
10E
100
AcDbEntity
8
ST-SHEET-SCHEDULE-TEXT
100
AcDbText
10
75050
20
52545
30
0
40
160
1
(kg)
7
STANDARD
72
1
11
75050
21
52545
31
0
100
AcDbText
73
2
0
TEXT
5
312
330
10E
100
AcDbEntity
8
ST-SHEET-SCHEDULE-TEXT
100
AcDbText
10
79500
20
52650
30
0
40
160
1
ZONES / REMARKS
7
STANDARD
72
1
11
79500
21
52650
31
0
100
AcDbText
73
2
0
TEXT
5
313
330
10E
100
AcDbEntity
8
ST-SHEET-SCHEDULE-TEXT
100
AcDbText
10
65450
20
52200
30
0
40
170
1
O01
7
STANDARD
72
1
11
65450
21
52200
31
0
100
AcDbText
73
2
0
TEXT
5
314
330
10E
100
AcDbEntity
8
ST-SHEET-SCHEDULE-TEXT
100
AcDbText
10
66700
20
52200
30
0
40
170
1
12
7
STANDARD
72
1
11
66700
21
52200
31
0
100
AcDbText
73
2
0
TEXT
5
315
330
10E
100
AcDbEntity
8
ST-SHEET-SCHEDULE-TEXT
100
AcDbText
10
67750
20
52200
30
0
40
170
1
DIAG
7
STANDARD
72
1
11
67750
21
52200
31
0
100
AcDbText
73
2
0
TEXT
5
316
330
10E
100
AcDbEntity
8
ST-SHEET-SCHEDULE-TEXT
100
AcDbText
10
69000
20
52200
30
0
40
170
1
-
7
STANDARD
72
1
11
69000
21
52200
31
0
100
AcDbText
73
2
0
TEXT
5
317
330
10E
100
AcDbEntity
8
ST-SHEET-SCHEDULE-TEXT
100
AcDbText
10
70450
20
52200
30
0
40
170
1
1200
7
STANDARD
72
1
11
70450
21
52200
31
0
100
AcDbText
73
2
0
TEXT
5
318
330
10E
100
AcDbEntity
8
ST-SHEET-SCHEDULE-TEXT
100
AcDbText
10
71950
20
52200
30
0
40
170
1
32
7
STANDARD
72
1
11
71950
21
52200
31
0
100
AcDbText
73
2
0
TEXT
5
319
330
10E
100
AcDbEntity
8
ST-SHEET-SCHEDULE-TEXT
100
AcDbText
10
73400
20
52200
30
0
40
170
1
38.4
7
STANDARD
72
1
11
73400
21
52200
31
0
100
AcDbText
73
2
0
TEXT
5
31A
330
10E
100
AcDbEntity
8
ST-SHEET-SCHEDULE-TEXT
100
AcDbText
10
75050
20
52200
30
0
40
170
1
34.1
7
STANDARD
72
1
11
75050
21
52200
31
0
100
AcDbText
73
2
0
TEXT
5
31B
330
10E
100
AcDbEntity
8
ST-SHEET-SCHEDULE-TEXT
100
AcDbText
10
76000
20
52200
30
0
40
170
1
O1, O2
7
STANDARD
72
0
11
76000
21
52200
31
0
100
AcDbText
73
2
0
LINE
5
31C
330
10E
100
AcDbEntity
8
ST-SHEET-SCHEDULE
370
5
100
AcDbLine
10
64600
20
52000
30
0
11
83100
21
52000
31
0
0
TEXT
5
31D
330
10E
100
AcDbEntity
8
ST-SHEET-SCHEDULE-TEXT
100
AcDbText
10
65450
20
51800
30
0
40
170
1
O02
7
STANDARD
72
1
11
65450
21
51800
31
0
100
AcDbText
73
2
0
TEXT
5
31E
330
10E
100
AcDbEntity
8
ST-SHEET-SCHEDULE-TEXT
100
AcDbText
10
66700
20
51800
30
0
40
170
1
12
7
STANDARD
72
1
11
66700
21
51800
31
0
100
AcDbText
73
2
0
TEXT
5
31F
330
10E
100
AcDbEntity
8
ST-SHEET-SCHEDULE-TEXT
100
AcDbText
10
67750
20
51800
30
0
40
170
1
U
7
STANDARD
72
1
11
67750
21
51800
31
0
100
AcDbText
73
2
0
TEXT
5
320
330
10E
100
AcDbEntity
8
ST-SHEET-SCHEDULE-TEXT
100
AcDbText
10
69000
20
51800
30
0
40
170
1
200
7
STANDARD
72
1
11
69000
21
51800
31
0
100
AcDbText
73
2
0
TEXT
5
321
330
10E
100
AcDbEntity
8
ST-SHEET-SCHEDULE-TEXT
100
AcDbText
10
70450
20
51800
30
0
40
170
1
1370
7
STANDARD
72
1
11
70450
21
51800
31
0
100
AcDbText
73
2
0
TEXT
5
322
330
10E
100
AcDbEntity
8
ST-SHEET-SCHEDULE-TEXT
100
AcDbText
10
71950
20
51800
30
0
40
170
1
128
7
STANDARD
72
1
11
71950
21
51800
31
0
100
AcDbText
73
2
0
TEXT
5
323
330
10E
100
AcDbEntity
8
ST-SHEET-SCHEDULE-TEXT
100
AcDbText
10
73400
20
51800
30
0
40
170
1
175.4
7
STANDARD
72
1
11
73400
21
51800
31
0
100
AcDbText
73
2
0
TEXT
5
324
330
10E
100
AcDbEntity
8
ST-SHEET-SCHEDULE-TEXT
100
AcDbText
10
75050
20
51800
30
0
40
170
1
155.7
7
STANDARD
72
1
11
75050
21
51800
31
0
100
AcDbText
73
2
0
TEXT
5
325
330
10E
100
AcDbEntity
8
ST-SHEET-SCHEDULE-TEXT
100
AcDbText
10
76000
20
51800
30
0
40
170
1
O1, O2
7
STANDARD
72
0
11
76000
21
51800
31
0
100
AcDbText
73
2
0
LINE
5
326
330
10E
100
AcDbEntity
8
ST-SHEET-SCHEDULE
370
5
100
AcDbLine
10
64600
20
51600
30
0
11
83100
21
51600
31
0
0
TEXT
5
327
330
10E
100
AcDbEntity
8
ST-SHEET-SCHEDULE-TEXT
100
AcDbText
10
65450
20
51400
30
0
40
170
1
O03
7
STANDARD
72
1
11
65450
21
51400
31
0
100
AcDbText
73
2
0
TEXT
5
328
330
10E
100
AcDbEntity
8
ST-SHEET-SCHEDULE-TEXT
100
AcDbText
10
66700
20
51400
30
0
40
170
1
16
7
STANDARD
72
1
11
66700
21
51400
31
0
100
AcDbText
73
2
0
TEXT
5
329
330
10E
100
AcDbEntity
8
ST-SHEET-SCHEDULE-TEXT
100
AcDbText
10
67750
20
51400
30
0
40
170
1
STR
7
STANDARD
72
1
11
67750
21
51400
31
0
100
AcDbText
73
2
0
TEXT
5
32A
330
10E
100
AcDbEntity
8
ST-SHEET-SCHEDULE-TEXT
100
AcDbText
10
69000
20
51400
30
0
40
170
1
-
7
STANDARD
72
1
11
69000
21
51400
31
0
100
AcDbText
73
2
0
TEXT
5
32B
330
10E
100
AcDbEntity
8
ST-SHEET-SCHEDULE-TEXT
100
AcDbText
10
70450
20
51400
30
0
40
170
1
6420
7
STANDARD
72
1
11
70450
21
51400
31
0
100
AcDbText
73
2
0
TEXT
5
32C
330
10E
100
AcDbEntity
8
ST-SHEET-SCHEDULE-TEXT
100
AcDbText
10
71950
20
51400
30
0
40
170
1
8
7
STANDARD
72
1
11
71950
21
51400
31
0
100
AcDbText
73
2
0
TEXT
5
32D
330
10E
100
AcDbEntity
8
ST-SHEET-SCHEDULE-TEXT
100
AcDbText
10
73400
20
51400
30
0
40
170
1
51.4
7
STANDARD
72
1
11
73400
21
51400
31
0
100
AcDbText
73
2
0
TEXT
5
32E
330
10E
100
AcDbEntity
8
ST-SHEET-SCHEDULE-TEXT
100
AcDbText
10
75050
20
51400
30
0
40
170
1
81.1
7
STANDARD
72
1
11
75050
21
51400
31
0
100
AcDbText
73
2
0
TEXT
5
32F
330
10E
100
AcDbEntity
8
ST-SHEET-SCHEDULE-TEXT
100
AcDbText
10
76000
20
51400
30
0
40
170
1
O1
7
STANDARD
72
0
11
76000
21
51400
31
0
100
AcDbText
73
2
0
LINE
5
330
330
10E
100
AcDbEntity
8
ST-SHEET-SCHEDULE
370
5
100
AcDbLine
10
64600
20
51200
30
0
11
83100
21
51200
31
0
0
TEXT
5
331
330
10E
100
AcDbEntity
8
ST-SHEET-SCHEDULE-TEXT
100
AcDbText
10
65450
20
51000
30
0
40
170
1
O04
7
STANDARD
72
1
11
65450
21
51000
31
0
100
AcDbText
73
2
0
TEXT
5
332
330
10E
100
AcDbEntity
8
ST-SHEET-SCHEDULE-TEXT
100
AcDbText
10
66700
20
51000
30
0
40
170
1
16
7
STANDARD
72
1
11
66700
21
51000
31
0
100
AcDbText
73
2
0
TEXT
5
333
330
10E
100
AcDbEntity
8
ST-SHEET-SCHEDULE-TEXT
100
AcDbText
10
67750
20
51000
30
0
40
170
1
STR
7
STANDARD
72
1
11
67750
21
51000
31
0
100
AcDbText
73
2
0
TEXT
5
334
330
10E
100
AcDbEntity
8
ST-SHEET-SCHEDULE-TEXT
100
AcDbText
10
69000
20
51000
30
0
40
170
1
-
7
STANDARD
72
1
11
69000
21
51000
31
0
100
AcDbText
73
2
0
TEXT
5
335
330
10E
100
AcDbEntity
8
ST-SHEET-SCHEDULE-TEXT
100
AcDbText
10
70450
20
51000
30
0
40
170
1
4420
7
STANDARD
72
1
11
70450
21
51000
31
0
100
AcDbText
73
2
0
TEXT
5
336
330
10E
100
AcDbEntity
8
ST-SHEET-SCHEDULE-TEXT
100
AcDbText
10
71950
20
51000
30
0
40
170
1
8
7
STANDARD
72
1
11
71950
21
51000
31
0
100
AcDbText
73
2
0
TEXT
5
337
330
10E
100
AcDbEntity
8
ST-SHEET-SCHEDULE-TEXT
100
AcDbText
10
73400
20
51000
30
0
40
170
1
35.4
7
STANDARD
72
1
11
73400
21
51000
31
0
100
AcDbText
73
2
0
TEXT
5
338
330
10E
100
AcDbEntity
8
ST-SHEET-SCHEDULE-TEXT
100
AcDbText
10
75050
20
51000
30
0
40
170
1
55.8
7
STANDARD
72
1
11
75050
21
51000
31
0
100
AcDbText
73
2
0
TEXT
5
339
330
10E
100
AcDbEntity
8
ST-SHEET-SCHEDULE-TEXT
100
AcDbText
10
76000
20
51000
30
0
40
170
1
O1
7
STANDARD
72
0
11
76000
21
51000
31
0
100
AcDbText
73
2
0
LINE
5
33A
330
10E
100
AcDbEntity
8
ST-SHEET-SCHEDULE
370
5
100
AcDbLine
10
64600
20
50800
30
0
11
83100
21
50800
31
0
0
TEXT
5
33B
330
10E
100
AcDbEntity
8
ST-SHEET-SCHEDULE-TEXT
100
AcDbText
10
65450
20
50600
30
0
40
170
1
O05
7
STANDARD
72
1
11
65450
21
50600
31
0
100
AcDbText
73
2
0
TEXT
5
33C
330
10E
100
AcDbEntity
8
ST-SHEET-SCHEDULE-TEXT
100
AcDbText
10
66700
20
50600
30
0
40
170
1
16
7
STANDARD
72
1
11
66700
21
50600
31
0
100
AcDbText
73
2
0
TEXT
5
33D
330
10E
100
AcDbEntity
8
ST-SHEET-SCHEDULE-TEXT
100
AcDbText
10
67750
20
50600
30
0
40
170
1
STR
7
STANDARD
72
1
11
67750
21
50600
31
0
100
AcDbText
73
2
0
TEXT
5
33E
330
10E
100
AcDbEntity
8
ST-SHEET-SCHEDULE-TEXT
100
AcDbText
10
69000
20
50600
30
0
40
170
1
-
7
STANDARD
72
1
11
69000
21
50600
31
0
100
AcDbText
73
2
0
TEXT
5
33F
330
10E
100
AcDbEntity
8
ST-SHEET-SCHEDULE-TEXT
100
AcDbText
10
70450
20
50600
30
0
40
170
1
3920
7
STANDARD
72
1
11
70450
21
50600
31
0
100
AcDbText
73
2
0
TEXT
5
340
330
10E
100
AcDbEntity
8
ST-SHEET-SCHEDULE-TEXT
100
AcDbText
10
71950
20
50600
30
0
40
170
1
16
7
STANDARD
72
1
11
71950
21
50600
31
0
100
AcDbText
73
2
0
TEXT
5
341
330
10E
100
AcDbEntity
8
ST-SHEET-SCHEDULE-TEXT
100
AcDbText
10
73400
20
50600
30
0
40
170
1
62.7
7
STANDARD
72
1
11
73400
21
50600
31
0
100
AcDbText
73
2
0
TEXT
5
342
330
10E
100
AcDbEntity
8
ST-SHEET-SCHEDULE-TEXT
100
AcDbText
10
75050
20
50600
30
0
40
170
1
99
7
STANDARD
72
1
11
75050
21
50600
31
0
100
AcDbText
73
2
0
TEXT
5
343
330
10E
100
AcDbEntity
8
ST-SHEET-SCHEDULE-TEXT
100
AcDbText
10
76000
20
50600
30
0
40
170
1
O2
7
STANDARD
72
0
11
76000
21
50600
31
0
100
AcDbText
73
2
0
LINE
5
344
330
10E
100
AcDbEntity
8
ST-SHEET-SCHEDULE
370
5
100
AcDbLine
10
64600
20
50400
30
0
11
83100
21
50400
31
0
0
LWPOLYLINE
5
345
330
10E
100
AcDbEntity
8
ST-SHEET-SCHEDULE
100
AcDbPolyline
90
4
70
1
43
0
10
64600
20
49950
10
83100
20
49950
10
83100
20
50400
10
64600
20
50400
0
TEXT
5
346
330
10E
100
AcDbEntity
8
ST-SHEET-SCHEDULE-TEXT
100
AcDbText
10
64800
20
50175
30
0
40
170
1
TOTAL 425.7 kg  \U+00B7  \U+00D812: 213.8 m  \U+00D816: 149.5 m
7
STANDARD
72
0
11
64800
21
50175
31
0
100
AcDbText
73
2
0
LINE
5
347
330
10E
100
AcDbEntity
8
ST-SHEET-SCHEDULE
100
AcDbLine
10
64600
20
52900
30
0
11
64600
21
49950
31
0
0
LINE
5
348
330
10E
100
AcDbEntity
8
ST-SHEET-SCHEDULE
100
AcDbLine
10
66300
20
52900
30
0
11
66300
21
49950
31
0
0
LINE
5
349
330
10E
100
AcDbEntity
8
ST-SHEET-SCHEDULE
100
AcDbLine
10
67100
20
52900
30
0
11
67100
21
49950
31
0
0
LINE
5
34A
330
10E
100
AcDbEntity
8
ST-SHEET-SCHEDULE
100
AcDbLine
10
68400
20
52900
30
0
11
68400
21
49950
31
0
0
LINE
5
34B
330
10E
100
AcDbEntity
8
ST-SHEET-SCHEDULE
100
AcDbLine
10
69600
20
52900
30
0
11
69600
21
49950
31
0
0
LINE
5
34C
330
10E
100
AcDbEntity
8
ST-SHEET-SCHEDULE
100
AcDbLine
10
71300
20
52900
30
0
11
71300
21
49950
31
0
0
LINE
5
34D
330
10E
100
AcDbEntity
8
ST-SHEET-SCHEDULE
100
AcDbLine
10
72600
20
52900
30
0
11
72600
21
49950
31
0
0
LINE
5
34E
330
10E
100
AcDbEntity
8
ST-SHEET-SCHEDULE
100
AcDbLine
10
74200
20
52900
30
0
11
74200
21
49950
31
0
0
LINE
5
34F
330
10E
100
AcDbEntity
8
ST-SHEET-SCHEDULE
100
AcDbLine
10
75900
20
52900
30
0
11
75900
21
49950
31
0
0
LINE
5
350
330
10E
100
AcDbEntity
8
ST-SHEET-SCHEDULE
100
AcDbLine
10
83100
20
52900
30
0
11
83100
21
49950
31
0
0
LINE
5
351
330
10E
100
AcDbEntity
8
ST-SHEET-SCHEDULE
100
AcDbLine
10
64600
20
49950
30
0
11
83100
21
49950
31
0
0
TEXT
5
352
330
10E
100
AcDbEntity
8
ST-SHEET-TITLE
100
AcDbText
10
64800
20
57950
30
0
40
220
1
KEY PLAN
7
STANDARD
72
0
100
AcDbText
73
0
0
LWPOLYLINE
5
353
330
10E
100
AcDbEntity
8
ST-SHEET-TITLE
100
AcDbPolyline
90
4
70
1
43
0
10
68600
20
54100
10
79100
20
54100
10
79100
20
57800
10
68600
20
57800
0
LWPOLYLINE
5
354
330
10E
100
AcDbEntity
8
ST-SLAB-EDGE
100
AcDbPolyline
90
4
70
1
43
0
10
71912.5
20
54400
10
75787.5
20
54400
10
75787.5
20
57500
10
71912.5
20
57500
0
HATCH
5
355
330
10E
100
AcDbEntity
8
ST-HATCH
100
AcDbHatch
10
0
20
0
30
0
210
0
220
0
230
1
2
ANSI31
70
0
71
0
91
1
92
3
72
0
73
1
93
4
10
71912.5
20
54400
10
75787.5
20
54400
10
75787.5
20
57500
10
71912.5
20
57500
97
0
75
1
76
1
52
0
41
37.795276
77
0
78
1
53
45
43
0
44
0
45
-84.852814
46
84.852814
79
0
47
1
98
0
0
CIRCLE
5
356
330
10E
100
AcDbEntity
8
ST-TEXT
100
AcDbCircle
10
81100
20
55800
30
0
40
600
0
SOLID
5
357
330
10E
100
AcDbEntity
8
ST-TEXT
100
AcDbTrace
10
81100
20
56300
30
0
11
80850
21
55450
31
0
12
81350
22
55450
32
0
13
81100
23
55680
33
0
0
TEXT
5
358
330
10E
100
AcDbEntity
8
ST-TEXT
100
AcDbText
10
81100
20
56550
30
0
40
250
1
N
7
STANDARD
72
1
11
81100
21
56550
31
0
100
AcDbText
73
0
0
TEXT
5
359
330
10E
100
AcDbEntity
8
ST-SHEET-TEXT
100
AcDbText
10
64900
20
39180
30
0
40
240
1
GENERAL NOTES
7
STANDARD
72
0
100
AcDbText
73
0
0
TEXT
5
35A
330
10E
100
AcDbEntity
8
ST-SHEET-TEXT
100
AcDbText
10
82800
20
39180
30
0
40
220
1
\U+0645\U+0644\U+0627\U+062D\U+0638\U+0627\U+062A \U+0639\U+0627\U+0645\U+0629
7
STANDARD
72
2
11
82800
21
39180
31
0
100
AcDbText
73
0
0
LINE
5
35B
330
10E
100
AcDbEntity
8
ST-SHEET-NOTES
100
AcDbLine
10
64900
20
39070
30
0
11
82800
21
39070
31
0
0
MTEXT
5
35C
330
10E
100
AcDbEntity
8
ST-SHEET-NOTES
100
AcDbMText
10
64900
20
38940
30
0
40
175
41
17800
71
1
72
1
1
1. ALL DIMENSIONS ARE IN MILLIMETRES, LEVELS IN METRES UNLESS NOTED OTHERWISE. DO NOT SCALE; FOLLOW THE WRITTEN DIMENSIONS.
7
STANDARD
44
1
0
MTEXT
5
35D
330
10E
100
AcDbEntity
8
ST-SHEET-NOTES
100
AcDbMText
10
64900
20
38635
30
0
40
175
41
17800
71
1
72
1
1
2. CONCRETE f'c = 35 MPa (drawing). REINFORCEMENT: DEFORMED BARS fy = 420 MPa (drawing). CLEAR COVER 25 mm TOP AND BOTTOM (drawing).
7
STANDARD
44
1
0
MTEXT
5
35E
330
10E
100
AcDbEntity
8
ST-SHEET-NOTES
100
AcDbMText
10
64900
20
38058.75
30
0
40
175
41
17800
71
1
72
1
1
3. SLAB THICKNESS 220 mm. THIS SHEET IS TO BE READ WITH THE CONSULTANT'S STRUCTURAL DRAWINGS (G.A.) AND THE PT LAYOUT; DISCREPANCIES TO BE REFERRED TO THE ENGINEER BEFORE FABRICATION.
7
STANDARD
44
1
0
MTEXT
5
35F
330
10E
100
AcDbEntity
8
ST-SHEET-NOTES
100
AcDbMText
10
64900
20
37482.5
30
0
40
175
41
17800
71
1
72
1
3
4. BAR CALL-OUT: [No.] T[\U+00D8] @[SPACING] - [LAYER-MARK] - (L = CUTTING LENGTH). STRAIGHT LENGTH IS WRITTEN UNDER THE BAR; A HOOK LEG IS WRITTEN AT THE HOOKED END. T1/T2 = TOP LAYERS, B1/B2 = BOTTOM LAYERS (1 = BARS PARALLEL TO THE NUMBERED GRIDS,
1
 2 = PARALLEL TO THE LETTERED GRIDS).
7
STANDARD
44
1
0
MTEXT
5
360
330
10E
100
AcDbEntity
8
ST-SHEET-NOTES
100
AcDbMText
10
64900
20
36635
30
0
40
175
41
17800
71
1
72
1
1
5. THE DRAWN BAR IS REPRESENTATIVE OF THE GROUP; THE NUMBER OF BARS IN THE CALL-OUT IS PLACED AT THE GIVEN SPACING ACROSS THE ZONE. A SHORT OFFSET LINE MARKS THE LAP OF THE FOLLOWING PIECE.
7
STANDARD
44
1
0
MTEXT
5
361
330
10E
100
AcDbEntity
8
ST-SHEET-NOTES
100
AcDbMText
10
64900
20
36058.75
30
0
40
175
41
17800
71
1
72
1
1
6. TENSION LAPS ARE CLASS B (1.3 ld) PER SBC 304-18 \U+00A725.5.2, SO ALL BARS OF A ROW MAY LAP AT THE SAME SECTION. BARS ENDING AT A FREE EDGE TERMINATE WITH A STANDARD 90\U+00B0 HOOK (12 \U+00D8) UNLESS NOTED.
7
STANDARD
44
1
0
MTEXT
5
362
330
10E
100
AcDbEntity
8
ST-SHEET-NOTES
100
AcDbMText
10
64900
20
35482.5
30
0
40
175
41
17800
71
1
72
1
3
7. 2T16 TRIMMER BARS TOP AND BOTTOM ALONG EACH SIDE OF EVERY OPENING (CALL-OUT "nT16-T&B-MARK-(L)"), ANCHORED ld = 710 mm BEYOND THE CORNERS; 2T12 DIAGONAL BARS TOP AND BOTTOM AT EACH RE-ENTRANT CORNER, L = 1200 mm; T12@200 U-BARS WITH 600 mm LEGS AL
1
ONG THE FREE EDGES.
7
STANDARD
44
1
0
MTEXT
5
363
330
10E
100
AcDbEntity
8
ST-SHEET-NOTES
100
AcDbMText
10
64900
20
34635
30
0
40
175
41
17800
71
1
72
1
1
8. THE MAIN MESH IS STOPPED AT THE OPENING FACE LESS COVER; TRIMMERS REPLACE THE INTERRUPTED BARS. TENDONS ARE DEVIATED AROUND OPENINGS PER THE PT LAYOUT - NO TENDON MAY BE CUT.
7
STANDARD
44
1
0
MTEXT
5
364
330
10E
100
AcDbEntity
8
ST-SHEET-NOTES
100
AcDbMText
10
64900
20
34058.75
30
0
40
175
41
17800
71
1
72
1
1
9. \U+00D816: ld 550 (bot) / 710 (top) \U+00B7 LAP 750 (bot) / 950 (top) \U+00B7 ldh 280
7
STANDARD
44
1
0
MTEXT
5
365
330
10E
100
AcDbEntity
8
ST-SHEET-NOTES
100
AcDbMText
10
64900
20
33753.75
30
0
40
175
41
17800
71
1
72
1
1
10. \U+00D812: ld 410 (bot) / 530 (top) \U+00B7 LAP 550 (bot) / 700 (top) \U+00B7 ldh 210
7
STANDARD
44
1
0
TEXT
5
366
330
10E
100
AcDbEntity
8
ST-SHEET-TEXT
100
AcDbText
10
64900
20
33128.75
30
0
40
240
1
ASSUMPTIONS
7
STANDARD
72
0
100
AcDbText
73
0
0
TEXT
5
367
330
10E
100
AcDbEntity
8
ST-SHEET-TEXT
100
AcDbText
10
82800
20
33128.75
30
0
40
220
1
\U+0627\U+0641\U+062A\U+0631\U+0627\U+0636\U+0627\U+062A
7
STANDARD
72
2
11
82800
21
33128.75
31
0
100
AcDbText
73
0
0
LINE
5
368
330
10E
100
AcDbEntity
8
ST-SHEET-NOTES
100
AcDbLine
10
64900
20
33018.75
30
0
11
82800
21
33018.75
31
0
0
MTEXT
5
369
330
10E
100
AcDbEntity
8
ST-SHEET-NOTES
100
AcDbMText
10
64900
20
32888.75
30
0
40
165
41
17800
71
1
72
1
1
A1. Bottom mesh not specified: T12@200 both ways assumed as bonded reinforcement in PT zones.
7
STANDARD
44
1
0
MTEXT
5
36A
330
10E
100
AcDbEntity
8
ST-SHEET-NOTES
100
AcDbMText
10
64900
20
32593.75
30
0
40
165
41
17800
71
1
72
1
1
A2. Edge U-bars not specified: T12@200 with 1200 mm legs assumed at PT anchorage edges.
7
STANDARD
44
1
0
MTEXT
5
36B
330
10E
100
AcDbEntity
8
ST-SHEET-NOTES
100
AcDbMText
10
64900
20
32298.75
30
0
40
165
41
17800
71
1
72
1
1
A3. Opening trimmers not specified: 2T16 T&B each side + 2T12 diagonals at corners assumed.
7
STANDARD
44
1
0
MTEXT
5
36C
330
10E
100
AcDbEntity
8
ST-SHEET-NOTES
100
AcDbMText
10
64900
20
32003.75
30
0
40
165
41
17800
71
1
72
1
1
A4. Void trimmers not specified: 2T12 T&B each side assumed.
7
STANDARD
44
1
0
MTEXT
5
36D
330
10E
100
AcDbEntity
8
ST-SHEET-NOTES
100
AcDbMText
10
64900
20
31708.75
30
0
40
165
41
17800
71
1
72
1
1
A5. Stock bar length 12 m; laps staggered so that not more than 50 % of bars lap at one section.
7
STANDARD
44
1
0
TEXT
5
36E
330
10E
100
AcDbEntity
8
ST-SHEET-TEXT
100
AcDbText
10
64900
20
31093.75
30
0
40
240
1
CODE REFERENCE
7
STANDARD
72
0
100
AcDbText
73
0
0
TEXT
5
36F
330
10E
100
AcDbEntity
8
ST-SHEET-TEXT
100
AcDbText
10
82800
20
31093.75
30
0
40
220
1
\U+0627\U+0644\U+0645\U+0631\U+062C\U+0639 \U+0627\U+0644\U+0643\U+0648\U+062F\U+064A
7
STANDARD
72
2
11
82800
21
31093.75
31
0
100
AcDbText
73
0
0
LINE
5
370
330
10E
100
AcDbEntity
8
ST-SHEET-NOTES
100
AcDbLine
10
64900
20
30983.75
30
0
11
82800
21
30983.75
31
0
0
MTEXT
5
371
330
10E
100
AcDbEntity
8
ST-SHEET-NOTES
100
AcDbMText
10
64900
20
30853.75
30
0
40
175
41
17800
71
1
72
1
1
SBC 304-18 AS STATED ON THE STRUCTURAL DRAWINGS. DEVELOPMENT, ANCHORAGE AND LAP LENGTHS PER SBC 304-18 CHAPTER 25 (ACI 318-14 BASIS).
7
STANDARD
44
1
0
TEXT
5
372
330
10E
100
AcDbEntity
8
ST-SHEET-TEXT
100
AcDbText
10
64900
20
29957.5
30
0
40
240
1
LEGEND
7
STANDARD
72
0
100
AcDbText
73
0
0
TEXT
5
373
330
10E
100
AcDbEntity
8
ST-SHEET-TEXT
100
AcDbText
10
82800
20
29957.5
30
0
40
220
1
\U+0645\U+0641\U+062A\U+0627\U+062D \U+0627\U+0644\U+0631\U+0645\U+0648\U+0632
7
STANDARD
72
2
11
82800
21
29957.5
31
0
100
AcDbText
73
0
0
LINE
5
374
330
10E
100
AcDbEntity
8
ST-SHEET-NOTES
100
AcDbLine
10
64900
20
29847.5
30
0
11
82800
21
29847.5
31
0
0
LINE
5
375
330
10E
100
AcDbEntity
8
ST-RB
370
50
100
AcDbLine
10
64900
20
29547.5
30
0
11
65700
21
29547.5
31
0
0
TEXT
5
376
330
10E
100
AcDbEntity
8
ST-SHEET-NOTES
100
AcDbText
10
65900
20
29497.5
30
0
40
170
1
T16 TRIMMER / T12 DIAGONAL
7
STANDARD
72
0
100
AcDbText
73
0
0
LINE
5
377
330
10E
100
AcDbEntity
8
ST-RB-UBAR
100
AcDbLine
10
64900
20
29247.5
30
0
11
65700
21
29247.5
31
0
0
TEXT
5
378
330
10E
100
AcDbEntity
8
ST-SHEET-NOTES
100
AcDbText
10
65900
20
29197.5
30
0
40
170
1
T12 U-BAR (HAIRPIN)
7
STANDARD
72
0
100
AcDbText
73
0
0
LINE
5
379
330
10E
100
AcDbEntity
8
ST-OPENING
100
AcDbLine
10
64900
20
28947.5
30
0
11
65700
21
28947.5
31
0
0
TEXT
5
37A
330
10E
100
AcDbEntity
8
ST-SHEET-NOTES
100
AcDbText
10
65900
20
28897.5
30
0
40
170
1
OPENING
7
STANDARD
72
0
100
AcDbText
73
0
0
LINE
5
37B
330
10E
100
AcDbEntity
8
ST-CALLOUT
100
AcDbLine
10
64900
20
28647.5
30
0
11
65700
21
28647.5
31
0
0
TEXT
5
37C
330
10E
100
AcDbEntity
8
ST-SHEET-NOTES
100
AcDbText
10
65900
20
28597.5
30
0
40
170
1
OPENING ID
7
STANDARD
72
0
100
AcDbText
73
0
0
LINE
5
37D
330
10E
100
AcDbEntity
8
ST-SHEET-TITLE
100
AcDbLine
10
64600
20
20700
30
0
11
83100
21
20700
31
0
0
TEXT
5
37E
330
10E
100
AcDbEntity
8
ST-SHEET-TITLE
100
AcDbText
10
73850
20
20950
30
0
40
170
1
COORDINATED WITH THE FOLLOWING DISCIPLINES
7
STANDARD
72
1
11
73850
21
20950
31
0
100
AcDbText
73
2
0
LINE
5
37F
330
10E
100
AcDbEntity
8
ST-SHEET-TITLE
100
AcDbLine
10
64600
20
20100
30
0
11
83100
21
20100
31
0
0
TEXT
5
380
330
10E
100
AcDbEntity
8
ST-SHEET-TITLE
100
AcDbText
10
64750
20
20480
30
0
40
150
1
ARCH.
7
STANDARD
72
0
100
AcDbText
73
0
0
TEXT
5
381
330
10E
100
AcDbEntity
8
ST-SHEET-TEXT
100
AcDbText
10
66912.5
20
20200
30
0
40
160
1

7
STANDARD
72
1
11
66912.5
21
20200
31
0
100
AcDbText
73
0
0
LINE
5
382
330
10E
100
AcDbEntity
8
ST-SHEET-TITLE
100
AcDbLine
10
69225
20
20100
30
0
11
69225
21
20700
31
0
0
TEXT
5
383
330
10E
100
AcDbEntity
8
ST-SHEET-TITLE
100
AcDbText
10
69375
20
20480
30
0
40
150
1
STRUCT.
7
STANDARD
72
0
100
AcDbText
73
0
0
TEXT
5
384
330
10E
100
AcDbEntity
8
ST-SHEET-TEXT
100
AcDbText
10
71537.5
20
20200
30
0
40
160
1

7
STANDARD
72
1
11
71537.5
21
20200
31
0
100
AcDbText
73
0
0
LINE
5
385
330
10E
100
AcDbEntity
8
ST-SHEET-TITLE
100
AcDbLine
10
73850
20
20100
30
0
11
73850
21
20700
31
0
0
TEXT
5
386
330
10E
100
AcDbEntity
8
ST-SHEET-TITLE
100
AcDbText
10
74000
20
20480
30
0
40
150
1
MEP
7
STANDARD
72
0
100
AcDbText
73
0
0
TEXT
5
387
330
10E
100
AcDbEntity
8
ST-SHEET-TEXT
100
AcDbText
10
76162.5
20
20200
30
0
40
160
1

7
STANDARD
72
1
11
76162.5
21
20200
31
0
100
AcDbText
73
0
0
LINE
5
388
330
10E
100
AcDbEntity
8
ST-SHEET-TITLE
100
AcDbLine
10
78475
20
20100
30
0
11
78475
21
20700
31
0
0
TEXT
5
389
330
10E
100
AcDbEntity
8
ST-SHEET-TITLE
100
AcDbText
10
78625
20
20480
30
0
40
150
1
EL.
7
STANDARD
72
0
100
AcDbText
73
0
0
TEXT
5
38A
330
10E
100
AcDbEntity
8
ST-SHEET-TEXT
100
AcDbText
10
80787.5
20
20200
30
0
40
160
1

7
STANDARD
72
1
11
80787.5
21
20200
31
0
100
AcDbText
73
0
0
LINE
5
38B
330
10E
100
AcDbEntity
8
ST-SHEET-TITLE
100
AcDbLine
10
64600
20
19600
30
0
11
83100
21
19600
31
0
0
TEXT
5
38C
330
10E
100
AcDbEntity
8
ST-SHEET-TITLE
100
AcDbText
10
73850
20
19850
30
0
40
170
1
CONTRACT DRAWING REFERENCES
7
STANDARD
72
1
11
73850
21
19850
31
0
100
AcDbText
73
2
0
LINE
5
38D
330
10E
100
AcDbEntity
8
ST-SHEET-TITLE
100
AcDbLine
10
64600
20
19200
30
0
11
83100
21
19200
31
0
0
TEXT
5
38E
330
10E
100
AcDbEntity
8
ST-SHEET-TITLE
100
AcDbText
10
67683.333333
20
19400
30
0
40
150
1
ARCHITECTURAL
7
STANDARD
72
1
11
67683.333333
21
19400
31
0
100
AcDbText
73
2
0
LINE
5
38F
330
10E
100
AcDbEntity
8
ST-SHEET-TITLE
100
AcDbLine
10
70766.666667
20
19200
30
0
11
70766.666667
21
19600
31
0
0
TEXT
5
390
330
10E
100
AcDbEntity
8
ST-SHEET-TITLE
100
AcDbText
10
73850
20
19400
30
0
40
150
1
STRUCTURAL
7
STANDARD
72
1
11
73850
21
19400
31
0
100
AcDbText
73
2
0
LINE
5
391
330
10E
100
AcDbEntity
8
ST-SHEET-TITLE
100
AcDbLine
10
76933.333333
20
19200
30
0
11
76933.333333
21
19600
31
0
0
TEXT
5
392
330
10E
100
AcDbEntity
8
ST-SHEET-TITLE
100
AcDbText
10
80016.666667
20
19400
30
0
40
150
1
MEP
7
STANDARD
72
1
11
80016.666667
21
19400
31
0
100
AcDbText
73
2
0
LINE
5
393
330
10E
100
AcDbEntity
8
ST-SHEET-TITLE
100
AcDbLine
10
64600
20
18800
30
0
11
83100
21
18800
31
0
0
LINE
5
394
330
10E
100
AcDbEntity
8
ST-SHEET-TITLE
100
AcDbLine
10
69566.666667
20
18800
30
0
11
69566.666667
21
19200
31
0
0
TEXT
5
395
330
10E
100
AcDbEntity
8
ST-SHEET-TITLE
100
AcDbText
10
64750
20
18930
30
0
40
130
1
DRAWING No.
7
STANDARD
72
0
100
AcDbText
73
0
0
TEXT
5
396
330
10E
100
AcDbEntity
8
ST-SHEET-TITLE
100
AcDbText
10
70166.666667
20
18930
30
0
40
130
1
REV.
7
STANDARD
72
1
11
70166.666667
21
18930
31
0
100
AcDbText
73
0
0
LINE
5
397
330
10E
100
AcDbEntity
8
ST-SHEET-TITLE
100
AcDbLine
10
70766.666667
20
18800
30
0
11
70766.666667
21
19200
31
0
0
LINE
5
398
330
10E
100
AcDbEntity
8
ST-SHEET-TITLE
100
AcDbLine
10
75733.333333
20
18800
30
0
11
75733.333333
21
19200
31
0
0
TEXT
5
399
330
10E
100
AcDbEntity
8
ST-SHEET-TITLE
100
AcDbText
10
70916.666667
20
18930
30
0
40
130
1
DRAWING No.
7
STANDARD
72
0
100
AcDbText
73
0
0
TEXT
5
39A
330
10E
100
AcDbEntity
8
ST-SHEET-TITLE
100
AcDbText
10
76333.333333
20
18930
30
0
40
130
1
REV.
7
STANDARD
72
1
11
76333.333333
21
18930
31
0
100
AcDbText
73
0
0
LINE
5
39B
330
10E
100
AcDbEntity
8
ST-SHEET-TITLE
100
AcDbLine
10
76933.333333
20
18800
30
0
11
76933.333333
21
19200
31
0
0
LINE
5
39C
330
10E
100
AcDbEntity
8
ST-SHEET-TITLE
100
AcDbLine
10
81900
20
18800
30
0
11
81900
21
19200
31
0
0
TEXT
5
39D
330
10E
100
AcDbEntity
8
ST-SHEET-TITLE
100
AcDbText
10
77083.333333
20
18930
30
0
40
130
1
DRAWING No.
7
STANDARD
72
0
100
AcDbText
73
0
0
TEXT
5
39E
330
10E
100
AcDbEntity
8
ST-SHEET-TITLE
100
AcDbText
10
82500
20
18930
30
0
40
130
1
REV.
7
STANDARD
72
1
11
82500
21
18930
31
0
100
AcDbText
73
0
0
LINE
5
39F
330
10E
100
AcDbEntity
8
ST-SHEET-TITLE
100
AcDbLine
10
64600
20
18400
30
0
11
83100
21
18400
31
0
0
LINE
5
3A0
330
10E
100
AcDbEntity
8
ST-SHEET-TITLE
100
AcDbLine
10
69566.666667
20
18400
30
0
11
69566.666667
21
18800
31
0
0
LINE
5
3A1
330
10E
100
AcDbEntity
8
ST-SHEET-TITLE
100
AcDbLine
10
70766.666667
20
18400
30
0
11
70766.666667
21
18800
31
0
0
LINE
5
3A2
330
10E
100
AcDbEntity
8
ST-SHEET-TITLE
100
AcDbLine
10
75733.333333
20
18400
30
0
11
75733.333333
21
18800
31
0
0
LINE
5
3A3
330
10E
100
AcDbEntity
8
ST-SHEET-TITLE
100
AcDbLine
10
76933.333333
20
18400
30
0
11
76933.333333
21
18800
31
0
0
LINE
5
3A4
330
10E
100
AcDbEntity
8
ST-SHEET-TITLE
100
AcDbLine
10
81900
20
18400
30
0
11
81900
21
18800
31
0
0
LINE
5
3A5
330
10E
100
AcDbEntity
8
ST-SHEET-TITLE
100
AcDbLine
10
64600
20
18000
30
0
11
83100
21
18000
31
0
0
LINE
5
3A6
330
10E
100
AcDbEntity
8
ST-SHEET-TITLE
100
AcDbLine
10
69566.666667
20
18000
30
0
11
69566.666667
21
18400
31
0
0
LINE
5
3A7
330
10E
100
AcDbEntity
8
ST-SHEET-TITLE
100
AcDbLine
10
70766.666667
20
18000
30
0
11
70766.666667
21
18400
31
0
0
LINE
5
3A8
330
10E
100
AcDbEntity
8
ST-SHEET-TITLE
100
AcDbLine
10
75733.333333
20
18000
30
0
11
75733.333333
21
18400
31
0
0
LINE
5
3A9
330
10E
100
AcDbEntity
8
ST-SHEET-TITLE
100
AcDbLine
10
76933.333333
20
18000
30
0
11
76933.333333
21
18400
31
0
0
LINE
5
3AA
330
10E
100
AcDbEntity
8
ST-SHEET-TITLE
100
AcDbLine
10
81900
20
18000
30
0
11
81900
21
18400
31
0
0
LINE
5
3AB
330
10E
100
AcDbEntity
8
ST-SHEET-TITLE
100
AcDbLine
10
64600
20
17600
30
0
11
83100
21
17600
31
0
0
TEXT
5
3AC
330
10E
100
AcDbEntity
8
ST-SHEET-TITLE
100
AcDbText
10
65200
20
17800
30
0
40
140
1
REV.
7
STANDARD
72
1
11
65200
21
17800
31
0
100
AcDbText
73
2
0
LINE
5
3AD
330
10E
100
AcDbEntity
8
ST-SHEET-TITLE
100
AcDbLine
10
65800
20
17600
30
0
11
65800
21
18000
31
0
0
TEXT
5
3AE
330
10E
100
AcDbEntity
8
ST-SHEET-TITLE
100
AcDbText
10
71700
20
17800
30
0
40
140
1
DESCRIPTION
7
STANDARD
72
1
11
71700
21
17800
31
0
100
AcDbText
73
2
0
LINE
5
3AF
330
10E
100
AcDbEntity
8
ST-SHEET-TITLE
100
AcDbLine
10
77600
20
17600
30
0
11
77600
21
18000
31
0
0
TEXT
5
3B0
330
10E
100
AcDbEntity
8
ST-SHEET-TITLE
100
AcDbText
10
79100
20
17800
30
0
40
140
1
DATE
7
STANDARD
72
1
11
79100
21
17800
31
0
100
AcDbText
73
2
0
LINE
5
3B1
330
10E
100
AcDbEntity
8
ST-SHEET-TITLE
100
AcDbLine
10
80600
20
17600
30
0
11
80600
21
18000
31
0
0
TEXT
5
3B2
330
10E
100
AcDbEntity
8
ST-SHEET-TITLE
100
AcDbText
10
81850
20
17800
30
0
40
140
1
BY
7
STANDARD
72
1
11
81850
21
17800
31
0
100
AcDbText
73
2
0
LINE
5
3B3
330
10E
100
AcDbEntity
8
ST-SHEET-TITLE
100
AcDbLine
10
64600
20
17200
30
0
11
83100
21
17200
31
0
0
TEXT
5
3B4
330
10E
100
AcDbEntity
8
ST-SHEET-TEXT
100
AcDbText
10
65200
20
17300
30
0
40
150
1
00
7
STANDARD
72
1
11
65200
21
17300
31
0
100
AcDbText
73
0
0
LINE
5
3B5
330
10E
100
AcDbEntity
8
ST-SHEET-TITLE
100
AcDbLine
10
65800
20
17200
30
0
11
65800
21
17600
31
0
0
TEXT
5
3B6
330
10E
100
AcDbEntity
8
ST-SHEET-TEXT
100
AcDbText
10
65950
20
17300
30
0
40
150
1
ISSUED FOR APPROVAL
7
STANDARD
72
0
100
AcDbText
73
0
0
LINE
5
3B7
330
10E
100
AcDbEntity
8
ST-SHEET-TITLE
100
AcDbLine
10
77600
20
17200
30
0
11
77600
21
17600
31
0
0
TEXT
5
3B8
330
10E
100
AcDbEntity
8
ST-SHEET-TEXT
100
AcDbText
10
79100
20
17300
30
0
40
150
1
2026-09-26
7
STANDARD
72
1
11
79100
21
17300
31
0
100
AcDbText
73
0
0
LINE
5
3B9
330
10E
100
AcDbEntity
8
ST-SHEET-TITLE
100
AcDbLine
10
80600
20
17200
30
0
11
80600
21
17600
31
0
0
TEXT
5
3BA
330
10E
100
AcDbEntity
8
ST-SHEET-TEXT
100
AcDbText
10
81850
20
17300
30
0
40
150
1

7
STANDARD
72
1
11
81850
21
17300
31
0
100
AcDbText
73
0
0
LINE
5
3BB
330
10E
100
AcDbEntity
8
ST-SHEET-TITLE
100
AcDbLine
10
64600
20
16800
30
0
11
83100
21
16800
31
0
0
LINE
5
3BC
330
10E
100
AcDbEntity
8
ST-SHEET-TITLE
100
AcDbLine
10
65800
20
16800
30
0
11
65800
21
17200
31
0
0
LINE
5
3BD
330
10E
100
AcDbEntity
8
ST-SHEET-TITLE
100
AcDbLine
10
77600
20
16800
30
0
11
77600
21
17200
31
0
0
LINE
5
3BE
330
10E
100
AcDbEntity
8
ST-SHEET-TITLE
100
AcDbLine
10
80600
20
16800
30
0
11
80600
21
17200
31
0
0
LINE
5
3BF
330
10E
100
AcDbEntity
8
ST-SHEET-TITLE
100
AcDbLine
10
64600
20
16400
30
0
11
83100
21
16400
31
0
0
LINE
5
3C0
330
10E
100
AcDbEntity
8
ST-SHEET-TITLE
100
AcDbLine
10
65800
20
16400
30
0
11
65800
21
16800
31
0
0
LINE
5
3C1
330
10E
100
AcDbEntity
8
ST-SHEET-TITLE
100
AcDbLine
10
77600
20
16400
30
0
11
77600
21
16800
31
0
0
LINE
5
3C2
330
10E
100
AcDbEntity
8
ST-SHEET-TITLE
100
AcDbLine
10
80600
20
16400
30
0
11
80600
21
16800
31
0
0
LINE
5
3C3
330
10E
100
AcDbEntity
8
ST-SHEET-TITLE
100
AcDbLine
10
64600
20
16000
30
0
11
83100
21
16000
31
0
0
LINE
5
3C4
330
10E
100
AcDbEntity
8
ST-SHEET-TITLE
100
AcDbLine
10
65800
20
16000
30
0
11
65800
21
16400
31
0
0
LINE
5
3C5
330
10E
100
AcDbEntity
8
ST-SHEET-TITLE
100
AcDbLine
10
77600
20
16000
30
0
11
77600
21
16400
31
0
0
LINE
5
3C6
330
10E
100
AcDbEntity
8
ST-SHEET-TITLE
100
AcDbLine
10
80600
20
16000
30
0
11
80600
21
16400
31
0
0
LINE
5
3C7
330
10E
100
AcDbEntity
8
ST-SHEET-TITLE
100
AcDbLine
10
64600
20
14500
30
0
11
83100
21
14500
31
0
0
TEXT
5
3C8
330
10E
100
AcDbEntity
8
ST-SHEET-TITLE
100
AcDbText
10
64750
20
15700
30
0
40
150
1
PROJECT
7
STANDARD
72
0
100
AcDbText
73
0
0
TEXT
5
3C9
330
10E
100
AcDbEntity
8
ST-SHEET-TEXT
100
AcDbText
10
64750
20
15380
30
0
40
210
1
PROPOSED MIXED-USE BUILDING
7
STANDARD
72
0
100
AcDbText
73
0
0
TEXT
5
3CA
330
10E
100
AcDbEntity
8
ST-SHEET-TITLE
100
AcDbText
10
64750
20
14630
30
0
40
170
1
RIYADH, KSA
7
STANDARD
72
0
100
AcDbText
73
0
0
LINE
5
3CB
330
10E
100
AcDbEntity
8
ST-SHEET-TITLE
100
AcDbLine
10
64600
20
13600
30
0
11
83100
21
13600
31
0
0
TEXT
5
3CC
330
10E
100
AcDbEntity
8
ST-SHEET-TITLE
100
AcDbText
10
64750
20
14200
30
0
40
150
1
THE CLIENT
7
STANDARD
72
0
100
AcDbText
73
0
0
TEXT
5
3CD
330
10E
100
AcDbEntity
8
ST-SHEET-TEXT
100
AcDbText
10
64750
20
13880
30
0
40
220
1
DEMO CLIENT
7
STANDARD
72
0
100
AcDbText
73
0
0
LINE
5
3CE
330
10E
100
AcDbEntity
8
ST-SHEET-TITLE
100
AcDbLine
10
64600
20
12700
30
0
11
83100
21
12700
31
0
0
TEXT
5
3CF
330
10E
100
AcDbEntity
8
ST-SHEET-TITLE
100
AcDbText
10
64750
20
13300
30
0
40
150
1
THE ENGINEER (CONSULTANT)
7
STANDARD
72
0
100
AcDbText
73
0
0
LINE
5
3D0
330
10E
100
AcDbEntity
8
ST-SHEET-TITLE
100
AcDbLine
10
64600
20
11800
30
0
11
83100
21
11800
31
0
0
TEXT
5
3D1
330
10E
100
AcDbEntity
8
ST-SHEET-TITLE
100
AcDbText
10
64750
20
12400
30
0
40
150
1
MAIN CONTRACTOR
7
STANDARD
72
0
100
AcDbText
73
0
0
LINE
5
3D2
330
10E
100
AcDbEntity
8
ST-SHEET-TITLE
100
AcDbLine
10
64600
20
10200
30
0
11
83100
21
10200
31
0
0
TEXT
5
3D3
330
10E
100
AcDbEntity
8
ST-SHEET-TITLE
100
AcDbText
10
64750
20
11500
30
0
40
150
1
POST-TENSION SUB-CONTRACTOR / SHOP DRAWINGS BY
7
STANDARD
72
0
100
AcDbText
73
0
0
TEXT
5
3D4
330
10E
100
AcDbEntity
8
ST-SHEET-TEXT
100
AcDbText
10
73850
20
10950
30
0
40
400
1
SPAN TECH CONTRACTING
7
STANDARD
72
1
11
73850
21
10950
31
0
100
AcDbText
73
2
0
TEXT
5
3D5
330
10E
100
AcDbEntity
8
ST-SHEET-TITLE
100
AcDbText
10
73850
20
10450
30
0
40
170
1
POST-TENSIONED SLABS \U+00B7 KSA \U+00B7 EGYPT \U+00B7 QATAR
7
STANDARD
72
1
11
73850
21
10450
31
0
100
AcDbText
73
2
0
LINE
5
3D6
330
10E
100
AcDbEntity
8
ST-SHEET-TITLE
100
AcDbLine
10
64600
20
8200
30
0
11
83100
21
8200
31
0
0
TEXT
5
3D7
330
10E
100
AcDbEntity
8
ST-SHEET-TITLE
100
AcDbText
10
64750
20
9900
30
0
40
150
1
DRAWING TITLE
7
STANDARD
72
0
100
AcDbText
73
0
0
TEXT
5
3D8
330
10E
100
AcDbEntity
8
ST-SHEET-TEXT
100
AcDbText
10
64750
20
9450
30
0
40
290
1
REINFORCEMENT AROUND OPENINGS
7
STANDARD
72
0
100
AcDbText
73
0
0
TEXT
5
3D9
330
10E
100
AcDbEntity
8
ST-SHEET-TITLE
100
AcDbText
10
64750
20
8330
30
0
40
200
1
L02 - ROOF SLAB PLAN
7
STANDARD
72
0
100
AcDbText
73
0
0
LINE
5
3DA
330
10E
100
AcDbEntity
8
ST-SHEET-TITLE
100
AcDbLine
10
64600
20
7100
30
0
11
83100
21
7100
31
0
0
LINE
5
3DB
330
10E
100
AcDbEntity
8
ST-SHEET-TITLE
100
AcDbLine
10
73850
20
7100
30
0
11
73850
21
8200
31
0
0
LINE
5
3DC
330
10E
100
AcDbEntity
8
ST-SHEET-TITLE
100
AcDbLine
10
77920
20
7100
30
0
11
77920
21
8200
31
0
0
TEXT
5
3DD
330
10E
100
AcDbEntity
8
ST-SHEET-TITLE
100
AcDbText
10
64750
20
7900
30
0
40
150
1
DRAWING No.
7
STANDARD
72
0
100
AcDbText
73
0
0
TEXT
5
3DE
330
10E
100
AcDbEntity
8
ST-SHEET-TEXT
100
AcDbText
10
64750
20
7480
30
0
40
320
1
ST-SD-L02-06
7
STANDARD
72
0
100
AcDbText
73
0
0
TEXT
5
3DF
330
10E
100
AcDbEntity
8
ST-SHEET-TITLE
100
AcDbText
10
74000
20
7900
30
0
40
150
1
REV.
7
STANDARD
72
0
100
AcDbText
73
0
0
TEXT
5
3E0
330
10E
100
AcDbEntity
8
ST-SHEET-TEXT
100
AcDbText
10
74000
20
7480
30
0
40
320
1
00
7
STANDARD
72
0
100
AcDbText
73
0
0
TEXT
5
3E1
330
10E
100
AcDbEntity
8
ST-SHEET-TITLE
100
AcDbText
10
78070
20
7900
30
0
40
150
1
DATE
7
STANDARD
72
0
100
AcDbText
73
0
0
TEXT
5
3E2
330
10E
100
AcDbEntity
8
ST-SHEET-TEXT
100
AcDbText
10
78070
20
7560
30
0
40
240
1
2026-09-26
7
STANDARD
72
0
100
AcDbText
73
0
0
LINE
5
3E3
330
10E
100
AcDbEntity
8
ST-SHEET-TITLE
100
AcDbLine
10
64600
20
6000
30
0
11
83100
21
6000
31
0
0
LINE
5
3E4
330
10E
100
AcDbEntity
8
ST-SHEET-TITLE
100
AcDbLine
10
72000
20
6000
30
0
11
72000
21
7100
31
0
0
LINE
5
3E5
330
10E
100
AcDbEntity
8
ST-SHEET-TITLE
100
AcDbLine
10
76810
20
6000
30
0
11
76810
21
7100
31
0
0
TEXT
5
3E6
330
10E
100
AcDbEntity
8
ST-SHEET-TITLE
100
AcDbText
10
64750
20
6800
30
0
40
150
1
SCALE (A1)
7
STANDARD
72
0
100
AcDbText
73
0
0
TEXT
5
3E7
330
10E
100
AcDbEntity
8
ST-SHEET-TEXT
100
AcDbText
10
64750
20
6460
30
0
40
240
1
1:100 (DETAILS AS NOTED)
7
STANDARD
72
0
100
AcDbText
73
0
0
TEXT
5
3E8
330
10E
100
AcDbEntity
8
ST-SHEET-TITLE
100
AcDbText
10
72150
20
6800
30
0
40
150
1
SHEET
7
STANDARD
72
0
100
AcDbText
73
0
0
TEXT
5
3E9
330
10E
100
AcDbEntity
8
ST-SHEET-TEXT
100
AcDbText
10
72150
20
6460
30
0
40
240
1
15 OF 17
7
STANDARD
72
0
100
AcDbText
73
0
0
TEXT
5
3EA
330
10E
100
AcDbEntity
8
ST-SHEET-TITLE
100
AcDbText
10
76960
20
6800
30
0
40
150
1
GRID REFERENCE
7
STANDARD
72
0
100
AcDbText
73
0
0
TEXT
5
3EB
330
10E
100
AcDbEntity
8
ST-SHEET-TEXT
100
AcDbText
10
76960
20
6480
30
0
40
220
1
A-E / 1-4
7
STANDARD
72
0
100
AcDbText
73
0
0
LINE
5
3EC
330
10E
100
AcDbEntity
8
ST-SHEET-TITLE
100
AcDbLine
10
64600
20
4500
30
0
11
83100
21
4500
31
0
0
LINE
5
3ED
330
10E
100
AcDbEntity
8
ST-SHEET-TITLE
100
AcDbLine
10
70766.666667
20
4500
30
0
11
70766.666667
21
6000
31
0
0
LINE
5
3EE
330
10E
100
AcDbEntity
8
ST-SHEET-TITLE
100
AcDbLine
10
76933.333333
20
4500
30
0
11
76933.333333
21
6000
31
0
0
TEXT
5
3EF
330
10E
100
AcDbEntity
8
ST-SHEET-TITLE
100
AcDbText
10
64750
20
5700
30
0
40
150
1
PREPARED
7
STANDARD
72
0
100
AcDbText
73
0
0
TEXT
5
3F0
330
10E
100
AcDbEntity
8
ST-SHEET-TEXT
100
AcDbText
10
64750
20
5250
30
0
40
200
1
SPAN TECH DESIGN OFFICE
7
STANDARD
72
0
100
AcDbText
73
0
0
TEXT
5
3F1
330
10E
100
AcDbEntity
8
ST-SHEET-TITLE
100
AcDbText
10
64750
20
4630
30
0
40
140
1
SIGN / DATE: ..........
7
STANDARD
72
0
100
AcDbText
73
0
0
TEXT
5
3F2
330
10E
100
AcDbEntity
8
ST-SHEET-TITLE
100
AcDbText
10
70916.666667
20
5700
30
0
40
150
1
CHECKED
7
STANDARD
72
0
100
AcDbText
73
0
0
TEXT
5
3F3
330
10E
100
AcDbEntity
8
ST-SHEET-TEXT
100
AcDbText
10
70916.666667
20
5250
30
0
40
200
1

7
STANDARD
72
0
100
AcDbText
73
0
0
TEXT
5
3F4
330
10E
100
AcDbEntity
8
ST-SHEET-TITLE
100
AcDbText
10
70916.666667
20
4630
30
0
40
140
1
SIGN / DATE: ..........
7
STANDARD
72
0
100
AcDbText
73
0
0
TEXT
5
3F5
330
10E
100
AcDbEntity
8
ST-SHEET-TITLE
100
AcDbText
10
77083.333333
20
5700
30
0
40
150
1
APPROVED
7
STANDARD
72
0
100
AcDbText
73
0
0
TEXT
5
3F6
330
10E
100
AcDbEntity
8
ST-SHEET-TEXT
100
AcDbText
10
77083.333333
20
5250
30
0
40
200
1

7
STANDARD
72
0
100
AcDbText
73
0
0
TEXT
5
3F7
330
10E
100
AcDbEntity
8
ST-SHEET-TITLE
100
AcDbText
10
77083.333333
20
4630
30
0
40
140
1
SIGN / DATE: ..........
7
STANDARD
72
0
100
AcDbText
73
0
0
LINE
5
3F8
330
10E
100
AcDbEntity
8
ST-SHEET-TITLE
100
AcDbLine
10
64600
20
3500
30
0
11
83100
21
3500
31
0
0
LINE
5
3F9
330
10E
100
AcDbEntity
8
ST-SHEET-TITLE
100
AcDbLine
10
70150
20
3500
30
0
11
70150
21
4500
31
0
0
LINE
5
3FA
330
10E
100
AcDbEntity
8
ST-SHEET-TITLE
100
AcDbLine
10
76070
20
3500
30
0
11
76070
21
4500
31
0
0
TEXT
5
3FB
330
10E
100
AcDbEntity
8
ST-SHEET-TITLE
100
AcDbText
10
64750
20
4200
30
0
40
150
1
DRAWING INDEX
7
STANDARD
72
0
100
AcDbText
73
0
0
TEXT
5
3FC
330
10E
100
AcDbEntity
8
ST-SHEET-TEXT
100
AcDbText
10
64750
20
3900
30
0
40
200
1
ST-SD-000
7
STANDARD
72
0
100
AcDbText
73
0
0
TEXT
5
3FD
330
10E
100
AcDbEntity
8
ST-SHEET-TITLE
100
AcDbText
10
70300
20
4200
30
0
40
150
1
CODE REFERENCE
7
STANDARD
72
0
100
AcDbText
73
0
0
TEXT
5
3FE
330
10E
100
AcDbEntity
8
ST-SHEET-TEXT
100
AcDbText
10
70300
20
3920
30
0
40
180
1
SBC 304-18 (ON DRAWINGS)
7
STANDARD
72
0
100
AcDbText
73
0
0
TEXT
5
3FF
330
10E
100
AcDbEntity
8
ST-SHEET-TITLE
100
AcDbText
10
76220
20
4200
30
0
40
150
1
BLOCK / XREF
7
STANDARD
72
0
100
AcDbText
73
0
0
TEXT
5
400
330
10E
100
AcDbEntity
8
ST-SHEET-TEXT
100
AcDbText
10
76220
20
3960
30
0
40
140
1
FRAMING_REBAR_AROUND_OPENINGS_L02
7
STANDARD
72
0
100
AcDbText
73
0
0
TEXT
5
401
330
10E
100
AcDbEntity
8
ST-SHEET-TEXT
100
AcDbText
10
73850
20
2250
30
0
40
230
1
SHOP DRAWING - FOR CONSULTANT APPROVAL
7
STANDARD
72
1
11
73850
21
2250
31
0
100
AcDbText
73
2
0
LWPOLYLINE
5
402
330
10E
100
AcDbEntity
8
ST-SHEET-TITLE
370
50
100
AcDbPolyline
90
4
70
1
43
0
10
64600
20
1000
10
83100
20
1000
10
83100
20
16000
10
64600
20
16000
0
CIRCLE
5
403
330
10E
100
AcDbEntity
8
ST-CALLOUT
100
AcDbCircle
10
3400
20
14220
30
0
40
400
0
TEXT
5
404
330
10E
100
AcDbEntity
8
ST-CALLOUT
100
AcDbText
10
3400
20
14220
30
0
40
320
1
1
7
STANDARD
72
1
11
3400
21
14220
31
0
100
AcDbText
73
2
0
TEXT
5
405
330
10E
100
AcDbEntity
8
ST-SHEET-TEXT
100
AcDbText
10
4100
20
14100
30
0
40
340
1
ROOF SLAB PLAN - REINFORCEMENT AROUND OPENINGS
7
STANDARD
72
0
100
AcDbText
73
0
0
LINE
5
406
330
10E
100
AcDbEntity
8
ST-SHEET-TITLE
370
35
100
AcDbLine
10
4100
20
13980
30
0
11
16060
21
13980
31
0
0
TEXT
5
407
330
10E
100
AcDbEntity
8
ST-SHEET-TITLE
100
AcDbText
10
4100
20
13680
30
0
40
200
1
SCALE : 1:100
7
STANDARD
72
0
100
AcDbText
73
0
0
ENDBLK
5
408
330
10E
100
AcDbEntity
8
0
100
AcDbBlockEnd
0
ENDSEC
0
SECTION
2
ENTITIES
0
INSERT
5
409
330
108
100
AcDbEntity
8
0
100
AcDbBlockReference
2
FRAMING_REBAR_AROUND_OPENINGS_L02
10
0
20
0
30
0
41
1
42
1
43
1
50
0
0
ENDSEC
0
SECTION
2
OBJECTS
0
DICTIONARY
5
100
330
0
100
AcDbDictionary
281
1
3
ACAD_GROUP
350
101
3
ACAD_LAYOUT
350
104
3
ACAD_PLOTSTYLENAME
350
102
0
DICTIONARY
5
101
330
100
100
AcDbDictionary
281
1
0
ACDBDICTIONARYWDFLT
5
102
330
100
100
AcDbDictionary
281
1
3
Normal
350
103
100
AcDbDictionaryWithDefault
340
103
0
ACDBPLACEHOLDER
5
103
330
102
0
DICTIONARY
5
104
330
100
100
AcDbDictionary
281
1
3
Model
350
105
3
Layout1
350
106
0
LAYOUT
5
105
330
104
100
AcDbPlotSettings
1

2
none_device
4

6

40
0
41
0
42
0
43
0
44
0
45
0
46
0
47
0
48
0
49
0
140
0
141
0
142
1
143
1
70
1712
72
0
73
0
74
5
7

75
16
147
1
148
0
149
0
100
AcDbLayout
1
Model
70
1
71
0
10
0
20
0
11
12
21
9
12
0
22
0
32
0
14
0
24
0
34
0
15
0
25
0
35
0
146
0
13
0
23
0
33
0
16
1
26
0
36
0
17
0
27
1
37
0
76
0
330
108
0
LAYOUT
5
106
330
104
100
AcDbPlotSettings
1

2
none_device
4

6

40
0
41
0
42
0
43
0
44
0
45
0
46
0
47
0
48
0
49
0
140
0
141
0
142
1
143
1
70
688
72
0
73
0
74
5
7

75
16
147
1
148
0
149
0
100
AcDbLayout
1
Layout1
70
1
71
1
10
0
20
0
11
12
21
9
12
0
22
0
32
0
14
0
24
0
34
0
15
0
25
0
35
0
146
0
13
0
23
0
33
0
16
1
26
0
36
0
17
0
27
1
37
0
76
0
330
109
0
ENDSEC
0
EOF
