0
SECTION
2
HEADER
9
$ACADVER
1
AC1015
9
$DWGCODEPAGE
3
ANSI_1252
9
$INSBASE
10
0
20
0
30
0
9
$EXTMIN
10
0
20
0
30
0
9
$EXTMAX
10
85296
20
59400
30
0
9
$LIMMIN
10
0
20
0
9
$LIMMAX
10
85296
20
59400
9
$ORTHOMODE
70
0
9
$LTSCALE
40
25
9
$TEXTSIZE
40
2.5
9
$TEXTSTYLE
7
STANDARD
9
$CLAYER
8
0
9
$CELTYPE
6
BYLAYER
9
$CECOLOR
62
256
9
$DIMSTYLE
2
STANDARD
9
$INSUNITS
70
4
9
$MEASUREMENT
70
1
9
$PDMODE
70
0
9
$PSLTSCALE
70
1
9
$TILEMODE
70
1
9
$HANDSEED
5
414
0
ENDSEC
0
SECTION
2
CLASSES
0
ENDSEC
0
SECTION
2
TABLES
0
TABLE
2
VPORT
5
10F
330
0
100
AcDbSymbolTable
70
1
0
VPORT
5
110
330
10F
100
AcDbSymbolTableRecord
100
AcDbViewportTableRecord
2
*Active
70
0
10
0
20
0
11
1
21
1
12
42648
22
29700
13
0
23
0
14
10
24
10
15
10
25
10
16
0
26
0
36
1
17
0
27
0
37
0
40
65340
41
1.43596
42
50
43
0
44
0
50
0
51
0
71
0
72
1000
73
1
74
3
75
0
76
0
77
0
78
0
281
0
65
1
110
0
120
0
130
0
111
1
121
0
131
0
112
0
122
1
132
0
79
0
146
0
0
ENDTAB
0
TABLE
2
LTYPE
5
111
330
0
100
AcDbSymbolTable
70
8
0
LTYPE
5
112
330
111
100
AcDbSymbolTableRecord
100
AcDbLinetypeTableRecord
2
ByBlock
70
0
3

72
65
73
0
40
0
0
LTYPE
5
113
330
111
100
AcDbSymbolTableRecord
100
AcDbLinetypeTableRecord
2
ByLayer
70
0
3

72
65
73
0
40
0
0
LTYPE
5
114
330
111
100
AcDbSymbolTableRecord
100
AcDbLinetypeTableRecord
2
CONTINUOUS
70
0
3
Solid line
72
65
73
0
40
0
0
LTYPE
5
115
330
111
100
AcDbSymbolTableRecord
100
AcDbLinetypeTableRecord
2
DASHED
70
0
3
Dashed __ __ __
72
65
73
2
40
19.05
49
12.7
74
0
49
-6.35
74
0
0
LTYPE
5
116
330
111
100
AcDbSymbolTableRecord
100
AcDbLinetypeTableRecord
2
HIDDEN
70
0
3
Hidden __ __ __
72
65
73
2
40
9.525
49
6.35
74
0
49
-3.175
74
0
0
LTYPE
5
117
330
111
100
AcDbSymbolTableRecord
100
AcDbLinetypeTableRecord
2
CENTER
70
0
3
Center ____ _ ____ _
72
65
73
4
40
50.8
49
31.75
74
0
49
-6.35
74
0
49
6.35
74
0
49
-6.35
74
0
0
LTYPE
5
118
330
111
100
AcDbSymbolTableRecord
100
AcDbLinetypeTableRecord
2
DASHDOT
70
0
3
Dash dot __ . __ . __
72
65
73
4
40
25.4
49
12.7
74
0
49
-6.35
74
0
49
0
74
0
49
-6.35
74
0
0
LTYPE
5
119
330
111
100
AcDbSymbolTableRecord
100
AcDbLinetypeTableRecord
2
PHANTOM
70
0
3
Phantom ____ _ _ ____
72
65
73
6
40
63.5
49
31.75
74
0
49
-6.35
74
0
49
6.35
74
0
49
-6.35
74
0
49
6.35
74
0
49
-6.35
74
0
0
ENDTAB
0
TABLE
2
LAYER
5
11A
330
0
100
AcDbSymbolTable
70
34
0
LAYER
5
11B
330
11A
100
AcDbSymbolTableRecord
100
AcDbLayerTableRecord
2
0
70
0
62
7
6
CONTINUOUS
370
-3
390
103
0
LAYER
5
11C
330
11A
100
AcDbSymbolTableRecord
100
AcDbLayerTableRecord
2
FRAME
70
0
62
7
6
CONTINUOUS
370
50
390
103
0
LAYER
5
11D
330
11A
100
AcDbSymbolTableRecord
100
AcDbLayerTableRecord
2
TITLE
70
0
62
7
6
CONTINUOUS
370
25
390
103
0
LAYER
5
11E
330
11A
100
AcDbSymbolTableRecord
100
AcDbLayerTableRecord
2
TEXT
70
0
62
7
6
CONTINUOUS
370
-3
390
103
0
LAYER
5
11F
330
11A
100
AcDbSymbolTableRecord
100
AcDbLayerTableRecord
2
TEXT-TITLE
70
0
62
2
6
CONTINUOUS
370
-3
390
103
0
LAYER
5
120
330
11A
100
AcDbSymbolTableRecord
100
AcDbLayerTableRecord
2
NOTES
70
0
62
7
6
CONTINUOUS
370
-3
390
103
0
LAYER
5
121
330
11A
100
AcDbSymbolTableRecord
100
AcDbLayerTableRecord
2
GRID
70
0
62
8
6
CENTER
370
-3
390
103
0
LAYER
5
122
330
11A
100
AcDbSymbolTableRecord
100
AcDbLayerTableRecord
2
GRID-BUBBLE
70
0
62
8
6
CONTINUOUS
370
-3
390
103
0
LAYER
5
123
330
11A
100
AcDbSymbolTableRecord
100
AcDbLayerTableRecord
2
OUTLINE
70
0
62
4
6
CONTINUOUS
370
35
390
103
0
LAYER
5
124
330
11A
100
AcDbSymbolTableRecord
100
AcDbLayerTableRecord
2
COLUMN
70
0
62
5
6
CONTINUOUS
370
35
390
103
0
LAYER
5
125
330
11A
100
AcDbSymbolTableRecord
100
AcDbLayerTableRecord
2
COLUMN-HATCH
70
0
62
8
6
CONTINUOUS
370
-3
390
103
0
LAYER
5
126
330
11A
100
AcDbSymbolTableRecord
100
AcDbLayerTableRecord
2
OPENING
70
0
62
6
6
CONTINUOUS
370
-3
390
103
0
LAYER
5
127
330
11A
100
AcDbSymbolTableRecord
100
AcDbLayerTableRecord
2
OPENING-HATCH
70
0
62
6
6
CONTINUOUS
370
-3
390
103
0
LAYER
5
128
330
11A
100
AcDbSymbolTableRecord
100
AcDbLayerTableRecord
2
VOID
70
0
62
30
6
DASHED
370
-3
390
103
0
LAYER
5
129
330
11A
100
AcDbSymbolTableRecord
100
AcDbLayerTableRecord
2
VOID-HATCH
70
0
62
30
6
CONTINUOUS
370
-3
390
103
0
LAYER
5
12A
330
11A
100
AcDbSymbolTableRecord
100
AcDbLayerTableRecord
2
PT-ZONE
70
0
62
4
6
DASHDOT
370
-3
390
103
0
LAYER
5
12B
330
11A
100
AcDbSymbolTableRecord
100
AcDbLayerTableRecord
2
PT-TENDON
70
0
62
3
6
CONTINUOUS
370
-3
390
103
0
LAYER
5
12C
330
11A
100
AcDbSymbolTableRecord
100
AcDbLayerTableRecord
2
PT-HATCH
70
0
62
4
6
CONTINUOUS
370
-3
390
103
0
LAYER
5
12D
330
11A
100
AcDbSymbolTableRecord
100
AcDbLayerTableRecord
2
REBAR-BOT
70
0
62
1
6
CONTINUOUS
370
50
390
103
0
LAYER
5
12E
330
11A
100
AcDbSymbolTableRecord
100
AcDbLayerTableRecord
2
REBAR-TOP
70
0
62
5
6
CONTINUOUS
370
50
390
103
0
LAYER
5
12F
330
11A
100
AcDbSymbolTableRecord
100
AcDbLayerTableRecord
2
REBAR-U
70
0
62
6
6
CONTINUOUS
370
50
390
103
0
LAYER
5
130
330
11A
100
AcDbSymbolTableRecord
100
AcDbLayerTableRecord
2
REBAR-TRIM
70
0
62
2
6
CONTINUOUS
370
50
390
103
0
LAYER
5
131
330
11A
100
AcDbSymbolTableRecord
100
AcDbLayerTableRecord
2
REBAR-EXTENT
70
0
62
1
6
CONTINUOUS
370
-3
390
103
0
LAYER
5
132
330
11A
100
AcDbSymbolTableRecord
100
AcDbLayerTableRecord
2
REBAR-TEXT
70
0
62
1
6
CONTINUOUS
370
-3
390
103
0
LAYER
5
133
330
11A
100
AcDbSymbolTableRecord
100
AcDbLayerTableRecord
2
CALLOUT
70
0
62
3
6
CONTINUOUS
370
-3
390
103
0
LAYER
5
134
330
11A
100
AcDbSymbolTableRecord
100
AcDbLayerTableRecord
2
DIM
70
0
62
8
6
CONTINUOUS
370
-3
390
103
0
LAYER
5
135
330
11A
100
AcDbSymbolTableRecord
100
AcDbLayerTableRecord
2
DETAIL
70
0
62
7
6
CONTINUOUS
370
-3
390
103
0
LAYER
5
136
330
11A
100
AcDbSymbolTableRecord
100
AcDbLayerTableRecord
2
DETAIL-HATCH
70
0
62
8
6
CONTINUOUS
370
-3
390
103
0
LAYER
5
137
330
11A
100
AcDbSymbolTableRecord
100
AcDbLayerTableRecord
2
SCHEDULE
70
0
62
7
6
CONTINUOUS
370
-3
390
103
0
LAYER
5
138
330
11A
100
AcDbSymbolTableRecord
100
AcDbLayerTableRecord
2
SCHEDULE-TEXT
70
0
62
7
6
CONTINUOUS
370
-3
390
103
0
LAYER
5
139
330
11A
100
AcDbSymbolTableRecord
100
AcDbLayerTableRecord
2
HATCH
70
0
62
8
6
CONTINUOUS
370
-3
390
103
0
LAYER
5
13A
330
11A
100
AcDbSymbolTableRecord
100
AcDbLayerTableRecord
2
CABLE
70
0
62
3
6
CONTINUOUS
370
50
390
103
0
LAYER
5
13B
330
11A
100
AcDbSymbolTableRecord
100
AcDbLayerTableRecord
2
CABLE-TEXT
70
0
62
3
6
CONTINUOUS
370
-3
390
103
0
LAYER
5
13C
330
11A
100
AcDbSymbolTableRecord
100
AcDbLayerTableRecord
2
XREF
70
0
62
7
6
CONTINUOUS
370
-3
390
103
0
ENDTAB
0
TABLE
2
STYLE
5
13D
330
0
100
AcDbSymbolTable
70
1
0
STYLE
5
13E
330
13D
100
AcDbSymbolTableRecord
100
AcDbTextStyleTableRecord
2
STANDARD
70
0
40
0
41
1
50
0
71
0
42
2.5
3
arial.ttf
4

0
ENDTAB
0
TABLE
2
VIEW
5
13F
330
0
100
AcDbSymbolTable
70
0
0
ENDTAB
0
TABLE
2
UCS
5
140
330
0
100
AcDbSymbolTable
70
0
0
ENDTAB
0
TABLE
2
APPID
5
141
330
0
100
AcDbSymbolTable
70
1
0
APPID
5
142
330
141
100
AcDbSymbolTableRecord
100
AcDbRegAppTableRecord
2
ACAD
70
0
0
ENDTAB
0
TABLE
2
DIMSTYLE
5
143
330
0
100
AcDbSymbolTable
70
1
100
AcDbDimStyleTable
0
DIMSTYLE
105
144
330
143
100
AcDbSymbolTableRecord
100
AcDbDimStyleTableRecord
2
STANDARD
70
0
40
1
41
2.5
42
0.625
43
3.75
44
1.25
140
2.5
141
2.5
147
0.625
0
ENDTAB
0
TABLE
2
BLOCK_RECORD
5
107
330
0
100
AcDbSymbolTable
70
3
0
BLOCK_RECORD
5
108
330
107
100
AcDbSymbolTableRecord
100
AcDbBlockTableRecord
2
*Model_Space
340
105
0
BLOCK_RECORD
5
109
330
107
100
AcDbSymbolTableRecord
100
AcDbBlockTableRecord
2
*Paper_Space
340
106
0
BLOCK_RECORD
5
10E
330
107
100
AcDbSymbolTableRecord
100
AcDbBlockTableRecord
2
FRAMING_REBAR_SLAB_PT_BOTTOM_L01
340
0
0
ENDTAB
0
ENDSEC
0
SECTION
2
BLOCKS
0
BLOCK
5
10A
330
108
100
AcDbEntity
8
0
100
AcDbBlockBegin
2
*Model_Space
70
0
10
0
20
0
30
0
3
*Model_Space
1

0
ENDBLK
5
10B
330
108
100
AcDbEntity
8
0
100
AcDbBlockEnd
0
BLOCK
5
10C
330
109
100
AcDbEntity
67
1
8
0
100
AcDbBlockBegin
2
*Paper_Space
70
0
10
0
20
0
30
0
3
*Paper_Space
1

0
ENDBLK
5
10D
330
109
100
AcDbEntity
67
1
8
0
100
AcDbBlockEnd
0
BLOCK
5
145
330
10E
100
AcDbEntity
8
0
100
AcDbBlockBegin
2
FRAMING_REBAR_SLAB_PT_BOTTOM_L01
70
0
10
0
20
0
30
0
3
FRAMING_REBAR_SLAB_PT_BOTTOM_L01
1

0
LWPOLYLINE
5
146
330
10E
100
AcDbEntity
8
FRAME
370
13
100
AcDbPolyline
90
4
70
1
43
0
10
0
20
0
10
84100
20
0
10
84100
20
59400
10
0
20
59400
0
LWPOLYLINE
5
147
330
10E
100
AcDbEntity
8
FRAME
100
AcDbPolyline
90
4
70
1
43
0
10
2000
20
1000
10
83100
20
1000
10
83100
20
58400
10
2000
20
58400
0
LINE
5
148
330
10E
100
AcDbEntity
8
FRAME
100
AcDbLine
10
42050
20
0
30
0
11
42050
21
600
31
0
0
LINE
5
149
330
10E
100
AcDbEntity
8
FRAME
100
AcDbLine
10
42050
20
59400
30
0
11
42050
21
58800
31
0
0
LINE
5
14A
330
10E
100
AcDbEntity
8
FRAME
100
AcDbLine
10
0
20
29700
30
0
11
600
21
29700
31
0
0
LINE
5
14B
330
10E
100
AcDbEntity
8
FRAME
100
AcDbLine
10
84100
20
29700
30
0
11
83500
21
29700
31
0
0
LINE
5
14C
330
10E
100
AcDbEntity
8
FRAME
370
13
100
AcDbLine
10
2000
20
58400
30
0
11
2000
21
59400
31
0
0
LINE
5
14D
330
10E
100
AcDbEntity
8
FRAME
370
13
100
AcDbLine
10
2000
20
0
30
0
11
2000
21
1000
31
0
0
TEXT
5
14E
330
10E
100
AcDbEntity
8
FRAME
100
AcDbText
10
7068.75
20
58900
30
0
40
250
1
1
7
STANDARD
72
1
11
7068.75
21
58900
31
0
100
AcDbText
73
2
0
TEXT
5
14F
330
10E
100
AcDbEntity
8
FRAME
100
AcDbText
10
7068.75
20
500
30
0
40
250
1
1
7
STANDARD
72
1
11
7068.75
21
500
31
0
100
AcDbText
73
2
0
LINE
5
150
330
10E
100
AcDbEntity
8
FRAME
370
13
100
AcDbLine
10
12137.5
20
58400
30
0
11
12137.5
21
59400
31
0
0
LINE
5
151
330
10E
100
AcDbEntity
8
FRAME
370
13
100
AcDbLine
10
12137.5
20
0
30
0
11
12137.5
21
1000
31
0
0
TEXT
5
152
330
10E
100
AcDbEntity
8
FRAME
100
AcDbText
10
17206.25
20
58900
30
0
40
250
1
2
7
STANDARD
72
1
11
17206.25
21
58900
31
0
100
AcDbText
73
2
0
TEXT
5
153
330
10E
100
AcDbEntity
8
FRAME
100
AcDbText
10
17206.25
20
500
30
0
40
250
1
2
7
STANDARD
72
1
11
17206.25
21
500
31
0
100
AcDbText
73
2
0
LINE
5
154
330
10E
100
AcDbEntity
8
FRAME
370
13
100
AcDbLine
10
22275
20
58400
30
0
11
22275
21
59400
31
0
0
LINE
5
155
330
10E
100
AcDbEntity
8
FRAME
370
13
100
AcDbLine
10
22275
20
0
30
0
11
22275
21
1000
31
0
0
TEXT
5
156
330
10E
100
AcDbEntity
8
FRAME
100
AcDbText
10
27343.75
20
58900
30
0
40
250
1
3
7
STANDARD
72
1
11
27343.75
21
58900
31
0
100
AcDbText
73
2
0
TEXT
5
157
330
10E
100
AcDbEntity
8
FRAME
100
AcDbText
10
27343.75
20
500
30
0
40
250
1
3
7
STANDARD
72
1
11
27343.75
21
500
31
0
100
AcDbText
73
2
0
LINE
5
158
330
10E
100
AcDbEntity
8
FRAME
370
13
100
AcDbLine
10
32412.5
20
58400
30
0
11
32412.5
21
59400
31
0
0
LINE
5
159
330
10E
100
AcDbEntity
8
FRAME
370
13
100
AcDbLine
10
32412.5
20
0
30
0
11
32412.5
21
1000
31
0
0
TEXT
5
15A
330
10E
100
AcDbEntity
8
FRAME
100
AcDbText
10
37481.25
20
58900
30
0
40
250
1
4
7
STANDARD
72
1
11
37481.25
21
58900
31
0
100
AcDbText
73
2
0
TEXT
5
15B
330
10E
100
AcDbEntity
8
FRAME
100
AcDbText
10
37481.25
20
500
30
0
40
250
1
4
7
STANDARD
72
1
11
37481.25
21
500
31
0
100
AcDbText
73
2
0
LINE
5
15C
330
10E
100
AcDbEntity
8
FRAME
370
13
100
AcDbLine
10
42550
20
58400
30
0
11
42550
21
59400
31
0
0
LINE
5
15D
330
10E
100
AcDbEntity
8
FRAME
370
13
100
AcDbLine
10
42550
20
0
30
0
11
42550
21
1000
31
0
0
TEXT
5
15E
330
10E
100
AcDbEntity
8
FRAME
100
AcDbText
10
47618.75
20
58900
30
0
40
250
1
5
7
STANDARD
72
1
11
47618.75
21
58900
31
0
100
AcDbText
73
2
0
TEXT
5
15F
330
10E
100
AcDbEntity
8
FRAME
100
AcDbText
10
47618.75
20
500
30
0
40
250
1
5
7
STANDARD
72
1
11
47618.75
21
500
31
0
100
AcDbText
73
2
0
LINE
5
160
330
10E
100
AcDbEntity
8
FRAME
370
13
100
AcDbLine
10
52687.5
20
58400
30
0
11
52687.5
21
59400
31
0
0
LINE
5
161
330
10E
100
AcDbEntity
8
FRAME
370
13
100
AcDbLine
10
52687.5
20
0
30
0
11
52687.5
21
1000
31
0
0
TEXT
5
162
330
10E
100
AcDbEntity
8
FRAME
100
AcDbText
10
57756.25
20
58900
30
0
40
250
1
6
7
STANDARD
72
1
11
57756.25
21
58900
31
0
100
AcDbText
73
2
0
TEXT
5
163
330
10E
100
AcDbEntity
8
FRAME
100
AcDbText
10
57756.25
20
500
30
0
40
250
1
6
7
STANDARD
72
1
11
57756.25
21
500
31
0
100
AcDbText
73
2
0
LINE
5
164
330
10E
100
AcDbEntity
8
FRAME
370
13
100
AcDbLine
10
62825
20
58400
30
0
11
62825
21
59400
31
0
0
LINE
5
165
330
10E
100
AcDbEntity
8
FRAME
370
13
100
AcDbLine
10
62825
20
0
30
0
11
62825
21
1000
31
0
0
TEXT
5
166
330
10E
100
AcDbEntity
8
FRAME
100
AcDbText
10
67893.75
20
58900
30
0
40
250
1
7
7
STANDARD
72
1
11
67893.75
21
58900
31
0
100
AcDbText
73
2
0
TEXT
5
167
330
10E
100
AcDbEntity
8
FRAME
100
AcDbText
10
67893.75
20
500
30
0
40
250
1
7
7
STANDARD
72
1
11
67893.75
21
500
31
0
100
AcDbText
73
2
0
LINE
5
168
330
10E
100
AcDbEntity
8
FRAME
370
13
100
AcDbLine
10
72962.5
20
58400
30
0
11
72962.5
21
59400
31
0
0
LINE
5
169
330
10E
100
AcDbEntity
8
FRAME
370
13
100
AcDbLine
10
72962.5
20
0
30
0
11
72962.5
21
1000
31
0
0
TEXT
5
16A
330
10E
100
AcDbEntity
8
FRAME
100
AcDbText
10
78031.25
20
58900
30
0
40
250
1
8
7
STANDARD
72
1
11
78031.25
21
58900
31
0
100
AcDbText
73
2
0
TEXT
5
16B
330
10E
100
AcDbEntity
8
FRAME
100
AcDbText
10
78031.25
20
500
30
0
40
250
1
8
7
STANDARD
72
1
11
78031.25
21
500
31
0
100
AcDbText
73
2
0
LINE
5
16C
330
10E
100
AcDbEntity
8
FRAME
370
13
100
AcDbLine
10
83100
20
58400
30
0
11
83100
21
59400
31
0
0
LINE
5
16D
330
10E
100
AcDbEntity
8
FRAME
370
13
100
AcDbLine
10
83100
20
0
30
0
11
83100
21
1000
31
0
0
LINE
5
16E
330
10E
100
AcDbEntity
8
FRAME
370
13
100
AcDbLine
10
0
20
1000
30
0
11
2000
21
1000
31
0
0
LINE
5
16F
330
10E
100
AcDbEntity
8
FRAME
370
13
100
AcDbLine
10
83100
20
1000
30
0
11
84100
21
1000
31
0
0
TEXT
5
170
330
10E
100
AcDbEntity
8
FRAME
100
AcDbText
10
1000
20
5783.333333
30
0
40
250
1
F
7
STANDARD
72
1
11
1000
21
5783.333333
31
0
100
AcDbText
73
2
0
TEXT
5
171
330
10E
100
AcDbEntity
8
FRAME
100
AcDbText
10
83600
20
5783.333333
30
0
40
250
1
F
7
STANDARD
72
1
11
83600
21
5783.333333
31
0
100
AcDbText
73
2
0
LINE
5
172
330
10E
100
AcDbEntity
8
FRAME
370
13
100
AcDbLine
10
0
20
10566.666667
30
0
11
2000
21
10566.666667
31
0
0
LINE
5
173
330
10E
100
AcDbEntity
8
FRAME
370
13
100
AcDbLine
10
83100
20
10566.666667
30
0
11
84100
21
10566.666667
31
0
0
TEXT
5
174
330
10E
100
AcDbEntity
8
FRAME
100
AcDbText
10
1000
20
15350
30
0
40
250
1
E
7
STANDARD
72
1
11
1000
21
15350
31
0
100
AcDbText
73
2
0
TEXT
5
175
330
10E
100
AcDbEntity
8
FRAME
100
AcDbText
10
83600
20
15350
30
0
40
250
1
E
7
STANDARD
72
1
11
83600
21
15350
31
0
100
AcDbText
73
2
0
LINE
5
176
330
10E
100
AcDbEntity
8
FRAME
370
13
100
AcDbLine
10
0
20
20133.333333
30
0
11
2000
21
20133.333333
31
0
0
LINE
5
177
330
10E
100
AcDbEntity
8
FRAME
370
13
100
AcDbLine
10
83100
20
20133.333333
30
0
11
84100
21
20133.333333
31
0
0
TEXT
5
178
330
10E
100
AcDbEntity
8
FRAME
100
AcDbText
10
1000
20
24916.666667
30
0
40
250
1
D
7
STANDARD
72
1
11
1000
21
24916.666667
31
0
100
AcDbText
73
2
0
TEXT
5
179
330
10E
100
AcDbEntity
8
FRAME
100
AcDbText
10
83600
20
24916.666667
30
0
40
250
1
D
7
STANDARD
72
1
11
83600
21
24916.666667
31
0
100
AcDbText
73
2
0
LINE
5
17A
330
10E
100
AcDbEntity
8
FRAME
370
13
100
AcDbLine
10
0
20
29700
30
0
11
2000
21
29700
31
0
0
LINE
5
17B
330
10E
100
AcDbEntity
8
FRAME
370
13
100
AcDbLine
10
83100
20
29700
30
0
11
84100
21
29700
31
0
0
TEXT
5
17C
330
10E
100
AcDbEntity
8
FRAME
100
AcDbText
10
1000
20
34483.333333
30
0
40
250
1
C
7
STANDARD
72
1
11
1000
21
34483.333333
31
0
100
AcDbText
73
2
0
TEXT
5
17D
330
10E
100
AcDbEntity
8
FRAME
100
AcDbText
10
83600
20
34483.333333
30
0
40
250
1
C
7
STANDARD
72
1
11
83600
21
34483.333333
31
0
100
AcDbText
73
2
0
LINE
5
17E
330
10E
100
AcDbEntity
8
FRAME
370
13
100
AcDbLine
10
0
20
39266.666667
30
0
11
2000
21
39266.666667
31
0
0
LINE
5
17F
330
10E
100
AcDbEntity
8
FRAME
370
13
100
AcDbLine
10
83100
20
39266.666667
30
0
11
84100
21
39266.666667
31
0
0
TEXT
5
180
330
10E
100
AcDbEntity
8
FRAME
100
AcDbText
10
1000
20
44050
30
0
40
250
1
B
7
STANDARD
72
1
11
1000
21
44050
31
0
100
AcDbText
73
2
0
TEXT
5
181
330
10E
100
AcDbEntity
8
FRAME
100
AcDbText
10
83600
20
44050
30
0
40
250
1
B
7
STANDARD
72
1
11
83600
21
44050
31
0
100
AcDbText
73
2
0
LINE
5
182
330
10E
100
AcDbEntity
8
FRAME
370
13
100
AcDbLine
10
0
20
48833.333333
30
0
11
2000
21
48833.333333
31
0
0
LINE
5
183
330
10E
100
AcDbEntity
8
FRAME
370
13
100
AcDbLine
10
83100
20
48833.333333
30
0
11
84100
21
48833.333333
31
0
0
TEXT
5
184
330
10E
100
AcDbEntity
8
FRAME
100
AcDbText
10
1000
20
53616.666667
30
0
40
250
1
A
7
STANDARD
72
1
11
1000
21
53616.666667
31
0
100
AcDbText
73
2
0
TEXT
5
185
330
10E
100
AcDbEntity
8
FRAME
100
AcDbText
10
83600
20
53616.666667
30
0
40
250
1
A
7
STANDARD
72
1
11
83600
21
53616.666667
31
0
100
AcDbText
73
2
0
LINE
5
186
330
10E
100
AcDbEntity
8
FRAME
370
13
100
AcDbLine
10
0
20
58400
30
0
11
2000
21
58400
31
0
0
LINE
5
187
330
10E
100
AcDbEntity
8
FRAME
370
13
100
AcDbLine
10
83100
20
58400
30
0
11
84100
21
58400
31
0
0
LINE
5
188
330
10E
100
AcDbEntity
8
FRAME
100
AcDbLine
10
64600
20
1000
30
0
11
64600
21
58400
31
0
0
LINE
5
189
330
10E
100
AcDbEntity
8
FRAME
100
AcDbLine
10
2000
20
13500
30
0
11
64600
21
13500
31
0
0
LINE
5
18A
330
10E
100
AcDbEntity
8
FRAME
100
AcDbLine
10
64600
20
13500
30
0
11
83100
21
13500
31
0
0
LINE
5
18B
330
10E
100
AcDbEntity
8
FRAME
100
AcDbLine
10
64600
20
38600
30
0
11
83100
21
38600
31
0
0
LINE
5
18C
330
10E
100
AcDbEntity
8
GRID
100
AcDbLine
10
18550
20
19950
30
0
11
18550
21
51950
31
0
0
CIRCLE
5
18D
330
10E
100
AcDbEntity
8
GRID-BUBBLE
100
AcDbCircle
10
18550
20
52350
30
0
40
400
0
TEXT
5
18E
330
10E
100
AcDbEntity
8
TEXT
100
AcDbText
10
18550
20
52350
30
0
40
320
1
A
7
STANDARD
72
1
11
18550
21
52350
31
0
100
AcDbText
73
2
0
LINE
5
18F
330
10E
100
AcDbEntity
8
GRID
100
AcDbLine
10
26050
20
19950
30
0
11
26050
21
51950
31
0
0
CIRCLE
5
190
330
10E
100
AcDbEntity
8
GRID-BUBBLE
100
AcDbCircle
10
26050
20
52350
30
0
40
400
0
TEXT
5
191
330
10E
100
AcDbEntity
8
TEXT
100
AcDbText
10
26050
20
52350
30
0
40
320
1
B
7
STANDARD
72
1
11
26050
21
52350
31
0
100
AcDbText
73
2
0
LINE
5
192
330
10E
100
AcDbEntity
8
GRID
100
AcDbLine
10
33550
20
19950
30
0
11
33550
21
51950
31
0
0
CIRCLE
5
193
330
10E
100
AcDbEntity
8
GRID-BUBBLE
100
AcDbCircle
10
33550
20
52350
30
0
40
400
0
TEXT
5
194
330
10E
100
AcDbEntity
8
TEXT
100
AcDbText
10
33550
20
52350
30
0
40
320
1
C
7
STANDARD
72
1
11
33550
21
52350
31
0
100
AcDbText
73
2
0
LINE
5
195
330
10E
100
AcDbEntity
8
GRID
100
AcDbLine
10
41050
20
19950
30
0
11
41050
21
51950
31
0
0
CIRCLE
5
196
330
10E
100
AcDbEntity
8
GRID-BUBBLE
100
AcDbCircle
10
41050
20
52350
30
0
40
400
0
TEXT
5
197
330
10E
100
AcDbEntity
8
TEXT
100
AcDbText
10
41050
20
52350
30
0
40
320
1
D
7
STANDARD
72
1
11
41050
21
52350
31
0
100
AcDbText
73
2
0
LINE
5
198
330
10E
100
AcDbEntity
8
GRID
100
AcDbLine
10
48550
20
19950
30
0
11
48550
21
51950
31
0
0
CIRCLE
5
199
330
10E
100
AcDbEntity
8
GRID-BUBBLE
100
AcDbCircle
10
48550
20
52350
30
0
40
400
0
TEXT
5
19A
330
10E
100
AcDbEntity
8
TEXT
100
AcDbText
10
48550
20
52350
30
0
40
320
1
E
7
STANDARD
72
1
11
48550
21
52350
31
0
100
AcDbText
73
2
0
LINE
5
19B
330
10E
100
AcDbEntity
8
GRID
100
AcDbLine
10
14050
20
23950
30
0
11
52550
21
23950
31
0
0
CIRCLE
5
19C
330
10E
100
AcDbEntity
8
GRID-BUBBLE
100
AcDbCircle
10
13650
20
23950
30
0
40
400
0
TEXT
5
19D
330
10E
100
AcDbEntity
8
TEXT
100
AcDbText
10
13650
20
23950
30
0
40
320
1
1
7
STANDARD
72
1
11
13650
21
23950
31
0
100
AcDbText
73
2
0
LINE
5
19E
330
10E
100
AcDbEntity
8
GRID
100
AcDbLine
10
14050
20
31950
30
0
11
52550
21
31950
31
0
0
CIRCLE
5
19F
330
10E
100
AcDbEntity
8
GRID-BUBBLE
100
AcDbCircle
10
13650
20
31950
30
0
40
400
0
TEXT
5
1A0
330
10E
100
AcDbEntity
8
TEXT
100
AcDbText
10
13650
20
31950
30
0
40
320
1
2
7
STANDARD
72
1
11
13650
21
31950
31
0
100
AcDbText
73
2
0
LINE
5
1A1
330
10E
100
AcDbEntity
8
GRID
100
AcDbLine
10
14050
20
39950
30
0
11
52550
21
39950
31
0
0
CIRCLE
5
1A2
330
10E
100
AcDbEntity
8
GRID-BUBBLE
100
AcDbCircle
10
13650
20
39950
30
0
40
400
0
TEXT
5
1A3
330
10E
100
AcDbEntity
8
TEXT
100
AcDbText
10
13650
20
39950
30
0
40
320
1
3
7
STANDARD
72
1
11
13650
21
39950
31
0
100
AcDbText
73
2
0
LINE
5
1A4
330
10E
100
AcDbEntity
8
GRID
100
AcDbLine
10
14050
20
47950
30
0
11
52550
21
47950
31
0
0
CIRCLE
5
1A5
330
10E
100
AcDbEntity
8
GRID-BUBBLE
100
AcDbCircle
10
13650
20
47950
30
0
40
400
0
TEXT
5
1A6
330
10E
100
AcDbEntity
8
TEXT
100
AcDbText
10
13650
20
47950
30
0
40
320
1
4
7
STANDARD
72
1
11
13650
21
47950
31
0
100
AcDbText
73
2
0
LINE
5
1A7
330
10E
100
AcDbEntity
8
DIM
100
AcDbLine
10
18550
20
20750
30
0
11
18550
21
20300
31
0
0
LINE
5
1A8
330
10E
100
AcDbEntity
8
DIM
100
AcDbLine
10
26050
20
20750
30
0
11
26050
21
20300
31
0
0
LINE
5
1A9
330
10E
100
AcDbEntity
8
DIM
100
AcDbLine
10
18550
20
20150
30
0
11
26050
21
20150
31
0
0
LINE
5
1AA
330
10E
100
AcDbEntity
8
DIM
100
AcDbLine
10
18480
20
20080
30
0
11
18620
21
20220
31
0
0
LINE
5
1AB
330
10E
100
AcDbEntity
8
DIM
100
AcDbLine
10
25980
20
20080
30
0
11
26120
21
20220
31
0
0
TEXT
5
1AC
330
10E
100
AcDbEntity
8
DIM
100
AcDbText
10
22300
20
20230
30
0
40
200
1
7500
7
STANDARD
72
1
11
22300
21
20230
31
0
100
AcDbText
73
0
0
LINE
5
1AD
330
10E
100
AcDbEntity
8
DIM
100
AcDbLine
10
26050
20
20750
30
0
11
26050
21
20300
31
0
0
LINE
5
1AE
330
10E
100
AcDbEntity
8
DIM
100
AcDbLine
10
33550
20
20750
30
0
11
33550
21
20300
31
0
0
LINE
5
1AF
330
10E
100
AcDbEntity
8
DIM
100
AcDbLine
10
26050
20
20150
30
0
11
33550
21
20150
31
0
0
LINE
5
1B0
330
10E
100
AcDbEntity
8
DIM
100
AcDbLine
10
25980
20
20080
30
0
11
26120
21
20220
31
0
0
LINE
5
1B1
330
10E
100
AcDbEntity
8
DIM
100
AcDbLine
10
33480
20
20080
30
0
11
33620
21
20220
31
0
0
TEXT
5
1B2
330
10E
100
AcDbEntity
8
DIM
100
AcDbText
10
29800
20
20230
30
0
40
200
1
7500
7
STANDARD
72
1
11
29800
21
20230
31
0
100
AcDbText
73
0
0
LINE
5
1B3
330
10E
100
AcDbEntity
8
DIM
100
AcDbLine
10
33550
20
20750
30
0
11
33550
21
20300
31
0
0
LINE
5
1B4
330
10E
100
AcDbEntity
8
DIM
100
AcDbLine
10
41050
20
20750
30
0
11
41050
21
20300
31
0
0
LINE
5
1B5
330
10E
100
AcDbEntity
8
DIM
100
AcDbLine
10
33550
20
20150
30
0
11
41050
21
20150
31
0
0
LINE
5
1B6
330
10E
100
AcDbEntity
8
DIM
100
AcDbLine
10
33480
20
20080
30
0
11
33620
21
20220
31
0
0
LINE
5
1B7
330
10E
100
AcDbEntity
8
DIM
100
AcDbLine
10
40980
20
20080
30
0
11
41120
21
20220
31
0
0
TEXT
5
1B8
330
10E
100
AcDbEntity
8
DIM
100
AcDbText
10
37300
20
20230
30
0
40
200
1
7500
7
STANDARD
72
1
11
37300
21
20230
31
0
100
AcDbText
73
0
0
LINE
5
1B9
330
10E
100
AcDbEntity
8
DIM
100
AcDbLine
10
41050
20
20750
30
0
11
41050
21
20300
31
0
0
LINE
5
1BA
330
10E
100
AcDbEntity
8
DIM
100
AcDbLine
10
48550
20
20750
30
0
11
48550
21
20300
31
0
0
LINE
5
1BB
330
10E
100
AcDbEntity
8
DIM
100
AcDbLine
10
41050
20
20150
30
0
11
48550
21
20150
31
0
0
LINE
5
1BC
330
10E
100
AcDbEntity
8
DIM
100
AcDbLine
10
40980
20
20080
30
0
11
41120
21
20220
31
0
0
LINE
5
1BD
330
10E
100
AcDbEntity
8
DIM
100
AcDbLine
10
48480
20
20080
30
0
11
48620
21
20220
31
0
0
TEXT
5
1BE
330
10E
100
AcDbEntity
8
DIM
100
AcDbText
10
44800
20
20230
30
0
40
200
1
7500
7
STANDARD
72
1
11
44800
21
20230
31
0
100
AcDbText
73
0
0
LINE
5
1BF
330
10E
100
AcDbEntity
8
DIM
100
AcDbLine
10
18550
20
20750
30
0
11
18550
21
19600
31
0
0
LINE
5
1C0
330
10E
100
AcDbEntity
8
DIM
100
AcDbLine
10
48550
20
20750
30
0
11
48550
21
19600
31
0
0
LINE
5
1C1
330
10E
100
AcDbEntity
8
DIM
100
AcDbLine
10
18550
20
19450
30
0
11
48550
21
19450
31
0
0
LINE
5
1C2
330
10E
100
AcDbEntity
8
DIM
100
AcDbLine
10
18480
20
19380
30
0
11
18620
21
19520
31
0
0
LINE
5
1C3
330
10E
100
AcDbEntity
8
DIM
100
AcDbLine
10
48480
20
19380
30
0
11
48620
21
19520
31
0
0
TEXT
5
1C4
330
10E
100
AcDbEntity
8
DIM
100
AcDbText
10
33550
20
19530
30
0
40
200
1
30000
7
STANDARD
72
1
11
33550
21
19530
31
0
100
AcDbText
73
0
0
LINE
5
1C5
330
10E
100
AcDbEntity
8
DIM
100
AcDbLine
10
51750
20
23950
30
0
11
52200
21
23950
31
0
0
LINE
5
1C6
330
10E
100
AcDbEntity
8
DIM
100
AcDbLine
10
51750
20
31950
30
0
11
52200
21
31950
31
0
0
LINE
5
1C7
330
10E
100
AcDbEntity
8
DIM
100
AcDbLine
10
52350
20
23950
30
0
11
52350
21
31950
31
0
0
LINE
5
1C8
330
10E
100
AcDbEntity
8
DIM
100
AcDbLine
10
52420
20
23880
30
0
11
52280
21
24020
31
0
0
LINE
5
1C9
330
10E
100
AcDbEntity
8
DIM
100
AcDbLine
10
52420
20
31880
30
0
11
52280
21
32020
31
0
0
TEXT
5
1CA
330
10E
100
AcDbEntity
8
DIM
100
AcDbText
10
52270
20
27950
30
0
40
200
1
8000
50
90
7
STANDARD
72
1
11
52270
21
27950
31
0
100
AcDbText
73
0
0
LINE
5
1CB
330
10E
100
AcDbEntity
8
DIM
100
AcDbLine
10
51750
20
31950
30
0
11
52200
21
31950
31
0
0
LINE
5
1CC
330
10E
100
AcDbEntity
8
DIM
100
AcDbLine
10
51750
20
39950
30
0
11
52200
21
39950
31
0
0
LINE
5
1CD
330
10E
100
AcDbEntity
8
DIM
100
AcDbLine
10
52350
20
31950
30
0
11
52350
21
39950
31
0
0
LINE
5
1CE
330
10E
100
AcDbEntity
8
DIM
100
AcDbLine
10
52420
20
31880
30
0
11
52280
21
32020
31
0
0
LINE
5
1CF
330
10E
100
AcDbEntity
8
DIM
100
AcDbLine
10
52420
20
39880
30
0
11
52280
21
40020
31
0
0
TEXT
5
1D0
330
10E
100
AcDbEntity
8
DIM
100
AcDbText
10
52270
20
35950
30
0
40
200
1
8000
50
90
7
STANDARD
72
1
11
52270
21
35950
31
0
100
AcDbText
73
0
0
LINE
5
1D1
330
10E
100
AcDbEntity
8
DIM
100
AcDbLine
10
51750
20
39950
30
0
11
52200
21
39950
31
0
0
LINE
5
1D2
330
10E
100
AcDbEntity
8
DIM
100
AcDbLine
10
51750
20
47950
30
0
11
52200
21
47950
31
0
0
LINE
5
1D3
330
10E
100
AcDbEntity
8
DIM
100
AcDbLine
10
52350
20
39950
30
0
11
52350
21
47950
31
0
0
LINE
5
1D4
330
10E
100
AcDbEntity
8
DIM
100
AcDbLine
10
52420
20
39880
30
0
11
52280
21
40020
31
0
0
LINE
5
1D5
330
10E
100
AcDbEntity
8
DIM
100
AcDbLine
10
52420
20
47880
30
0
11
52280
21
48020
31
0
0
TEXT
5
1D6
330
10E
100
AcDbEntity
8
DIM
100
AcDbText
10
52270
20
43950
30
0
40
200
1
8000
50
90
7
STANDARD
72
1
11
52270
21
43950
31
0
100
AcDbText
73
0
0
LINE
5
1D7
330
10E
100
AcDbEntity
8
DIM
100
AcDbLine
10
51750
20
23950
30
0
11
52900
21
23950
31
0
0
LINE
5
1D8
330
10E
100
AcDbEntity
8
DIM
100
AcDbLine
10
51750
20
47950
30
0
11
52900
21
47950
31
0
0
LINE
5
1D9
330
10E
100
AcDbEntity
8
DIM
100
AcDbLine
10
53050
20
23950
30
0
11
53050
21
47950
31
0
0
LINE
5
1DA
330
10E
100
AcDbEntity
8
DIM
100
AcDbLine
10
53120
20
23880
30
0
11
52980
21
24020
31
0
0
LINE
5
1DB
330
10E
100
AcDbEntity
8
DIM
100
AcDbLine
10
53120
20
47880
30
0
11
52980
21
48020
31
0
0
TEXT
5
1DC
330
10E
100
AcDbEntity
8
DIM
100
AcDbText
10
52970
20
35950
30
0
40
200
1
24000
50
90
7
STANDARD
72
1
11
52970
21
35950
31
0
100
AcDbText
73
0
0
LWPOLYLINE
5
1DD
330
10E
100
AcDbEntity
8
OUTLINE
100
AcDbPolyline
90
6
70
1
43
0
10
17050
20
22950
10
49550
20
22950
10
49550
20
43950
10
44550
20
43950
10
44550
20
48950
10
17050
20
48950
0
LWPOLYLINE
5
1DE
330
10E
100
AcDbEntity
8
PT-ZONE
100
AcDbPolyline
90
6
70
1
43
0
10
17050
20
22950
10
49550
20
22950
10
49550
20
43950
10
44550
20
43950
10
44550
20
48950
10
17050
20
48950
0
TEXT
5
1DF
330
10E
100
AcDbEntity
8
PT-ZONE
100
AcDbText
10
17650
20
48050
30
0
40
220
1
PT1 - PT SLAB ZONE
7
STANDARD
72
0
100
AcDbText
73
0
0
LWPOLYLINE
5
1E0
330
10E
100
AcDbEntity
8
COLUMN
100
AcDbPolyline
90
4
70
1
43
0
10
18250
20
47650
10
18850
20
47650
10
18850
20
48250
10
18250
20
48250
0
HATCH
5
1E1
330
10E
100
AcDbEntity
8
COLUMN-HATCH
100
AcDbHatch
10
0
20
0
30
0
210
0
220
0
230
1
2
ANSI31
70
0
71
0
91
1
92
3
72
0
73
1
93
4
10
18250
20
47650
10
18850
20
47650
10
18850
20
48250
10
18250
20
48250
97
0
75
1
76
1
52
0
41
37.795276
77
0
78
1
53
45
43
0
44
0
45
-84.852814
46
84.852814
79
0
47
1
98
0
0
LWPOLYLINE
5
1E2
330
10E
100
AcDbEntity
8
COLUMN
100
AcDbPolyline
90
4
70
1
43
0
10
25750
20
47650
10
26350
20
47650
10
26350
20
48250
10
25750
20
48250
0
HATCH
5
1E3
330
10E
100
AcDbEntity
8
COLUMN-HATCH
100
AcDbHatch
10
0
20
0
30
0
210
0
220
0
230
1
2
ANSI31
70
0
71
0
91
1
92
3
72
0
73
1
93
4
10
25750
20
47650
10
26350
20
47650
10
26350
20
48250
10
25750
20
48250
97
0
75
1
76
1
52
0
41
37.795276
77
0
78
1
53
45
43
0
44
0
45
-84.852814
46
84.852814
79
0
47
1
98
0
0
LWPOLYLINE
5
1E4
330
10E
100
AcDbEntity
8
COLUMN
100
AcDbPolyline
90
4
70
1
43
0
10
33250
20
47650
10
33850
20
47650
10
33850
20
48250
10
33250
20
48250
0
HATCH
5
1E5
330
10E
100
AcDbEntity
8
COLUMN-HATCH
100
AcDbHatch
10
0
20
0
30
0
210
0
220
0
230
1
2
ANSI31
70
0
71
0
91
1
92
3
72
0
73
1
93
4
10
33250
20
47650
10
33850
20
47650
10
33850
20
48250
10
33250
20
48250
97
0
75
1
76
1
52
0
41
37.795276
77
0
78
1
53
45
43
0
44
0
45
-84.852814
46
84.852814
79
0
47
1
98
0
0
LWPOLYLINE
5
1E6
330
10E
100
AcDbEntity
8
COLUMN
100
AcDbPolyline
90
4
70
1
43
0
10
40750
20
47650
10
41350
20
47650
10
41350
20
48250
10
40750
20
48250
0
HATCH
5
1E7
330
10E
100
AcDbEntity
8
COLUMN-HATCH
100
AcDbHatch
10
0
20
0
30
0
210
0
220
0
230
1
2
ANSI31
70
0
71
0
91
1
92
3
72
0
73
1
93
4
10
40750
20
47650
10
41350
20
47650
10
41350
20
48250
10
40750
20
48250
97
0
75
1
76
1
52
0
41
37.795276
77
0
78
1
53
45
43
0
44
0
45
-84.852814
46
84.852814
79
0
47
1
98
0
0
LWPOLYLINE
5
1E8
330
10E
100
AcDbEntity
8
COLUMN
100
AcDbPolyline
90
4
70
1
43
0
10
18250
20
39650
10
18850
20
39650
10
18850
20
40250
10
18250
20
40250
0
HATCH
5
1E9
330
10E
100
AcDbEntity
8
COLUMN-HATCH
100
AcDbHatch
10
0
20
0
30
0
210
0
220
0
230
1
2
ANSI31
70
0
71
0
91
1
92
3
72
0
73
1
93
4
10
18250
20
39650
10
18850
20
39650
10
18850
20
40250
10
18250
20
40250
97
0
75
1
76
1
52
0
41
37.795276
77
0
78
1
53
45
43
0
44
0
45
-84.852814
46
84.852814
79
0
47
1
98
0
0
LWPOLYLINE
5
1EA
330
10E
100
AcDbEntity
8
COLUMN
100
AcDbPolyline
90
4
70
1
43
0
10
25750
20
39650
10
26350
20
39650
10
26350
20
40250
10
25750
20
40250
0
HATCH
5
1EB
330
10E
100
AcDbEntity
8
COLUMN-HATCH
100
AcDbHatch
10
0
20
0
30
0
210
0
220
0
230
1
2
ANSI31
70
0
71
0
91
1
92
3
72
0
73
1
93
4
10
25750
20
39650
10
26350
20
39650
10
26350
20
40250
10
25750
20
40250
97
0
75
1
76
1
52
0
41
37.795276
77
0
78
1
53
45
43
0
44
0
45
-84.852814
46
84.852814
79
0
47
1
98
0
0
LWPOLYLINE
5
1EC
330
10E
100
AcDbEntity
8
COLUMN
100
AcDbPolyline
90
4
70
1
43
0
10
33250
20
39650
10
33850
20
39650
10
33850
20
40250
10
33250
20
40250
0
HATCH
5
1ED
330
10E
100
AcDbEntity
8
COLUMN-HATCH
100
AcDbHatch
10
0
20
0
30
0
210
0
220
0
230
1
2
ANSI31
70
0
71
0
91
1
92
3
72
0
73
1
93
4
10
33250
20
39650
10
33850
20
39650
10
33850
20
40250
10
33250
20
40250
97
0
75
1
76
1
52
0
41
37.795276
77
0
78
1
53
45
43
0
44
0
45
-84.852814
46
84.852814
79
0
47
1
98
0
0
LWPOLYLINE
5
1EE
330
10E
100
AcDbEntity
8
COLUMN
100
AcDbPolyline
90
4
70
1
43
0
10
40750
20
39650
10
41350
20
39650
10
41350
20
40250
10
40750
20
40250
0
HATCH
5
1EF
330
10E
100
AcDbEntity
8
COLUMN-HATCH
100
AcDbHatch
10
0
20
0
30
0
210
0
220
0
230
1
2
ANSI31
70
0
71
0
91
1
92
3
72
0
73
1
93
4
10
40750
20
39650
10
41350
20
39650
10
41350
20
40250
10
40750
20
40250
97
0
75
1
76
1
52
0
41
37.795276
77
0
78
1
53
45
43
0
44
0
45
-84.852814
46
84.852814
79
0
47
1
98
0
0
LWPOLYLINE
5
1F0
330
10E
100
AcDbEntity
8
COLUMN
100
AcDbPolyline
90
4
70
1
43
0
10
48250
20
39650
10
48850
20
39650
10
48850
20
40250
10
48250
20
40250
0
HATCH
5
1F1
330
10E
100
AcDbEntity
8
COLUMN-HATCH
100
AcDbHatch
10
0
20
0
30
0
210
0
220
0
230
1
2
ANSI31
70
0
71
0
91
1
92
3
72
0
73
1
93
4
10
48250
20
39650
10
48850
20
39650
10
48850
20
40250
10
48250
20
40250
97
0
75
1
76
1
52
0
41
37.795276
77
0
78
1
53
45
43
0
44
0
45
-84.852814
46
84.852814
79
0
47
1
98
0
0
LWPOLYLINE
5
1F2
330
10E
100
AcDbEntity
8
COLUMN
100
AcDbPolyline
90
4
70
1
43
0
10
18250
20
31650
10
18850
20
31650
10
18850
20
32250
10
18250
20
32250
0
HATCH
5
1F3
330
10E
100
AcDbEntity
8
COLUMN-HATCH
100
AcDbHatch
10
0
20
0
30
0
210
0
220
0
230
1
2
ANSI31
70
0
71
0
91
1
92
3
72
0
73
1
93
4
10
18250
20
31650
10
18850
20
31650
10
18850
20
32250
10
18250
20
32250
97
0
75
1
76
1
52
0
41
37.795276
77
0
78
1
53
45
43
0
44
0
45
-84.852814
46
84.852814
79
0
47
1
98
0
0
LWPOLYLINE
5
1F4
330
10E
100
AcDbEntity
8
COLUMN
100
AcDbPolyline
90
4
70
1
43
0
10
25750
20
31650
10
26350
20
31650
10
26350
20
32250
10
25750
20
32250
0
HATCH
5
1F5
330
10E
100
AcDbEntity
8
COLUMN-HATCH
100
AcDbHatch
10
0
20
0
30
0
210
0
220
0
230
1
2
ANSI31
70
0
71
0
91
1
92
3
72
0
73
1
93
4
10
25750
20
31650
10
26350
20
31650
10
26350
20
32250
10
25750
20
32250
97
0
75
1
76
1
52
0
41
37.795276
77
0
78
1
53
45
43
0
44
0
45
-84.852814
46
84.852814
79
0
47
1
98
0
0
LWPOLYLINE
5
1F6
330
10E
100
AcDbEntity
8
COLUMN
100
AcDbPolyline
90
4
70
1
43
0
10
33250
20
31650
10
33850
20
31650
10
33850
20
32250
10
33250
20
32250
0
HATCH
5
1F7
330
10E
100
AcDbEntity
8
COLUMN-HATCH
100
AcDbHatch
10
0
20
0
30
0
210
0
220
0
230
1
2
ANSI31
70
0
71
0
91
1
92
3
72
0
73
1
93
4
10
33250
20
31650
10
33850
20
31650
10
33850
20
32250
10
33250
20
32250
97
0
75
1
76
1
52
0
41
37.795276
77
0
78
1
53
45
43
0
44
0
45
-84.852814
46
84.852814
79
0
47
1
98
0
0
LWPOLYLINE
5
1F8
330
10E
100
AcDbEntity
8
COLUMN
100
AcDbPolyline
90
4
70
1
43
0
10
40750
20
31650
10
41350
20
31650
10
41350
20
32250
10
40750
20
32250
0
HATCH
5
1F9
330
10E
100
AcDbEntity
8
COLUMN-HATCH
100
AcDbHatch
10
0
20
0
30
0
210
0
220
0
230
1
2
ANSI31
70
0
71
0
91
1
92
3
72
0
73
1
93
4
10
40750
20
31650
10
41350
20
31650
10
41350
20
32250
10
40750
20
32250
97
0
75
1
76
1
52
0
41
37.795276
77
0
78
1
53
45
43
0
44
0
45
-84.852814
46
84.852814
79
0
47
1
98
0
0
LWPOLYLINE
5
1FA
330
10E
100
AcDbEntity
8
COLUMN
100
AcDbPolyline
90
4
70
1
43
0
10
48250
20
31650
10
48850
20
31650
10
48850
20
32250
10
48250
20
32250
0
HATCH
5
1FB
330
10E
100
AcDbEntity
8
COLUMN-HATCH
100
AcDbHatch
10
0
20
0
30
0
210
0
220
0
230
1
2
ANSI31
70
0
71
0
91
1
92
3
72
0
73
1
93
4
10
48250
20
31650
10
48850
20
31650
10
48850
20
32250
10
48250
20
32250
97
0
75
1
76
1
52
0
41
37.795276
77
0
78
1
53
45
43
0
44
0
45
-84.852814
46
84.852814
79
0
47
1
98
0
0
LWPOLYLINE
5
1FC
330
10E
100
AcDbEntity
8
COLUMN
100
AcDbPolyline
90
4
70
1
43
0
10
18250
20
23650
10
18850
20
23650
10
18850
20
24250
10
18250
20
24250
0
HATCH
5
1FD
330
10E
100
AcDbEntity
8
COLUMN-HATCH
100
AcDbHatch
10
0
20
0
30
0
210
0
220
0
230
1
2
ANSI31
70
0
71
0
91
1
92
3
72
0
73
1
93
4
10
18250
20
23650
10
18850
20
23650
10
18850
20
24250
10
18250
20
24250
97
0
75
1
76
1
52
0
41
37.795276
77
0
78
1
53
45
43
0
44
0
45
-84.852814
46
84.852814
79
0
47
1
98
0
0
LWPOLYLINE
5
1FE
330
10E
100
AcDbEntity
8
COLUMN
100
AcDbPolyline
90
4
70
1
43
0
10
25750
20
23650
10
26350
20
23650
10
26350
20
24250
10
25750
20
24250
0
HATCH
5
1FF
330
10E
100
AcDbEntity
8
COLUMN-HATCH
100
AcDbHatch
10
0
20
0
30
0
210
0
220
0
230
1
2
ANSI31
70
0
71
0
91
1
92
3
72
0
73
1
93
4
10
25750
20
23650
10
26350
20
23650
10
26350
20
24250
10
25750
20
24250
97
0
75
1
76
1
52
0
41
37.795276
77
0
78
1
53
45
43
0
44
0
45
-84.852814
46
84.852814
79
0
47
1
98
0
0
LWPOLYLINE
5
200
330
10E
100
AcDbEntity
8
COLUMN
100
AcDbPolyline
90
4
70
1
43
0
10
33250
20
23650
10
33850
20
23650
10
33850
20
24250
10
33250
20
24250
0
HATCH
5
201
330
10E
100
AcDbEntity
8
COLUMN-HATCH
100
AcDbHatch
10
0
20
0
30
0
210
0
220
0
230
1
2
ANSI31
70
0
71
0
91
1
92
3
72
0
73
1
93
4
10
33250
20
23650
10
33850
20
23650
10
33850
20
24250
10
33250
20
24250
97
0
75
1
76
1
52
0
41
37.795276
77
0
78
1
53
45
43
0
44
0
45
-84.852814
46
84.852814
79
0
47
1
98
0
0
LWPOLYLINE
5
202
330
10E
100
AcDbEntity
8
COLUMN
100
AcDbPolyline
90
4
70
1
43
0
10
40750
20
23650
10
41350
20
23650
10
41350
20
24250
10
40750
20
24250
0
HATCH
5
203
330
10E
100
AcDbEntity
8
COLUMN-HATCH
100
AcDbHatch
10
0
20
0
30
0
210
0
220
0
230
1
2
ANSI31
70
0
71
0
91
1
92
3
72
0
73
1
93
4
10
40750
20
23650
10
41350
20
23650
10
41350
20
24250
10
40750
20
24250
97
0
75
1
76
1
52
0
41
37.795276
77
0
78
1
53
45
43
0
44
0
45
-84.852814
46
84.852814
79
0
47
1
98
0
0
LWPOLYLINE
5
204
330
10E
100
AcDbEntity
8
COLUMN
100
AcDbPolyline
90
4
70
1
43
0
10
48250
20
23650
10
48850
20
23650
10
48850
20
24250
10
48250
20
24250
0
HATCH
5
205
330
10E
100
AcDbEntity
8
COLUMN-HATCH
100
AcDbHatch
10
0
20
0
30
0
210
0
220
0
230
1
2
ANSI31
70
0
71
0
91
1
92
3
72
0
73
1
93
4
10
48250
20
23650
10
48850
20
23650
10
48850
20
24250
10
48250
20
24250
97
0
75
1
76
1
52
0
41
37.795276
77
0
78
1
53
45
43
0
44
0
45
-84.852814
46
84.852814
79
0
47
1
98
0
0
LWPOLYLINE
5
206
330
10E
100
AcDbEntity
8
OPENING
100
AcDbPolyline
90
4
70
1
43
0
10
28050
20
33450
10
31050
20
33450
10
31050
20
38450
10
28050
20
38450
0
LINE
5
207
330
10E
100
AcDbEntity
8
OPENING
100
AcDbLine
10
28050
20
33450
30
0
11
31050
21
38450
31
0
0
LINE
5
208
330
10E
100
AcDbEntity
8
OPENING
100
AcDbLine
10
31050
20
33450
30
0
11
28050
21
38450
31
0
0
LWPOLYLINE
5
209
330
10E
100
AcDbEntity
8
OPENING
100
AcDbPolyline
90
4
70
1
43
0
10
36050
20
26950
10
37850
20
26950
10
37850
20
28450
10
36050
20
28450
0
LINE
5
20A
330
10E
100
AcDbEntity
8
OPENING
100
AcDbLine
10
36050
20
26950
30
0
11
37850
21
28450
31
0
0
LINE
5
20B
330
10E
100
AcDbEntity
8
OPENING
100
AcDbLine
10
37850
20
26950
30
0
11
36050
21
28450
31
0
0
LWPOLYLINE
5
20C
330
10E
100
AcDbEntity
8
VOID
100
AcDbPolyline
90
4
70
1
43
0
10
20550
20
25950
10
24550
20
25950
10
24550
20
28950
10
20550
20
28950
0
HATCH
5
20D
330
10E
100
AcDbEntity
8
VOID-HATCH
100
AcDbHatch
10
0
20
0
30
0
210
0
220
0
230
1
2
ANSI37
70
0
71
0
91
1
92
3
72
0
73
1
93
4
10
20550
20
25950
10
24550
20
25950
10
24550
20
28950
10
20550
20
28950
97
0
75
1
76
1
52
0
41
78.740157
77
0
78
2
53
45
43
0
44
0
45
-176.776695
46
176.776695
79
0
53
135
43
0
44
0
45
-176.776695
46
-176.776695
79
0
47
1
98
0
0
LWPOLYLINE
5
20E
330
10E
100
AcDbEntity
8
VOID
100
AcDbPolyline
90
4
70
1
43
0
10
35550
20
41950
10
40550
20
41950
10
40550
20
45450
10
35550
20
45450
0
HATCH
5
20F
330
10E
100
AcDbEntity
8
VOID-HATCH
100
AcDbHatch
10
0
20
0
30
0
210
0
220
0
230
1
2
ANSI37
70
0
71
0
91
1
92
3
72
0
73
1
93
4
10
35550
20
41950
10
40550
20
41950
10
40550
20
45450
10
35550
20
45450
97
0
75
1
76
1
52
0
41
78.740157
77
0
78
2
53
45
43
0
44
0
45
-176.776695
46
176.776695
79
0
53
135
43
0
44
0
45
-176.776695
46
-176.776695
79
0
47
1
98
0
0
CIRCLE
5
210
330
10E
100
AcDbEntity
8
REBAR-U
6
DASHDOT
100
AcDbCircle
10
22300
20
43950
30
0
40
1000
0
CIRCLE
5
211
330
10E
100
AcDbEntity
8
TEXT
100
AcDbCircle
10
3600
20
56400
30
0
40
700
0
SOLID
5
212
330
10E
100
AcDbEntity
8
TEXT
100
AcDbTrace
10
3600
20
57000
30
0
11
3300
21
56000
31
0
12
3900
22
56000
32
0
13
3600
23
56250
33
0
0
TEXT
5
213
330
10E
100
AcDbEntity
8
TEXT
100
AcDbText
10
3600
20
57300
30
0
40
300
1
N
7
STANDARD
72
1
11
3600
21
57300
31
0
100
AcDbText
73
0
0
LINE
5
214
330
10E
100
AcDbEntity
8
REBAR-BOT
100
AcDbLine
10
17075
20
24975
30
0
11
49525
21
24975
31
0
0
LINE
5
215
330
10E
100
AcDbEntity
8
REBAR-BOT
100
AcDbLine
10
17075
20
24875
30
0
11
17075
21
25075
31
0
0
LINE
5
216
330
10E
100
AcDbEntity
8
REBAR-BOT
100
AcDbLine
10
49525
20
24875
30
0
11
49525
21
25075
31
0
0
LINE
5
217
330
10E
100
AcDbEntity
8
REBAR-BOT
100
AcDbLine
10
28525
20
25095
30
0
11
29075
21
25095
31
0
0
LINE
5
218
330
10E
100
AcDbEntity
8
REBAR-BOT
100
AcDbLine
10
39975
20
25095
30
0
11
40525
21
25095
31
0
0
LINE
5
219
330
10E
100
AcDbEntity
8
REBAR-EXTENT
100
AcDbLine
10
22769
20
23075
30
0
11
22769
21
26875
31
0
0
SOLID
5
21A
330
10E
100
AcDbEntity
8
REBAR-EXTENT
100
AcDbTrace
10
22769
20
23075
30
0
11
22813.328031
21
23218.300473
31
0
12
22724.671969
22
23218.300473
32
0
13
22724.671969
23
23218.300473
33
0
0
SOLID
5
21B
330
10E
100
AcDbEntity
8
REBAR-EXTENT
100
AcDbTrace
10
22769
20
26875
30
0
11
22724.671969
21
26731.699527
31
0
12
22813.328031
22
26731.699527
32
0
13
22813.328031
23
26731.699527
33
0
0
TEXT
5
21C
330
10E
100
AcDbEntity
8
REBAR-TEXT
100
AcDbText
10
22649
20
24975
30
0
40
180
1
20T12@200 B  L=12000+12000+9550  (B01+B06+B12+B14)
50
90
7
STANDARD
72
1
11
22649
21
24975
31
0
100
AcDbText
73
0
0
LINE
5
21D
330
10E
100
AcDbEntity
8
REBAR-BOT
100
AcDbLine
10
17075
20
27675
30
0
11
36025
21
27675
31
0
0
LINE
5
21E
330
10E
100
AcDbEntity
8
REBAR-BOT
100
AcDbLine
10
17075
20
27575
30
0
11
17075
21
27775
31
0
0
LINE
5
21F
330
10E
100
AcDbEntity
8
REBAR-BOT
100
AcDbLine
10
36025
20
27575
30
0
11
36025
21
27775
31
0
0
LINE
5
220
330
10E
100
AcDbEntity
8
REBAR-BOT
100
AcDbLine
10
28525
20
27795
30
0
11
29075
21
27795
31
0
0
LINE
5
221
330
10E
100
AcDbEntity
8
REBAR-EXTENT
100
AcDbLine
10
20249
20
27075
30
0
11
20249
21
28275
31
0
0
SOLID
5
222
330
10E
100
AcDbEntity
8
REBAR-EXTENT
100
AcDbTrace
10
20249
20
27075
30
0
11
20293.328031
21
27218.300473
31
0
12
20204.671969
22
27218.300473
32
0
13
20204.671969
23
27218.300473
33
0
0
SOLID
5
223
330
10E
100
AcDbEntity
8
REBAR-EXTENT
100
AcDbTrace
10
20249
20
28275
30
0
11
20204.671969
21
28131.699527
31
0
12
20293.328031
22
28131.699527
32
0
13
20293.328031
23
28131.699527
33
0
0
TEXT
5
224
330
10E
100
AcDbEntity
8
REBAR-TEXT
100
AcDbText
10
20129
20
27675
30
0
40
180
1
7T12@200 B  L=12000+7500  (B01+B10+B12+B19)
50
90
7
STANDARD
72
1
11
20129
21
27675
31
0
100
AcDbText
73
0
0
LINE
5
225
330
10E
100
AcDbEntity
8
REBAR-BOT
100
AcDbLine
10
37875
20
27675
30
0
11
49525
21
27675
31
0
0
LINE
5
226
330
10E
100
AcDbEntity
8
REBAR-BOT
100
AcDbLine
10
37875
20
27575
30
0
11
37875
21
27775
31
0
0
LINE
5
227
330
10E
100
AcDbEntity
8
REBAR-BOT
100
AcDbLine
10
49525
20
27575
30
0
11
49525
21
27775
31
0
0
LINE
5
228
330
10E
100
AcDbEntity
8
REBAR-BOT
100
AcDbLine
10
17075
20
30875
30
0
11
49525
21
30875
31
0
0
LINE
5
229
330
10E
100
AcDbEntity
8
REBAR-BOT
100
AcDbLine
10
17075
20
30775
30
0
11
17075
21
30975
31
0
0
LINE
5
22A
330
10E
100
AcDbEntity
8
REBAR-BOT
100
AcDbLine
10
49525
20
30775
30
0
11
49525
21
30975
31
0
0
LINE
5
22B
330
10E
100
AcDbEntity
8
REBAR-BOT
100
AcDbLine
10
28525
20
30995
30
0
11
29075
21
30995
31
0
0
LINE
5
22C
330
10E
100
AcDbEntity
8
REBAR-BOT
100
AcDbLine
10
39975
20
30995
30
0
11
40525
21
30995
31
0
0
LINE
5
22D
330
10E
100
AcDbEntity
8
REBAR-EXTENT
100
AcDbLine
10
21869
20
28475
30
0
11
21869
21
33275
31
0
0
SOLID
5
22E
330
10E
100
AcDbEntity
8
REBAR-EXTENT
100
AcDbTrace
10
21869
20
28475
30
0
11
21913.328031
21
28618.300473
31
0
12
21824.671969
22
28618.300473
32
0
13
21824.671969
23
28618.300473
33
0
0
SOLID
5
22F
330
10E
100
AcDbEntity
8
REBAR-EXTENT
100
AcDbTrace
10
21869
20
33275
30
0
11
21824.671969
21
33131.699527
31
0
12
21913.328031
22
33131.699527
32
0
13
21913.328031
23
33131.699527
33
0
0
TEXT
5
230
330
10E
100
AcDbEntity
8
REBAR-TEXT
100
AcDbText
10
21749
20
30875
30
0
40
180
1
25T12@200 B  L=12000+12000+9550  (B01+B06+B12+B14)
50
90
7
STANDARD
72
1
11
21749
21
30875
31
0
100
AcDbText
73
0
0
LINE
5
231
330
10E
100
AcDbEntity
8
REBAR-BOT
100
AcDbLine
10
17075
20
35875
30
0
11
28025
21
35875
31
0
0
LINE
5
232
330
10E
100
AcDbEntity
8
REBAR-BOT
100
AcDbLine
10
17075
20
35775
30
0
11
17075
21
35975
31
0
0
LINE
5
233
330
10E
100
AcDbEntity
8
REBAR-BOT
100
AcDbLine
10
28025
20
35775
30
0
11
28025
21
35975
31
0
0
LINE
5
234
330
10E
100
AcDbEntity
8
REBAR-EXTENT
100
AcDbLine
10
19289
20
33475
30
0
11
19289
21
38275
31
0
0
SOLID
5
235
330
10E
100
AcDbEntity
8
REBAR-EXTENT
100
AcDbTrace
10
19289
20
33475
30
0
11
19333.328031
21
33618.300473
31
0
12
19244.671969
22
33618.300473
32
0
13
19244.671969
23
33618.300473
33
0
0
SOLID
5
236
330
10E
100
AcDbEntity
8
REBAR-EXTENT
100
AcDbTrace
10
19289
20
38275
30
0
11
19244.671969
21
38131.699527
31
0
12
19333.328031
22
38131.699527
32
0
13
19333.328031
23
38131.699527
33
0
0
TEXT
5
237
330
10E
100
AcDbEntity
8
REBAR-TEXT
100
AcDbText
10
19169
20
35875
30
0
40
180
1
25T12@200 B  L=10950  (B03)
50
90
7
STANDARD
72
1
11
19169
21
35875
31
0
100
AcDbText
73
0
0
LINE
5
238
330
10E
100
AcDbEntity
8
REBAR-BOT
100
AcDbLine
10
31075
20
35875
30
0
11
49525
21
35875
31
0
0
LINE
5
239
330
10E
100
AcDbEntity
8
REBAR-BOT
100
AcDbLine
10
31075
20
35775
30
0
11
31075
21
35975
31
0
0
LINE
5
23A
330
10E
100
AcDbEntity
8
REBAR-BOT
100
AcDbLine
10
49525
20
35775
30
0
11
49525
21
35975
31
0
0
LINE
5
23B
330
10E
100
AcDbEntity
8
REBAR-BOT
100
AcDbLine
10
42525
20
35995
30
0
11
43075
21
35995
31
0
0
LINE
5
23C
330
10E
100
AcDbEntity
8
REBAR-BOT
100
AcDbLine
10
17075
20
41175
30
0
11
49525
21
41175
31
0
0
LINE
5
23D
330
10E
100
AcDbEntity
8
REBAR-BOT
100
AcDbLine
10
17075
20
41075
30
0
11
17075
21
41275
31
0
0
LINE
5
23E
330
10E
100
AcDbEntity
8
REBAR-BOT
100
AcDbLine
10
49525
20
41075
30
0
11
49525
21
41275
31
0
0
LINE
5
23F
330
10E
100
AcDbEntity
8
REBAR-BOT
100
AcDbLine
10
28525
20
41295
30
0
11
29075
21
41295
31
0
0
LINE
5
240
330
10E
100
AcDbEntity
8
REBAR-BOT
100
AcDbLine
10
39975
20
41295
30
0
11
40525
21
41295
31
0
0
LINE
5
241
330
10E
100
AcDbEntity
8
REBAR-EXTENT
100
AcDbLine
10
21869
20
38475
30
0
11
21869
21
43875
31
0
0
SOLID
5
242
330
10E
100
AcDbEntity
8
REBAR-EXTENT
100
AcDbTrace
10
21869
20
38475
30
0
11
21913.328031
21
38618.300473
31
0
12
21824.671969
22
38618.300473
32
0
13
21824.671969
23
38618.300473
33
0
0
SOLID
5
243
330
10E
100
AcDbEntity
8
REBAR-EXTENT
100
AcDbTrace
10
21869
20
43875
30
0
11
21824.671969
21
43731.699527
31
0
12
21913.328031
22
43731.699527
32
0
13
21913.328031
23
43731.699527
33
0
0
TEXT
5
244
330
10E
100
AcDbEntity
8
REBAR-TEXT
100
AcDbText
10
21749
20
41175
30
0
40
180
1
28T12@200 B  L=12000+12000+9550  (B01+B06+B12+B14)
50
90
7
STANDARD
72
1
11
21749
21
41175
31
0
100
AcDbText
73
0
0
LINE
5
245
330
10E
100
AcDbEntity
8
REBAR-BOT
100
AcDbLine
10
17075
20
46475
30
0
11
44525
21
46475
31
0
0
LINE
5
246
330
10E
100
AcDbEntity
8
REBAR-BOT
100
AcDbLine
10
17075
20
46375
30
0
11
17075
21
46575
31
0
0
LINE
5
247
330
10E
100
AcDbEntity
8
REBAR-BOT
100
AcDbLine
10
44525
20
46375
30
0
11
44525
21
46575
31
0
0
LINE
5
248
330
10E
100
AcDbEntity
8
REBAR-BOT
100
AcDbLine
10
28525
20
46595
30
0
11
29075
21
46595
31
0
0
LINE
5
249
330
10E
100
AcDbEntity
8
REBAR-BOT
100
AcDbLine
10
39975
20
46595
30
0
11
40525
21
46595
31
0
0
LINE
5
24A
330
10E
100
AcDbEntity
8
REBAR-EXTENT
100
AcDbLine
10
21269
20
44075
30
0
11
21269
21
48875
31
0
0
SOLID
5
24B
330
10E
100
AcDbEntity
8
REBAR-EXTENT
100
AcDbTrace
10
21269
20
44075
30
0
11
21313.328031
21
44218.300473
31
0
12
21224.671969
22
44218.300473
32
0
13
21224.671969
23
44218.300473
33
0
0
SOLID
5
24C
330
10E
100
AcDbEntity
8
REBAR-EXTENT
100
AcDbTrace
10
21269
20
48875
30
0
11
21224.671969
21
48731.699527
31
0
12
21313.328031
22
48731.699527
32
0
13
21313.328031
23
48731.699527
33
0
0
TEXT
5
24D
330
10E
100
AcDbEntity
8
REBAR-TEXT
100
AcDbText
10
21149
20
46475
30
0
40
180
1
25T12@200 B  L=12000+12000+4550  (B01+B13+B12+B04)
50
90
7
STANDARD
72
1
11
21149
21
46475
31
0
100
AcDbText
73
0
0
LINE
5
24E
330
10E
100
AcDbEntity
8
REBAR-BOT
100
AcDbLine
10
22575
20
22975
30
0
11
22575
21
48925
31
0
0
LINE
5
24F
330
10E
100
AcDbEntity
8
REBAR-BOT
100
AcDbLine
10
22675
20
22975
30
0
11
22475
21
22975
31
0
0
LINE
5
250
330
10E
100
AcDbEntity
8
REBAR-BOT
100
AcDbLine
10
22675
20
48925
30
0
11
22475
21
48925
31
0
0
LINE
5
251
330
10E
100
AcDbEntity
8
REBAR-BOT
100
AcDbLine
10
22695
20
34425
30
0
11
22695
21
34975
31
0
0
LINE
5
252
330
10E
100
AcDbEntity
8
REBAR-BOT
100
AcDbLine
10
22695
20
45875
30
0
11
22695
21
46425
31
0
0
LINE
5
253
330
10E
100
AcDbEntity
8
REBAR-EXTENT
100
AcDbLine
10
17175
20
26989
30
0
11
27975
21
26989
31
0
0
SOLID
5
254
330
10E
100
AcDbEntity
8
REBAR-EXTENT
100
AcDbTrace
10
17175
20
26989
30
0
11
17318.300473
21
26944.671969
31
0
12
17318.300473
22
27033.328031
32
0
13
17318.300473
23
27033.328031
33
0
0
SOLID
5
255
330
10E
100
AcDbEntity
8
REBAR-EXTENT
100
AcDbTrace
10
27975
20
26989
30
0
11
27831.699527
21
27033.328031
31
0
12
27831.699527
22
26944.671969
32
0
13
27831.699527
23
26944.671969
33
0
0
TEXT
5
256
330
10E
100
AcDbEntity
8
REBAR-TEXT
100
AcDbText
10
22575
20
27109
30
0
40
180
1
55T12@200 B  L=12000+12000+3050  (B01+B18+B12+B08)
7
STANDARD
72
1
11
22575
21
27109
31
0
100
AcDbText
73
0
0
LINE
5
257
330
10E
100
AcDbEntity
8
REBAR-BOT
100
AcDbLine
10
29575
20
22975
30
0
11
29575
21
33425
31
0
0
LINE
5
258
330
10E
100
AcDbEntity
8
REBAR-BOT
100
AcDbLine
10
29675
20
22975
30
0
11
29475
21
22975
31
0
0
LINE
5
259
330
10E
100
AcDbEntity
8
REBAR-BOT
100
AcDbLine
10
29675
20
33425
30
0
11
29475
21
33425
31
0
0
LINE
5
25A
330
10E
100
AcDbEntity
8
REBAR-EXTENT
100
AcDbLine
10
28175
20
24229
30
0
11
30975
21
24229
31
0
0
SOLID
5
25B
330
10E
100
AcDbEntity
8
REBAR-EXTENT
100
AcDbTrace
10
28175
20
24229
30
0
11
28318.300473
21
24184.671969
31
0
12
28318.300473
22
24273.328031
32
0
13
28318.300473
23
24273.328031
33
0
0
SOLID
5
25C
330
10E
100
AcDbEntity
8
REBAR-EXTENT
100
AcDbTrace
10
30975
20
24229
30
0
11
30831.699527
21
24273.328031
31
0
12
30831.699527
22
24184.671969
32
0
13
30831.699527
23
24184.671969
33
0
0
TEXT
5
25D
330
10E
100
AcDbEntity
8
REBAR-TEXT
100
AcDbText
10
29575
20
24349
30
0
40
180
1
15T12@200 B  L=10450  (B05)
7
STANDARD
72
1
11
29575
21
24349
31
0
100
AcDbText
73
0
0
LINE
5
25E
330
10E
100
AcDbEntity
8
REBAR-BOT
100
AcDbLine
10
29575
20
38475
30
0
11
29575
21
48925
31
0
0
LINE
5
25F
330
10E
100
AcDbEntity
8
REBAR-BOT
100
AcDbLine
10
29675
20
38475
30
0
11
29475
21
38475
31
0
0
LINE
5
260
330
10E
100
AcDbEntity
8
REBAR-BOT
100
AcDbLine
10
29675
20
48925
30
0
11
29475
21
48925
31
0
0
LINE
5
261
330
10E
100
AcDbEntity
8
REBAR-BOT
100
AcDbLine
10
33575
20
22975
30
0
11
33575
21
48925
31
0
0
LINE
5
262
330
10E
100
AcDbEntity
8
REBAR-BOT
100
AcDbLine
10
33675
20
22975
30
0
11
33475
21
22975
31
0
0
LINE
5
263
330
10E
100
AcDbEntity
8
REBAR-BOT
100
AcDbLine
10
33675
20
48925
30
0
11
33475
21
48925
31
0
0
LINE
5
264
330
10E
100
AcDbEntity
8
REBAR-BOT
100
AcDbLine
10
33695
20
34425
30
0
11
33695
21
34975
31
0
0
LINE
5
265
330
10E
100
AcDbEntity
8
REBAR-BOT
100
AcDbLine
10
33695
20
45875
30
0
11
33695
21
46425
31
0
0
LINE
5
266
330
10E
100
AcDbEntity
8
REBAR-EXTENT
100
AcDbLine
10
31175
20
26989
30
0
11
35975
21
26989
31
0
0
SOLID
5
267
330
10E
100
AcDbEntity
8
REBAR-EXTENT
100
AcDbTrace
10
31175
20
26989
30
0
11
31318.300473
21
26944.671969
31
0
12
31318.300473
22
27033.328031
32
0
13
31318.300473
23
27033.328031
33
0
0
SOLID
5
268
330
10E
100
AcDbEntity
8
REBAR-EXTENT
100
AcDbTrace
10
35975
20
26989
30
0
11
35831.699527
21
27033.328031
31
0
12
35831.699527
22
26944.671969
32
0
13
35831.699527
23
26944.671969
33
0
0
TEXT
5
269
330
10E
100
AcDbEntity
8
REBAR-TEXT
100
AcDbText
10
33575
20
27109
30
0
40
180
1
25T12@200 B  L=12000+12000+3050  (B01+B18+B12+B08)
7
STANDARD
72
1
11
33575
21
27109
31
0
100
AcDbText
73
0
0
LINE
5
26A
330
10E
100
AcDbEntity
8
REBAR-BOT
100
AcDbLine
10
36975
20
22975
30
0
11
36975
21
26925
31
0
0
LINE
5
26B
330
10E
100
AcDbEntity
8
REBAR-BOT
100
AcDbLine
10
37075
20
22975
30
0
11
36875
21
22975
31
0
0
LINE
5
26C
330
10E
100
AcDbEntity
8
REBAR-BOT
100
AcDbLine
10
37075
20
26925
30
0
11
36875
21
26925
31
0
0
LINE
5
26D
330
10E
100
AcDbEntity
8
REBAR-EXTENT
100
AcDbLine
10
36175
20
23449
30
0
11
37775
21
23449
31
0
0
SOLID
5
26E
330
10E
100
AcDbEntity
8
REBAR-EXTENT
100
AcDbTrace
10
36175
20
23449
30
0
11
36318.300473
21
23404.671969
31
0
12
36318.300473
22
23493.328031
32
0
13
36318.300473
23
23493.328031
33
0
0
SOLID
5
26F
330
10E
100
AcDbEntity
8
REBAR-EXTENT
100
AcDbTrace
10
37775
20
23449
30
0
11
37631.699527
21
23493.328031
31
0
12
37631.699527
22
23404.671969
32
0
13
37631.699527
23
23404.671969
33
0
0
TEXT
5
270
330
10E
100
AcDbEntity
8
REBAR-TEXT
100
AcDbText
10
36975
20
23569
30
0
40
180
1
9T12@200 B  L=3950  (B16)
7
STANDARD
72
1
11
36975
21
23569
31
0
100
AcDbText
73
0
0
LINE
5
271
330
10E
100
AcDbEntity
8
REBAR-BOT
100
AcDbLine
10
36975
20
28475
30
0
11
36975
21
48925
31
0
0
LINE
5
272
330
10E
100
AcDbEntity
8
REBAR-BOT
100
AcDbLine
10
37075
20
28475
30
0
11
36875
21
28475
31
0
0
LINE
5
273
330
10E
100
AcDbEntity
8
REBAR-BOT
100
AcDbLine
10
37075
20
48925
30
0
11
36875
21
48925
31
0
0
LINE
5
274
330
10E
100
AcDbEntity
8
REBAR-BOT
100
AcDbLine
10
37095
20
39925
30
0
11
37095
21
40475
31
0
0
LINE
5
275
330
10E
100
AcDbEntity
8
REBAR-BOT
100
AcDbLine
10
41175
20
22975
30
0
11
41175
21
48925
31
0
0
LINE
5
276
330
10E
100
AcDbEntity
8
REBAR-BOT
100
AcDbLine
10
41275
20
22975
30
0
11
41075
21
22975
31
0
0
LINE
5
277
330
10E
100
AcDbEntity
8
REBAR-BOT
100
AcDbLine
10
41275
20
48925
30
0
11
41075
21
48925
31
0
0
LINE
5
278
330
10E
100
AcDbEntity
8
REBAR-BOT
100
AcDbLine
10
41295
20
34425
30
0
11
41295
21
34975
31
0
0
LINE
5
279
330
10E
100
AcDbEntity
8
REBAR-BOT
100
AcDbLine
10
41295
20
45875
30
0
11
41295
21
46425
31
0
0
LINE
5
27A
330
10E
100
AcDbEntity
8
REBAR-EXTENT
100
AcDbLine
10
37975
20
26089
30
0
11
44375
21
26089
31
0
0
SOLID
5
27B
330
10E
100
AcDbEntity
8
REBAR-EXTENT
100
AcDbTrace
10
37975
20
26089
30
0
11
38118.300473
21
26044.671969
31
0
12
38118.300473
22
26133.328031
32
0
13
38118.300473
23
26133.328031
33
0
0
SOLID
5
27C
330
10E
100
AcDbEntity
8
REBAR-EXTENT
100
AcDbTrace
10
44375
20
26089
30
0
11
44231.699527
21
26133.328031
31
0
12
44231.699527
22
26044.671969
32
0
13
44231.699527
23
26044.671969
33
0
0
TEXT
5
27D
330
10E
100
AcDbEntity
8
REBAR-TEXT
100
AcDbText
10
41175
20
26209
30
0
40
180
1
33T12@200 B  L=12000+12000+3050  (B01+B18+B12+B08)
7
STANDARD
72
1
11
41175
21
26209
31
0
100
AcDbText
73
0
0
LINE
5
27E
330
10E
100
AcDbEntity
8
REBAR-BOT
100
AcDbLine
10
46975
20
22975
30
0
11
46975
21
43925
31
0
0
LINE
5
27F
330
10E
100
AcDbEntity
8
REBAR-BOT
100
AcDbLine
10
47075
20
22975
30
0
11
46875
21
22975
31
0
0
LINE
5
280
330
10E
100
AcDbEntity
8
REBAR-BOT
100
AcDbLine
10
47075
20
43925
30
0
11
46875
21
43925
31
0
0
LINE
5
281
330
10E
100
AcDbEntity
8
REBAR-BOT
100
AcDbLine
10
47095
20
34425
30
0
11
47095
21
34975
31
0
0
LINE
5
282
330
10E
100
AcDbEntity
8
REBAR-EXTENT
100
AcDbLine
10
44575
20
26389
30
0
11
49375
21
26389
31
0
0
SOLID
5
283
330
10E
100
AcDbEntity
8
REBAR-EXTENT
100
AcDbTrace
10
44575
20
26389
30
0
11
44718.300473
21
26344.671969
31
0
12
44718.300473
22
26433.328031
32
0
13
44718.300473
23
26433.328031
33
0
0
SOLID
5
284
330
10E
100
AcDbEntity
8
REBAR-EXTENT
100
AcDbTrace
10
49375
20
26389
30
0
11
49231.699527
21
26433.328031
31
0
12
49231.699527
22
26344.671969
32
0
13
49231.699527
23
26344.671969
33
0
0
TEXT
5
285
330
10E
100
AcDbEntity
8
REBAR-TEXT
100
AcDbText
10
46975
20
26509
30
0
40
180
1
25T12@200 B  L=12000+9500  (B01+B07+B12+B15)
7
STANDARD
72
1
11
46975
21
26509
31
0
100
AcDbText
73
0
0
LWPOLYLINE
5
286
330
10E
100
AcDbEntity
8
FRAME
100
AcDbPolyline
90
4
70
1
43
0
10
2000
20
1000
10
22866.666667
20
1000
10
22866.666667
20
13500
10
2000
20
13500
0
LINE
5
287
330
10E
100
AcDbEntity
8
FRAME
100
AcDbLine
10
2000
20
12700
30
0
11
22866.666667
21
12700
31
0
0
CIRCLE
5
288
330
10E
100
AcDbEntity
8
CALLOUT
100
AcDbCircle
10
2700
20
13100
30
0
40
300
0
TEXT
5
289
330
10E
100
AcDbEntity
8
CALLOUT
100
AcDbText
10
2700
20
13100
30
0
40
220
1
1
7
STANDARD
72
1
11
2700
21
13100
31
0
100
AcDbText
73
2
0
TEXT
5
28A
330
10E
100
AcDbEntity
8
TEXT-TITLE
100
AcDbText
10
3200
20
13100
30
0
40
240
1
SECTION - BOTTOM MESH AND LAP
7
STANDARD
72
0
11
3200
21
13100
31
0
100
AcDbText
73
2
0
TEXT
5
28B
330
10E
100
AcDbEntity
8
TITLE
100
AcDbText
10
22666.666667
20
13100
30
0
40
180
1
1:20
7
STANDARD
72
2
11
22666.666667
21
13100
31
0
100
AcDbText
73
2
0
LWPOLYLINE
5
28C
330
10E
100
AcDbEntity
8
DETAIL
370
35
100
AcDbPolyline
90
4
70
1
43
0
10
5933.333333
20
6425
10
18933.333333
20
6425
10
18933.333333
20
7675
10
5933.333333
20
7675
0
HATCH
5
28D
330
10E
100
AcDbEntity
8
DETAIL-HATCH
100
AcDbHatch
10
0
20
0
30
0
210
0
220
0
230
1
2
ANSI31
70
0
71
0
91
1
92
3
72
0
73
1
93
4
10
5933.333333
20
6425
10
18933.333333
20
6425
10
18933.333333
20
7675
10
5933.333333
20
7675
97
0
75
1
76
1
52
0
41
50.393701
77
0
78
1
53
45
43
0
44
0
45
-113.137085
46
113.137085
79
0
47
1
98
0
0
LINE
5
28E
330
10E
100
AcDbEntity
8
REBAR-BOT
370
70
100
AcDbLine
10
6433.333333
20
6580
30
0
11
13808.333333
21
6580
31
0
0
LINE
5
28F
330
10E
100
AcDbEntity
8
REBAR-BOT
370
70
100
AcDbLine
10
11058.333333
20
6664
30
0
11
18433.333333
21
6664
31
0
0
LINE
5
290
330
10E
100
AcDbEntity
8
REBAR-BOT
100
AcDbLine
10
6433.333333
20
6480
30
0
11
6433.333333
21
6680
31
0
0
LINE
5
291
330
10E
100
AcDbEntity
8
REBAR-BOT
100
AcDbLine
10
13808.333333
20
6480
30
0
11
13808.333333
21
6680
31
0
0
LINE
5
292
330
10E
100
AcDbEntity
8
REBAR-BOT
100
AcDbLine
10
11058.333333
20
6564
30
0
11
11058.333333
21
6764
31
0
0
LINE
5
293
330
10E
100
AcDbEntity
8
REBAR-BOT
100
AcDbLine
10
18433.333333
20
6564
30
0
11
18433.333333
21
6764
31
0
0
CIRCLE
5
294
330
10E
100
AcDbEntity
8
REBAR-BOT
100
AcDbCircle
10
7183.333333
20
6736
30
0
40
30
0
CIRCLE
5
295
330
10E
100
AcDbEntity
8
REBAR-BOT
100
AcDbCircle
10
8183.333333
20
6736
30
0
40
30
0
CIRCLE
5
296
330
10E
100
AcDbEntity
8
REBAR-BOT
100
AcDbCircle
10
9183.333333
20
6736
30
0
40
30
0
CIRCLE
5
297
330
10E
100
AcDbEntity
8
REBAR-BOT
100
AcDbCircle
10
10183.333333
20
6736
30
0
40
30
0
CIRCLE
5
298
330
10E
100
AcDbEntity
8
REBAR-BOT
100
AcDbCircle
10
11183.333333
20
6736
30
0
40
30
0
CIRCLE
5
299
330
10E
100
AcDbEntity
8
REBAR-BOT
100
AcDbCircle
10
12183.333333
20
6736
30
0
40
30
0
CIRCLE
5
29A
330
10E
100
AcDbEntity
8
REBAR-BOT
100
AcDbCircle
10
13183.333333
20
6736
30
0
40
30
0
CIRCLE
5
29B
330
10E
100
AcDbEntity
8
REBAR-BOT
100
AcDbCircle
10
14183.333333
20
6736
30
0
40
30
0
CIRCLE
5
29C
330
10E
100
AcDbEntity
8
REBAR-BOT
100
AcDbCircle
10
15183.333333
20
6736
30
0
40
30
0
CIRCLE
5
29D
330
10E
100
AcDbEntity
8
REBAR-BOT
100
AcDbCircle
10
16183.333333
20
6736
30
0
40
30
0
CIRCLE
5
29E
330
10E
100
AcDbEntity
8
REBAR-BOT
100
AcDbCircle
10
17183.333333
20
6736
30
0
40
30
0
CIRCLE
5
29F
330
10E
100
AcDbEntity
8
REBAR-BOT
100
AcDbCircle
10
18183.333333
20
6736
30
0
40
30
0
LINE
5
2A0
330
10E
100
AcDbEntity
8
DIM
100
AcDbLine
10
11058.333333
20
6425
30
0
11
11058.333333
21
5875
31
0
0
LINE
5
2A1
330
10E
100
AcDbEntity
8
DIM
100
AcDbLine
10
13808.333333
20
6425
30
0
11
13808.333333
21
5875
31
0
0
LINE
5
2A2
330
10E
100
AcDbEntity
8
DIM
100
AcDbLine
10
11058.333333
20
5725
30
0
11
13808.333333
21
5725
31
0
0
LINE
5
2A3
330
10E
100
AcDbEntity
8
DIM
100
AcDbLine
10
10988.333333
20
5655
30
0
11
11128.333333
21
5795
31
0
0
LINE
5
2A4
330
10E
100
AcDbEntity
8
DIM
100
AcDbLine
10
13738.333333
20
5655
30
0
11
13878.333333
21
5795
31
0
0
TEXT
5
2A5
330
10E
100
AcDbEntity
8
DIM
100
AcDbText
10
12433.333333
20
5797
30
0
40
180
1
LAP 550
7
STANDARD
72
1
11
12433.333333
21
5797
31
0
100
AcDbText
73
0
0
LINE
5
2A6
330
10E
100
AcDbEntity
8
DIM
100
AcDbLine
10
5933.333333
20
6425
30
0
11
5183.333333
21
6425
31
0
0
LINE
5
2A7
330
10E
100
AcDbEntity
8
DIM
100
AcDbLine
10
5933.333333
20
7675
30
0
11
5183.333333
21
7675
31
0
0
LINE
5
2A8
330
10E
100
AcDbEntity
8
DIM
100
AcDbLine
10
5333.333333
20
6425
30
0
11
5333.333333
21
7675
31
0
0
LINE
5
2A9
330
10E
100
AcDbEntity
8
DIM
100
AcDbLine
10
5403.333333
20
6355
30
0
11
5263.333333
21
6495
31
0
0
LINE
5
2AA
330
10E
100
AcDbEntity
8
DIM
100
AcDbLine
10
5403.333333
20
7605
30
0
11
5263.333333
21
7745
31
0
0
TEXT
5
2AB
330
10E
100
AcDbEntity
8
DIM
100
AcDbText
10
5261.333333
20
7050
30
0
40
180
1
250
50
90
7
STANDARD
72
1
11
5261.333333
21
7050
31
0
100
AcDbText
73
0
0
LINE
5
2AC
330
10E
100
AcDbEntity
8
DIM
100
AcDbLine
10
18933.333333
20
6425
30
0
11
19383.333333
21
6425
31
0
0
LINE
5
2AD
330
10E
100
AcDbEntity
8
DIM
100
AcDbLine
10
18933.333333
20
6550
30
0
11
19383.333333
21
6550
31
0
0
LINE
5
2AE
330
10E
100
AcDbEntity
8
DIM
100
AcDbLine
10
19533.333333
20
6425
30
0
11
19533.333333
21
6550
31
0
0
LINE
5
2AF
330
10E
100
AcDbEntity
8
DIM
100
AcDbLine
10
19603.333333
20
6355
30
0
11
19463.333333
21
6495
31
0
0
LINE
5
2B0
330
10E
100
AcDbEntity
8
DIM
100
AcDbLine
10
19603.333333
20
6480
30
0
11
19463.333333
21
6620
31
0
0
TEXT
5
2B1
330
10E
100
AcDbEntity
8
DIM
100
AcDbText
10
19461.333333
20
6487.5
30
0
40
180
1
25
50
90
7
STANDARD
72
1
11
19461.333333
21
6487.5
31
0
100
AcDbText
73
0
0
TEXT
5
2B2
330
10E
100
AcDbEntity
8
REBAR-TEXT
100
AcDbText
10
12433.333333
20
8275
30
0
40
190
1
T12@200 B.W. BOTTOM MESH - CLASS B LAP, STAGGERED
7
STANDARD
72
1
11
12433.333333
21
8275
31
0
100
AcDbText
73
0
0
TEXT
5
2B3
330
10E
100
AcDbEntity
8
NOTES
100
AcDbText
10
12433.333333
20
4325
30
0
40
160
1
BOTTOM BARS CONTINUOUS THROUGH COLUMNS, STOPPED AT OPENINGS
7
STANDARD
72
1
11
12433.333333
21
4325
31
0
100
AcDbText
73
0
0
LWPOLYLINE
5
2B4
330
10E
100
AcDbEntity
8
FRAME
100
AcDbPolyline
90
4
70
1
43
0
10
22866.666667
20
1000
10
43733.333333
20
1000
10
43733.333333
20
13500
10
22866.666667
20
13500
0
LINE
5
2B5
330
10E
100
AcDbEntity
8
FRAME
100
AcDbLine
10
22866.666667
20
12700
30
0
11
43733.333333
21
12700
31
0
0
CIRCLE
5
2B6
330
10E
100
AcDbEntity
8
CALLOUT
100
AcDbCircle
10
23566.666667
20
13100
30
0
40
300
0
TEXT
5
2B7
330
10E
100
AcDbEntity
8
CALLOUT
100
AcDbText
10
23566.666667
20
13100
30
0
40
220
1
2
7
STANDARD
72
1
11
23566.666667
21
13100
31
0
100
AcDbText
73
2
0
TEXT
5
2B8
330
10E
100
AcDbEntity
8
TEXT-TITLE
100
AcDbText
10
24066.666667
20
13100
30
0
40
240
1
SECTION AT OPENING - MESH STOPPED
7
STANDARD
72
0
11
24066.666667
21
13100
31
0
100
AcDbText
73
2
0
TEXT
5
2B9
330
10E
100
AcDbEntity
8
TITLE
100
AcDbText
10
43533.333333
20
13100
30
0
40
180
1
1:12.5
7
STANDARD
72
2
11
43533.333333
21
13100
31
0
100
AcDbText
73
2
0
LWPOLYLINE
5
2BA
330
10E
100
AcDbEntity
8
DETAIL
370
35
100
AcDbPolyline
90
4
70
1
43
0
10
28900
20
5800
10
40100
20
5800
10
40100
20
7800
10
28900
20
7800
0
HATCH
5
2BB
330
10E
100
AcDbEntity
8
DETAIL-HATCH
100
AcDbHatch
10
0
20
0
30
0
210
0
220
0
230
1
2
ANSI31
70
0
71
0
91
1
92
3
72
0
73
1
93
4
10
28900
20
5800
10
40100
20
5800
10
40100
20
7800
10
28900
20
7800
97
0
75
1
76
1
52
0
41
50.393701
77
0
78
1
53
45
43
0
44
0
45
-113.137085
46
113.137085
79
0
47
1
98
0
0
TEXT
5
2BC
330
10E
100
AcDbEntity
8
OPENING
100
AcDbText
10
28420
20
6800
30
0
40
180
1
OPENING
7
STANDARD
72
2
11
28420
21
6800
31
0
100
AcDbText
73
2
0
CIRCLE
5
2BD
330
10E
100
AcDbEntity
8
REBAR-TRIM
100
AcDbCircle
10
29484
20
6144
30
0
40
64
0
CIRCLE
5
2BE
330
10E
100
AcDbEntity
8
REBAR-TRIM
100
AcDbCircle
10
29484
20
7456
30
0
40
64
0
CIRCLE
5
2BF
330
10E
100
AcDbEntity
8
REBAR-TRIM
100
AcDbCircle
10
30084
20
6144
30
0
40
64
0
CIRCLE
5
2C0
330
10E
100
AcDbEntity
8
REBAR-TRIM
100
AcDbCircle
10
30084
20
7456
30
0
40
64
0
LWPOLYLINE
5
2C1
330
10E
100
AcDbEntity
8
REBAR-U
370
60
100
AcDbPolyline
90
4
70
0
43
0
10
33700
20
6064
10
29164
20
6064
10
29164
20
7536
10
33700
20
7536
0
LINE
5
2C2
330
10E
100
AcDbEntity
8
REBAR-BOT
370
35
100
AcDbLine
10
31300
20
6304
30
0
11
39620
21
6304
31
0
0
LINE
5
2C3
330
10E
100
AcDbEntity
8
DIM
100
AcDbLine
10
40100
20
5800
30
0
11
40550
21
5800
31
0
0
LINE
5
2C4
330
10E
100
AcDbEntity
8
DIM
100
AcDbLine
10
40100
20
7800
30
0
11
40550
21
7800
31
0
0
LINE
5
2C5
330
10E
100
AcDbEntity
8
DIM
100
AcDbLine
10
40700
20
5800
30
0
11
40700
21
7800
31
0
0
LINE
5
2C6
330
10E
100
AcDbEntity
8
DIM
100
AcDbLine
10
40770
20
5730
30
0
11
40630
21
5870
31
0
0
LINE
5
2C7
330
10E
100
AcDbEntity
8
DIM
100
AcDbLine
10
40770
20
7730
30
0
11
40630
21
7870
31
0
0
TEXT
5
2C8
330
10E
100
AcDbEntity
8
DIM
100
AcDbText
10
40628
20
6800
30
0
40
180
1
250
50
90
7
STANDARD
72
1
11
40628
21
6800
31
0
100
AcDbText
73
0
0
LINE
5
2C9
330
10E
100
AcDbEntity
8
DIM
100
AcDbLine
10
28900
20
5800
30
0
11
28900
21
5250
31
0
0
LINE
5
2CA
330
10E
100
AcDbEntity
8
DIM
100
AcDbLine
10
33700
20
5800
30
0
11
33700
21
5250
31
0
0
LINE
5
2CB
330
10E
100
AcDbEntity
8
DIM
100
AcDbLine
10
28900
20
5100
30
0
11
33700
21
5100
31
0
0
LINE
5
2CC
330
10E
100
AcDbEntity
8
DIM
100
AcDbLine
10
28830
20
5030
30
0
11
28970
21
5170
31
0
0
LINE
5
2CD
330
10E
100
AcDbEntity
8
DIM
100
AcDbLine
10
33630
20
5030
30
0
11
33770
21
5170
31
0
0
TEXT
5
2CE
330
10E
100
AcDbEntity
8
DIM
100
AcDbText
10
31300
20
5172
30
0
40
180
1
LEG 600
7
STANDARD
72
1
11
31300
21
5172
31
0
100
AcDbText
73
0
0
TEXT
5
2CF
330
10E
100
AcDbEntity
8
REBAR-TEXT
100
AcDbText
10
34500
20
9400
30
0
40
190
1
2T16 TRIMMERS T&B + T12 U-BAR - SECTION AT EDGE
7
STANDARD
72
1
11
34500
21
9400
31
0
100
AcDbText
73
0
0
TEXT
5
2D0
330
10E
100
AcDbEntity
8
NOTES
100
AcDbText
10
34500
20
2760
30
0
40
160
1
TRIMMERS PLACED IN THE SAME LAYER AS THE MAIN MESH
7
STANDARD
72
1
11
34500
21
2760
31
0
100
AcDbText
73
0
0
LWPOLYLINE
5
2D1
330
10E
100
AcDbEntity
8
SCHEDULE
100
AcDbPolyline
90
4
70
1
43
0
10
64600
20
57500
10
83100
20
57500
10
83100
20
58100
10
64600
20
58100
0
TEXT
5
2D2
330
10E
100
AcDbEntity
8
TEXT-TITLE
100
AcDbText
10
73850
20
57800
30
0
40
260
1
BAR BENDING SCHEDULE
7
STANDARD
72
1
11
73850
21
57800
31
0
100
AcDbText
73
2
0
LWPOLYLINE
5
2D3
330
10E
100
AcDbEntity
8
SCHEDULE
100
AcDbPolyline
90
4
70
1
43
0
10
64600
20
57000
10
83100
20
57000
10
83100
20
57500
10
64600
20
57500
0
TEXT
5
2D4
330
10E
100
AcDbEntity
8
SCHEDULE-TEXT
100
AcDbText
10
65300
20
57250
30
0
40
160
1
MARK
7
STANDARD
72
1
11
65300
21
57250
31
0
100
AcDbText
73
2
0
TEXT
5
2D5
330
10E
100
AcDbEntity
8
SCHEDULE-TEXT
100
AcDbText
10
66450
20
57250
30
0
40
160
1
\U+00D8
7
STANDARD
72
1
11
66450
21
57250
31
0
100
AcDbText
73
2
0
TEXT
5
2D6
330
10E
100
AcDbEntity
8
SCHEDULE-TEXT
100
AcDbText
10
67550
20
57250
30
0
40
160
1
SHAPE
7
STANDARD
72
1
11
67550
21
57250
31
0
100
AcDbText
73
2
0
TEXT
5
2D7
330
10E
100
AcDbEntity
8
SCHEDULE-TEXT
100
AcDbText
10
68850
20
57250
30
0
40
160
1
SPAC.
7
STANDARD
72
1
11
68850
21
57250
31
0
100
AcDbText
73
2
0
TEXT
5
2D8
330
10E
100
AcDbEntity
8
SCHEDULE-TEXT
100
AcDbText
10
70350
20
57355
30
0
40
160
1
LENGTH
7
STANDARD
72
1
11
70350
21
57355
31
0
100
AcDbText
73
2
0
TEXT
5
2D9
330
10E
100
AcDbEntity
8
SCHEDULE-TEXT
100
AcDbText
10
70350
20
57145
30
0
40
160
1
(mm)
7
STANDARD
72
1
11
70350
21
57145
31
0
100
AcDbText
73
2
0
TEXT
5
2DA
330
10E
100
AcDbEntity
8
SCHEDULE-TEXT
100
AcDbText
10
71850
20
57250
30
0
40
160
1
QTY
7
STANDARD
72
1
11
71850
21
57250
31
0
100
AcDbText
73
2
0
TEXT
5
2DB
330
10E
100
AcDbEntity
8
SCHEDULE-TEXT
100
AcDbText
10
73350
20
57355
30
0
40
160
1
TOTAL
7
STANDARD
72
1
11
73350
21
57355
31
0
100
AcDbText
73
2
0
TEXT
5
2DC
330
10E
100
AcDbEntity
8
SCHEDULE-TEXT
100
AcDbText
10
73350
20
57145
30
0
40
160
1
(m)
7
STANDARD
72
1
11
73350
21
57145
31
0
100
AcDbText
73
2
0
TEXT
5
2DD
330
10E
100
AcDbEntity
8
SCHEDULE-TEXT
100
AcDbText
10
75050
20
57355
30
0
40
160
1
WT.
7
STANDARD
72
1
11
75050
21
57355
31
0
100
AcDbText
73
2
0
TEXT
5
2DE
330
10E
100
AcDbEntity
8
SCHEDULE-TEXT
100
AcDbText
10
75050
20
57145
30
0
40
160
1
(kg)
7
STANDARD
72
1
11
75050
21
57145
31
0
100
AcDbText
73
2
0
TEXT
5
2DF
330
10E
100
AcDbEntity
8
SCHEDULE-TEXT
100
AcDbText
10
79500
20
57250
30
0
40
160
1
ZONES / REMARKS
7
STANDARD
72
1
11
79500
21
57250
31
0
100
AcDbText
73
2
0
TEXT
5
2E0
330
10E
100
AcDbEntity
8
SCHEDULE-TEXT
100
AcDbText
10
65300
20
56800
30
0
40
170
1
B01
7
STANDARD
72
1
11
65300
21
56800
31
0
100
AcDbText
73
2
0
TEXT
5
2E1
330
10E
100
AcDbEntity
8
SCHEDULE-TEXT
100
AcDbText
10
66450
20
56800
30
0
40
170
1
12
7
STANDARD
72
1
11
66450
21
56800
31
0
100
AcDbText
73
2
0
TEXT
5
2E2
330
10E
100
AcDbEntity
8
SCHEDULE-TEXT
100
AcDbText
10
67550
20
56800
30
0
40
170
1
STR
7
STANDARD
72
1
11
67550
21
56800
31
0
100
AcDbText
73
2
0
TEXT
5
2E3
330
10E
100
AcDbEntity
8
SCHEDULE-TEXT
100
AcDbText
10
68850
20
56800
30
0
40
170
1
200
7
STANDARD
72
1
11
68850
21
56800
31
0
100
AcDbText
73
2
0
TEXT
5
2E4
330
10E
100
AcDbEntity
8
SCHEDULE-TEXT
100
AcDbText
10
70350
20
56800
30
0
40
170
1
12000
7
STANDARD
72
1
11
70350
21
56800
31
0
100
AcDbText
73
2
0
TEXT
5
2E5
330
10E
100
AcDbEntity
8
SCHEDULE-TEXT
100
AcDbText
10
71850
20
56800
30
0
40
170
1
421
7
STANDARD
72
1
11
71850
21
56800
31
0
100
AcDbText
73
2
0
TEXT
5
2E6
330
10E
100
AcDbEntity
8
SCHEDULE-TEXT
100
AcDbText
10
73350
20
56800
30
0
40
170
1
5052
7
STANDARD
72
1
11
73350
21
56800
31
0
100
AcDbText
73
2
0
TEXT
5
2E7
330
10E
100
AcDbEntity
8
SCHEDULE-TEXT
100
AcDbText
10
75050
20
56800
30
0
40
170
1
4485
7
STANDARD
72
1
11
75050
21
56800
31
0
100
AcDbText
73
2
0
TEXT
5
2E8
330
10E
100
AcDbEntity
8
SCHEDULE-TEXT
100
AcDbText
10
76000
20
56800
30
0
40
170
1
PT1-X1, PT1-X2, PT1-X3, PT1-X4, PT1-X5, PT1\U+2026
7
STANDARD
72
0
11
76000
21
56800
31
0
100
AcDbText
73
2
0
LINE
5
2E9
330
10E
100
AcDbEntity
8
SCHEDULE
370
5
100
AcDbLine
10
64600
20
56600
30
0
11
83100
21
56600
31
0
0
TEXT
5
2EA
330
10E
100
AcDbEntity
8
SCHEDULE-TEXT
100
AcDbText
10
65300
20
56400
30
0
40
170
1
B02
7
STANDARD
72
1
11
65300
21
56400
31
0
100
AcDbText
73
2
0
TEXT
5
2EB
330
10E
100
AcDbEntity
8
SCHEDULE-TEXT
100
AcDbText
10
66450
20
56400
30
0
40
170
1
12
7
STANDARD
72
1
11
66450
21
56400
31
0
100
AcDbText
73
2
0
TEXT
5
2EC
330
10E
100
AcDbEntity
8
SCHEDULE-TEXT
100
AcDbText
10
67550
20
56400
30
0
40
170
1
STR
7
STANDARD
72
1
11
67550
21
56400
31
0
100
AcDbText
73
2
0
TEXT
5
2ED
330
10E
100
AcDbEntity
8
SCHEDULE-TEXT
100
AcDbText
10
68850
20
56400
30
0
40
170
1
200
7
STANDARD
72
1
11
68850
21
56400
31
0
100
AcDbText
73
2
0
TEXT
5
2EE
330
10E
100
AcDbEntity
8
SCHEDULE-TEXT
100
AcDbText
10
70350
20
56400
30
0
40
170
1
11650
7
STANDARD
72
1
11
70350
21
56400
31
0
100
AcDbText
73
2
0
TEXT
5
2EF
330
10E
100
AcDbEntity
8
SCHEDULE-TEXT
100
AcDbText
10
71850
20
56400
30
0
40
170
1
7
7
STANDARD
72
1
11
71850
21
56400
31
0
100
AcDbText
73
2
0
TEXT
5
2F0
330
10E
100
AcDbEntity
8
SCHEDULE-TEXT
100
AcDbText
10
73350
20
56400
30
0
40
170
1
81.6
7
STANDARD
72
1
11
73350
21
56400
31
0
100
AcDbText
73
2
0
TEXT
5
2F1
330
10E
100
AcDbEntity
8
SCHEDULE-TEXT
100
AcDbText
10
75050
20
56400
30
0
40
170
1
72.4
7
STANDARD
72
1
11
75050
21
56400
31
0
100
AcDbText
73
2
0
TEXT
5
2F2
330
10E
100
AcDbEntity
8
SCHEDULE-TEXT
100
AcDbText
10
76000
20
56400
30
0
40
170
1
PT1-X2
7
STANDARD
72
0
11
76000
21
56400
31
0
100
AcDbText
73
2
0
LINE
5
2F3
330
10E
100
AcDbEntity
8
SCHEDULE
370
5
100
AcDbLine
10
64600
20
56200
30
0
11
83100
21
56200
31
0
0
TEXT
5
2F4
330
10E
100
AcDbEntity
8
SCHEDULE-TEXT
100
AcDbText
10
65300
20
56000
30
0
40
170
1
B03
7
STANDARD
72
1
11
65300
21
56000
31
0
100
AcDbText
73
2
0
TEXT
5
2F5
330
10E
100
AcDbEntity
8
SCHEDULE-TEXT
100
AcDbText
10
66450
20
56000
30
0
40
170
1
12
7
STANDARD
72
1
11
66450
21
56000
31
0
100
AcDbText
73
2
0
TEXT
5
2F6
330
10E
100
AcDbEntity
8
SCHEDULE-TEXT
100
AcDbText
10
67550
20
56000
30
0
40
170
1
STR
7
STANDARD
72
1
11
67550
21
56000
31
0
100
AcDbText
73
2
0
TEXT
5
2F7
330
10E
100
AcDbEntity
8
SCHEDULE-TEXT
100
AcDbText
10
68850
20
56000
30
0
40
170
1
200
7
STANDARD
72
1
11
68850
21
56000
31
0
100
AcDbText
73
2
0
TEXT
5
2F8
330
10E
100
AcDbEntity
8
SCHEDULE-TEXT
100
AcDbText
10
70350
20
56000
30
0
40
170
1
10950
7
STANDARD
72
1
11
70350
21
56000
31
0
100
AcDbText
73
2
0
TEXT
5
2F9
330
10E
100
AcDbEntity
8
SCHEDULE-TEXT
100
AcDbText
10
71850
20
56000
30
0
40
170
1
25
7
STANDARD
72
1
11
71850
21
56000
31
0
100
AcDbText
73
2
0
TEXT
5
2FA
330
10E
100
AcDbEntity
8
SCHEDULE-TEXT
100
AcDbText
10
73350
20
56000
30
0
40
170
1
273.8
7
STANDARD
72
1
11
73350
21
56000
31
0
100
AcDbText
73
2
0
TEXT
5
2FB
330
10E
100
AcDbEntity
8
SCHEDULE-TEXT
100
AcDbText
10
75050
20
56000
30
0
40
170
1
243
7
STANDARD
72
1
11
75050
21
56000
31
0
100
AcDbText
73
2
0
TEXT
5
2FC
330
10E
100
AcDbEntity
8
SCHEDULE-TEXT
100
AcDbText
10
76000
20
56000
30
0
40
170
1
PT1-X4
7
STANDARD
72
0
11
76000
21
56000
31
0
100
AcDbText
73
2
0
LINE
5
2FD
330
10E
100
AcDbEntity
8
SCHEDULE
370
5
100
AcDbLine
10
64600
20
55800
30
0
11
83100
21
55800
31
0
0
TEXT
5
2FE
330
10E
100
AcDbEntity
8
SCHEDULE-TEXT
100
AcDbText
10
65300
20
55600
30
0
40
170
1
B04
7
STANDARD
72
1
11
65300
21
55600
31
0
100
AcDbText
73
2
0
TEXT
5
2FF
330
10E
100
AcDbEntity
8
SCHEDULE-TEXT
100
AcDbText
10
66450
20
55600
30
0
40
170
1
12
7
STANDARD
72
1
11
66450
21
55600
31
0
100
AcDbText
73
2
0
TEXT
5
300
330
10E
100
AcDbEntity
8
SCHEDULE-TEXT
100
AcDbText
10
67550
20
55600
30
0
40
170
1
STR
7
STANDARD
72
1
11
67550
21
55600
31
0
100
AcDbText
73
2
0
TEXT
5
301
330
10E
100
AcDbEntity
8
SCHEDULE-TEXT
100
AcDbText
10
68850
20
55600
30
0
40
170
1
200
7
STANDARD
72
1
11
68850
21
55600
31
0
100
AcDbText
73
2
0
TEXT
5
302
330
10E
100
AcDbEntity
8
SCHEDULE-TEXT
100
AcDbText
10
70350
20
55600
30
0
40
170
1
10550
7
STANDARD
72
1
11
70350
21
55600
31
0
100
AcDbText
73
2
0
TEXT
5
303
330
10E
100
AcDbEntity
8
SCHEDULE-TEXT
100
AcDbText
10
71850
20
55600
30
0
40
170
1
12
7
STANDARD
72
1
11
71850
21
55600
31
0
100
AcDbText
73
2
0
TEXT
5
304
330
10E
100
AcDbEntity
8
SCHEDULE-TEXT
100
AcDbText
10
73350
20
55600
30
0
40
170
1
126.6
7
STANDARD
72
1
11
73350
21
55600
31
0
100
AcDbText
73
2
0
TEXT
5
305
330
10E
100
AcDbEntity
8
SCHEDULE-TEXT
100
AcDbText
10
75050
20
55600
30
0
40
170
1
112.4
7
STANDARD
72
1
11
75050
21
55600
31
0
100
AcDbText
73
2
0
TEXT
5
306
330
10E
100
AcDbEntity
8
SCHEDULE-TEXT
100
AcDbText
10
76000
20
55600
30
0
40
170
1
PT1-X6
7
STANDARD
72
0
11
76000
21
55600
31
0
100
AcDbText
73
2
0
LINE
5
307
330
10E
100
AcDbEntity
8
SCHEDULE
370
5
100
AcDbLine
10
64600
20
55400
30
0
11
83100
21
55400
31
0
0
TEXT
5
308
330
10E
100
AcDbEntity
8
SCHEDULE-TEXT
100
AcDbText
10
65300
20
55200
30
0
40
170
1
B05
7
STANDARD
72
1
11
65300
21
55200
31
0
100
AcDbText
73
2
0
TEXT
5
309
330
10E
100
AcDbEntity
8
SCHEDULE-TEXT
100
AcDbText
10
66450
20
55200
30
0
40
170
1
12
7
STANDARD
72
1
11
66450
21
55200
31
0
100
AcDbText
73
2
0
TEXT
5
30A
330
10E
100
AcDbEntity
8
SCHEDULE-TEXT
100
AcDbText
10
67550
20
55200
30
0
40
170
1
STR
7
STANDARD
72
1
11
67550
21
55200
31
0
100
AcDbText
73
2
0
TEXT
5
30B
330
10E
100
AcDbEntity
8
SCHEDULE-TEXT
100
AcDbText
10
68850
20
55200
30
0
40
170
1
200
7
STANDARD
72
1
11
68850
21
55200
31
0
100
AcDbText
73
2
0
TEXT
5
30C
330
10E
100
AcDbEntity
8
SCHEDULE-TEXT
100
AcDbText
10
70350
20
55200
30
0
40
170
1
10450
7
STANDARD
72
1
11
70350
21
55200
31
0
100
AcDbText
73
2
0
TEXT
5
30D
330
10E
100
AcDbEntity
8
SCHEDULE-TEXT
100
AcDbText
10
71850
20
55200
30
0
40
170
1
30
7
STANDARD
72
1
11
71850
21
55200
31
0
100
AcDbText
73
2
0
TEXT
5
30E
330
10E
100
AcDbEntity
8
SCHEDULE-TEXT
100
AcDbText
10
73350
20
55200
30
0
40
170
1
313.5
7
STANDARD
72
1
11
73350
21
55200
31
0
100
AcDbText
73
2
0
TEXT
5
30F
330
10E
100
AcDbEntity
8
SCHEDULE-TEXT
100
AcDbText
10
75050
20
55200
30
0
40
170
1
278.3
7
STANDARD
72
1
11
75050
21
55200
31
0
100
AcDbText
73
2
0
TEXT
5
310
330
10E
100
AcDbEntity
8
SCHEDULE-TEXT
100
AcDbText
10
76000
20
55200
30
0
40
170
1
PT1-Y2
7
STANDARD
72
0
11
76000
21
55200
31
0
100
AcDbText
73
2
0
LINE
5
311
330
10E
100
AcDbEntity
8
SCHEDULE
370
5
100
AcDbLine
10
64600
20
55000
30
0
11
83100
21
55000
31
0
0
TEXT
5
312
330
10E
100
AcDbEntity
8
SCHEDULE-TEXT
100
AcDbText
10
65300
20
54800
30
0
40
170
1
B06
7
STANDARD
72
1
11
65300
21
54800
31
0
100
AcDbText
73
2
0
TEXT
5
313
330
10E
100
AcDbEntity
8
SCHEDULE-TEXT
100
AcDbText
10
66450
20
54800
30
0
40
170
1
12
7
STANDARD
72
1
11
66450
21
54800
31
0
100
AcDbText
73
2
0
TEXT
5
314
330
10E
100
AcDbEntity
8
SCHEDULE-TEXT
100
AcDbText
10
67550
20
54800
30
0
40
170
1
STR
7
STANDARD
72
1
11
67550
21
54800
31
0
100
AcDbText
73
2
0
TEXT
5
315
330
10E
100
AcDbEntity
8
SCHEDULE-TEXT
100
AcDbText
10
68850
20
54800
30
0
40
170
1
200
7
STANDARD
72
1
11
68850
21
54800
31
0
100
AcDbText
73
2
0
TEXT
5
316
330
10E
100
AcDbEntity
8
SCHEDULE-TEXT
100
AcDbText
10
70350
20
54800
30
0
40
170
1
9550
7
STANDARD
72
1
11
70350
21
54800
31
0
100
AcDbText
73
2
0
TEXT
5
317
330
10E
100
AcDbEntity
8
SCHEDULE-TEXT
100
AcDbText
10
71850
20
54800
30
0
40
170
1
37
7
STANDARD
72
1
11
71850
21
54800
31
0
100
AcDbText
73
2
0
TEXT
5
318
330
10E
100
AcDbEntity
8
SCHEDULE-TEXT
100
AcDbText
10
73350
20
54800
30
0
40
170
1
353.4
7
STANDARD
72
1
11
73350
21
54800
31
0
100
AcDbText
73
2
0
TEXT
5
319
330
10E
100
AcDbEntity
8
SCHEDULE-TEXT
100
AcDbText
10
75050
20
54800
30
0
40
170
1
313.7
7
STANDARD
72
1
11
75050
21
54800
31
0
100
AcDbText
73
2
0
TEXT
5
31A
330
10E
100
AcDbEntity
8
SCHEDULE-TEXT
100
AcDbText
10
76000
20
54800
30
0
40
170
1
PT1-X1, PT1-X3, PT1-X5
7
STANDARD
72
0
11
76000
21
54800
31
0
100
AcDbText
73
2
0
LINE
5
31B
330
10E
100
AcDbEntity
8
SCHEDULE
370
5
100
AcDbLine
10
64600
20
54600
30
0
11
83100
21
54600
31
0
0
TEXT
5
31C
330
10E
100
AcDbEntity
8
SCHEDULE-TEXT
100
AcDbText
10
65300
20
54400
30
0
40
170
1
B07
7
STANDARD
72
1
11
65300
21
54400
31
0
100
AcDbText
73
2
0
TEXT
5
31D
330
10E
100
AcDbEntity
8
SCHEDULE-TEXT
100
AcDbText
10
66450
20
54400
30
0
40
170
1
12
7
STANDARD
72
1
11
66450
21
54400
31
0
100
AcDbText
73
2
0
TEXT
5
31E
330
10E
100
AcDbEntity
8
SCHEDULE-TEXT
100
AcDbText
10
67550
20
54400
30
0
40
170
1
STR
7
STANDARD
72
1
11
67550
21
54400
31
0
100
AcDbText
73
2
0
TEXT
5
31F
330
10E
100
AcDbEntity
8
SCHEDULE-TEXT
100
AcDbText
10
68850
20
54400
30
0
40
170
1
200
7
STANDARD
72
1
11
68850
21
54400
31
0
100
AcDbText
73
2
0
TEXT
5
320
330
10E
100
AcDbEntity
8
SCHEDULE-TEXT
100
AcDbText
10
70350
20
54400
30
0
40
170
1
9500
7
STANDARD
72
1
11
70350
21
54400
31
0
100
AcDbText
73
2
0
TEXT
5
321
330
10E
100
AcDbEntity
8
SCHEDULE-TEXT
100
AcDbText
10
71850
20
54400
30
0
40
170
1
13
7
STANDARD
72
1
11
71850
21
54400
31
0
100
AcDbText
73
2
0
TEXT
5
322
330
10E
100
AcDbEntity
8
SCHEDULE-TEXT
100
AcDbText
10
73350
20
54400
30
0
40
170
1
123.5
7
STANDARD
72
1
11
73350
21
54400
31
0
100
AcDbText
73
2
0
TEXT
5
323
330
10E
100
AcDbEntity
8
SCHEDULE-TEXT
100
AcDbText
10
75050
20
54400
30
0
40
170
1
109.6
7
STANDARD
72
1
11
75050
21
54400
31
0
100
AcDbText
73
2
0
TEXT
5
324
330
10E
100
AcDbEntity
8
SCHEDULE-TEXT
100
AcDbText
10
76000
20
54400
30
0
40
170
1
PT1-Y6
7
STANDARD
72
0
11
76000
21
54400
31
0
100
AcDbText
73
2
0
LINE
5
325
330
10E
100
AcDbEntity
8
SCHEDULE
370
5
100
AcDbLine
10
64600
20
54200
30
0
11
83100
21
54200
31
0
0
TEXT
5
326
330
10E
100
AcDbEntity
8
SCHEDULE-TEXT
100
AcDbText
10
65300
20
54000
30
0
40
170
1
B08
7
STANDARD
72
1
11
65300
21
54000
31
0
100
AcDbText
73
2
0
TEXT
5
327
330
10E
100
AcDbEntity
8
SCHEDULE-TEXT
100
AcDbText
10
66450
20
54000
30
0
40
170
1
12
7
STANDARD
72
1
11
66450
21
54000
31
0
100
AcDbText
73
2
0
TEXT
5
328
330
10E
100
AcDbEntity
8
SCHEDULE-TEXT
100
AcDbText
10
67550
20
54000
30
0
40
170
1
STR
7
STANDARD
72
1
11
67550
21
54000
31
0
100
AcDbText
73
2
0
TEXT
5
329
330
10E
100
AcDbEntity
8
SCHEDULE-TEXT
100
AcDbText
10
68850
20
54000
30
0
40
170
1
200
7
STANDARD
72
1
11
68850
21
54000
31
0
100
AcDbText
73
2
0
TEXT
5
32A
330
10E
100
AcDbEntity
8
SCHEDULE-TEXT
100
AcDbText
10
70350
20
54000
30
0
40
170
1
9050
7
STANDARD
72
1
11
70350
21
54000
31
0
100
AcDbText
73
2
0
TEXT
5
32B
330
10E
100
AcDbEntity
8
SCHEDULE-TEXT
100
AcDbText
10
71850
20
54000
30
0
40
170
1
55
7
STANDARD
72
1
11
71850
21
54000
31
0
100
AcDbText
73
2
0
TEXT
5
32C
330
10E
100
AcDbEntity
8
SCHEDULE-TEXT
100
AcDbText
10
73350
20
54000
30
0
40
170
1
497.8
7
STANDARD
72
1
11
73350
21
54000
31
0
100
AcDbText
73
2
0
TEXT
5
32D
330
10E
100
AcDbEntity
8
SCHEDULE-TEXT
100
AcDbText
10
75050
20
54000
30
0
40
170
1
441.9
7
STANDARD
72
1
11
75050
21
54000
31
0
100
AcDbText
73
2
0
TEXT
5
32E
330
10E
100
AcDbEntity
8
SCHEDULE-TEXT
100
AcDbText
10
76000
20
54000
30
0
40
170
1
PT1-Y1, PT1-Y3, PT1-Y5
7
STANDARD
72
0
11
76000
21
54000
31
0
100
AcDbText
73
2
0
LINE
5
32F
330
10E
100
AcDbEntity
8
SCHEDULE
370
5
100
AcDbLine
10
64600
20
53800
30
0
11
83100
21
53800
31
0
0
TEXT
5
330
330
10E
100
AcDbEntity
8
SCHEDULE-TEXT
100
AcDbText
10
65300
20
53600
30
0
40
170
1
B09
7
STANDARD
72
1
11
65300
21
53600
31
0
100
AcDbText
73
2
0
TEXT
5
331
330
10E
100
AcDbEntity
8
SCHEDULE-TEXT
100
AcDbText
10
66450
20
53600
30
0
40
170
1
12
7
STANDARD
72
1
11
66450
21
53600
31
0
100
AcDbText
73
2
0
TEXT
5
332
330
10E
100
AcDbEntity
8
SCHEDULE-TEXT
100
AcDbText
10
67550
20
53600
30
0
40
170
1
STR
7
STANDARD
72
1
11
67550
21
53600
31
0
100
AcDbText
73
2
0
TEXT
5
333
330
10E
100
AcDbEntity
8
SCHEDULE-TEXT
100
AcDbText
10
68850
20
53600
30
0
40
170
1
200
7
STANDARD
72
1
11
68850
21
53600
31
0
100
AcDbText
73
2
0
TEXT
5
334
330
10E
100
AcDbEntity
8
SCHEDULE-TEXT
100
AcDbText
10
70350
20
53600
30
0
40
170
1
9000
7
STANDARD
72
1
11
70350
21
53600
31
0
100
AcDbText
73
2
0
TEXT
5
335
330
10E
100
AcDbEntity
8
SCHEDULE-TEXT
100
AcDbText
10
71850
20
53600
30
0
40
170
1
5
7
STANDARD
72
1
11
71850
21
53600
31
0
100
AcDbText
73
2
0
TEXT
5
336
330
10E
100
AcDbEntity
8
SCHEDULE-TEXT
100
AcDbText
10
73350
20
53600
30
0
40
170
1
45
7
STANDARD
72
1
11
73350
21
53600
31
0
100
AcDbText
73
2
0
TEXT
5
337
330
10E
100
AcDbEntity
8
SCHEDULE-TEXT
100
AcDbText
10
75050
20
53600
30
0
40
170
1
39.9
7
STANDARD
72
1
11
75050
21
53600
31
0
100
AcDbText
73
2
0
TEXT
5
338
330
10E
100
AcDbEntity
8
SCHEDULE-TEXT
100
AcDbText
10
76000
20
53600
30
0
40
170
1
PT1-Y4
7
STANDARD
72
0
11
76000
21
53600
31
0
100
AcDbText
73
2
0
LINE
5
339
330
10E
100
AcDbEntity
8
SCHEDULE
370
5
100
AcDbLine
10
64600
20
53400
30
0
11
83100
21
53400
31
0
0
TEXT
5
33A
330
10E
100
AcDbEntity
8
SCHEDULE-TEXT
100
AcDbText
10
65300
20
53200
30
0
40
170
1
B10
7
STANDARD
72
1
11
65300
21
53200
31
0
100
AcDbText
73
2
0
TEXT
5
33B
330
10E
100
AcDbEntity
8
SCHEDULE-TEXT
100
AcDbText
10
66450
20
53200
30
0
40
170
1
12
7
STANDARD
72
1
11
66450
21
53200
31
0
100
AcDbText
73
2
0
TEXT
5
33C
330
10E
100
AcDbEntity
8
SCHEDULE-TEXT
100
AcDbText
10
67550
20
53200
30
0
40
170
1
STR
7
STANDARD
72
1
11
67550
21
53200
31
0
100
AcDbText
73
2
0
TEXT
5
33D
330
10E
100
AcDbEntity
8
SCHEDULE-TEXT
100
AcDbText
10
68850
20
53200
30
0
40
170
1
200
7
STANDARD
72
1
11
68850
21
53200
31
0
100
AcDbText
73
2
0
TEXT
5
33E
330
10E
100
AcDbEntity
8
SCHEDULE-TEXT
100
AcDbText
10
70350
20
53200
30
0
40
170
1
7500
7
STANDARD
72
1
11
70350
21
53200
31
0
100
AcDbText
73
2
0
TEXT
5
33F
330
10E
100
AcDbEntity
8
SCHEDULE-TEXT
100
AcDbText
10
71850
20
53200
30
0
40
170
1
4
7
STANDARD
72
1
11
71850
21
53200
31
0
100
AcDbText
73
2
0
TEXT
5
340
330
10E
100
AcDbEntity
8
SCHEDULE-TEXT
100
AcDbText
10
73350
20
53200
30
0
40
170
1
30
7
STANDARD
72
1
11
73350
21
53200
31
0
100
AcDbText
73
2
0
TEXT
5
341
330
10E
100
AcDbEntity
8
SCHEDULE-TEXT
100
AcDbText
10
75050
20
53200
30
0
40
170
1
26.6
7
STANDARD
72
1
11
75050
21
53200
31
0
100
AcDbText
73
2
0
TEXT
5
342
330
10E
100
AcDbEntity
8
SCHEDULE-TEXT
100
AcDbText
10
76000
20
53200
30
0
40
170
1
PT1-X2
7
STANDARD
72
0
11
76000
21
53200
31
0
100
AcDbText
73
2
0
LINE
5
343
330
10E
100
AcDbEntity
8
SCHEDULE
370
5
100
AcDbLine
10
64600
20
53000
30
0
11
83100
21
53000
31
0
0
TEXT
5
344
330
10E
100
AcDbEntity
8
SCHEDULE-TEXT
100
AcDbText
10
65300
20
52800
30
0
40
170
1
B11
7
STANDARD
72
1
11
65300
21
52800
31
0
100
AcDbText
73
2
0
TEXT
5
345
330
10E
100
AcDbEntity
8
SCHEDULE-TEXT
100
AcDbText
10
66450
20
52800
30
0
40
170
1
12
7
STANDARD
72
1
11
66450
21
52800
31
0
100
AcDbText
73
2
0
TEXT
5
346
330
10E
100
AcDbEntity
8
SCHEDULE-TEXT
100
AcDbText
10
67550
20
52800
30
0
40
170
1
STR
7
STANDARD
72
1
11
67550
21
52800
31
0
100
AcDbText
73
2
0
TEXT
5
347
330
10E
100
AcDbEntity
8
SCHEDULE-TEXT
100
AcDbText
10
68850
20
52800
30
0
40
170
1
200
7
STANDARD
72
1
11
68850
21
52800
31
0
100
AcDbText
73
2
0
TEXT
5
348
330
10E
100
AcDbEntity
8
SCHEDULE-TEXT
100
AcDbText
10
70350
20
52800
30
0
40
170
1
7000
7
STANDARD
72
1
11
70350
21
52800
31
0
100
AcDbText
73
2
0
TEXT
5
349
330
10E
100
AcDbEntity
8
SCHEDULE-TEXT
100
AcDbText
10
71850
20
52800
30
0
40
170
1
13
7
STANDARD
72
1
11
71850
21
52800
31
0
100
AcDbText
73
2
0
TEXT
5
34A
330
10E
100
AcDbEntity
8
SCHEDULE-TEXT
100
AcDbText
10
73350
20
52800
30
0
40
170
1
91
7
STANDARD
72
1
11
73350
21
52800
31
0
100
AcDbText
73
2
0
TEXT
5
34B
330
10E
100
AcDbEntity
8
SCHEDULE-TEXT
100
AcDbText
10
75050
20
52800
30
0
40
170
1
80.8
7
STANDARD
72
1
11
75050
21
52800
31
0
100
AcDbText
73
2
0
TEXT
5
34C
330
10E
100
AcDbEntity
8
SCHEDULE-TEXT
100
AcDbText
10
76000
20
52800
30
0
40
170
1
PT1-X4
7
STANDARD
72
0
11
76000
21
52800
31
0
100
AcDbText
73
2
0
LINE
5
34D
330
10E
100
AcDbEntity
8
SCHEDULE
370
5
100
AcDbLine
10
64600
20
52600
30
0
11
83100
21
52600
31
0
0
TEXT
5
34E
330
10E
100
AcDbEntity
8
SCHEDULE-TEXT
100
AcDbText
10
65300
20
52400
30
0
40
170
1
B12
7
STANDARD
72
1
11
65300
21
52400
31
0
100
AcDbText
73
2
0
TEXT
5
34F
330
10E
100
AcDbEntity
8
SCHEDULE-TEXT
100
AcDbText
10
66450
20
52400
30
0
40
170
1
12
7
STANDARD
72
1
11
66450
21
52400
31
0
100
AcDbText
73
2
0
TEXT
5
350
330
10E
100
AcDbEntity
8
SCHEDULE-TEXT
100
AcDbText
10
67550
20
52400
30
0
40
170
1
STR
7
STANDARD
72
1
11
67550
21
52400
31
0
100
AcDbText
73
2
0
TEXT
5
351
330
10E
100
AcDbEntity
8
SCHEDULE-TEXT
100
AcDbText
10
68850
20
52400
30
0
40
170
1
200
7
STANDARD
72
1
11
68850
21
52400
31
0
100
AcDbText
73
2
0
TEXT
5
352
330
10E
100
AcDbEntity
8
SCHEDULE-TEXT
100
AcDbText
10
70350
20
52400
30
0
40
170
1
6000
7
STANDARD
72
1
11
70350
21
52400
31
0
100
AcDbText
73
2
0
TEXT
5
353
330
10E
100
AcDbEntity
8
SCHEDULE-TEXT
100
AcDbText
10
71850
20
52400
30
0
40
170
1
134
7
STANDARD
72
1
11
71850
21
52400
31
0
100
AcDbText
73
2
0
TEXT
5
354
330
10E
100
AcDbEntity
8
SCHEDULE-TEXT
100
AcDbText
10
73350
20
52400
30
0
40
170
1
804
7
STANDARD
72
1
11
73350
21
52400
31
0
100
AcDbText
73
2
0
TEXT
5
355
330
10E
100
AcDbEntity
8
SCHEDULE-TEXT
100
AcDbText
10
75050
20
52400
30
0
40
170
1
713.8
7
STANDARD
72
1
11
75050
21
52400
31
0
100
AcDbText
73
2
0
TEXT
5
356
330
10E
100
AcDbEntity
8
SCHEDULE-TEXT
100
AcDbText
10
76000
20
52400
30
0
40
170
1
PT1-X1, PT1-X2, PT1-X3, PT1-X4, PT1-X5, PT1\U+2026
7
STANDARD
72
0
11
76000
21
52400
31
0
100
AcDbText
73
2
0
LINE
5
357
330
10E
100
AcDbEntity
8
SCHEDULE
370
5
100
AcDbLine
10
64600
20
52200
30
0
11
83100
21
52200
31
0
0
TEXT
5
358
330
10E
100
AcDbEntity
8
SCHEDULE-TEXT
100
AcDbText
10
65300
20
52000
30
0
40
170
1
B13
7
STANDARD
72
1
11
65300
21
52000
31
0
100
AcDbText
73
2
0
TEXT
5
359
330
10E
100
AcDbEntity
8
SCHEDULE-TEXT
100
AcDbText
10
66450
20
52000
30
0
40
170
1
12
7
STANDARD
72
1
11
66450
21
52000
31
0
100
AcDbText
73
2
0
TEXT
5
35A
330
10E
100
AcDbEntity
8
SCHEDULE-TEXT
100
AcDbText
10
67550
20
52000
30
0
40
170
1
STR
7
STANDARD
72
1
11
67550
21
52000
31
0
100
AcDbText
73
2
0
TEXT
5
35B
330
10E
100
AcDbEntity
8
SCHEDULE-TEXT
100
AcDbText
10
68850
20
52000
30
0
40
170
1
200
7
STANDARD
72
1
11
68850
21
52000
31
0
100
AcDbText
73
2
0
TEXT
5
35C
330
10E
100
AcDbEntity
8
SCHEDULE-TEXT
100
AcDbText
10
70350
20
52000
30
0
40
170
1
4550
7
STANDARD
72
1
11
70350
21
52000
31
0
100
AcDbText
73
2
0
TEXT
5
35D
330
10E
100
AcDbEntity
8
SCHEDULE-TEXT
100
AcDbText
10
71850
20
52000
30
0
40
170
1
13
7
STANDARD
72
1
11
71850
21
52000
31
0
100
AcDbText
73
2
0
TEXT
5
35E
330
10E
100
AcDbEntity
8
SCHEDULE-TEXT
100
AcDbText
10
73350
20
52000
30
0
40
170
1
59.2
7
STANDARD
72
1
11
73350
21
52000
31
0
100
AcDbText
73
2
0
TEXT
5
35F
330
10E
100
AcDbEntity
8
SCHEDULE-TEXT
100
AcDbText
10
75050
20
52000
30
0
40
170
1
52.5
7
STANDARD
72
1
11
75050
21
52000
31
0
100
AcDbText
73
2
0
TEXT
5
360
330
10E
100
AcDbEntity
8
SCHEDULE-TEXT
100
AcDbText
10
76000
20
52000
30
0
40
170
1
PT1-X6
7
STANDARD
72
0
11
76000
21
52000
31
0
100
AcDbText
73
2
0
LINE
5
361
330
10E
100
AcDbEntity
8
SCHEDULE
370
5
100
AcDbLine
10
64600
20
51800
30
0
11
83100
21
51800
31
0
0
TEXT
5
362
330
10E
100
AcDbEntity
8
SCHEDULE-TEXT
100
AcDbText
10
65300
20
51600
30
0
40
170
1
B14
7
STANDARD
72
1
11
65300
21
51600
31
0
100
AcDbText
73
2
0
TEXT
5
363
330
10E
100
AcDbEntity
8
SCHEDULE-TEXT
100
AcDbText
10
66450
20
51600
30
0
40
170
1
12
7
STANDARD
72
1
11
66450
21
51600
31
0
100
AcDbText
73
2
0
TEXT
5
364
330
10E
100
AcDbEntity
8
SCHEDULE-TEXT
100
AcDbText
10
67550
20
51600
30
0
40
170
1
STR
7
STANDARD
72
1
11
67550
21
51600
31
0
100
AcDbText
73
2
0
TEXT
5
365
330
10E
100
AcDbEntity
8
SCHEDULE-TEXT
100
AcDbText
10
68850
20
51600
30
0
40
170
1
200
7
STANDARD
72
1
11
68850
21
51600
31
0
100
AcDbText
73
2
0
TEXT
5
366
330
10E
100
AcDbEntity
8
SCHEDULE-TEXT
100
AcDbText
10
70350
20
51600
30
0
40
170
1
4100
7
STANDARD
72
1
11
70350
21
51600
31
0
100
AcDbText
73
2
0
TEXT
5
367
330
10E
100
AcDbEntity
8
SCHEDULE-TEXT
100
AcDbText
10
71850
20
51600
30
0
40
170
1
36
7
STANDARD
72
1
11
71850
21
51600
31
0
100
AcDbText
73
2
0
TEXT
5
368
330
10E
100
AcDbEntity
8
SCHEDULE-TEXT
100
AcDbText
10
73350
20
51600
30
0
40
170
1
147.6
7
STANDARD
72
1
11
73350
21
51600
31
0
100
AcDbText
73
2
0
TEXT
5
369
330
10E
100
AcDbEntity
8
SCHEDULE-TEXT
100
AcDbText
10
75050
20
51600
30
0
40
170
1
131
7
STANDARD
72
1
11
75050
21
51600
31
0
100
AcDbText
73
2
0
TEXT
5
36A
330
10E
100
AcDbEntity
8
SCHEDULE-TEXT
100
AcDbText
10
76000
20
51600
30
0
40
170
1
PT1-X1, PT1-X3, PT1-X5
7
STANDARD
72
0
11
76000
21
51600
31
0
100
AcDbText
73
2
0
LINE
5
36B
330
10E
100
AcDbEntity
8
SCHEDULE
370
5
100
AcDbLine
10
64600
20
51400
30
0
11
83100
21
51400
31
0
0
TEXT
5
36C
330
10E
100
AcDbEntity
8
SCHEDULE-TEXT
100
AcDbText
10
65300
20
51200
30
0
40
170
1
B15
7
STANDARD
72
1
11
65300
21
51200
31
0
100
AcDbText
73
2
0
TEXT
5
36D
330
10E
100
AcDbEntity
8
SCHEDULE-TEXT
100
AcDbText
10
66450
20
51200
30
0
40
170
1
12
7
STANDARD
72
1
11
66450
21
51200
31
0
100
AcDbText
73
2
0
TEXT
5
36E
330
10E
100
AcDbEntity
8
SCHEDULE-TEXT
100
AcDbText
10
67550
20
51200
30
0
40
170
1
STR
7
STANDARD
72
1
11
67550
21
51200
31
0
100
AcDbText
73
2
0
TEXT
5
36F
330
10E
100
AcDbEntity
8
SCHEDULE-TEXT
100
AcDbText
10
68850
20
51200
30
0
40
170
1
200
7
STANDARD
72
1
11
68850
21
51200
31
0
100
AcDbText
73
2
0
TEXT
5
370
330
10E
100
AcDbEntity
8
SCHEDULE-TEXT
100
AcDbText
10
70350
20
51200
30
0
40
170
1
4050
7
STANDARD
72
1
11
70350
21
51200
31
0
100
AcDbText
73
2
0
TEXT
5
371
330
10E
100
AcDbEntity
8
SCHEDULE-TEXT
100
AcDbText
10
71850
20
51200
30
0
40
170
1
12
7
STANDARD
72
1
11
71850
21
51200
31
0
100
AcDbText
73
2
0
TEXT
5
372
330
10E
100
AcDbEntity
8
SCHEDULE-TEXT
100
AcDbText
10
73350
20
51200
30
0
40
170
1
48.6
7
STANDARD
72
1
11
73350
21
51200
31
0
100
AcDbText
73
2
0
TEXT
5
373
330
10E
100
AcDbEntity
8
SCHEDULE-TEXT
100
AcDbText
10
75050
20
51200
30
0
40
170
1
43.1
7
STANDARD
72
1
11
75050
21
51200
31
0
100
AcDbText
73
2
0
TEXT
5
374
330
10E
100
AcDbEntity
8
SCHEDULE-TEXT
100
AcDbText
10
76000
20
51200
30
0
40
170
1
PT1-Y6
7
STANDARD
72
0
11
76000
21
51200
31
0
100
AcDbText
73
2
0
LINE
5
375
330
10E
100
AcDbEntity
8
SCHEDULE
370
5
100
AcDbLine
10
64600
20
51000
30
0
11
83100
21
51000
31
0
0
TEXT
5
376
330
10E
100
AcDbEntity
8
SCHEDULE-TEXT
100
AcDbText
10
65300
20
50800
30
0
40
170
1
B16
7
STANDARD
72
1
11
65300
21
50800
31
0
100
AcDbText
73
2
0
TEXT
5
377
330
10E
100
AcDbEntity
8
SCHEDULE-TEXT
100
AcDbText
10
66450
20
50800
30
0
40
170
1
12
7
STANDARD
72
1
11
66450
21
50800
31
0
100
AcDbText
73
2
0
TEXT
5
378
330
10E
100
AcDbEntity
8
SCHEDULE-TEXT
100
AcDbText
10
67550
20
50800
30
0
40
170
1
STR
7
STANDARD
72
1
11
67550
21
50800
31
0
100
AcDbText
73
2
0
TEXT
5
379
330
10E
100
AcDbEntity
8
SCHEDULE-TEXT
100
AcDbText
10
68850
20
50800
30
0
40
170
1
200
7
STANDARD
72
1
11
68850
21
50800
31
0
100
AcDbText
73
2
0
TEXT
5
37A
330
10E
100
AcDbEntity
8
SCHEDULE-TEXT
100
AcDbText
10
70350
20
50800
30
0
40
170
1
3950
7
STANDARD
72
1
11
70350
21
50800
31
0
100
AcDbText
73
2
0
TEXT
5
37B
330
10E
100
AcDbEntity
8
SCHEDULE-TEXT
100
AcDbText
10
71850
20
50800
30
0
40
170
1
9
7
STANDARD
72
1
11
71850
21
50800
31
0
100
AcDbText
73
2
0
TEXT
5
37C
330
10E
100
AcDbEntity
8
SCHEDULE-TEXT
100
AcDbText
10
73350
20
50800
30
0
40
170
1
35.6
7
STANDARD
72
1
11
73350
21
50800
31
0
100
AcDbText
73
2
0
TEXT
5
37D
330
10E
100
AcDbEntity
8
SCHEDULE-TEXT
100
AcDbText
10
75050
20
50800
30
0
40
170
1
31.6
7
STANDARD
72
1
11
75050
21
50800
31
0
100
AcDbText
73
2
0
TEXT
5
37E
330
10E
100
AcDbEntity
8
SCHEDULE-TEXT
100
AcDbText
10
76000
20
50800
30
0
40
170
1
PT1-Y4
7
STANDARD
72
0
11
76000
21
50800
31
0
100
AcDbText
73
2
0
LINE
5
37F
330
10E
100
AcDbEntity
8
SCHEDULE
370
5
100
AcDbLine
10
64600
20
50600
30
0
11
83100
21
50600
31
0
0
TEXT
5
380
330
10E
100
AcDbEntity
8
SCHEDULE-TEXT
100
AcDbText
10
65300
20
50400
30
0
40
170
1
B17
7
STANDARD
72
1
11
65300
21
50400
31
0
100
AcDbText
73
2
0
TEXT
5
381
330
10E
100
AcDbEntity
8
SCHEDULE-TEXT
100
AcDbText
10
66450
20
50400
30
0
40
170
1
12
7
STANDARD
72
1
11
66450
21
50400
31
0
100
AcDbText
73
2
0
TEXT
5
382
330
10E
100
AcDbEntity
8
SCHEDULE-TEXT
100
AcDbText
10
67550
20
50400
30
0
40
170
1
STR
7
STANDARD
72
1
11
67550
21
50400
31
0
100
AcDbText
73
2
0
TEXT
5
383
330
10E
100
AcDbEntity
8
SCHEDULE-TEXT
100
AcDbText
10
68850
20
50400
30
0
40
170
1
200
7
STANDARD
72
1
11
68850
21
50400
31
0
100
AcDbText
73
2
0
TEXT
5
384
330
10E
100
AcDbEntity
8
SCHEDULE-TEXT
100
AcDbText
10
70350
20
50400
30
0
40
170
1
3550
7
STANDARD
72
1
11
70350
21
50400
31
0
100
AcDbText
73
2
0
TEXT
5
385
330
10E
100
AcDbEntity
8
SCHEDULE-TEXT
100
AcDbText
10
71850
20
50400
30
0
40
170
1
4
7
STANDARD
72
1
11
71850
21
50400
31
0
100
AcDbText
73
2
0
TEXT
5
386
330
10E
100
AcDbEntity
8
SCHEDULE-TEXT
100
AcDbText
10
73350
20
50400
30
0
40
170
1
14.2
7
STANDARD
72
1
11
73350
21
50400
31
0
100
AcDbText
73
2
0
TEXT
5
387
330
10E
100
AcDbEntity
8
SCHEDULE-TEXT
100
AcDbText
10
75050
20
50400
30
0
40
170
1
12.6
7
STANDARD
72
1
11
75050
21
50400
31
0
100
AcDbText
73
2
0
TEXT
5
388
330
10E
100
AcDbEntity
8
SCHEDULE-TEXT
100
AcDbText
10
76000
20
50400
30
0
40
170
1
PT1-Y4
7
STANDARD
72
0
11
76000
21
50400
31
0
100
AcDbText
73
2
0
LINE
5
389
330
10E
100
AcDbEntity
8
SCHEDULE
370
5
100
AcDbLine
10
64600
20
50200
30
0
11
83100
21
50200
31
0
0
TEXT
5
38A
330
10E
100
AcDbEntity
8
SCHEDULE-TEXT
100
AcDbText
10
65300
20
50000
30
0
40
170
1
B18
7
STANDARD
72
1
11
65300
21
50000
31
0
100
AcDbText
73
2
0
TEXT
5
38B
330
10E
100
AcDbEntity
8
SCHEDULE-TEXT
100
AcDbText
10
66450
20
50000
30
0
40
170
1
12
7
STANDARD
72
1
11
66450
21
50000
31
0
100
AcDbText
73
2
0
TEXT
5
38C
330
10E
100
AcDbEntity
8
SCHEDULE-TEXT
100
AcDbText
10
67550
20
50000
30
0
40
170
1
STR
7
STANDARD
72
1
11
67550
21
50000
31
0
100
AcDbText
73
2
0
TEXT
5
38D
330
10E
100
AcDbEntity
8
SCHEDULE-TEXT
100
AcDbText
10
68850
20
50000
30
0
40
170
1
200
7
STANDARD
72
1
11
68850
21
50000
31
0
100
AcDbText
73
2
0
TEXT
5
38E
330
10E
100
AcDbEntity
8
SCHEDULE-TEXT
100
AcDbText
10
70350
20
50000
30
0
40
170
1
3050
7
STANDARD
72
1
11
70350
21
50000
31
0
100
AcDbText
73
2
0
TEXT
5
38F
330
10E
100
AcDbEntity
8
SCHEDULE-TEXT
100
AcDbText
10
71850
20
50000
30
0
40
170
1
58
7
STANDARD
72
1
11
71850
21
50000
31
0
100
AcDbText
73
2
0
TEXT
5
390
330
10E
100
AcDbEntity
8
SCHEDULE-TEXT
100
AcDbText
10
73350
20
50000
30
0
40
170
1
176.9
7
STANDARD
72
1
11
73350
21
50000
31
0
100
AcDbText
73
2
0
TEXT
5
391
330
10E
100
AcDbEntity
8
SCHEDULE-TEXT
100
AcDbText
10
75050
20
50000
30
0
40
170
1
157
7
STANDARD
72
1
11
75050
21
50000
31
0
100
AcDbText
73
2
0
TEXT
5
392
330
10E
100
AcDbEntity
8
SCHEDULE-TEXT
100
AcDbText
10
76000
20
50000
30
0
40
170
1
PT1-Y1, PT1-Y3, PT1-Y5
7
STANDARD
72
0
11
76000
21
50000
31
0
100
AcDbText
73
2
0
LINE
5
393
330
10E
100
AcDbEntity
8
SCHEDULE
370
5
100
AcDbLine
10
64600
20
49800
30
0
11
83100
21
49800
31
0
0
TEXT
5
394
330
10E
100
AcDbEntity
8
SCHEDULE-TEXT
100
AcDbText
10
65300
20
49600
30
0
40
170
1
B19
7
STANDARD
72
1
11
65300
21
49600
31
0
100
AcDbText
73
2
0
TEXT
5
395
330
10E
100
AcDbEntity
8
SCHEDULE-TEXT
100
AcDbText
10
66450
20
49600
30
0
40
170
1
12
7
STANDARD
72
1
11
66450
21
49600
31
0
100
AcDbText
73
2
0
TEXT
5
396
330
10E
100
AcDbEntity
8
SCHEDULE-TEXT
100
AcDbText
10
67550
20
49600
30
0
40
170
1
STR
7
STANDARD
72
1
11
67550
21
49600
31
0
100
AcDbText
73
2
0
TEXT
5
397
330
10E
100
AcDbEntity
8
SCHEDULE-TEXT
100
AcDbText
10
68850
20
49600
30
0
40
170
1
200
7
STANDARD
72
1
11
68850
21
49600
31
0
100
AcDbText
73
2
0
TEXT
5
398
330
10E
100
AcDbEntity
8
SCHEDULE-TEXT
100
AcDbText
10
70350
20
49600
30
0
40
170
1
2050
7
STANDARD
72
1
11
70350
21
49600
31
0
100
AcDbText
73
2
0
TEXT
5
399
330
10E
100
AcDbEntity
8
SCHEDULE-TEXT
100
AcDbText
10
71850
20
49600
30
0
40
170
1
3
7
STANDARD
72
1
11
71850
21
49600
31
0
100
AcDbText
73
2
0
TEXT
5
39A
330
10E
100
AcDbEntity
8
SCHEDULE-TEXT
100
AcDbText
10
73350
20
49600
30
0
40
170
1
6.2
7
STANDARD
72
1
11
73350
21
49600
31
0
100
AcDbText
73
2
0
TEXT
5
39B
330
10E
100
AcDbEntity
8
SCHEDULE-TEXT
100
AcDbText
10
75050
20
49600
30
0
40
170
1
5.5
7
STANDARD
72
1
11
75050
21
49600
31
0
100
AcDbText
73
2
0
TEXT
5
39C
330
10E
100
AcDbEntity
8
SCHEDULE-TEXT
100
AcDbText
10
76000
20
49600
30
0
40
170
1
PT1-X2
7
STANDARD
72
0
11
76000
21
49600
31
0
100
AcDbText
73
2
0
LINE
5
39D
330
10E
100
AcDbEntity
8
SCHEDULE
370
5
100
AcDbLine
10
64600
20
49400
30
0
11
83100
21
49400
31
0
0
TEXT
5
39E
330
10E
100
AcDbEntity
8
SCHEDULE-TEXT
100
AcDbText
10
65300
20
49200
30
0
40
170
1
B20
7
STANDARD
72
1
11
65300
21
49200
31
0
100
AcDbText
73
2
0
TEXT
5
39F
330
10E
100
AcDbEntity
8
SCHEDULE-TEXT
100
AcDbText
10
66450
20
49200
30
0
40
170
1
12
7
STANDARD
72
1
11
66450
21
49200
31
0
100
AcDbText
73
2
0
TEXT
5
3A0
330
10E
100
AcDbEntity
8
SCHEDULE-TEXT
100
AcDbText
10
67550
20
49200
30
0
40
170
1
STR
7
STANDARD
72
1
11
67550
21
49200
31
0
100
AcDbText
73
2
0
TEXT
5
3A1
330
10E
100
AcDbEntity
8
SCHEDULE-TEXT
100
AcDbText
10
68850
20
49200
30
0
40
170
1
200
7
STANDARD
72
1
11
68850
21
49200
31
0
100
AcDbText
73
2
0
TEXT
5
3A2
330
10E
100
AcDbEntity
8
SCHEDULE-TEXT
100
AcDbText
10
70350
20
49200
30
0
40
170
1
1550
7
STANDARD
72
1
11
70350
21
49200
31
0
100
AcDbText
73
2
0
TEXT
5
3A3
330
10E
100
AcDbEntity
8
SCHEDULE-TEXT
100
AcDbText
10
71850
20
49200
30
0
40
170
1
12
7
STANDARD
72
1
11
71850
21
49200
31
0
100
AcDbText
73
2
0
TEXT
5
3A4
330
10E
100
AcDbEntity
8
SCHEDULE-TEXT
100
AcDbText
10
73350
20
49200
30
0
40
170
1
18.6
7
STANDARD
72
1
11
73350
21
49200
31
0
100
AcDbText
73
2
0
TEXT
5
3A5
330
10E
100
AcDbEntity
8
SCHEDULE-TEXT
100
AcDbText
10
75050
20
49200
30
0
40
170
1
16.5
7
STANDARD
72
1
11
75050
21
49200
31
0
100
AcDbText
73
2
0
TEXT
5
3A6
330
10E
100
AcDbEntity
8
SCHEDULE-TEXT
100
AcDbText
10
76000
20
49200
30
0
40
170
1
PT1-X4
7
STANDARD
72
0
11
76000
21
49200
31
0
100
AcDbText
73
2
0
LINE
5
3A7
330
10E
100
AcDbEntity
8
SCHEDULE
370
5
100
AcDbLine
10
64600
20
49000
30
0
11
83100
21
49000
31
0
0
LWPOLYLINE
5
3A8
330
10E
100
AcDbEntity
8
SCHEDULE
100
AcDbPolyline
90
4
70
1
43
0
10
64600
20
48550
10
83100
20
48550
10
83100
20
49000
10
64600
20
49000
0
TEXT
5
3A9
330
10E
100
AcDbEntity
8
SCHEDULE-TEXT
100
AcDbText
10
64800
20
48775
30
0
40
170
1
TOTAL 7,367.2 kg  \U+00B7  \U+00D812: 8299.1 m
7
STANDARD
72
0
11
64800
21
48775
31
0
100
AcDbText
73
2
0
LINE
5
3AA
330
10E
100
AcDbEntity
8
SCHEDULE
100
AcDbLine
10
64600
20
57500
30
0
11
64600
21
48550
31
0
0
LINE
5
3AB
330
10E
100
AcDbEntity
8
SCHEDULE
100
AcDbLine
10
66000
20
57500
30
0
11
66000
21
48550
31
0
0
LINE
5
3AC
330
10E
100
AcDbEntity
8
SCHEDULE
100
AcDbLine
10
66900
20
57500
30
0
11
66900
21
48550
31
0
0
LINE
5
3AD
330
10E
100
AcDbEntity
8
SCHEDULE
100
AcDbLine
10
68200
20
57500
30
0
11
68200
21
48550
31
0
0
LINE
5
3AE
330
10E
100
AcDbEntity
8
SCHEDULE
100
AcDbLine
10
69500
20
57500
30
0
11
69500
21
48550
31
0
0
LINE
5
3AF
330
10E
100
AcDbEntity
8
SCHEDULE
100
AcDbLine
10
71200
20
57500
30
0
11
71200
21
48550
31
0
0
LINE
5
3B0
330
10E
100
AcDbEntity
8
SCHEDULE
100
AcDbLine
10
72500
20
57500
30
0
11
72500
21
48550
31
0
0
LINE
5
3B1
330
10E
100
AcDbEntity
8
SCHEDULE
100
AcDbLine
10
74200
20
57500
30
0
11
74200
21
48550
31
0
0
LINE
5
3B2
330
10E
100
AcDbEntity
8
SCHEDULE
100
AcDbLine
10
75900
20
57500
30
0
11
75900
21
48550
31
0
0
LINE
5
3B3
330
10E
100
AcDbEntity
8
SCHEDULE
100
AcDbLine
10
83100
20
57500
30
0
11
83100
21
48550
31
0
0
LINE
5
3B4
330
10E
100
AcDbEntity
8
SCHEDULE
100
AcDbLine
10
64600
20
48550
30
0
11
83100
21
48550
31
0
0
TEXT
5
3B5
330
10E
100
AcDbEntity
8
TEXT-TITLE
100
AcDbText
10
64900
20
37950
30
0
40
260
1
GENERAL NOTES
7
STANDARD
72
0
100
AcDbText
73
0
0
TEXT
5
3B6
330
10E
100
AcDbEntity
8
TEXT-TITLE
100
AcDbText
10
82800
20
37950
30
0
40
240
1
\U+0645\U+0644\U+0627\U+062D\U+0638\U+0627\U+062A \U+0639\U+0627\U+0645\U+0629
7
STANDARD
72
2
11
82800
21
37950
31
0
100
AcDbText
73
0
0
LINE
5
3B7
330
10E
100
AcDbEntity
8
NOTES
100
AcDbLine
10
64900
20
37830
30
0
11
82800
21
37830
31
0
0
MTEXT
5
3B8
330
10E
100
AcDbEntity
8
NOTES
100
AcDbMText
10
64900
20
37680
30
0
40
190
41
17800
71
1
72
1
1
1. ALL DIMENSIONS ARE IN MILLIMETRES UNLESS NOTED OTHERWISE. DO NOT SCALE FROM THIS DRAWING.
7
STANDARD
44
1
0
MTEXT
5
3B9
330
10E
100
AcDbEntity
8
NOTES
100
AcDbMText
10
64900
20
37330
30
0
40
190
41
17800
71
1
72
1
1
2. CONCRETE f'c = 35 MPa (drawing). REINFORCEMENT: DEFORMED BARS fy = 420 MPa (drawing). CLEAR COVER 25 mm TOP AND BOTTOM (drawing).
7
STANDARD
44
1
0
MTEXT
5
3BA
330
10E
100
AcDbEntity
8
NOTES
100
AcDbMText
10
64900
20
36685.5
30
0
40
190
41
17800
71
1
72
1
1
3. SLAB THICKNESS 250 mm. THIS SHEET IS TO BE READ WITH THE STRUCTURAL CONSULTANT'S DRAWINGS AND THE PT LAYOUT; ANY DISCREPANCY TO BE REFERRED TO THE ENGINEER BEFORE FABRICATION.
7
STANDARD
44
1
0
MTEXT
5
3BB
330
10E
100
AcDbEntity
8
NOTES
100
AcDbMText
10
64900
20
36041
30
0
40
190
41
17800
71
1
72
1
1
4. BAR MARKS REFER TO THE SCHEDULE ON THIS SHEET. LENGTHS ARE CUTTING LENGTHS INCLUDING HOOKS. QUANTITIES ARE FOR THIS LEVEL ONLY.
7
STANDARD
44
1
0
MTEXT
5
3BC
330
10E
100
AcDbEntity
8
NOTES
100
AcDbMText
10
64900
20
35396.5
30
0
40
190
41
17800
71
1
72
1
1
5. TENSION LAPS ARE CLASS B (1.3 ld) PER SBC 304-18 \U+00A725.5.2; NOT MORE THAN 50 % OF BARS LAPPED AT ONE SECTION, LAPS STAGGERED BY AT LEAST ONE LAP LENGTH.
7
STANDARD
44
1
0
MTEXT
5
3BD
330
10E
100
AcDbEntity
8
NOTES
100
AcDbMText
10
64900
20
34752
30
0
40
190
41
17800
71
1
72
1
1
6. BARS ENDING AT A FREE EDGE TERMINATE WITH A STANDARD 90\U+00B0 HOOK (12 \U+00D8) UNLESS NOTED.
7
STANDARD
44
1
0
MTEXT
5
3BE
330
10E
100
AcDbEntity
8
NOTES
100
AcDbMText
10
64900
20
34402
30
0
40
190
41
17800
71
1
72
1
1
7. BOTTOM MESH T12@200 BOTH WAYS IN THE PT ZONE(S) AS BONDED REINFORCEMENT; PLACED ON CHAIRS OVER THE SOFFIT, BELOW THE TENDONS. BARS RUN CONTINUOUSLY THROUGH COLUMNS AND STOP AT OPENINGS (SEE DETAIL 2).
7
STANDARD
44
1
0
MTEXT
5
3BF
330
10E
100
AcDbEntity
8
NOTES
100
AcDbMText
10
64900
20
33757.5
30
0
40
190
41
17800
71
1
72
1
1
8. BAR LENGTHS ARE CUT FROM THE ZONE BOUNDARY LESS COVER; RUNS LONGER THAN ONE STOCK LENGTH ARE SPLIT WITH CLASS B LAPS, ALTERNATE BARS STARTING WITH A HALF STOCK LENGTH (STAGGER).
7
STANDARD
44
1
0
MTEXT
5
3C0
330
10E
100
AcDbEntity
8
NOTES
100
AcDbMText
10
64900
20
33113
30
0
40
190
41
17800
71
1
72
1
1
9. \U+00D812: ld 410 (bot) / 530 (top) \U+00B7 LAP 550 (bot) / 700 (top) \U+00B7 ldh 210
7
STANDARD
44
1
0
TEXT
5
3C1
330
10E
100
AcDbEntity
8
TEXT-TITLE
100
AcDbText
10
64900
20
32413
30
0
40
260
1
ASSUMPTIONS
7
STANDARD
72
0
100
AcDbText
73
0
0
TEXT
5
3C2
330
10E
100
AcDbEntity
8
TEXT-TITLE
100
AcDbText
10
82800
20
32413
30
0
40
240
1
\U+0627\U+0641\U+062A\U+0631\U+0627\U+0636\U+0627\U+062A
7
STANDARD
72
2
11
82800
21
32413
31
0
100
AcDbText
73
0
0
LINE
5
3C3
330
10E
100
AcDbEntity
8
NOTES
100
AcDbLine
10
64900
20
32293
30
0
11
82800
21
32293
31
0
0
MTEXT
5
3C4
330
10E
100
AcDbEntity
8
NOTES
100
AcDbMText
10
64900
20
32143
30
0
40
180
41
17800
71
1
72
1
1
A1. Bottom mesh not specified: T12@200 both ways assumed as bonded reinforcement in PT zones.
7
STANDARD
44
1
0
MTEXT
5
3C5
330
10E
100
AcDbEntity
8
NOTES
100
AcDbMText
10
64900
20
31803
30
0
40
180
41
17800
71
1
72
1
1
A2. Edge U-bars not specified: T12@200 with 1200 mm legs assumed at PT anchorage edges.
7
STANDARD
44
1
0
MTEXT
5
3C6
330
10E
100
AcDbEntity
8
NOTES
100
AcDbMText
10
64900
20
31463
30
0
40
180
41
17800
71
1
72
1
1
A3. Opening trimmers not specified: 2T16 T&B each side + 2T12 diagonals at corners assumed.
7
STANDARD
44
1
0
MTEXT
5
3C7
330
10E
100
AcDbEntity
8
NOTES
100
AcDbMText
10
64900
20
31123
30
0
40
180
41
17800
71
1
72
1
1
A4. Void trimmers not specified: 2T12 T&B each side assumed.
7
STANDARD
44
1
0
MTEXT
5
3C8
330
10E
100
AcDbEntity
8
NOTES
100
AcDbMText
10
64900
20
30783
30
0
40
180
41
17800
71
1
72
1
1
A5. Stock bar length 12 m; laps staggered so that not more than 50 % of bars lap at one section.
7
STANDARD
44
1
0
TEXT
5
3C9
330
10E
100
AcDbEntity
8
TEXT-TITLE
100
AcDbText
10
64900
20
30093
30
0
40
260
1
CODE REFERENCE
7
STANDARD
72
0
100
AcDbText
73
0
0
TEXT
5
3CA
330
10E
100
AcDbEntity
8
TEXT-TITLE
100
AcDbText
10
82800
20
30093
30
0
40
240
1
\U+0627\U+0644\U+0645\U+0631\U+062C\U+0639 \U+0627\U+0644\U+0643\U+0648\U+062F\U+064A
7
STANDARD
72
2
11
82800
21
30093
31
0
100
AcDbText
73
0
0
LINE
5
3CB
330
10E
100
AcDbEntity
8
NOTES
100
AcDbLine
10
64900
20
29973
30
0
11
82800
21
29973
31
0
0
MTEXT
5
3CC
330
10E
100
AcDbEntity
8
NOTES
100
AcDbMText
10
64900
20
29823
30
0
40
190
41
17800
71
1
72
1
1
SBC 304-18 AS STATED ON THE STRUCTURAL DRAWINGS. DEVELOPMENT, ANCHORAGE AND LAP LENGTHS PER SBC 304-18 CHAPTER 25 (ACI 318-14 BASIS).
7
STANDARD
44
1
0
TEXT
5
3CD
330
10E
100
AcDbEntity
8
TEXT-TITLE
100
AcDbText
10
64900
20
28828.5
30
0
40
260
1
LEGEND
7
STANDARD
72
0
100
AcDbText
73
0
0
TEXT
5
3CE
330
10E
100
AcDbEntity
8
TEXT-TITLE
100
AcDbText
10
82800
20
28828.5
30
0
40
240
1
\U+0645\U+0641\U+062A\U+0627\U+062D \U+0627\U+0644\U+0631\U+0645\U+0648\U+0632
7
STANDARD
72
2
11
82800
21
28828.5
31
0
100
AcDbText
73
0
0
LINE
5
3CF
330
10E
100
AcDbEntity
8
NOTES
100
AcDbLine
10
64900
20
28708.5
30
0
11
82800
21
28708.5
31
0
0
LINE
5
3D0
330
10E
100
AcDbEntity
8
REBAR-BOT
370
50
100
AcDbLine
10
64900
20
28388.5
30
0
11
65700
21
28388.5
31
0
0
TEXT
5
3D1
330
10E
100
AcDbEntity
8
NOTES
100
AcDbText
10
65900
20
28338.5
30
0
40
180
1
T12 BOTTOM BAR (REPRESENTATIVE)
7
STANDARD
72
0
100
AcDbText
73
0
0
LINE
5
3D2
330
10E
100
AcDbEntity
8
REBAR-EXTENT
100
AcDbLine
10
64900
20
28088.5
30
0
11
65700
21
28088.5
31
0
0
TEXT
5
3D3
330
10E
100
AcDbEntity
8
NOTES
100
AcDbText
10
65900
20
28038.5
30
0
40
180
1
BAR RANGE / EXTENT
7
STANDARD
72
0
100
AcDbText
73
0
0
LINE
5
3D4
330
10E
100
AcDbEntity
8
OPENING
100
AcDbLine
10
64900
20
27788.5
30
0
11
65700
21
27788.5
31
0
0
TEXT
5
3D5
330
10E
100
AcDbEntity
8
NOTES
100
AcDbText
10
65900
20
27738.5
30
0
40
180
1
OPENING
7
STANDARD
72
0
100
AcDbText
73
0
0
LINE
5
3D6
330
10E
100
AcDbEntity
8
TITLE
100
AcDbLine
10
64600
20
11700
30
0
11
83100
21
11700
31
0
0
TEXT
5
3D7
330
10E
100
AcDbEntity
8
TEXT-TITLE
100
AcDbText
10
73850
20
12800
30
0
40
450
1
SPAN TECH CONTRACTING
7
STANDARD
72
1
11
73850
21
12800
31
0
100
AcDbText
73
2
0
TEXT
5
3D8
330
10E
100
AcDbEntity
8
TITLE
100
AcDbText
10
73850
20
12150
30
0
40
200
1
POST-TENSIONED SLABS \U+00B7 KSA \U+00B7 EGYPT \U+00B7 QATAR
7
STANDARD
72
1
11
73850
21
12150
31
0
100
AcDbText
73
2
0
LINE
5
3D9
330
10E
100
AcDbEntity
8
TITLE
100
AcDbLine
10
64600
20
10300
30
0
11
83100
21
10300
31
0
0
TEXT
5
3DA
330
10E
100
AcDbEntity
8
TITLE
100
AcDbText
10
64750
20
11380
30
0
40
160
1
PROJECT
7
STANDARD
72
0
100
AcDbText
73
0
0
TEXT
5
3DB
330
10E
100
AcDbEntity
8
TEXT-TITLE
100
AcDbText
10
64750
20
10960
30
0
40
300
1
PROPOSED MIXED-USE BUILDING
7
STANDARD
72
0
100
AcDbText
73
0
0
TEXT
5
3DC
330
10E
100
AcDbEntity
8
TITLE
100
AcDbText
10
64750
20
10450
30
0
40
180
1
CLIENT: DEMO CLIENT   LOCATION: RIYADH, KSA
7
STANDARD
72
0
100
AcDbText
73
0
0
LINE
5
3DD
330
10E
100
AcDbEntity
8
TITLE
100
AcDbLine
10
64600
20
8400
30
0
11
83100
21
8400
31
0
0
TEXT
5
3DE
330
10E
100
AcDbEntity
8
TITLE
100
AcDbText
10
64750
20
9980
30
0
40
160
1
DRAWING TITLE
7
STANDARD
72
0
100
AcDbText
73
0
0
TEXT
5
3DF
330
10E
100
AcDbEntity
8
TEXT-TITLE
100
AcDbText
10
64750
20
9500
30
0
40
320
1
REBAR - BOTTOM REINFORCEMENT IN PT
7
STANDARD
72
0
100
AcDbText
73
0
0
TEXT
5
3E0
330
10E
100
AcDbEntity
8
TEXT-TITLE
100
AcDbText
10
64750
20
9080
30
0
40
320
1
SLAB
7
STANDARD
72
0
100
AcDbText
73
0
0
TEXT
5
3E1
330
10E
100
AcDbEntity
8
TITLE
100
AcDbText
10
64750
20
8550
30
0
40
220
1
L01 - FIRST FLOOR SLAB PLAN
7
STANDARD
72
0
100
AcDbText
73
0
0
LINE
5
3E2
330
10E
100
AcDbEntity
8
TITLE
100
AcDbLine
10
64600
20
7300
30
0
11
83100
21
7300
31
0
0
LINE
5
3E3
330
10E
100
AcDbEntity
8
TITLE
100
AcDbLine
10
73850
20
7300
30
0
11
73850
21
8400
31
0
0
LINE
5
3E4
330
10E
100
AcDbEntity
8
TITLE
100
AcDbLine
10
78475
20
7300
30
0
11
78475
21
8400
31
0
0
TEXT
5
3E5
330
10E
100
AcDbEntity
8
TITLE
100
AcDbText
10
64750
20
8080
30
0
40
160
1
DRAWING No.
7
STANDARD
72
0
100
AcDbText
73
0
0
TEXT
5
3E6
330
10E
100
AcDbEntity
8
TEXT-TITLE
100
AcDbText
10
64750
20
7640
30
0
40
320
1
ST-SD-L01-02
7
STANDARD
72
0
100
AcDbText
73
0
0
TEXT
5
3E7
330
10E
100
AcDbEntity
8
TITLE
100
AcDbText
10
74000
20
8080
30
0
40
160
1
REV.
7
STANDARD
72
0
100
AcDbText
73
0
0
TEXT
5
3E8
330
10E
100
AcDbEntity
8
TEXT-TITLE
100
AcDbText
10
74000
20
7640
30
0
40
320
1
00
7
STANDARD
72
0
100
AcDbText
73
0
0
TEXT
5
3E9
330
10E
100
AcDbEntity
8
TITLE
100
AcDbText
10
78625
20
8080
30
0
40
160
1
DATE
7
STANDARD
72
0
100
AcDbText
73
0
0
TEXT
5
3EA
330
10E
100
AcDbEntity
8
TEXT-TITLE
100
AcDbText
10
78625
20
7700
30
0
40
260
1
2026-09-26
7
STANDARD
72
0
100
AcDbText
73
0
0
LINE
5
3EB
330
10E
100
AcDbEntity
8
TITLE
100
AcDbLine
10
64600
20
6200
30
0
11
83100
21
6200
31
0
0
LINE
5
3EC
330
10E
100
AcDbEntity
8
TITLE
100
AcDbLine
10
70890
20
6200
30
0
11
70890
21
7300
31
0
0
LINE
5
3ED
330
10E
100
AcDbEntity
8
TITLE
100
AcDbLine
10
76810
20
6200
30
0
11
76810
21
7300
31
0
0
TEXT
5
3EE
330
10E
100
AcDbEntity
8
TITLE
100
AcDbText
10
64750
20
6980
30
0
40
160
1
SCALE
7
STANDARD
72
0
100
AcDbText
73
0
0
TEXT
5
3EF
330
10E
100
AcDbEntity
8
TEXT-TITLE
100
AcDbText
10
64750
20
6580
30
0
40
280
1
1:100 @ A1 (DETAILS AS NOTED)
7
STANDARD
72
0
100
AcDbText
73
0
0
TEXT
5
3F0
330
10E
100
AcDbEntity
8
TITLE
100
AcDbText
10
71040
20
6980
30
0
40
160
1
SHEET SIZE
7
STANDARD
72
0
100
AcDbText
73
0
0
TEXT
5
3F1
330
10E
100
AcDbEntity
8
TEXT-TITLE
100
AcDbText
10
71040
20
6580
30
0
40
280
1
A1
7
STANDARD
72
0
100
AcDbText
73
0
0
TEXT
5
3F2
330
10E
100
AcDbEntity
8
TITLE
100
AcDbText
10
76960
20
6980
30
0
40
160
1
SHEET
7
STANDARD
72
0
100
AcDbText
73
0
0
TEXT
5
3F3
330
10E
100
AcDbEntity
8
TEXT-TITLE
100
AcDbText
10
76960
20
6580
30
0
40
280
1
3 OF 15
7
STANDARD
72
0
100
AcDbText
73
0
0
LINE
5
3F4
330
10E
100
AcDbEntity
8
TITLE
100
AcDbLine
10
64600
20
4400
30
0
11
83100
21
4400
31
0
0
LINE
5
3F5
330
10E
100
AcDbEntity
8
TITLE
100
AcDbLine
10
70766.666667
20
4400
30
0
11
70766.666667
21
6200
31
0
0
LINE
5
3F6
330
10E
100
AcDbEntity
8
TITLE
100
AcDbLine
10
76933.333333
20
4400
30
0
11
76933.333333
21
6200
31
0
0
TEXT
5
3F7
330
10E
100
AcDbEntity
8
TITLE
100
AcDbText
10
64750
20
5880
30
0
40
160
1
PREPARED
7
STANDARD
72
0
100
AcDbText
73
0
0
TEXT
5
3F8
330
10E
100
AcDbEntity
8
TEXT-TITLE
100
AcDbText
10
64750
20
5350
30
0
40
220
1
SPAN TECH DESIGN OFFICE
7
STANDARD
72
0
100
AcDbText
73
0
0
TEXT
5
3F9
330
10E
100
AcDbEntity
8
TITLE
100
AcDbText
10
64750
20
4550
30
0
40
150
1
SIGN / DATE: ..........
7
STANDARD
72
0
100
AcDbText
73
0
0
TEXT
5
3FA
330
10E
100
AcDbEntity
8
TITLE
100
AcDbText
10
70916.666667
20
5880
30
0
40
160
1
CHECKED
7
STANDARD
72
0
100
AcDbText
73
0
0
TEXT
5
3FB
330
10E
100
AcDbEntity
8
TEXT-TITLE
100
AcDbText
10
70916.666667
20
5350
30
0
40
220
1

7
STANDARD
72
0
100
AcDbText
73
0
0
TEXT
5
3FC
330
10E
100
AcDbEntity
8
TITLE
100
AcDbText
10
70916.666667
20
4550
30
0
40
150
1
SIGN / DATE: ..........
7
STANDARD
72
0
100
AcDbText
73
0
0
TEXT
5
3FD
330
10E
100
AcDbEntity
8
TITLE
100
AcDbText
10
77083.333333
20
5880
30
0
40
160
1
APPROVED
7
STANDARD
72
0
100
AcDbText
73
0
0
TEXT
5
3FE
330
10E
100
AcDbEntity
8
TEXT-TITLE
100
AcDbText
10
77083.333333
20
5350
30
0
40
220
1

7
STANDARD
72
0
100
AcDbText
73
0
0
TEXT
5
3FF
330
10E
100
AcDbEntity
8
TITLE
100
AcDbText
10
77083.333333
20
4550
30
0
40
150
1
SIGN / DATE: ..........
7
STANDARD
72
0
100
AcDbText
73
0
0
LINE
5
400
330
10E
100
AcDbEntity
8
TITLE
100
AcDbLine
10
64600
20
3400
30
0
11
83100
21
3400
31
0
0
LINE
5
401
330
10E
100
AcDbEntity
8
TITLE
100
AcDbLine
10
73850
20
3400
30
0
11
73850
21
4400
31
0
0
TEXT
5
402
330
10E
100
AcDbEntity
8
TITLE
100
AcDbText
10
64750
20
4080
30
0
40
160
1
GRID REFERENCE
7
STANDARD
72
0
100
AcDbText
73
0
0
TEXT
5
403
330
10E
100
AcDbEntity
8
TEXT-TITLE
100
AcDbText
10
64750
20
3720
30
0
40
240
1
A-E / 1-4
7
STANDARD
72
0
100
AcDbText
73
0
0
TEXT
5
404
330
10E
100
AcDbEntity
8
TITLE
100
AcDbText
10
74000
20
4080
30
0
40
160
1
DRAWING INDEX
7
STANDARD
72
0
100
AcDbText
73
0
0
TEXT
5
405
330
10E
100
AcDbEntity
8
TEXT-TITLE
100
AcDbText
10
74000
20
3720
30
0
40
240
1
ST-SD-000
7
STANDARD
72
0
100
AcDbText
73
0
0
LINE
5
406
330
10E
100
AcDbEntity
8
TITLE
100
AcDbLine
10
64600
20
2400
30
0
11
83100
21
2400
31
0
0
LINE
5
407
330
10E
100
AcDbEntity
8
TITLE
100
AcDbLine
10
73850
20
2400
30
0
11
73850
21
3400
31
0
0
TEXT
5
408
330
10E
100
AcDbEntity
8
TITLE
100
AcDbText
10
64750
20
3080
30
0
40
160
1
CODE REFERENCE
7
STANDARD
72
0
100
AcDbText
73
0
0
TEXT
5
409
330
10E
100
AcDbEntity
8
TEXT-TITLE
100
AcDbText
10
64750
20
2740
30
0
40
220
1
SBC 304-18 (ON DRAWINGS)
7
STANDARD
72
0
100
AcDbText
73
0
0
TEXT
5
40A
330
10E
100
AcDbEntity
8
TITLE
100
AcDbText
10
74000
20
3080
30
0
40
160
1
BLOCK / XREF NAME
7
STANDARD
72
0
100
AcDbText
73
0
0
TEXT
5
40B
330
10E
100
AcDbEntity
8
TEXT-TITLE
100
AcDbText
10
74000
20
2790
30
0
40
170
1
FRAMING_REBAR_SLAB_PT_BOTTOM_L01
7
STANDARD
72
0
100
AcDbText
73
0
0
TEXT
5
40C
330
10E
100
AcDbEntity
8
TEXT-TITLE
100
AcDbText
10
73850
20
1700
30
0
40
240
1
SHOP DRAWING - FOR CONSULTANT APPROVAL
7
STANDARD
72
1
11
73850
21
1700
31
0
100
AcDbText
73
2
0
LWPOLYLINE
5
40D
330
10E
100
AcDbEntity
8
TITLE
370
50
100
AcDbPolyline
90
4
70
1
43
0
10
64600
20
1000
10
83100
20
1000
10
83100
20
13500
10
64600
20
13500
0
TEXT
5
40E
330
10E
100
AcDbEntity
8
TEXT-TITLE
100
AcDbText
10
2600
20
13900
30
0
40
400
1
FIRST FLOOR SLAB PLAN - REBAR - BOTTOM REINFORCEMENT IN PT SLAB
7
STANDARD
72
0
100
AcDbText
73
0
0
LINE
5
40F
330
10E
100
AcDbEntity
8
TITLE
370
50
100
AcDbLine
10
2600
20
13750
30
0
11
22760
21
13750
31
0
0
TEXT
5
410
330
10E
100
AcDbEntity
8
TITLE
100
AcDbText
10
23160
20
13900
30
0
40
250
1
SCALE 1:100
7
STANDARD
72
0
100
AcDbText
73
0
0
ENDBLK
5
411
330
10E
100
AcDbEntity
8
0
100
AcDbBlockEnd
0
ENDSEC
0
SECTION
2
ENTITIES
0
INSERT
5
412
330
108
100
AcDbEntity
8
0
100
AcDbBlockReference
2
FRAMING_REBAR_SLAB_PT_BOTTOM_L01
10
0
20
0
30
0
41
1
42
1
43
1
50
0
0
ENDSEC
0
SECTION
2
OBJECTS
0
DICTIONARY
5
100
330
0
100
AcDbDictionary
281
1
3
ACAD_GROUP
350
101
3
ACAD_LAYOUT
350
104
3
ACAD_PLOTSTYLENAME
350
102
0
DICTIONARY
5
101
330
100
100
AcDbDictionary
281
1
0
ACDBDICTIONARYWDFLT
5
102
330
100
100
AcDbDictionary
281
1
3
Normal
350
103
100
AcDbDictionaryWithDefault
340
103
0
ACDBPLACEHOLDER
5
103
330
102
0
DICTIONARY
5
104
330
100
100
AcDbDictionary
281
1
3
Model
350
105
3
Layout1
350
106
0
LAYOUT
5
105
330
104
100
AcDbPlotSettings
1

2
none_device
4

6

40
0
41
0
42
0
43
0
44
0
45
0
46
0
47
0
48
0
49
0
140
0
141
0
142
1
143
1
70
1712
72
0
73
0
74
5
7

75
16
147
1
148
0
149
0
100
AcDbLayout
1
Model
70
1
71
0
10
0
20
0
11
12
21
9
12
0
22
0
32
0
14
0
24
0
34
0
15
0
25
0
35
0
146
0
13
0
23
0
33
0
16
1
26
0
36
0
17
0
27
1
37
0
76
0
330
108
0
LAYOUT
5
106
330
104
100
AcDbPlotSettings
1

2
none_device
4

6

40
0
41
0
42
0
43
0
44
0
45
0
46
0
47
0
48
0
49
0
140
0
141
0
142
1
143
1
70
688
72
0
73
0
74
5
7

75
16
147
1
148
0
149
0
100
AcDbLayout
1
Layout1
70
1
71
1
10
0
20
0
11
12
21
9
12
0
22
0
32
0
14
0
24
0
34
0
15
0
25
0
35
0
146
0
13
0
23
0
33
0
16
1
26
0
36
0
17
0
27
1
37
0
76
0
330
109
0
ENDSEC
0
EOF
