0
SECTION
2
HEADER
9
$ACADVER
1
AC1015
9
$DWGCODEPAGE
3
ANSI_1252
9
$INSBASE
10
0
20
0
30
0
9
$EXTMIN
10
0
20
0
30
0
9
$EXTMAX
10
170176
20
118800
30
0
9
$LIMMIN
10
0
20
0
9
$LIMMAX
10
170176
20
118800
9
$ORTHOMODE
70
0
9
$LTSCALE
40
50
9
$TEXTSIZE
40
2.5
9
$TEXTSTYLE
7
STANDARD
9
$CLAYER
8
0
9
$CELTYPE
6
BYLAYER
9
$CECOLOR
62
256
9
$DIMSTYLE
2
STANDARD
9
$INSUNITS
70
4
9
$MEASUREMENT
70
1
9
$PDMODE
70
0
9
$PSLTSCALE
70
1
9
$TILEMODE
70
1
9
$HANDSEED
5
52A
0
ENDSEC
0
SECTION
2
CLASSES
0
ENDSEC
0
SECTION
2
TABLES
0
TABLE
2
VPORT
5
10F
330
0
100
AcDbSymbolTable
70
1
0
VPORT
5
110
330
10F
100
AcDbSymbolTableRecord
100
AcDbViewportTableRecord
2
*Active
70
0
10
0
20
0
11
1
21
1
12
85088
22
59400
13
0
23
0
14
10
24
10
15
10
25
10
16
0
26
0
36
1
17
0
27
0
37
0
40
130680
41
1.432458
42
50
43
0
44
0
50
0
51
0
71
0
72
1000
73
1
74
3
75
0
76
0
77
0
78
0
281
0
65
1
110
0
120
0
130
0
111
1
121
0
131
0
112
0
122
1
132
0
79
0
146
0
0
ENDTAB
0
TABLE
2
LTYPE
5
111
330
0
100
AcDbSymbolTable
70
8
0
LTYPE
5
112
330
111
100
AcDbSymbolTableRecord
100
AcDbLinetypeTableRecord
2
ByBlock
70
0
3

72
65
73
0
40
0
0
LTYPE
5
113
330
111
100
AcDbSymbolTableRecord
100
AcDbLinetypeTableRecord
2
ByLayer
70
0
3

72
65
73
0
40
0
0
LTYPE
5
114
330
111
100
AcDbSymbolTableRecord
100
AcDbLinetypeTableRecord
2
CONTINUOUS
70
0
3
Solid line
72
65
73
0
40
0
0
LTYPE
5
115
330
111
100
AcDbSymbolTableRecord
100
AcDbLinetypeTableRecord
2
DASHED
70
0
3
Dashed __ __ __
72
65
73
2
40
19.05
49
12.7
74
0
49
-6.35
74
0
0
LTYPE
5
116
330
111
100
AcDbSymbolTableRecord
100
AcDbLinetypeTableRecord
2
HIDDEN
70
0
3
Hidden __ __ __
72
65
73
2
40
9.525
49
6.35
74
0
49
-3.175
74
0
0
LTYPE
5
117
330
111
100
AcDbSymbolTableRecord
100
AcDbLinetypeTableRecord
2
CENTER
70
0
3
Center ____ _ ____ _
72
65
73
4
40
50.8
49
31.75
74
0
49
-6.35
74
0
49
6.35
74
0
49
-6.35
74
0
0
LTYPE
5
118
330
111
100
AcDbSymbolTableRecord
100
AcDbLinetypeTableRecord
2
DASHDOT
70
0
3
Dash dot __ . __ . __
72
65
73
4
40
25.4
49
12.7
74
0
49
-6.35
74
0
49
0
74
0
49
-6.35
74
0
0
LTYPE
5
119
330
111
100
AcDbSymbolTableRecord
100
AcDbLinetypeTableRecord
2
PHANTOM
70
0
3
Phantom ____ _ _ ____
72
65
73
6
40
63.5
49
31.75
74
0
49
-6.35
74
0
49
6.35
74
0
49
-6.35
74
0
49
6.35
74
0
49
-6.35
74
0
0
ENDTAB
0
TABLE
2
LAYER
5
11A
330
0
100
AcDbSymbolTable
70
46
0
LAYER
5
11B
330
11A
100
AcDbSymbolTableRecord
100
AcDbLayerTableRecord
2
0
70
0
62
7
6
CONTINUOUS
370
-3
390
103
0
LAYER
5
11C
330
11A
100
AcDbSymbolTableRecord
100
AcDbLayerTableRecord
2
ST-SHEET-FRAME
70
0
62
7
6
CONTINUOUS
370
50
390
103
0
LAYER
5
11D
330
11A
100
AcDbSymbolTableRecord
100
AcDbLayerTableRecord
2
ST-SHEET-TITLE
70
0
62
7
6
CONTINUOUS
370
25
390
103
0
LAYER
5
11E
330
11A
100
AcDbSymbolTableRecord
100
AcDbLayerTableRecord
2
ST-TEXT
70
0
62
7
6
CONTINUOUS
370
-3
390
103
0
LAYER
5
11F
330
11A
100
AcDbSymbolTableRecord
100
AcDbLayerTableRecord
2
ST-SHEET-TEXT
70
0
62
2
6
CONTINUOUS
370
-3
390
103
0
LAYER
5
120
330
11A
100
AcDbSymbolTableRecord
100
AcDbLayerTableRecord
2
ST-SHEET-NOTES
70
0
62
7
6
CONTINUOUS
370
-3
390
103
0
LAYER
5
121
330
11A
100
AcDbSymbolTableRecord
100
AcDbLayerTableRecord
2
ST-GRID
70
0
62
8
6
CENTER
370
-3
390
103
0
LAYER
5
122
330
11A
100
AcDbSymbolTableRecord
100
AcDbLayerTableRecord
2
ST-GRID-BUBBLE
70
0
62
8
6
CONTINUOUS
370
-3
390
103
0
LAYER
5
123
330
11A
100
AcDbSymbolTableRecord
100
AcDbLayerTableRecord
2
ST-SLAB-EDGE
70
0
62
3
6
CONTINUOUS
370
35
390
103
0
LAYER
5
124
330
11A
100
AcDbSymbolTableRecord
100
AcDbLayerTableRecord
2
ST-COL
70
0
62
7
6
CONTINUOUS
370
35
390
103
0
LAYER
5
125
330
11A
100
AcDbSymbolTableRecord
100
AcDbLayerTableRecord
2
ST-COL-HATCH
70
0
62
7
6
CONTINUOUS
370
-3
390
103
0
LAYER
5
126
330
11A
100
AcDbSymbolTableRecord
100
AcDbLayerTableRecord
2
ST-OPENING
70
0
62
6
6
CONTINUOUS
370
-3
390
103
0
LAYER
5
127
330
11A
100
AcDbSymbolTableRecord
100
AcDbLayerTableRecord
2
ST-OPENING-HATCH
70
0
62
6
6
CONTINUOUS
370
-3
390
103
0
LAYER
5
128
330
11A
100
AcDbSymbolTableRecord
100
AcDbLayerTableRecord
2
ST-VOID
70
0
62
30
6
DASHED
370
-3
390
103
0
LAYER
5
129
330
11A
100
AcDbSymbolTableRecord
100
AcDbLayerTableRecord
2
ST-VOID-HATCH
70
0
62
30
6
CONTINUOUS
370
-3
390
103
0
LAYER
5
12A
330
11A
100
AcDbSymbolTableRecord
100
AcDbLayerTableRecord
2
ST-PT-ZONE
70
0
62
4
6
DASHDOT
370
-3
390
103
0
LAYER
5
12B
330
11A
100
AcDbSymbolTableRecord
100
AcDbLayerTableRecord
2
ST-PT-TENDON
70
0
62
3
6
CONTINUOUS
370
-3
390
103
0
LAYER
5
12C
330
11A
100
AcDbSymbolTableRecord
100
AcDbLayerTableRecord
2
ST-PT-HATCH
70
0
62
4
6
CONTINUOUS
370
-3
390
103
0
LAYER
5
12D
330
11A
100
AcDbSymbolTableRecord
100
AcDbLayerTableRecord
2
ST-RB-BOT
70
0
62
1
6
CONTINUOUS
370
50
390
103
0
LAYER
5
12E
330
11A
100
AcDbSymbolTableRecord
100
AcDbLayerTableRecord
2
ST-RB-TOP
70
0
62
5
6
CONTINUOUS
370
50
390
103
0
LAYER
5
12F
330
11A
100
AcDbSymbolTableRecord
100
AcDbLayerTableRecord
2
ST-RB-UBAR
70
0
62
6
6
CONTINUOUS
370
50
390
103
0
LAYER
5
130
330
11A
100
AcDbSymbolTableRecord
100
AcDbLayerTableRecord
2
ST-RB-TRIM
70
0
62
6
6
CONTINUOUS
370
50
390
103
0
LAYER
5
131
330
11A
100
AcDbSymbolTableRecord
100
AcDbLayerTableRecord
2
ST-RB-RANGE
70
0
62
6
6
CONTINUOUS
370
-3
390
103
0
LAYER
5
132
330
11A
100
AcDbSymbolTableRecord
100
AcDbLayerTableRecord
2
ST-RB-TEXT
70
0
62
7
6
CONTINUOUS
370
-3
390
103
0
LAYER
5
133
330
11A
100
AcDbSymbolTableRecord
100
AcDbLayerTableRecord
2
ST-RB-MESH
70
0
62
4
6
CONTINUOUS
370
-3
390
103
0
LAYER
5
134
330
11A
100
AcDbSymbolTableRecord
100
AcDbLayerTableRecord
2
ST-RB-PUNCH
70
0
62
6
6
CONTINUOUS
370
35
390
103
0
LAYER
5
135
330
11A
100
AcDbSymbolTableRecord
100
AcDbLayerTableRecord
2
ST-RB-TYPE
70
0
62
1
6
CONTINUOUS
370
-3
390
103
0
LAYER
5
136
330
11A
100
AcDbSymbolTableRecord
100
AcDbLayerTableRecord
2
ST-RB
70
0
62
6
6
CONTINUOUS
370
50
390
103
0
LAYER
5
137
330
11A
100
AcDbSymbolTableRecord
100
AcDbLayerTableRecord
2
ST-RB-B1
70
0
62
6
6
CONTINUOUS
370
50
390
103
0
LAYER
5
138
330
11A
100
AcDbSymbolTableRecord
100
AcDbLayerTableRecord
2
ST-RB-B2
70
0
62
6
6
CONTINUOUS
370
50
390
103
0
LAYER
5
139
330
11A
100
AcDbSymbolTableRecord
100
AcDbLayerTableRecord
2
ST-RB-T1
70
0
62
6
6
CONTINUOUS
370
50
390
103
0
LAYER
5
13A
330
11A
100
AcDbSymbolTableRecord
100
AcDbLayerTableRecord
2
ST-RB-T2
70
0
62
6
6
CONTINUOUS
370
50
390
103
0
LAYER
5
13B
330
11A
100
AcDbSymbolTableRecord
100
AcDbLayerTableRecord
2
ST-STAIR
70
0
62
8
6
CONTINUOUS
370
-3
390
103
0
LAYER
5
13C
330
11A
100
AcDbSymbolTableRecord
100
AcDbLayerTableRecord
2
ST-BEAM
70
0
62
3
6
CONTINUOUS
370
25
390
103
0
LAYER
5
13D
330
11A
100
AcDbSymbolTableRecord
100
AcDbLayerTableRecord
2
ST-SUNKEN
70
0
62
4
6
CONTINUOUS
370
-3
390
103
0
LAYER
5
13E
330
11A
100
AcDbSymbolTableRecord
100
AcDbLayerTableRecord
2
ST-SUNKEN-HATCH
70
0
62
8
6
CONTINUOUS
370
-3
390
103
0
LAYER
5
13F
330
11A
100
AcDbSymbolTableRecord
100
AcDbLayerTableRecord
2
ST-CALLOUT
70
0
62
3
6
CONTINUOUS
370
-3
390
103
0
LAYER
5
140
330
11A
100
AcDbSymbolTableRecord
100
AcDbLayerTableRecord
2
ST-DIM
70
0
62
8
6
CONTINUOUS
370
-3
390
103
0
LAYER
5
141
330
11A
100
AcDbSymbolTableRecord
100
AcDbLayerTableRecord
2
ST-DETAIL
70
0
62
7
6
CONTINUOUS
370
-3
390
103
0
LAYER
5
142
330
11A
100
AcDbSymbolTableRecord
100
AcDbLayerTableRecord
2
ST-DETAIL-HATCH
70
0
62
8
6
CONTINUOUS
370
-3
390
103
0
LAYER
5
143
330
11A
100
AcDbSymbolTableRecord
100
AcDbLayerTableRecord
2
ST-SHEET-SCHEDULE
70
0
62
7
6
CONTINUOUS
370
-3
390
103
0
LAYER
5
144
330
11A
100
AcDbSymbolTableRecord
100
AcDbLayerTableRecord
2
ST-SHEET-SCHEDULE-TEXT
70
0
62
7
6
CONTINUOUS
370
-3
390
103
0
LAYER
5
145
330
11A
100
AcDbSymbolTableRecord
100
AcDbLayerTableRecord
2
ST-HATCH
70
0
62
8
6
CONTINUOUS
370
-3
390
103
0
LAYER
5
146
330
11A
100
AcDbSymbolTableRecord
100
AcDbLayerTableRecord
2
ST-PT-CABLE
70
0
62
3
6
CONTINUOUS
370
50
390
103
0
LAYER
5
147
330
11A
100
AcDbSymbolTableRecord
100
AcDbLayerTableRecord
2
ST-PT-TEXT
70
0
62
3
6
CONTINUOUS
370
-3
390
103
0
LAYER
5
148
330
11A
100
AcDbSymbolTableRecord
100
AcDbLayerTableRecord
2
ST-XREF
70
0
62
7
6
CONTINUOUS
370
-3
390
103
0
ENDTAB
0
TABLE
2
STYLE
5
149
330
0
100
AcDbSymbolTable
70
3
0
STYLE
5
14A
330
149
100
AcDbSymbolTableRecord
100
AcDbTextStyleTableRecord
2
STANDARD
70
0
40
0
41
1
50
0
71
0
42
2.5
3
arial.ttf
4

0
STYLE
5
14B
330
149
100
AcDbSymbolTableRecord
100
AcDbTextStyleTableRecord
2
ST-REBAR
70
0
40
0
41
1
50
0
71
0
42
2.5
3
romans.shx
4

0
STYLE
5
14C
330
149
100
AcDbSymbolTableRecord
100
AcDbTextStyleTableRecord
2
ST-TITLE
70
0
40
0
41
1
50
0
71
0
42
2.5
3
arial.ttf
4

0
ENDTAB
0
TABLE
2
VIEW
5
14D
330
0
100
AcDbSymbolTable
70
0
0
ENDTAB
0
TABLE
2
UCS
5
14E
330
0
100
AcDbSymbolTable
70
0
0
ENDTAB
0
TABLE
2
APPID
5
14F
330
0
100
AcDbSymbolTable
70
1
0
APPID
5
150
330
14F
100
AcDbSymbolTableRecord
100
AcDbRegAppTableRecord
2
ACAD
70
0
0
ENDTAB
0
TABLE
2
DIMSTYLE
5
151
330
0
100
AcDbSymbolTable
70
1
100
AcDbDimStyleTable
0
DIMSTYLE
105
152
330
151
100
AcDbSymbolTableRecord
100
AcDbDimStyleTableRecord
2
STANDARD
70
0
40
1
41
2.5
42
0.625
43
3.75
44
1.25
140
2.5
141
2.5
147
0.625
0
ENDTAB
0
TABLE
2
BLOCK_RECORD
5
107
330
0
100
AcDbSymbolTable
70
3
0
BLOCK_RECORD
5
108
330
107
100
AcDbSymbolTableRecord
100
AcDbBlockTableRecord
2
*Model_Space
340
105
0
BLOCK_RECORD
5
109
330
107
100
AcDbSymbolTableRecord
100
AcDbBlockTableRecord
2
*Paper_Space
340
106
0
BLOCK_RECORD
5
10E
330
107
100
AcDbSymbolTableRecord
100
AcDbBlockTableRecord
2
FRAMING_REBAR_ADDITIONAL_AT_COLUMNS_L02
340
0
0
ENDTAB
0
ENDSEC
0
SECTION
2
BLOCKS
0
BLOCK
5
10A
330
108
100
AcDbEntity
8
0
100
AcDbBlockBegin
2
*Model_Space
70
0
10
0
20
0
30
0
3
*Model_Space
1

0
ENDBLK
5
10B
330
108
100
AcDbEntity
8
0
100
AcDbBlockEnd
0
BLOCK
5
10C
330
109
100
AcDbEntity
67
1
8
0
100
AcDbBlockBegin
2
*Paper_Space
70
0
10
0
20
0
30
0
3
*Paper_Space
1

0
ENDBLK
5
10D
330
109
100
AcDbEntity
67
1
8
0
100
AcDbBlockEnd
0
BLOCK
5
153
330
10E
100
AcDbEntity
8
0
100
AcDbBlockBegin
2
FRAMING_REBAR_ADDITIONAL_AT_COLUMNS_L02
70
0
10
0
20
0
30
0
3
FRAMING_REBAR_ADDITIONAL_AT_COLUMNS_L02
1

0
LWPOLYLINE
5
154
330
10E
100
AcDbEntity
8
ST-SHEET-FRAME
370
13
100
AcDbPolyline
90
4
70
1
43
0
10
0
20
0
10
168200
20
0
10
168200
20
118800
10
0
20
118800
0
LWPOLYLINE
5
155
330
10E
100
AcDbEntity
8
ST-SHEET-FRAME
100
AcDbPolyline
90
4
70
1
43
0
10
4000
20
2000
10
166200
20
2000
10
166200
20
116800
10
4000
20
116800
0
LINE
5
156
330
10E
100
AcDbEntity
8
ST-SHEET-FRAME
100
AcDbLine
10
84100
20
0
30
0
11
84100
21
1200
31
0
0
LINE
5
157
330
10E
100
AcDbEntity
8
ST-SHEET-FRAME
100
AcDbLine
10
84100
20
118800
30
0
11
84100
21
117600
31
0
0
LINE
5
158
330
10E
100
AcDbEntity
8
ST-SHEET-FRAME
100
AcDbLine
10
0
20
59400
30
0
11
1200
21
59400
31
0
0
LINE
5
159
330
10E
100
AcDbEntity
8
ST-SHEET-FRAME
100
AcDbLine
10
168200
20
59400
30
0
11
167000
21
59400
31
0
0
LINE
5
15A
330
10E
100
AcDbEntity
8
ST-SHEET-FRAME
370
13
100
AcDbLine
10
4000
20
116800
30
0
11
4000
21
118800
31
0
0
LINE
5
15B
330
10E
100
AcDbEntity
8
ST-SHEET-FRAME
370
13
100
AcDbLine
10
4000
20
0
30
0
11
4000
21
2000
31
0
0
TEXT
5
15C
330
10E
100
AcDbEntity
8
ST-SHEET-FRAME
100
AcDbText
10
14137.5
20
117800
30
0
40
500
1
1
7
STANDARD
72
1
11
14137.5
21
117800
31
0
100
AcDbText
73
2
0
TEXT
5
15D
330
10E
100
AcDbEntity
8
ST-SHEET-FRAME
100
AcDbText
10
14137.5
20
1000
30
0
40
500
1
1
7
STANDARD
72
1
11
14137.5
21
1000
31
0
100
AcDbText
73
2
0
LINE
5
15E
330
10E
100
AcDbEntity
8
ST-SHEET-FRAME
370
13
100
AcDbLine
10
24275
20
116800
30
0
11
24275
21
118800
31
0
0
LINE
5
15F
330
10E
100
AcDbEntity
8
ST-SHEET-FRAME
370
13
100
AcDbLine
10
24275
20
0
30
0
11
24275
21
2000
31
0
0
TEXT
5
160
330
10E
100
AcDbEntity
8
ST-SHEET-FRAME
100
AcDbText
10
34412.5
20
117800
30
0
40
500
1
2
7
STANDARD
72
1
11
34412.5
21
117800
31
0
100
AcDbText
73
2
0
TEXT
5
161
330
10E
100
AcDbEntity
8
ST-SHEET-FRAME
100
AcDbText
10
34412.5
20
1000
30
0
40
500
1
2
7
STANDARD
72
1
11
34412.5
21
1000
31
0
100
AcDbText
73
2
0
LINE
5
162
330
10E
100
AcDbEntity
8
ST-SHEET-FRAME
370
13
100
AcDbLine
10
44550
20
116800
30
0
11
44550
21
118800
31
0
0
LINE
5
163
330
10E
100
AcDbEntity
8
ST-SHEET-FRAME
370
13
100
AcDbLine
10
44550
20
0
30
0
11
44550
21
2000
31
0
0
TEXT
5
164
330
10E
100
AcDbEntity
8
ST-SHEET-FRAME
100
AcDbText
10
54687.5
20
117800
30
0
40
500
1
3
7
STANDARD
72
1
11
54687.5
21
117800
31
0
100
AcDbText
73
2
0
TEXT
5
165
330
10E
100
AcDbEntity
8
ST-SHEET-FRAME
100
AcDbText
10
54687.5
20
1000
30
0
40
500
1
3
7
STANDARD
72
1
11
54687.5
21
1000
31
0
100
AcDbText
73
2
0
LINE
5
166
330
10E
100
AcDbEntity
8
ST-SHEET-FRAME
370
13
100
AcDbLine
10
64825
20
116800
30
0
11
64825
21
118800
31
0
0
LINE
5
167
330
10E
100
AcDbEntity
8
ST-SHEET-FRAME
370
13
100
AcDbLine
10
64825
20
0
30
0
11
64825
21
2000
31
0
0
TEXT
5
168
330
10E
100
AcDbEntity
8
ST-SHEET-FRAME
100
AcDbText
10
74962.5
20
117800
30
0
40
500
1
4
7
STANDARD
72
1
11
74962.5
21
117800
31
0
100
AcDbText
73
2
0
TEXT
5
169
330
10E
100
AcDbEntity
8
ST-SHEET-FRAME
100
AcDbText
10
74962.5
20
1000
30
0
40
500
1
4
7
STANDARD
72
1
11
74962.5
21
1000
31
0
100
AcDbText
73
2
0
LINE
5
16A
330
10E
100
AcDbEntity
8
ST-SHEET-FRAME
370
13
100
AcDbLine
10
85100
20
116800
30
0
11
85100
21
118800
31
0
0
LINE
5
16B
330
10E
100
AcDbEntity
8
ST-SHEET-FRAME
370
13
100
AcDbLine
10
85100
20
0
30
0
11
85100
21
2000
31
0
0
TEXT
5
16C
330
10E
100
AcDbEntity
8
ST-SHEET-FRAME
100
AcDbText
10
95237.5
20
117800
30
0
40
500
1
5
7
STANDARD
72
1
11
95237.5
21
117800
31
0
100
AcDbText
73
2
0
TEXT
5
16D
330
10E
100
AcDbEntity
8
ST-SHEET-FRAME
100
AcDbText
10
95237.5
20
1000
30
0
40
500
1
5
7
STANDARD
72
1
11
95237.5
21
1000
31
0
100
AcDbText
73
2
0
LINE
5
16E
330
10E
100
AcDbEntity
8
ST-SHEET-FRAME
370
13
100
AcDbLine
10
105375
20
116800
30
0
11
105375
21
118800
31
0
0
LINE
5
16F
330
10E
100
AcDbEntity
8
ST-SHEET-FRAME
370
13
100
AcDbLine
10
105375
20
0
30
0
11
105375
21
2000
31
0
0
TEXT
5
170
330
10E
100
AcDbEntity
8
ST-SHEET-FRAME
100
AcDbText
10
115512.5
20
117800
30
0
40
500
1
6
7
STANDARD
72
1
11
115512.5
21
117800
31
0
100
AcDbText
73
2
0
TEXT
5
171
330
10E
100
AcDbEntity
8
ST-SHEET-FRAME
100
AcDbText
10
115512.5
20
1000
30
0
40
500
1
6
7
STANDARD
72
1
11
115512.5
21
1000
31
0
100
AcDbText
73
2
0
LINE
5
172
330
10E
100
AcDbEntity
8
ST-SHEET-FRAME
370
13
100
AcDbLine
10
125650
20
116800
30
0
11
125650
21
118800
31
0
0
LINE
5
173
330
10E
100
AcDbEntity
8
ST-SHEET-FRAME
370
13
100
AcDbLine
10
125650
20
0
30
0
11
125650
21
2000
31
0
0
TEXT
5
174
330
10E
100
AcDbEntity
8
ST-SHEET-FRAME
100
AcDbText
10
135787.5
20
117800
30
0
40
500
1
7
7
STANDARD
72
1
11
135787.5
21
117800
31
0
100
AcDbText
73
2
0
TEXT
5
175
330
10E
100
AcDbEntity
8
ST-SHEET-FRAME
100
AcDbText
10
135787.5
20
1000
30
0
40
500
1
7
7
STANDARD
72
1
11
135787.5
21
1000
31
0
100
AcDbText
73
2
0
LINE
5
176
330
10E
100
AcDbEntity
8
ST-SHEET-FRAME
370
13
100
AcDbLine
10
145925
20
116800
30
0
11
145925
21
118800
31
0
0
LINE
5
177
330
10E
100
AcDbEntity
8
ST-SHEET-FRAME
370
13
100
AcDbLine
10
145925
20
0
30
0
11
145925
21
2000
31
0
0
TEXT
5
178
330
10E
100
AcDbEntity
8
ST-SHEET-FRAME
100
AcDbText
10
156062.5
20
117800
30
0
40
500
1
8
7
STANDARD
72
1
11
156062.5
21
117800
31
0
100
AcDbText
73
2
0
TEXT
5
179
330
10E
100
AcDbEntity
8
ST-SHEET-FRAME
100
AcDbText
10
156062.5
20
1000
30
0
40
500
1
8
7
STANDARD
72
1
11
156062.5
21
1000
31
0
100
AcDbText
73
2
0
LINE
5
17A
330
10E
100
AcDbEntity
8
ST-SHEET-FRAME
370
13
100
AcDbLine
10
166200
20
116800
30
0
11
166200
21
118800
31
0
0
LINE
5
17B
330
10E
100
AcDbEntity
8
ST-SHEET-FRAME
370
13
100
AcDbLine
10
166200
20
0
30
0
11
166200
21
2000
31
0
0
LINE
5
17C
330
10E
100
AcDbEntity
8
ST-SHEET-FRAME
370
13
100
AcDbLine
10
0
20
2000
30
0
11
4000
21
2000
31
0
0
LINE
5
17D
330
10E
100
AcDbEntity
8
ST-SHEET-FRAME
370
13
100
AcDbLine
10
166200
20
2000
30
0
11
168200
21
2000
31
0
0
TEXT
5
17E
330
10E
100
AcDbEntity
8
ST-SHEET-FRAME
100
AcDbText
10
2000
20
11566.666667
30
0
40
500
1
F
7
STANDARD
72
1
11
2000
21
11566.666667
31
0
100
AcDbText
73
2
0
TEXT
5
17F
330
10E
100
AcDbEntity
8
ST-SHEET-FRAME
100
AcDbText
10
167200
20
11566.666667
30
0
40
500
1
F
7
STANDARD
72
1
11
167200
21
11566.666667
31
0
100
AcDbText
73
2
0
LINE
5
180
330
10E
100
AcDbEntity
8
ST-SHEET-FRAME
370
13
100
AcDbLine
10
0
20
21133.333333
30
0
11
4000
21
21133.333333
31
0
0
LINE
5
181
330
10E
100
AcDbEntity
8
ST-SHEET-FRAME
370
13
100
AcDbLine
10
166200
20
21133.333333
30
0
11
168200
21
21133.333333
31
0
0
TEXT
5
182
330
10E
100
AcDbEntity
8
ST-SHEET-FRAME
100
AcDbText
10
2000
20
30700
30
0
40
500
1
E
7
STANDARD
72
1
11
2000
21
30700
31
0
100
AcDbText
73
2
0
TEXT
5
183
330
10E
100
AcDbEntity
8
ST-SHEET-FRAME
100
AcDbText
10
167200
20
30700
30
0
40
500
1
E
7
STANDARD
72
1
11
167200
21
30700
31
0
100
AcDbText
73
2
0
LINE
5
184
330
10E
100
AcDbEntity
8
ST-SHEET-FRAME
370
13
100
AcDbLine
10
0
20
40266.666667
30
0
11
4000
21
40266.666667
31
0
0
LINE
5
185
330
10E
100
AcDbEntity
8
ST-SHEET-FRAME
370
13
100
AcDbLine
10
166200
20
40266.666667
30
0
11
168200
21
40266.666667
31
0
0
TEXT
5
186
330
10E
100
AcDbEntity
8
ST-SHEET-FRAME
100
AcDbText
10
2000
20
49833.333333
30
0
40
500
1
D
7
STANDARD
72
1
11
2000
21
49833.333333
31
0
100
AcDbText
73
2
0
TEXT
5
187
330
10E
100
AcDbEntity
8
ST-SHEET-FRAME
100
AcDbText
10
167200
20
49833.333333
30
0
40
500
1
D
7
STANDARD
72
1
11
167200
21
49833.333333
31
0
100
AcDbText
73
2
0
LINE
5
188
330
10E
100
AcDbEntity
8
ST-SHEET-FRAME
370
13
100
AcDbLine
10
0
20
59400
30
0
11
4000
21
59400
31
0
0
LINE
5
189
330
10E
100
AcDbEntity
8
ST-SHEET-FRAME
370
13
100
AcDbLine
10
166200
20
59400
30
0
11
168200
21
59400
31
0
0
TEXT
5
18A
330
10E
100
AcDbEntity
8
ST-SHEET-FRAME
100
AcDbText
10
2000
20
68966.666667
30
0
40
500
1
C
7
STANDARD
72
1
11
2000
21
68966.666667
31
0
100
AcDbText
73
2
0
TEXT
5
18B
330
10E
100
AcDbEntity
8
ST-SHEET-FRAME
100
AcDbText
10
167200
20
68966.666667
30
0
40
500
1
C
7
STANDARD
72
1
11
167200
21
68966.666667
31
0
100
AcDbText
73
2
0
LINE
5
18C
330
10E
100
AcDbEntity
8
ST-SHEET-FRAME
370
13
100
AcDbLine
10
0
20
78533.333333
30
0
11
4000
21
78533.333333
31
0
0
LINE
5
18D
330
10E
100
AcDbEntity
8
ST-SHEET-FRAME
370
13
100
AcDbLine
10
166200
20
78533.333333
30
0
11
168200
21
78533.333333
31
0
0
TEXT
5
18E
330
10E
100
AcDbEntity
8
ST-SHEET-FRAME
100
AcDbText
10
2000
20
88100
30
0
40
500
1
B
7
STANDARD
72
1
11
2000
21
88100
31
0
100
AcDbText
73
2
0
TEXT
5
18F
330
10E
100
AcDbEntity
8
ST-SHEET-FRAME
100
AcDbText
10
167200
20
88100
30
0
40
500
1
B
7
STANDARD
72
1
11
167200
21
88100
31
0
100
AcDbText
73
2
0
LINE
5
190
330
10E
100
AcDbEntity
8
ST-SHEET-FRAME
370
13
100
AcDbLine
10
0
20
97666.666667
30
0
11
4000
21
97666.666667
31
0
0
LINE
5
191
330
10E
100
AcDbEntity
8
ST-SHEET-FRAME
370
13
100
AcDbLine
10
166200
20
97666.666667
30
0
11
168200
21
97666.666667
31
0
0
TEXT
5
192
330
10E
100
AcDbEntity
8
ST-SHEET-FRAME
100
AcDbText
10
2000
20
107233.333333
30
0
40
500
1
A
7
STANDARD
72
1
11
2000
21
107233.333333
31
0
100
AcDbText
73
2
0
TEXT
5
193
330
10E
100
AcDbEntity
8
ST-SHEET-FRAME
100
AcDbText
10
167200
20
107233.333333
30
0
40
500
1
A
7
STANDARD
72
1
11
167200
21
107233.333333
31
0
100
AcDbText
73
2
0
LINE
5
194
330
10E
100
AcDbEntity
8
ST-SHEET-FRAME
370
13
100
AcDbLine
10
0
20
116800
30
0
11
4000
21
116800
31
0
0
LINE
5
195
330
10E
100
AcDbEntity
8
ST-SHEET-FRAME
370
13
100
AcDbLine
10
166200
20
116800
30
0
11
168200
21
116800
31
0
0
LINE
5
196
330
10E
100
AcDbEntity
8
ST-SHEET-FRAME
100
AcDbLine
10
129200
20
2000
30
0
11
129200
21
116800
31
0
0
LINE
5
197
330
10E
100
AcDbEntity
8
ST-SHEET-FRAME
100
AcDbLine
10
4000
20
27000
30
0
11
129200
21
27000
31
0
0
LINE
5
198
330
10E
100
AcDbEntity
8
ST-SHEET-FRAME
100
AcDbLine
10
129200
20
32000
30
0
11
166200
21
32000
31
0
0
LINE
5
199
330
10E
100
AcDbEntity
8
ST-SHEET-FRAME
100
AcDbLine
10
129200
20
42400
30
0
11
166200
21
42400
31
0
0
LINE
5
19A
330
10E
100
AcDbEntity
8
ST-SHEET-FRAME
100
AcDbLine
10
129200
20
79600
30
0
11
166200
21
79600
31
0
0
LINE
5
19B
330
10E
100
AcDbEntity
8
ST-SHEET-FRAME
100
AcDbLine
10
129200
20
107600
30
0
11
166200
21
107600
31
0
0
LINE
5
19C
330
10E
100
AcDbEntity
8
ST-GRID
100
AcDbLine
10
20550
20
57300
30
0
11
20550
21
89300
31
0
0
CIRCLE
5
19D
330
10E
100
AcDbEntity
8
ST-GRID-BUBBLE
100
AcDbCircle
10
20550
20
90100
30
0
40
800
0
TEXT
5
19E
330
10E
100
AcDbEntity
8
ST-TEXT
100
AcDbText
10
20550
20
90100
30
0
40
600
1
A
7
STANDARD
72
1
11
20550
21
90100
31
0
100
AcDbText
73
2
0
CIRCLE
5
19F
330
10E
100
AcDbEntity
8
ST-GRID-BUBBLE
100
AcDbCircle
10
20550
20
56500
30
0
40
800
0
TEXT
5
1A0
330
10E
100
AcDbEntity
8
ST-TEXT
100
AcDbText
10
20550
20
56500
30
0
40
600
1
A
7
STANDARD
72
1
11
20550
21
56500
31
0
100
AcDbText
73
2
0
LINE
5
1A1
330
10E
100
AcDbEntity
8
ST-GRID
100
AcDbLine
10
28050
20
57300
30
0
11
28050
21
89300
31
0
0
CIRCLE
5
1A2
330
10E
100
AcDbEntity
8
ST-GRID-BUBBLE
100
AcDbCircle
10
28050
20
90100
30
0
40
800
0
TEXT
5
1A3
330
10E
100
AcDbEntity
8
ST-TEXT
100
AcDbText
10
28050
20
90100
30
0
40
600
1
B
7
STANDARD
72
1
11
28050
21
90100
31
0
100
AcDbText
73
2
0
CIRCLE
5
1A4
330
10E
100
AcDbEntity
8
ST-GRID-BUBBLE
100
AcDbCircle
10
28050
20
56500
30
0
40
800
0
TEXT
5
1A5
330
10E
100
AcDbEntity
8
ST-TEXT
100
AcDbText
10
28050
20
56500
30
0
40
600
1
B
7
STANDARD
72
1
11
28050
21
56500
31
0
100
AcDbText
73
2
0
LINE
5
1A6
330
10E
100
AcDbEntity
8
ST-GRID
100
AcDbLine
10
35550
20
57300
30
0
11
35550
21
89300
31
0
0
CIRCLE
5
1A7
330
10E
100
AcDbEntity
8
ST-GRID-BUBBLE
100
AcDbCircle
10
35550
20
90100
30
0
40
800
0
TEXT
5
1A8
330
10E
100
AcDbEntity
8
ST-TEXT
100
AcDbText
10
35550
20
90100
30
0
40
600
1
C
7
STANDARD
72
1
11
35550
21
90100
31
0
100
AcDbText
73
2
0
CIRCLE
5
1A9
330
10E
100
AcDbEntity
8
ST-GRID-BUBBLE
100
AcDbCircle
10
35550
20
56500
30
0
40
800
0
TEXT
5
1AA
330
10E
100
AcDbEntity
8
ST-TEXT
100
AcDbText
10
35550
20
56500
30
0
40
600
1
C
7
STANDARD
72
1
11
35550
21
56500
31
0
100
AcDbText
73
2
0
LINE
5
1AB
330
10E
100
AcDbEntity
8
ST-GRID
100
AcDbLine
10
43050
20
57300
30
0
11
43050
21
89300
31
0
0
CIRCLE
5
1AC
330
10E
100
AcDbEntity
8
ST-GRID-BUBBLE
100
AcDbCircle
10
43050
20
90100
30
0
40
800
0
TEXT
5
1AD
330
10E
100
AcDbEntity
8
ST-TEXT
100
AcDbText
10
43050
20
90100
30
0
40
600
1
D
7
STANDARD
72
1
11
43050
21
90100
31
0
100
AcDbText
73
2
0
CIRCLE
5
1AE
330
10E
100
AcDbEntity
8
ST-GRID-BUBBLE
100
AcDbCircle
10
43050
20
56500
30
0
40
800
0
TEXT
5
1AF
330
10E
100
AcDbEntity
8
ST-TEXT
100
AcDbText
10
43050
20
56500
30
0
40
600
1
D
7
STANDARD
72
1
11
43050
21
56500
31
0
100
AcDbText
73
2
0
LINE
5
1B0
330
10E
100
AcDbEntity
8
ST-GRID
100
AcDbLine
10
50550
20
57300
30
0
11
50550
21
89300
31
0
0
CIRCLE
5
1B1
330
10E
100
AcDbEntity
8
ST-GRID-BUBBLE
100
AcDbCircle
10
50550
20
90100
30
0
40
800
0
TEXT
5
1B2
330
10E
100
AcDbEntity
8
ST-TEXT
100
AcDbText
10
50550
20
90100
30
0
40
600
1
E
7
STANDARD
72
1
11
50550
21
90100
31
0
100
AcDbText
73
2
0
CIRCLE
5
1B3
330
10E
100
AcDbEntity
8
ST-GRID-BUBBLE
100
AcDbCircle
10
50550
20
56500
30
0
40
800
0
TEXT
5
1B4
330
10E
100
AcDbEntity
8
ST-TEXT
100
AcDbText
10
50550
20
56500
30
0
40
600
1
E
7
STANDARD
72
1
11
50550
21
56500
31
0
100
AcDbText
73
2
0
LINE
5
1B5
330
10E
100
AcDbEntity
8
ST-GRID
100
AcDbLine
10
16050
20
61300
30
0
11
54550
21
61300
31
0
0
CIRCLE
5
1B6
330
10E
100
AcDbEntity
8
ST-GRID-BUBBLE
100
AcDbCircle
10
15250
20
61300
30
0
40
800
0
TEXT
5
1B7
330
10E
100
AcDbEntity
8
ST-TEXT
100
AcDbText
10
15250
20
61300
30
0
40
600
1
1
7
STANDARD
72
1
11
15250
21
61300
31
0
100
AcDbText
73
2
0
CIRCLE
5
1B8
330
10E
100
AcDbEntity
8
ST-GRID-BUBBLE
100
AcDbCircle
10
55350
20
61300
30
0
40
800
0
TEXT
5
1B9
330
10E
100
AcDbEntity
8
ST-TEXT
100
AcDbText
10
55350
20
61300
30
0
40
600
1
1
7
STANDARD
72
1
11
55350
21
61300
31
0
100
AcDbText
73
2
0
LINE
5
1BA
330
10E
100
AcDbEntity
8
ST-GRID
100
AcDbLine
10
16050
20
69300
30
0
11
54550
21
69300
31
0
0
CIRCLE
5
1BB
330
10E
100
AcDbEntity
8
ST-GRID-BUBBLE
100
AcDbCircle
10
15250
20
69300
30
0
40
800
0
TEXT
5
1BC
330
10E
100
AcDbEntity
8
ST-TEXT
100
AcDbText
10
15250
20
69300
30
0
40
600
1
2
7
STANDARD
72
1
11
15250
21
69300
31
0
100
AcDbText
73
2
0
CIRCLE
5
1BD
330
10E
100
AcDbEntity
8
ST-GRID-BUBBLE
100
AcDbCircle
10
55350
20
69300
30
0
40
800
0
TEXT
5
1BE
330
10E
100
AcDbEntity
8
ST-TEXT
100
AcDbText
10
55350
20
69300
30
0
40
600
1
2
7
STANDARD
72
1
11
55350
21
69300
31
0
100
AcDbText
73
2
0
LINE
5
1BF
330
10E
100
AcDbEntity
8
ST-GRID
100
AcDbLine
10
16050
20
77300
30
0
11
54550
21
77300
31
0
0
CIRCLE
5
1C0
330
10E
100
AcDbEntity
8
ST-GRID-BUBBLE
100
AcDbCircle
10
15250
20
77300
30
0
40
800
0
TEXT
5
1C1
330
10E
100
AcDbEntity
8
ST-TEXT
100
AcDbText
10
15250
20
77300
30
0
40
600
1
3
7
STANDARD
72
1
11
15250
21
77300
31
0
100
AcDbText
73
2
0
CIRCLE
5
1C2
330
10E
100
AcDbEntity
8
ST-GRID-BUBBLE
100
AcDbCircle
10
55350
20
77300
30
0
40
800
0
TEXT
5
1C3
330
10E
100
AcDbEntity
8
ST-TEXT
100
AcDbText
10
55350
20
77300
30
0
40
600
1
3
7
STANDARD
72
1
11
55350
21
77300
31
0
100
AcDbText
73
2
0
LINE
5
1C4
330
10E
100
AcDbEntity
8
ST-GRID
100
AcDbLine
10
16050
20
85300
30
0
11
54550
21
85300
31
0
0
CIRCLE
5
1C5
330
10E
100
AcDbEntity
8
ST-GRID-BUBBLE
100
AcDbCircle
10
15250
20
85300
30
0
40
800
0
TEXT
5
1C6
330
10E
100
AcDbEntity
8
ST-TEXT
100
AcDbText
10
15250
20
85300
30
0
40
600
1
4
7
STANDARD
72
1
11
15250
21
85300
31
0
100
AcDbText
73
2
0
CIRCLE
5
1C7
330
10E
100
AcDbEntity
8
ST-GRID-BUBBLE
100
AcDbCircle
10
55350
20
85300
30
0
40
800
0
TEXT
5
1C8
330
10E
100
AcDbEntity
8
ST-TEXT
100
AcDbText
10
55350
20
85300
30
0
40
600
1
4
7
STANDARD
72
1
11
55350
21
85300
31
0
100
AcDbText
73
2
0
LWPOLYLINE
5
1C9
330
10E
100
AcDbEntity
8
ST-SLAB-EDGE
62
3
100
AcDbPolyline
90
4
70
1
43
0
10
19050
20
60300
10
51550
20
60300
10
51550
20
86300
10
19050
20
86300
0
LWPOLYLINE
5
1CA
330
10E
100
AcDbEntity
8
ST-PT-ZONE
100
AcDbPolyline
90
4
70
1
43
0
10
19050
20
60300
10
51550
20
60300
10
51550
20
86300
10
19050
20
86300
0
TEXT
5
1CB
330
10E
100
AcDbEntity
8
ST-PT-ZONE
100
AcDbText
10
19650
20
85400
30
0
40
440
1
PT1 - PT SLAB ZONE
7
STANDARD
72
0
100
AcDbText
73
0
0
LWPOLYLINE
5
1CC
330
10E
100
AcDbEntity
8
ST-COL
100
AcDbPolyline
90
4
70
1
43
0
10
20250
20
85000
10
20850
20
85000
10
20850
20
85600
10
20250
20
85600
0
HATCH
5
1CD
330
10E
100
AcDbEntity
8
ST-COL-HATCH
62
7
100
AcDbHatch
10
0
20
0
30
0
210
0
220
0
230
1
2
SOLID
70
1
71
0
91
1
92
3
72
0
73
1
93
4
10
20250
20
85000
10
20850
20
85000
10
20850
20
85600
10
20250
20
85600
97
0
75
1
76
1
47
1
98
0
0
LWPOLYLINE
5
1CE
330
10E
100
AcDbEntity
8
ST-COL
100
AcDbPolyline
90
4
70
1
43
0
10
27750
20
85000
10
28350
20
85000
10
28350
20
85600
10
27750
20
85600
0
HATCH
5
1CF
330
10E
100
AcDbEntity
8
ST-COL-HATCH
62
7
100
AcDbHatch
10
0
20
0
30
0
210
0
220
0
230
1
2
SOLID
70
1
71
0
91
1
92
3
72
0
73
1
93
4
10
27750
20
85000
10
28350
20
85000
10
28350
20
85600
10
27750
20
85600
97
0
75
1
76
1
47
1
98
0
0
LWPOLYLINE
5
1D0
330
10E
100
AcDbEntity
8
ST-COL
100
AcDbPolyline
90
4
70
1
43
0
10
35250
20
85000
10
35850
20
85000
10
35850
20
85600
10
35250
20
85600
0
HATCH
5
1D1
330
10E
100
AcDbEntity
8
ST-COL-HATCH
62
7
100
AcDbHatch
10
0
20
0
30
0
210
0
220
0
230
1
2
SOLID
70
1
71
0
91
1
92
3
72
0
73
1
93
4
10
35250
20
85000
10
35850
20
85000
10
35850
20
85600
10
35250
20
85600
97
0
75
1
76
1
47
1
98
0
0
LWPOLYLINE
5
1D2
330
10E
100
AcDbEntity
8
ST-COL
100
AcDbPolyline
90
4
70
1
43
0
10
42750
20
85000
10
43350
20
85000
10
43350
20
85600
10
42750
20
85600
0
HATCH
5
1D3
330
10E
100
AcDbEntity
8
ST-COL-HATCH
62
7
100
AcDbHatch
10
0
20
0
30
0
210
0
220
0
230
1
2
SOLID
70
1
71
0
91
1
92
3
72
0
73
1
93
4
10
42750
20
85000
10
43350
20
85000
10
43350
20
85600
10
42750
20
85600
97
0
75
1
76
1
47
1
98
0
0
LWPOLYLINE
5
1D4
330
10E
100
AcDbEntity
8
ST-COL
100
AcDbPolyline
90
4
70
1
43
0
10
50250
20
85000
10
50850
20
85000
10
50850
20
85600
10
50250
20
85600
0
HATCH
5
1D5
330
10E
100
AcDbEntity
8
ST-COL-HATCH
62
7
100
AcDbHatch
10
0
20
0
30
0
210
0
220
0
230
1
2
SOLID
70
1
71
0
91
1
92
3
72
0
73
1
93
4
10
50250
20
85000
10
50850
20
85000
10
50850
20
85600
10
50250
20
85600
97
0
75
1
76
1
47
1
98
0
0
LWPOLYLINE
5
1D6
330
10E
100
AcDbEntity
8
ST-COL
100
AcDbPolyline
90
4
70
1
43
0
10
20250
20
77000
10
20850
20
77000
10
20850
20
77600
10
20250
20
77600
0
HATCH
5
1D7
330
10E
100
AcDbEntity
8
ST-COL-HATCH
62
7
100
AcDbHatch
10
0
20
0
30
0
210
0
220
0
230
1
2
SOLID
70
1
71
0
91
1
92
3
72
0
73
1
93
4
10
20250
20
77000
10
20850
20
77000
10
20850
20
77600
10
20250
20
77600
97
0
75
1
76
1
47
1
98
0
0
LWPOLYLINE
5
1D8
330
10E
100
AcDbEntity
8
ST-COL
100
AcDbPolyline
90
4
70
1
43
0
10
27750
20
77000
10
28350
20
77000
10
28350
20
77600
10
27750
20
77600
0
HATCH
5
1D9
330
10E
100
AcDbEntity
8
ST-COL-HATCH
62
7
100
AcDbHatch
10
0
20
0
30
0
210
0
220
0
230
1
2
SOLID
70
1
71
0
91
1
92
3
72
0
73
1
93
4
10
27750
20
77000
10
28350
20
77000
10
28350
20
77600
10
27750
20
77600
97
0
75
1
76
1
47
1
98
0
0
LWPOLYLINE
5
1DA
330
10E
100
AcDbEntity
8
ST-COL
100
AcDbPolyline
90
4
70
1
43
0
10
35250
20
77000
10
35850
20
77000
10
35850
20
77600
10
35250
20
77600
0
HATCH
5
1DB
330
10E
100
AcDbEntity
8
ST-COL-HATCH
62
7
100
AcDbHatch
10
0
20
0
30
0
210
0
220
0
230
1
2
SOLID
70
1
71
0
91
1
92
3
72
0
73
1
93
4
10
35250
20
77000
10
35850
20
77000
10
35850
20
77600
10
35250
20
77600
97
0
75
1
76
1
47
1
98
0
0
LWPOLYLINE
5
1DC
330
10E
100
AcDbEntity
8
ST-COL
100
AcDbPolyline
90
4
70
1
43
0
10
42750
20
77000
10
43350
20
77000
10
43350
20
77600
10
42750
20
77600
0
HATCH
5
1DD
330
10E
100
AcDbEntity
8
ST-COL-HATCH
62
7
100
AcDbHatch
10
0
20
0
30
0
210
0
220
0
230
1
2
SOLID
70
1
71
0
91
1
92
3
72
0
73
1
93
4
10
42750
20
77000
10
43350
20
77000
10
43350
20
77600
10
42750
20
77600
97
0
75
1
76
1
47
1
98
0
0
LWPOLYLINE
5
1DE
330
10E
100
AcDbEntity
8
ST-COL
100
AcDbPolyline
90
4
70
1
43
0
10
50250
20
77000
10
50850
20
77000
10
50850
20
77600
10
50250
20
77600
0
HATCH
5
1DF
330
10E
100
AcDbEntity
8
ST-COL-HATCH
62
7
100
AcDbHatch
10
0
20
0
30
0
210
0
220
0
230
1
2
SOLID
70
1
71
0
91
1
92
3
72
0
73
1
93
4
10
50250
20
77000
10
50850
20
77000
10
50850
20
77600
10
50250
20
77600
97
0
75
1
76
1
47
1
98
0
0
LWPOLYLINE
5
1E0
330
10E
100
AcDbEntity
8
ST-COL
100
AcDbPolyline
90
4
70
1
43
0
10
20250
20
69000
10
20850
20
69000
10
20850
20
69600
10
20250
20
69600
0
HATCH
5
1E1
330
10E
100
AcDbEntity
8
ST-COL-HATCH
62
7
100
AcDbHatch
10
0
20
0
30
0
210
0
220
0
230
1
2
SOLID
70
1
71
0
91
1
92
3
72
0
73
1
93
4
10
20250
20
69000
10
20850
20
69000
10
20850
20
69600
10
20250
20
69600
97
0
75
1
76
1
47
1
98
0
0
LWPOLYLINE
5
1E2
330
10E
100
AcDbEntity
8
ST-COL
100
AcDbPolyline
90
4
70
1
43
0
10
27750
20
69000
10
28350
20
69000
10
28350
20
69600
10
27750
20
69600
0
HATCH
5
1E3
330
10E
100
AcDbEntity
8
ST-COL-HATCH
62
7
100
AcDbHatch
10
0
20
0
30
0
210
0
220
0
230
1
2
SOLID
70
1
71
0
91
1
92
3
72
0
73
1
93
4
10
27750
20
69000
10
28350
20
69000
10
28350
20
69600
10
27750
20
69600
97
0
75
1
76
1
47
1
98
0
0
LWPOLYLINE
5
1E4
330
10E
100
AcDbEntity
8
ST-COL
100
AcDbPolyline
90
4
70
1
43
0
10
35250
20
69000
10
35850
20
69000
10
35850
20
69600
10
35250
20
69600
0
HATCH
5
1E5
330
10E
100
AcDbEntity
8
ST-COL-HATCH
62
7
100
AcDbHatch
10
0
20
0
30
0
210
0
220
0
230
1
2
SOLID
70
1
71
0
91
1
92
3
72
0
73
1
93
4
10
35250
20
69000
10
35850
20
69000
10
35850
20
69600
10
35250
20
69600
97
0
75
1
76
1
47
1
98
0
0
LWPOLYLINE
5
1E6
330
10E
100
AcDbEntity
8
ST-COL
100
AcDbPolyline
90
4
70
1
43
0
10
42750
20
69000
10
43350
20
69000
10
43350
20
69600
10
42750
20
69600
0
HATCH
5
1E7
330
10E
100
AcDbEntity
8
ST-COL-HATCH
62
7
100
AcDbHatch
10
0
20
0
30
0
210
0
220
0
230
1
2
SOLID
70
1
71
0
91
1
92
3
72
0
73
1
93
4
10
42750
20
69000
10
43350
20
69000
10
43350
20
69600
10
42750
20
69600
97
0
75
1
76
1
47
1
98
0
0
LWPOLYLINE
5
1E8
330
10E
100
AcDbEntity
8
ST-COL
100
AcDbPolyline
90
4
70
1
43
0
10
50250
20
69000
10
50850
20
69000
10
50850
20
69600
10
50250
20
69600
0
HATCH
5
1E9
330
10E
100
AcDbEntity
8
ST-COL-HATCH
62
7
100
AcDbHatch
10
0
20
0
30
0
210
0
220
0
230
1
2
SOLID
70
1
71
0
91
1
92
3
72
0
73
1
93
4
10
50250
20
69000
10
50850
20
69000
10
50850
20
69600
10
50250
20
69600
97
0
75
1
76
1
47
1
98
0
0
LWPOLYLINE
5
1EA
330
10E
100
AcDbEntity
8
ST-COL
100
AcDbPolyline
90
4
70
1
43
0
10
20250
20
61000
10
20850
20
61000
10
20850
20
61600
10
20250
20
61600
0
HATCH
5
1EB
330
10E
100
AcDbEntity
8
ST-COL-HATCH
62
7
100
AcDbHatch
10
0
20
0
30
0
210
0
220
0
230
1
2
SOLID
70
1
71
0
91
1
92
3
72
0
73
1
93
4
10
20250
20
61000
10
20850
20
61000
10
20850
20
61600
10
20250
20
61600
97
0
75
1
76
1
47
1
98
0
0
LWPOLYLINE
5
1EC
330
10E
100
AcDbEntity
8
ST-COL
100
AcDbPolyline
90
4
70
1
43
0
10
27750
20
61000
10
28350
20
61000
10
28350
20
61600
10
27750
20
61600
0
HATCH
5
1ED
330
10E
100
AcDbEntity
8
ST-COL-HATCH
62
7
100
AcDbHatch
10
0
20
0
30
0
210
0
220
0
230
1
2
SOLID
70
1
71
0
91
1
92
3
72
0
73
1
93
4
10
27750
20
61000
10
28350
20
61000
10
28350
20
61600
10
27750
20
61600
97
0
75
1
76
1
47
1
98
0
0
LWPOLYLINE
5
1EE
330
10E
100
AcDbEntity
8
ST-COL
100
AcDbPolyline
90
4
70
1
43
0
10
35250
20
61000
10
35850
20
61000
10
35850
20
61600
10
35250
20
61600
0
HATCH
5
1EF
330
10E
100
AcDbEntity
8
ST-COL-HATCH
62
7
100
AcDbHatch
10
0
20
0
30
0
210
0
220
0
230
1
2
SOLID
70
1
71
0
91
1
92
3
72
0
73
1
93
4
10
35250
20
61000
10
35850
20
61000
10
35850
20
61600
10
35250
20
61600
97
0
75
1
76
1
47
1
98
0
0
LWPOLYLINE
5
1F0
330
10E
100
AcDbEntity
8
ST-COL
100
AcDbPolyline
90
4
70
1
43
0
10
42750
20
61000
10
43350
20
61000
10
43350
20
61600
10
42750
20
61600
0
HATCH
5
1F1
330
10E
100
AcDbEntity
8
ST-COL-HATCH
62
7
100
AcDbHatch
10
0
20
0
30
0
210
0
220
0
230
1
2
SOLID
70
1
71
0
91
1
92
3
72
0
73
1
93
4
10
42750
20
61000
10
43350
20
61000
10
43350
20
61600
10
42750
20
61600
97
0
75
1
76
1
47
1
98
0
0
LWPOLYLINE
5
1F2
330
10E
100
AcDbEntity
8
ST-COL
100
AcDbPolyline
90
4
70
1
43
0
10
50250
20
61000
10
50850
20
61000
10
50850
20
61600
10
50250
20
61600
0
HATCH
5
1F3
330
10E
100
AcDbEntity
8
ST-COL-HATCH
62
7
100
AcDbHatch
10
0
20
0
30
0
210
0
220
0
230
1
2
SOLID
70
1
71
0
91
1
92
3
72
0
73
1
93
4
10
50250
20
61000
10
50850
20
61000
10
50850
20
61600
10
50250
20
61600
97
0
75
1
76
1
47
1
98
0
0
LWPOLYLINE
5
1F4
330
10E
100
AcDbEntity
8
ST-OPENING
100
AcDbPolyline
90
4
70
1
43
0
10
30050
20
70800
10
33050
20
70800
10
33050
20
75800
10
30050
20
75800
0
LINE
5
1F5
330
10E
100
AcDbEntity
8
ST-OPENING
100
AcDbLine
10
30050
20
70800
30
0
11
33050
21
75800
31
0
0
LINE
5
1F6
330
10E
100
AcDbEntity
8
ST-OPENING
100
AcDbLine
10
33050
20
70800
30
0
11
30050
21
75800
31
0
0
LWPOLYLINE
5
1F7
330
10E
100
AcDbEntity
8
ST-OPENING
100
AcDbPolyline
90
4
70
1
43
0
10
44550
20
71300
10
47050
20
71300
10
47050
20
73800
10
44550
20
73800
0
LINE
5
1F8
330
10E
100
AcDbEntity
8
ST-OPENING
100
AcDbLine
10
44550
20
71300
30
0
11
47050
21
73800
31
0
0
LINE
5
1F9
330
10E
100
AcDbEntity
8
ST-OPENING
100
AcDbLine
10
47050
20
71300
30
0
11
44550
21
73800
31
0
0
LWPOLYLINE
5
1FA
330
10E
100
AcDbEntity
8
ST-VOID
100
AcDbPolyline
90
4
70
1
43
0
10
22550
20
78300
10
26550
20
78300
10
26550
20
81300
10
22550
20
81300
0
HATCH
5
1FB
330
10E
100
AcDbEntity
8
ST-VOID-HATCH
100
AcDbHatch
10
0
20
0
30
0
210
0
220
0
230
1
2
ANSI37
70
0
71
0
91
1
92
3
72
0
73
1
93
4
10
22550
20
78300
10
26550
20
78300
10
26550
20
81300
10
22550
20
81300
97
0
75
1
76
1
52
0
41
157.480315
77
0
78
2
53
45
43
0
44
0
45
-353.553391
46
353.553391
79
0
53
135
43
0
44
0
45
-353.553391
46
-353.553391
79
0
47
1
98
0
0
LINE
5
1FC
330
10E
100
AcDbEntity
8
ST-RB-T1
100
AcDbLine
10
20550
20
83750
30
0
11
20550
21
86280
31
0
0
LINE
5
1FD
330
10E
100
AcDbEntity
8
ST-RB-T1
100
AcDbLine
10
20550
20
86280
30
0
11
20800
21
86280
31
0
0
TEXT
5
1FE
330
10E
100
AcDbEntity
8
ST-RB-TEXT
100
AcDbText
10
20440
20
85015
30
0
40
420
1
9T16@150-T1-01-(L=2730)
50
90
7
ST-REBAR
72
1
11
20440
21
85015
31
0
100
AcDbText
73
0
0
TEXT
5
1FF
330
10E
100
AcDbEntity
8
ST-RB-TEXT
100
AcDbText
10
20990
20
85015
30
0
40
340
1
2530
50
90
7
ST-REBAR
72
1
11
20990
21
85015
31
0
100
AcDbText
73
0
0
TEXT
5
200
330
10E
100
AcDbEntity
8
ST-RB-TEXT
100
AcDbText
10
20440
20
86360
30
0
40
300
1
200
50
90
7
ST-REBAR
72
0
100
AcDbText
73
0
0
LINE
5
201
330
10E
100
AcDbEntity
8
ST-RB-T1
100
AcDbLine
10
20670
20
83750
30
0
11
20430
21
83750
31
0
0
LINE
5
202
330
10E
100
AcDbEntity
8
ST-RB-T1
100
AcDbLine
10
20670
20
86280
30
0
11
20430
21
86280
31
0
0
CIRCLE
5
203
330
10E
100
AcDbEntity
8
ST-CALLOUT
100
AcDbCircle
10
22050
20
86800
30
0
40
600
0
TEXT
5
204
330
10E
100
AcDbEntity
8
ST-CALLOUT
100
AcDbText
10
22050
20
86800
30
0
40
320
1
TC1
7
STANDARD
72
1
11
22050
21
86800
31
0
100
AcDbText
73
2
0
LINE
5
205
330
10E
100
AcDbEntity
8
ST-CALLOUT
100
AcDbLine
10
21625.735931
20
86375.735931
30
0
11
20850
21
85600
31
0
0
LINE
5
206
330
10E
100
AcDbEntity
8
ST-RB-T1
100
AcDbLine
10
28050
20
83750
30
0
11
28050
21
86280
31
0
0
LINE
5
207
330
10E
100
AcDbEntity
8
ST-RB-T1
100
AcDbLine
10
28050
20
86280
30
0
11
28300
21
86280
31
0
0
TEXT
5
208
330
10E
100
AcDbEntity
8
ST-RB-TEXT
100
AcDbText
10
27940
20
85015
30
0
40
420
1
9T16@150-T1-01-(L=2730)
50
90
7
ST-REBAR
72
1
11
27940
21
85015
31
0
100
AcDbText
73
0
0
TEXT
5
209
330
10E
100
AcDbEntity
8
ST-RB-TEXT
100
AcDbText
10
28490
20
85015
30
0
40
340
1
2530
50
90
7
ST-REBAR
72
1
11
28490
21
85015
31
0
100
AcDbText
73
0
0
TEXT
5
20A
330
10E
100
AcDbEntity
8
ST-RB-TEXT
100
AcDbText
10
27940
20
86360
30
0
40
300
1
200
50
90
7
ST-REBAR
72
0
100
AcDbText
73
0
0
LINE
5
20B
330
10E
100
AcDbEntity
8
ST-RB-T1
100
AcDbLine
10
28170
20
83750
30
0
11
27930
21
83750
31
0
0
LINE
5
20C
330
10E
100
AcDbEntity
8
ST-RB-T1
100
AcDbLine
10
28170
20
86280
30
0
11
27930
21
86280
31
0
0
CIRCLE
5
20D
330
10E
100
AcDbEntity
8
ST-CALLOUT
100
AcDbCircle
10
29550
20
86800
30
0
40
600
0
TEXT
5
20E
330
10E
100
AcDbEntity
8
ST-CALLOUT
100
AcDbText
10
29550
20
86800
30
0
40
320
1
TC2
7
STANDARD
72
1
11
29550
21
86800
31
0
100
AcDbText
73
2
0
LINE
5
20F
330
10E
100
AcDbEntity
8
ST-CALLOUT
100
AcDbLine
10
29125.735931
20
86375.735931
30
0
11
28350
21
85600
31
0
0
LINE
5
210
330
10E
100
AcDbEntity
8
ST-RB-T1
100
AcDbLine
10
35550
20
83750
30
0
11
35550
21
86280
31
0
0
LINE
5
211
330
10E
100
AcDbEntity
8
ST-RB-T1
100
AcDbLine
10
35550
20
86280
30
0
11
35800
21
86280
31
0
0
TEXT
5
212
330
10E
100
AcDbEntity
8
ST-RB-TEXT
100
AcDbText
10
35440
20
85015
30
0
40
420
1
9T16@150-T1-01-(L=2730)
50
90
7
ST-REBAR
72
1
11
35440
21
85015
31
0
100
AcDbText
73
0
0
TEXT
5
213
330
10E
100
AcDbEntity
8
ST-RB-TEXT
100
AcDbText
10
35990
20
85015
30
0
40
340
1
2530
50
90
7
ST-REBAR
72
1
11
35990
21
85015
31
0
100
AcDbText
73
0
0
TEXT
5
214
330
10E
100
AcDbEntity
8
ST-RB-TEXT
100
AcDbText
10
35440
20
86360
30
0
40
300
1
200
50
90
7
ST-REBAR
72
0
100
AcDbText
73
0
0
LINE
5
215
330
10E
100
AcDbEntity
8
ST-RB-T1
100
AcDbLine
10
35670
20
83750
30
0
11
35430
21
83750
31
0
0
LINE
5
216
330
10E
100
AcDbEntity
8
ST-RB-T1
100
AcDbLine
10
35670
20
86280
30
0
11
35430
21
86280
31
0
0
CIRCLE
5
217
330
10E
100
AcDbEntity
8
ST-CALLOUT
100
AcDbCircle
10
37050
20
86800
30
0
40
600
0
TEXT
5
218
330
10E
100
AcDbEntity
8
ST-CALLOUT
100
AcDbText
10
37050
20
86800
30
0
40
320
1
TC2
7
STANDARD
72
1
11
37050
21
86800
31
0
100
AcDbText
73
2
0
LINE
5
219
330
10E
100
AcDbEntity
8
ST-CALLOUT
100
AcDbLine
10
36625.735931
20
86375.735931
30
0
11
35850
21
85600
31
0
0
LINE
5
21A
330
10E
100
AcDbEntity
8
ST-RB-T1
100
AcDbLine
10
43050
20
83750
30
0
11
43050
21
86280
31
0
0
LINE
5
21B
330
10E
100
AcDbEntity
8
ST-RB-T1
100
AcDbLine
10
43050
20
86280
30
0
11
43300
21
86280
31
0
0
TEXT
5
21C
330
10E
100
AcDbEntity
8
ST-RB-TEXT
100
AcDbText
10
42940
20
85015
30
0
40
420
1
9T16@150-T1-01-(L=2730)
50
90
7
ST-REBAR
72
1
11
42940
21
85015
31
0
100
AcDbText
73
0
0
TEXT
5
21D
330
10E
100
AcDbEntity
8
ST-RB-TEXT
100
AcDbText
10
43490
20
85015
30
0
40
340
1
2530
50
90
7
ST-REBAR
72
1
11
43490
21
85015
31
0
100
AcDbText
73
0
0
TEXT
5
21E
330
10E
100
AcDbEntity
8
ST-RB-TEXT
100
AcDbText
10
42940
20
86360
30
0
40
300
1
200
50
90
7
ST-REBAR
72
0
100
AcDbText
73
0
0
LINE
5
21F
330
10E
100
AcDbEntity
8
ST-RB-T1
100
AcDbLine
10
43170
20
83750
30
0
11
42930
21
83750
31
0
0
LINE
5
220
330
10E
100
AcDbEntity
8
ST-RB-T1
100
AcDbLine
10
43170
20
86280
30
0
11
42930
21
86280
31
0
0
CIRCLE
5
221
330
10E
100
AcDbEntity
8
ST-CALLOUT
100
AcDbCircle
10
44550
20
86800
30
0
40
600
0
TEXT
5
222
330
10E
100
AcDbEntity
8
ST-CALLOUT
100
AcDbText
10
44550
20
86800
30
0
40
320
1
TC2
7
STANDARD
72
1
11
44550
21
86800
31
0
100
AcDbText
73
2
0
LINE
5
223
330
10E
100
AcDbEntity
8
ST-CALLOUT
100
AcDbLine
10
44125.735931
20
86375.735931
30
0
11
43350
21
85600
31
0
0
LINE
5
224
330
10E
100
AcDbEntity
8
ST-RB-T1
100
AcDbLine
10
50550
20
83750
30
0
11
50550
21
86280
31
0
0
LINE
5
225
330
10E
100
AcDbEntity
8
ST-RB-T1
100
AcDbLine
10
50550
20
86280
30
0
11
50800
21
86280
31
0
0
TEXT
5
226
330
10E
100
AcDbEntity
8
ST-RB-TEXT
100
AcDbText
10
50440
20
85015
30
0
40
420
1
9T16@150-T1-01-(L=2730)
50
90
7
ST-REBAR
72
1
11
50440
21
85015
31
0
100
AcDbText
73
0
0
TEXT
5
227
330
10E
100
AcDbEntity
8
ST-RB-TEXT
100
AcDbText
10
50990
20
85015
30
0
40
340
1
2530
50
90
7
ST-REBAR
72
1
11
50990
21
85015
31
0
100
AcDbText
73
0
0
TEXT
5
228
330
10E
100
AcDbEntity
8
ST-RB-TEXT
100
AcDbText
10
50440
20
86360
30
0
40
300
1
200
50
90
7
ST-REBAR
72
0
100
AcDbText
73
0
0
LINE
5
229
330
10E
100
AcDbEntity
8
ST-RB-T1
100
AcDbLine
10
50670
20
83750
30
0
11
50430
21
83750
31
0
0
LINE
5
22A
330
10E
100
AcDbEntity
8
ST-RB-T1
100
AcDbLine
10
50670
20
86280
30
0
11
50430
21
86280
31
0
0
CIRCLE
5
22B
330
10E
100
AcDbEntity
8
ST-CALLOUT
100
AcDbCircle
10
52050
20
86800
30
0
40
600
0
TEXT
5
22C
330
10E
100
AcDbEntity
8
ST-CALLOUT
100
AcDbText
10
52050
20
86800
30
0
40
320
1
TC3
7
STANDARD
72
1
11
52050
21
86800
31
0
100
AcDbText
73
2
0
LINE
5
22D
330
10E
100
AcDbEntity
8
ST-CALLOUT
100
AcDbLine
10
51625.735931
20
86375.735931
30
0
11
50850
21
85600
31
0
0
LINE
5
22E
330
10E
100
AcDbEntity
8
ST-RB-T1
100
AcDbLine
10
20550
20
75750
30
0
11
20550
21
78850
31
0
0
TEXT
5
22F
330
10E
100
AcDbEntity
8
ST-RB-TEXT
100
AcDbText
10
20440
20
77300
30
0
40
420
1
9T16@150-T1-02-(L=3100)
50
90
7
ST-REBAR
72
1
11
20440
21
77300
31
0
100
AcDbText
73
0
0
TEXT
5
230
330
10E
100
AcDbEntity
8
ST-RB-TEXT
100
AcDbText
10
20990
20
77300
30
0
40
340
1
3100
50
90
7
ST-REBAR
72
1
11
20990
21
77300
31
0
100
AcDbText
73
0
0
LINE
5
231
330
10E
100
AcDbEntity
8
ST-RB-T1
100
AcDbLine
10
20670
20
75750
30
0
11
20430
21
75750
31
0
0
LINE
5
232
330
10E
100
AcDbEntity
8
ST-RB-T1
100
AcDbLine
10
20670
20
78850
30
0
11
20430
21
78850
31
0
0
CIRCLE
5
233
330
10E
100
AcDbEntity
8
ST-CALLOUT
100
AcDbCircle
10
22050
20
78800
30
0
40
600
0
TEXT
5
234
330
10E
100
AcDbEntity
8
ST-CALLOUT
100
AcDbText
10
22050
20
78800
30
0
40
320
1
TC4
7
STANDARD
72
1
11
22050
21
78800
31
0
100
AcDbText
73
2
0
LINE
5
235
330
10E
100
AcDbEntity
8
ST-CALLOUT
100
AcDbLine
10
21625.735931
20
78375.735931
30
0
11
20850
21
77600
31
0
0
LINE
5
236
330
10E
100
AcDbEntity
8
ST-RB-T1
100
AcDbLine
10
28050
20
75750
30
0
11
28050
21
78850
31
0
0
TEXT
5
237
330
10E
100
AcDbEntity
8
ST-RB-TEXT
100
AcDbText
10
27940
20
77300
30
0
40
420
1
9T16@150-T1-02-(L=3100)
50
90
7
ST-REBAR
72
1
11
27940
21
77300
31
0
100
AcDbText
73
0
0
TEXT
5
238
330
10E
100
AcDbEntity
8
ST-RB-TEXT
100
AcDbText
10
28490
20
77300
30
0
40
340
1
3100
50
90
7
ST-REBAR
72
1
11
28490
21
77300
31
0
100
AcDbText
73
0
0
LINE
5
239
330
10E
100
AcDbEntity
8
ST-RB-T1
100
AcDbLine
10
28170
20
75750
30
0
11
27930
21
75750
31
0
0
LINE
5
23A
330
10E
100
AcDbEntity
8
ST-RB-T1
100
AcDbLine
10
28170
20
78850
30
0
11
27930
21
78850
31
0
0
CIRCLE
5
23B
330
10E
100
AcDbEntity
8
ST-CALLOUT
100
AcDbCircle
10
29550
20
78800
30
0
40
600
0
TEXT
5
23C
330
10E
100
AcDbEntity
8
ST-CALLOUT
100
AcDbText
10
29550
20
78800
30
0
40
320
1
TC5
7
STANDARD
72
1
11
29550
21
78800
31
0
100
AcDbText
73
2
0
LINE
5
23D
330
10E
100
AcDbEntity
8
ST-CALLOUT
100
AcDbLine
10
29125.735931
20
78375.735931
30
0
11
28350
21
77600
31
0
0
LINE
5
23E
330
10E
100
AcDbEntity
8
ST-RB-T1
100
AcDbLine
10
35550
20
75750
30
0
11
35550
21
78850
31
0
0
TEXT
5
23F
330
10E
100
AcDbEntity
8
ST-RB-TEXT
100
AcDbText
10
35440
20
77300
30
0
40
420
1
9T16@150-T1-02-(L=3100)
50
90
7
ST-REBAR
72
1
11
35440
21
77300
31
0
100
AcDbText
73
0
0
TEXT
5
240
330
10E
100
AcDbEntity
8
ST-RB-TEXT
100
AcDbText
10
35990
20
77300
30
0
40
340
1
3100
50
90
7
ST-REBAR
72
1
11
35990
21
77300
31
0
100
AcDbText
73
0
0
LINE
5
241
330
10E
100
AcDbEntity
8
ST-RB-T1
100
AcDbLine
10
35670
20
75750
30
0
11
35430
21
75750
31
0
0
LINE
5
242
330
10E
100
AcDbEntity
8
ST-RB-T1
100
AcDbLine
10
35670
20
78850
30
0
11
35430
21
78850
31
0
0
CIRCLE
5
243
330
10E
100
AcDbEntity
8
ST-CALLOUT
100
AcDbCircle
10
37050
20
78800
30
0
40
600
0
TEXT
5
244
330
10E
100
AcDbEntity
8
ST-CALLOUT
100
AcDbText
10
37050
20
78800
30
0
40
320
1
TC5
7
STANDARD
72
1
11
37050
21
78800
31
0
100
AcDbText
73
2
0
LINE
5
245
330
10E
100
AcDbEntity
8
ST-CALLOUT
100
AcDbLine
10
36625.735931
20
78375.735931
30
0
11
35850
21
77600
31
0
0
LINE
5
246
330
10E
100
AcDbEntity
8
ST-RB-T1
100
AcDbLine
10
43050
20
75750
30
0
11
43050
21
78850
31
0
0
TEXT
5
247
330
10E
100
AcDbEntity
8
ST-RB-TEXT
100
AcDbText
10
42940
20
77300
30
0
40
420
1
9T16@150-T1-02-(L=3100)
50
90
7
ST-REBAR
72
1
11
42940
21
77300
31
0
100
AcDbText
73
0
0
TEXT
5
248
330
10E
100
AcDbEntity
8
ST-RB-TEXT
100
AcDbText
10
43490
20
77300
30
0
40
340
1
3100
50
90
7
ST-REBAR
72
1
11
43490
21
77300
31
0
100
AcDbText
73
0
0
LINE
5
249
330
10E
100
AcDbEntity
8
ST-RB-T1
100
AcDbLine
10
43170
20
75750
30
0
11
42930
21
75750
31
0
0
LINE
5
24A
330
10E
100
AcDbEntity
8
ST-RB-T1
100
AcDbLine
10
43170
20
78850
30
0
11
42930
21
78850
31
0
0
CIRCLE
5
24B
330
10E
100
AcDbEntity
8
ST-CALLOUT
100
AcDbCircle
10
44550
20
78800
30
0
40
600
0
TEXT
5
24C
330
10E
100
AcDbEntity
8
ST-CALLOUT
100
AcDbText
10
44550
20
78800
30
0
40
320
1
TC5
7
STANDARD
72
1
11
44550
21
78800
31
0
100
AcDbText
73
2
0
LINE
5
24D
330
10E
100
AcDbEntity
8
ST-CALLOUT
100
AcDbLine
10
44125.735931
20
78375.735931
30
0
11
43350
21
77600
31
0
0
LINE
5
24E
330
10E
100
AcDbEntity
8
ST-RB-T1
100
AcDbLine
10
50550
20
75750
30
0
11
50550
21
78850
31
0
0
TEXT
5
24F
330
10E
100
AcDbEntity
8
ST-RB-TEXT
100
AcDbText
10
50440
20
77300
30
0
40
420
1
9T16@150-T1-02-(L=3100)
50
90
7
ST-REBAR
72
1
11
50440
21
77300
31
0
100
AcDbText
73
0
0
TEXT
5
250
330
10E
100
AcDbEntity
8
ST-RB-TEXT
100
AcDbText
10
50990
20
77300
30
0
40
340
1
3100
50
90
7
ST-REBAR
72
1
11
50990
21
77300
31
0
100
AcDbText
73
0
0
LINE
5
251
330
10E
100
AcDbEntity
8
ST-RB-T1
100
AcDbLine
10
50670
20
75750
30
0
11
50430
21
75750
31
0
0
LINE
5
252
330
10E
100
AcDbEntity
8
ST-RB-T1
100
AcDbLine
10
50670
20
78850
30
0
11
50430
21
78850
31
0
0
CIRCLE
5
253
330
10E
100
AcDbEntity
8
ST-CALLOUT
100
AcDbCircle
10
52050
20
78800
30
0
40
600
0
TEXT
5
254
330
10E
100
AcDbEntity
8
ST-CALLOUT
100
AcDbText
10
52050
20
78800
30
0
40
320
1
TC6
7
STANDARD
72
1
11
52050
21
78800
31
0
100
AcDbText
73
2
0
LINE
5
255
330
10E
100
AcDbEntity
8
ST-CALLOUT
100
AcDbLine
10
51625.735931
20
78375.735931
30
0
11
50850
21
77600
31
0
0
LINE
5
256
330
10E
100
AcDbEntity
8
ST-RB-T1
100
AcDbLine
10
20550
20
67750
30
0
11
20550
21
70850
31
0
0
TEXT
5
257
330
10E
100
AcDbEntity
8
ST-RB-TEXT
100
AcDbText
10
20440
20
69300
30
0
40
420
1
9T16@150-T1-02-(L=3100)
50
90
7
ST-REBAR
72
1
11
20440
21
69300
31
0
100
AcDbText
73
0
0
TEXT
5
258
330
10E
100
AcDbEntity
8
ST-RB-TEXT
100
AcDbText
10
20990
20
69300
30
0
40
340
1
3100
50
90
7
ST-REBAR
72
1
11
20990
21
69300
31
0
100
AcDbText
73
0
0
LINE
5
259
330
10E
100
AcDbEntity
8
ST-RB-T1
100
AcDbLine
10
20670
20
67750
30
0
11
20430
21
67750
31
0
0
LINE
5
25A
330
10E
100
AcDbEntity
8
ST-RB-T1
100
AcDbLine
10
20670
20
70850
30
0
11
20430
21
70850
31
0
0
CIRCLE
5
25B
330
10E
100
AcDbEntity
8
ST-CALLOUT
100
AcDbCircle
10
22050
20
70800
30
0
40
600
0
TEXT
5
25C
330
10E
100
AcDbEntity
8
ST-CALLOUT
100
AcDbText
10
22050
20
70800
30
0
40
320
1
TC4
7
STANDARD
72
1
11
22050
21
70800
31
0
100
AcDbText
73
2
0
LINE
5
25D
330
10E
100
AcDbEntity
8
ST-CALLOUT
100
AcDbLine
10
21625.735931
20
70375.735931
30
0
11
20850
21
69600
31
0
0
LINE
5
25E
330
10E
100
AcDbEntity
8
ST-RB-T1
100
AcDbLine
10
28050
20
67750
30
0
11
28050
21
70850
31
0
0
TEXT
5
25F
330
10E
100
AcDbEntity
8
ST-RB-TEXT
100
AcDbText
10
27940
20
69300
30
0
40
420
1
9T16@150-T1-02-(L=3100)
50
90
7
ST-REBAR
72
1
11
27940
21
69300
31
0
100
AcDbText
73
0
0
TEXT
5
260
330
10E
100
AcDbEntity
8
ST-RB-TEXT
100
AcDbText
10
28490
20
69300
30
0
40
340
1
3100
50
90
7
ST-REBAR
72
1
11
28490
21
69300
31
0
100
AcDbText
73
0
0
LINE
5
261
330
10E
100
AcDbEntity
8
ST-RB-T1
100
AcDbLine
10
28170
20
67750
30
0
11
27930
21
67750
31
0
0
LINE
5
262
330
10E
100
AcDbEntity
8
ST-RB-T1
100
AcDbLine
10
28170
20
70850
30
0
11
27930
21
70850
31
0
0
CIRCLE
5
263
330
10E
100
AcDbEntity
8
ST-CALLOUT
100
AcDbCircle
10
29550
20
70800
30
0
40
600
0
TEXT
5
264
330
10E
100
AcDbEntity
8
ST-CALLOUT
100
AcDbText
10
29550
20
70800
30
0
40
320
1
TC5
7
STANDARD
72
1
11
29550
21
70800
31
0
100
AcDbText
73
2
0
LINE
5
265
330
10E
100
AcDbEntity
8
ST-CALLOUT
100
AcDbLine
10
29125.735931
20
70375.735931
30
0
11
28350
21
69600
31
0
0
LINE
5
266
330
10E
100
AcDbEntity
8
ST-RB-T1
100
AcDbLine
10
35550
20
67750
30
0
11
35550
21
70850
31
0
0
TEXT
5
267
330
10E
100
AcDbEntity
8
ST-RB-TEXT
100
AcDbText
10
35440
20
69300
30
0
40
420
1
9T16@150-T1-02-(L=3100)
50
90
7
ST-REBAR
72
1
11
35440
21
69300
31
0
100
AcDbText
73
0
0
TEXT
5
268
330
10E
100
AcDbEntity
8
ST-RB-TEXT
100
AcDbText
10
35990
20
69300
30
0
40
340
1
3100
50
90
7
ST-REBAR
72
1
11
35990
21
69300
31
0
100
AcDbText
73
0
0
LINE
5
269
330
10E
100
AcDbEntity
8
ST-RB-T1
100
AcDbLine
10
35670
20
67750
30
0
11
35430
21
67750
31
0
0
LINE
5
26A
330
10E
100
AcDbEntity
8
ST-RB-T1
100
AcDbLine
10
35670
20
70850
30
0
11
35430
21
70850
31
0
0
CIRCLE
5
26B
330
10E
100
AcDbEntity
8
ST-CALLOUT
100
AcDbCircle
10
37050
20
70800
30
0
40
600
0
TEXT
5
26C
330
10E
100
AcDbEntity
8
ST-CALLOUT
100
AcDbText
10
37050
20
70800
30
0
40
320
1
TC5
7
STANDARD
72
1
11
37050
21
70800
31
0
100
AcDbText
73
2
0
LINE
5
26D
330
10E
100
AcDbEntity
8
ST-CALLOUT
100
AcDbLine
10
36625.735931
20
70375.735931
30
0
11
35850
21
69600
31
0
0
LINE
5
26E
330
10E
100
AcDbEntity
8
ST-RB-T1
100
AcDbLine
10
43050
20
67750
30
0
11
43050
21
70850
31
0
0
TEXT
5
26F
330
10E
100
AcDbEntity
8
ST-RB-TEXT
100
AcDbText
10
42940
20
69300
30
0
40
420
1
9T16@150-T1-02-(L=3100)
50
90
7
ST-REBAR
72
1
11
42940
21
69300
31
0
100
AcDbText
73
0
0
TEXT
5
270
330
10E
100
AcDbEntity
8
ST-RB-TEXT
100
AcDbText
10
43490
20
69300
30
0
40
340
1
3100
50
90
7
ST-REBAR
72
1
11
43490
21
69300
31
0
100
AcDbText
73
0
0
LINE
5
271
330
10E
100
AcDbEntity
8
ST-RB-T1
100
AcDbLine
10
43170
20
67750
30
0
11
42930
21
67750
31
0
0
LINE
5
272
330
10E
100
AcDbEntity
8
ST-RB-T1
100
AcDbLine
10
43170
20
70850
30
0
11
42930
21
70850
31
0
0
CIRCLE
5
273
330
10E
100
AcDbEntity
8
ST-CALLOUT
100
AcDbCircle
10
44550
20
70800
30
0
40
600
0
TEXT
5
274
330
10E
100
AcDbEntity
8
ST-CALLOUT
100
AcDbText
10
44550
20
70800
30
0
40
320
1
TC5
7
STANDARD
72
1
11
44550
21
70800
31
0
100
AcDbText
73
2
0
LINE
5
275
330
10E
100
AcDbEntity
8
ST-CALLOUT
100
AcDbLine
10
44125.735931
20
70375.735931
30
0
11
43350
21
69600
31
0
0
LINE
5
276
330
10E
100
AcDbEntity
8
ST-RB-T1
100
AcDbLine
10
50550
20
67750
30
0
11
50550
21
70850
31
0
0
TEXT
5
277
330
10E
100
AcDbEntity
8
ST-RB-TEXT
100
AcDbText
10
50440
20
69300
30
0
40
420
1
9T16@150-T1-02-(L=3100)
50
90
7
ST-REBAR
72
1
11
50440
21
69300
31
0
100
AcDbText
73
0
0
TEXT
5
278
330
10E
100
AcDbEntity
8
ST-RB-TEXT
100
AcDbText
10
50990
20
69300
30
0
40
340
1
3100
50
90
7
ST-REBAR
72
1
11
50990
21
69300
31
0
100
AcDbText
73
0
0
LINE
5
279
330
10E
100
AcDbEntity
8
ST-RB-T1
100
AcDbLine
10
50670
20
67750
30
0
11
50430
21
67750
31
0
0
LINE
5
27A
330
10E
100
AcDbEntity
8
ST-RB-T1
100
AcDbLine
10
50670
20
70850
30
0
11
50430
21
70850
31
0
0
CIRCLE
5
27B
330
10E
100
AcDbEntity
8
ST-CALLOUT
100
AcDbCircle
10
52050
20
70800
30
0
40
600
0
TEXT
5
27C
330
10E
100
AcDbEntity
8
ST-CALLOUT
100
AcDbText
10
52050
20
70800
30
0
40
320
1
TC6
7
STANDARD
72
1
11
52050
21
70800
31
0
100
AcDbText
73
2
0
LINE
5
27D
330
10E
100
AcDbEntity
8
ST-CALLOUT
100
AcDbLine
10
51625.735931
20
70375.735931
30
0
11
50850
21
69600
31
0
0
LINE
5
27E
330
10E
100
AcDbEntity
8
ST-RB-T1
100
AcDbLine
10
20550
20
60325
30
0
11
20550
21
62855
31
0
0
LINE
5
27F
330
10E
100
AcDbEntity
8
ST-RB-T1
100
AcDbLine
10
20550
20
60325
30
0
11
20800
21
60325
31
0
0
TEXT
5
280
330
10E
100
AcDbEntity
8
ST-RB-TEXT
100
AcDbText
10
20440
20
61590
30
0
40
420
1
9T16@150-T1-01-(L=2730)
50
90
7
ST-REBAR
72
1
11
20440
21
61590
31
0
100
AcDbText
73
0
0
TEXT
5
281
330
10E
100
AcDbEntity
8
ST-RB-TEXT
100
AcDbText
10
20990
20
61590
30
0
40
340
1
2530
50
90
7
ST-REBAR
72
1
11
20990
21
61590
31
0
100
AcDbText
73
0
0
TEXT
5
282
330
10E
100
AcDbEntity
8
ST-RB-TEXT
100
AcDbText
10
20440
20
60245
30
0
40
300
1
200
50
90
7
ST-REBAR
72
2
11
20440
21
60245
31
0
100
AcDbText
73
0
0
LINE
5
283
330
10E
100
AcDbEntity
8
ST-RB-T1
100
AcDbLine
10
20670
20
60325
30
0
11
20430
21
60325
31
0
0
LINE
5
284
330
10E
100
AcDbEntity
8
ST-RB-T1
100
AcDbLine
10
20670
20
62855
30
0
11
20430
21
62855
31
0
0
CIRCLE
5
285
330
10E
100
AcDbEntity
8
ST-CALLOUT
100
AcDbCircle
10
22050
20
62800
30
0
40
600
0
TEXT
5
286
330
10E
100
AcDbEntity
8
ST-CALLOUT
100
AcDbText
10
22050
20
62800
30
0
40
320
1
TC1
7
STANDARD
72
1
11
22050
21
62800
31
0
100
AcDbText
73
2
0
LINE
5
287
330
10E
100
AcDbEntity
8
ST-CALLOUT
100
AcDbLine
10
21625.735931
20
62375.735931
30
0
11
20850
21
61600
31
0
0
LINE
5
288
330
10E
100
AcDbEntity
8
ST-RB-T1
100
AcDbLine
10
28050
20
60325
30
0
11
28050
21
62855
31
0
0
LINE
5
289
330
10E
100
AcDbEntity
8
ST-RB-T1
100
AcDbLine
10
28050
20
60325
30
0
11
28300
21
60325
31
0
0
TEXT
5
28A
330
10E
100
AcDbEntity
8
ST-RB-TEXT
100
AcDbText
10
27940
20
61590
30
0
40
420
1
9T16@150-T1-01-(L=2730)
50
90
7
ST-REBAR
72
1
11
27940
21
61590
31
0
100
AcDbText
73
0
0
TEXT
5
28B
330
10E
100
AcDbEntity
8
ST-RB-TEXT
100
AcDbText
10
28490
20
61590
30
0
40
340
1
2530
50
90
7
ST-REBAR
72
1
11
28490
21
61590
31
0
100
AcDbText
73
0
0
TEXT
5
28C
330
10E
100
AcDbEntity
8
ST-RB-TEXT
100
AcDbText
10
27940
20
60245
30
0
40
300
1
200
50
90
7
ST-REBAR
72
2
11
27940
21
60245
31
0
100
AcDbText
73
0
0
LINE
5
28D
330
10E
100
AcDbEntity
8
ST-RB-T1
100
AcDbLine
10
28170
20
60325
30
0
11
27930
21
60325
31
0
0
LINE
5
28E
330
10E
100
AcDbEntity
8
ST-RB-T1
100
AcDbLine
10
28170
20
62855
30
0
11
27930
21
62855
31
0
0
CIRCLE
5
28F
330
10E
100
AcDbEntity
8
ST-CALLOUT
100
AcDbCircle
10
29550
20
62800
30
0
40
600
0
TEXT
5
290
330
10E
100
AcDbEntity
8
ST-CALLOUT
100
AcDbText
10
29550
20
62800
30
0
40
320
1
TC2
7
STANDARD
72
1
11
29550
21
62800
31
0
100
AcDbText
73
2
0
LINE
5
291
330
10E
100
AcDbEntity
8
ST-CALLOUT
100
AcDbLine
10
29125.735931
20
62375.735931
30
0
11
28350
21
61600
31
0
0
LINE
5
292
330
10E
100
AcDbEntity
8
ST-RB-T1
100
AcDbLine
10
35550
20
60325
30
0
11
35550
21
62855
31
0
0
LINE
5
293
330
10E
100
AcDbEntity
8
ST-RB-T1
100
AcDbLine
10
35550
20
60325
30
0
11
35800
21
60325
31
0
0
TEXT
5
294
330
10E
100
AcDbEntity
8
ST-RB-TEXT
100
AcDbText
10
35440
20
61590
30
0
40
420
1
9T16@150-T1-01-(L=2730)
50
90
7
ST-REBAR
72
1
11
35440
21
61590
31
0
100
AcDbText
73
0
0
TEXT
5
295
330
10E
100
AcDbEntity
8
ST-RB-TEXT
100
AcDbText
10
35990
20
61590
30
0
40
340
1
2530
50
90
7
ST-REBAR
72
1
11
35990
21
61590
31
0
100
AcDbText
73
0
0
TEXT
5
296
330
10E
100
AcDbEntity
8
ST-RB-TEXT
100
AcDbText
10
35440
20
60245
30
0
40
300
1
200
50
90
7
ST-REBAR
72
2
11
35440
21
60245
31
0
100
AcDbText
73
0
0
LINE
5
297
330
10E
100
AcDbEntity
8
ST-RB-T1
100
AcDbLine
10
35670
20
60325
30
0
11
35430
21
60325
31
0
0
LINE
5
298
330
10E
100
AcDbEntity
8
ST-RB-T1
100
AcDbLine
10
35670
20
62855
30
0
11
35430
21
62855
31
0
0
CIRCLE
5
299
330
10E
100
AcDbEntity
8
ST-CALLOUT
100
AcDbCircle
10
37050
20
62800
30
0
40
600
0
TEXT
5
29A
330
10E
100
AcDbEntity
8
ST-CALLOUT
100
AcDbText
10
37050
20
62800
30
0
40
320
1
TC2
7
STANDARD
72
1
11
37050
21
62800
31
0
100
AcDbText
73
2
0
LINE
5
29B
330
10E
100
AcDbEntity
8
ST-CALLOUT
100
AcDbLine
10
36625.735931
20
62375.735931
30
0
11
35850
21
61600
31
0
0
LINE
5
29C
330
10E
100
AcDbEntity
8
ST-RB-T1
100
AcDbLine
10
43050
20
60325
30
0
11
43050
21
62855
31
0
0
LINE
5
29D
330
10E
100
AcDbEntity
8
ST-RB-T1
100
AcDbLine
10
43050
20
60325
30
0
11
43300
21
60325
31
0
0
TEXT
5
29E
330
10E
100
AcDbEntity
8
ST-RB-TEXT
100
AcDbText
10
42940
20
61590
30
0
40
420
1
9T16@150-T1-01-(L=2730)
50
90
7
ST-REBAR
72
1
11
42940
21
61590
31
0
100
AcDbText
73
0
0
TEXT
5
29F
330
10E
100
AcDbEntity
8
ST-RB-TEXT
100
AcDbText
10
43490
20
61590
30
0
40
340
1
2530
50
90
7
ST-REBAR
72
1
11
43490
21
61590
31
0
100
AcDbText
73
0
0
TEXT
5
2A0
330
10E
100
AcDbEntity
8
ST-RB-TEXT
100
AcDbText
10
42940
20
60245
30
0
40
300
1
200
50
90
7
ST-REBAR
72
2
11
42940
21
60245
31
0
100
AcDbText
73
0
0
LINE
5
2A1
330
10E
100
AcDbEntity
8
ST-RB-T1
100
AcDbLine
10
43170
20
60325
30
0
11
42930
21
60325
31
0
0
LINE
5
2A2
330
10E
100
AcDbEntity
8
ST-RB-T1
100
AcDbLine
10
43170
20
62855
30
0
11
42930
21
62855
31
0
0
CIRCLE
5
2A3
330
10E
100
AcDbEntity
8
ST-CALLOUT
100
AcDbCircle
10
44550
20
62800
30
0
40
600
0
TEXT
5
2A4
330
10E
100
AcDbEntity
8
ST-CALLOUT
100
AcDbText
10
44550
20
62800
30
0
40
320
1
TC2
7
STANDARD
72
1
11
44550
21
62800
31
0
100
AcDbText
73
2
0
LINE
5
2A5
330
10E
100
AcDbEntity
8
ST-CALLOUT
100
AcDbLine
10
44125.735931
20
62375.735931
30
0
11
43350
21
61600
31
0
0
LINE
5
2A6
330
10E
100
AcDbEntity
8
ST-RB-T1
100
AcDbLine
10
50550
20
60325
30
0
11
50550
21
62855
31
0
0
LINE
5
2A7
330
10E
100
AcDbEntity
8
ST-RB-T1
100
AcDbLine
10
50550
20
60325
30
0
11
50800
21
60325
31
0
0
TEXT
5
2A8
330
10E
100
AcDbEntity
8
ST-RB-TEXT
100
AcDbText
10
50440
20
61590
30
0
40
420
1
9T16@150-T1-01-(L=2730)
50
90
7
ST-REBAR
72
1
11
50440
21
61590
31
0
100
AcDbText
73
0
0
TEXT
5
2A9
330
10E
100
AcDbEntity
8
ST-RB-TEXT
100
AcDbText
10
50990
20
61590
30
0
40
340
1
2530
50
90
7
ST-REBAR
72
1
11
50990
21
61590
31
0
100
AcDbText
73
0
0
TEXT
5
2AA
330
10E
100
AcDbEntity
8
ST-RB-TEXT
100
AcDbText
10
50440
20
60245
30
0
40
300
1
200
50
90
7
ST-REBAR
72
2
11
50440
21
60245
31
0
100
AcDbText
73
0
0
LINE
5
2AB
330
10E
100
AcDbEntity
8
ST-RB-T1
100
AcDbLine
10
50670
20
60325
30
0
11
50430
21
60325
31
0
0
LINE
5
2AC
330
10E
100
AcDbEntity
8
ST-RB-T1
100
AcDbLine
10
50670
20
62855
30
0
11
50430
21
62855
31
0
0
CIRCLE
5
2AD
330
10E
100
AcDbEntity
8
ST-CALLOUT
100
AcDbCircle
10
52050
20
62800
30
0
40
600
0
TEXT
5
2AE
330
10E
100
AcDbEntity
8
ST-CALLOUT
100
AcDbText
10
52050
20
62800
30
0
40
320
1
TC3
7
STANDARD
72
1
11
52050
21
62800
31
0
100
AcDbText
73
2
0
LINE
5
2AF
330
10E
100
AcDbEntity
8
ST-CALLOUT
100
AcDbLine
10
51625.735931
20
62375.735931
30
0
11
50850
21
61600
31
0
0
LINE
5
2B0
330
10E
100
AcDbEntity
8
ST-GRID
100
AcDbLine
10
83150
20
57300
30
0
11
83150
21
89300
31
0
0
CIRCLE
5
2B1
330
10E
100
AcDbEntity
8
ST-GRID-BUBBLE
100
AcDbCircle
10
83150
20
90100
30
0
40
800
0
TEXT
5
2B2
330
10E
100
AcDbEntity
8
ST-TEXT
100
AcDbText
10
83150
20
90100
30
0
40
600
1
A
7
STANDARD
72
1
11
83150
21
90100
31
0
100
AcDbText
73
2
0
CIRCLE
5
2B3
330
10E
100
AcDbEntity
8
ST-GRID-BUBBLE
100
AcDbCircle
10
83150
20
56500
30
0
40
800
0
TEXT
5
2B4
330
10E
100
AcDbEntity
8
ST-TEXT
100
AcDbText
10
83150
20
56500
30
0
40
600
1
A
7
STANDARD
72
1
11
83150
21
56500
31
0
100
AcDbText
73
2
0
LINE
5
2B5
330
10E
100
AcDbEntity
8
ST-GRID
100
AcDbLine
10
90650
20
57300
30
0
11
90650
21
89300
31
0
0
CIRCLE
5
2B6
330
10E
100
AcDbEntity
8
ST-GRID-BUBBLE
100
AcDbCircle
10
90650
20
90100
30
0
40
800
0
TEXT
5
2B7
330
10E
100
AcDbEntity
8
ST-TEXT
100
AcDbText
10
90650
20
90100
30
0
40
600
1
B
7
STANDARD
72
1
11
90650
21
90100
31
0
100
AcDbText
73
2
0
CIRCLE
5
2B8
330
10E
100
AcDbEntity
8
ST-GRID-BUBBLE
100
AcDbCircle
10
90650
20
56500
30
0
40
800
0
TEXT
5
2B9
330
10E
100
AcDbEntity
8
ST-TEXT
100
AcDbText
10
90650
20
56500
30
0
40
600
1
B
7
STANDARD
72
1
11
90650
21
56500
31
0
100
AcDbText
73
2
0
LINE
5
2BA
330
10E
100
AcDbEntity
8
ST-GRID
100
AcDbLine
10
98150
20
57300
30
0
11
98150
21
89300
31
0
0
CIRCLE
5
2BB
330
10E
100
AcDbEntity
8
ST-GRID-BUBBLE
100
AcDbCircle
10
98150
20
90100
30
0
40
800
0
TEXT
5
2BC
330
10E
100
AcDbEntity
8
ST-TEXT
100
AcDbText
10
98150
20
90100
30
0
40
600
1
C
7
STANDARD
72
1
11
98150
21
90100
31
0
100
AcDbText
73
2
0
CIRCLE
5
2BD
330
10E
100
AcDbEntity
8
ST-GRID-BUBBLE
100
AcDbCircle
10
98150
20
56500
30
0
40
800
0
TEXT
5
2BE
330
10E
100
AcDbEntity
8
ST-TEXT
100
AcDbText
10
98150
20
56500
30
0
40
600
1
C
7
STANDARD
72
1
11
98150
21
56500
31
0
100
AcDbText
73
2
0
LINE
5
2BF
330
10E
100
AcDbEntity
8
ST-GRID
100
AcDbLine
10
105650
20
57300
30
0
11
105650
21
89300
31
0
0
CIRCLE
5
2C0
330
10E
100
AcDbEntity
8
ST-GRID-BUBBLE
100
AcDbCircle
10
105650
20
90100
30
0
40
800
0
TEXT
5
2C1
330
10E
100
AcDbEntity
8
ST-TEXT
100
AcDbText
10
105650
20
90100
30
0
40
600
1
D
7
STANDARD
72
1
11
105650
21
90100
31
0
100
AcDbText
73
2
0
CIRCLE
5
2C2
330
10E
100
AcDbEntity
8
ST-GRID-BUBBLE
100
AcDbCircle
10
105650
20
56500
30
0
40
800
0
TEXT
5
2C3
330
10E
100
AcDbEntity
8
ST-TEXT
100
AcDbText
10
105650
20
56500
30
0
40
600
1
D
7
STANDARD
72
1
11
105650
21
56500
31
0
100
AcDbText
73
2
0
LINE
5
2C4
330
10E
100
AcDbEntity
8
ST-GRID
100
AcDbLine
10
113150
20
57300
30
0
11
113150
21
89300
31
0
0
CIRCLE
5
2C5
330
10E
100
AcDbEntity
8
ST-GRID-BUBBLE
100
AcDbCircle
10
113150
20
90100
30
0
40
800
0
TEXT
5
2C6
330
10E
100
AcDbEntity
8
ST-TEXT
100
AcDbText
10
113150
20
90100
30
0
40
600
1
E
7
STANDARD
72
1
11
113150
21
90100
31
0
100
AcDbText
73
2
0
CIRCLE
5
2C7
330
10E
100
AcDbEntity
8
ST-GRID-BUBBLE
100
AcDbCircle
10
113150
20
56500
30
0
40
800
0
TEXT
5
2C8
330
10E
100
AcDbEntity
8
ST-TEXT
100
AcDbText
10
113150
20
56500
30
0
40
600
1
E
7
STANDARD
72
1
11
113150
21
56500
31
0
100
AcDbText
73
2
0
LINE
5
2C9
330
10E
100
AcDbEntity
8
ST-GRID
100
AcDbLine
10
78650
20
61300
30
0
11
117150
21
61300
31
0
0
CIRCLE
5
2CA
330
10E
100
AcDbEntity
8
ST-GRID-BUBBLE
100
AcDbCircle
10
77850
20
61300
30
0
40
800
0
TEXT
5
2CB
330
10E
100
AcDbEntity
8
ST-TEXT
100
AcDbText
10
77850
20
61300
30
0
40
600
1
1
7
STANDARD
72
1
11
77850
21
61300
31
0
100
AcDbText
73
2
0
CIRCLE
5
2CC
330
10E
100
AcDbEntity
8
ST-GRID-BUBBLE
100
AcDbCircle
10
117950
20
61300
30
0
40
800
0
TEXT
5
2CD
330
10E
100
AcDbEntity
8
ST-TEXT
100
AcDbText
10
117950
20
61300
30
0
40
600
1
1
7
STANDARD
72
1
11
117950
21
61300
31
0
100
AcDbText
73
2
0
LINE
5
2CE
330
10E
100
AcDbEntity
8
ST-GRID
100
AcDbLine
10
78650
20
69300
30
0
11
117150
21
69300
31
0
0
CIRCLE
5
2CF
330
10E
100
AcDbEntity
8
ST-GRID-BUBBLE
100
AcDbCircle
10
77850
20
69300
30
0
40
800
0
TEXT
5
2D0
330
10E
100
AcDbEntity
8
ST-TEXT
100
AcDbText
10
77850
20
69300
30
0
40
600
1
2
7
STANDARD
72
1
11
77850
21
69300
31
0
100
AcDbText
73
2
0
CIRCLE
5
2D1
330
10E
100
AcDbEntity
8
ST-GRID-BUBBLE
100
AcDbCircle
10
117950
20
69300
30
0
40
800
0
TEXT
5
2D2
330
10E
100
AcDbEntity
8
ST-TEXT
100
AcDbText
10
117950
20
69300
30
0
40
600
1
2
7
STANDARD
72
1
11
117950
21
69300
31
0
100
AcDbText
73
2
0
LINE
5
2D3
330
10E
100
AcDbEntity
8
ST-GRID
100
AcDbLine
10
78650
20
77300
30
0
11
117150
21
77300
31
0
0
CIRCLE
5
2D4
330
10E
100
AcDbEntity
8
ST-GRID-BUBBLE
100
AcDbCircle
10
77850
20
77300
30
0
40
800
0
TEXT
5
2D5
330
10E
100
AcDbEntity
8
ST-TEXT
100
AcDbText
10
77850
20
77300
30
0
40
600
1
3
7
STANDARD
72
1
11
77850
21
77300
31
0
100
AcDbText
73
2
0
CIRCLE
5
2D6
330
10E
100
AcDbEntity
8
ST-GRID-BUBBLE
100
AcDbCircle
10
117950
20
77300
30
0
40
800
0
TEXT
5
2D7
330
10E
100
AcDbEntity
8
ST-TEXT
100
AcDbText
10
117950
20
77300
30
0
40
600
1
3
7
STANDARD
72
1
11
117950
21
77300
31
0
100
AcDbText
73
2
0
LINE
5
2D8
330
10E
100
AcDbEntity
8
ST-GRID
100
AcDbLine
10
78650
20
85300
30
0
11
117150
21
85300
31
0
0
CIRCLE
5
2D9
330
10E
100
AcDbEntity
8
ST-GRID-BUBBLE
100
AcDbCircle
10
77850
20
85300
30
0
40
800
0
TEXT
5
2DA
330
10E
100
AcDbEntity
8
ST-TEXT
100
AcDbText
10
77850
20
85300
30
0
40
600
1
4
7
STANDARD
72
1
11
77850
21
85300
31
0
100
AcDbText
73
2
0
CIRCLE
5
2DB
330
10E
100
AcDbEntity
8
ST-GRID-BUBBLE
100
AcDbCircle
10
117950
20
85300
30
0
40
800
0
TEXT
5
2DC
330
10E
100
AcDbEntity
8
ST-TEXT
100
AcDbText
10
117950
20
85300
30
0
40
600
1
4
7
STANDARD
72
1
11
117950
21
85300
31
0
100
AcDbText
73
2
0
LWPOLYLINE
5
2DD
330
10E
100
AcDbEntity
8
ST-SLAB-EDGE
62
3
100
AcDbPolyline
90
4
70
1
43
0
10
81650
20
60300
10
114150
20
60300
10
114150
20
86300
10
81650
20
86300
0
LWPOLYLINE
5
2DE
330
10E
100
AcDbEntity
8
ST-PT-ZONE
100
AcDbPolyline
90
4
70
1
43
0
10
81650
20
60300
10
114150
20
60300
10
114150
20
86300
10
81650
20
86300
0
TEXT
5
2DF
330
10E
100
AcDbEntity
8
ST-PT-ZONE
100
AcDbText
10
82250
20
85400
30
0
40
440
1
PT1 - PT SLAB ZONE
7
STANDARD
72
0
100
AcDbText
73
0
0
LWPOLYLINE
5
2E0
330
10E
100
AcDbEntity
8
ST-COL
100
AcDbPolyline
90
4
70
1
43
0
10
82850
20
85000
10
83450
20
85000
10
83450
20
85600
10
82850
20
85600
0
HATCH
5
2E1
330
10E
100
AcDbEntity
8
ST-COL-HATCH
62
7
100
AcDbHatch
10
0
20
0
30
0
210
0
220
0
230
1
2
SOLID
70
1
71
0
91
1
92
3
72
0
73
1
93
4
10
82850
20
85000
10
83450
20
85000
10
83450
20
85600
10
82850
20
85600
97
0
75
1
76
1
47
1
98
0
0
LWPOLYLINE
5
2E2
330
10E
100
AcDbEntity
8
ST-COL
100
AcDbPolyline
90
4
70
1
43
0
10
90350
20
85000
10
90950
20
85000
10
90950
20
85600
10
90350
20
85600
0
HATCH
5
2E3
330
10E
100
AcDbEntity
8
ST-COL-HATCH
62
7
100
AcDbHatch
10
0
20
0
30
0
210
0
220
0
230
1
2
SOLID
70
1
71
0
91
1
92
3
72
0
73
1
93
4
10
90350
20
85000
10
90950
20
85000
10
90950
20
85600
10
90350
20
85600
97
0
75
1
76
1
47
1
98
0
0
LWPOLYLINE
5
2E4
330
10E
100
AcDbEntity
8
ST-COL
100
AcDbPolyline
90
4
70
1
43
0
10
97850
20
85000
10
98450
20
85000
10
98450
20
85600
10
97850
20
85600
0
HATCH
5
2E5
330
10E
100
AcDbEntity
8
ST-COL-HATCH
62
7
100
AcDbHatch
10
0
20
0
30
0
210
0
220
0
230
1
2
SOLID
70
1
71
0
91
1
92
3
72
0
73
1
93
4
10
97850
20
85000
10
98450
20
85000
10
98450
20
85600
10
97850
20
85600
97
0
75
1
76
1
47
1
98
0
0
LWPOLYLINE
5
2E6
330
10E
100
AcDbEntity
8
ST-COL
100
AcDbPolyline
90
4
70
1
43
0
10
105350
20
85000
10
105950
20
85000
10
105950
20
85600
10
105350
20
85600
0
HATCH
5
2E7
330
10E
100
AcDbEntity
8
ST-COL-HATCH
62
7
100
AcDbHatch
10
0
20
0
30
0
210
0
220
0
230
1
2
SOLID
70
1
71
0
91
1
92
3
72
0
73
1
93
4
10
105350
20
85000
10
105950
20
85000
10
105950
20
85600
10
105350
20
85600
97
0
75
1
76
1
47
1
98
0
0
LWPOLYLINE
5
2E8
330
10E
100
AcDbEntity
8
ST-COL
100
AcDbPolyline
90
4
70
1
43
0
10
112850
20
85000
10
113450
20
85000
10
113450
20
85600
10
112850
20
85600
0
HATCH
5
2E9
330
10E
100
AcDbEntity
8
ST-COL-HATCH
62
7
100
AcDbHatch
10
0
20
0
30
0
210
0
220
0
230
1
2
SOLID
70
1
71
0
91
1
92
3
72
0
73
1
93
4
10
112850
20
85000
10
113450
20
85000
10
113450
20
85600
10
112850
20
85600
97
0
75
1
76
1
47
1
98
0
0
LWPOLYLINE
5
2EA
330
10E
100
AcDbEntity
8
ST-COL
100
AcDbPolyline
90
4
70
1
43
0
10
82850
20
77000
10
83450
20
77000
10
83450
20
77600
10
82850
20
77600
0
HATCH
5
2EB
330
10E
100
AcDbEntity
8
ST-COL-HATCH
62
7
100
AcDbHatch
10
0
20
0
30
0
210
0
220
0
230
1
2
SOLID
70
1
71
0
91
1
92
3
72
0
73
1
93
4
10
82850
20
77000
10
83450
20
77000
10
83450
20
77600
10
82850
20
77600
97
0
75
1
76
1
47
1
98
0
0
LWPOLYLINE
5
2EC
330
10E
100
AcDbEntity
8
ST-COL
100
AcDbPolyline
90
4
70
1
43
0
10
90350
20
77000
10
90950
20
77000
10
90950
20
77600
10
90350
20
77600
0
HATCH
5
2ED
330
10E
100
AcDbEntity
8
ST-COL-HATCH
62
7
100
AcDbHatch
10
0
20
0
30
0
210
0
220
0
230
1
2
SOLID
70
1
71
0
91
1
92
3
72
0
73
1
93
4
10
90350
20
77000
10
90950
20
77000
10
90950
20
77600
10
90350
20
77600
97
0
75
1
76
1
47
1
98
0
0
LWPOLYLINE
5
2EE
330
10E
100
AcDbEntity
8
ST-COL
100
AcDbPolyline
90
4
70
1
43
0
10
97850
20
77000
10
98450
20
77000
10
98450
20
77600
10
97850
20
77600
0
HATCH
5
2EF
330
10E
100
AcDbEntity
8
ST-COL-HATCH
62
7
100
AcDbHatch
10
0
20
0
30
0
210
0
220
0
230
1
2
SOLID
70
1
71
0
91
1
92
3
72
0
73
1
93
4
10
97850
20
77000
10
98450
20
77000
10
98450
20
77600
10
97850
20
77600
97
0
75
1
76
1
47
1
98
0
0
LWPOLYLINE
5
2F0
330
10E
100
AcDbEntity
8
ST-COL
100
AcDbPolyline
90
4
70
1
43
0
10
105350
20
77000
10
105950
20
77000
10
105950
20
77600
10
105350
20
77600
0
HATCH
5
2F1
330
10E
100
AcDbEntity
8
ST-COL-HATCH
62
7
100
AcDbHatch
10
0
20
0
30
0
210
0
220
0
230
1
2
SOLID
70
1
71
0
91
1
92
3
72
0
73
1
93
4
10
105350
20
77000
10
105950
20
77000
10
105950
20
77600
10
105350
20
77600
97
0
75
1
76
1
47
1
98
0
0
LWPOLYLINE
5
2F2
330
10E
100
AcDbEntity
8
ST-COL
100
AcDbPolyline
90
4
70
1
43
0
10
112850
20
77000
10
113450
20
77000
10
113450
20
77600
10
112850
20
77600
0
HATCH
5
2F3
330
10E
100
AcDbEntity
8
ST-COL-HATCH
62
7
100
AcDbHatch
10
0
20
0
30
0
210
0
220
0
230
1
2
SOLID
70
1
71
0
91
1
92
3
72
0
73
1
93
4
10
112850
20
77000
10
113450
20
77000
10
113450
20
77600
10
112850
20
77600
97
0
75
1
76
1
47
1
98
0
0
LWPOLYLINE
5
2F4
330
10E
100
AcDbEntity
8
ST-COL
100
AcDbPolyline
90
4
70
1
43
0
10
82850
20
69000
10
83450
20
69000
10
83450
20
69600
10
82850
20
69600
0
HATCH
5
2F5
330
10E
100
AcDbEntity
8
ST-COL-HATCH
62
7
100
AcDbHatch
10
0
20
0
30
0
210
0
220
0
230
1
2
SOLID
70
1
71
0
91
1
92
3
72
0
73
1
93
4
10
82850
20
69000
10
83450
20
69000
10
83450
20
69600
10
82850
20
69600
97
0
75
1
76
1
47
1
98
0
0
LWPOLYLINE
5
2F6
330
10E
100
AcDbEntity
8
ST-COL
100
AcDbPolyline
90
4
70
1
43
0
10
90350
20
69000
10
90950
20
69000
10
90950
20
69600
10
90350
20
69600
0
HATCH
5
2F7
330
10E
100
AcDbEntity
8
ST-COL-HATCH
62
7
100
AcDbHatch
10
0
20
0
30
0
210
0
220
0
230
1
2
SOLID
70
1
71
0
91
1
92
3
72
0
73
1
93
4
10
90350
20
69000
10
90950
20
69000
10
90950
20
69600
10
90350
20
69600
97
0
75
1
76
1
47
1
98
0
0
LWPOLYLINE
5
2F8
330
10E
100
AcDbEntity
8
ST-COL
100
AcDbPolyline
90
4
70
1
43
0
10
97850
20
69000
10
98450
20
69000
10
98450
20
69600
10
97850
20
69600
0
HATCH
5
2F9
330
10E
100
AcDbEntity
8
ST-COL-HATCH
62
7
100
AcDbHatch
10
0
20
0
30
0
210
0
220
0
230
1
2
SOLID
70
1
71
0
91
1
92
3
72
0
73
1
93
4
10
97850
20
69000
10
98450
20
69000
10
98450
20
69600
10
97850
20
69600
97
0
75
1
76
1
47
1
98
0
0
LWPOLYLINE
5
2FA
330
10E
100
AcDbEntity
8
ST-COL
100
AcDbPolyline
90
4
70
1
43
0
10
105350
20
69000
10
105950
20
69000
10
105950
20
69600
10
105350
20
69600
0
HATCH
5
2FB
330
10E
100
AcDbEntity
8
ST-COL-HATCH
62
7
100
AcDbHatch
10
0
20
0
30
0
210
0
220
0
230
1
2
SOLID
70
1
71
0
91
1
92
3
72
0
73
1
93
4
10
105350
20
69000
10
105950
20
69000
10
105950
20
69600
10
105350
20
69600
97
0
75
1
76
1
47
1
98
0
0
LWPOLYLINE
5
2FC
330
10E
100
AcDbEntity
8
ST-COL
100
AcDbPolyline
90
4
70
1
43
0
10
112850
20
69000
10
113450
20
69000
10
113450
20
69600
10
112850
20
69600
0
HATCH
5
2FD
330
10E
100
AcDbEntity
8
ST-COL-HATCH
62
7
100
AcDbHatch
10
0
20
0
30
0
210
0
220
0
230
1
2
SOLID
70
1
71
0
91
1
92
3
72
0
73
1
93
4
10
112850
20
69000
10
113450
20
69000
10
113450
20
69600
10
112850
20
69600
97
0
75
1
76
1
47
1
98
0
0
LWPOLYLINE
5
2FE
330
10E
100
AcDbEntity
8
ST-COL
100
AcDbPolyline
90
4
70
1
43
0
10
82850
20
61000
10
83450
20
61000
10
83450
20
61600
10
82850
20
61600
0
HATCH
5
2FF
330
10E
100
AcDbEntity
8
ST-COL-HATCH
62
7
100
AcDbHatch
10
0
20
0
30
0
210
0
220
0
230
1
2
SOLID
70
1
71
0
91
1
92
3
72
0
73
1
93
4
10
82850
20
61000
10
83450
20
61000
10
83450
20
61600
10
82850
20
61600
97
0
75
1
76
1
47
1
98
0
0
LWPOLYLINE
5
300
330
10E
100
AcDbEntity
8
ST-COL
100
AcDbPolyline
90
4
70
1
43
0
10
90350
20
61000
10
90950
20
61000
10
90950
20
61600
10
90350
20
61600
0
HATCH
5
301
330
10E
100
AcDbEntity
8
ST-COL-HATCH
62
7
100
AcDbHatch
10
0
20
0
30
0
210
0
220
0
230
1
2
SOLID
70
1
71
0
91
1
92
3
72
0
73
1
93
4
10
90350
20
61000
10
90950
20
61000
10
90950
20
61600
10
90350
20
61600
97
0
75
1
76
1
47
1
98
0
0
LWPOLYLINE
5
302
330
10E
100
AcDbEntity
8
ST-COL
100
AcDbPolyline
90
4
70
1
43
0
10
97850
20
61000
10
98450
20
61000
10
98450
20
61600
10
97850
20
61600
0
HATCH
5
303
330
10E
100
AcDbEntity
8
ST-COL-HATCH
62
7
100
AcDbHatch
10
0
20
0
30
0
210
0
220
0
230
1
2
SOLID
70
1
71
0
91
1
92
3
72
0
73
1
93
4
10
97850
20
61000
10
98450
20
61000
10
98450
20
61600
10
97850
20
61600
97
0
75
1
76
1
47
1
98
0
0
LWPOLYLINE
5
304
330
10E
100
AcDbEntity
8
ST-COL
100
AcDbPolyline
90
4
70
1
43
0
10
105350
20
61000
10
105950
20
61000
10
105950
20
61600
10
105350
20
61600
0
HATCH
5
305
330
10E
100
AcDbEntity
8
ST-COL-HATCH
62
7
100
AcDbHatch
10
0
20
0
30
0
210
0
220
0
230
1
2
SOLID
70
1
71
0
91
1
92
3
72
0
73
1
93
4
10
105350
20
61000
10
105950
20
61000
10
105950
20
61600
10
105350
20
61600
97
0
75
1
76
1
47
1
98
0
0
LWPOLYLINE
5
306
330
10E
100
AcDbEntity
8
ST-COL
100
AcDbPolyline
90
4
70
1
43
0
10
112850
20
61000
10
113450
20
61000
10
113450
20
61600
10
112850
20
61600
0
HATCH
5
307
330
10E
100
AcDbEntity
8
ST-COL-HATCH
62
7
100
AcDbHatch
10
0
20
0
30
0
210
0
220
0
230
1
2
SOLID
70
1
71
0
91
1
92
3
72
0
73
1
93
4
10
112850
20
61000
10
113450
20
61000
10
113450
20
61600
10
112850
20
61600
97
0
75
1
76
1
47
1
98
0
0
LWPOLYLINE
5
308
330
10E
100
AcDbEntity
8
ST-OPENING
100
AcDbPolyline
90
4
70
1
43
0
10
92650
20
70800
10
95650
20
70800
10
95650
20
75800
10
92650
20
75800
0
LINE
5
309
330
10E
100
AcDbEntity
8
ST-OPENING
100
AcDbLine
10
92650
20
70800
30
0
11
95650
21
75800
31
0
0
LINE
5
30A
330
10E
100
AcDbEntity
8
ST-OPENING
100
AcDbLine
10
95650
20
70800
30
0
11
92650
21
75800
31
0
0
LWPOLYLINE
5
30B
330
10E
100
AcDbEntity
8
ST-OPENING
100
AcDbPolyline
90
4
70
1
43
0
10
107150
20
71300
10
109650
20
71300
10
109650
20
73800
10
107150
20
73800
0
LINE
5
30C
330
10E
100
AcDbEntity
8
ST-OPENING
100
AcDbLine
10
107150
20
71300
30
0
11
109650
21
73800
31
0
0
LINE
5
30D
330
10E
100
AcDbEntity
8
ST-OPENING
100
AcDbLine
10
109650
20
71300
30
0
11
107150
21
73800
31
0
0
LWPOLYLINE
5
30E
330
10E
100
AcDbEntity
8
ST-VOID
100
AcDbPolyline
90
4
70
1
43
0
10
85150
20
78300
10
89150
20
78300
10
89150
20
81300
10
85150
20
81300
0
HATCH
5
30F
330
10E
100
AcDbEntity
8
ST-VOID-HATCH
100
AcDbHatch
10
0
20
0
30
0
210
0
220
0
230
1
2
ANSI37
70
0
71
0
91
1
92
3
72
0
73
1
93
4
10
85150
20
78300
10
89150
20
78300
10
89150
20
81300
10
85150
20
81300
97
0
75
1
76
1
52
0
41
157.480315
77
0
78
2
53
45
43
0
44
0
45
-353.553391
46
353.553391
79
0
53
135
43
0
44
0
45
-353.553391
46
-353.553391
79
0
47
1
98
0
0
LINE
5
310
330
10E
100
AcDbEntity
8
ST-RB-T2
100
AcDbLine
10
81675
20
85300
30
0
11
84605
21
85300
31
0
0
LINE
5
311
330
10E
100
AcDbEntity
8
ST-RB-T2
100
AcDbLine
10
81675
20
85300
30
0
11
81675
21
85050
31
0
0
TEXT
5
312
330
10E
100
AcDbEntity
8
ST-RB-TEXT
100
AcDbText
10
83140
20
85410
30
0
40
420
1
9T16@150-T2-01-(L=3130)
7
ST-REBAR
72
1
11
83140
21
85410
31
0
100
AcDbText
73
0
0
TEXT
5
313
330
10E
100
AcDbEntity
8
ST-RB-TEXT
100
AcDbText
10
83140
20
84860
30
0
40
340
1
2930
7
ST-REBAR
72
1
11
83140
21
84860
31
0
100
AcDbText
73
0
0
TEXT
5
314
330
10E
100
AcDbEntity
8
ST-RB-TEXT
100
AcDbText
10
81595
20
85410
30
0
40
300
1
200
7
ST-REBAR
72
2
11
81595
21
85410
31
0
100
AcDbText
73
0
0
LINE
5
315
330
10E
100
AcDbEntity
8
ST-RB-T2
100
AcDbLine
10
81675
20
85180
30
0
11
81675
21
85420
31
0
0
LINE
5
316
330
10E
100
AcDbEntity
8
ST-RB-T2
100
AcDbLine
10
84605
20
85180
30
0
11
84605
21
85420
31
0
0
CIRCLE
5
317
330
10E
100
AcDbEntity
8
ST-CALLOUT
100
AcDbCircle
10
84650
20
86800
30
0
40
600
0
TEXT
5
318
330
10E
100
AcDbEntity
8
ST-CALLOUT
100
AcDbText
10
84650
20
86800
30
0
40
320
1
TC1
7
STANDARD
72
1
11
84650
21
86800
31
0
100
AcDbText
73
2
0
LINE
5
319
330
10E
100
AcDbEntity
8
ST-CALLOUT
100
AcDbLine
10
84225.735931
20
86375.735931
30
0
11
83450
21
85600
31
0
0
LINE
5
31A
330
10E
100
AcDbEntity
8
ST-RB-T2
100
AcDbLine
10
89200
20
85300
30
0
11
92100
21
85300
31
0
0
TEXT
5
31B
330
10E
100
AcDbEntity
8
ST-RB-TEXT
100
AcDbText
10
90650
20
85410
30
0
40
420
1
9T16@150-T2-03-(L=2900)
7
ST-REBAR
72
1
11
90650
21
85410
31
0
100
AcDbText
73
0
0
TEXT
5
31C
330
10E
100
AcDbEntity
8
ST-RB-TEXT
100
AcDbText
10
90650
20
84860
30
0
40
340
1
2900
7
ST-REBAR
72
1
11
90650
21
84860
31
0
100
AcDbText
73
0
0
LINE
5
31D
330
10E
100
AcDbEntity
8
ST-RB-T2
100
AcDbLine
10
89200
20
85180
30
0
11
89200
21
85420
31
0
0
LINE
5
31E
330
10E
100
AcDbEntity
8
ST-RB-T2
100
AcDbLine
10
92100
20
85180
30
0
11
92100
21
85420
31
0
0
CIRCLE
5
31F
330
10E
100
AcDbEntity
8
ST-CALLOUT
100
AcDbCircle
10
92150
20
86800
30
0
40
600
0
TEXT
5
320
330
10E
100
AcDbEntity
8
ST-CALLOUT
100
AcDbText
10
92150
20
86800
30
0
40
320
1
TC2
7
STANDARD
72
1
11
92150
21
86800
31
0
100
AcDbText
73
2
0
LINE
5
321
330
10E
100
AcDbEntity
8
ST-CALLOUT
100
AcDbLine
10
91725.735931
20
86375.735931
30
0
11
90950
21
85600
31
0
0
LINE
5
322
330
10E
100
AcDbEntity
8
ST-RB-T2
100
AcDbLine
10
96700
20
85300
30
0
11
99600
21
85300
31
0
0
TEXT
5
323
330
10E
100
AcDbEntity
8
ST-RB-TEXT
100
AcDbText
10
98150
20
85410
30
0
40
420
1
9T16@150-T2-03-(L=2900)
7
ST-REBAR
72
1
11
98150
21
85410
31
0
100
AcDbText
73
0
0
TEXT
5
324
330
10E
100
AcDbEntity
8
ST-RB-TEXT
100
AcDbText
10
98150
20
84860
30
0
40
340
1
2900
7
ST-REBAR
72
1
11
98150
21
84860
31
0
100
AcDbText
73
0
0
LINE
5
325
330
10E
100
AcDbEntity
8
ST-RB-T2
100
AcDbLine
10
96700
20
85180
30
0
11
96700
21
85420
31
0
0
LINE
5
326
330
10E
100
AcDbEntity
8
ST-RB-T2
100
AcDbLine
10
99600
20
85180
30
0
11
99600
21
85420
31
0
0
CIRCLE
5
327
330
10E
100
AcDbEntity
8
ST-CALLOUT
100
AcDbCircle
10
99650
20
86800
30
0
40
600
0
TEXT
5
328
330
10E
100
AcDbEntity
8
ST-CALLOUT
100
AcDbText
10
99650
20
86800
30
0
40
320
1
TC2
7
STANDARD
72
1
11
99650
21
86800
31
0
100
AcDbText
73
2
0
LINE
5
329
330
10E
100
AcDbEntity
8
ST-CALLOUT
100
AcDbLine
10
99225.735931
20
86375.735931
30
0
11
98450
21
85600
31
0
0
LINE
5
32A
330
10E
100
AcDbEntity
8
ST-RB-T2
100
AcDbLine
10
104200
20
85300
30
0
11
107100
21
85300
31
0
0
TEXT
5
32B
330
10E
100
AcDbEntity
8
ST-RB-TEXT
100
AcDbText
10
105650
20
85410
30
0
40
420
1
9T16@150-T2-03-(L=2900)
7
ST-REBAR
72
1
11
105650
21
85410
31
0
100
AcDbText
73
0
0
TEXT
5
32C
330
10E
100
AcDbEntity
8
ST-RB-TEXT
100
AcDbText
10
105650
20
84860
30
0
40
340
1
2900
7
ST-REBAR
72
1
11
105650
21
84860
31
0
100
AcDbText
73
0
0
LINE
5
32D
330
10E
100
AcDbEntity
8
ST-RB-T2
100
AcDbLine
10
104200
20
85180
30
0
11
104200
21
85420
31
0
0
LINE
5
32E
330
10E
100
AcDbEntity
8
ST-RB-T2
100
AcDbLine
10
107100
20
85180
30
0
11
107100
21
85420
31
0
0
CIRCLE
5
32F
330
10E
100
AcDbEntity
8
ST-CALLOUT
100
AcDbCircle
10
107150
20
86800
30
0
40
600
0
TEXT
5
330
330
10E
100
AcDbEntity
8
ST-CALLOUT
100
AcDbText
10
107150
20
86800
30
0
40
320
1
TC2
7
STANDARD
72
1
11
107150
21
86800
31
0
100
AcDbText
73
2
0
LINE
5
331
330
10E
100
AcDbEntity
8
ST-CALLOUT
100
AcDbLine
10
106725.735931
20
86375.735931
30
0
11
105950
21
85600
31
0
0
LINE
5
332
330
10E
100
AcDbEntity
8
ST-RB-T2
100
AcDbLine
10
111700
20
85300
30
0
11
114130
21
85300
31
0
0
LINE
5
333
330
10E
100
AcDbEntity
8
ST-RB-T2
100
AcDbLine
10
114130
20
85300
30
0
11
114130
21
85050
31
0
0
TEXT
5
334
330
10E
100
AcDbEntity
8
ST-RB-TEXT
100
AcDbText
10
112915
20
85410
30
0
40
420
1
9T16@150-T2-02-(L=2630)
7
ST-REBAR
72
1
11
112915
21
85410
31
0
100
AcDbText
73
0
0
TEXT
5
335
330
10E
100
AcDbEntity
8
ST-RB-TEXT
100
AcDbText
10
112915
20
84860
30
0
40
340
1
2430
7
ST-REBAR
72
1
11
112915
21
84860
31
0
100
AcDbText
73
0
0
TEXT
5
336
330
10E
100
AcDbEntity
8
ST-RB-TEXT
100
AcDbText
10
114210
20
85410
30
0
40
300
1
200
7
ST-REBAR
72
0
100
AcDbText
73
0
0
LINE
5
337
330
10E
100
AcDbEntity
8
ST-RB-T2
100
AcDbLine
10
111700
20
85180
30
0
11
111700
21
85420
31
0
0
LINE
5
338
330
10E
100
AcDbEntity
8
ST-RB-T2
100
AcDbLine
10
114130
20
85180
30
0
11
114130
21
85420
31
0
0
CIRCLE
5
339
330
10E
100
AcDbEntity
8
ST-CALLOUT
100
AcDbCircle
10
114650
20
86800
30
0
40
600
0
TEXT
5
33A
330
10E
100
AcDbEntity
8
ST-CALLOUT
100
AcDbText
10
114650
20
86800
30
0
40
320
1
TC3
7
STANDARD
72
1
11
114650
21
86800
31
0
100
AcDbText
73
2
0
LINE
5
33B
330
10E
100
AcDbEntity
8
ST-CALLOUT
100
AcDbLine
10
114225.735931
20
86375.735931
30
0
11
113450
21
85600
31
0
0
LINE
5
33C
330
10E
100
AcDbEntity
8
ST-RB-T2
100
AcDbLine
10
81675
20
77300
30
0
11
84605
21
77300
31
0
0
LINE
5
33D
330
10E
100
AcDbEntity
8
ST-RB-T2
100
AcDbLine
10
81675
20
77300
30
0
11
81675
21
77050
31
0
0
TEXT
5
33E
330
10E
100
AcDbEntity
8
ST-RB-TEXT
100
AcDbText
10
83140
20
77410
30
0
40
420
1
9T16@150-T2-01-(L=3130)
7
ST-REBAR
72
1
11
83140
21
77410
31
0
100
AcDbText
73
0
0
TEXT
5
33F
330
10E
100
AcDbEntity
8
ST-RB-TEXT
100
AcDbText
10
83140
20
76860
30
0
40
340
1
2930
7
ST-REBAR
72
1
11
83140
21
76860
31
0
100
AcDbText
73
0
0
TEXT
5
340
330
10E
100
AcDbEntity
8
ST-RB-TEXT
100
AcDbText
10
81595
20
77410
30
0
40
300
1
200
7
ST-REBAR
72
2
11
81595
21
77410
31
0
100
AcDbText
73
0
0
LINE
5
341
330
10E
100
AcDbEntity
8
ST-RB-T2
100
AcDbLine
10
81675
20
77180
30
0
11
81675
21
77420
31
0
0
LINE
5
342
330
10E
100
AcDbEntity
8
ST-RB-T2
100
AcDbLine
10
84605
20
77180
30
0
11
84605
21
77420
31
0
0
CIRCLE
5
343
330
10E
100
AcDbEntity
8
ST-CALLOUT
100
AcDbCircle
10
84650
20
78800
30
0
40
600
0
TEXT
5
344
330
10E
100
AcDbEntity
8
ST-CALLOUT
100
AcDbText
10
84650
20
78800
30
0
40
320
1
TC4
7
STANDARD
72
1
11
84650
21
78800
31
0
100
AcDbText
73
2
0
LINE
5
345
330
10E
100
AcDbEntity
8
ST-CALLOUT
100
AcDbLine
10
84225.735931
20
78375.735931
30
0
11
83450
21
77600
31
0
0
LINE
5
346
330
10E
100
AcDbEntity
8
ST-RB-T2
100
AcDbLine
10
89200
20
77300
30
0
11
92100
21
77300
31
0
0
TEXT
5
347
330
10E
100
AcDbEntity
8
ST-RB-TEXT
100
AcDbText
10
90650
20
77410
30
0
40
420
1
9T16@150-T2-03-(L=2900)
7
ST-REBAR
72
1
11
90650
21
77410
31
0
100
AcDbText
73
0
0
TEXT
5
348
330
10E
100
AcDbEntity
8
ST-RB-TEXT
100
AcDbText
10
90650
20
76860
30
0
40
340
1
2900
7
ST-REBAR
72
1
11
90650
21
76860
31
0
100
AcDbText
73
0
0
LINE
5
349
330
10E
100
AcDbEntity
8
ST-RB-T2
100
AcDbLine
10
89200
20
77180
30
0
11
89200
21
77420
31
0
0
LINE
5
34A
330
10E
100
AcDbEntity
8
ST-RB-T2
100
AcDbLine
10
92100
20
77180
30
0
11
92100
21
77420
31
0
0
CIRCLE
5
34B
330
10E
100
AcDbEntity
8
ST-CALLOUT
100
AcDbCircle
10
92150
20
78800
30
0
40
600
0
TEXT
5
34C
330
10E
100
AcDbEntity
8
ST-CALLOUT
100
AcDbText
10
92150
20
78800
30
0
40
320
1
TC5
7
STANDARD
72
1
11
92150
21
78800
31
0
100
AcDbText
73
2
0
LINE
5
34D
330
10E
100
AcDbEntity
8
ST-CALLOUT
100
AcDbLine
10
91725.735931
20
78375.735931
30
0
11
90950
21
77600
31
0
0
LINE
5
34E
330
10E
100
AcDbEntity
8
ST-RB-T2
100
AcDbLine
10
96700
20
77300
30
0
11
99600
21
77300
31
0
0
TEXT
5
34F
330
10E
100
AcDbEntity
8
ST-RB-TEXT
100
AcDbText
10
98150
20
77410
30
0
40
420
1
9T16@150-T2-03-(L=2900)
7
ST-REBAR
72
1
11
98150
21
77410
31
0
100
AcDbText
73
0
0
TEXT
5
350
330
10E
100
AcDbEntity
8
ST-RB-TEXT
100
AcDbText
10
98150
20
76860
30
0
40
340
1
2900
7
ST-REBAR
72
1
11
98150
21
76860
31
0
100
AcDbText
73
0
0
LINE
5
351
330
10E
100
AcDbEntity
8
ST-RB-T2
100
AcDbLine
10
96700
20
77180
30
0
11
96700
21
77420
31
0
0
LINE
5
352
330
10E
100
AcDbEntity
8
ST-RB-T2
100
AcDbLine
10
99600
20
77180
30
0
11
99600
21
77420
31
0
0
CIRCLE
5
353
330
10E
100
AcDbEntity
8
ST-CALLOUT
100
AcDbCircle
10
99650
20
78800
30
0
40
600
0
TEXT
5
354
330
10E
100
AcDbEntity
8
ST-CALLOUT
100
AcDbText
10
99650
20
78800
30
0
40
320
1
TC5
7
STANDARD
72
1
11
99650
21
78800
31
0
100
AcDbText
73
2
0
LINE
5
355
330
10E
100
AcDbEntity
8
ST-CALLOUT
100
AcDbLine
10
99225.735931
20
78375.735931
30
0
11
98450
21
77600
31
0
0
LINE
5
356
330
10E
100
AcDbEntity
8
ST-RB-T2
100
AcDbLine
10
104200
20
77300
30
0
11
107100
21
77300
31
0
0
TEXT
5
357
330
10E
100
AcDbEntity
8
ST-RB-TEXT
100
AcDbText
10
105650
20
77410
30
0
40
420
1
9T16@150-T2-03-(L=2900)
7
ST-REBAR
72
1
11
105650
21
77410
31
0
100
AcDbText
73
0
0
TEXT
5
358
330
10E
100
AcDbEntity
8
ST-RB-TEXT
100
AcDbText
10
105650
20
76860
30
0
40
340
1
2900
7
ST-REBAR
72
1
11
105650
21
76860
31
0
100
AcDbText
73
0
0
LINE
5
359
330
10E
100
AcDbEntity
8
ST-RB-T2
100
AcDbLine
10
104200
20
77180
30
0
11
104200
21
77420
31
0
0
LINE
5
35A
330
10E
100
AcDbEntity
8
ST-RB-T2
100
AcDbLine
10
107100
20
77180
30
0
11
107100
21
77420
31
0
0
CIRCLE
5
35B
330
10E
100
AcDbEntity
8
ST-CALLOUT
100
AcDbCircle
10
107150
20
78800
30
0
40
600
0
TEXT
5
35C
330
10E
100
AcDbEntity
8
ST-CALLOUT
100
AcDbText
10
107150
20
78800
30
0
40
320
1
TC5
7
STANDARD
72
1
11
107150
21
78800
31
0
100
AcDbText
73
2
0
LINE
5
35D
330
10E
100
AcDbEntity
8
ST-CALLOUT
100
AcDbLine
10
106725.735931
20
78375.735931
30
0
11
105950
21
77600
31
0
0
LINE
5
35E
330
10E
100
AcDbEntity
8
ST-RB-T2
100
AcDbLine
10
111700
20
77300
30
0
11
114130
21
77300
31
0
0
LINE
5
35F
330
10E
100
AcDbEntity
8
ST-RB-T2
100
AcDbLine
10
114130
20
77300
30
0
11
114130
21
77050
31
0
0
TEXT
5
360
330
10E
100
AcDbEntity
8
ST-RB-TEXT
100
AcDbText
10
112915
20
77410
30
0
40
420
1
9T16@150-T2-02-(L=2630)
7
ST-REBAR
72
1
11
112915
21
77410
31
0
100
AcDbText
73
0
0
TEXT
5
361
330
10E
100
AcDbEntity
8
ST-RB-TEXT
100
AcDbText
10
112915
20
76860
30
0
40
340
1
2430
7
ST-REBAR
72
1
11
112915
21
76860
31
0
100
AcDbText
73
0
0
TEXT
5
362
330
10E
100
AcDbEntity
8
ST-RB-TEXT
100
AcDbText
10
114210
20
77410
30
0
40
300
1
200
7
ST-REBAR
72
0
100
AcDbText
73
0
0
LINE
5
363
330
10E
100
AcDbEntity
8
ST-RB-T2
100
AcDbLine
10
111700
20
77180
30
0
11
111700
21
77420
31
0
0
LINE
5
364
330
10E
100
AcDbEntity
8
ST-RB-T2
100
AcDbLine
10
114130
20
77180
30
0
11
114130
21
77420
31
0
0
CIRCLE
5
365
330
10E
100
AcDbEntity
8
ST-CALLOUT
100
AcDbCircle
10
114650
20
78800
30
0
40
600
0
TEXT
5
366
330
10E
100
AcDbEntity
8
ST-CALLOUT
100
AcDbText
10
114650
20
78800
30
0
40
320
1
TC6
7
STANDARD
72
1
11
114650
21
78800
31
0
100
AcDbText
73
2
0
LINE
5
367
330
10E
100
AcDbEntity
8
ST-CALLOUT
100
AcDbLine
10
114225.735931
20
78375.735931
30
0
11
113450
21
77600
31
0
0
LINE
5
368
330
10E
100
AcDbEntity
8
ST-RB-T2
100
AcDbLine
10
81675
20
69300
30
0
11
84605
21
69300
31
0
0
LINE
5
369
330
10E
100
AcDbEntity
8
ST-RB-T2
100
AcDbLine
10
81675
20
69300
30
0
11
81675
21
69050
31
0
0
TEXT
5
36A
330
10E
100
AcDbEntity
8
ST-RB-TEXT
100
AcDbText
10
83140
20
69410
30
0
40
420
1
9T16@150-T2-01-(L=3130)
7
ST-REBAR
72
1
11
83140
21
69410
31
0
100
AcDbText
73
0
0
TEXT
5
36B
330
10E
100
AcDbEntity
8
ST-RB-TEXT
100
AcDbText
10
83140
20
68860
30
0
40
340
1
2930
7
ST-REBAR
72
1
11
83140
21
68860
31
0
100
AcDbText
73
0
0
TEXT
5
36C
330
10E
100
AcDbEntity
8
ST-RB-TEXT
100
AcDbText
10
81595
20
69410
30
0
40
300
1
200
7
ST-REBAR
72
2
11
81595
21
69410
31
0
100
AcDbText
73
0
0
LINE
5
36D
330
10E
100
AcDbEntity
8
ST-RB-T2
100
AcDbLine
10
81675
20
69180
30
0
11
81675
21
69420
31
0
0
LINE
5
36E
330
10E
100
AcDbEntity
8
ST-RB-T2
100
AcDbLine
10
84605
20
69180
30
0
11
84605
21
69420
31
0
0
CIRCLE
5
36F
330
10E
100
AcDbEntity
8
ST-CALLOUT
100
AcDbCircle
10
84650
20
70800
30
0
40
600
0
TEXT
5
370
330
10E
100
AcDbEntity
8
ST-CALLOUT
100
AcDbText
10
84650
20
70800
30
0
40
320
1
TC4
7
STANDARD
72
1
11
84650
21
70800
31
0
100
AcDbText
73
2
0
LINE
5
371
330
10E
100
AcDbEntity
8
ST-CALLOUT
100
AcDbLine
10
84225.735931
20
70375.735931
30
0
11
83450
21
69600
31
0
0
LINE
5
372
330
10E
100
AcDbEntity
8
ST-RB-T2
100
AcDbLine
10
89200
20
69300
30
0
11
92100
21
69300
31
0
0
TEXT
5
373
330
10E
100
AcDbEntity
8
ST-RB-TEXT
100
AcDbText
10
90650
20
69410
30
0
40
420
1
9T16@150-T2-03-(L=2900)
7
ST-REBAR
72
1
11
90650
21
69410
31
0
100
AcDbText
73
0
0
TEXT
5
374
330
10E
100
AcDbEntity
8
ST-RB-TEXT
100
AcDbText
10
90650
20
68860
30
0
40
340
1
2900
7
ST-REBAR
72
1
11
90650
21
68860
31
0
100
AcDbText
73
0
0
LINE
5
375
330
10E
100
AcDbEntity
8
ST-RB-T2
100
AcDbLine
10
89200
20
69180
30
0
11
89200
21
69420
31
0
0
LINE
5
376
330
10E
100
AcDbEntity
8
ST-RB-T2
100
AcDbLine
10
92100
20
69180
30
0
11
92100
21
69420
31
0
0
CIRCLE
5
377
330
10E
100
AcDbEntity
8
ST-CALLOUT
100
AcDbCircle
10
92150
20
70800
30
0
40
600
0
TEXT
5
378
330
10E
100
AcDbEntity
8
ST-CALLOUT
100
AcDbText
10
92150
20
70800
30
0
40
320
1
TC5
7
STANDARD
72
1
11
92150
21
70800
31
0
100
AcDbText
73
2
0
LINE
5
379
330
10E
100
AcDbEntity
8
ST-CALLOUT
100
AcDbLine
10
91725.735931
20
70375.735931
30
0
11
90950
21
69600
31
0
0
LINE
5
37A
330
10E
100
AcDbEntity
8
ST-RB-T2
100
AcDbLine
10
96700
20
69300
30
0
11
99600
21
69300
31
0
0
TEXT
5
37B
330
10E
100
AcDbEntity
8
ST-RB-TEXT
100
AcDbText
10
98150
20
69410
30
0
40
420
1
9T16@150-T2-03-(L=2900)
7
ST-REBAR
72
1
11
98150
21
69410
31
0
100
AcDbText
73
0
0
TEXT
5
37C
330
10E
100
AcDbEntity
8
ST-RB-TEXT
100
AcDbText
10
98150
20
68860
30
0
40
340
1
2900
7
ST-REBAR
72
1
11
98150
21
68860
31
0
100
AcDbText
73
0
0
LINE
5
37D
330
10E
100
AcDbEntity
8
ST-RB-T2
100
AcDbLine
10
96700
20
69180
30
0
11
96700
21
69420
31
0
0
LINE
5
37E
330
10E
100
AcDbEntity
8
ST-RB-T2
100
AcDbLine
10
99600
20
69180
30
0
11
99600
21
69420
31
0
0
CIRCLE
5
37F
330
10E
100
AcDbEntity
8
ST-CALLOUT
100
AcDbCircle
10
99650
20
70800
30
0
40
600
0
TEXT
5
380
330
10E
100
AcDbEntity
8
ST-CALLOUT
100
AcDbText
10
99650
20
70800
30
0
40
320
1
TC5
7
STANDARD
72
1
11
99650
21
70800
31
0
100
AcDbText
73
2
0
LINE
5
381
330
10E
100
AcDbEntity
8
ST-CALLOUT
100
AcDbLine
10
99225.735931
20
70375.735931
30
0
11
98450
21
69600
31
0
0
LINE
5
382
330
10E
100
AcDbEntity
8
ST-RB-T2
100
AcDbLine
10
104200
20
69300
30
0
11
107100
21
69300
31
0
0
TEXT
5
383
330
10E
100
AcDbEntity
8
ST-RB-TEXT
100
AcDbText
10
105650
20
69410
30
0
40
420
1
9T16@150-T2-03-(L=2900)
7
ST-REBAR
72
1
11
105650
21
69410
31
0
100
AcDbText
73
0
0
TEXT
5
384
330
10E
100
AcDbEntity
8
ST-RB-TEXT
100
AcDbText
10
105650
20
68860
30
0
40
340
1
2900
7
ST-REBAR
72
1
11
105650
21
68860
31
0
100
AcDbText
73
0
0
LINE
5
385
330
10E
100
AcDbEntity
8
ST-RB-T2
100
AcDbLine
10
104200
20
69180
30
0
11
104200
21
69420
31
0
0
LINE
5
386
330
10E
100
AcDbEntity
8
ST-RB-T2
100
AcDbLine
10
107100
20
69180
30
0
11
107100
21
69420
31
0
0
CIRCLE
5
387
330
10E
100
AcDbEntity
8
ST-CALLOUT
100
AcDbCircle
10
107150
20
70800
30
0
40
600
0
TEXT
5
388
330
10E
100
AcDbEntity
8
ST-CALLOUT
100
AcDbText
10
107150
20
70800
30
0
40
320
1
TC5
7
STANDARD
72
1
11
107150
21
70800
31
0
100
AcDbText
73
2
0
LINE
5
389
330
10E
100
AcDbEntity
8
ST-CALLOUT
100
AcDbLine
10
106725.735931
20
70375.735931
30
0
11
105950
21
69600
31
0
0
LINE
5
38A
330
10E
100
AcDbEntity
8
ST-RB-T2
100
AcDbLine
10
111700
20
69300
30
0
11
114130
21
69300
31
0
0
LINE
5
38B
330
10E
100
AcDbEntity
8
ST-RB-T2
100
AcDbLine
10
114130
20
69300
30
0
11
114130
21
69050
31
0
0
TEXT
5
38C
330
10E
100
AcDbEntity
8
ST-RB-TEXT
100
AcDbText
10
112915
20
69410
30
0
40
420
1
9T16@150-T2-02-(L=2630)
7
ST-REBAR
72
1
11
112915
21
69410
31
0
100
AcDbText
73
0
0
TEXT
5
38D
330
10E
100
AcDbEntity
8
ST-RB-TEXT
100
AcDbText
10
112915
20
68860
30
0
40
340
1
2430
7
ST-REBAR
72
1
11
112915
21
68860
31
0
100
AcDbText
73
0
0
TEXT
5
38E
330
10E
100
AcDbEntity
8
ST-RB-TEXT
100
AcDbText
10
114210
20
69410
30
0
40
300
1
200
7
ST-REBAR
72
0
100
AcDbText
73
0
0
LINE
5
38F
330
10E
100
AcDbEntity
8
ST-RB-T2
100
AcDbLine
10
111700
20
69180
30
0
11
111700
21
69420
31
0
0
LINE
5
390
330
10E
100
AcDbEntity
8
ST-RB-T2
100
AcDbLine
10
114130
20
69180
30
0
11
114130
21
69420
31
0
0
CIRCLE
5
391
330
10E
100
AcDbEntity
8
ST-CALLOUT
100
AcDbCircle
10
114650
20
70800
30
0
40
600
0
TEXT
5
392
330
10E
100
AcDbEntity
8
ST-CALLOUT
100
AcDbText
10
114650
20
70800
30
0
40
320
1
TC6
7
STANDARD
72
1
11
114650
21
70800
31
0
100
AcDbText
73
2
0
LINE
5
393
330
10E
100
AcDbEntity
8
ST-CALLOUT
100
AcDbLine
10
114225.735931
20
70375.735931
30
0
11
113450
21
69600
31
0
0
LINE
5
394
330
10E
100
AcDbEntity
8
ST-RB-T2
100
AcDbLine
10
81675
20
61300
30
0
11
84605
21
61300
31
0
0
LINE
5
395
330
10E
100
AcDbEntity
8
ST-RB-T2
100
AcDbLine
10
81675
20
61300
30
0
11
81675
21
61050
31
0
0
TEXT
5
396
330
10E
100
AcDbEntity
8
ST-RB-TEXT
100
AcDbText
10
83140
20
61410
30
0
40
420
1
9T16@150-T2-01-(L=3130)
7
ST-REBAR
72
1
11
83140
21
61410
31
0
100
AcDbText
73
0
0
TEXT
5
397
330
10E
100
AcDbEntity
8
ST-RB-TEXT
100
AcDbText
10
83140
20
60860
30
0
40
340
1
2930
7
ST-REBAR
72
1
11
83140
21
60860
31
0
100
AcDbText
73
0
0
TEXT
5
398
330
10E
100
AcDbEntity
8
ST-RB-TEXT
100
AcDbText
10
81595
20
61410
30
0
40
300
1
200
7
ST-REBAR
72
2
11
81595
21
61410
31
0
100
AcDbText
73
0
0
LINE
5
399
330
10E
100
AcDbEntity
8
ST-RB-T2
100
AcDbLine
10
81675
20
61180
30
0
11
81675
21
61420
31
0
0
LINE
5
39A
330
10E
100
AcDbEntity
8
ST-RB-T2
100
AcDbLine
10
84605
20
61180
30
0
11
84605
21
61420
31
0
0
CIRCLE
5
39B
330
10E
100
AcDbEntity
8
ST-CALLOUT
100
AcDbCircle
10
84650
20
62800
30
0
40
600
0
TEXT
5
39C
330
10E
100
AcDbEntity
8
ST-CALLOUT
100
AcDbText
10
84650
20
62800
30
0
40
320
1
TC1
7
STANDARD
72
1
11
84650
21
62800
31
0
100
AcDbText
73
2
0
LINE
5
39D
330
10E
100
AcDbEntity
8
ST-CALLOUT
100
AcDbLine
10
84225.735931
20
62375.735931
30
0
11
83450
21
61600
31
0
0
LINE
5
39E
330
10E
100
AcDbEntity
8
ST-RB-T2
100
AcDbLine
10
89200
20
61300
30
0
11
92100
21
61300
31
0
0
TEXT
5
39F
330
10E
100
AcDbEntity
8
ST-RB-TEXT
100
AcDbText
10
90650
20
61410
30
0
40
420
1
9T16@150-T2-03-(L=2900)
7
ST-REBAR
72
1
11
90650
21
61410
31
0
100
AcDbText
73
0
0
TEXT
5
3A0
330
10E
100
AcDbEntity
8
ST-RB-TEXT
100
AcDbText
10
90650
20
60860
30
0
40
340
1
2900
7
ST-REBAR
72
1
11
90650
21
60860
31
0
100
AcDbText
73
0
0
LINE
5
3A1
330
10E
100
AcDbEntity
8
ST-RB-T2
100
AcDbLine
10
89200
20
61180
30
0
11
89200
21
61420
31
0
0
LINE
5
3A2
330
10E
100
AcDbEntity
8
ST-RB-T2
100
AcDbLine
10
92100
20
61180
30
0
11
92100
21
61420
31
0
0
CIRCLE
5
3A3
330
10E
100
AcDbEntity
8
ST-CALLOUT
100
AcDbCircle
10
92150
20
62800
30
0
40
600
0
TEXT
5
3A4
330
10E
100
AcDbEntity
8
ST-CALLOUT
100
AcDbText
10
92150
20
62800
30
0
40
320
1
TC2
7
STANDARD
72
1
11
92150
21
62800
31
0
100
AcDbText
73
2
0
LINE
5
3A5
330
10E
100
AcDbEntity
8
ST-CALLOUT
100
AcDbLine
10
91725.735931
20
62375.735931
30
0
11
90950
21
61600
31
0
0
LINE
5
3A6
330
10E
100
AcDbEntity
8
ST-RB-T2
100
AcDbLine
10
96700
20
61300
30
0
11
99600
21
61300
31
0
0
TEXT
5
3A7
330
10E
100
AcDbEntity
8
ST-RB-TEXT
100
AcDbText
10
98150
20
61410
30
0
40
420
1
9T16@150-T2-03-(L=2900)
7
ST-REBAR
72
1
11
98150
21
61410
31
0
100
AcDbText
73
0
0
TEXT
5
3A8
330
10E
100
AcDbEntity
8
ST-RB-TEXT
100
AcDbText
10
98150
20
60860
30
0
40
340
1
2900
7
ST-REBAR
72
1
11
98150
21
60860
31
0
100
AcDbText
73
0
0
LINE
5
3A9
330
10E
100
AcDbEntity
8
ST-RB-T2
100
AcDbLine
10
96700
20
61180
30
0
11
96700
21
61420
31
0
0
LINE
5
3AA
330
10E
100
AcDbEntity
8
ST-RB-T2
100
AcDbLine
10
99600
20
61180
30
0
11
99600
21
61420
31
0
0
CIRCLE
5
3AB
330
10E
100
AcDbEntity
8
ST-CALLOUT
100
AcDbCircle
10
99650
20
62800
30
0
40
600
0
TEXT
5
3AC
330
10E
100
AcDbEntity
8
ST-CALLOUT
100
AcDbText
10
99650
20
62800
30
0
40
320
1
TC2
7
STANDARD
72
1
11
99650
21
62800
31
0
100
AcDbText
73
2
0
LINE
5
3AD
330
10E
100
AcDbEntity
8
ST-CALLOUT
100
AcDbLine
10
99225.735931
20
62375.735931
30
0
11
98450
21
61600
31
0
0
LINE
5
3AE
330
10E
100
AcDbEntity
8
ST-RB-T2
100
AcDbLine
10
104200
20
61300
30
0
11
107100
21
61300
31
0
0
TEXT
5
3AF
330
10E
100
AcDbEntity
8
ST-RB-TEXT
100
AcDbText
10
105650
20
61410
30
0
40
420
1
9T16@150-T2-03-(L=2900)
7
ST-REBAR
72
1
11
105650
21
61410
31
0
100
AcDbText
73
0
0
TEXT
5
3B0
330
10E
100
AcDbEntity
8
ST-RB-TEXT
100
AcDbText
10
105650
20
60860
30
0
40
340
1
2900
7
ST-REBAR
72
1
11
105650
21
60860
31
0
100
AcDbText
73
0
0
LINE
5
3B1
330
10E
100
AcDbEntity
8
ST-RB-T2
100
AcDbLine
10
104200
20
61180
30
0
11
104200
21
61420
31
0
0
LINE
5
3B2
330
10E
100
AcDbEntity
8
ST-RB-T2
100
AcDbLine
10
107100
20
61180
30
0
11
107100
21
61420
31
0
0
CIRCLE
5
3B3
330
10E
100
AcDbEntity
8
ST-CALLOUT
100
AcDbCircle
10
107150
20
62800
30
0
40
600
0
TEXT
5
3B4
330
10E
100
AcDbEntity
8
ST-CALLOUT
100
AcDbText
10
107150
20
62800
30
0
40
320
1
TC2
7
STANDARD
72
1
11
107150
21
62800
31
0
100
AcDbText
73
2
0
LINE
5
3B5
330
10E
100
AcDbEntity
8
ST-CALLOUT
100
AcDbLine
10
106725.735931
20
62375.735931
30
0
11
105950
21
61600
31
0
0
LINE
5
3B6
330
10E
100
AcDbEntity
8
ST-RB-T2
100
AcDbLine
10
111700
20
61300
30
0
11
114130
21
61300
31
0
0
LINE
5
3B7
330
10E
100
AcDbEntity
8
ST-RB-T2
100
AcDbLine
10
114130
20
61300
30
0
11
114130
21
61050
31
0
0
TEXT
5
3B8
330
10E
100
AcDbEntity
8
ST-RB-TEXT
100
AcDbText
10
112915
20
61410
30
0
40
420
1
9T16@150-T2-02-(L=2630)
7
ST-REBAR
72
1
11
112915
21
61410
31
0
100
AcDbText
73
0
0
TEXT
5
3B9
330
10E
100
AcDbEntity
8
ST-RB-TEXT
100
AcDbText
10
112915
20
60860
30
0
40
340
1
2430
7
ST-REBAR
72
1
11
112915
21
60860
31
0
100
AcDbText
73
0
0
TEXT
5
3BA
330
10E
100
AcDbEntity
8
ST-RB-TEXT
100
AcDbText
10
114210
20
61410
30
0
40
300
1
200
7
ST-REBAR
72
0
100
AcDbText
73
0
0
LINE
5
3BB
330
10E
100
AcDbEntity
8
ST-RB-T2
100
AcDbLine
10
111700
20
61180
30
0
11
111700
21
61420
31
0
0
LINE
5
3BC
330
10E
100
AcDbEntity
8
ST-RB-T2
100
AcDbLine
10
114130
20
61180
30
0
11
114130
21
61420
31
0
0
CIRCLE
5
3BD
330
10E
100
AcDbEntity
8
ST-CALLOUT
100
AcDbCircle
10
114650
20
62800
30
0
40
600
0
TEXT
5
3BE
330
10E
100
AcDbEntity
8
ST-CALLOUT
100
AcDbText
10
114650
20
62800
30
0
40
320
1
TC3
7
STANDARD
72
1
11
114650
21
62800
31
0
100
AcDbText
73
2
0
LINE
5
3BF
330
10E
100
AcDbEntity
8
ST-CALLOUT
100
AcDbLine
10
114225.735931
20
62375.735931
30
0
11
113450
21
61600
31
0
0
LWPOLYLINE
5
3C0
330
10E
100
AcDbEntity
8
ST-SHEET-FRAME
100
AcDbPolyline
90
4
70
1
43
0
10
4000
20
2000
10
45733.333333
20
2000
10
45733.333333
20
27000
10
4000
20
27000
0
LINE
5
3C1
330
10E
100
AcDbEntity
8
ST-SHEET-FRAME
100
AcDbLine
10
4000
20
25400
30
0
11
45733.333333
21
25400
31
0
0
CIRCLE
5
3C2
330
10E
100
AcDbEntity
8
ST-CALLOUT
100
AcDbCircle
10
5400
20
26200
30
0
40
600
0
TEXT
5
3C3
330
10E
100
AcDbEntity
8
ST-CALLOUT
100
AcDbText
10
5400
20
26200
30
0
40
440
1
1
7
STANDARD
72
1
11
5400
21
26200
31
0
100
AcDbText
73
2
0
TEXT
5
3C4
330
10E
100
AcDbEntity
8
ST-SHEET-TEXT
100
AcDbText
10
6400
20
26200
30
0
40
480
1
SECTION AT COLUMN - TOP BARS
7
STANDARD
72
0
11
6400
21
26200
31
0
100
AcDbText
73
2
0
TEXT
5
3C5
330
10E
100
AcDbEntity
8
ST-SHEET-TITLE
100
AcDbText
10
45333.333333
20
26200
30
0
40
360
1
1:25
7
STANDARD
72
2
11
45333.333333
21
26200
31
0
100
AcDbText
73
2
0
LWPOLYLINE
5
3C6
330
10E
100
AcDbEntity
8
ST-DETAIL
370
35
100
AcDbPolyline
90
4
70
1
43
0
10
10266.666667
20
14720
10
39466.666667
20
14720
10
39466.666667
20
16480
10
10266.666667
20
16480
0
HATCH
5
3C7
330
10E
100
AcDbEntity
8
ST-DETAIL-HATCH
100
AcDbHatch
10
0
20
0
30
0
210
0
220
0
230
1
2
ANSI31
70
0
71
0
91
1
92
3
72
0
73
1
93
4
10
10266.666667
20
14720
10
39466.666667
20
14720
10
39466.666667
20
16480
10
10266.666667
20
16480
97
0
75
1
76
1
52
0
41
100.787402
77
0
78
1
53
45
43
0
44
0
45
-226.27417
46
226.27417
79
0
47
1
98
0
0
LWPOLYLINE
5
3C8
330
10E
100
AcDbEntity
8
ST-COL
370
35
100
AcDbPolyline
90
4
70
1
43
0
10
22466.666667
20
7520
10
27266.666667
20
7520
10
27266.666667
20
14720
10
22466.666667
20
14720
0
HATCH
5
3C9
330
10E
100
AcDbEntity
8
ST-DETAIL-HATCH
100
AcDbHatch
10
0
20
0
30
0
210
0
220
0
230
1
2
ANSI31
70
0
71
0
91
1
92
3
72
0
73
1
93
4
10
22466.666667
20
7520
10
27266.666667
20
7520
10
27266.666667
20
14720
10
22466.666667
20
14720
97
0
75
1
76
1
52
0
41
138.582677
77
0
78
1
53
45
43
0
44
0
45
-311.126984
46
311.126984
79
0
47
1
98
0
0
LWPOLYLINE
5
3CA
330
10E
100
AcDbEntity
8
ST-RB-TOP
370
70
100
AcDbPolyline
90
3
70
0
43
0
10
13066.666667
20
14616
10
13066.666667
20
16216
10
36666.666667
20
16216
0
LINE
5
3CB
330
10E
100
AcDbEntity
8
ST-RB-TOP
100
AcDbLine
10
13066.666667
20
16016
30
0
11
13066.666667
21
16416
31
0
0
LINE
5
3CC
330
10E
100
AcDbEntity
8
ST-RB-TOP
100
AcDbLine
10
36666.666667
20
16016
30
0
11
36666.666667
21
16416
31
0
0
LINE
5
3CD
330
10E
100
AcDbEntity
8
ST-RB-BOT
370
35
100
AcDbLine
10
10746.666667
20
14968
30
0
11
38986.666667
21
14968
31
0
0
LWPOLYLINE
5
3CE
330
10E
100
AcDbEntity
8
ST-PT-TENDON
6
DASHED
100
AcDbPolyline
90
4
70
0
43
0
10
10266.666667
20
15280
10
22466.666667
20
15920
10
27266.666667
20
15920
10
39466.666667
20
15280
0
LINE
5
3CF
330
10E
100
AcDbEntity
8
ST-DIM
100
AcDbLine
10
13066.666667
20
16480
30
0
11
13066.666667
21
18180
31
0
0
LINE
5
3D0
330
10E
100
AcDbEntity
8
ST-DIM
100
AcDbLine
10
22466.666667
20
16480
30
0
11
22466.666667
21
18180
31
0
0
LINE
5
3D1
330
10E
100
AcDbEntity
8
ST-DIM
100
AcDbLine
10
13066.666667
20
17880
30
0
11
22466.666667
21
17880
31
0
0
LINE
5
3D2
330
10E
100
AcDbEntity
8
ST-DIM
100
AcDbLine
10
12926.666667
20
17740
30
0
11
13206.666667
21
18020
31
0
0
LINE
5
3D3
330
10E
100
AcDbEntity
8
ST-DIM
100
AcDbLine
10
22326.666667
20
17740
30
0
11
22606.666667
21
18020
31
0
0
TEXT
5
3D4
330
10E
100
AcDbEntity
8
ST-DIM
100
AcDbText
10
17766.666667
20
18024
30
0
40
360
1
1175 (\U+2265 ln/6)
7
STANDARD
72
1
11
17766.666667
21
18024
31
0
100
AcDbText
73
0
0
LINE
5
3D5
330
10E
100
AcDbEntity
8
ST-DIM
100
AcDbLine
10
27266.666667
20
16480
30
0
11
27266.666667
21
18180
31
0
0
LINE
5
3D6
330
10E
100
AcDbEntity
8
ST-DIM
100
AcDbLine
10
36666.666667
20
16480
30
0
11
36666.666667
21
18180
31
0
0
LINE
5
3D7
330
10E
100
AcDbEntity
8
ST-DIM
100
AcDbLine
10
27266.666667
20
17880
30
0
11
36666.666667
21
17880
31
0
0
LINE
5
3D8
330
10E
100
AcDbEntity
8
ST-DIM
100
AcDbLine
10
27126.666667
20
17740
30
0
11
27406.666667
21
18020
31
0
0
LINE
5
3D9
330
10E
100
AcDbEntity
8
ST-DIM
100
AcDbLine
10
36526.666667
20
17740
30
0
11
36806.666667
21
18020
31
0
0
TEXT
5
3DA
330
10E
100
AcDbEntity
8
ST-DIM
100
AcDbText
10
31966.666667
20
18024
30
0
40
360
1
1175 (\U+2265 ln/6)
7
STANDARD
72
1
11
31966.666667
21
18024
31
0
100
AcDbText
73
0
0
LINE
5
3DB
330
10E
100
AcDbEntity
8
ST-DIM
100
AcDbLine
10
22466.666667
20
16480
30
0
11
22466.666667
21
18180
31
0
0
LINE
5
3DC
330
10E
100
AcDbEntity
8
ST-DIM
100
AcDbLine
10
27266.666667
20
16480
30
0
11
27266.666667
21
18180
31
0
0
LINE
5
3DD
330
10E
100
AcDbEntity
8
ST-DIM
100
AcDbLine
10
22466.666667
20
17880
30
0
11
27266.666667
21
17880
31
0
0
LINE
5
3DE
330
10E
100
AcDbEntity
8
ST-DIM
100
AcDbLine
10
22326.666667
20
17740
30
0
11
22606.666667
21
18020
31
0
0
LINE
5
3DF
330
10E
100
AcDbEntity
8
ST-DIM
100
AcDbLine
10
27126.666667
20
17740
30
0
11
27406.666667
21
18020
31
0
0
TEXT
5
3E0
330
10E
100
AcDbEntity
8
ST-DIM
100
AcDbText
10
24866.666667
20
18024
30
0
40
360
1
600
7
STANDARD
72
1
11
24866.666667
21
18024
31
0
100
AcDbText
73
0
0
LINE
5
3E1
330
10E
100
AcDbEntity
8
ST-DIM
100
AcDbLine
10
39466.666667
20
14720
30
0
11
40366.666667
21
14720
31
0
0
LINE
5
3E2
330
10E
100
AcDbEntity
8
ST-DIM
100
AcDbLine
10
39466.666667
20
16480
30
0
11
40366.666667
21
16480
31
0
0
LINE
5
3E3
330
10E
100
AcDbEntity
8
ST-DIM
100
AcDbLine
10
40666.666667
20
14720
30
0
11
40666.666667
21
16480
31
0
0
LINE
5
3E4
330
10E
100
AcDbEntity
8
ST-DIM
100
AcDbLine
10
40806.666667
20
14580
30
0
11
40526.666667
21
14860
31
0
0
LINE
5
3E5
330
10E
100
AcDbEntity
8
ST-DIM
100
AcDbLine
10
40806.666667
20
16340
30
0
11
40526.666667
21
16620
31
0
0
TEXT
5
3E6
330
10E
100
AcDbEntity
8
ST-DIM
100
AcDbText
10
40522.666667
20
15600
30
0
40
360
1
220
50
90
7
STANDARD
72
1
11
40522.666667
21
15600
31
0
100
AcDbText
73
0
0
TEXT
5
3E7
330
10E
100
AcDbEntity
8
ST-RB-TEXT
100
AcDbText
10
24866.666667
20
19040
30
0
40
380
1
T16@150 TOP E.W. WITHIN c + 3h - EXTEND \U+2265 ln/6 FROM FACE OF SUPPORT
7
STANDARD
72
1
11
24866.666667
21
19040
31
0
100
AcDbText
73
0
0
TEXT
5
3E8
330
10E
100
AcDbEntity
8
ST-SHEET-NOTES
100
AcDbText
10
24866.666667
20
6880
30
0
40
320
1
COLUMN  \U+00B7  90\U+00B0 HOOK 200 (12\U+00D8) WHERE BAR ENDS AT SLAB EDGE
7
STANDARD
72
1
11
24866.666667
21
6880
31
0
100
AcDbText
73
0
0
LWPOLYLINE
5
3E9
330
10E
100
AcDbEntity
8
ST-SHEET-FRAME
100
AcDbPolyline
90
4
70
1
43
0
10
45733.333333
20
2000
10
87466.666667
20
2000
10
87466.666667
20
27000
10
45733.333333
20
27000
0
LINE
5
3EA
330
10E
100
AcDbEntity
8
ST-SHEET-FRAME
100
AcDbLine
10
45733.333333
20
25400
30
0
11
87466.666667
21
25400
31
0
0
CIRCLE
5
3EB
330
10E
100
AcDbEntity
8
ST-CALLOUT
100
AcDbCircle
10
47133.333333
20
26200
30
0
40
600
0
TEXT
5
3EC
330
10E
100
AcDbEntity
8
ST-CALLOUT
100
AcDbText
10
47133.333333
20
26200
30
0
40
440
1
2
7
STANDARD
72
1
11
47133.333333
21
26200
31
0
100
AcDbText
73
2
0
TEXT
5
3ED
330
10E
100
AcDbEntity
8
ST-SHEET-TEXT
100
AcDbText
10
48133.333333
20
26200
30
0
40
480
1
TOP BAR TYPES OVER COLUMNS
7
STANDARD
72
0
11
48133.333333
21
26200
31
0
100
AcDbText
73
2
0
TEXT
5
3EE
330
10E
100
AcDbEntity
8
ST-SHEET-TITLE
100
AcDbText
10
87066.666667
20
26200
30
0
40
360
1

7
STANDARD
72
2
11
87066.666667
21
26200
31
0
100
AcDbText
73
2
0
LWPOLYLINE
5
3EF
330
10E
100
AcDbEntity
8
ST-SHEET-SCHEDULE
100
AcDbPolyline
90
4
70
1
43
0
10
46333.333333
20
24000
10
86866.666667
20
24000
10
86866.666667
20
25000
10
46333.333333
20
25000
0
TEXT
5
3F0
330
10E
100
AcDbEntity
8
ST-SHEET-SCHEDULE-TEXT
100
AcDbText
10
47733.333333
20
24500
30
0
40
280
1
TYPE
7
STANDARD
72
1
11
47733.333333
21
24500
31
0
100
AcDbText
73
2
0
TEXT
5
3F1
330
10E
100
AcDbEntity
8
ST-SHEET-SCHEDULE-TEXT
100
AcDbText
10
54133.333333
20
24500
30
0
40
280
1
T2 (PLAN 2) BARS
7
STANDARD
72
1
11
54133.333333
21
24500
31
0
100
AcDbText
73
2
0
TEXT
5
3F2
330
10E
100
AcDbEntity
8
ST-SHEET-SCHEDULE-TEXT
100
AcDbText
10
64133.333333
20
24500
30
0
40
280
1
T1 (PLAN 1) BARS
7
STANDARD
72
1
11
64133.333333
21
24500
31
0
100
AcDbText
73
2
0
TEXT
5
3F3
330
10E
100
AcDbEntity
8
ST-SHEET-SCHEDULE-TEXT
100
AcDbText
10
72133.333333
20
24500
30
0
40
280
1
As req/prov
7
STANDARD
72
1
11
72133.333333
21
24500
31
0
100
AcDbText
73
2
0
TEXT
5
3F4
330
10E
100
AcDbEntity
8
ST-SHEET-SCHEDULE-TEXT
100
AcDbText
10
81000
20
24500
30
0
40
280
1
COLUMNS
7
STANDARD
72
1
11
81000
21
24500
31
0
100
AcDbText
73
2
0
TEXT
5
3F5
330
10E
100
AcDbEntity
8
ST-SHEET-SCHEDULE-TEXT
100
AcDbText
10
47733.333333
20
23600
30
0
40
300
1
TC1
7
STANDARD
72
1
11
47733.333333
21
23600
31
0
100
AcDbText
73
2
0
TEXT
5
3F6
330
10E
100
AcDbEntity
8
ST-SHEET-SCHEDULE-TEXT
100
AcDbText
10
49333.333333
20
23600
30
0
40
300
1
9T16 T2-01 L=3130 L
7
STANDARD
72
0
11
49333.333333
21
23600
31
0
100
AcDbText
73
2
0
TEXT
5
3F7
330
10E
100
AcDbEntity
8
ST-SHEET-SCHEDULE-TEXT
100
AcDbText
10
59333.333333
20
23600
30
0
40
300
1
9T16 T1-01 L=2730 L
7
STANDARD
72
0
11
59333.333333
21
23600
31
0
100
AcDbText
73
2
0
TEXT
5
3F8
330
10E
100
AcDbEntity
8
ST-SHEET-SCHEDULE-TEXT
100
AcDbText
10
72133.333333
20
23600
30
0
40
300
1
1320/1810
7
STANDARD
72
1
11
72133.333333
21
23600
31
0
100
AcDbText
73
2
0
TEXT
5
3F9
330
10E
100
AcDbEntity
8
ST-SHEET-SCHEDULE-TEXT
100
AcDbText
10
75333.333333
20
23600
30
0
40
300
1
A/4, A/1
7
STANDARD
72
0
11
75333.333333
21
23600
31
0
100
AcDbText
73
2
0
LINE
5
3FA
330
10E
100
AcDbEntity
8
ST-SHEET-SCHEDULE
370
5
100
AcDbLine
10
46333.333333
20
23200
30
0
11
86866.666667
21
23200
31
0
0
TEXT
5
3FB
330
10E
100
AcDbEntity
8
ST-SHEET-SCHEDULE-TEXT
100
AcDbText
10
47733.333333
20
22800
30
0
40
300
1
TC2
7
STANDARD
72
1
11
47733.333333
21
22800
31
0
100
AcDbText
73
2
0
TEXT
5
3FC
330
10E
100
AcDbEntity
8
ST-SHEET-SCHEDULE-TEXT
100
AcDbText
10
49333.333333
20
22800
30
0
40
300
1
9T16 T2-03 L=2900 STR
7
STANDARD
72
0
11
49333.333333
21
22800
31
0
100
AcDbText
73
2
0
TEXT
5
3FD
330
10E
100
AcDbEntity
8
ST-SHEET-SCHEDULE-TEXT
100
AcDbText
10
59333.333333
20
22800
30
0
40
300
1
9T16 T1-01 L=2730 L
7
STANDARD
72
0
11
59333.333333
21
22800
31
0
100
AcDbText
73
2
0
TEXT
5
3FE
330
10E
100
AcDbEntity
8
ST-SHEET-SCHEDULE-TEXT
100
AcDbText
10
72133.333333
20
22800
30
0
40
300
1
1320/1810
7
STANDARD
72
1
11
72133.333333
21
22800
31
0
100
AcDbText
73
2
0
TEXT
5
3FF
330
10E
100
AcDbEntity
8
ST-SHEET-SCHEDULE-TEXT
100
AcDbText
10
75333.333333
20
22800
30
0
40
300
1
B/4, C/4, D/4, B/1, C/1, D/1
7
STANDARD
72
0
11
75333.333333
21
22800
31
0
100
AcDbText
73
2
0
LINE
5
400
330
10E
100
AcDbEntity
8
ST-SHEET-SCHEDULE
370
5
100
AcDbLine
10
46333.333333
20
22400
30
0
11
86866.666667
21
22400
31
0
0
TEXT
5
401
330
10E
100
AcDbEntity
8
ST-SHEET-SCHEDULE-TEXT
100
AcDbText
10
47733.333333
20
22000
30
0
40
300
1
TC3
7
STANDARD
72
1
11
47733.333333
21
22000
31
0
100
AcDbText
73
2
0
TEXT
5
402
330
10E
100
AcDbEntity
8
ST-SHEET-SCHEDULE-TEXT
100
AcDbText
10
49333.333333
20
22000
30
0
40
300
1
9T16 T2-02 L=2630 L
7
STANDARD
72
0
11
49333.333333
21
22000
31
0
100
AcDbText
73
2
0
TEXT
5
403
330
10E
100
AcDbEntity
8
ST-SHEET-SCHEDULE-TEXT
100
AcDbText
10
59333.333333
20
22000
30
0
40
300
1
9T16 T1-01 L=2730 L
7
STANDARD
72
0
11
59333.333333
21
22000
31
0
100
AcDbText
73
2
0
TEXT
5
404
330
10E
100
AcDbEntity
8
ST-SHEET-SCHEDULE-TEXT
100
AcDbText
10
72133.333333
20
22000
30
0
40
300
1
1320/1810
7
STANDARD
72
1
11
72133.333333
21
22000
31
0
100
AcDbText
73
2
0
TEXT
5
405
330
10E
100
AcDbEntity
8
ST-SHEET-SCHEDULE-TEXT
100
AcDbText
10
75333.333333
20
22000
30
0
40
300
1
E/4, E/1
7
STANDARD
72
0
11
75333.333333
21
22000
31
0
100
AcDbText
73
2
0
LINE
5
406
330
10E
100
AcDbEntity
8
ST-SHEET-SCHEDULE
370
5
100
AcDbLine
10
46333.333333
20
21600
30
0
11
86866.666667
21
21600
31
0
0
TEXT
5
407
330
10E
100
AcDbEntity
8
ST-SHEET-SCHEDULE-TEXT
100
AcDbText
10
47733.333333
20
21200
30
0
40
300
1
TC4
7
STANDARD
72
1
11
47733.333333
21
21200
31
0
100
AcDbText
73
2
0
TEXT
5
408
330
10E
100
AcDbEntity
8
ST-SHEET-SCHEDULE-TEXT
100
AcDbText
10
49333.333333
20
21200
30
0
40
300
1
9T16 T2-01 L=3130 L
7
STANDARD
72
0
11
49333.333333
21
21200
31
0
100
AcDbText
73
2
0
TEXT
5
409
330
10E
100
AcDbEntity
8
ST-SHEET-SCHEDULE-TEXT
100
AcDbText
10
59333.333333
20
21200
30
0
40
300
1
9T16 T1-02 L=3100 STR
7
STANDARD
72
0
11
59333.333333
21
21200
31
0
100
AcDbText
73
2
0
TEXT
5
40A
330
10E
100
AcDbEntity
8
ST-SHEET-SCHEDULE-TEXT
100
AcDbText
10
72133.333333
20
21200
30
0
40
300
1
1320/1810
7
STANDARD
72
1
11
72133.333333
21
21200
31
0
100
AcDbText
73
2
0
TEXT
5
40B
330
10E
100
AcDbEntity
8
ST-SHEET-SCHEDULE-TEXT
100
AcDbText
10
75333.333333
20
21200
30
0
40
300
1
A/3, A/2
7
STANDARD
72
0
11
75333.333333
21
21200
31
0
100
AcDbText
73
2
0
LINE
5
40C
330
10E
100
AcDbEntity
8
ST-SHEET-SCHEDULE
370
5
100
AcDbLine
10
46333.333333
20
20800
30
0
11
86866.666667
21
20800
31
0
0
TEXT
5
40D
330
10E
100
AcDbEntity
8
ST-SHEET-SCHEDULE-TEXT
100
AcDbText
10
47733.333333
20
20400
30
0
40
300
1
TC5
7
STANDARD
72
1
11
47733.333333
21
20400
31
0
100
AcDbText
73
2
0
TEXT
5
40E
330
10E
100
AcDbEntity
8
ST-SHEET-SCHEDULE-TEXT
100
AcDbText
10
49333.333333
20
20400
30
0
40
300
1
9T16 T2-03 L=2900 STR
7
STANDARD
72
0
11
49333.333333
21
20400
31
0
100
AcDbText
73
2
0
TEXT
5
40F
330
10E
100
AcDbEntity
8
ST-SHEET-SCHEDULE-TEXT
100
AcDbText
10
59333.333333
20
20400
30
0
40
300
1
9T16 T1-02 L=3100 STR
7
STANDARD
72
0
11
59333.333333
21
20400
31
0
100
AcDbText
73
2
0
TEXT
5
410
330
10E
100
AcDbEntity
8
ST-SHEET-SCHEDULE-TEXT
100
AcDbText
10
72133.333333
20
20400
30
0
40
300
1
1320/1810
7
STANDARD
72
1
11
72133.333333
21
20400
31
0
100
AcDbText
73
2
0
TEXT
5
411
330
10E
100
AcDbEntity
8
ST-SHEET-SCHEDULE-TEXT
100
AcDbText
10
75333.333333
20
20400
30
0
40
300
1
B/3, C/3, D/3, B/2, C/2, D/2
7
STANDARD
72
0
11
75333.333333
21
20400
31
0
100
AcDbText
73
2
0
LINE
5
412
330
10E
100
AcDbEntity
8
ST-SHEET-SCHEDULE
370
5
100
AcDbLine
10
46333.333333
20
20000
30
0
11
86866.666667
21
20000
31
0
0
TEXT
5
413
330
10E
100
AcDbEntity
8
ST-SHEET-SCHEDULE-TEXT
100
AcDbText
10
47733.333333
20
19600
30
0
40
300
1
TC6
7
STANDARD
72
1
11
47733.333333
21
19600
31
0
100
AcDbText
73
2
0
TEXT
5
414
330
10E
100
AcDbEntity
8
ST-SHEET-SCHEDULE-TEXT
100
AcDbText
10
49333.333333
20
19600
30
0
40
300
1
9T16 T2-02 L=2630 L
7
STANDARD
72
0
11
49333.333333
21
19600
31
0
100
AcDbText
73
2
0
TEXT
5
415
330
10E
100
AcDbEntity
8
ST-SHEET-SCHEDULE-TEXT
100
AcDbText
10
59333.333333
20
19600
30
0
40
300
1
9T16 T1-02 L=3100 STR
7
STANDARD
72
0
11
59333.333333
21
19600
31
0
100
AcDbText
73
2
0
TEXT
5
416
330
10E
100
AcDbEntity
8
ST-SHEET-SCHEDULE-TEXT
100
AcDbText
10
72133.333333
20
19600
30
0
40
300
1
1320/1810
7
STANDARD
72
1
11
72133.333333
21
19600
31
0
100
AcDbText
73
2
0
TEXT
5
417
330
10E
100
AcDbEntity
8
ST-SHEET-SCHEDULE-TEXT
100
AcDbText
10
75333.333333
20
19600
30
0
40
300
1
E/3, E/2
7
STANDARD
72
0
11
75333.333333
21
19600
31
0
100
AcDbText
73
2
0
LINE
5
418
330
10E
100
AcDbEntity
8
ST-SHEET-SCHEDULE
370
5
100
AcDbLine
10
46333.333333
20
19200
30
0
11
86866.666667
21
19200
31
0
0
LINE
5
419
330
10E
100
AcDbEntity
8
ST-SHEET-SCHEDULE
100
AcDbLine
10
46333.333333
20
25000
30
0
11
46333.333333
21
19200
31
0
0
LINE
5
41A
330
10E
100
AcDbEntity
8
ST-SHEET-SCHEDULE
100
AcDbLine
10
49133.333333
20
25000
30
0
11
49133.333333
21
19200
31
0
0
LINE
5
41B
330
10E
100
AcDbEntity
8
ST-SHEET-SCHEDULE
100
AcDbLine
10
59133.333333
20
25000
30
0
11
59133.333333
21
19200
31
0
0
LINE
5
41C
330
10E
100
AcDbEntity
8
ST-SHEET-SCHEDULE
100
AcDbLine
10
69133.333333
20
25000
30
0
11
69133.333333
21
19200
31
0
0
LINE
5
41D
330
10E
100
AcDbEntity
8
ST-SHEET-SCHEDULE
100
AcDbLine
10
75133.333333
20
25000
30
0
11
75133.333333
21
19200
31
0
0
LINE
5
41E
330
10E
100
AcDbEntity
8
ST-SHEET-SCHEDULE
100
AcDbLine
10
86866.666667
20
25000
30
0
11
86866.666667
21
19200
31
0
0
LINE
5
41F
330
10E
100
AcDbEntity
8
ST-SHEET-SCHEDULE
100
AcDbLine
10
46333.333333
20
19200
30
0
11
86866.666667
21
19200
31
0
0
LWPOLYLINE
5
420
330
10E
100
AcDbEntity
8
ST-SHEET-SCHEDULE
100
AcDbPolyline
90
4
70
1
43
0
10
129200
20
105800
10
166200
20
105800
10
166200
20
107000
10
129200
20
107000
0
TEXT
5
421
330
10E
100
AcDbEntity
8
ST-SHEET-TEXT
100
AcDbText
10
147700
20
106400
30
0
40
520
1
BAR BENDING SCHEDULE
7
STANDARD
72
1
11
147700
21
106400
31
0
100
AcDbText
73
2
0
LWPOLYLINE
5
422
330
10E
100
AcDbEntity
8
ST-SHEET-SCHEDULE
100
AcDbPolyline
90
4
70
1
43
0
10
129200
20
104800
10
166200
20
104800
10
166200
20
105800
10
129200
20
105800
0
TEXT
5
423
330
10E
100
AcDbEntity
8
ST-SHEET-SCHEDULE-TEXT
100
AcDbText
10
130900
20
105300
30
0
40
320
1
MARK
7
STANDARD
72
1
11
130900
21
105300
31
0
100
AcDbText
73
2
0
TEXT
5
424
330
10E
100
AcDbEntity
8
ST-SHEET-SCHEDULE-TEXT
100
AcDbText
10
133400
20
105300
30
0
40
320
1
\U+00D8
7
STANDARD
72
1
11
133400
21
105300
31
0
100
AcDbText
73
2
0
TEXT
5
425
330
10E
100
AcDbEntity
8
ST-SHEET-SCHEDULE-TEXT
100
AcDbText
10
135500
20
105300
30
0
40
320
1
SHAPE
7
STANDARD
72
1
11
135500
21
105300
31
0
100
AcDbText
73
2
0
TEXT
5
426
330
10E
100
AcDbEntity
8
ST-SHEET-SCHEDULE-TEXT
100
AcDbText
10
138000
20
105300
30
0
40
320
1
SPAC.
7
STANDARD
72
1
11
138000
21
105300
31
0
100
AcDbText
73
2
0
TEXT
5
427
330
10E
100
AcDbEntity
8
ST-SHEET-SCHEDULE-TEXT
100
AcDbText
10
140900
20
105510
30
0
40
320
1
LENGTH
7
STANDARD
72
1
11
140900
21
105510
31
0
100
AcDbText
73
2
0
TEXT
5
428
330
10E
100
AcDbEntity
8
ST-SHEET-SCHEDULE-TEXT
100
AcDbText
10
140900
20
105090
30
0
40
320
1
(mm)
7
STANDARD
72
1
11
140900
21
105090
31
0
100
AcDbText
73
2
0
TEXT
5
429
330
10E
100
AcDbEntity
8
ST-SHEET-SCHEDULE-TEXT
100
AcDbText
10
143900
20
105300
30
0
40
320
1
QTY
7
STANDARD
72
1
11
143900
21
105300
31
0
100
AcDbText
73
2
0
TEXT
5
42A
330
10E
100
AcDbEntity
8
ST-SHEET-SCHEDULE-TEXT
100
AcDbText
10
146800
20
105510
30
0
40
320
1
TOTAL
7
STANDARD
72
1
11
146800
21
105510
31
0
100
AcDbText
73
2
0
TEXT
5
42B
330
10E
100
AcDbEntity
8
ST-SHEET-SCHEDULE-TEXT
100
AcDbText
10
146800
20
105090
30
0
40
320
1
(m)
7
STANDARD
72
1
11
146800
21
105090
31
0
100
AcDbText
73
2
0
TEXT
5
42C
330
10E
100
AcDbEntity
8
ST-SHEET-SCHEDULE-TEXT
100
AcDbText
10
150100
20
105510
30
0
40
320
1
WT.
7
STANDARD
72
1
11
150100
21
105510
31
0
100
AcDbText
73
2
0
TEXT
5
42D
330
10E
100
AcDbEntity
8
ST-SHEET-SCHEDULE-TEXT
100
AcDbText
10
150100
20
105090
30
0
40
320
1
(kg)
7
STANDARD
72
1
11
150100
21
105090
31
0
100
AcDbText
73
2
0
TEXT
5
42E
330
10E
100
AcDbEntity
8
ST-SHEET-SCHEDULE-TEXT
100
AcDbText
10
159000
20
105300
30
0
40
320
1
ZONES / REMARKS
7
STANDARD
72
1
11
159000
21
105300
31
0
100
AcDbText
73
2
0
TEXT
5
42F
330
10E
100
AcDbEntity
8
ST-SHEET-SCHEDULE-TEXT
100
AcDbText
10
130900
20
104400
30
0
40
340
1
T1-01
7
STANDARD
72
1
11
130900
21
104400
31
0
100
AcDbText
73
2
0
TEXT
5
430
330
10E
100
AcDbEntity
8
ST-SHEET-SCHEDULE-TEXT
100
AcDbText
10
133400
20
104400
30
0
40
340
1
16
7
STANDARD
72
1
11
133400
21
104400
31
0
100
AcDbText
73
2
0
TEXT
5
431
330
10E
100
AcDbEntity
8
ST-SHEET-SCHEDULE-TEXT
100
AcDbText
10
135500
20
104400
30
0
40
340
1
L
7
STANDARD
72
1
11
135500
21
104400
31
0
100
AcDbText
73
2
0
TEXT
5
432
330
10E
100
AcDbEntity
8
ST-SHEET-SCHEDULE-TEXT
100
AcDbText
10
138000
20
104400
30
0
40
340
1
150
7
STANDARD
72
1
11
138000
21
104400
31
0
100
AcDbText
73
2
0
TEXT
5
433
330
10E
100
AcDbEntity
8
ST-SHEET-SCHEDULE-TEXT
100
AcDbText
10
140900
20
104400
30
0
40
340
1
2730
7
STANDARD
72
1
11
140900
21
104400
31
0
100
AcDbText
73
2
0
TEXT
5
434
330
10E
100
AcDbEntity
8
ST-SHEET-SCHEDULE-TEXT
100
AcDbText
10
143900
20
104400
30
0
40
340
1
90
7
STANDARD
72
1
11
143900
21
104400
31
0
100
AcDbText
73
2
0
TEXT
5
435
330
10E
100
AcDbEntity
8
ST-SHEET-SCHEDULE-TEXT
100
AcDbText
10
146800
20
104400
30
0
40
340
1
245.7
7
STANDARD
72
1
11
146800
21
104400
31
0
100
AcDbText
73
2
0
TEXT
5
436
330
10E
100
AcDbEntity
8
ST-SHEET-SCHEDULE-TEXT
100
AcDbText
10
150100
20
104400
30
0
40
340
1
387.8
7
STANDARD
72
1
11
150100
21
104400
31
0
100
AcDbText
73
2
0
TEXT
5
437
330
10E
100
AcDbEntity
8
ST-SHEET-SCHEDULE-TEXT
100
AcDbText
10
152000
20
104400
30
0
40
340
1
TC1, TC2, TC3
7
STANDARD
72
0
11
152000
21
104400
31
0
100
AcDbText
73
2
0
LINE
5
438
330
10E
100
AcDbEntity
8
ST-SHEET-SCHEDULE
370
5
100
AcDbLine
10
129200
20
104000
30
0
11
166200
21
104000
31
0
0
TEXT
5
439
330
10E
100
AcDbEntity
8
ST-SHEET-SCHEDULE-TEXT
100
AcDbText
10
130900
20
103600
30
0
40
340
1
T1-02
7
STANDARD
72
1
11
130900
21
103600
31
0
100
AcDbText
73
2
0
TEXT
5
43A
330
10E
100
AcDbEntity
8
ST-SHEET-SCHEDULE-TEXT
100
AcDbText
10
133400
20
103600
30
0
40
340
1
16
7
STANDARD
72
1
11
133400
21
103600
31
0
100
AcDbText
73
2
0
TEXT
5
43B
330
10E
100
AcDbEntity
8
ST-SHEET-SCHEDULE-TEXT
100
AcDbText
10
135500
20
103600
30
0
40
340
1
STR
7
STANDARD
72
1
11
135500
21
103600
31
0
100
AcDbText
73
2
0
TEXT
5
43C
330
10E
100
AcDbEntity
8
ST-SHEET-SCHEDULE-TEXT
100
AcDbText
10
138000
20
103600
30
0
40
340
1
150
7
STANDARD
72
1
11
138000
21
103600
31
0
100
AcDbText
73
2
0
TEXT
5
43D
330
10E
100
AcDbEntity
8
ST-SHEET-SCHEDULE-TEXT
100
AcDbText
10
140900
20
103600
30
0
40
340
1
3100
7
STANDARD
72
1
11
140900
21
103600
31
0
100
AcDbText
73
2
0
TEXT
5
43E
330
10E
100
AcDbEntity
8
ST-SHEET-SCHEDULE-TEXT
100
AcDbText
10
143900
20
103600
30
0
40
340
1
90
7
STANDARD
72
1
11
143900
21
103600
31
0
100
AcDbText
73
2
0
TEXT
5
43F
330
10E
100
AcDbEntity
8
ST-SHEET-SCHEDULE-TEXT
100
AcDbText
10
146800
20
103600
30
0
40
340
1
279
7
STANDARD
72
1
11
146800
21
103600
31
0
100
AcDbText
73
2
0
TEXT
5
440
330
10E
100
AcDbEntity
8
ST-SHEET-SCHEDULE-TEXT
100
AcDbText
10
150100
20
103600
30
0
40
340
1
440.3
7
STANDARD
72
1
11
150100
21
103600
31
0
100
AcDbText
73
2
0
TEXT
5
441
330
10E
100
AcDbEntity
8
ST-SHEET-SCHEDULE-TEXT
100
AcDbText
10
152000
20
103600
30
0
40
340
1
TC4, TC5, TC6
7
STANDARD
72
0
11
152000
21
103600
31
0
100
AcDbText
73
2
0
LINE
5
442
330
10E
100
AcDbEntity
8
ST-SHEET-SCHEDULE
370
5
100
AcDbLine
10
129200
20
103200
30
0
11
166200
21
103200
31
0
0
TEXT
5
443
330
10E
100
AcDbEntity
8
ST-SHEET-SCHEDULE-TEXT
100
AcDbText
10
130900
20
102800
30
0
40
340
1
T2-01
7
STANDARD
72
1
11
130900
21
102800
31
0
100
AcDbText
73
2
0
TEXT
5
444
330
10E
100
AcDbEntity
8
ST-SHEET-SCHEDULE-TEXT
100
AcDbText
10
133400
20
102800
30
0
40
340
1
16
7
STANDARD
72
1
11
133400
21
102800
31
0
100
AcDbText
73
2
0
TEXT
5
445
330
10E
100
AcDbEntity
8
ST-SHEET-SCHEDULE-TEXT
100
AcDbText
10
135500
20
102800
30
0
40
340
1
L
7
STANDARD
72
1
11
135500
21
102800
31
0
100
AcDbText
73
2
0
TEXT
5
446
330
10E
100
AcDbEntity
8
ST-SHEET-SCHEDULE-TEXT
100
AcDbText
10
138000
20
102800
30
0
40
340
1
150
7
STANDARD
72
1
11
138000
21
102800
31
0
100
AcDbText
73
2
0
TEXT
5
447
330
10E
100
AcDbEntity
8
ST-SHEET-SCHEDULE-TEXT
100
AcDbText
10
140900
20
102800
30
0
40
340
1
3130
7
STANDARD
72
1
11
140900
21
102800
31
0
100
AcDbText
73
2
0
TEXT
5
448
330
10E
100
AcDbEntity
8
ST-SHEET-SCHEDULE-TEXT
100
AcDbText
10
143900
20
102800
30
0
40
340
1
36
7
STANDARD
72
1
11
143900
21
102800
31
0
100
AcDbText
73
2
0
TEXT
5
449
330
10E
100
AcDbEntity
8
ST-SHEET-SCHEDULE-TEXT
100
AcDbText
10
146800
20
102800
30
0
40
340
1
112.7
7
STANDARD
72
1
11
146800
21
102800
31
0
100
AcDbText
73
2
0
TEXT
5
44A
330
10E
100
AcDbEntity
8
ST-SHEET-SCHEDULE-TEXT
100
AcDbText
10
150100
20
102800
30
0
40
340
1
177.8
7
STANDARD
72
1
11
150100
21
102800
31
0
100
AcDbText
73
2
0
TEXT
5
44B
330
10E
100
AcDbEntity
8
ST-SHEET-SCHEDULE-TEXT
100
AcDbText
10
152000
20
102800
30
0
40
340
1
TC1, TC4
7
STANDARD
72
0
11
152000
21
102800
31
0
100
AcDbText
73
2
0
LINE
5
44C
330
10E
100
AcDbEntity
8
ST-SHEET-SCHEDULE
370
5
100
AcDbLine
10
129200
20
102400
30
0
11
166200
21
102400
31
0
0
TEXT
5
44D
330
10E
100
AcDbEntity
8
ST-SHEET-SCHEDULE-TEXT
100
AcDbText
10
130900
20
102000
30
0
40
340
1
T2-02
7
STANDARD
72
1
11
130900
21
102000
31
0
100
AcDbText
73
2
0
TEXT
5
44E
330
10E
100
AcDbEntity
8
ST-SHEET-SCHEDULE-TEXT
100
AcDbText
10
133400
20
102000
30
0
40
340
1
16
7
STANDARD
72
1
11
133400
21
102000
31
0
100
AcDbText
73
2
0
TEXT
5
44F
330
10E
100
AcDbEntity
8
ST-SHEET-SCHEDULE-TEXT
100
AcDbText
10
135500
20
102000
30
0
40
340
1
L
7
STANDARD
72
1
11
135500
21
102000
31
0
100
AcDbText
73
2
0
TEXT
5
450
330
10E
100
AcDbEntity
8
ST-SHEET-SCHEDULE-TEXT
100
AcDbText
10
138000
20
102000
30
0
40
340
1
150
7
STANDARD
72
1
11
138000
21
102000
31
0
100
AcDbText
73
2
0
TEXT
5
451
330
10E
100
AcDbEntity
8
ST-SHEET-SCHEDULE-TEXT
100
AcDbText
10
140900
20
102000
30
0
40
340
1
2630
7
STANDARD
72
1
11
140900
21
102000
31
0
100
AcDbText
73
2
0
TEXT
5
452
330
10E
100
AcDbEntity
8
ST-SHEET-SCHEDULE-TEXT
100
AcDbText
10
143900
20
102000
30
0
40
340
1
36
7
STANDARD
72
1
11
143900
21
102000
31
0
100
AcDbText
73
2
0
TEXT
5
453
330
10E
100
AcDbEntity
8
ST-SHEET-SCHEDULE-TEXT
100
AcDbText
10
146800
20
102000
30
0
40
340
1
94.7
7
STANDARD
72
1
11
146800
21
102000
31
0
100
AcDbText
73
2
0
TEXT
5
454
330
10E
100
AcDbEntity
8
ST-SHEET-SCHEDULE-TEXT
100
AcDbText
10
150100
20
102000
30
0
40
340
1
149.4
7
STANDARD
72
1
11
150100
21
102000
31
0
100
AcDbText
73
2
0
TEXT
5
455
330
10E
100
AcDbEntity
8
ST-SHEET-SCHEDULE-TEXT
100
AcDbText
10
152000
20
102000
30
0
40
340
1
TC3, TC6
7
STANDARD
72
0
11
152000
21
102000
31
0
100
AcDbText
73
2
0
LINE
5
456
330
10E
100
AcDbEntity
8
ST-SHEET-SCHEDULE
370
5
100
AcDbLine
10
129200
20
101600
30
0
11
166200
21
101600
31
0
0
TEXT
5
457
330
10E
100
AcDbEntity
8
ST-SHEET-SCHEDULE-TEXT
100
AcDbText
10
130900
20
101200
30
0
40
340
1
T2-03
7
STANDARD
72
1
11
130900
21
101200
31
0
100
AcDbText
73
2
0
TEXT
5
458
330
10E
100
AcDbEntity
8
ST-SHEET-SCHEDULE-TEXT
100
AcDbText
10
133400
20
101200
30
0
40
340
1
16
7
STANDARD
72
1
11
133400
21
101200
31
0
100
AcDbText
73
2
0
TEXT
5
459
330
10E
100
AcDbEntity
8
ST-SHEET-SCHEDULE-TEXT
100
AcDbText
10
135500
20
101200
30
0
40
340
1
STR
7
STANDARD
72
1
11
135500
21
101200
31
0
100
AcDbText
73
2
0
TEXT
5
45A
330
10E
100
AcDbEntity
8
ST-SHEET-SCHEDULE-TEXT
100
AcDbText
10
138000
20
101200
30
0
40
340
1
150
7
STANDARD
72
1
11
138000
21
101200
31
0
100
AcDbText
73
2
0
TEXT
5
45B
330
10E
100
AcDbEntity
8
ST-SHEET-SCHEDULE-TEXT
100
AcDbText
10
140900
20
101200
30
0
40
340
1
2900
7
STANDARD
72
1
11
140900
21
101200
31
0
100
AcDbText
73
2
0
TEXT
5
45C
330
10E
100
AcDbEntity
8
ST-SHEET-SCHEDULE-TEXT
100
AcDbText
10
143900
20
101200
30
0
40
340
1
108
7
STANDARD
72
1
11
143900
21
101200
31
0
100
AcDbText
73
2
0
TEXT
5
45D
330
10E
100
AcDbEntity
8
ST-SHEET-SCHEDULE-TEXT
100
AcDbText
10
146800
20
101200
30
0
40
340
1
313.2
7
STANDARD
72
1
11
146800
21
101200
31
0
100
AcDbText
73
2
0
TEXT
5
45E
330
10E
100
AcDbEntity
8
ST-SHEET-SCHEDULE-TEXT
100
AcDbText
10
150100
20
101200
30
0
40
340
1
494.3
7
STANDARD
72
1
11
150100
21
101200
31
0
100
AcDbText
73
2
0
TEXT
5
45F
330
10E
100
AcDbEntity
8
ST-SHEET-SCHEDULE-TEXT
100
AcDbText
10
152000
20
101200
30
0
40
340
1
TC2, TC5
7
STANDARD
72
0
11
152000
21
101200
31
0
100
AcDbText
73
2
0
LINE
5
460
330
10E
100
AcDbEntity
8
ST-SHEET-SCHEDULE
370
5
100
AcDbLine
10
129200
20
100800
30
0
11
166200
21
100800
31
0
0
LWPOLYLINE
5
461
330
10E
100
AcDbEntity
8
ST-SHEET-SCHEDULE
100
AcDbPolyline
90
4
70
1
43
0
10
129200
20
99900
10
166200
20
99900
10
166200
20
100800
10
129200
20
100800
0
TEXT
5
462
330
10E
100
AcDbEntity
8
ST-SHEET-SCHEDULE-TEXT
100
AcDbText
10
129600
20
100350
30
0
40
340
1
TOTAL 1,649.6 kg  \U+00B7  \U+00D816: 1045.3 m
7
STANDARD
72
0
11
129600
21
100350
31
0
100
AcDbText
73
2
0
LINE
5
463
330
10E
100
AcDbEntity
8
ST-SHEET-SCHEDULE
100
AcDbLine
10
129200
20
105800
30
0
11
129200
21
99900
31
0
0
LINE
5
464
330
10E
100
AcDbEntity
8
ST-SHEET-SCHEDULE
100
AcDbLine
10
132600
20
105800
30
0
11
132600
21
99900
31
0
0
LINE
5
465
330
10E
100
AcDbEntity
8
ST-SHEET-SCHEDULE
100
AcDbLine
10
134200
20
105800
30
0
11
134200
21
99900
31
0
0
LINE
5
466
330
10E
100
AcDbEntity
8
ST-SHEET-SCHEDULE
100
AcDbLine
10
136800
20
105800
30
0
11
136800
21
99900
31
0
0
LINE
5
467
330
10E
100
AcDbEntity
8
ST-SHEET-SCHEDULE
100
AcDbLine
10
139200
20
105800
30
0
11
139200
21
99900
31
0
0
LINE
5
468
330
10E
100
AcDbEntity
8
ST-SHEET-SCHEDULE
100
AcDbLine
10
142600
20
105800
30
0
11
142600
21
99900
31
0
0
LINE
5
469
330
10E
100
AcDbEntity
8
ST-SHEET-SCHEDULE
100
AcDbLine
10
145200
20
105800
30
0
11
145200
21
99900
31
0
0
LINE
5
46A
330
10E
100
AcDbEntity
8
ST-SHEET-SCHEDULE
100
AcDbLine
10
148400
20
105800
30
0
11
148400
21
99900
31
0
0
LINE
5
46B
330
10E
100
AcDbEntity
8
ST-SHEET-SCHEDULE
100
AcDbLine
10
151800
20
105800
30
0
11
151800
21
99900
31
0
0
LINE
5
46C
330
10E
100
AcDbEntity
8
ST-SHEET-SCHEDULE
100
AcDbLine
10
166200
20
105800
30
0
11
166200
21
99900
31
0
0
LINE
5
46D
330
10E
100
AcDbEntity
8
ST-SHEET-SCHEDULE
100
AcDbLine
10
129200
20
99900
30
0
11
166200
21
99900
31
0
0
TEXT
5
46E
330
10E
100
AcDbEntity
8
ST-SHEET-TITLE
100
AcDbText
10
129600
20
115900
30
0
40
440
1
KEY PLAN
7
STANDARD
72
0
100
AcDbText
73
0
0
LWPOLYLINE
5
46F
330
10E
100
AcDbEntity
8
ST-SHEET-TITLE
100
AcDbPolyline
90
4
70
1
43
0
10
137200
20
108200
10
158200
20
108200
10
158200
20
115600
10
137200
20
115600
0
LWPOLYLINE
5
470
330
10E
100
AcDbEntity
8
ST-SLAB-EDGE
100
AcDbPolyline
90
4
70
1
43
0
10
143825
20
108800
10
151575
20
108800
10
151575
20
115000
10
143825
20
115000
0
HATCH
5
471
330
10E
100
AcDbEntity
8
ST-HATCH
100
AcDbHatch
10
0
20
0
30
0
210
0
220
0
230
1
2
ANSI31
70
0
71
0
91
1
92
3
72
0
73
1
93
4
10
143825
20
108800
10
151575
20
108800
10
151575
20
115000
10
143825
20
115000
97
0
75
1
76
1
52
0
41
75.590551
77
0
78
1
53
45
43
0
44
0
45
-169.705627
46
169.705627
79
0
47
1
98
0
0
CIRCLE
5
472
330
10E
100
AcDbEntity
8
ST-TEXT
100
AcDbCircle
10
162200
20
111600
30
0
40
1200
0
SOLID
5
473
330
10E
100
AcDbEntity
8
ST-TEXT
100
AcDbTrace
10
162200
20
112600
30
0
11
161700
21
110900
31
0
12
162700
22
110900
32
0
13
162200
23
111360
33
0
0
TEXT
5
474
330
10E
100
AcDbEntity
8
ST-TEXT
100
AcDbText
10
162200
20
113100
30
0
40
500
1
N
7
STANDARD
72
1
11
162200
21
113100
31
0
100
AcDbText
73
0
0
TEXT
5
475
330
10E
100
AcDbEntity
8
ST-SHEET-TEXT
100
AcDbText
10
129800
20
78360
30
0
40
480
1
GENERAL NOTES
7
STANDARD
72
0
100
AcDbText
73
0
0
TEXT
5
476
330
10E
100
AcDbEntity
8
ST-SHEET-TEXT
100
AcDbText
10
165600
20
78360
30
0
40
440
1
\U+0645\U+0644\U+0627\U+062D\U+0638\U+0627\U+062A \U+0639\U+0627\U+0645\U+0629
7
STANDARD
72
2
11
165600
21
78360
31
0
100
AcDbText
73
0
0
LINE
5
477
330
10E
100
AcDbEntity
8
ST-SHEET-NOTES
100
AcDbLine
10
129800
20
78140
30
0
11
165600
21
78140
31
0
0
MTEXT
5
478
330
10E
100
AcDbEntity
8
ST-SHEET-NOTES
100
AcDbMText
10
129800
20
77880
30
0
40
350
41
35600
71
1
72
1
1
1. ALL DIMENSIONS ARE IN MILLIMETRES, LEVELS IN METRES UNLESS NOTED OTHERWISE. DO NOT SCALE; FOLLOW THE WRITTEN DIMENSIONS.
7
STANDARD
44
1
0
MTEXT
5
479
330
10E
100
AcDbEntity
8
ST-SHEET-NOTES
100
AcDbMText
10
129800
20
77270
30
0
40
350
41
35600
71
1
72
1
1
2. CONCRETE f'c = 35 MPa (drawing). REINFORCEMENT: DEFORMED BARS fy = 420 MPa (drawing). CLEAR COVER 25 mm TOP AND BOTTOM (drawing).
7
STANDARD
44
1
0
MTEXT
5
47A
330
10E
100
AcDbEntity
8
ST-SHEET-NOTES
100
AcDbMText
10
129800
20
76117.5
30
0
40
350
41
35600
71
1
72
1
1
3. SLAB THICKNESS 220 mm. THIS SHEET IS TO BE READ WITH THE CONSULTANT'S STRUCTURAL DRAWINGS (G.A.) AND THE PT LAYOUT; DISCREPANCIES TO BE REFERRED TO THE ENGINEER BEFORE FABRICATION.
7
STANDARD
44
1
0
MTEXT
5
47B
330
10E
100
AcDbEntity
8
ST-SHEET-NOTES
100
AcDbMText
10
129800
20
74965
30
0
40
350
41
35600
71
1
72
1
3
4. BAR CALL-OUT: [No.] T[\U+00D8] @[SPACING] - [LAYER-MARK] - (L = CUTTING LENGTH). STRAIGHT LENGTH IS WRITTEN UNDER THE BAR; A HOOK LEG IS WRITTEN AT THE HOOKED END. T1/T2 = TOP LAYERS, B1/B2 = BOTTOM LAYERS (1 = BARS PARALLEL TO THE NUMBERED GRIDS,
1
 2 = PARALLEL TO THE LETTERED GRIDS).
7
STANDARD
44
1
0
MTEXT
5
47C
330
10E
100
AcDbEntity
8
ST-SHEET-NOTES
100
AcDbMText
10
129800
20
73270
30
0
40
350
41
35600
71
1
72
1
1
5. THE DRAWN BAR IS REPRESENTATIVE OF THE GROUP; THE NUMBER OF BARS IN THE CALL-OUT IS PLACED AT THE GIVEN SPACING ACROSS THE ZONE. A SHORT OFFSET LINE MARKS THE LAP OF THE FOLLOWING PIECE.
7
STANDARD
44
1
0
MTEXT
5
47D
330
10E
100
AcDbEntity
8
ST-SHEET-NOTES
100
AcDbMText
10
129800
20
72117.5
30
0
40
350
41
35600
71
1
72
1
1
6. TENSION LAPS ARE CLASS B (1.3 ld) PER SBC 304-18 \U+00A725.5.2, SO ALL BARS OF A ROW MAY LAP AT THE SAME SECTION. BARS ENDING AT A FREE EDGE TERMINATE WITH A STANDARD 90\U+00B0 HOOK (12 \U+00D8) UNLESS NOTED.
7
STANDARD
44
1
0
MTEXT
5
47E
330
10E
100
AcDbEntity
8
ST-SHEET-NOTES
100
AcDbMText
10
129800
20
70965
30
0
40
350
41
35600
71
1
72
1
3
7. ADDITIONAL TOP BARS T16@150 OVER EVERY COLUMN: T1 PARALLEL TO THE NUMBERED GRIDS (PLAN 1), T2 PARALLEL TO THE LETTERED GRIDS (PLAN 2), PLACED WITHIN c2 + 1.5h EACH SIDE OF THE COLUMN (SBC 304-18 \U+00A78.7.5.5.1) AND EXTENDING NOT LESS THAN ln/6 B
1
EYOND THE FACE OF SUPPORT (\U+00A78.7.5.5.2).
7
STANDARD
44
1
0
MTEXT
5
47F
330
10E
100
AcDbEntity
8
ST-SHEET-NOTES
100
AcDbMText
10
129800
20
69270
30
0
40
350
41
35600
71
1
72
1
1
8. MINIMUM BONDED REINFORCEMENT OVER COLUMNS As = 0.00075\U+00B7Acf (\U+00A78.6.2.3) IS CHECKED PER COLUMN; WHERE IT GOVERNS THE BAR COUNT IS INCREASED (TYPE TABLE, DETAIL 2). TOP BARS SIT BELOW THE TOP COVER, ABOVE THE TENDONS, ON CHAIRS.
7
STANDARD
44
1
0
MTEXT
5
480
330
10E
100
AcDbEntity
8
ST-SHEET-NOTES
100
AcDbMText
10
129800
20
68117.5
30
0
40
350
41
35600
71
1
72
1
1
9. \U+00D816: ld 550 (bot) / 710 (top) \U+00B7 LAP 750 (bot) / 950 (top) \U+00B7 ldh 280
7
STANDARD
44
1
0
TEXT
5
481
330
10E
100
AcDbEntity
8
ST-SHEET-TEXT
100
AcDbText
10
129800
20
66867.5
30
0
40
480
1
ASSUMPTIONS
7
STANDARD
72
0
100
AcDbText
73
0
0
TEXT
5
482
330
10E
100
AcDbEntity
8
ST-SHEET-TEXT
100
AcDbText
10
165600
20
66867.5
30
0
40
440
1
\U+0627\U+0641\U+062A\U+0631\U+0627\U+0636\U+0627\U+062A
7
STANDARD
72
2
11
165600
21
66867.5
31
0
100
AcDbText
73
0
0
LINE
5
483
330
10E
100
AcDbEntity
8
ST-SHEET-NOTES
100
AcDbLine
10
129800
20
66647.5
30
0
11
165600
21
66647.5
31
0
0
MTEXT
5
484
330
10E
100
AcDbEntity
8
ST-SHEET-NOTES
100
AcDbMText
10
129800
20
66387.5
30
0
40
330
41
35600
71
1
72
1
1
A1. Bottom mesh not specified: T12@200 both ways assumed as bonded reinforcement in PT zones.
7
STANDARD
44
1
0
MTEXT
5
485
330
10E
100
AcDbEntity
8
ST-SHEET-NOTES
100
AcDbMText
10
129800
20
65797.5
30
0
40
330
41
35600
71
1
72
1
1
A2. Edge U-bars not specified: T12@200 with 1200 mm legs assumed at PT anchorage edges.
7
STANDARD
44
1
0
MTEXT
5
486
330
10E
100
AcDbEntity
8
ST-SHEET-NOTES
100
AcDbMText
10
129800
20
65207.5
30
0
40
330
41
35600
71
1
72
1
1
A3. Opening trimmers not specified: 2T16 T&B each side + 2T12 diagonals at corners assumed.
7
STANDARD
44
1
0
MTEXT
5
487
330
10E
100
AcDbEntity
8
ST-SHEET-NOTES
100
AcDbMText
10
129800
20
64617.5
30
0
40
330
41
35600
71
1
72
1
1
A4. Void trimmers not specified: 2T12 T&B each side assumed.
7
STANDARD
44
1
0
MTEXT
5
488
330
10E
100
AcDbEntity
8
ST-SHEET-NOTES
100
AcDbMText
10
129800
20
64027.5
30
0
40
330
41
35600
71
1
72
1
1
A5. Stock bar length 12 m; laps staggered so that not more than 50 % of bars lap at one section.
7
STANDARD
44
1
0
TEXT
5
489
330
10E
100
AcDbEntity
8
ST-SHEET-TEXT
100
AcDbText
10
129800
20
62797.5
30
0
40
480
1
CODE REFERENCE
7
STANDARD
72
0
100
AcDbText
73
0
0
TEXT
5
48A
330
10E
100
AcDbEntity
8
ST-SHEET-TEXT
100
AcDbText
10
165600
20
62797.5
30
0
40
440
1
\U+0627\U+0644\U+0645\U+0631\U+062C\U+0639 \U+0627\U+0644\U+0643\U+0648\U+062F\U+064A
7
STANDARD
72
2
11
165600
21
62797.5
31
0
100
AcDbText
73
0
0
LINE
5
48B
330
10E
100
AcDbEntity
8
ST-SHEET-NOTES
100
AcDbLine
10
129800
20
62577.5
30
0
11
165600
21
62577.5
31
0
0
MTEXT
5
48C
330
10E
100
AcDbEntity
8
ST-SHEET-NOTES
100
AcDbMText
10
129800
20
62317.5
30
0
40
350
41
35600
71
1
72
1
1
SBC 304-18 AS STATED ON THE STRUCTURAL DRAWINGS. DEVELOPMENT, ANCHORAGE AND LAP LENGTHS PER SBC 304-18 CHAPTER 25 (ACI 318-14 BASIS).
7
STANDARD
44
1
0
TEXT
5
48D
330
10E
100
AcDbEntity
8
ST-SHEET-TEXT
100
AcDbText
10
129800
20
60525
30
0
40
480
1
LEGEND
7
STANDARD
72
0
100
AcDbText
73
0
0
TEXT
5
48E
330
10E
100
AcDbEntity
8
ST-SHEET-TEXT
100
AcDbText
10
165600
20
60525
30
0
40
440
1
\U+0645\U+0641\U+062A\U+0627\U+062D \U+0627\U+0644\U+0631\U+0645\U+0648\U+0632
7
STANDARD
72
2
11
165600
21
60525
31
0
100
AcDbText
73
0
0
LINE
5
48F
330
10E
100
AcDbEntity
8
ST-SHEET-NOTES
100
AcDbLine
10
129800
20
60305
30
0
11
165600
21
60305
31
0
0
LINE
5
490
330
10E
100
AcDbEntity
8
ST-RB
370
50
100
AcDbLine
10
129800
20
59705
30
0
11
131400
21
59705
31
0
0
TEXT
5
491
330
10E
100
AcDbEntity
8
ST-SHEET-NOTES
100
AcDbText
10
131800
20
59605
30
0
40
340
1
T16 TOP BAR (REPRESENTATIVE)
7
STANDARD
72
0
100
AcDbText
73
0
0
LINE
5
492
330
10E
100
AcDbEntity
8
ST-CALLOUT
100
AcDbLine
10
129800
20
59105
30
0
11
131400
21
59105
31
0
0
TEXT
5
493
330
10E
100
AcDbEntity
8
ST-SHEET-NOTES
100
AcDbText
10
131800
20
59005
30
0
40
340
1
TOP BAR TYPE
7
STANDARD
72
0
100
AcDbText
73
0
0
SOLID
5
494
330
10E
100
AcDbEntity
8
ST-COL-HATCH
100
AcDbTrace
10
129800
20
58245
30
0
11
131400
21
58245
31
0
12
129800
22
58765
32
0
13
131400
23
58765
33
0
0
TEXT
5
495
330
10E
100
AcDbEntity
8
ST-SHEET-NOTES
100
AcDbText
10
131800
20
58405
30
0
40
340
1
COLUMN
7
STANDARD
72
0
100
AcDbText
73
0
0
LINE
5
496
330
10E
100
AcDbEntity
8
ST-SHEET-TITLE
100
AcDbLine
10
129200
20
41400
30
0
11
166200
21
41400
31
0
0
TEXT
5
497
330
10E
100
AcDbEntity
8
ST-SHEET-TITLE
100
AcDbText
10
147700
20
41900
30
0
40
340
1
COORDINATED WITH THE FOLLOWING DISCIPLINES
7
STANDARD
72
1
11
147700
21
41900
31
0
100
AcDbText
73
2
0
LINE
5
498
330
10E
100
AcDbEntity
8
ST-SHEET-TITLE
100
AcDbLine
10
129200
20
40200
30
0
11
166200
21
40200
31
0
0
TEXT
5
499
330
10E
100
AcDbEntity
8
ST-SHEET-TITLE
100
AcDbText
10
129500
20
40960
30
0
40
300
1
ARCH.
7
STANDARD
72
0
100
AcDbText
73
0
0
TEXT
5
49A
330
10E
100
AcDbEntity
8
ST-SHEET-TEXT
100
AcDbText
10
133825
20
40400
30
0
40
320
1

7
STANDARD
72
1
11
133825
21
40400
31
0
100
AcDbText
73
0
0
LINE
5
49B
330
10E
100
AcDbEntity
8
ST-SHEET-TITLE
100
AcDbLine
10
138450
20
40200
30
0
11
138450
21
41400
31
0
0
TEXT
5
49C
330
10E
100
AcDbEntity
8
ST-SHEET-TITLE
100
AcDbText
10
138750
20
40960
30
0
40
300
1
STRUCT.
7
STANDARD
72
0
100
AcDbText
73
0
0
TEXT
5
49D
330
10E
100
AcDbEntity
8
ST-SHEET-TEXT
100
AcDbText
10
143075
20
40400
30
0
40
320
1

7
STANDARD
72
1
11
143075
21
40400
31
0
100
AcDbText
73
0
0
LINE
5
49E
330
10E
100
AcDbEntity
8
ST-SHEET-TITLE
100
AcDbLine
10
147700
20
40200
30
0
11
147700
21
41400
31
0
0
TEXT
5
49F
330
10E
100
AcDbEntity
8
ST-SHEET-TITLE
100
AcDbText
10
148000
20
40960
30
0
40
300
1
MEP
7
STANDARD
72
0
100
AcDbText
73
0
0
TEXT
5
4A0
330
10E
100
AcDbEntity
8
ST-SHEET-TEXT
100
AcDbText
10
152325
20
40400
30
0
40
320
1

7
STANDARD
72
1
11
152325
21
40400
31
0
100
AcDbText
73
0
0
LINE
5
4A1
330
10E
100
AcDbEntity
8
ST-SHEET-TITLE
100
AcDbLine
10
156950
20
40200
30
0
11
156950
21
41400
31
0
0
TEXT
5
4A2
330
10E
100
AcDbEntity
8
ST-SHEET-TITLE
100
AcDbText
10
157250
20
40960
30
0
40
300
1
EL.
7
STANDARD
72
0
100
AcDbText
73
0
0
TEXT
5
4A3
330
10E
100
AcDbEntity
8
ST-SHEET-TEXT
100
AcDbText
10
161575
20
40400
30
0
40
320
1

7
STANDARD
72
1
11
161575
21
40400
31
0
100
AcDbText
73
0
0
LINE
5
4A4
330
10E
100
AcDbEntity
8
ST-SHEET-TITLE
100
AcDbLine
10
129200
20
39200
30
0
11
166200
21
39200
31
0
0
TEXT
5
4A5
330
10E
100
AcDbEntity
8
ST-SHEET-TITLE
100
AcDbText
10
147700
20
39700
30
0
40
340
1
CONTRACT DRAWING REFERENCES
7
STANDARD
72
1
11
147700
21
39700
31
0
100
AcDbText
73
2
0
LINE
5
4A6
330
10E
100
AcDbEntity
8
ST-SHEET-TITLE
100
AcDbLine
10
129200
20
38400
30
0
11
166200
21
38400
31
0
0
TEXT
5
4A7
330
10E
100
AcDbEntity
8
ST-SHEET-TITLE
100
AcDbText
10
135366.666667
20
38800
30
0
40
300
1
ARCHITECTURAL
7
STANDARD
72
1
11
135366.666667
21
38800
31
0
100
AcDbText
73
2
0
LINE
5
4A8
330
10E
100
AcDbEntity
8
ST-SHEET-TITLE
100
AcDbLine
10
141533.333333
20
38400
30
0
11
141533.333333
21
39200
31
0
0
TEXT
5
4A9
330
10E
100
AcDbEntity
8
ST-SHEET-TITLE
100
AcDbText
10
147700
20
38800
30
0
40
300
1
STRUCTURAL
7
STANDARD
72
1
11
147700
21
38800
31
0
100
AcDbText
73
2
0
LINE
5
4AA
330
10E
100
AcDbEntity
8
ST-SHEET-TITLE
100
AcDbLine
10
153866.666667
20
38400
30
0
11
153866.666667
21
39200
31
0
0
TEXT
5
4AB
330
10E
100
AcDbEntity
8
ST-SHEET-TITLE
100
AcDbText
10
160033.333333
20
38800
30
0
40
300
1
MEP
7
STANDARD
72
1
11
160033.333333
21
38800
31
0
100
AcDbText
73
2
0
LINE
5
4AC
330
10E
100
AcDbEntity
8
ST-SHEET-TITLE
100
AcDbLine
10
129200
20
37600
30
0
11
166200
21
37600
31
0
0
LINE
5
4AD
330
10E
100
AcDbEntity
8
ST-SHEET-TITLE
100
AcDbLine
10
139133.333333
20
37600
30
0
11
139133.333333
21
38400
31
0
0
TEXT
5
4AE
330
10E
100
AcDbEntity
8
ST-SHEET-TITLE
100
AcDbText
10
129500
20
37860
30
0
40
260
1
DRAWING No.
7
STANDARD
72
0
100
AcDbText
73
0
0
TEXT
5
4AF
330
10E
100
AcDbEntity
8
ST-SHEET-TITLE
100
AcDbText
10
140333.333333
20
37860
30
0
40
260
1
REV.
7
STANDARD
72
1
11
140333.333333
21
37860
31
0
100
AcDbText
73
0
0
LINE
5
4B0
330
10E
100
AcDbEntity
8
ST-SHEET-TITLE
100
AcDbLine
10
141533.333333
20
37600
30
0
11
141533.333333
21
38400
31
0
0
LINE
5
4B1
330
10E
100
AcDbEntity
8
ST-SHEET-TITLE
100
AcDbLine
10
151466.666667
20
37600
30
0
11
151466.666667
21
38400
31
0
0
TEXT
5
4B2
330
10E
100
AcDbEntity
8
ST-SHEET-TITLE
100
AcDbText
10
141833.333333
20
37860
30
0
40
260
1
DRAWING No.
7
STANDARD
72
0
100
AcDbText
73
0
0
TEXT
5
4B3
330
10E
100
AcDbEntity
8
ST-SHEET-TITLE
100
AcDbText
10
152666.666667
20
37860
30
0
40
260
1
REV.
7
STANDARD
72
1
11
152666.666667
21
37860
31
0
100
AcDbText
73
0
0
LINE
5
4B4
330
10E
100
AcDbEntity
8
ST-SHEET-TITLE
100
AcDbLine
10
153866.666667
20
37600
30
0
11
153866.666667
21
38400
31
0
0
LINE
5
4B5
330
10E
100
AcDbEntity
8
ST-SHEET-TITLE
100
AcDbLine
10
163800
20
37600
30
0
11
163800
21
38400
31
0
0
TEXT
5
4B6
330
10E
100
AcDbEntity
8
ST-SHEET-TITLE
100
AcDbText
10
154166.666667
20
37860
30
0
40
260
1
DRAWING No.
7
STANDARD
72
0
100
AcDbText
73
0
0
TEXT
5
4B7
330
10E
100
AcDbEntity
8
ST-SHEET-TITLE
100
AcDbText
10
165000
20
37860
30
0
40
260
1
REV.
7
STANDARD
72
1
11
165000
21
37860
31
0
100
AcDbText
73
0
0
LINE
5
4B8
330
10E
100
AcDbEntity
8
ST-SHEET-TITLE
100
AcDbLine
10
129200
20
36800
30
0
11
166200
21
36800
31
0
0
LINE
5
4B9
330
10E
100
AcDbEntity
8
ST-SHEET-TITLE
100
AcDbLine
10
139133.333333
20
36800
30
0
11
139133.333333
21
37600
31
0
0
LINE
5
4BA
330
10E
100
AcDbEntity
8
ST-SHEET-TITLE
100
AcDbLine
10
141533.333333
20
36800
30
0
11
141533.333333
21
37600
31
0
0
LINE
5
4BB
330
10E
100
AcDbEntity
8
ST-SHEET-TITLE
100
AcDbLine
10
151466.666667
20
36800
30
0
11
151466.666667
21
37600
31
0
0
LINE
5
4BC
330
10E
100
AcDbEntity
8
ST-SHEET-TITLE
100
AcDbLine
10
153866.666667
20
36800
30
0
11
153866.666667
21
37600
31
0
0
LINE
5
4BD
330
10E
100
AcDbEntity
8
ST-SHEET-TITLE
100
AcDbLine
10
163800
20
36800
30
0
11
163800
21
37600
31
0
0
LINE
5
4BE
330
10E
100
AcDbEntity
8
ST-SHEET-TITLE
100
AcDbLine
10
129200
20
36000
30
0
11
166200
21
36000
31
0
0
LINE
5
4BF
330
10E
100
AcDbEntity
8
ST-SHEET-TITLE
100
AcDbLine
10
139133.333333
20
36000
30
0
11
139133.333333
21
36800
31
0
0
LINE
5
4C0
330
10E
100
AcDbEntity
8
ST-SHEET-TITLE
100
AcDbLine
10
141533.333333
20
36000
30
0
11
141533.333333
21
36800
31
0
0
LINE
5
4C1
330
10E
100
AcDbEntity
8
ST-SHEET-TITLE
100
AcDbLine
10
151466.666667
20
36000
30
0
11
151466.666667
21
36800
31
0
0
LINE
5
4C2
330
10E
100
AcDbEntity
8
ST-SHEET-TITLE
100
AcDbLine
10
153866.666667
20
36000
30
0
11
153866.666667
21
36800
31
0
0
LINE
5
4C3
330
10E
100
AcDbEntity
8
ST-SHEET-TITLE
100
AcDbLine
10
163800
20
36000
30
0
11
163800
21
36800
31
0
0
LINE
5
4C4
330
10E
100
AcDbEntity
8
ST-SHEET-TITLE
100
AcDbLine
10
129200
20
35200
30
0
11
166200
21
35200
31
0
0
TEXT
5
4C5
330
10E
100
AcDbEntity
8
ST-SHEET-TITLE
100
AcDbText
10
130400
20
35600
30
0
40
280
1
REV.
7
STANDARD
72
1
11
130400
21
35600
31
0
100
AcDbText
73
2
0
LINE
5
4C6
330
10E
100
AcDbEntity
8
ST-SHEET-TITLE
100
AcDbLine
10
131600
20
35200
30
0
11
131600
21
36000
31
0
0
TEXT
5
4C7
330
10E
100
AcDbEntity
8
ST-SHEET-TITLE
100
AcDbText
10
143400
20
35600
30
0
40
280
1
DESCRIPTION
7
STANDARD
72
1
11
143400
21
35600
31
0
100
AcDbText
73
2
0
LINE
5
4C8
330
10E
100
AcDbEntity
8
ST-SHEET-TITLE
100
AcDbLine
10
155200
20
35200
30
0
11
155200
21
36000
31
0
0
TEXT
5
4C9
330
10E
100
AcDbEntity
8
ST-SHEET-TITLE
100
AcDbText
10
158200
20
35600
30
0
40
280
1
DATE
7
STANDARD
72
1
11
158200
21
35600
31
0
100
AcDbText
73
2
0
LINE
5
4CA
330
10E
100
AcDbEntity
8
ST-SHEET-TITLE
100
AcDbLine
10
161200
20
35200
30
0
11
161200
21
36000
31
0
0
TEXT
5
4CB
330
10E
100
AcDbEntity
8
ST-SHEET-TITLE
100
AcDbText
10
163700
20
35600
30
0
40
280
1
BY
7
STANDARD
72
1
11
163700
21
35600
31
0
100
AcDbText
73
2
0
LINE
5
4CC
330
10E
100
AcDbEntity
8
ST-SHEET-TITLE
100
AcDbLine
10
129200
20
34400
30
0
11
166200
21
34400
31
0
0
TEXT
5
4CD
330
10E
100
AcDbEntity
8
ST-SHEET-TEXT
100
AcDbText
10
130400
20
34600
30
0
40
300
1
00
7
STANDARD
72
1
11
130400
21
34600
31
0
100
AcDbText
73
0
0
LINE
5
4CE
330
10E
100
AcDbEntity
8
ST-SHEET-TITLE
100
AcDbLine
10
131600
20
34400
30
0
11
131600
21
35200
31
0
0
TEXT
5
4CF
330
10E
100
AcDbEntity
8
ST-SHEET-TEXT
100
AcDbText
10
131900
20
34600
30
0
40
300
1
ISSUED FOR APPROVAL
7
STANDARD
72
0
100
AcDbText
73
0
0
LINE
5
4D0
330
10E
100
AcDbEntity
8
ST-SHEET-TITLE
100
AcDbLine
10
155200
20
34400
30
0
11
155200
21
35200
31
0
0
TEXT
5
4D1
330
10E
100
AcDbEntity
8
ST-SHEET-TEXT
100
AcDbText
10
158200
20
34600
30
0
40
300
1
2026-09-26
7
STANDARD
72
1
11
158200
21
34600
31
0
100
AcDbText
73
0
0
LINE
5
4D2
330
10E
100
AcDbEntity
8
ST-SHEET-TITLE
100
AcDbLine
10
161200
20
34400
30
0
11
161200
21
35200
31
0
0
TEXT
5
4D3
330
10E
100
AcDbEntity
8
ST-SHEET-TEXT
100
AcDbText
10
163700
20
34600
30
0
40
300
1

7
STANDARD
72
1
11
163700
21
34600
31
0
100
AcDbText
73
0
0
LINE
5
4D4
330
10E
100
AcDbEntity
8
ST-SHEET-TITLE
100
AcDbLine
10
129200
20
33600
30
0
11
166200
21
33600
31
0
0
LINE
5
4D5
330
10E
100
AcDbEntity
8
ST-SHEET-TITLE
100
AcDbLine
10
131600
20
33600
30
0
11
131600
21
34400
31
0
0
LINE
5
4D6
330
10E
100
AcDbEntity
8
ST-SHEET-TITLE
100
AcDbLine
10
155200
20
33600
30
0
11
155200
21
34400
31
0
0
LINE
5
4D7
330
10E
100
AcDbEntity
8
ST-SHEET-TITLE
100
AcDbLine
10
161200
20
33600
30
0
11
161200
21
34400
31
0
0
LINE
5
4D8
330
10E
100
AcDbEntity
8
ST-SHEET-TITLE
100
AcDbLine
10
129200
20
32800
30
0
11
166200
21
32800
31
0
0
LINE
5
4D9
330
10E
100
AcDbEntity
8
ST-SHEET-TITLE
100
AcDbLine
10
131600
20
32800
30
0
11
131600
21
33600
31
0
0
LINE
5
4DA
330
10E
100
AcDbEntity
8
ST-SHEET-TITLE
100
AcDbLine
10
155200
20
32800
30
0
11
155200
21
33600
31
0
0
LINE
5
4DB
330
10E
100
AcDbEntity
8
ST-SHEET-TITLE
100
AcDbLine
10
161200
20
32800
30
0
11
161200
21
33600
31
0
0
LINE
5
4DC
330
10E
100
AcDbEntity
8
ST-SHEET-TITLE
100
AcDbLine
10
129200
20
32000
30
0
11
166200
21
32000
31
0
0
LINE
5
4DD
330
10E
100
AcDbEntity
8
ST-SHEET-TITLE
100
AcDbLine
10
131600
20
32000
30
0
11
131600
21
32800
31
0
0
LINE
5
4DE
330
10E
100
AcDbEntity
8
ST-SHEET-TITLE
100
AcDbLine
10
155200
20
32000
30
0
11
155200
21
32800
31
0
0
LINE
5
4DF
330
10E
100
AcDbEntity
8
ST-SHEET-TITLE
100
AcDbLine
10
161200
20
32000
30
0
11
161200
21
32800
31
0
0
LINE
5
4E0
330
10E
100
AcDbEntity
8
ST-SHEET-TITLE
100
AcDbLine
10
129200
20
29000
30
0
11
166200
21
29000
31
0
0
TEXT
5
4E1
330
10E
100
AcDbEntity
8
ST-SHEET-TITLE
100
AcDbText
10
129500
20
31400
30
0
40
300
1
PROJECT
7
STANDARD
72
0
100
AcDbText
73
0
0
TEXT
5
4E2
330
10E
100
AcDbEntity
8
ST-SHEET-TEXT
100
AcDbText
10
129500
20
30760
30
0
40
420
1
PROPOSED MIXED-USE BUILDING
7
STANDARD
72
0
100
AcDbText
73
0
0
TEXT
5
4E3
330
10E
100
AcDbEntity
8
ST-SHEET-TITLE
100
AcDbText
10
129500
20
29260
30
0
40
340
1
RIYADH, KSA
7
STANDARD
72
0
100
AcDbText
73
0
0
LINE
5
4E4
330
10E
100
AcDbEntity
8
ST-SHEET-TITLE
100
AcDbLine
10
129200
20
27200
30
0
11
166200
21
27200
31
0
0
TEXT
5
4E5
330
10E
100
AcDbEntity
8
ST-SHEET-TITLE
100
AcDbText
10
129500
20
28400
30
0
40
300
1
THE CLIENT
7
STANDARD
72
0
100
AcDbText
73
0
0
TEXT
5
4E6
330
10E
100
AcDbEntity
8
ST-SHEET-TEXT
100
AcDbText
10
129500
20
27760
30
0
40
440
1
DEMO CLIENT
7
STANDARD
72
0
100
AcDbText
73
0
0
LINE
5
4E7
330
10E
100
AcDbEntity
8
ST-SHEET-TITLE
100
AcDbLine
10
129200
20
25400
30
0
11
166200
21
25400
31
0
0
TEXT
5
4E8
330
10E
100
AcDbEntity
8
ST-SHEET-TITLE
100
AcDbText
10
129500
20
26600
30
0
40
300
1
THE ENGINEER (CONSULTANT)
7
STANDARD
72
0
100
AcDbText
73
0
0
LINE
5
4E9
330
10E
100
AcDbEntity
8
ST-SHEET-TITLE
100
AcDbLine
10
129200
20
23600
30
0
11
166200
21
23600
31
0
0
TEXT
5
4EA
330
10E
100
AcDbEntity
8
ST-SHEET-TITLE
100
AcDbText
10
129500
20
24800
30
0
40
300
1
MAIN CONTRACTOR
7
STANDARD
72
0
100
AcDbText
73
0
0
LINE
5
4EB
330
10E
100
AcDbEntity
8
ST-SHEET-TITLE
100
AcDbLine
10
129200
20
20400
30
0
11
166200
21
20400
31
0
0
TEXT
5
4EC
330
10E
100
AcDbEntity
8
ST-SHEET-TITLE
100
AcDbText
10
129500
20
23000
30
0
40
300
1
POST-TENSION SUB-CONTRACTOR / SHOP DRAWINGS BY
7
STANDARD
72
0
100
AcDbText
73
0
0
TEXT
5
4ED
330
10E
100
AcDbEntity
8
ST-SHEET-TEXT
100
AcDbText
10
147700
20
21900
30
0
40
800
1
SPAN TECH CONTRACTING
7
STANDARD
72
1
11
147700
21
21900
31
0
100
AcDbText
73
2
0
TEXT
5
4EE
330
10E
100
AcDbEntity
8
ST-SHEET-TITLE
100
AcDbText
10
147700
20
20900
30
0
40
340
1
POST-TENSIONED SLABS \U+00B7 KSA \U+00B7 EGYPT \U+00B7 QATAR
7
STANDARD
72
1
11
147700
21
20900
31
0
100
AcDbText
73
2
0
LINE
5
4EF
330
10E
100
AcDbEntity
8
ST-SHEET-TITLE
100
AcDbLine
10
129200
20
16400
30
0
11
166200
21
16400
31
0
0
TEXT
5
4F0
330
10E
100
AcDbEntity
8
ST-SHEET-TITLE
100
AcDbText
10
129500
20
19800
30
0
40
300
1
DRAWING TITLE
7
STANDARD
72
0
100
AcDbText
73
0
0
TEXT
5
4F1
330
10E
100
AcDbEntity
8
ST-SHEET-TEXT
100
AcDbText
10
129500
20
18900
30
0
40
580
1
ADDITIONAL TOP REINFORCEMENT OVER
7
STANDARD
72
0
100
AcDbText
73
0
0
TEXT
5
4F2
330
10E
100
AcDbEntity
8
ST-SHEET-TEXT
100
AcDbText
10
129500
20
18120
30
0
40
580
1
COLUMNS (T1 / T2)
7
STANDARD
72
0
100
AcDbText
73
0
0
TEXT
5
4F3
330
10E
100
AcDbEntity
8
ST-SHEET-TITLE
100
AcDbText
10
129500
20
16660
30
0
40
400
1
L02 - ROOF SLAB PLAN
7
STANDARD
72
0
100
AcDbText
73
0
0
LINE
5
4F4
330
10E
100
AcDbEntity
8
ST-SHEET-TITLE
100
AcDbLine
10
129200
20
14200
30
0
11
166200
21
14200
31
0
0
LINE
5
4F5
330
10E
100
AcDbEntity
8
ST-SHEET-TITLE
100
AcDbLine
10
147700
20
14200
30
0
11
147700
21
16400
31
0
0
LINE
5
4F6
330
10E
100
AcDbEntity
8
ST-SHEET-TITLE
100
AcDbLine
10
155840
20
14200
30
0
11
155840
21
16400
31
0
0
TEXT
5
4F7
330
10E
100
AcDbEntity
8
ST-SHEET-TITLE
100
AcDbText
10
129500
20
15800
30
0
40
300
1
DRAWING No.
7
STANDARD
72
0
100
AcDbText
73
0
0
TEXT
5
4F8
330
10E
100
AcDbEntity
8
ST-SHEET-TEXT
100
AcDbText
10
129500
20
14960
30
0
40
640
1
ST-SD-L02-03
7
STANDARD
72
0
100
AcDbText
73
0
0
TEXT
5
4F9
330
10E
100
AcDbEntity
8
ST-SHEET-TITLE
100
AcDbText
10
148000
20
15800
30
0
40
300
1
REV.
7
STANDARD
72
0
100
AcDbText
73
0
0
TEXT
5
4FA
330
10E
100
AcDbEntity
8
ST-SHEET-TEXT
100
AcDbText
10
148000
20
14960
30
0
40
640
1
00
7
STANDARD
72
0
100
AcDbText
73
0
0
TEXT
5
4FB
330
10E
100
AcDbEntity
8
ST-SHEET-TITLE
100
AcDbText
10
156140
20
15800
30
0
40
300
1
DATE
7
STANDARD
72
0
100
AcDbText
73
0
0
TEXT
5
4FC
330
10E
100
AcDbEntity
8
ST-SHEET-TEXT
100
AcDbText
10
156140
20
15120
30
0
40
480
1
2026-09-26
7
STANDARD
72
0
100
AcDbText
73
0
0
LINE
5
4FD
330
10E
100
AcDbEntity
8
ST-SHEET-TITLE
100
AcDbLine
10
129200
20
12000
30
0
11
166200
21
12000
31
0
0
LINE
5
4FE
330
10E
100
AcDbEntity
8
ST-SHEET-TITLE
100
AcDbLine
10
144000
20
12000
30
0
11
144000
21
14200
31
0
0
LINE
5
4FF
330
10E
100
AcDbEntity
8
ST-SHEET-TITLE
100
AcDbLine
10
153620
20
12000
30
0
11
153620
21
14200
31
0
0
TEXT
5
500
330
10E
100
AcDbEntity
8
ST-SHEET-TITLE
100
AcDbText
10
129500
20
13600
30
0
40
300
1
SCALE (A1)
7
STANDARD
72
0
100
AcDbText
73
0
0
TEXT
5
501
330
10E
100
AcDbEntity
8
ST-SHEET-TEXT
100
AcDbText
10
129500
20
12920
30
0
40
480
1
1:200 (DETAILS AS NOTED)
7
STANDARD
72
0
100
AcDbText
73
0
0
TEXT
5
502
330
10E
100
AcDbEntity
8
ST-SHEET-TITLE
100
AcDbText
10
144300
20
13600
30
0
40
300
1
SHEET
7
STANDARD
72
0
100
AcDbText
73
0
0
TEXT
5
503
330
10E
100
AcDbEntity
8
ST-SHEET-TEXT
100
AcDbText
10
144300
20
12920
30
0
40
480
1
12 OF 17
7
STANDARD
72
0
100
AcDbText
73
0
0
TEXT
5
504
330
10E
100
AcDbEntity
8
ST-SHEET-TITLE
100
AcDbText
10
153920
20
13600
30
0
40
300
1
GRID REFERENCE
7
STANDARD
72
0
100
AcDbText
73
0
0
TEXT
5
505
330
10E
100
AcDbEntity
8
ST-SHEET-TEXT
100
AcDbText
10
153920
20
12960
30
0
40
440
1
A-E / 1-4
7
STANDARD
72
0
100
AcDbText
73
0
0
LINE
5
506
330
10E
100
AcDbEntity
8
ST-SHEET-TITLE
100
AcDbLine
10
129200
20
9000
30
0
11
166200
21
9000
31
0
0
LINE
5
507
330
10E
100
AcDbEntity
8
ST-SHEET-TITLE
100
AcDbLine
10
141533.333333
20
9000
30
0
11
141533.333333
21
12000
31
0
0
LINE
5
508
330
10E
100
AcDbEntity
8
ST-SHEET-TITLE
100
AcDbLine
10
153866.666667
20
9000
30
0
11
153866.666667
21
12000
31
0
0
TEXT
5
509
330
10E
100
AcDbEntity
8
ST-SHEET-TITLE
100
AcDbText
10
129500
20
11400
30
0
40
300
1
PREPARED
7
STANDARD
72
0
100
AcDbText
73
0
0
TEXT
5
50A
330
10E
100
AcDbEntity
8
ST-SHEET-TEXT
100
AcDbText
10
129500
20
10500
30
0
40
400
1
SPAN TECH DESIGN OFFICE
7
STANDARD
72
0
100
AcDbText
73
0
0
TEXT
5
50B
330
10E
100
AcDbEntity
8
ST-SHEET-TITLE
100
AcDbText
10
129500
20
9260
30
0
40
280
1
SIGN / DATE: ..........
7
STANDARD
72
0
100
AcDbText
73
0
0
TEXT
5
50C
330
10E
100
AcDbEntity
8
ST-SHEET-TITLE
100
AcDbText
10
141833.333333
20
11400
30
0
40
300
1
CHECKED
7
STANDARD
72
0
100
AcDbText
73
0
0
TEXT
5
50D
330
10E
100
AcDbEntity
8
ST-SHEET-TEXT
100
AcDbText
10
141833.333333
20
10500
30
0
40
400
1

7
STANDARD
72
0
100
AcDbText
73
0
0
TEXT
5
50E
330
10E
100
AcDbEntity
8
ST-SHEET-TITLE
100
AcDbText
10
141833.333333
20
9260
30
0
40
280
1
SIGN / DATE: ..........
7
STANDARD
72
0
100
AcDbText
73
0
0
TEXT
5
50F
330
10E
100
AcDbEntity
8
ST-SHEET-TITLE
100
AcDbText
10
154166.666667
20
11400
30
0
40
300
1
APPROVED
7
STANDARD
72
0
100
AcDbText
73
0
0
TEXT
5
510
330
10E
100
AcDbEntity
8
ST-SHEET-TEXT
100
AcDbText
10
154166.666667
20
10500
30
0
40
400
1

7
STANDARD
72
0
100
AcDbText
73
0
0
TEXT
5
511
330
10E
100
AcDbEntity
8
ST-SHEET-TITLE
100
AcDbText
10
154166.666667
20
9260
30
0
40
280
1
SIGN / DATE: ..........
7
STANDARD
72
0
100
AcDbText
73
0
0
LINE
5
512
330
10E
100
AcDbEntity
8
ST-SHEET-TITLE
100
AcDbLine
10
129200
20
7000
30
0
11
166200
21
7000
31
0
0
LINE
5
513
330
10E
100
AcDbEntity
8
ST-SHEET-TITLE
100
AcDbLine
10
140300
20
7000
30
0
11
140300
21
9000
31
0
0
LINE
5
514
330
10E
100
AcDbEntity
8
ST-SHEET-TITLE
100
AcDbLine
10
152140
20
7000
30
0
11
152140
21
9000
31
0
0
TEXT
5
515
330
10E
100
AcDbEntity
8
ST-SHEET-TITLE
100
AcDbText
10
129500
20
8400
30
0
40
300
1
DRAWING INDEX
7
STANDARD
72
0
100
AcDbText
73
0
0
TEXT
5
516
330
10E
100
AcDbEntity
8
ST-SHEET-TEXT
100
AcDbText
10
129500
20
7800
30
0
40
400
1
ST-SD-000
7
STANDARD
72
0
100
AcDbText
73
0
0
TEXT
5
517
330
10E
100
AcDbEntity
8
ST-SHEET-TITLE
100
AcDbText
10
140600
20
8400
30
0
40
300
1
CODE REFERENCE
7
STANDARD
72
0
100
AcDbText
73
0
0
TEXT
5
518
330
10E
100
AcDbEntity
8
ST-SHEET-TEXT
100
AcDbText
10
140600
20
7840
30
0
40
360
1
SBC 304-18 (ON DRAWINGS)
7
STANDARD
72
0
100
AcDbText
73
0
0
TEXT
5
519
330
10E
100
AcDbEntity
8
ST-SHEET-TITLE
100
AcDbText
10
152440
20
8400
30
0
40
300
1
BLOCK / XREF
7
STANDARD
72
0
100
AcDbText
73
0
0
TEXT
5
51A
330
10E
100
AcDbEntity
8
ST-SHEET-TEXT
100
AcDbText
10
152440
20
7920
30
0
40
280
1
FRAMING_REBAR_ADDITIONAL_AT_COLUMNS_L02
7
STANDARD
72
0
100
AcDbText
73
0
0
TEXT
5
51B
330
10E
100
AcDbEntity
8
ST-SHEET-TEXT
100
AcDbText
10
147700
20
4500
30
0
40
460
1
SHOP DRAWING - FOR CONSULTANT APPROVAL
7
STANDARD
72
1
11
147700
21
4500
31
0
100
AcDbText
73
2
0
LWPOLYLINE
5
51C
330
10E
100
AcDbEntity
8
ST-SHEET-TITLE
370
50
100
AcDbPolyline
90
4
70
1
43
0
10
129200
20
2000
10
166200
20
2000
10
166200
20
32000
10
129200
20
32000
0
CIRCLE
5
51D
330
10E
100
AcDbEntity
8
ST-CALLOUT
100
AcDbCircle
10
6800
20
28440
30
0
40
800
0
TEXT
5
51E
330
10E
100
AcDbEntity
8
ST-CALLOUT
100
AcDbText
10
6800
20
28440
30
0
40
640
1
1
7
STANDARD
72
1
11
6800
21
28440
31
0
100
AcDbText
73
2
0
TEXT
5
51F
330
10E
100
AcDbEntity
8
ST-SHEET-TEXT
100
AcDbText
10
8200
20
28200
30
0
40
680
1
ROOF SLAB PLAN - ADDITIONAL TOP REINFORCEMENT (T1)
7
STANDARD
72
0
100
AcDbText
73
0
0
LINE
5
520
330
10E
100
AcDbEntity
8
ST-SHEET-TITLE
370
35
100
AcDbLine
10
8200
20
27960
30
0
11
34200
21
27960
31
0
0
TEXT
5
521
330
10E
100
AcDbEntity
8
ST-SHEET-TITLE
100
AcDbText
10
8200
20
27360
30
0
40
400
1
SCALE : 1:200
7
STANDARD
72
0
100
AcDbText
73
0
0
CIRCLE
5
522
330
10E
100
AcDbEntity
8
ST-CALLOUT
100
AcDbCircle
10
69400
20
28440
30
0
40
800
0
TEXT
5
523
330
10E
100
AcDbEntity
8
ST-CALLOUT
100
AcDbText
10
69400
20
28440
30
0
40
640
1
2
7
STANDARD
72
1
11
69400
21
28440
31
0
100
AcDbText
73
2
0
TEXT
5
524
330
10E
100
AcDbEntity
8
ST-SHEET-TEXT
100
AcDbText
10
70800
20
28200
30
0
40
680
1
ROOF SLAB PLAN - ADDITIONAL TOP REINFORCEMENT (T2)
7
STANDARD
72
0
100
AcDbText
73
0
0
LINE
5
525
330
10E
100
AcDbEntity
8
ST-SHEET-TITLE
370
35
100
AcDbLine
10
70800
20
27960
30
0
11
96800
21
27960
31
0
0
TEXT
5
526
330
10E
100
AcDbEntity
8
ST-SHEET-TITLE
100
AcDbText
10
70800
20
27360
30
0
40
400
1
SCALE : 1:200
7
STANDARD
72
0
100
AcDbText
73
0
0
ENDBLK
5
527
330
10E
100
AcDbEntity
8
0
100
AcDbBlockEnd
0
ENDSEC
0
SECTION
2
ENTITIES
0
INSERT
5
528
330
108
100
AcDbEntity
8
0
100
AcDbBlockReference
2
FRAMING_REBAR_ADDITIONAL_AT_COLUMNS_L02
10
0
20
0
30
0
41
1
42
1
43
1
50
0
0
ENDSEC
0
SECTION
2
OBJECTS
0
DICTIONARY
5
100
330
0
100
AcDbDictionary
281
1
3
ACAD_GROUP
350
101
3
ACAD_LAYOUT
350
104
3
ACAD_PLOTSTYLENAME
350
102
0
DICTIONARY
5
101
330
100
100
AcDbDictionary
281
1
0
ACDBDICTIONARYWDFLT
5
102
330
100
100
AcDbDictionary
281
1
3
Normal
350
103
100
AcDbDictionaryWithDefault
340
103
0
ACDBPLACEHOLDER
5
103
330
102
0
DICTIONARY
5
104
330
100
100
AcDbDictionary
281
1
3
Model
350
105
3
Layout1
350
106
0
LAYOUT
5
105
330
104
100
AcDbPlotSettings
1

2
none_device
4

6

40
0
41
0
42
0
43
0
44
0
45
0
46
0
47
0
48
0
49
0
140
0
141
0
142
1
143
1
70
1712
72
0
73
0
74
5
7

75
16
147
1
148
0
149
0
100
AcDbLayout
1
Model
70
1
71
0
10
0
20
0
11
12
21
9
12
0
22
0
32
0
14
0
24
0
34
0
15
0
25
0
35
0
146
0
13
0
23
0
33
0
16
1
26
0
36
0
17
0
27
1
37
0
76
0
330
108
0
LAYOUT
5
106
330
104
100
AcDbPlotSettings
1

2
none_device
4

6

40
0
41
0
42
0
43
0
44
0
45
0
46
0
47
0
48
0
49
0
140
0
141
0
142
1
143
1
70
688
72
0
73
0
74
5
7

75
16
147
1
148
0
149
0
100
AcDbLayout
1
Layout1
70
1
71
1
10
0
20
0
11
12
21
9
12
0
22
0
32
0
14
0
24
0
34
0
15
0
25
0
35
0
146
0
13
0
23
0
33
0
16
1
26
0
36
0
17
0
27
1
37
0
76
0
330
109
0
ENDSEC
0
EOF
