0
SECTION
2
HEADER
9
$ACADVER
1
AC1015
9
$DWGCODEPAGE
3
ANSI_1252
9
$INSBASE
10
0
20
0
30
0
9
$EXTMIN
10
0
20
0
30
0
9
$EXTMAX
10
85296
20
59400
30
0
9
$LIMMIN
10
0
20
0
9
$LIMMAX
10
85296
20
59400
9
$ORTHOMODE
70
0
9
$LTSCALE
40
25
9
$TEXTSIZE
40
2.5
9
$TEXTSTYLE
7
STANDARD
9
$CLAYER
8
0
9
$CELTYPE
6
BYLAYER
9
$CECOLOR
62
256
9
$DIMSTYLE
2
STANDARD
9
$INSUNITS
70
4
9
$MEASUREMENT
70
1
9
$PDMODE
70
0
9
$PSLTSCALE
70
1
9
$TILEMODE
70
1
9
$HANDSEED
5
4F2
0
ENDSEC
0
SECTION
2
CLASSES
0
ENDSEC
0
SECTION
2
TABLES
0
TABLE
2
VPORT
5
10F
330
0
100
AcDbSymbolTable
70
1
0
VPORT
5
110
330
10F
100
AcDbSymbolTableRecord
100
AcDbViewportTableRecord
2
*Active
70
0
10
0
20
0
11
1
21
1
12
42648
22
29700
13
0
23
0
14
10
24
10
15
10
25
10
16
0
26
0
36
1
17
0
27
0
37
0
40
65340
41
1.43596
42
50
43
0
44
0
50
0
51
0
71
0
72
1000
73
1
74
3
75
0
76
0
77
0
78
0
281
0
65
1
110
0
120
0
130
0
111
1
121
0
131
0
112
0
122
1
132
0
79
0
146
0
0
ENDTAB
0
TABLE
2
LTYPE
5
111
330
0
100
AcDbSymbolTable
70
8
0
LTYPE
5
112
330
111
100
AcDbSymbolTableRecord
100
AcDbLinetypeTableRecord
2
ByBlock
70
0
3

72
65
73
0
40
0
0
LTYPE
5
113
330
111
100
AcDbSymbolTableRecord
100
AcDbLinetypeTableRecord
2
ByLayer
70
0
3

72
65
73
0
40
0
0
LTYPE
5
114
330
111
100
AcDbSymbolTableRecord
100
AcDbLinetypeTableRecord
2
CONTINUOUS
70
0
3
Solid line
72
65
73
0
40
0
0
LTYPE
5
115
330
111
100
AcDbSymbolTableRecord
100
AcDbLinetypeTableRecord
2
DASHED
70
0
3
Dashed __ __ __
72
65
73
2
40
19.05
49
12.7
74
0
49
-6.35
74
0
0
LTYPE
5
116
330
111
100
AcDbSymbolTableRecord
100
AcDbLinetypeTableRecord
2
HIDDEN
70
0
3
Hidden __ __ __
72
65
73
2
40
9.525
49
6.35
74
0
49
-3.175
74
0
0
LTYPE
5
117
330
111
100
AcDbSymbolTableRecord
100
AcDbLinetypeTableRecord
2
CENTER
70
0
3
Center ____ _ ____ _
72
65
73
4
40
50.8
49
31.75
74
0
49
-6.35
74
0
49
6.35
74
0
49
-6.35
74
0
0
LTYPE
5
118
330
111
100
AcDbSymbolTableRecord
100
AcDbLinetypeTableRecord
2
DASHDOT
70
0
3
Dash dot __ . __ . __
72
65
73
4
40
25.4
49
12.7
74
0
49
-6.35
74
0
49
0
74
0
49
-6.35
74
0
0
LTYPE
5
119
330
111
100
AcDbSymbolTableRecord
100
AcDbLinetypeTableRecord
2
PHANTOM
70
0
3
Phantom ____ _ _ ____
72
65
73
6
40
63.5
49
31.75
74
0
49
-6.35
74
0
49
6.35
74
0
49
-6.35
74
0
49
6.35
74
0
49
-6.35
74
0
0
ENDTAB
0
TABLE
2
LAYER
5
11A
330
0
100
AcDbSymbolTable
70
34
0
LAYER
5
11B
330
11A
100
AcDbSymbolTableRecord
100
AcDbLayerTableRecord
2
0
70
0
62
7
6
CONTINUOUS
370
-3
390
103
0
LAYER
5
11C
330
11A
100
AcDbSymbolTableRecord
100
AcDbLayerTableRecord
2
FRAME
70
0
62
7
6
CONTINUOUS
370
50
390
103
0
LAYER
5
11D
330
11A
100
AcDbSymbolTableRecord
100
AcDbLayerTableRecord
2
TITLE
70
0
62
7
6
CONTINUOUS
370
25
390
103
0
LAYER
5
11E
330
11A
100
AcDbSymbolTableRecord
100
AcDbLayerTableRecord
2
TEXT
70
0
62
7
6
CONTINUOUS
370
-3
390
103
0
LAYER
5
11F
330
11A
100
AcDbSymbolTableRecord
100
AcDbLayerTableRecord
2
TEXT-TITLE
70
0
62
2
6
CONTINUOUS
370
-3
390
103
0
LAYER
5
120
330
11A
100
AcDbSymbolTableRecord
100
AcDbLayerTableRecord
2
NOTES
70
0
62
7
6
CONTINUOUS
370
-3
390
103
0
LAYER
5
121
330
11A
100
AcDbSymbolTableRecord
100
AcDbLayerTableRecord
2
GRID
70
0
62
8
6
CENTER
370
-3
390
103
0
LAYER
5
122
330
11A
100
AcDbSymbolTableRecord
100
AcDbLayerTableRecord
2
GRID-BUBBLE
70
0
62
8
6
CONTINUOUS
370
-3
390
103
0
LAYER
5
123
330
11A
100
AcDbSymbolTableRecord
100
AcDbLayerTableRecord
2
OUTLINE
70
0
62
4
6
CONTINUOUS
370
35
390
103
0
LAYER
5
124
330
11A
100
AcDbSymbolTableRecord
100
AcDbLayerTableRecord
2
COLUMN
70
0
62
5
6
CONTINUOUS
370
35
390
103
0
LAYER
5
125
330
11A
100
AcDbSymbolTableRecord
100
AcDbLayerTableRecord
2
COLUMN-HATCH
70
0
62
8
6
CONTINUOUS
370
-3
390
103
0
LAYER
5
126
330
11A
100
AcDbSymbolTableRecord
100
AcDbLayerTableRecord
2
OPENING
70
0
62
6
6
CONTINUOUS
370
-3
390
103
0
LAYER
5
127
330
11A
100
AcDbSymbolTableRecord
100
AcDbLayerTableRecord
2
OPENING-HATCH
70
0
62
6
6
CONTINUOUS
370
-3
390
103
0
LAYER
5
128
330
11A
100
AcDbSymbolTableRecord
100
AcDbLayerTableRecord
2
VOID
70
0
62
30
6
DASHED
370
-3
390
103
0
LAYER
5
129
330
11A
100
AcDbSymbolTableRecord
100
AcDbLayerTableRecord
2
VOID-HATCH
70
0
62
30
6
CONTINUOUS
370
-3
390
103
0
LAYER
5
12A
330
11A
100
AcDbSymbolTableRecord
100
AcDbLayerTableRecord
2
PT-ZONE
70
0
62
4
6
DASHDOT
370
-3
390
103
0
LAYER
5
12B
330
11A
100
AcDbSymbolTableRecord
100
AcDbLayerTableRecord
2
PT-TENDON
70
0
62
3
6
CONTINUOUS
370
-3
390
103
0
LAYER
5
12C
330
11A
100
AcDbSymbolTableRecord
100
AcDbLayerTableRecord
2
PT-HATCH
70
0
62
4
6
CONTINUOUS
370
-3
390
103
0
LAYER
5
12D
330
11A
100
AcDbSymbolTableRecord
100
AcDbLayerTableRecord
2
REBAR-BOT
70
0
62
1
6
CONTINUOUS
370
50
390
103
0
LAYER
5
12E
330
11A
100
AcDbSymbolTableRecord
100
AcDbLayerTableRecord
2
REBAR-TOP
70
0
62
5
6
CONTINUOUS
370
50
390
103
0
LAYER
5
12F
330
11A
100
AcDbSymbolTableRecord
100
AcDbLayerTableRecord
2
REBAR-U
70
0
62
6
6
CONTINUOUS
370
50
390
103
0
LAYER
5
130
330
11A
100
AcDbSymbolTableRecord
100
AcDbLayerTableRecord
2
REBAR-TRIM
70
0
62
2
6
CONTINUOUS
370
50
390
103
0
LAYER
5
131
330
11A
100
AcDbSymbolTableRecord
100
AcDbLayerTableRecord
2
REBAR-EXTENT
70
0
62
1
6
CONTINUOUS
370
-3
390
103
0
LAYER
5
132
330
11A
100
AcDbSymbolTableRecord
100
AcDbLayerTableRecord
2
REBAR-TEXT
70
0
62
1
6
CONTINUOUS
370
-3
390
103
0
LAYER
5
133
330
11A
100
AcDbSymbolTableRecord
100
AcDbLayerTableRecord
2
CALLOUT
70
0
62
3
6
CONTINUOUS
370
-3
390
103
0
LAYER
5
134
330
11A
100
AcDbSymbolTableRecord
100
AcDbLayerTableRecord
2
DIM
70
0
62
8
6
CONTINUOUS
370
-3
390
103
0
LAYER
5
135
330
11A
100
AcDbSymbolTableRecord
100
AcDbLayerTableRecord
2
DETAIL
70
0
62
7
6
CONTINUOUS
370
-3
390
103
0
LAYER
5
136
330
11A
100
AcDbSymbolTableRecord
100
AcDbLayerTableRecord
2
DETAIL-HATCH
70
0
62
8
6
CONTINUOUS
370
-3
390
103
0
LAYER
5
137
330
11A
100
AcDbSymbolTableRecord
100
AcDbLayerTableRecord
2
SCHEDULE
70
0
62
7
6
CONTINUOUS
370
-3
390
103
0
LAYER
5
138
330
11A
100
AcDbSymbolTableRecord
100
AcDbLayerTableRecord
2
SCHEDULE-TEXT
70
0
62
7
6
CONTINUOUS
370
-3
390
103
0
LAYER
5
139
330
11A
100
AcDbSymbolTableRecord
100
AcDbLayerTableRecord
2
HATCH
70
0
62
8
6
CONTINUOUS
370
-3
390
103
0
LAYER
5
13A
330
11A
100
AcDbSymbolTableRecord
100
AcDbLayerTableRecord
2
CABLE
70
0
62
3
6
CONTINUOUS
370
50
390
103
0
LAYER
5
13B
330
11A
100
AcDbSymbolTableRecord
100
AcDbLayerTableRecord
2
CABLE-TEXT
70
0
62
3
6
CONTINUOUS
370
-3
390
103
0
LAYER
5
13C
330
11A
100
AcDbSymbolTableRecord
100
AcDbLayerTableRecord
2
XREF
70
0
62
7
6
CONTINUOUS
370
-3
390
103
0
ENDTAB
0
TABLE
2
STYLE
5
13D
330
0
100
AcDbSymbolTable
70
1
0
STYLE
5
13E
330
13D
100
AcDbSymbolTableRecord
100
AcDbTextStyleTableRecord
2
STANDARD
70
0
40
0
41
1
50
0
71
0
42
2.5
3
arial.ttf
4

0
ENDTAB
0
TABLE
2
VIEW
5
13F
330
0
100
AcDbSymbolTable
70
0
0
ENDTAB
0
TABLE
2
UCS
5
140
330
0
100
AcDbSymbolTable
70
0
0
ENDTAB
0
TABLE
2
APPID
5
141
330
0
100
AcDbSymbolTable
70
1
0
APPID
5
142
330
141
100
AcDbSymbolTableRecord
100
AcDbRegAppTableRecord
2
ACAD
70
0
0
ENDTAB
0
TABLE
2
DIMSTYLE
5
143
330
0
100
AcDbSymbolTable
70
1
100
AcDbDimStyleTable
0
DIMSTYLE
105
144
330
143
100
AcDbSymbolTableRecord
100
AcDbDimStyleTableRecord
2
STANDARD
70
0
40
1
41
2.5
42
0.625
43
3.75
44
1.25
140
2.5
141
2.5
147
0.625
0
ENDTAB
0
TABLE
2
BLOCK_RECORD
5
107
330
0
100
AcDbSymbolTable
70
3
0
BLOCK_RECORD
5
108
330
107
100
AcDbSymbolTableRecord
100
AcDbBlockTableRecord
2
*Model_Space
340
105
0
BLOCK_RECORD
5
109
330
107
100
AcDbSymbolTableRecord
100
AcDbBlockTableRecord
2
*Paper_Space
340
106
0
BLOCK_RECORD
5
10E
330
107
100
AcDbSymbolTableRecord
100
AcDbBlockTableRecord
2
FRAMING_REBAR_U_BARS_AROUND_REGIONS_L02
340
0
0
ENDTAB
0
ENDSEC
0
SECTION
2
BLOCKS
0
BLOCK
5
10A
330
108
100
AcDbEntity
8
0
100
AcDbBlockBegin
2
*Model_Space
70
0
10
0
20
0
30
0
3
*Model_Space
1

0
ENDBLK
5
10B
330
108
100
AcDbEntity
8
0
100
AcDbBlockEnd
0
BLOCK
5
10C
330
109
100
AcDbEntity
67
1
8
0
100
AcDbBlockBegin
2
*Paper_Space
70
0
10
0
20
0
30
0
3
*Paper_Space
1

0
ENDBLK
5
10D
330
109
100
AcDbEntity
67
1
8
0
100
AcDbBlockEnd
0
BLOCK
5
145
330
10E
100
AcDbEntity
8
0
100
AcDbBlockBegin
2
FRAMING_REBAR_U_BARS_AROUND_REGIONS_L02
70
0
10
0
20
0
30
0
3
FRAMING_REBAR_U_BARS_AROUND_REGIONS_L02
1

0
LWPOLYLINE
5
146
330
10E
100
AcDbEntity
8
FRAME
370
13
100
AcDbPolyline
90
4
70
1
43
0
10
0
20
0
10
84100
20
0
10
84100
20
59400
10
0
20
59400
0
LWPOLYLINE
5
147
330
10E
100
AcDbEntity
8
FRAME
100
AcDbPolyline
90
4
70
1
43
0
10
2000
20
1000
10
83100
20
1000
10
83100
20
58400
10
2000
20
58400
0
LINE
5
148
330
10E
100
AcDbEntity
8
FRAME
100
AcDbLine
10
42050
20
0
30
0
11
42050
21
600
31
0
0
LINE
5
149
330
10E
100
AcDbEntity
8
FRAME
100
AcDbLine
10
42050
20
59400
30
0
11
42050
21
58800
31
0
0
LINE
5
14A
330
10E
100
AcDbEntity
8
FRAME
100
AcDbLine
10
0
20
29700
30
0
11
600
21
29700
31
0
0
LINE
5
14B
330
10E
100
AcDbEntity
8
FRAME
100
AcDbLine
10
84100
20
29700
30
0
11
83500
21
29700
31
0
0
LINE
5
14C
330
10E
100
AcDbEntity
8
FRAME
370
13
100
AcDbLine
10
2000
20
58400
30
0
11
2000
21
59400
31
0
0
LINE
5
14D
330
10E
100
AcDbEntity
8
FRAME
370
13
100
AcDbLine
10
2000
20
0
30
0
11
2000
21
1000
31
0
0
TEXT
5
14E
330
10E
100
AcDbEntity
8
FRAME
100
AcDbText
10
7068.75
20
58900
30
0
40
250
1
1
7
STANDARD
72
1
11
7068.75
21
58900
31
0
100
AcDbText
73
2
0
TEXT
5
14F
330
10E
100
AcDbEntity
8
FRAME
100
AcDbText
10
7068.75
20
500
30
0
40
250
1
1
7
STANDARD
72
1
11
7068.75
21
500
31
0
100
AcDbText
73
2
0
LINE
5
150
330
10E
100
AcDbEntity
8
FRAME
370
13
100
AcDbLine
10
12137.5
20
58400
30
0
11
12137.5
21
59400
31
0
0
LINE
5
151
330
10E
100
AcDbEntity
8
FRAME
370
13
100
AcDbLine
10
12137.5
20
0
30
0
11
12137.5
21
1000
31
0
0
TEXT
5
152
330
10E
100
AcDbEntity
8
FRAME
100
AcDbText
10
17206.25
20
58900
30
0
40
250
1
2
7
STANDARD
72
1
11
17206.25
21
58900
31
0
100
AcDbText
73
2
0
TEXT
5
153
330
10E
100
AcDbEntity
8
FRAME
100
AcDbText
10
17206.25
20
500
30
0
40
250
1
2
7
STANDARD
72
1
11
17206.25
21
500
31
0
100
AcDbText
73
2
0
LINE
5
154
330
10E
100
AcDbEntity
8
FRAME
370
13
100
AcDbLine
10
22275
20
58400
30
0
11
22275
21
59400
31
0
0
LINE
5
155
330
10E
100
AcDbEntity
8
FRAME
370
13
100
AcDbLine
10
22275
20
0
30
0
11
22275
21
1000
31
0
0
TEXT
5
156
330
10E
100
AcDbEntity
8
FRAME
100
AcDbText
10
27343.75
20
58900
30
0
40
250
1
3
7
STANDARD
72
1
11
27343.75
21
58900
31
0
100
AcDbText
73
2
0
TEXT
5
157
330
10E
100
AcDbEntity
8
FRAME
100
AcDbText
10
27343.75
20
500
30
0
40
250
1
3
7
STANDARD
72
1
11
27343.75
21
500
31
0
100
AcDbText
73
2
0
LINE
5
158
330
10E
100
AcDbEntity
8
FRAME
370
13
100
AcDbLine
10
32412.5
20
58400
30
0
11
32412.5
21
59400
31
0
0
LINE
5
159
330
10E
100
AcDbEntity
8
FRAME
370
13
100
AcDbLine
10
32412.5
20
0
30
0
11
32412.5
21
1000
31
0
0
TEXT
5
15A
330
10E
100
AcDbEntity
8
FRAME
100
AcDbText
10
37481.25
20
58900
30
0
40
250
1
4
7
STANDARD
72
1
11
37481.25
21
58900
31
0
100
AcDbText
73
2
0
TEXT
5
15B
330
10E
100
AcDbEntity
8
FRAME
100
AcDbText
10
37481.25
20
500
30
0
40
250
1
4
7
STANDARD
72
1
11
37481.25
21
500
31
0
100
AcDbText
73
2
0
LINE
5
15C
330
10E
100
AcDbEntity
8
FRAME
370
13
100
AcDbLine
10
42550
20
58400
30
0
11
42550
21
59400
31
0
0
LINE
5
15D
330
10E
100
AcDbEntity
8
FRAME
370
13
100
AcDbLine
10
42550
20
0
30
0
11
42550
21
1000
31
0
0
TEXT
5
15E
330
10E
100
AcDbEntity
8
FRAME
100
AcDbText
10
47618.75
20
58900
30
0
40
250
1
5
7
STANDARD
72
1
11
47618.75
21
58900
31
0
100
AcDbText
73
2
0
TEXT
5
15F
330
10E
100
AcDbEntity
8
FRAME
100
AcDbText
10
47618.75
20
500
30
0
40
250
1
5
7
STANDARD
72
1
11
47618.75
21
500
31
0
100
AcDbText
73
2
0
LINE
5
160
330
10E
100
AcDbEntity
8
FRAME
370
13
100
AcDbLine
10
52687.5
20
58400
30
0
11
52687.5
21
59400
31
0
0
LINE
5
161
330
10E
100
AcDbEntity
8
FRAME
370
13
100
AcDbLine
10
52687.5
20
0
30
0
11
52687.5
21
1000
31
0
0
TEXT
5
162
330
10E
100
AcDbEntity
8
FRAME
100
AcDbText
10
57756.25
20
58900
30
0
40
250
1
6
7
STANDARD
72
1
11
57756.25
21
58900
31
0
100
AcDbText
73
2
0
TEXT
5
163
330
10E
100
AcDbEntity
8
FRAME
100
AcDbText
10
57756.25
20
500
30
0
40
250
1
6
7
STANDARD
72
1
11
57756.25
21
500
31
0
100
AcDbText
73
2
0
LINE
5
164
330
10E
100
AcDbEntity
8
FRAME
370
13
100
AcDbLine
10
62825
20
58400
30
0
11
62825
21
59400
31
0
0
LINE
5
165
330
10E
100
AcDbEntity
8
FRAME
370
13
100
AcDbLine
10
62825
20
0
30
0
11
62825
21
1000
31
0
0
TEXT
5
166
330
10E
100
AcDbEntity
8
FRAME
100
AcDbText
10
67893.75
20
58900
30
0
40
250
1
7
7
STANDARD
72
1
11
67893.75
21
58900
31
0
100
AcDbText
73
2
0
TEXT
5
167
330
10E
100
AcDbEntity
8
FRAME
100
AcDbText
10
67893.75
20
500
30
0
40
250
1
7
7
STANDARD
72
1
11
67893.75
21
500
31
0
100
AcDbText
73
2
0
LINE
5
168
330
10E
100
AcDbEntity
8
FRAME
370
13
100
AcDbLine
10
72962.5
20
58400
30
0
11
72962.5
21
59400
31
0
0
LINE
5
169
330
10E
100
AcDbEntity
8
FRAME
370
13
100
AcDbLine
10
72962.5
20
0
30
0
11
72962.5
21
1000
31
0
0
TEXT
5
16A
330
10E
100
AcDbEntity
8
FRAME
100
AcDbText
10
78031.25
20
58900
30
0
40
250
1
8
7
STANDARD
72
1
11
78031.25
21
58900
31
0
100
AcDbText
73
2
0
TEXT
5
16B
330
10E
100
AcDbEntity
8
FRAME
100
AcDbText
10
78031.25
20
500
30
0
40
250
1
8
7
STANDARD
72
1
11
78031.25
21
500
31
0
100
AcDbText
73
2
0
LINE
5
16C
330
10E
100
AcDbEntity
8
FRAME
370
13
100
AcDbLine
10
83100
20
58400
30
0
11
83100
21
59400
31
0
0
LINE
5
16D
330
10E
100
AcDbEntity
8
FRAME
370
13
100
AcDbLine
10
83100
20
0
30
0
11
83100
21
1000
31
0
0
LINE
5
16E
330
10E
100
AcDbEntity
8
FRAME
370
13
100
AcDbLine
10
0
20
1000
30
0
11
2000
21
1000
31
0
0
LINE
5
16F
330
10E
100
AcDbEntity
8
FRAME
370
13
100
AcDbLine
10
83100
20
1000
30
0
11
84100
21
1000
31
0
0
TEXT
5
170
330
10E
100
AcDbEntity
8
FRAME
100
AcDbText
10
1000
20
5783.333333
30
0
40
250
1
F
7
STANDARD
72
1
11
1000
21
5783.333333
31
0
100
AcDbText
73
2
0
TEXT
5
171
330
10E
100
AcDbEntity
8
FRAME
100
AcDbText
10
83600
20
5783.333333
30
0
40
250
1
F
7
STANDARD
72
1
11
83600
21
5783.333333
31
0
100
AcDbText
73
2
0
LINE
5
172
330
10E
100
AcDbEntity
8
FRAME
370
13
100
AcDbLine
10
0
20
10566.666667
30
0
11
2000
21
10566.666667
31
0
0
LINE
5
173
330
10E
100
AcDbEntity
8
FRAME
370
13
100
AcDbLine
10
83100
20
10566.666667
30
0
11
84100
21
10566.666667
31
0
0
TEXT
5
174
330
10E
100
AcDbEntity
8
FRAME
100
AcDbText
10
1000
20
15350
30
0
40
250
1
E
7
STANDARD
72
1
11
1000
21
15350
31
0
100
AcDbText
73
2
0
TEXT
5
175
330
10E
100
AcDbEntity
8
FRAME
100
AcDbText
10
83600
20
15350
30
0
40
250
1
E
7
STANDARD
72
1
11
83600
21
15350
31
0
100
AcDbText
73
2
0
LINE
5
176
330
10E
100
AcDbEntity
8
FRAME
370
13
100
AcDbLine
10
0
20
20133.333333
30
0
11
2000
21
20133.333333
31
0
0
LINE
5
177
330
10E
100
AcDbEntity
8
FRAME
370
13
100
AcDbLine
10
83100
20
20133.333333
30
0
11
84100
21
20133.333333
31
0
0
TEXT
5
178
330
10E
100
AcDbEntity
8
FRAME
100
AcDbText
10
1000
20
24916.666667
30
0
40
250
1
D
7
STANDARD
72
1
11
1000
21
24916.666667
31
0
100
AcDbText
73
2
0
TEXT
5
179
330
10E
100
AcDbEntity
8
FRAME
100
AcDbText
10
83600
20
24916.666667
30
0
40
250
1
D
7
STANDARD
72
1
11
83600
21
24916.666667
31
0
100
AcDbText
73
2
0
LINE
5
17A
330
10E
100
AcDbEntity
8
FRAME
370
13
100
AcDbLine
10
0
20
29700
30
0
11
2000
21
29700
31
0
0
LINE
5
17B
330
10E
100
AcDbEntity
8
FRAME
370
13
100
AcDbLine
10
83100
20
29700
30
0
11
84100
21
29700
31
0
0
TEXT
5
17C
330
10E
100
AcDbEntity
8
FRAME
100
AcDbText
10
1000
20
34483.333333
30
0
40
250
1
C
7
STANDARD
72
1
11
1000
21
34483.333333
31
0
100
AcDbText
73
2
0
TEXT
5
17D
330
10E
100
AcDbEntity
8
FRAME
100
AcDbText
10
83600
20
34483.333333
30
0
40
250
1
C
7
STANDARD
72
1
11
83600
21
34483.333333
31
0
100
AcDbText
73
2
0
LINE
5
17E
330
10E
100
AcDbEntity
8
FRAME
370
13
100
AcDbLine
10
0
20
39266.666667
30
0
11
2000
21
39266.666667
31
0
0
LINE
5
17F
330
10E
100
AcDbEntity
8
FRAME
370
13
100
AcDbLine
10
83100
20
39266.666667
30
0
11
84100
21
39266.666667
31
0
0
TEXT
5
180
330
10E
100
AcDbEntity
8
FRAME
100
AcDbText
10
1000
20
44050
30
0
40
250
1
B
7
STANDARD
72
1
11
1000
21
44050
31
0
100
AcDbText
73
2
0
TEXT
5
181
330
10E
100
AcDbEntity
8
FRAME
100
AcDbText
10
83600
20
44050
30
0
40
250
1
B
7
STANDARD
72
1
11
83600
21
44050
31
0
100
AcDbText
73
2
0
LINE
5
182
330
10E
100
AcDbEntity
8
FRAME
370
13
100
AcDbLine
10
0
20
48833.333333
30
0
11
2000
21
48833.333333
31
0
0
LINE
5
183
330
10E
100
AcDbEntity
8
FRAME
370
13
100
AcDbLine
10
83100
20
48833.333333
30
0
11
84100
21
48833.333333
31
0
0
TEXT
5
184
330
10E
100
AcDbEntity
8
FRAME
100
AcDbText
10
1000
20
53616.666667
30
0
40
250
1
A
7
STANDARD
72
1
11
1000
21
53616.666667
31
0
100
AcDbText
73
2
0
TEXT
5
185
330
10E
100
AcDbEntity
8
FRAME
100
AcDbText
10
83600
20
53616.666667
30
0
40
250
1
A
7
STANDARD
72
1
11
83600
21
53616.666667
31
0
100
AcDbText
73
2
0
LINE
5
186
330
10E
100
AcDbEntity
8
FRAME
370
13
100
AcDbLine
10
0
20
58400
30
0
11
2000
21
58400
31
0
0
LINE
5
187
330
10E
100
AcDbEntity
8
FRAME
370
13
100
AcDbLine
10
83100
20
58400
30
0
11
84100
21
58400
31
0
0
LINE
5
188
330
10E
100
AcDbEntity
8
FRAME
100
AcDbLine
10
64600
20
1000
30
0
11
64600
21
58400
31
0
0
LINE
5
189
330
10E
100
AcDbEntity
8
FRAME
100
AcDbLine
10
2000
20
13500
30
0
11
64600
21
13500
31
0
0
LINE
5
18A
330
10E
100
AcDbEntity
8
FRAME
100
AcDbLine
10
64600
20
13500
30
0
11
83100
21
13500
31
0
0
LINE
5
18B
330
10E
100
AcDbEntity
8
FRAME
100
AcDbLine
10
64600
20
38600
30
0
11
83100
21
38600
31
0
0
LINE
5
18C
330
10E
100
AcDbEntity
8
GRID
100
AcDbLine
10
18550
20
19950
30
0
11
18550
21
51950
31
0
0
CIRCLE
5
18D
330
10E
100
AcDbEntity
8
GRID-BUBBLE
100
AcDbCircle
10
18550
20
52350
30
0
40
400
0
TEXT
5
18E
330
10E
100
AcDbEntity
8
TEXT
100
AcDbText
10
18550
20
52350
30
0
40
320
1
A
7
STANDARD
72
1
11
18550
21
52350
31
0
100
AcDbText
73
2
0
LINE
5
18F
330
10E
100
AcDbEntity
8
GRID
100
AcDbLine
10
26050
20
19950
30
0
11
26050
21
51950
31
0
0
CIRCLE
5
190
330
10E
100
AcDbEntity
8
GRID-BUBBLE
100
AcDbCircle
10
26050
20
52350
30
0
40
400
0
TEXT
5
191
330
10E
100
AcDbEntity
8
TEXT
100
AcDbText
10
26050
20
52350
30
0
40
320
1
B
7
STANDARD
72
1
11
26050
21
52350
31
0
100
AcDbText
73
2
0
LINE
5
192
330
10E
100
AcDbEntity
8
GRID
100
AcDbLine
10
33550
20
19950
30
0
11
33550
21
51950
31
0
0
CIRCLE
5
193
330
10E
100
AcDbEntity
8
GRID-BUBBLE
100
AcDbCircle
10
33550
20
52350
30
0
40
400
0
TEXT
5
194
330
10E
100
AcDbEntity
8
TEXT
100
AcDbText
10
33550
20
52350
30
0
40
320
1
C
7
STANDARD
72
1
11
33550
21
52350
31
0
100
AcDbText
73
2
0
LINE
5
195
330
10E
100
AcDbEntity
8
GRID
100
AcDbLine
10
41050
20
19950
30
0
11
41050
21
51950
31
0
0
CIRCLE
5
196
330
10E
100
AcDbEntity
8
GRID-BUBBLE
100
AcDbCircle
10
41050
20
52350
30
0
40
400
0
TEXT
5
197
330
10E
100
AcDbEntity
8
TEXT
100
AcDbText
10
41050
20
52350
30
0
40
320
1
D
7
STANDARD
72
1
11
41050
21
52350
31
0
100
AcDbText
73
2
0
LINE
5
198
330
10E
100
AcDbEntity
8
GRID
100
AcDbLine
10
48550
20
19950
30
0
11
48550
21
51950
31
0
0
CIRCLE
5
199
330
10E
100
AcDbEntity
8
GRID-BUBBLE
100
AcDbCircle
10
48550
20
52350
30
0
40
400
0
TEXT
5
19A
330
10E
100
AcDbEntity
8
TEXT
100
AcDbText
10
48550
20
52350
30
0
40
320
1
E
7
STANDARD
72
1
11
48550
21
52350
31
0
100
AcDbText
73
2
0
LINE
5
19B
330
10E
100
AcDbEntity
8
GRID
100
AcDbLine
10
14050
20
23950
30
0
11
52550
21
23950
31
0
0
CIRCLE
5
19C
330
10E
100
AcDbEntity
8
GRID-BUBBLE
100
AcDbCircle
10
13650
20
23950
30
0
40
400
0
TEXT
5
19D
330
10E
100
AcDbEntity
8
TEXT
100
AcDbText
10
13650
20
23950
30
0
40
320
1
1
7
STANDARD
72
1
11
13650
21
23950
31
0
100
AcDbText
73
2
0
LINE
5
19E
330
10E
100
AcDbEntity
8
GRID
100
AcDbLine
10
14050
20
31950
30
0
11
52550
21
31950
31
0
0
CIRCLE
5
19F
330
10E
100
AcDbEntity
8
GRID-BUBBLE
100
AcDbCircle
10
13650
20
31950
30
0
40
400
0
TEXT
5
1A0
330
10E
100
AcDbEntity
8
TEXT
100
AcDbText
10
13650
20
31950
30
0
40
320
1
2
7
STANDARD
72
1
11
13650
21
31950
31
0
100
AcDbText
73
2
0
LINE
5
1A1
330
10E
100
AcDbEntity
8
GRID
100
AcDbLine
10
14050
20
39950
30
0
11
52550
21
39950
31
0
0
CIRCLE
5
1A2
330
10E
100
AcDbEntity
8
GRID-BUBBLE
100
AcDbCircle
10
13650
20
39950
30
0
40
400
0
TEXT
5
1A3
330
10E
100
AcDbEntity
8
TEXT
100
AcDbText
10
13650
20
39950
30
0
40
320
1
3
7
STANDARD
72
1
11
13650
21
39950
31
0
100
AcDbText
73
2
0
LINE
5
1A4
330
10E
100
AcDbEntity
8
GRID
100
AcDbLine
10
14050
20
47950
30
0
11
52550
21
47950
31
0
0
CIRCLE
5
1A5
330
10E
100
AcDbEntity
8
GRID-BUBBLE
100
AcDbCircle
10
13650
20
47950
30
0
40
400
0
TEXT
5
1A6
330
10E
100
AcDbEntity
8
TEXT
100
AcDbText
10
13650
20
47950
30
0
40
320
1
4
7
STANDARD
72
1
11
13650
21
47950
31
0
100
AcDbText
73
2
0
LINE
5
1A7
330
10E
100
AcDbEntity
8
DIM
100
AcDbLine
10
18550
20
20750
30
0
11
18550
21
20300
31
0
0
LINE
5
1A8
330
10E
100
AcDbEntity
8
DIM
100
AcDbLine
10
26050
20
20750
30
0
11
26050
21
20300
31
0
0
LINE
5
1A9
330
10E
100
AcDbEntity
8
DIM
100
AcDbLine
10
18550
20
20150
30
0
11
26050
21
20150
31
0
0
LINE
5
1AA
330
10E
100
AcDbEntity
8
DIM
100
AcDbLine
10
18480
20
20080
30
0
11
18620
21
20220
31
0
0
LINE
5
1AB
330
10E
100
AcDbEntity
8
DIM
100
AcDbLine
10
25980
20
20080
30
0
11
26120
21
20220
31
0
0
TEXT
5
1AC
330
10E
100
AcDbEntity
8
DIM
100
AcDbText
10
22300
20
20230
30
0
40
200
1
7500
7
STANDARD
72
1
11
22300
21
20230
31
0
100
AcDbText
73
0
0
LINE
5
1AD
330
10E
100
AcDbEntity
8
DIM
100
AcDbLine
10
26050
20
20750
30
0
11
26050
21
20300
31
0
0
LINE
5
1AE
330
10E
100
AcDbEntity
8
DIM
100
AcDbLine
10
33550
20
20750
30
0
11
33550
21
20300
31
0
0
LINE
5
1AF
330
10E
100
AcDbEntity
8
DIM
100
AcDbLine
10
26050
20
20150
30
0
11
33550
21
20150
31
0
0
LINE
5
1B0
330
10E
100
AcDbEntity
8
DIM
100
AcDbLine
10
25980
20
20080
30
0
11
26120
21
20220
31
0
0
LINE
5
1B1
330
10E
100
AcDbEntity
8
DIM
100
AcDbLine
10
33480
20
20080
30
0
11
33620
21
20220
31
0
0
TEXT
5
1B2
330
10E
100
AcDbEntity
8
DIM
100
AcDbText
10
29800
20
20230
30
0
40
200
1
7500
7
STANDARD
72
1
11
29800
21
20230
31
0
100
AcDbText
73
0
0
LINE
5
1B3
330
10E
100
AcDbEntity
8
DIM
100
AcDbLine
10
33550
20
20750
30
0
11
33550
21
20300
31
0
0
LINE
5
1B4
330
10E
100
AcDbEntity
8
DIM
100
AcDbLine
10
41050
20
20750
30
0
11
41050
21
20300
31
0
0
LINE
5
1B5
330
10E
100
AcDbEntity
8
DIM
100
AcDbLine
10
33550
20
20150
30
0
11
41050
21
20150
31
0
0
LINE
5
1B6
330
10E
100
AcDbEntity
8
DIM
100
AcDbLine
10
33480
20
20080
30
0
11
33620
21
20220
31
0
0
LINE
5
1B7
330
10E
100
AcDbEntity
8
DIM
100
AcDbLine
10
40980
20
20080
30
0
11
41120
21
20220
31
0
0
TEXT
5
1B8
330
10E
100
AcDbEntity
8
DIM
100
AcDbText
10
37300
20
20230
30
0
40
200
1
7500
7
STANDARD
72
1
11
37300
21
20230
31
0
100
AcDbText
73
0
0
LINE
5
1B9
330
10E
100
AcDbEntity
8
DIM
100
AcDbLine
10
41050
20
20750
30
0
11
41050
21
20300
31
0
0
LINE
5
1BA
330
10E
100
AcDbEntity
8
DIM
100
AcDbLine
10
48550
20
20750
30
0
11
48550
21
20300
31
0
0
LINE
5
1BB
330
10E
100
AcDbEntity
8
DIM
100
AcDbLine
10
41050
20
20150
30
0
11
48550
21
20150
31
0
0
LINE
5
1BC
330
10E
100
AcDbEntity
8
DIM
100
AcDbLine
10
40980
20
20080
30
0
11
41120
21
20220
31
0
0
LINE
5
1BD
330
10E
100
AcDbEntity
8
DIM
100
AcDbLine
10
48480
20
20080
30
0
11
48620
21
20220
31
0
0
TEXT
5
1BE
330
10E
100
AcDbEntity
8
DIM
100
AcDbText
10
44800
20
20230
30
0
40
200
1
7500
7
STANDARD
72
1
11
44800
21
20230
31
0
100
AcDbText
73
0
0
LINE
5
1BF
330
10E
100
AcDbEntity
8
DIM
100
AcDbLine
10
18550
20
20750
30
0
11
18550
21
19600
31
0
0
LINE
5
1C0
330
10E
100
AcDbEntity
8
DIM
100
AcDbLine
10
48550
20
20750
30
0
11
48550
21
19600
31
0
0
LINE
5
1C1
330
10E
100
AcDbEntity
8
DIM
100
AcDbLine
10
18550
20
19450
30
0
11
48550
21
19450
31
0
0
LINE
5
1C2
330
10E
100
AcDbEntity
8
DIM
100
AcDbLine
10
18480
20
19380
30
0
11
18620
21
19520
31
0
0
LINE
5
1C3
330
10E
100
AcDbEntity
8
DIM
100
AcDbLine
10
48480
20
19380
30
0
11
48620
21
19520
31
0
0
TEXT
5
1C4
330
10E
100
AcDbEntity
8
DIM
100
AcDbText
10
33550
20
19530
30
0
40
200
1
30000
7
STANDARD
72
1
11
33550
21
19530
31
0
100
AcDbText
73
0
0
LINE
5
1C5
330
10E
100
AcDbEntity
8
DIM
100
AcDbLine
10
51750
20
23950
30
0
11
52200
21
23950
31
0
0
LINE
5
1C6
330
10E
100
AcDbEntity
8
DIM
100
AcDbLine
10
51750
20
31950
30
0
11
52200
21
31950
31
0
0
LINE
5
1C7
330
10E
100
AcDbEntity
8
DIM
100
AcDbLine
10
52350
20
23950
30
0
11
52350
21
31950
31
0
0
LINE
5
1C8
330
10E
100
AcDbEntity
8
DIM
100
AcDbLine
10
52420
20
23880
30
0
11
52280
21
24020
31
0
0
LINE
5
1C9
330
10E
100
AcDbEntity
8
DIM
100
AcDbLine
10
52420
20
31880
30
0
11
52280
21
32020
31
0
0
TEXT
5
1CA
330
10E
100
AcDbEntity
8
DIM
100
AcDbText
10
52270
20
27950
30
0
40
200
1
8000
50
90
7
STANDARD
72
1
11
52270
21
27950
31
0
100
AcDbText
73
0
0
LINE
5
1CB
330
10E
100
AcDbEntity
8
DIM
100
AcDbLine
10
51750
20
31950
30
0
11
52200
21
31950
31
0
0
LINE
5
1CC
330
10E
100
AcDbEntity
8
DIM
100
AcDbLine
10
51750
20
39950
30
0
11
52200
21
39950
31
0
0
LINE
5
1CD
330
10E
100
AcDbEntity
8
DIM
100
AcDbLine
10
52350
20
31950
30
0
11
52350
21
39950
31
0
0
LINE
5
1CE
330
10E
100
AcDbEntity
8
DIM
100
AcDbLine
10
52420
20
31880
30
0
11
52280
21
32020
31
0
0
LINE
5
1CF
330
10E
100
AcDbEntity
8
DIM
100
AcDbLine
10
52420
20
39880
30
0
11
52280
21
40020
31
0
0
TEXT
5
1D0
330
10E
100
AcDbEntity
8
DIM
100
AcDbText
10
52270
20
35950
30
0
40
200
1
8000
50
90
7
STANDARD
72
1
11
52270
21
35950
31
0
100
AcDbText
73
0
0
LINE
5
1D1
330
10E
100
AcDbEntity
8
DIM
100
AcDbLine
10
51750
20
39950
30
0
11
52200
21
39950
31
0
0
LINE
5
1D2
330
10E
100
AcDbEntity
8
DIM
100
AcDbLine
10
51750
20
47950
30
0
11
52200
21
47950
31
0
0
LINE
5
1D3
330
10E
100
AcDbEntity
8
DIM
100
AcDbLine
10
52350
20
39950
30
0
11
52350
21
47950
31
0
0
LINE
5
1D4
330
10E
100
AcDbEntity
8
DIM
100
AcDbLine
10
52420
20
39880
30
0
11
52280
21
40020
31
0
0
LINE
5
1D5
330
10E
100
AcDbEntity
8
DIM
100
AcDbLine
10
52420
20
47880
30
0
11
52280
21
48020
31
0
0
TEXT
5
1D6
330
10E
100
AcDbEntity
8
DIM
100
AcDbText
10
52270
20
43950
30
0
40
200
1
8000
50
90
7
STANDARD
72
1
11
52270
21
43950
31
0
100
AcDbText
73
0
0
LINE
5
1D7
330
10E
100
AcDbEntity
8
DIM
100
AcDbLine
10
51750
20
23950
30
0
11
52900
21
23950
31
0
0
LINE
5
1D8
330
10E
100
AcDbEntity
8
DIM
100
AcDbLine
10
51750
20
47950
30
0
11
52900
21
47950
31
0
0
LINE
5
1D9
330
10E
100
AcDbEntity
8
DIM
100
AcDbLine
10
53050
20
23950
30
0
11
53050
21
47950
31
0
0
LINE
5
1DA
330
10E
100
AcDbEntity
8
DIM
100
AcDbLine
10
53120
20
23880
30
0
11
52980
21
24020
31
0
0
LINE
5
1DB
330
10E
100
AcDbEntity
8
DIM
100
AcDbLine
10
53120
20
47880
30
0
11
52980
21
48020
31
0
0
TEXT
5
1DC
330
10E
100
AcDbEntity
8
DIM
100
AcDbText
10
52970
20
35950
30
0
40
200
1
24000
50
90
7
STANDARD
72
1
11
52970
21
35950
31
0
100
AcDbText
73
0
0
LWPOLYLINE
5
1DD
330
10E
100
AcDbEntity
8
OUTLINE
100
AcDbPolyline
90
4
70
1
43
0
10
17050
20
22950
10
49550
20
22950
10
49550
20
48950
10
17050
20
48950
0
LWPOLYLINE
5
1DE
330
10E
100
AcDbEntity
8
COLUMN
100
AcDbPolyline
90
4
70
1
43
0
10
18250
20
47650
10
18850
20
47650
10
18850
20
48250
10
18250
20
48250
0
HATCH
5
1DF
330
10E
100
AcDbEntity
8
COLUMN-HATCH
100
AcDbHatch
10
0
20
0
30
0
210
0
220
0
230
1
2
ANSI31
70
0
71
0
91
1
92
3
72
0
73
1
93
4
10
18250
20
47650
10
18850
20
47650
10
18850
20
48250
10
18250
20
48250
97
0
75
1
76
1
52
0
41
37.795276
77
0
78
1
53
45
43
0
44
0
45
-84.852814
46
84.852814
79
0
47
1
98
0
0
LWPOLYLINE
5
1E0
330
10E
100
AcDbEntity
8
COLUMN
100
AcDbPolyline
90
4
70
1
43
0
10
25750
20
47650
10
26350
20
47650
10
26350
20
48250
10
25750
20
48250
0
HATCH
5
1E1
330
10E
100
AcDbEntity
8
COLUMN-HATCH
100
AcDbHatch
10
0
20
0
30
0
210
0
220
0
230
1
2
ANSI31
70
0
71
0
91
1
92
3
72
0
73
1
93
4
10
25750
20
47650
10
26350
20
47650
10
26350
20
48250
10
25750
20
48250
97
0
75
1
76
1
52
0
41
37.795276
77
0
78
1
53
45
43
0
44
0
45
-84.852814
46
84.852814
79
0
47
1
98
0
0
LWPOLYLINE
5
1E2
330
10E
100
AcDbEntity
8
COLUMN
100
AcDbPolyline
90
4
70
1
43
0
10
33250
20
47650
10
33850
20
47650
10
33850
20
48250
10
33250
20
48250
0
HATCH
5
1E3
330
10E
100
AcDbEntity
8
COLUMN-HATCH
100
AcDbHatch
10
0
20
0
30
0
210
0
220
0
230
1
2
ANSI31
70
0
71
0
91
1
92
3
72
0
73
1
93
4
10
33250
20
47650
10
33850
20
47650
10
33850
20
48250
10
33250
20
48250
97
0
75
1
76
1
52
0
41
37.795276
77
0
78
1
53
45
43
0
44
0
45
-84.852814
46
84.852814
79
0
47
1
98
0
0
LWPOLYLINE
5
1E4
330
10E
100
AcDbEntity
8
COLUMN
100
AcDbPolyline
90
4
70
1
43
0
10
40750
20
47650
10
41350
20
47650
10
41350
20
48250
10
40750
20
48250
0
HATCH
5
1E5
330
10E
100
AcDbEntity
8
COLUMN-HATCH
100
AcDbHatch
10
0
20
0
30
0
210
0
220
0
230
1
2
ANSI31
70
0
71
0
91
1
92
3
72
0
73
1
93
4
10
40750
20
47650
10
41350
20
47650
10
41350
20
48250
10
40750
20
48250
97
0
75
1
76
1
52
0
41
37.795276
77
0
78
1
53
45
43
0
44
0
45
-84.852814
46
84.852814
79
0
47
1
98
0
0
LWPOLYLINE
5
1E6
330
10E
100
AcDbEntity
8
COLUMN
100
AcDbPolyline
90
4
70
1
43
0
10
48250
20
47650
10
48850
20
47650
10
48850
20
48250
10
48250
20
48250
0
HATCH
5
1E7
330
10E
100
AcDbEntity
8
COLUMN-HATCH
100
AcDbHatch
10
0
20
0
30
0
210
0
220
0
230
1
2
ANSI31
70
0
71
0
91
1
92
3
72
0
73
1
93
4
10
48250
20
47650
10
48850
20
47650
10
48850
20
48250
10
48250
20
48250
97
0
75
1
76
1
52
0
41
37.795276
77
0
78
1
53
45
43
0
44
0
45
-84.852814
46
84.852814
79
0
47
1
98
0
0
LWPOLYLINE
5
1E8
330
10E
100
AcDbEntity
8
COLUMN
100
AcDbPolyline
90
4
70
1
43
0
10
18250
20
39650
10
18850
20
39650
10
18850
20
40250
10
18250
20
40250
0
HATCH
5
1E9
330
10E
100
AcDbEntity
8
COLUMN-HATCH
100
AcDbHatch
10
0
20
0
30
0
210
0
220
0
230
1
2
ANSI31
70
0
71
0
91
1
92
3
72
0
73
1
93
4
10
18250
20
39650
10
18850
20
39650
10
18850
20
40250
10
18250
20
40250
97
0
75
1
76
1
52
0
41
37.795276
77
0
78
1
53
45
43
0
44
0
45
-84.852814
46
84.852814
79
0
47
1
98
0
0
LWPOLYLINE
5
1EA
330
10E
100
AcDbEntity
8
COLUMN
100
AcDbPolyline
90
4
70
1
43
0
10
25750
20
39650
10
26350
20
39650
10
26350
20
40250
10
25750
20
40250
0
HATCH
5
1EB
330
10E
100
AcDbEntity
8
COLUMN-HATCH
100
AcDbHatch
10
0
20
0
30
0
210
0
220
0
230
1
2
ANSI31
70
0
71
0
91
1
92
3
72
0
73
1
93
4
10
25750
20
39650
10
26350
20
39650
10
26350
20
40250
10
25750
20
40250
97
0
75
1
76
1
52
0
41
37.795276
77
0
78
1
53
45
43
0
44
0
45
-84.852814
46
84.852814
79
0
47
1
98
0
0
LWPOLYLINE
5
1EC
330
10E
100
AcDbEntity
8
COLUMN
100
AcDbPolyline
90
4
70
1
43
0
10
33250
20
39650
10
33850
20
39650
10
33850
20
40250
10
33250
20
40250
0
HATCH
5
1ED
330
10E
100
AcDbEntity
8
COLUMN-HATCH
100
AcDbHatch
10
0
20
0
30
0
210
0
220
0
230
1
2
ANSI31
70
0
71
0
91
1
92
3
72
0
73
1
93
4
10
33250
20
39650
10
33850
20
39650
10
33850
20
40250
10
33250
20
40250
97
0
75
1
76
1
52
0
41
37.795276
77
0
78
1
53
45
43
0
44
0
45
-84.852814
46
84.852814
79
0
47
1
98
0
0
LWPOLYLINE
5
1EE
330
10E
100
AcDbEntity
8
COLUMN
100
AcDbPolyline
90
4
70
1
43
0
10
40750
20
39650
10
41350
20
39650
10
41350
20
40250
10
40750
20
40250
0
HATCH
5
1EF
330
10E
100
AcDbEntity
8
COLUMN-HATCH
100
AcDbHatch
10
0
20
0
30
0
210
0
220
0
230
1
2
ANSI31
70
0
71
0
91
1
92
3
72
0
73
1
93
4
10
40750
20
39650
10
41350
20
39650
10
41350
20
40250
10
40750
20
40250
97
0
75
1
76
1
52
0
41
37.795276
77
0
78
1
53
45
43
0
44
0
45
-84.852814
46
84.852814
79
0
47
1
98
0
0
LWPOLYLINE
5
1F0
330
10E
100
AcDbEntity
8
COLUMN
100
AcDbPolyline
90
4
70
1
43
0
10
48250
20
39650
10
48850
20
39650
10
48850
20
40250
10
48250
20
40250
0
HATCH
5
1F1
330
10E
100
AcDbEntity
8
COLUMN-HATCH
100
AcDbHatch
10
0
20
0
30
0
210
0
220
0
230
1
2
ANSI31
70
0
71
0
91
1
92
3
72
0
73
1
93
4
10
48250
20
39650
10
48850
20
39650
10
48850
20
40250
10
48250
20
40250
97
0
75
1
76
1
52
0
41
37.795276
77
0
78
1
53
45
43
0
44
0
45
-84.852814
46
84.852814
79
0
47
1
98
0
0
LWPOLYLINE
5
1F2
330
10E
100
AcDbEntity
8
COLUMN
100
AcDbPolyline
90
4
70
1
43
0
10
18250
20
31650
10
18850
20
31650
10
18850
20
32250
10
18250
20
32250
0
HATCH
5
1F3
330
10E
100
AcDbEntity
8
COLUMN-HATCH
100
AcDbHatch
10
0
20
0
30
0
210
0
220
0
230
1
2
ANSI31
70
0
71
0
91
1
92
3
72
0
73
1
93
4
10
18250
20
31650
10
18850
20
31650
10
18850
20
32250
10
18250
20
32250
97
0
75
1
76
1
52
0
41
37.795276
77
0
78
1
53
45
43
0
44
0
45
-84.852814
46
84.852814
79
0
47
1
98
0
0
LWPOLYLINE
5
1F4
330
10E
100
AcDbEntity
8
COLUMN
100
AcDbPolyline
90
4
70
1
43
0
10
25750
20
31650
10
26350
20
31650
10
26350
20
32250
10
25750
20
32250
0
HATCH
5
1F5
330
10E
100
AcDbEntity
8
COLUMN-HATCH
100
AcDbHatch
10
0
20
0
30
0
210
0
220
0
230
1
2
ANSI31
70
0
71
0
91
1
92
3
72
0
73
1
93
4
10
25750
20
31650
10
26350
20
31650
10
26350
20
32250
10
25750
20
32250
97
0
75
1
76
1
52
0
41
37.795276
77
0
78
1
53
45
43
0
44
0
45
-84.852814
46
84.852814
79
0
47
1
98
0
0
LWPOLYLINE
5
1F6
330
10E
100
AcDbEntity
8
COLUMN
100
AcDbPolyline
90
4
70
1
43
0
10
33250
20
31650
10
33850
20
31650
10
33850
20
32250
10
33250
20
32250
0
HATCH
5
1F7
330
10E
100
AcDbEntity
8
COLUMN-HATCH
100
AcDbHatch
10
0
20
0
30
0
210
0
220
0
230
1
2
ANSI31
70
0
71
0
91
1
92
3
72
0
73
1
93
4
10
33250
20
31650
10
33850
20
31650
10
33850
20
32250
10
33250
20
32250
97
0
75
1
76
1
52
0
41
37.795276
77
0
78
1
53
45
43
0
44
0
45
-84.852814
46
84.852814
79
0
47
1
98
0
0
LWPOLYLINE
5
1F8
330
10E
100
AcDbEntity
8
COLUMN
100
AcDbPolyline
90
4
70
1
43
0
10
40750
20
31650
10
41350
20
31650
10
41350
20
32250
10
40750
20
32250
0
HATCH
5
1F9
330
10E
100
AcDbEntity
8
COLUMN-HATCH
100
AcDbHatch
10
0
20
0
30
0
210
0
220
0
230
1
2
ANSI31
70
0
71
0
91
1
92
3
72
0
73
1
93
4
10
40750
20
31650
10
41350
20
31650
10
41350
20
32250
10
40750
20
32250
97
0
75
1
76
1
52
0
41
37.795276
77
0
78
1
53
45
43
0
44
0
45
-84.852814
46
84.852814
79
0
47
1
98
0
0
LWPOLYLINE
5
1FA
330
10E
100
AcDbEntity
8
COLUMN
100
AcDbPolyline
90
4
70
1
43
0
10
48250
20
31650
10
48850
20
31650
10
48850
20
32250
10
48250
20
32250
0
HATCH
5
1FB
330
10E
100
AcDbEntity
8
COLUMN-HATCH
100
AcDbHatch
10
0
20
0
30
0
210
0
220
0
230
1
2
ANSI31
70
0
71
0
91
1
92
3
72
0
73
1
93
4
10
48250
20
31650
10
48850
20
31650
10
48850
20
32250
10
48250
20
32250
97
0
75
1
76
1
52
0
41
37.795276
77
0
78
1
53
45
43
0
44
0
45
-84.852814
46
84.852814
79
0
47
1
98
0
0
LWPOLYLINE
5
1FC
330
10E
100
AcDbEntity
8
COLUMN
100
AcDbPolyline
90
4
70
1
43
0
10
18250
20
23650
10
18850
20
23650
10
18850
20
24250
10
18250
20
24250
0
HATCH
5
1FD
330
10E
100
AcDbEntity
8
COLUMN-HATCH
100
AcDbHatch
10
0
20
0
30
0
210
0
220
0
230
1
2
ANSI31
70
0
71
0
91
1
92
3
72
0
73
1
93
4
10
18250
20
23650
10
18850
20
23650
10
18850
20
24250
10
18250
20
24250
97
0
75
1
76
1
52
0
41
37.795276
77
0
78
1
53
45
43
0
44
0
45
-84.852814
46
84.852814
79
0
47
1
98
0
0
LWPOLYLINE
5
1FE
330
10E
100
AcDbEntity
8
COLUMN
100
AcDbPolyline
90
4
70
1
43
0
10
25750
20
23650
10
26350
20
23650
10
26350
20
24250
10
25750
20
24250
0
HATCH
5
1FF
330
10E
100
AcDbEntity
8
COLUMN-HATCH
100
AcDbHatch
10
0
20
0
30
0
210
0
220
0
230
1
2
ANSI31
70
0
71
0
91
1
92
3
72
0
73
1
93
4
10
25750
20
23650
10
26350
20
23650
10
26350
20
24250
10
25750
20
24250
97
0
75
1
76
1
52
0
41
37.795276
77
0
78
1
53
45
43
0
44
0
45
-84.852814
46
84.852814
79
0
47
1
98
0
0
LWPOLYLINE
5
200
330
10E
100
AcDbEntity
8
COLUMN
100
AcDbPolyline
90
4
70
1
43
0
10
33250
20
23650
10
33850
20
23650
10
33850
20
24250
10
33250
20
24250
0
HATCH
5
201
330
10E
100
AcDbEntity
8
COLUMN-HATCH
100
AcDbHatch
10
0
20
0
30
0
210
0
220
0
230
1
2
ANSI31
70
0
71
0
91
1
92
3
72
0
73
1
93
4
10
33250
20
23650
10
33850
20
23650
10
33850
20
24250
10
33250
20
24250
97
0
75
1
76
1
52
0
41
37.795276
77
0
78
1
53
45
43
0
44
0
45
-84.852814
46
84.852814
79
0
47
1
98
0
0
LWPOLYLINE
5
202
330
10E
100
AcDbEntity
8
COLUMN
100
AcDbPolyline
90
4
70
1
43
0
10
40750
20
23650
10
41350
20
23650
10
41350
20
24250
10
40750
20
24250
0
HATCH
5
203
330
10E
100
AcDbEntity
8
COLUMN-HATCH
100
AcDbHatch
10
0
20
0
30
0
210
0
220
0
230
1
2
ANSI31
70
0
71
0
91
1
92
3
72
0
73
1
93
4
10
40750
20
23650
10
41350
20
23650
10
41350
20
24250
10
40750
20
24250
97
0
75
1
76
1
52
0
41
37.795276
77
0
78
1
53
45
43
0
44
0
45
-84.852814
46
84.852814
79
0
47
1
98
0
0
LWPOLYLINE
5
204
330
10E
100
AcDbEntity
8
COLUMN
100
AcDbPolyline
90
4
70
1
43
0
10
48250
20
23650
10
48850
20
23650
10
48850
20
24250
10
48250
20
24250
0
HATCH
5
205
330
10E
100
AcDbEntity
8
COLUMN-HATCH
100
AcDbHatch
10
0
20
0
30
0
210
0
220
0
230
1
2
ANSI31
70
0
71
0
91
1
92
3
72
0
73
1
93
4
10
48250
20
23650
10
48850
20
23650
10
48850
20
24250
10
48250
20
24250
97
0
75
1
76
1
52
0
41
37.795276
77
0
78
1
53
45
43
0
44
0
45
-84.852814
46
84.852814
79
0
47
1
98
0
0
LWPOLYLINE
5
206
330
10E
100
AcDbEntity
8
OPENING
100
AcDbPolyline
90
4
70
1
43
0
10
28050
20
33450
10
31050
20
33450
10
31050
20
38450
10
28050
20
38450
0
LINE
5
207
330
10E
100
AcDbEntity
8
OPENING
100
AcDbLine
10
28050
20
33450
30
0
11
31050
21
38450
31
0
0
LINE
5
208
330
10E
100
AcDbEntity
8
OPENING
100
AcDbLine
10
31050
20
33450
30
0
11
28050
21
38450
31
0
0
LWPOLYLINE
5
209
330
10E
100
AcDbEntity
8
OPENING
100
AcDbPolyline
90
4
70
1
43
0
10
42550
20
33950
10
45050
20
33950
10
45050
20
36450
10
42550
20
36450
0
LINE
5
20A
330
10E
100
AcDbEntity
8
OPENING
100
AcDbLine
10
42550
20
33950
30
0
11
45050
21
36450
31
0
0
LINE
5
20B
330
10E
100
AcDbEntity
8
OPENING
100
AcDbLine
10
45050
20
33950
30
0
11
42550
21
36450
31
0
0
LWPOLYLINE
5
20C
330
10E
100
AcDbEntity
8
VOID
100
AcDbPolyline
90
4
70
1
43
0
10
20550
20
40950
10
24550
20
40950
10
24550
20
43950
10
20550
20
43950
0
HATCH
5
20D
330
10E
100
AcDbEntity
8
VOID-HATCH
100
AcDbHatch
10
0
20
0
30
0
210
0
220
0
230
1
2
ANSI37
70
0
71
0
91
1
92
3
72
0
73
1
93
4
10
20550
20
40950
10
24550
20
40950
10
24550
20
43950
10
20550
20
43950
97
0
75
1
76
1
52
0
41
78.740157
77
0
78
2
53
45
43
0
44
0
45
-176.776695
46
176.776695
79
0
53
135
43
0
44
0
45
-176.776695
46
-176.776695
79
0
47
1
98
0
0
CIRCLE
5
20E
330
10E
100
AcDbEntity
8
TEXT
100
AcDbCircle
10
3600
20
56400
30
0
40
700
0
SOLID
5
20F
330
10E
100
AcDbEntity
8
TEXT
100
AcDbTrace
10
3600
20
57000
30
0
11
3300
21
56000
31
0
12
3900
22
56000
32
0
13
3600
23
56250
33
0
0
TEXT
5
210
330
10E
100
AcDbEntity
8
TEXT
100
AcDbText
10
3600
20
57300
30
0
40
300
1
N
7
STANDARD
72
1
11
3600
21
57300
31
0
100
AcDbText
73
0
0
LINE
5
211
330
10E
100
AcDbEntity
8
REBAR-U
100
AcDbLine
10
17075
20
23015
30
0
11
49525
21
23015
31
0
0
LINE
5
212
330
10E
100
AcDbEntity
8
REBAR-U
100
AcDbLine
10
17075
20
23085
30
0
11
49525
21
23085
31
0
0
LINE
5
213
330
10E
100
AcDbEntity
8
REBAR-U
100
AcDbLine
10
17175
20
22975
30
0
11
17175
21
24150
31
0
0
LINE
5
214
330
10E
100
AcDbEntity
8
REBAR-U
100
AcDbLine
10
17095
20
22975
30
0
11
17255
21
22975
31
0
0
LINE
5
215
330
10E
100
AcDbEntity
8
REBAR-U
100
AcDbLine
10
18175
20
22975
30
0
11
18175
21
24150
31
0
0
LINE
5
216
330
10E
100
AcDbEntity
8
REBAR-U
100
AcDbLine
10
18095
20
22975
30
0
11
18255
21
22975
31
0
0
LINE
5
217
330
10E
100
AcDbEntity
8
REBAR-U
100
AcDbLine
10
19175
20
22975
30
0
11
19175
21
24150
31
0
0
LINE
5
218
330
10E
100
AcDbEntity
8
REBAR-U
100
AcDbLine
10
19095
20
22975
30
0
11
19255
21
22975
31
0
0
LINE
5
219
330
10E
100
AcDbEntity
8
REBAR-U
100
AcDbLine
10
20175
20
22975
30
0
11
20175
21
24150
31
0
0
LINE
5
21A
330
10E
100
AcDbEntity
8
REBAR-U
100
AcDbLine
10
20095
20
22975
30
0
11
20255
21
22975
31
0
0
LINE
5
21B
330
10E
100
AcDbEntity
8
REBAR-U
100
AcDbLine
10
21175
20
22975
30
0
11
21175
21
24150
31
0
0
LINE
5
21C
330
10E
100
AcDbEntity
8
REBAR-U
100
AcDbLine
10
21095
20
22975
30
0
11
21255
21
22975
31
0
0
LINE
5
21D
330
10E
100
AcDbEntity
8
REBAR-U
100
AcDbLine
10
22175
20
22975
30
0
11
22175
21
24150
31
0
0
LINE
5
21E
330
10E
100
AcDbEntity
8
REBAR-U
100
AcDbLine
10
22095
20
22975
30
0
11
22255
21
22975
31
0
0
LINE
5
21F
330
10E
100
AcDbEntity
8
REBAR-U
100
AcDbLine
10
23175
20
22975
30
0
11
23175
21
24150
31
0
0
LINE
5
220
330
10E
100
AcDbEntity
8
REBAR-U
100
AcDbLine
10
23095
20
22975
30
0
11
23255
21
22975
31
0
0
LINE
5
221
330
10E
100
AcDbEntity
8
REBAR-U
100
AcDbLine
10
24175
20
22975
30
0
11
24175
21
24150
31
0
0
LINE
5
222
330
10E
100
AcDbEntity
8
REBAR-U
100
AcDbLine
10
24095
20
22975
30
0
11
24255
21
22975
31
0
0
LINE
5
223
330
10E
100
AcDbEntity
8
REBAR-U
100
AcDbLine
10
25175
20
22975
30
0
11
25175
21
24150
31
0
0
LINE
5
224
330
10E
100
AcDbEntity
8
REBAR-U
100
AcDbLine
10
25095
20
22975
30
0
11
25255
21
22975
31
0
0
LINE
5
225
330
10E
100
AcDbEntity
8
REBAR-U
100
AcDbLine
10
26175
20
22975
30
0
11
26175
21
24150
31
0
0
LINE
5
226
330
10E
100
AcDbEntity
8
REBAR-U
100
AcDbLine
10
26095
20
22975
30
0
11
26255
21
22975
31
0
0
LINE
5
227
330
10E
100
AcDbEntity
8
REBAR-U
100
AcDbLine
10
27175
20
22975
30
0
11
27175
21
24150
31
0
0
LINE
5
228
330
10E
100
AcDbEntity
8
REBAR-U
100
AcDbLine
10
27095
20
22975
30
0
11
27255
21
22975
31
0
0
LINE
5
229
330
10E
100
AcDbEntity
8
REBAR-U
100
AcDbLine
10
28175
20
22975
30
0
11
28175
21
24150
31
0
0
LINE
5
22A
330
10E
100
AcDbEntity
8
REBAR-U
100
AcDbLine
10
28095
20
22975
30
0
11
28255
21
22975
31
0
0
LINE
5
22B
330
10E
100
AcDbEntity
8
REBAR-U
100
AcDbLine
10
29175
20
22975
30
0
11
29175
21
24150
31
0
0
LINE
5
22C
330
10E
100
AcDbEntity
8
REBAR-U
100
AcDbLine
10
29095
20
22975
30
0
11
29255
21
22975
31
0
0
LINE
5
22D
330
10E
100
AcDbEntity
8
REBAR-U
100
AcDbLine
10
30175
20
22975
30
0
11
30175
21
24150
31
0
0
LINE
5
22E
330
10E
100
AcDbEntity
8
REBAR-U
100
AcDbLine
10
30095
20
22975
30
0
11
30255
21
22975
31
0
0
LINE
5
22F
330
10E
100
AcDbEntity
8
REBAR-U
100
AcDbLine
10
31175
20
22975
30
0
11
31175
21
24150
31
0
0
LINE
5
230
330
10E
100
AcDbEntity
8
REBAR-U
100
AcDbLine
10
31095
20
22975
30
0
11
31255
21
22975
31
0
0
LINE
5
231
330
10E
100
AcDbEntity
8
REBAR-U
100
AcDbLine
10
32175
20
22975
30
0
11
32175
21
24150
31
0
0
LINE
5
232
330
10E
100
AcDbEntity
8
REBAR-U
100
AcDbLine
10
32095
20
22975
30
0
11
32255
21
22975
31
0
0
LINE
5
233
330
10E
100
AcDbEntity
8
REBAR-U
100
AcDbLine
10
33175
20
22975
30
0
11
33175
21
24150
31
0
0
LINE
5
234
330
10E
100
AcDbEntity
8
REBAR-U
100
AcDbLine
10
33095
20
22975
30
0
11
33255
21
22975
31
0
0
LINE
5
235
330
10E
100
AcDbEntity
8
REBAR-U
100
AcDbLine
10
34175
20
22975
30
0
11
34175
21
24150
31
0
0
LINE
5
236
330
10E
100
AcDbEntity
8
REBAR-U
100
AcDbLine
10
34095
20
22975
30
0
11
34255
21
22975
31
0
0
LINE
5
237
330
10E
100
AcDbEntity
8
REBAR-U
100
AcDbLine
10
35175
20
22975
30
0
11
35175
21
24150
31
0
0
LINE
5
238
330
10E
100
AcDbEntity
8
REBAR-U
100
AcDbLine
10
35095
20
22975
30
0
11
35255
21
22975
31
0
0
LINE
5
239
330
10E
100
AcDbEntity
8
REBAR-U
100
AcDbLine
10
36175
20
22975
30
0
11
36175
21
24150
31
0
0
LINE
5
23A
330
10E
100
AcDbEntity
8
REBAR-U
100
AcDbLine
10
36095
20
22975
30
0
11
36255
21
22975
31
0
0
LINE
5
23B
330
10E
100
AcDbEntity
8
REBAR-U
100
AcDbLine
10
37175
20
22975
30
0
11
37175
21
24150
31
0
0
LINE
5
23C
330
10E
100
AcDbEntity
8
REBAR-U
100
AcDbLine
10
37095
20
22975
30
0
11
37255
21
22975
31
0
0
LINE
5
23D
330
10E
100
AcDbEntity
8
REBAR-U
100
AcDbLine
10
38175
20
22975
30
0
11
38175
21
24150
31
0
0
LINE
5
23E
330
10E
100
AcDbEntity
8
REBAR-U
100
AcDbLine
10
38095
20
22975
30
0
11
38255
21
22975
31
0
0
LINE
5
23F
330
10E
100
AcDbEntity
8
REBAR-U
100
AcDbLine
10
39175
20
22975
30
0
11
39175
21
24150
31
0
0
LINE
5
240
330
10E
100
AcDbEntity
8
REBAR-U
100
AcDbLine
10
39095
20
22975
30
0
11
39255
21
22975
31
0
0
LINE
5
241
330
10E
100
AcDbEntity
8
REBAR-U
100
AcDbLine
10
40175
20
22975
30
0
11
40175
21
24150
31
0
0
LINE
5
242
330
10E
100
AcDbEntity
8
REBAR-U
100
AcDbLine
10
40095
20
22975
30
0
11
40255
21
22975
31
0
0
LINE
5
243
330
10E
100
AcDbEntity
8
REBAR-U
100
AcDbLine
10
41175
20
22975
30
0
11
41175
21
24150
31
0
0
LINE
5
244
330
10E
100
AcDbEntity
8
REBAR-U
100
AcDbLine
10
41095
20
22975
30
0
11
41255
21
22975
31
0
0
LINE
5
245
330
10E
100
AcDbEntity
8
REBAR-U
100
AcDbLine
10
42175
20
22975
30
0
11
42175
21
24150
31
0
0
LINE
5
246
330
10E
100
AcDbEntity
8
REBAR-U
100
AcDbLine
10
42095
20
22975
30
0
11
42255
21
22975
31
0
0
LINE
5
247
330
10E
100
AcDbEntity
8
REBAR-U
100
AcDbLine
10
43175
20
22975
30
0
11
43175
21
24150
31
0
0
LINE
5
248
330
10E
100
AcDbEntity
8
REBAR-U
100
AcDbLine
10
43095
20
22975
30
0
11
43255
21
22975
31
0
0
LINE
5
249
330
10E
100
AcDbEntity
8
REBAR-U
100
AcDbLine
10
44175
20
22975
30
0
11
44175
21
24150
31
0
0
LINE
5
24A
330
10E
100
AcDbEntity
8
REBAR-U
100
AcDbLine
10
44095
20
22975
30
0
11
44255
21
22975
31
0
0
LINE
5
24B
330
10E
100
AcDbEntity
8
REBAR-U
100
AcDbLine
10
45175
20
22975
30
0
11
45175
21
24150
31
0
0
LINE
5
24C
330
10E
100
AcDbEntity
8
REBAR-U
100
AcDbLine
10
45095
20
22975
30
0
11
45255
21
22975
31
0
0
LINE
5
24D
330
10E
100
AcDbEntity
8
REBAR-U
100
AcDbLine
10
46175
20
22975
30
0
11
46175
21
24150
31
0
0
LINE
5
24E
330
10E
100
AcDbEntity
8
REBAR-U
100
AcDbLine
10
46095
20
22975
30
0
11
46255
21
22975
31
0
0
LINE
5
24F
330
10E
100
AcDbEntity
8
REBAR-U
100
AcDbLine
10
47175
20
22975
30
0
11
47175
21
24150
31
0
0
LINE
5
250
330
10E
100
AcDbEntity
8
REBAR-U
100
AcDbLine
10
47095
20
22975
30
0
11
47255
21
22975
31
0
0
LINE
5
251
330
10E
100
AcDbEntity
8
REBAR-U
100
AcDbLine
10
48175
20
22975
30
0
11
48175
21
24150
31
0
0
LINE
5
252
330
10E
100
AcDbEntity
8
REBAR-U
100
AcDbLine
10
48095
20
22975
30
0
11
48255
21
22975
31
0
0
LINE
5
253
330
10E
100
AcDbEntity
8
REBAR-U
100
AcDbLine
10
49175
20
22975
30
0
11
49175
21
24150
31
0
0
LINE
5
254
330
10E
100
AcDbEntity
8
REBAR-U
100
AcDbLine
10
49095
20
22975
30
0
11
49255
21
22975
31
0
0
TEXT
5
255
330
10E
100
AcDbEntity
8
REBAR-TEXT
100
AcDbText
10
33300
20
24850
30
0
40
170
1
E1: 163T12@200 U-BARS LEGS 1200 (U06) + 2T12 T&B EDGE BARS (U03+U04)
7
STANDARD
72
1
11
33300
21
24850
31
0
100
AcDbText
73
0
0
CIRCLE
5
256
330
10E
100
AcDbEntity
8
CALLOUT
100
AcDbCircle
10
33300
20
22350
30
0
40
300
0
TEXT
5
257
330
10E
100
AcDbEntity
8
CALLOUT
100
AcDbText
10
33300
20
22350
30
0
40
170
1
E1
7
STANDARD
72
1
11
33300
21
22350
31
0
100
AcDbText
73
2
0
LINE
5
258
330
10E
100
AcDbEntity
8
CALLOUT
100
AcDbLine
10
33300
20
22650
30
0
11
33300
21
22950
31
0
0
LINE
5
259
330
10E
100
AcDbEntity
8
REBAR-U
100
AcDbLine
10
49485
20
22975
30
0
11
49485
21
48925
31
0
0
LINE
5
25A
330
10E
100
AcDbEntity
8
REBAR-U
100
AcDbLine
10
49415
20
22975
30
0
11
49415
21
48925
31
0
0
LINE
5
25B
330
10E
100
AcDbEntity
8
REBAR-U
100
AcDbLine
10
49525
20
23075
30
0
11
48350
21
23075
31
0
0
LINE
5
25C
330
10E
100
AcDbEntity
8
REBAR-U
100
AcDbLine
10
49525
20
22995
30
0
11
49525
21
23155
31
0
0
LINE
5
25D
330
10E
100
AcDbEntity
8
REBAR-U
100
AcDbLine
10
49525
20
24075
30
0
11
48350
21
24075
31
0
0
LINE
5
25E
330
10E
100
AcDbEntity
8
REBAR-U
100
AcDbLine
10
49525
20
23995
30
0
11
49525
21
24155
31
0
0
LINE
5
25F
330
10E
100
AcDbEntity
8
REBAR-U
100
AcDbLine
10
49525
20
25075
30
0
11
48350
21
25075
31
0
0
LINE
5
260
330
10E
100
AcDbEntity
8
REBAR-U
100
AcDbLine
10
49525
20
24995
30
0
11
49525
21
25155
31
0
0
LINE
5
261
330
10E
100
AcDbEntity
8
REBAR-U
100
AcDbLine
10
49525
20
26075
30
0
11
48350
21
26075
31
0
0
LINE
5
262
330
10E
100
AcDbEntity
8
REBAR-U
100
AcDbLine
10
49525
20
25995
30
0
11
49525
21
26155
31
0
0
LINE
5
263
330
10E
100
AcDbEntity
8
REBAR-U
100
AcDbLine
10
49525
20
27075
30
0
11
48350
21
27075
31
0
0
LINE
5
264
330
10E
100
AcDbEntity
8
REBAR-U
100
AcDbLine
10
49525
20
26995
30
0
11
49525
21
27155
31
0
0
LINE
5
265
330
10E
100
AcDbEntity
8
REBAR-U
100
AcDbLine
10
49525
20
28075
30
0
11
48350
21
28075
31
0
0
LINE
5
266
330
10E
100
AcDbEntity
8
REBAR-U
100
AcDbLine
10
49525
20
27995
30
0
11
49525
21
28155
31
0
0
LINE
5
267
330
10E
100
AcDbEntity
8
REBAR-U
100
AcDbLine
10
49525
20
29075
30
0
11
48350
21
29075
31
0
0
LINE
5
268
330
10E
100
AcDbEntity
8
REBAR-U
100
AcDbLine
10
49525
20
28995
30
0
11
49525
21
29155
31
0
0
LINE
5
269
330
10E
100
AcDbEntity
8
REBAR-U
100
AcDbLine
10
49525
20
30075
30
0
11
48350
21
30075
31
0
0
LINE
5
26A
330
10E
100
AcDbEntity
8
REBAR-U
100
AcDbLine
10
49525
20
29995
30
0
11
49525
21
30155
31
0
0
LINE
5
26B
330
10E
100
AcDbEntity
8
REBAR-U
100
AcDbLine
10
49525
20
31075
30
0
11
48350
21
31075
31
0
0
LINE
5
26C
330
10E
100
AcDbEntity
8
REBAR-U
100
AcDbLine
10
49525
20
30995
30
0
11
49525
21
31155
31
0
0
LINE
5
26D
330
10E
100
AcDbEntity
8
REBAR-U
100
AcDbLine
10
49525
20
32075
30
0
11
48350
21
32075
31
0
0
LINE
5
26E
330
10E
100
AcDbEntity
8
REBAR-U
100
AcDbLine
10
49525
20
31995
30
0
11
49525
21
32155
31
0
0
LINE
5
26F
330
10E
100
AcDbEntity
8
REBAR-U
100
AcDbLine
10
49525
20
33075
30
0
11
48350
21
33075
31
0
0
LINE
5
270
330
10E
100
AcDbEntity
8
REBAR-U
100
AcDbLine
10
49525
20
32995
30
0
11
49525
21
33155
31
0
0
LINE
5
271
330
10E
100
AcDbEntity
8
REBAR-U
100
AcDbLine
10
49525
20
34075
30
0
11
48350
21
34075
31
0
0
LINE
5
272
330
10E
100
AcDbEntity
8
REBAR-U
100
AcDbLine
10
49525
20
33995
30
0
11
49525
21
34155
31
0
0
LINE
5
273
330
10E
100
AcDbEntity
8
REBAR-U
100
AcDbLine
10
49525
20
35075
30
0
11
48350
21
35075
31
0
0
LINE
5
274
330
10E
100
AcDbEntity
8
REBAR-U
100
AcDbLine
10
49525
20
34995
30
0
11
49525
21
35155
31
0
0
LINE
5
275
330
10E
100
AcDbEntity
8
REBAR-U
100
AcDbLine
10
49525
20
36075
30
0
11
48350
21
36075
31
0
0
LINE
5
276
330
10E
100
AcDbEntity
8
REBAR-U
100
AcDbLine
10
49525
20
35995
30
0
11
49525
21
36155
31
0
0
LINE
5
277
330
10E
100
AcDbEntity
8
REBAR-U
100
AcDbLine
10
49525
20
37075
30
0
11
48350
21
37075
31
0
0
LINE
5
278
330
10E
100
AcDbEntity
8
REBAR-U
100
AcDbLine
10
49525
20
36995
30
0
11
49525
21
37155
31
0
0
LINE
5
279
330
10E
100
AcDbEntity
8
REBAR-U
100
AcDbLine
10
49525
20
38075
30
0
11
48350
21
38075
31
0
0
LINE
5
27A
330
10E
100
AcDbEntity
8
REBAR-U
100
AcDbLine
10
49525
20
37995
30
0
11
49525
21
38155
31
0
0
LINE
5
27B
330
10E
100
AcDbEntity
8
REBAR-U
100
AcDbLine
10
49525
20
39075
30
0
11
48350
21
39075
31
0
0
LINE
5
27C
330
10E
100
AcDbEntity
8
REBAR-U
100
AcDbLine
10
49525
20
38995
30
0
11
49525
21
39155
31
0
0
LINE
5
27D
330
10E
100
AcDbEntity
8
REBAR-U
100
AcDbLine
10
49525
20
40075
30
0
11
48350
21
40075
31
0
0
LINE
5
27E
330
10E
100
AcDbEntity
8
REBAR-U
100
AcDbLine
10
49525
20
39995
30
0
11
49525
21
40155
31
0
0
LINE
5
27F
330
10E
100
AcDbEntity
8
REBAR-U
100
AcDbLine
10
49525
20
41075
30
0
11
48350
21
41075
31
0
0
LINE
5
280
330
10E
100
AcDbEntity
8
REBAR-U
100
AcDbLine
10
49525
20
40995
30
0
11
49525
21
41155
31
0
0
LINE
5
281
330
10E
100
AcDbEntity
8
REBAR-U
100
AcDbLine
10
49525
20
42075
30
0
11
48350
21
42075
31
0
0
LINE
5
282
330
10E
100
AcDbEntity
8
REBAR-U
100
AcDbLine
10
49525
20
41995
30
0
11
49525
21
42155
31
0
0
LINE
5
283
330
10E
100
AcDbEntity
8
REBAR-U
100
AcDbLine
10
49525
20
43075
30
0
11
48350
21
43075
31
0
0
LINE
5
284
330
10E
100
AcDbEntity
8
REBAR-U
100
AcDbLine
10
49525
20
42995
30
0
11
49525
21
43155
31
0
0
LINE
5
285
330
10E
100
AcDbEntity
8
REBAR-U
100
AcDbLine
10
49525
20
44075
30
0
11
48350
21
44075
31
0
0
LINE
5
286
330
10E
100
AcDbEntity
8
REBAR-U
100
AcDbLine
10
49525
20
43995
30
0
11
49525
21
44155
31
0
0
LINE
5
287
330
10E
100
AcDbEntity
8
REBAR-U
100
AcDbLine
10
49525
20
45075
30
0
11
48350
21
45075
31
0
0
LINE
5
288
330
10E
100
AcDbEntity
8
REBAR-U
100
AcDbLine
10
49525
20
44995
30
0
11
49525
21
45155
31
0
0
LINE
5
289
330
10E
100
AcDbEntity
8
REBAR-U
100
AcDbLine
10
49525
20
46075
30
0
11
48350
21
46075
31
0
0
LINE
5
28A
330
10E
100
AcDbEntity
8
REBAR-U
100
AcDbLine
10
49525
20
45995
30
0
11
49525
21
46155
31
0
0
LINE
5
28B
330
10E
100
AcDbEntity
8
REBAR-U
100
AcDbLine
10
49525
20
47075
30
0
11
48350
21
47075
31
0
0
LINE
5
28C
330
10E
100
AcDbEntity
8
REBAR-U
100
AcDbLine
10
49525
20
46995
30
0
11
49525
21
47155
31
0
0
LINE
5
28D
330
10E
100
AcDbEntity
8
REBAR-U
100
AcDbLine
10
49525
20
48075
30
0
11
48350
21
48075
31
0
0
LINE
5
28E
330
10E
100
AcDbEntity
8
REBAR-U
100
AcDbLine
10
49525
20
47995
30
0
11
49525
21
48155
31
0
0
TEXT
5
28F
330
10E
100
AcDbEntity
8
REBAR-TEXT
100
AcDbText
10
47650
20
35950
30
0
40
170
1
E2: 130T12@200 U-BARS LEGS 1200 (U06) + 2T12 T&B EDGE BARS (U03+U05)
50
90
7
STANDARD
72
1
11
47650
21
35950
31
0
100
AcDbText
73
0
0
CIRCLE
5
290
330
10E
100
AcDbEntity
8
CALLOUT
100
AcDbCircle
10
50150
20
35950
30
0
40
300
0
TEXT
5
291
330
10E
100
AcDbEntity
8
CALLOUT
100
AcDbText
10
50150
20
35950
30
0
40
170
1
E2
7
STANDARD
72
1
11
50150
21
35950
31
0
100
AcDbText
73
2
0
LINE
5
292
330
10E
100
AcDbEntity
8
CALLOUT
100
AcDbLine
10
49850
20
35950
30
0
11
49550
21
35950
31
0
0
LINE
5
293
330
10E
100
AcDbEntity
8
REBAR-U
100
AcDbLine
10
49525
20
48885
30
0
11
17075
21
48885
31
0
0
LINE
5
294
330
10E
100
AcDbEntity
8
REBAR-U
100
AcDbLine
10
49525
20
48815
30
0
11
17075
21
48815
31
0
0
LINE
5
295
330
10E
100
AcDbEntity
8
REBAR-U
100
AcDbLine
10
49425
20
48925
30
0
11
49425
21
47750
31
0
0
LINE
5
296
330
10E
100
AcDbEntity
8
REBAR-U
100
AcDbLine
10
49505
20
48925
30
0
11
49345
21
48925
31
0
0
LINE
5
297
330
10E
100
AcDbEntity
8
REBAR-U
100
AcDbLine
10
48425
20
48925
30
0
11
48425
21
47750
31
0
0
LINE
5
298
330
10E
100
AcDbEntity
8
REBAR-U
100
AcDbLine
10
48505
20
48925
30
0
11
48345
21
48925
31
0
0
LINE
5
299
330
10E
100
AcDbEntity
8
REBAR-U
100
AcDbLine
10
47425
20
48925
30
0
11
47425
21
47750
31
0
0
LINE
5
29A
330
10E
100
AcDbEntity
8
REBAR-U
100
AcDbLine
10
47505
20
48925
30
0
11
47345
21
48925
31
0
0
LINE
5
29B
330
10E
100
AcDbEntity
8
REBAR-U
100
AcDbLine
10
46425
20
48925
30
0
11
46425
21
47750
31
0
0
LINE
5
29C
330
10E
100
AcDbEntity
8
REBAR-U
100
AcDbLine
10
46505
20
48925
30
0
11
46345
21
48925
31
0
0
LINE
5
29D
330
10E
100
AcDbEntity
8
REBAR-U
100
AcDbLine
10
45425
20
48925
30
0
11
45425
21
47750
31
0
0
LINE
5
29E
330
10E
100
AcDbEntity
8
REBAR-U
100
AcDbLine
10
45505
20
48925
30
0
11
45345
21
48925
31
0
0
LINE
5
29F
330
10E
100
AcDbEntity
8
REBAR-U
100
AcDbLine
10
44425
20
48925
30
0
11
44425
21
47750
31
0
0
LINE
5
2A0
330
10E
100
AcDbEntity
8
REBAR-U
100
AcDbLine
10
44505
20
48925
30
0
11
44345
21
48925
31
0
0
LINE
5
2A1
330
10E
100
AcDbEntity
8
REBAR-U
100
AcDbLine
10
43425
20
48925
30
0
11
43425
21
47750
31
0
0
LINE
5
2A2
330
10E
100
AcDbEntity
8
REBAR-U
100
AcDbLine
10
43505
20
48925
30
0
11
43345
21
48925
31
0
0
LINE
5
2A3
330
10E
100
AcDbEntity
8
REBAR-U
100
AcDbLine
10
42425
20
48925
30
0
11
42425
21
47750
31
0
0
LINE
5
2A4
330
10E
100
AcDbEntity
8
REBAR-U
100
AcDbLine
10
42505
20
48925
30
0
11
42345
21
48925
31
0
0
LINE
5
2A5
330
10E
100
AcDbEntity
8
REBAR-U
100
AcDbLine
10
41425
20
48925
30
0
11
41425
21
47750
31
0
0
LINE
5
2A6
330
10E
100
AcDbEntity
8
REBAR-U
100
AcDbLine
10
41505
20
48925
30
0
11
41345
21
48925
31
0
0
LINE
5
2A7
330
10E
100
AcDbEntity
8
REBAR-U
100
AcDbLine
10
40425
20
48925
30
0
11
40425
21
47750
31
0
0
LINE
5
2A8
330
10E
100
AcDbEntity
8
REBAR-U
100
AcDbLine
10
40505
20
48925
30
0
11
40345
21
48925
31
0
0
LINE
5
2A9
330
10E
100
AcDbEntity
8
REBAR-U
100
AcDbLine
10
39425
20
48925
30
0
11
39425
21
47750
31
0
0
LINE
5
2AA
330
10E
100
AcDbEntity
8
REBAR-U
100
AcDbLine
10
39505
20
48925
30
0
11
39345
21
48925
31
0
0
LINE
5
2AB
330
10E
100
AcDbEntity
8
REBAR-U
100
AcDbLine
10
38425
20
48925
30
0
11
38425
21
47750
31
0
0
LINE
5
2AC
330
10E
100
AcDbEntity
8
REBAR-U
100
AcDbLine
10
38505
20
48925
30
0
11
38345
21
48925
31
0
0
LINE
5
2AD
330
10E
100
AcDbEntity
8
REBAR-U
100
AcDbLine
10
37425
20
48925
30
0
11
37425
21
47750
31
0
0
LINE
5
2AE
330
10E
100
AcDbEntity
8
REBAR-U
100
AcDbLine
10
37505
20
48925
30
0
11
37345
21
48925
31
0
0
LINE
5
2AF
330
10E
100
AcDbEntity
8
REBAR-U
100
AcDbLine
10
36425
20
48925
30
0
11
36425
21
47750
31
0
0
LINE
5
2B0
330
10E
100
AcDbEntity
8
REBAR-U
100
AcDbLine
10
36505
20
48925
30
0
11
36345
21
48925
31
0
0
LINE
5
2B1
330
10E
100
AcDbEntity
8
REBAR-U
100
AcDbLine
10
35425
20
48925
30
0
11
35425
21
47750
31
0
0
LINE
5
2B2
330
10E
100
AcDbEntity
8
REBAR-U
100
AcDbLine
10
35505
20
48925
30
0
11
35345
21
48925
31
0
0
LINE
5
2B3
330
10E
100
AcDbEntity
8
REBAR-U
100
AcDbLine
10
34425
20
48925
30
0
11
34425
21
47750
31
0
0
LINE
5
2B4
330
10E
100
AcDbEntity
8
REBAR-U
100
AcDbLine
10
34505
20
48925
30
0
11
34345
21
48925
31
0
0
LINE
5
2B5
330
10E
100
AcDbEntity
8
REBAR-U
100
AcDbLine
10
33425
20
48925
30
0
11
33425
21
47750
31
0
0
LINE
5
2B6
330
10E
100
AcDbEntity
8
REBAR-U
100
AcDbLine
10
33505
20
48925
30
0
11
33345
21
48925
31
0
0
LINE
5
2B7
330
10E
100
AcDbEntity
8
REBAR-U
100
AcDbLine
10
32425
20
48925
30
0
11
32425
21
47750
31
0
0
LINE
5
2B8
330
10E
100
AcDbEntity
8
REBAR-U
100
AcDbLine
10
32505
20
48925
30
0
11
32345
21
48925
31
0
0
LINE
5
2B9
330
10E
100
AcDbEntity
8
REBAR-U
100
AcDbLine
10
31425
20
48925
30
0
11
31425
21
47750
31
0
0
LINE
5
2BA
330
10E
100
AcDbEntity
8
REBAR-U
100
AcDbLine
10
31505
20
48925
30
0
11
31345
21
48925
31
0
0
LINE
5
2BB
330
10E
100
AcDbEntity
8
REBAR-U
100
AcDbLine
10
30425
20
48925
30
0
11
30425
21
47750
31
0
0
LINE
5
2BC
330
10E
100
AcDbEntity
8
REBAR-U
100
AcDbLine
10
30505
20
48925
30
0
11
30345
21
48925
31
0
0
LINE
5
2BD
330
10E
100
AcDbEntity
8
REBAR-U
100
AcDbLine
10
29425
20
48925
30
0
11
29425
21
47750
31
0
0
LINE
5
2BE
330
10E
100
AcDbEntity
8
REBAR-U
100
AcDbLine
10
29505
20
48925
30
0
11
29345
21
48925
31
0
0
LINE
5
2BF
330
10E
100
AcDbEntity
8
REBAR-U
100
AcDbLine
10
28425
20
48925
30
0
11
28425
21
47750
31
0
0
LINE
5
2C0
330
10E
100
AcDbEntity
8
REBAR-U
100
AcDbLine
10
28505
20
48925
30
0
11
28345
21
48925
31
0
0
LINE
5
2C1
330
10E
100
AcDbEntity
8
REBAR-U
100
AcDbLine
10
27425
20
48925
30
0
11
27425
21
47750
31
0
0
LINE
5
2C2
330
10E
100
AcDbEntity
8
REBAR-U
100
AcDbLine
10
27505
20
48925
30
0
11
27345
21
48925
31
0
0
LINE
5
2C3
330
10E
100
AcDbEntity
8
REBAR-U
100
AcDbLine
10
26425
20
48925
30
0
11
26425
21
47750
31
0
0
LINE
5
2C4
330
10E
100
AcDbEntity
8
REBAR-U
100
AcDbLine
10
26505
20
48925
30
0
11
26345
21
48925
31
0
0
LINE
5
2C5
330
10E
100
AcDbEntity
8
REBAR-U
100
AcDbLine
10
25425
20
48925
30
0
11
25425
21
47750
31
0
0
LINE
5
2C6
330
10E
100
AcDbEntity
8
REBAR-U
100
AcDbLine
10
25505
20
48925
30
0
11
25345
21
48925
31
0
0
LINE
5
2C7
330
10E
100
AcDbEntity
8
REBAR-U
100
AcDbLine
10
24425
20
48925
30
0
11
24425
21
47750
31
0
0
LINE
5
2C8
330
10E
100
AcDbEntity
8
REBAR-U
100
AcDbLine
10
24505
20
48925
30
0
11
24345
21
48925
31
0
0
LINE
5
2C9
330
10E
100
AcDbEntity
8
REBAR-U
100
AcDbLine
10
23425
20
48925
30
0
11
23425
21
47750
31
0
0
LINE
5
2CA
330
10E
100
AcDbEntity
8
REBAR-U
100
AcDbLine
10
23505
20
48925
30
0
11
23345
21
48925
31
0
0
LINE
5
2CB
330
10E
100
AcDbEntity
8
REBAR-U
100
AcDbLine
10
22425
20
48925
30
0
11
22425
21
47750
31
0
0
LINE
5
2CC
330
10E
100
AcDbEntity
8
REBAR-U
100
AcDbLine
10
22505
20
48925
30
0
11
22345
21
48925
31
0
0
LINE
5
2CD
330
10E
100
AcDbEntity
8
REBAR-U
100
AcDbLine
10
21425
20
48925
30
0
11
21425
21
47750
31
0
0
LINE
5
2CE
330
10E
100
AcDbEntity
8
REBAR-U
100
AcDbLine
10
21505
20
48925
30
0
11
21345
21
48925
31
0
0
LINE
5
2CF
330
10E
100
AcDbEntity
8
REBAR-U
100
AcDbLine
10
20425
20
48925
30
0
11
20425
21
47750
31
0
0
LINE
5
2D0
330
10E
100
AcDbEntity
8
REBAR-U
100
AcDbLine
10
20505
20
48925
30
0
11
20345
21
48925
31
0
0
LINE
5
2D1
330
10E
100
AcDbEntity
8
REBAR-U
100
AcDbLine
10
19425
20
48925
30
0
11
19425
21
47750
31
0
0
LINE
5
2D2
330
10E
100
AcDbEntity
8
REBAR-U
100
AcDbLine
10
19505
20
48925
30
0
11
19345
21
48925
31
0
0
LINE
5
2D3
330
10E
100
AcDbEntity
8
REBAR-U
100
AcDbLine
10
18425
20
48925
30
0
11
18425
21
47750
31
0
0
LINE
5
2D4
330
10E
100
AcDbEntity
8
REBAR-U
100
AcDbLine
10
18505
20
48925
30
0
11
18345
21
48925
31
0
0
LINE
5
2D5
330
10E
100
AcDbEntity
8
REBAR-U
100
AcDbLine
10
17425
20
48925
30
0
11
17425
21
47750
31
0
0
LINE
5
2D6
330
10E
100
AcDbEntity
8
REBAR-U
100
AcDbLine
10
17505
20
48925
30
0
11
17345
21
48925
31
0
0
TEXT
5
2D7
330
10E
100
AcDbEntity
8
REBAR-TEXT
100
AcDbText
10
33300
20
47050
30
0
40
170
1
E3: 163T12@200 U-BARS LEGS 1200 (U06) + 2T12 T&B EDGE BARS (U03+U04)
50
360
7
STANDARD
72
1
11
33300
21
47050
31
0
100
AcDbText
73
0
0
CIRCLE
5
2D8
330
10E
100
AcDbEntity
8
CALLOUT
100
AcDbCircle
10
33300
20
49550
30
0
40
300
0
TEXT
5
2D9
330
10E
100
AcDbEntity
8
CALLOUT
100
AcDbText
10
33300
20
49550
30
0
40
170
1
E3
7
STANDARD
72
1
11
33300
21
49550
31
0
100
AcDbText
73
2
0
LINE
5
2DA
330
10E
100
AcDbEntity
8
CALLOUT
100
AcDbLine
10
33300
20
49250
30
0
11
33300
21
48950
31
0
0
LINE
5
2DB
330
10E
100
AcDbEntity
8
REBAR-U
100
AcDbLine
10
17115
20
48925
30
0
11
17115
21
22975
31
0
0
LINE
5
2DC
330
10E
100
AcDbEntity
8
REBAR-U
100
AcDbLine
10
17185
20
48925
30
0
11
17185
21
22975
31
0
0
LINE
5
2DD
330
10E
100
AcDbEntity
8
REBAR-U
100
AcDbLine
10
17075
20
48825
30
0
11
18250
21
48825
31
0
0
LINE
5
2DE
330
10E
100
AcDbEntity
8
REBAR-U
100
AcDbLine
10
17075
20
48905
30
0
11
17075
21
48745
31
0
0
LINE
5
2DF
330
10E
100
AcDbEntity
8
REBAR-U
100
AcDbLine
10
17075
20
47825
30
0
11
18250
21
47825
31
0
0
LINE
5
2E0
330
10E
100
AcDbEntity
8
REBAR-U
100
AcDbLine
10
17075
20
47905
30
0
11
17075
21
47745
31
0
0
LINE
5
2E1
330
10E
100
AcDbEntity
8
REBAR-U
100
AcDbLine
10
17075
20
46825
30
0
11
18250
21
46825
31
0
0
LINE
5
2E2
330
10E
100
AcDbEntity
8
REBAR-U
100
AcDbLine
10
17075
20
46905
30
0
11
17075
21
46745
31
0
0
LINE
5
2E3
330
10E
100
AcDbEntity
8
REBAR-U
100
AcDbLine
10
17075
20
45825
30
0
11
18250
21
45825
31
0
0
LINE
5
2E4
330
10E
100
AcDbEntity
8
REBAR-U
100
AcDbLine
10
17075
20
45905
30
0
11
17075
21
45745
31
0
0
LINE
5
2E5
330
10E
100
AcDbEntity
8
REBAR-U
100
AcDbLine
10
17075
20
44825
30
0
11
18250
21
44825
31
0
0
LINE
5
2E6
330
10E
100
AcDbEntity
8
REBAR-U
100
AcDbLine
10
17075
20
44905
30
0
11
17075
21
44745
31
0
0
LINE
5
2E7
330
10E
100
AcDbEntity
8
REBAR-U
100
AcDbLine
10
17075
20
43825
30
0
11
18250
21
43825
31
0
0
LINE
5
2E8
330
10E
100
AcDbEntity
8
REBAR-U
100
AcDbLine
10
17075
20
43905
30
0
11
17075
21
43745
31
0
0
LINE
5
2E9
330
10E
100
AcDbEntity
8
REBAR-U
100
AcDbLine
10
17075
20
42825
30
0
11
18250
21
42825
31
0
0
LINE
5
2EA
330
10E
100
AcDbEntity
8
REBAR-U
100
AcDbLine
10
17075
20
42905
30
0
11
17075
21
42745
31
0
0
LINE
5
2EB
330
10E
100
AcDbEntity
8
REBAR-U
100
AcDbLine
10
17075
20
41825
30
0
11
18250
21
41825
31
0
0
LINE
5
2EC
330
10E
100
AcDbEntity
8
REBAR-U
100
AcDbLine
10
17075
20
41905
30
0
11
17075
21
41745
31
0
0
LINE
5
2ED
330
10E
100
AcDbEntity
8
REBAR-U
100
AcDbLine
10
17075
20
40825
30
0
11
18250
21
40825
31
0
0
LINE
5
2EE
330
10E
100
AcDbEntity
8
REBAR-U
100
AcDbLine
10
17075
20
40905
30
0
11
17075
21
40745
31
0
0
LINE
5
2EF
330
10E
100
AcDbEntity
8
REBAR-U
100
AcDbLine
10
17075
20
39825
30
0
11
18250
21
39825
31
0
0
LINE
5
2F0
330
10E
100
AcDbEntity
8
REBAR-U
100
AcDbLine
10
17075
20
39905
30
0
11
17075
21
39745
31
0
0
LINE
5
2F1
330
10E
100
AcDbEntity
8
REBAR-U
100
AcDbLine
10
17075
20
38825
30
0
11
18250
21
38825
31
0
0
LINE
5
2F2
330
10E
100
AcDbEntity
8
REBAR-U
100
AcDbLine
10
17075
20
38905
30
0
11
17075
21
38745
31
0
0
LINE
5
2F3
330
10E
100
AcDbEntity
8
REBAR-U
100
AcDbLine
10
17075
20
37825
30
0
11
18250
21
37825
31
0
0
LINE
5
2F4
330
10E
100
AcDbEntity
8
REBAR-U
100
AcDbLine
10
17075
20
37905
30
0
11
17075
21
37745
31
0
0
LINE
5
2F5
330
10E
100
AcDbEntity
8
REBAR-U
100
AcDbLine
10
17075
20
36825
30
0
11
18250
21
36825
31
0
0
LINE
5
2F6
330
10E
100
AcDbEntity
8
REBAR-U
100
AcDbLine
10
17075
20
36905
30
0
11
17075
21
36745
31
0
0
LINE
5
2F7
330
10E
100
AcDbEntity
8
REBAR-U
100
AcDbLine
10
17075
20
35825
30
0
11
18250
21
35825
31
0
0
LINE
5
2F8
330
10E
100
AcDbEntity
8
REBAR-U
100
AcDbLine
10
17075
20
35905
30
0
11
17075
21
35745
31
0
0
LINE
5
2F9
330
10E
100
AcDbEntity
8
REBAR-U
100
AcDbLine
10
17075
20
34825
30
0
11
18250
21
34825
31
0
0
LINE
5
2FA
330
10E
100
AcDbEntity
8
REBAR-U
100
AcDbLine
10
17075
20
34905
30
0
11
17075
21
34745
31
0
0
LINE
5
2FB
330
10E
100
AcDbEntity
8
REBAR-U
100
AcDbLine
10
17075
20
33825
30
0
11
18250
21
33825
31
0
0
LINE
5
2FC
330
10E
100
AcDbEntity
8
REBAR-U
100
AcDbLine
10
17075
20
33905
30
0
11
17075
21
33745
31
0
0
LINE
5
2FD
330
10E
100
AcDbEntity
8
REBAR-U
100
AcDbLine
10
17075
20
32825
30
0
11
18250
21
32825
31
0
0
LINE
5
2FE
330
10E
100
AcDbEntity
8
REBAR-U
100
AcDbLine
10
17075
20
32905
30
0
11
17075
21
32745
31
0
0
LINE
5
2FF
330
10E
100
AcDbEntity
8
REBAR-U
100
AcDbLine
10
17075
20
31825
30
0
11
18250
21
31825
31
0
0
LINE
5
300
330
10E
100
AcDbEntity
8
REBAR-U
100
AcDbLine
10
17075
20
31905
30
0
11
17075
21
31745
31
0
0
LINE
5
301
330
10E
100
AcDbEntity
8
REBAR-U
100
AcDbLine
10
17075
20
30825
30
0
11
18250
21
30825
31
0
0
LINE
5
302
330
10E
100
AcDbEntity
8
REBAR-U
100
AcDbLine
10
17075
20
30905
30
0
11
17075
21
30745
31
0
0
LINE
5
303
330
10E
100
AcDbEntity
8
REBAR-U
100
AcDbLine
10
17075
20
29825
30
0
11
18250
21
29825
31
0
0
LINE
5
304
330
10E
100
AcDbEntity
8
REBAR-U
100
AcDbLine
10
17075
20
29905
30
0
11
17075
21
29745
31
0
0
LINE
5
305
330
10E
100
AcDbEntity
8
REBAR-U
100
AcDbLine
10
17075
20
28825
30
0
11
18250
21
28825
31
0
0
LINE
5
306
330
10E
100
AcDbEntity
8
REBAR-U
100
AcDbLine
10
17075
20
28905
30
0
11
17075
21
28745
31
0
0
LINE
5
307
330
10E
100
AcDbEntity
8
REBAR-U
100
AcDbLine
10
17075
20
27825
30
0
11
18250
21
27825
31
0
0
LINE
5
308
330
10E
100
AcDbEntity
8
REBAR-U
100
AcDbLine
10
17075
20
27905
30
0
11
17075
21
27745
31
0
0
LINE
5
309
330
10E
100
AcDbEntity
8
REBAR-U
100
AcDbLine
10
17075
20
26825
30
0
11
18250
21
26825
31
0
0
LINE
5
30A
330
10E
100
AcDbEntity
8
REBAR-U
100
AcDbLine
10
17075
20
26905
30
0
11
17075
21
26745
31
0
0
LINE
5
30B
330
10E
100
AcDbEntity
8
REBAR-U
100
AcDbLine
10
17075
20
25825
30
0
11
18250
21
25825
31
0
0
LINE
5
30C
330
10E
100
AcDbEntity
8
REBAR-U
100
AcDbLine
10
17075
20
25905
30
0
11
17075
21
25745
31
0
0
LINE
5
30D
330
10E
100
AcDbEntity
8
REBAR-U
100
AcDbLine
10
17075
20
24825
30
0
11
18250
21
24825
31
0
0
LINE
5
30E
330
10E
100
AcDbEntity
8
REBAR-U
100
AcDbLine
10
17075
20
24905
30
0
11
17075
21
24745
31
0
0
LINE
5
30F
330
10E
100
AcDbEntity
8
REBAR-U
100
AcDbLine
10
17075
20
23825
30
0
11
18250
21
23825
31
0
0
LINE
5
310
330
10E
100
AcDbEntity
8
REBAR-U
100
AcDbLine
10
17075
20
23905
30
0
11
17075
21
23745
31
0
0
TEXT
5
311
330
10E
100
AcDbEntity
8
REBAR-TEXT
100
AcDbText
10
18950
20
35950
30
0
40
170
1
E4: 130T12@200 U-BARS LEGS 1200 (U06) + 2T12 T&B EDGE BARS (U03+U05)
50
90
7
STANDARD
72
1
11
18950
21
35950
31
0
100
AcDbText
73
0
0
CIRCLE
5
312
330
10E
100
AcDbEntity
8
CALLOUT
100
AcDbCircle
10
16450
20
35950
30
0
40
300
0
TEXT
5
313
330
10E
100
AcDbEntity
8
CALLOUT
100
AcDbText
10
16450
20
35950
30
0
40
170
1
E4
7
STANDARD
72
1
11
16450
21
35950
31
0
100
AcDbText
73
2
0
LINE
5
314
330
10E
100
AcDbEntity
8
CALLOUT
100
AcDbLine
10
16750
20
35950
30
0
11
17050
21
35950
31
0
0
CIRCLE
5
315
330
10E
100
AcDbEntity
8
REBAR-U
6
DASHDOT
100
AcDbCircle
10
44550
20
27950
30
0
40
1200
0
CIRCLE
5
316
330
10E
100
AcDbEntity
8
REBAR-U
100
AcDbCircle
10
44550
20
27950
30
0
40
1243
0
CIRCLE
5
317
330
10E
100
AcDbEntity
8
REBAR-U
100
AcDbCircle
10
44550
20
27950
30
0
40
1303
0
LINE
5
318
330
10E
100
AcDbEntity
8
REBAR-U
100
AcDbLine
10
45775
20
27950
30
0
11
46975
21
27950
31
0
0
LINE
5
319
330
10E
100
AcDbEntity
8
REBAR-U
100
AcDbLine
10
45733.259137
20
28267.05333
30
0
11
46892.370129
21
28577.636184
31
0
0
LINE
5
31A
330
10E
100
AcDbEntity
8
REBAR-U
100
AcDbLine
10
45610.88112
20
28562.5
30
0
11
46650.111604
21
29162.5
31
0
0
LINE
5
31B
330
10E
100
AcDbEntity
8
REBAR-U
100
AcDbLine
10
45416.205807
20
28816.205807
30
0
11
46264.733944
21
29664.733944
31
0
0
LINE
5
31C
330
10E
100
AcDbEntity
8
REBAR-U
100
AcDbLine
10
45162.5
20
29010.88112
30
0
11
45762.5
21
30050.111604
31
0
0
LINE
5
31D
330
10E
100
AcDbEntity
8
REBAR-U
100
AcDbLine
10
44867.05333
20
29133.259137
30
0
11
45177.636184
21
30292.370129
31
0
0
LINE
5
31E
330
10E
100
AcDbEntity
8
REBAR-U
100
AcDbLine
10
44550
20
29175
30
0
11
44550
21
30375
31
0
0
LINE
5
31F
330
10E
100
AcDbEntity
8
REBAR-U
100
AcDbLine
10
44232.94667
20
29133.259137
30
0
11
43922.363816
21
30292.370129
31
0
0
LINE
5
320
330
10E
100
AcDbEntity
8
REBAR-U
100
AcDbLine
10
43937.5
20
29010.88112
30
0
11
43337.5
21
30050.111604
31
0
0
LINE
5
321
330
10E
100
AcDbEntity
8
REBAR-U
100
AcDbLine
10
43683.794193
20
28816.205807
30
0
11
42835.266056
21
29664.733944
31
0
0
LINE
5
322
330
10E
100
AcDbEntity
8
REBAR-U
100
AcDbLine
10
43489.11888
20
28562.5
30
0
11
42449.888396
21
29162.5
31
0
0
LINE
5
323
330
10E
100
AcDbEntity
8
REBAR-U
100
AcDbLine
10
43366.740863
20
28267.05333
30
0
11
42207.629871
21
28577.636184
31
0
0
LINE
5
324
330
10E
100
AcDbEntity
8
REBAR-U
100
AcDbLine
10
43325
20
27950
30
0
11
42125
21
27950
31
0
0
LINE
5
325
330
10E
100
AcDbEntity
8
REBAR-U
100
AcDbLine
10
43366.740863
20
27632.94667
30
0
11
42207.629871
21
27322.363816
31
0
0
LINE
5
326
330
10E
100
AcDbEntity
8
REBAR-U
100
AcDbLine
10
43489.11888
20
27337.5
30
0
11
42449.888396
21
26737.5
31
0
0
LINE
5
327
330
10E
100
AcDbEntity
8
REBAR-U
100
AcDbLine
10
43683.794193
20
27083.794193
30
0
11
42835.266056
21
26235.266056
31
0
0
LINE
5
328
330
10E
100
AcDbEntity
8
REBAR-U
100
AcDbLine
10
43937.5
20
26889.11888
30
0
11
43337.5
21
25849.888396
31
0
0
LINE
5
329
330
10E
100
AcDbEntity
8
REBAR-U
100
AcDbLine
10
44232.94667
20
26766.740863
30
0
11
43922.363816
21
25607.629871
31
0
0
LINE
5
32A
330
10E
100
AcDbEntity
8
REBAR-U
100
AcDbLine
10
44550
20
26725
30
0
11
44550
21
25525
31
0
0
LINE
5
32B
330
10E
100
AcDbEntity
8
REBAR-U
100
AcDbLine
10
44867.05333
20
26766.740863
30
0
11
45177.636184
21
25607.629871
31
0
0
LINE
5
32C
330
10E
100
AcDbEntity
8
REBAR-U
100
AcDbLine
10
45162.5
20
26889.11888
30
0
11
45762.5
21
25849.888396
31
0
0
LINE
5
32D
330
10E
100
AcDbEntity
8
REBAR-U
100
AcDbLine
10
45416.205807
20
27083.794193
30
0
11
46264.733944
21
26235.266056
31
0
0
LINE
5
32E
330
10E
100
AcDbEntity
8
REBAR-U
100
AcDbLine
10
45610.88112
20
27337.5
30
0
11
46650.111604
21
26737.5
31
0
0
LINE
5
32F
330
10E
100
AcDbEntity
8
REBAR-U
100
AcDbLine
10
45733.259137
20
27632.94667
30
0
11
46892.370129
21
27322.363816
31
0
0
CIRCLE
5
330
330
10E
100
AcDbEntity
8
CALLOUT
100
AcDbCircle
10
45550
20
28950
30
0
40
350
0
TEXT
5
331
330
10E
100
AcDbEntity
8
CALLOUT
100
AcDbText
10
45550
20
28950
30
0
40
200
1
R1
7
STANDARD
72
1
11
45550
21
28950
31
0
100
AcDbText
73
2
0
LINE
5
332
330
10E
100
AcDbEntity
8
CALLOUT
100
AcDbLine
10
45302.512627
20
28702.512627
30
0
11
44550
21
27950
31
0
0
TEXT
5
333
330
10E
100
AcDbEntity
8
REBAR-TEXT
100
AcDbText
10
44550
20
25025
30
0
40
170
1
R1: 52T12@150 RADIAL U-BARS (U07) + 2T12 RINGS T&B (U01)
7
STANDARD
72
1
11
44550
21
25025
31
0
100
AcDbText
73
0
0
CIRCLE
5
334
330
10E
100
AcDbEntity
8
REBAR-U
6
DASHDOT
100
AcDbCircle
10
22550
20
27950
30
0
40
900
0
CIRCLE
5
335
330
10E
100
AcDbEntity
8
REBAR-U
100
AcDbCircle
10
22550
20
27950
30
0
40
943
0
CIRCLE
5
336
330
10E
100
AcDbEntity
8
REBAR-U
100
AcDbCircle
10
22550
20
27950
30
0
40
1003
0
LINE
5
337
330
10E
100
AcDbEntity
8
REBAR-U
100
AcDbLine
10
23475
20
27950
30
0
11
24675
21
27950
31
0
0
LINE
5
338
330
10E
100
AcDbEntity
8
REBAR-U
100
AcDbLine
10
23443.481389
20
28189.407617
30
0
11
24602.592381
21
28499.990471
31
0
0
LINE
5
339
330
10E
100
AcDbEntity
8
REBAR-U
100
AcDbLine
10
23351.073499
20
28412.5
30
0
11
24390.303983
21
29012.5
31
0
0
LINE
5
33A
330
10E
100
AcDbEntity
8
REBAR-U
100
AcDbLine
10
23204.073773
20
28604.073773
30
0
11
24052.60191
21
29452.60191
31
0
0
LINE
5
33B
330
10E
100
AcDbEntity
8
REBAR-U
100
AcDbLine
10
23012.5
20
28751.073499
30
0
11
23612.5
21
29790.303983
31
0
0
LINE
5
33C
330
10E
100
AcDbEntity
8
REBAR-U
100
AcDbLine
10
22789.407617
20
28843.481389
30
0
11
23099.990471
21
30002.592381
31
0
0
LINE
5
33D
330
10E
100
AcDbEntity
8
REBAR-U
100
AcDbLine
10
22550
20
28875
30
0
11
22550
21
30075
31
0
0
LINE
5
33E
330
10E
100
AcDbEntity
8
REBAR-U
100
AcDbLine
10
22310.592383
20
28843.481389
30
0
11
22000.009529
21
30002.592381
31
0
0
LINE
5
33F
330
10E
100
AcDbEntity
8
REBAR-U
100
AcDbLine
10
22087.5
20
28751.073499
30
0
11
21487.5
21
29790.303983
31
0
0
LINE
5
340
330
10E
100
AcDbEntity
8
REBAR-U
100
AcDbLine
10
21895.926227
20
28604.073773
30
0
11
21047.39809
21
29452.60191
31
0
0
LINE
5
341
330
10E
100
AcDbEntity
8
REBAR-U
100
AcDbLine
10
21748.926501
20
28412.5
30
0
11
20709.696017
21
29012.5
31
0
0
LINE
5
342
330
10E
100
AcDbEntity
8
REBAR-U
100
AcDbLine
10
21656.518611
20
28189.407617
30
0
11
20497.407619
21
28499.990471
31
0
0
LINE
5
343
330
10E
100
AcDbEntity
8
REBAR-U
100
AcDbLine
10
21625
20
27950
30
0
11
20425
21
27950
31
0
0
LINE
5
344
330
10E
100
AcDbEntity
8
REBAR-U
100
AcDbLine
10
21656.518611
20
27710.592383
30
0
11
20497.407619
21
27400.009529
31
0
0
LINE
5
345
330
10E
100
AcDbEntity
8
REBAR-U
100
AcDbLine
10
21748.926501
20
27487.5
30
0
11
20709.696017
21
26887.5
31
0
0
LINE
5
346
330
10E
100
AcDbEntity
8
REBAR-U
100
AcDbLine
10
21895.926227
20
27295.926227
30
0
11
21047.39809
21
26447.39809
31
0
0
LINE
5
347
330
10E
100
AcDbEntity
8
REBAR-U
100
AcDbLine
10
22087.5
20
27148.926501
30
0
11
21487.5
21
26109.696017
31
0
0
LINE
5
348
330
10E
100
AcDbEntity
8
REBAR-U
100
AcDbLine
10
22310.592383
20
27056.518611
30
0
11
22000.009529
21
25897.407619
31
0
0
LINE
5
349
330
10E
100
AcDbEntity
8
REBAR-U
100
AcDbLine
10
22550
20
27025
30
0
11
22550
21
25825
31
0
0
LINE
5
34A
330
10E
100
AcDbEntity
8
REBAR-U
100
AcDbLine
10
22789.407617
20
27056.518611
30
0
11
23099.990471
21
25897.407619
31
0
0
LINE
5
34B
330
10E
100
AcDbEntity
8
REBAR-U
100
AcDbLine
10
23012.5
20
27148.926501
30
0
11
23612.5
21
26109.696017
31
0
0
LINE
5
34C
330
10E
100
AcDbEntity
8
REBAR-U
100
AcDbLine
10
23204.073773
20
27295.926227
30
0
11
24052.60191
21
26447.39809
31
0
0
LINE
5
34D
330
10E
100
AcDbEntity
8
REBAR-U
100
AcDbLine
10
23351.073499
20
27487.5
30
0
11
24390.303983
21
26887.5
31
0
0
LINE
5
34E
330
10E
100
AcDbEntity
8
REBAR-U
100
AcDbLine
10
23443.481389
20
27710.592383
30
0
11
24602.592381
21
27400.009529
31
0
0
CIRCLE
5
34F
330
10E
100
AcDbEntity
8
CALLOUT
100
AcDbCircle
10
23550
20
28950
30
0
40
350
0
TEXT
5
350
330
10E
100
AcDbEntity
8
CALLOUT
100
AcDbText
10
23550
20
28950
30
0
40
200
1
R2
7
STANDARD
72
1
11
23550
21
28950
31
0
100
AcDbText
73
2
0
LINE
5
351
330
10E
100
AcDbEntity
8
CALLOUT
100
AcDbLine
10
23302.512627
20
28702.512627
30
0
11
22550
21
27950
31
0
0
TEXT
5
352
330
10E
100
AcDbEntity
8
REBAR-TEXT
100
AcDbText
10
22550
20
25325
30
0
40
170
1
R2: 39T12@150 RADIAL U-BARS (U07) + 2T12 RINGS T&B (U02)
7
STANDARD
72
1
11
22550
21
25325
31
0
100
AcDbText
73
0
0
LWPOLYLINE
5
353
330
10E
100
AcDbEntity
8
FRAME
100
AcDbPolyline
90
4
70
1
43
0
10
2000
20
1000
10
22866.666667
20
1000
10
22866.666667
20
13500
10
2000
20
13500
0
LINE
5
354
330
10E
100
AcDbEntity
8
FRAME
100
AcDbLine
10
2000
20
12700
30
0
11
22866.666667
21
12700
31
0
0
CIRCLE
5
355
330
10E
100
AcDbEntity
8
CALLOUT
100
AcDbCircle
10
2700
20
13100
30
0
40
300
0
TEXT
5
356
330
10E
100
AcDbEntity
8
CALLOUT
100
AcDbText
10
2700
20
13100
30
0
40
220
1
1
7
STANDARD
72
1
11
2700
21
13100
31
0
100
AcDbText
73
2
0
TEXT
5
357
330
10E
100
AcDbEntity
8
TEXT-TITLE
100
AcDbText
10
3200
20
13100
30
0
40
240
1
U-BAR AT SLAB EDGE - SECTION
7
STANDARD
72
0
11
3200
21
13100
31
0
100
AcDbText
73
2
0
TEXT
5
358
330
10E
100
AcDbEntity
8
TITLE
100
AcDbText
10
22666.666667
20
13100
30
0
40
180
1
1:12.5
7
STANDARD
72
2
11
22666.666667
21
13100
31
0
100
AcDbText
73
2
0
LWPOLYLINE
5
359
330
10E
100
AcDbEntity
8
DETAIL
370
35
100
AcDbPolyline
90
4
70
1
43
0
10
6833.333333
20
5920
10
20433.333333
20
5920
10
20433.333333
20
7680
10
6833.333333
20
7680
0
HATCH
5
35A
330
10E
100
AcDbEntity
8
DETAIL-HATCH
100
AcDbHatch
10
0
20
0
30
0
210
0
220
0
230
1
2
ANSI31
70
0
71
0
91
1
92
3
72
0
73
1
93
4
10
6833.333333
20
5920
10
20433.333333
20
5920
10
20433.333333
20
7680
10
6833.333333
20
7680
97
0
75
1
76
1
52
0
41
50.393701
77
0
78
1
53
45
43
0
44
0
45
-113.137085
46
113.137085
79
0
47
1
98
0
0
LWPOLYLINE
5
35B
330
10E
100
AcDbEntity
8
REBAR-U
370
70
100
AcDbPolyline
90
4
70
0
43
0
10
16433.333333
20
6168
10
7081.333333
20
6168
10
7081.333333
20
7432
10
16433.333333
20
7432
0
LINE
5
35C
330
10E
100
AcDbEntity
8
REBAR-U
100
AcDbLine
10
16433.333333
20
6168
30
0
11
16433.333333
21
6168
31
0
0
LINE
5
35D
330
10E
100
AcDbEntity
8
REBAR-U
100
AcDbLine
10
16433.333333
20
6168
30
0
11
16433.333333
21
6168
31
0
0
LINE
5
35E
330
10E
100
AcDbEntity
8
REBAR-U
100
AcDbLine
10
16433.333333
20
7432
30
0
11
16433.333333
21
7432
31
0
0
LINE
5
35F
330
10E
100
AcDbEntity
8
REBAR-U
100
AcDbLine
10
16433.333333
20
7432
30
0
11
16433.333333
21
7432
31
0
0
CIRCLE
5
360
330
10E
100
AcDbEntity
8
REBAR-U
100
AcDbCircle
10
7337.333333
20
6296
30
0
40
48
0
CIRCLE
5
361
330
10E
100
AcDbEntity
8
REBAR-U
100
AcDbCircle
10
8057.333333
20
6296
30
0
40
48
0
CIRCLE
5
362
330
10E
100
AcDbEntity
8
REBAR-U
100
AcDbCircle
10
7337.333333
20
7304
30
0
40
48
0
CIRCLE
5
363
330
10E
100
AcDbEntity
8
REBAR-U
100
AcDbCircle
10
8057.333333
20
7304
30
0
40
48
0
LWPOLYLINE
5
364
330
10E
100
AcDbEntity
8
PT-TENDON
370
35
100
AcDbPolyline
90
4
70
1
43
0
10
6833.333333
20
6080
10
8913.333333
20
6080
10
8913.333333
20
7520
10
6833.333333
20
7520
0
TEXT
5
365
330
10E
100
AcDbEntity
8
PT-TENDON
100
AcDbText
10
9233.333333
20
6640
30
0
40
150
1
PT ANCHORAGE
7
STANDARD
72
0
100
AcDbText
73
0
0
LWPOLYLINE
5
366
330
10E
100
AcDbEntity
8
PT-TENDON
6
DASHED
100
AcDbPolyline
90
2
70
0
43
0
10
8913.333333
20
6800
10
20433.333333
20
6560
0
LINE
5
367
330
10E
100
AcDbEntity
8
DIM
100
AcDbLine
10
6833.333333
20
5920
30
0
11
6833.333333
21
5370
31
0
0
LINE
5
368
330
10E
100
AcDbEntity
8
DIM
100
AcDbLine
10
16433.333333
20
5920
30
0
11
16433.333333
21
5370
31
0
0
LINE
5
369
330
10E
100
AcDbEntity
8
DIM
100
AcDbLine
10
6833.333333
20
5220
30
0
11
16433.333333
21
5220
31
0
0
LINE
5
36A
330
10E
100
AcDbEntity
8
DIM
100
AcDbLine
10
6763.333333
20
5150
30
0
11
6903.333333
21
5290
31
0
0
LINE
5
36B
330
10E
100
AcDbEntity
8
DIM
100
AcDbLine
10
16363.333333
20
5150
30
0
11
16503.333333
21
5290
31
0
0
TEXT
5
36C
330
10E
100
AcDbEntity
8
DIM
100
AcDbText
10
11633.333333
20
5292
30
0
40
180
1
LEG 1200
7
STANDARD
72
1
11
11633.333333
21
5292
31
0
100
AcDbText
73
0
0
LINE
5
36D
330
10E
100
AcDbEntity
8
DIM
100
AcDbLine
10
20433.333333
20
5920
30
0
11
20883.333333
21
5920
31
0
0
LINE
5
36E
330
10E
100
AcDbEntity
8
DIM
100
AcDbLine
10
20433.333333
20
7680
30
0
11
20883.333333
21
7680
31
0
0
LINE
5
36F
330
10E
100
AcDbEntity
8
DIM
100
AcDbLine
10
21033.333333
20
5920
30
0
11
21033.333333
21
7680
31
0
0
LINE
5
370
330
10E
100
AcDbEntity
8
DIM
100
AcDbLine
10
21103.333333
20
5850
30
0
11
20963.333333
21
5990
31
0
0
LINE
5
371
330
10E
100
AcDbEntity
8
DIM
100
AcDbLine
10
21103.333333
20
7610
30
0
11
20963.333333
21
7750
31
0
0
TEXT
5
372
330
10E
100
AcDbEntity
8
DIM
100
AcDbText
10
20961.333333
20
6800
30
0
40
180
1
220
50
90
7
STANDARD
72
1
11
20961.333333
21
6800
31
0
100
AcDbText
73
0
0
LINE
5
373
330
10E
100
AcDbEntity
8
DIM
100
AcDbLine
10
6833.333333
20
7680
30
0
11
6833.333333
21
8430
31
0
0
LINE
5
374
330
10E
100
AcDbEntity
8
DIM
100
AcDbLine
10
7033.333333
20
7680
30
0
11
7033.333333
21
8430
31
0
0
LINE
5
375
330
10E
100
AcDbEntity
8
DIM
100
AcDbLine
10
6833.333333
20
8280
30
0
11
7033.333333
21
8280
31
0
0
LINE
5
376
330
10E
100
AcDbEntity
8
DIM
100
AcDbLine
10
6763.333333
20
8210
30
0
11
6903.333333
21
8350
31
0
0
LINE
5
377
330
10E
100
AcDbEntity
8
DIM
100
AcDbLine
10
6963.333333
20
8210
30
0
11
7103.333333
21
8350
31
0
0
TEXT
5
378
330
10E
100
AcDbEntity
8
DIM
100
AcDbText
10
6933.333333
20
8352
30
0
40
180
1
25
7
STANDARD
72
1
11
6933.333333
21
8352
31
0
100
AcDbText
73
0
0
TEXT
5
379
330
10E
100
AcDbEntity
8
REBAR-TEXT
100
AcDbText
10
13633.333333
20
10080
30
0
40
190
1
T12@200 U-BARS AT SLAB EDGE + 2T12 T&B LONGITUDINAL
7
STANDARD
72
1
11
13633.333333
21
10080
31
0
100
AcDbText
73
0
0
TEXT
5
37A
330
10E
100
AcDbEntity
8
NOTES
100
AcDbText
10
13633.333333
20
2720
30
0
40
160
1
BURSTING / SPALLING STEEL AT PT ANCHORAGE ZONE, ALL FREE EDGES
7
STANDARD
72
1
11
13633.333333
21
2720
31
0
100
AcDbText
73
0
0
LWPOLYLINE
5
37B
330
10E
100
AcDbEntity
8
FRAME
100
AcDbPolyline
90
4
70
1
43
0
10
22866.666667
20
1000
10
43733.333333
20
1000
10
43733.333333
20
13500
10
22866.666667
20
13500
0
LINE
5
37C
330
10E
100
AcDbEntity
8
FRAME
100
AcDbLine
10
22866.666667
20
12700
30
0
11
43733.333333
21
12700
31
0
0
CIRCLE
5
37D
330
10E
100
AcDbEntity
8
CALLOUT
100
AcDbCircle
10
23566.666667
20
13100
30
0
40
300
0
TEXT
5
37E
330
10E
100
AcDbEntity
8
CALLOUT
100
AcDbText
10
23566.666667
20
13100
30
0
40
220
1
2
7
STANDARD
72
1
11
23566.666667
21
13100
31
0
100
AcDbText
73
2
0
TEXT
5
37F
330
10E
100
AcDbEntity
8
TEXT-TITLE
100
AcDbText
10
24066.666667
20
13100
30
0
40
240
1
U-BARS AROUND CIRCULAR REGION - PLAN
7
STANDARD
72
0
11
24066.666667
21
13100
31
0
100
AcDbText
73
2
0
TEXT
5
380
330
10E
100
AcDbEntity
8
TITLE
100
AcDbText
10
43533.333333
20
13100
30
0
40
180
1
1:75
7
STANDARD
72
2
11
43533.333333
21
13100
31
0
100
AcDbText
73
2
0
CIRCLE
5
381
330
10E
100
AcDbEntity
8
OPENING
370
35
100
AcDbCircle
10
33300
20
6800
30
0
40
1600
0
HATCH
5
382
330
10E
100
AcDbEntity
8
OPENING-HATCH
100
AcDbHatch
10
0
20
0
30
0
210
0
220
0
230
1
2
ANSI37
70
0
71
0
91
1
92
3
72
0
73
1
93
40
10
34900
20
6800
10
34880.301345
20
7050.295144
10
34821.690426
20
7294.427191
10
34725.610439
20
7526.3848
10
34594.427191
20
7740.456404
10
34431.37085
20
7931.37085
10
34240.456404
20
8094.427191
10
34026.3848
20
8225.610439
10
33794.427191
20
8321.690426
10
33550.295144
20
8380.301345
10
33300
20
8400
10
33049.704856
20
8380.301345
10
32805.572809
20
8321.690426
10
32573.6152
20
8225.610439
10
32359.543596
20
8094.427191
10
32168.62915
20
7931.37085
10
32005.572809
20
7740.456404
10
31874.389561
20
7526.3848
10
31778.309574
20
7294.427191
10
31719.698655
20
7050.295144
10
31700
20
6800
10
31719.698655
20
6549.704856
10
31778.309574
20
6305.572809
10
31874.389561
20
6073.6152
10
32005.572809
20
5859.543596
10
32168.62915
20
5668.62915
10
32359.543596
20
5505.572809
10
32573.6152
20
5374.389561
10
32805.572809
20
5278.309574
10
33049.704856
20
5219.698655
10
33300
20
5200
10
33550.295144
20
5219.698655
10
33794.427191
20
5278.309574
10
34026.3848
20
5374.389561
10
34240.456404
20
5505.572809
10
34431.37085
20
5668.62915
10
34594.427191
20
5859.543596
10
34725.610439
20
6073.6152
10
34821.690426
20
6305.572809
10
34880.301345
20
6549.704856
97
0
75
1
76
1
52
0
41
62.992126
77
0
78
2
53
45
43
0
44
0
45
-141.421356
46
141.421356
79
0
53
135
43
0
44
0
45
-141.421356
46
-141.421356
79
0
47
1
98
0
0
CIRCLE
5
383
330
10E
100
AcDbEntity
8
REBAR-U
370
50
100
AcDbCircle
10
33300
20
6800
30
0
40
1657.333333
0
CIRCLE
5
384
330
10E
100
AcDbEntity
8
REBAR-U
370
50
100
AcDbCircle
10
33300
20
6800
30
0
40
1737.333333
0
LINE
5
385
330
10E
100
AcDbEntity
8
REBAR-U
370
50
100
AcDbLine
10
34933.333333
20
6846.666667
30
0
11
36533.333333
21
6846.666667
31
0
0
LINE
5
386
330
10E
100
AcDbEntity
8
REBAR-U
370
50
100
AcDbLine
10
34933.333333
20
6753.333333
30
0
11
36533.333333
21
6753.333333
31
0
0
ARC
5
387
330
10E
100
AcDbEntity
8
REBAR-U
370
50
100
AcDbCircle
10
34933.333333
20
6800
30
0
40
46.666667
100
AcDbArc
50
90
51
270
0
LINE
5
388
330
10E
100
AcDbEntity
8
REBAR-U
370
50
100
AcDbLine
10
34915.799449
20
7043.202992
30
0
11
36504.133648
21
7236.06168
31
0
0
LINE
5
389
330
10E
100
AcDbEntity
8
REBAR-U
370
50
100
AcDbLine
10
34927.049539
20
6950.550164
30
0
11
36515.383738
21
7143.408852
31
0
0
ARC
5
38A
330
10E
100
AcDbEntity
8
REBAR-U
370
50
100
AcDbCircle
10
34921.424494
20
6996.876578
30
0
40
46.666667
100
AcDbArc
50
96.923077
51
276.923077
0
LINE
5
38B
330
10E
100
AcDbEntity
8
REBAR-U
370
50
100
AcDbLine
10
34874.703571
20
7236.19287
30
0
11
36428.210479
21
7619.097933
31
0
0
LINE
5
38C
330
10E
100
AcDbEntity
8
REBAR-U
370
50
100
AcDbLine
10
34897.039699
20
7145.571634
30
0
11
36450.546607
21
7528.476696
31
0
0
ARC
5
38D
330
10E
100
AcDbEntity
8
REBAR-U
370
50
100
AcDbCircle
10
34885.871635
20
7190.882252
30
0
40
46.666667
100
AcDbArc
50
103.846154
51
283.846154
0
LINE
5
38E
330
10E
100
AcDbEntity
8
REBAR-U
370
50
100
AcDbLine
10
34810.644968
20
7422.822073
30
0
11
36306.670957
21
7990.189893
31
0
0
LINE
5
38F
330
10E
100
AcDbEntity
8
REBAR-U
370
50
100
AcDbLine
10
34843.741424
20
7335.553891
30
0
11
36339.767413
21
7902.92171
31
0
0
ARC
5
390
330
10E
100
AcDbEntity
8
REBAR-U
370
50
100
AcDbCircle
10
34827.193196
20
7379.187982
30
0
40
46.666667
100
AcDbArc
50
110.769231
51
290.769231
0
LINE
5
391
330
10E
100
AcDbEntity
8
REBAR-U
370
50
100
AcDbLine
10
34724.557761
20
7600.369129
30
0
11
36141.287402
21
8343.926204
31
0
0
LINE
5
392
330
10E
100
AcDbEntity
8
REBAR-U
370
50
100
AcDbLine
10
34767.931923
20
7517.726566
30
0
11
36184.661564
21
8261.283642
31
0
0
ARC
5
393
330
10E
100
AcDbEntity
8
REBAR-U
370
50
100
AcDbCircle
10
34746.244842
20
7559.047848
30
0
40
46.666667
100
AcDbArc
50
117.692308
51
297.692308
0
LINE
5
394
330
10E
100
AcDbEntity
8
REBAR-U
370
50
100
AcDbLine
10
34617.697293
20
7766.245
30
0
11
35934.471478
21
8675.148595
31
0
0
LINE
5
395
330
10E
100
AcDbEntity
8
REBAR-U
370
50
100
AcDbLine
10
34670.716669
20
7689.433173
30
0
11
35987.490855
21
8598.336767
31
0
0
ARC
5
396
330
10E
100
AcDbEntity
8
REBAR-U
370
50
100
AcDbCircle
10
34644.206981
20
7727.839086
30
0
40
46.666667
100
AcDbArc
50
124.615385
51
304.615385
0
LINE
5
397
330
10E
100
AcDbEntity
8
REBAR-U
370
50
100
AcDbLine
10
34491.621831
20
7918.030843
30
0
11
35689.239028
21
8979.027097
31
0
0
LINE
5
398
330
10E
100
AcDbEntity
8
REBAR-U
370
50
100
AcDbLine
10
34553.513279
20
7848.16984
30
0
11
35751.130476
21
8909.166093
31
0
0
ARC
5
399
330
10E
100
AcDbEntity
8
REBAR-U
370
50
100
AcDbCircle
10
34522.567555
20
7883.100342
30
0
40
46.666667
100
AcDbArc
50
131.538462
51
311.538462
0
LINE
5
39A
330
10E
100
AcDbEntity
8
REBAR-U
370
50
100
AcDbLine
10
34348.16984
20
8053.513279
30
0
11
35409.166093
21
9251.130476
31
0
0
LINE
5
39B
330
10E
100
AcDbEntity
8
REBAR-U
370
50
100
AcDbLine
10
34418.030843
20
7991.621831
30
0
11
35479.027097
21
9189.239028
31
0
0
ARC
5
39C
330
10E
100
AcDbEntity
8
REBAR-U
370
50
100
AcDbCircle
10
34383.100342
20
8022.567555
30
0
40
46.666667
100
AcDbArc
50
138.461538
51
318.461538
0
LINE
5
39D
330
10E
100
AcDbEntity
8
REBAR-U
370
50
100
AcDbLine
10
34189.433173
20
8170.716669
30
0
11
35098.336767
21
9487.490855
31
0
0
LINE
5
39E
330
10E
100
AcDbEntity
8
REBAR-U
370
50
100
AcDbLine
10
34266.245
20
8117.697293
30
0
11
35175.148595
21
9434.471478
31
0
0
ARC
5
39F
330
10E
100
AcDbEntity
8
REBAR-U
370
50
100
AcDbCircle
10
34227.839086
20
8144.206981
30
0
40
46.666667
100
AcDbArc
50
145.384615
51
325.384615
0
LINE
5
3A0
330
10E
100
AcDbEntity
8
REBAR-U
370
50
100
AcDbLine
10
34017.726566
20
8267.931923
30
0
11
34761.283642
21
9684.661564
31
0
0
LINE
5
3A1
330
10E
100
AcDbEntity
8
REBAR-U
370
50
100
AcDbLine
10
34100.369129
20
8224.557761
30
0
11
34843.926204
21
9641.287402
31
0
0
ARC
5
3A2
330
10E
100
AcDbEntity
8
REBAR-U
370
50
100
AcDbCircle
10
34059.047848
20
8246.244842
30
0
40
46.666667
100
AcDbArc
50
152.307692
51
332.307692
0
LINE
5
3A3
330
10E
100
AcDbEntity
8
REBAR-U
370
50
100
AcDbLine
10
33835.553891
20
8343.741424
30
0
11
34402.92171
21
9839.767413
31
0
0
LINE
5
3A4
330
10E
100
AcDbEntity
8
REBAR-U
370
50
100
AcDbLine
10
33922.822073
20
8310.644968
30
0
11
34490.189893
21
9806.670957
31
0
0
ARC
5
3A5
330
10E
100
AcDbEntity
8
REBAR-U
370
50
100
AcDbCircle
10
33879.187982
20
8327.193196
30
0
40
46.666667
100
AcDbArc
50
159.230769
51
339.230769
0
LINE
5
3A6
330
10E
100
AcDbEntity
8
REBAR-U
370
50
100
AcDbLine
10
33645.571634
20
8397.039699
30
0
11
34028.476696
21
9950.546607
31
0
0
LINE
5
3A7
330
10E
100
AcDbEntity
8
REBAR-U
370
50
100
AcDbLine
10
33736.19287
20
8374.703571
30
0
11
34119.097933
21
9928.210479
31
0
0
ARC
5
3A8
330
10E
100
AcDbEntity
8
REBAR-U
370
50
100
AcDbCircle
10
33690.882252
20
8385.871635
30
0
40
46.666667
100
AcDbArc
50
166.153846
51
346.153846
0
LINE
5
3A9
330
10E
100
AcDbEntity
8
REBAR-U
370
50
100
AcDbLine
10
33450.550164
20
8427.049539
30
0
11
33643.408852
21
10015.383738
31
0
0
LINE
5
3AA
330
10E
100
AcDbEntity
8
REBAR-U
370
50
100
AcDbLine
10
33543.202992
20
8415.799449
30
0
11
33736.06168
21
10004.133648
31
0
0
ARC
5
3AB
330
10E
100
AcDbEntity
8
REBAR-U
370
50
100
AcDbCircle
10
33496.876578
20
8421.424494
30
0
40
46.666667
100
AcDbArc
50
173.076923
51
353.076923
0
LINE
5
3AC
330
10E
100
AcDbEntity
8
REBAR-U
370
50
100
AcDbLine
10
33253.333333
20
8433.333333
30
0
11
33253.333333
21
10033.333333
31
0
0
LINE
5
3AD
330
10E
100
AcDbEntity
8
REBAR-U
370
50
100
AcDbLine
10
33346.666667
20
8433.333333
30
0
11
33346.666667
21
10033.333333
31
0
0
ARC
5
3AE
330
10E
100
AcDbEntity
8
REBAR-U
370
50
100
AcDbCircle
10
33300
20
8433.333333
30
0
40
46.666667
100
AcDbArc
50
180
51
360
0
LINE
5
3AF
330
10E
100
AcDbEntity
8
REBAR-U
370
50
100
AcDbLine
10
33056.797008
20
8415.799449
30
0
11
32863.93832
21
10004.133648
31
0
0
LINE
5
3B0
330
10E
100
AcDbEntity
8
REBAR-U
370
50
100
AcDbLine
10
33149.449836
20
8427.049539
30
0
11
32956.591148
21
10015.383738
31
0
0
ARC
5
3B1
330
10E
100
AcDbEntity
8
REBAR-U
370
50
100
AcDbCircle
10
33103.123422
20
8421.424494
30
0
40
46.666667
100
AcDbArc
50
186.923077
51
366.923077
0
LINE
5
3B2
330
10E
100
AcDbEntity
8
REBAR-U
370
50
100
AcDbLine
10
32863.80713
20
8374.703571
30
0
11
32480.902067
21
9928.210479
31
0
0
LINE
5
3B3
330
10E
100
AcDbEntity
8
REBAR-U
370
50
100
AcDbLine
10
32954.428366
20
8397.039699
30
0
11
32571.523304
21
9950.546607
31
0
0
ARC
5
3B4
330
10E
100
AcDbEntity
8
REBAR-U
370
50
100
AcDbCircle
10
32909.117748
20
8385.871635
30
0
40
46.666667
100
AcDbArc
50
193.846154
51
373.846154
0
LINE
5
3B5
330
10E
100
AcDbEntity
8
REBAR-U
370
50
100
AcDbLine
10
32677.177927
20
8310.644968
30
0
11
32109.810107
21
9806.670957
31
0
0
LINE
5
3B6
330
10E
100
AcDbEntity
8
REBAR-U
370
50
100
AcDbLine
10
32764.446109
20
8343.741424
30
0
11
32197.07829
21
9839.767413
31
0
0
ARC
5
3B7
330
10E
100
AcDbEntity
8
REBAR-U
370
50
100
AcDbCircle
10
32720.812018
20
8327.193196
30
0
40
46.666667
100
AcDbArc
50
200.769231
51
380.769231
0
LINE
5
3B8
330
10E
100
AcDbEntity
8
REBAR-U
370
50
100
AcDbLine
10
32499.630871
20
8224.557761
30
0
11
31756.073796
21
9641.287402
31
0
0
LINE
5
3B9
330
10E
100
AcDbEntity
8
REBAR-U
370
50
100
AcDbLine
10
32582.273434
20
8267.931923
30
0
11
31838.716358
21
9684.661564
31
0
0
ARC
5
3BA
330
10E
100
AcDbEntity
8
REBAR-U
370
50
100
AcDbCircle
10
32540.952152
20
8246.244842
30
0
40
46.666667
100
AcDbArc
50
207.692308
51
387.692308
0
LINE
5
3BB
330
10E
100
AcDbEntity
8
REBAR-U
370
50
100
AcDbLine
10
32333.755
20
8117.697293
30
0
11
31424.851405
21
9434.471478
31
0
0
LINE
5
3BC
330
10E
100
AcDbEntity
8
REBAR-U
370
50
100
AcDbLine
10
32410.566827
20
8170.716669
30
0
11
31501.663233
21
9487.490855
31
0
0
ARC
5
3BD
330
10E
100
AcDbEntity
8
REBAR-U
370
50
100
AcDbCircle
10
32372.160914
20
8144.206981
30
0
40
46.666667
100
AcDbArc
50
214.615385
51
394.615385
0
LINE
5
3BE
330
10E
100
AcDbEntity
8
REBAR-U
370
50
100
AcDbLine
10
32181.969157
20
7991.621831
30
0
11
31120.972903
21
9189.239028
31
0
0
LINE
5
3BF
330
10E
100
AcDbEntity
8
REBAR-U
370
50
100
AcDbLine
10
32251.83016
20
8053.513279
30
0
11
31190.833907
21
9251.130476
31
0
0
ARC
5
3C0
330
10E
100
AcDbEntity
8
REBAR-U
370
50
100
AcDbCircle
10
32216.899658
20
8022.567555
30
0
40
46.666667
100
AcDbArc
50
221.538462
51
401.538462
0
LINE
5
3C1
330
10E
100
AcDbEntity
8
REBAR-U
370
50
100
AcDbLine
10
32046.486721
20
7848.16984
30
0
11
30848.869524
21
8909.166093
31
0
0
LINE
5
3C2
330
10E
100
AcDbEntity
8
REBAR-U
370
50
100
AcDbLine
10
32108.378169
20
7918.030843
30
0
11
30910.760972
21
8979.027097
31
0
0
ARC
5
3C3
330
10E
100
AcDbEntity
8
REBAR-U
370
50
100
AcDbCircle
10
32077.432445
20
7883.100342
30
0
40
46.666667
100
AcDbArc
50
228.461538
51
408.461538
0
LINE
5
3C4
330
10E
100
AcDbEntity
8
REBAR-U
370
50
100
AcDbLine
10
31929.283331
20
7689.433173
30
0
11
30612.509145
21
8598.336767
31
0
0
LINE
5
3C5
330
10E
100
AcDbEntity
8
REBAR-U
370
50
100
AcDbLine
10
31982.302707
20
7766.245
30
0
11
30665.528522
21
8675.148595
31
0
0
ARC
5
3C6
330
10E
100
AcDbEntity
8
REBAR-U
370
50
100
AcDbCircle
10
31955.793019
20
7727.839086
30
0
40
46.666667
100
AcDbArc
50
235.384615
51
415.384615
0
LINE
5
3C7
330
10E
100
AcDbEntity
8
REBAR-U
370
50
100
AcDbLine
10
31832.068077
20
7517.726566
30
0
11
30415.338436
21
8261.283642
31
0
0
LINE
5
3C8
330
10E
100
AcDbEntity
8
REBAR-U
370
50
100
AcDbLine
10
31875.442239
20
7600.369129
30
0
11
30458.712598
21
8343.926204
31
0
0
ARC
5
3C9
330
10E
100
AcDbEntity
8
REBAR-U
370
50
100
AcDbCircle
10
31853.755158
20
7559.047848
30
0
40
46.666667
100
AcDbArc
50
242.307692
51
422.307692
0
LINE
5
3CA
330
10E
100
AcDbEntity
8
REBAR-U
370
50
100
AcDbLine
10
31756.258576
20
7335.553891
30
0
11
30260.232587
21
7902.92171
31
0
0
LINE
5
3CB
330
10E
100
AcDbEntity
8
REBAR-U
370
50
100
AcDbLine
10
31789.355032
20
7422.822073
30
0
11
30293.329043
21
7990.189893
31
0
0
ARC
5
3CC
330
10E
100
AcDbEntity
8
REBAR-U
370
50
100
AcDbCircle
10
31772.806804
20
7379.187982
30
0
40
46.666667
100
AcDbArc
50
249.230769
51
429.230769
0
LINE
5
3CD
330
10E
100
AcDbEntity
8
REBAR-U
370
50
100
AcDbLine
10
31702.960301
20
7145.571634
30
0
11
30149.453393
21
7528.476696
31
0
0
LINE
5
3CE
330
10E
100
AcDbEntity
8
REBAR-U
370
50
100
AcDbLine
10
31725.296429
20
7236.19287
30
0
11
30171.789521
21
7619.097933
31
0
0
ARC
5
3CF
330
10E
100
AcDbEntity
8
REBAR-U
370
50
100
AcDbCircle
10
31714.128365
20
7190.882252
30
0
40
46.666667
100
AcDbArc
50
256.153846
51
436.153846
0
LINE
5
3D0
330
10E
100
AcDbEntity
8
REBAR-U
370
50
100
AcDbLine
10
31672.950461
20
6950.550164
30
0
11
30084.616262
21
7143.408852
31
0
0
LINE
5
3D1
330
10E
100
AcDbEntity
8
REBAR-U
370
50
100
AcDbLine
10
31684.200551
20
7043.202992
30
0
11
30095.866352
21
7236.06168
31
0
0
ARC
5
3D2
330
10E
100
AcDbEntity
8
REBAR-U
370
50
100
AcDbCircle
10
31678.575506
20
6996.876578
30
0
40
46.666667
100
AcDbArc
50
263.076923
51
443.076923
0
LINE
5
3D3
330
10E
100
AcDbEntity
8
REBAR-U
370
50
100
AcDbLine
10
31666.666667
20
6753.333333
30
0
11
30066.666667
21
6753.333333
31
0
0
LINE
5
3D4
330
10E
100
AcDbEntity
8
REBAR-U
370
50
100
AcDbLine
10
31666.666667
20
6846.666667
30
0
11
30066.666667
21
6846.666667
31
0
0
ARC
5
3D5
330
10E
100
AcDbEntity
8
REBAR-U
370
50
100
AcDbCircle
10
31666.666667
20
6800
30
0
40
46.666667
100
AcDbArc
50
270
51
450
0
LINE
5
3D6
330
10E
100
AcDbEntity
8
REBAR-U
370
50
100
AcDbLine
10
31684.200551
20
6556.797008
30
0
11
30095.866352
21
6363.93832
31
0
0
LINE
5
3D7
330
10E
100
AcDbEntity
8
REBAR-U
370
50
100
AcDbLine
10
31672.950461
20
6649.449836
30
0
11
30084.616262
21
6456.591148
31
0
0
ARC
5
3D8
330
10E
100
AcDbEntity
8
REBAR-U
370
50
100
AcDbCircle
10
31678.575506
20
6603.123422
30
0
40
46.666667
100
AcDbArc
50
276.923077
51
456.923077
0
LINE
5
3D9
330
10E
100
AcDbEntity
8
REBAR-U
370
50
100
AcDbLine
10
31725.296429
20
6363.80713
30
0
11
30171.789521
21
5980.902067
31
0
0
LINE
5
3DA
330
10E
100
AcDbEntity
8
REBAR-U
370
50
100
AcDbLine
10
31702.960301
20
6454.428366
30
0
11
30149.453393
21
6071.523304
31
0
0
ARC
5
3DB
330
10E
100
AcDbEntity
8
REBAR-U
370
50
100
AcDbCircle
10
31714.128365
20
6409.117748
30
0
40
46.666667
100
AcDbArc
50
283.846154
51
463.846154
0
LINE
5
3DC
330
10E
100
AcDbEntity
8
REBAR-U
370
50
100
AcDbLine
10
31789.355032
20
6177.177927
30
0
11
30293.329043
21
5609.810107
31
0
0
LINE
5
3DD
330
10E
100
AcDbEntity
8
REBAR-U
370
50
100
AcDbLine
10
31756.258576
20
6264.446109
30
0
11
30260.232587
21
5697.07829
31
0
0
ARC
5
3DE
330
10E
100
AcDbEntity
8
REBAR-U
370
50
100
AcDbCircle
10
31772.806804
20
6220.812018
30
0
40
46.666667
100
AcDbArc
50
290.769231
51
470.769231
0
LINE
5
3DF
330
10E
100
AcDbEntity
8
REBAR-U
370
50
100
AcDbLine
10
31875.442239
20
5999.630871
30
0
11
30458.712598
21
5256.073796
31
0
0
LINE
5
3E0
330
10E
100
AcDbEntity
8
REBAR-U
370
50
100
AcDbLine
10
31832.068077
20
6082.273434
30
0
11
30415.338436
21
5338.716358
31
0
0
ARC
5
3E1
330
10E
100
AcDbEntity
8
REBAR-U
370
50
100
AcDbCircle
10
31853.755158
20
6040.952152
30
0
40
46.666667
100
AcDbArc
50
297.692308
51
477.692308
0
LINE
5
3E2
330
10E
100
AcDbEntity
8
REBAR-U
370
50
100
AcDbLine
10
31982.302707
20
5833.755
30
0
11
30665.528522
21
4924.851405
31
0
0
LINE
5
3E3
330
10E
100
AcDbEntity
8
REBAR-U
370
50
100
AcDbLine
10
31929.283331
20
5910.566827
30
0
11
30612.509145
21
5001.663233
31
0
0
ARC
5
3E4
330
10E
100
AcDbEntity
8
REBAR-U
370
50
100
AcDbCircle
10
31955.793019
20
5872.160914
30
0
40
46.666667
100
AcDbArc
50
304.615385
51
484.615385
0
LINE
5
3E5
330
10E
100
AcDbEntity
8
REBAR-U
370
50
100
AcDbLine
10
32108.378169
20
5681.969157
30
0
11
30910.760972
21
4620.972903
31
0
0
LINE
5
3E6
330
10E
100
AcDbEntity
8
REBAR-U
370
50
100
AcDbLine
10
32046.486721
20
5751.83016
30
0
11
30848.869524
21
4690.833907
31
0
0
ARC
5
3E7
330
10E
100
AcDbEntity
8
REBAR-U
370
50
100
AcDbCircle
10
32077.432445
20
5716.899658
30
0
40
46.666667
100
AcDbArc
50
311.538462
51
491.538462
0
LINE
5
3E8
330
10E
100
AcDbEntity
8
REBAR-U
370
50
100
AcDbLine
10
32251.83016
20
5546.486721
30
0
11
31190.833907
21
4348.869524
31
0
0
LINE
5
3E9
330
10E
100
AcDbEntity
8
REBAR-U
370
50
100
AcDbLine
10
32181.969157
20
5608.378169
30
0
11
31120.972903
21
4410.760972
31
0
0
ARC
5
3EA
330
10E
100
AcDbEntity
8
REBAR-U
370
50
100
AcDbCircle
10
32216.899658
20
5577.432445
30
0
40
46.666667
100
AcDbArc
50
318.461538
51
498.461538
0
LINE
5
3EB
330
10E
100
AcDbEntity
8
REBAR-U
370
50
100
AcDbLine
10
32410.566827
20
5429.283331
30
0
11
31501.663233
21
4112.509145
31
0
0
LINE
5
3EC
330
10E
100
AcDbEntity
8
REBAR-U
370
50
100
AcDbLine
10
32333.755
20
5482.302707
30
0
11
31424.851405
21
4165.528522
31
0
0
ARC
5
3ED
330
10E
100
AcDbEntity
8
REBAR-U
370
50
100
AcDbCircle
10
32372.160914
20
5455.793019
30
0
40
46.666667
100
AcDbArc
50
325.384615
51
505.384615
0
LINE
5
3EE
330
10E
100
AcDbEntity
8
REBAR-U
370
50
100
AcDbLine
10
32582.273434
20
5332.068077
30
0
11
31838.716358
21
3915.338436
31
0
0
LINE
5
3EF
330
10E
100
AcDbEntity
8
REBAR-U
370
50
100
AcDbLine
10
32499.630871
20
5375.442239
30
0
11
31756.073796
21
3958.712598
31
0
0
ARC
5
3F0
330
10E
100
AcDbEntity
8
REBAR-U
370
50
100
AcDbCircle
10
32540.952152
20
5353.755158
30
0
40
46.666667
100
AcDbArc
50
332.307692
51
512.307692
0
LINE
5
3F1
330
10E
100
AcDbEntity
8
REBAR-U
370
50
100
AcDbLine
10
32764.446109
20
5256.258576
30
0
11
32197.07829
21
3760.232587
31
0
0
LINE
5
3F2
330
10E
100
AcDbEntity
8
REBAR-U
370
50
100
AcDbLine
10
32677.177927
20
5289.355032
30
0
11
32109.810107
21
3793.329043
31
0
0
ARC
5
3F3
330
10E
100
AcDbEntity
8
REBAR-U
370
50
100
AcDbCircle
10
32720.812018
20
5272.806804
30
0
40
46.666667
100
AcDbArc
50
339.230769
51
519.230769
0
LINE
5
3F4
330
10E
100
AcDbEntity
8
REBAR-U
370
50
100
AcDbLine
10
32954.428366
20
5202.960301
30
0
11
32571.523304
21
3649.453393
31
0
0
LINE
5
3F5
330
10E
100
AcDbEntity
8
REBAR-U
370
50
100
AcDbLine
10
32863.80713
20
5225.296429
30
0
11
32480.902067
21
3671.789521
31
0
0
ARC
5
3F6
330
10E
100
AcDbEntity
8
REBAR-U
370
50
100
AcDbCircle
10
32909.117748
20
5214.128365
30
0
40
46.666667
100
AcDbArc
50
346.153846
51
526.153846
0
LINE
5
3F7
330
10E
100
AcDbEntity
8
REBAR-U
370
50
100
AcDbLine
10
33149.449836
20
5172.950461
30
0
11
32956.591148
21
3584.616262
31
0
0
LINE
5
3F8
330
10E
100
AcDbEntity
8
REBAR-U
370
50
100
AcDbLine
10
33056.797008
20
5184.200551
30
0
11
32863.93832
21
3595.866352
31
0
0
ARC
5
3F9
330
10E
100
AcDbEntity
8
REBAR-U
370
50
100
AcDbCircle
10
33103.123422
20
5178.575506
30
0
40
46.666667
100
AcDbArc
50
353.076923
51
533.076923
0
LINE
5
3FA
330
10E
100
AcDbEntity
8
REBAR-U
370
50
100
AcDbLine
10
33346.666667
20
5166.666667
30
0
11
33346.666667
21
3566.666667
31
0
0
LINE
5
3FB
330
10E
100
AcDbEntity
8
REBAR-U
370
50
100
AcDbLine
10
33253.333333
20
5166.666667
30
0
11
33253.333333
21
3566.666667
31
0
0
ARC
5
3FC
330
10E
100
AcDbEntity
8
REBAR-U
370
50
100
AcDbCircle
10
33300
20
5166.666667
30
0
40
46.666667
100
AcDbArc
50
360
51
540
0
LINE
5
3FD
330
10E
100
AcDbEntity
8
REBAR-U
370
50
100
AcDbLine
10
33543.202992
20
5184.200551
30
0
11
33736.06168
21
3595.866352
31
0
0
LINE
5
3FE
330
10E
100
AcDbEntity
8
REBAR-U
370
50
100
AcDbLine
10
33450.550164
20
5172.950461
30
0
11
33643.408852
21
3584.616262
31
0
0
ARC
5
3FF
330
10E
100
AcDbEntity
8
REBAR-U
370
50
100
AcDbCircle
10
33496.876578
20
5178.575506
30
0
40
46.666667
100
AcDbArc
50
366.923077
51
546.923077
0
LINE
5
400
330
10E
100
AcDbEntity
8
REBAR-U
370
50
100
AcDbLine
10
33736.19287
20
5225.296429
30
0
11
34119.097933
21
3671.789521
31
0
0
LINE
5
401
330
10E
100
AcDbEntity
8
REBAR-U
370
50
100
AcDbLine
10
33645.571634
20
5202.960301
30
0
11
34028.476696
21
3649.453393
31
0
0
ARC
5
402
330
10E
100
AcDbEntity
8
REBAR-U
370
50
100
AcDbCircle
10
33690.882252
20
5214.128365
30
0
40
46.666667
100
AcDbArc
50
373.846154
51
553.846154
0
LINE
5
403
330
10E
100
AcDbEntity
8
REBAR-U
370
50
100
AcDbLine
10
33922.822073
20
5289.355032
30
0
11
34490.189893
21
3793.329043
31
0
0
LINE
5
404
330
10E
100
AcDbEntity
8
REBAR-U
370
50
100
AcDbLine
10
33835.553891
20
5256.258576
30
0
11
34402.92171
21
3760.232587
31
0
0
ARC
5
405
330
10E
100
AcDbEntity
8
REBAR-U
370
50
100
AcDbCircle
10
33879.187982
20
5272.806804
30
0
40
46.666667
100
AcDbArc
50
380.769231
51
560.769231
0
LINE
5
406
330
10E
100
AcDbEntity
8
REBAR-U
370
50
100
AcDbLine
10
34100.369129
20
5375.442239
30
0
11
34843.926204
21
3958.712598
31
0
0
LINE
5
407
330
10E
100
AcDbEntity
8
REBAR-U
370
50
100
AcDbLine
10
34017.726566
20
5332.068077
30
0
11
34761.283642
21
3915.338436
31
0
0
ARC
5
408
330
10E
100
AcDbEntity
8
REBAR-U
370
50
100
AcDbCircle
10
34059.047848
20
5353.755158
30
0
40
46.666667
100
AcDbArc
50
387.692308
51
567.692308
0
LINE
5
409
330
10E
100
AcDbEntity
8
REBAR-U
370
50
100
AcDbLine
10
34266.245
20
5482.302707
30
0
11
35175.148595
21
4165.528522
31
0
0
LINE
5
40A
330
10E
100
AcDbEntity
8
REBAR-U
370
50
100
AcDbLine
10
34189.433173
20
5429.283331
30
0
11
35098.336767
21
4112.509145
31
0
0
ARC
5
40B
330
10E
100
AcDbEntity
8
REBAR-U
370
50
100
AcDbCircle
10
34227.839086
20
5455.793019
30
0
40
46.666667
100
AcDbArc
50
394.615385
51
574.615385
0
LINE
5
40C
330
10E
100
AcDbEntity
8
REBAR-U
370
50
100
AcDbLine
10
34418.030843
20
5608.378169
30
0
11
35479.027097
21
4410.760972
31
0
0
LINE
5
40D
330
10E
100
AcDbEntity
8
REBAR-U
370
50
100
AcDbLine
10
34348.16984
20
5546.486721
30
0
11
35409.166093
21
4348.869524
31
0
0
ARC
5
40E
330
10E
100
AcDbEntity
8
REBAR-U
370
50
100
AcDbCircle
10
34383.100342
20
5577.432445
30
0
40
46.666667
100
AcDbArc
50
401.538462
51
581.538462
0
LINE
5
40F
330
10E
100
AcDbEntity
8
REBAR-U
370
50
100
AcDbLine
10
34553.513279
20
5751.83016
30
0
11
35751.130476
21
4690.833907
31
0
0
LINE
5
410
330
10E
100
AcDbEntity
8
REBAR-U
370
50
100
AcDbLine
10
34491.621831
20
5681.969157
30
0
11
35689.239028
21
4620.972903
31
0
0
ARC
5
411
330
10E
100
AcDbEntity
8
REBAR-U
370
50
100
AcDbCircle
10
34522.567555
20
5716.899658
30
0
40
46.666667
100
AcDbArc
50
408.461538
51
588.461538
0
LINE
5
412
330
10E
100
AcDbEntity
8
REBAR-U
370
50
100
AcDbLine
10
34670.716669
20
5910.566827
30
0
11
35987.490855
21
5001.663233
31
0
0
LINE
5
413
330
10E
100
AcDbEntity
8
REBAR-U
370
50
100
AcDbLine
10
34617.697293
20
5833.755
30
0
11
35934.471478
21
4924.851405
31
0
0
ARC
5
414
330
10E
100
AcDbEntity
8
REBAR-U
370
50
100
AcDbCircle
10
34644.206981
20
5872.160914
30
0
40
46.666667
100
AcDbArc
50
415.384615
51
595.384615
0
LINE
5
415
330
10E
100
AcDbEntity
8
REBAR-U
370
50
100
AcDbLine
10
34767.931923
20
6082.273434
30
0
11
36184.661564
21
5338.716358
31
0
0
LINE
5
416
330
10E
100
AcDbEntity
8
REBAR-U
370
50
100
AcDbLine
10
34724.557761
20
5999.630871
30
0
11
36141.287402
21
5256.073796
31
0
0
ARC
5
417
330
10E
100
AcDbEntity
8
REBAR-U
370
50
100
AcDbCircle
10
34746.244842
20
6040.952152
30
0
40
46.666667
100
AcDbArc
50
422.307692
51
602.307692
0
LINE
5
418
330
10E
100
AcDbEntity
8
REBAR-U
370
50
100
AcDbLine
10
34843.741424
20
6264.446109
30
0
11
36339.767413
21
5697.07829
31
0
0
LINE
5
419
330
10E
100
AcDbEntity
8
REBAR-U
370
50
100
AcDbLine
10
34810.644968
20
6177.177927
30
0
11
36306.670957
21
5609.810107
31
0
0
ARC
5
41A
330
10E
100
AcDbEntity
8
REBAR-U
370
50
100
AcDbCircle
10
34827.193196
20
6220.812018
30
0
40
46.666667
100
AcDbArc
50
429.230769
51
609.230769
0
LINE
5
41B
330
10E
100
AcDbEntity
8
REBAR-U
370
50
100
AcDbLine
10
34897.039699
20
6454.428366
30
0
11
36450.546607
21
6071.523304
31
0
0
LINE
5
41C
330
10E
100
AcDbEntity
8
REBAR-U
370
50
100
AcDbLine
10
34874.703571
20
6363.80713
30
0
11
36428.210479
21
5980.902067
31
0
0
ARC
5
41D
330
10E
100
AcDbEntity
8
REBAR-U
370
50
100
AcDbCircle
10
34885.871635
20
6409.117748
30
0
40
46.666667
100
AcDbArc
50
436.153846
51
616.153846
0
LINE
5
41E
330
10E
100
AcDbEntity
8
REBAR-U
370
50
100
AcDbLine
10
34927.049539
20
6649.449836
30
0
11
36515.383738
21
6456.591148
31
0
0
LINE
5
41F
330
10E
100
AcDbEntity
8
REBAR-U
370
50
100
AcDbLine
10
34915.799449
20
6556.797008
30
0
11
36504.133648
21
6363.93832
31
0
0
ARC
5
420
330
10E
100
AcDbEntity
8
REBAR-U
370
50
100
AcDbCircle
10
34921.424494
20
6603.123422
30
0
40
46.666667
100
AcDbArc
50
443.076923
51
623.076923
0
LINE
5
421
330
10E
100
AcDbEntity
8
DIM
100
AcDbLine
10
33300
20
6800
30
0
11
33300
21
6450
31
0
0
LINE
5
422
330
10E
100
AcDbEntity
8
DIM
100
AcDbLine
10
34900
20
6800
30
0
11
34900
21
6450
31
0
0
LINE
5
423
330
10E
100
AcDbEntity
8
DIM
100
AcDbLine
10
33300
20
6300
30
0
11
34900
21
6300
31
0
0
LINE
5
424
330
10E
100
AcDbEntity
8
DIM
100
AcDbLine
10
33230
20
6230
30
0
11
33370
21
6370
31
0
0
LINE
5
425
330
10E
100
AcDbEntity
8
DIM
100
AcDbLine
10
34830
20
6230
30
0
11
34970
21
6370
31
0
0
TEXT
5
426
330
10E
100
AcDbEntity
8
DIM
100
AcDbText
10
34100
20
6372
30
0
40
180
1
R 1200
7
STANDARD
72
1
11
34100
21
6372
31
0
100
AcDbText
73
0
0
LINE
5
427
330
10E
100
AcDbEntity
8
DIM
100
AcDbLine
10
34933.333333
20
6800
30
0
11
34933.333333
21
6450
31
0
0
LINE
5
428
330
10E
100
AcDbEntity
8
DIM
100
AcDbLine
10
36533.333333
20
6800
30
0
11
36533.333333
21
6450
31
0
0
LINE
5
429
330
10E
100
AcDbEntity
8
DIM
100
AcDbLine
10
34933.333333
20
6300
30
0
11
36533.333333
21
6300
31
0
0
LINE
5
42A
330
10E
100
AcDbEntity
8
DIM
100
AcDbLine
10
34863.333333
20
6230
30
0
11
35003.333333
21
6370
31
0
0
LINE
5
42B
330
10E
100
AcDbEntity
8
DIM
100
AcDbLine
10
36463.333333
20
6230
30
0
11
36603.333333
21
6370
31
0
0
TEXT
5
42C
330
10E
100
AcDbEntity
8
DIM
100
AcDbText
10
35733.333333
20
6372
30
0
40
180
1
1200
7
STANDARD
72
1
11
35733.333333
21
6372
31
0
100
AcDbText
73
0
0
TEXT
5
42D
330
10E
100
AcDbEntity
8
REBAR-TEXT
100
AcDbText
10
33300
20
10473.333333
30
0
40
190
1
52T12@150 RADIAL U-BARS (LEGS 1200) + 2T12 RINGS T&B
7
STANDARD
72
1
11
33300
21
10473.333333
31
0
100
AcDbText
73
0
0
TEXT
5
42E
330
10E
100
AcDbEntity
8
NOTES
100
AcDbText
10
33300
20
3020
30
0
40
160
1
U-BARS TOP & BOTTOM LEGS; RINGS LAPPED CLASS B
7
STANDARD
72
1
11
33300
21
3020
31
0
100
AcDbText
73
0
0
LWPOLYLINE
5
42F
330
10E
100
AcDbEntity
8
SCHEDULE
100
AcDbPolyline
90
4
70
1
43
0
10
64600
20
57500
10
83100
20
57500
10
83100
20
58100
10
64600
20
58100
0
TEXT
5
430
330
10E
100
AcDbEntity
8
TEXT-TITLE
100
AcDbText
10
73850
20
57800
30
0
40
260
1
BAR BENDING SCHEDULE
7
STANDARD
72
1
11
73850
21
57800
31
0
100
AcDbText
73
2
0
LWPOLYLINE
5
431
330
10E
100
AcDbEntity
8
SCHEDULE
100
AcDbPolyline
90
4
70
1
43
0
10
64600
20
57000
10
83100
20
57000
10
83100
20
57500
10
64600
20
57500
0
TEXT
5
432
330
10E
100
AcDbEntity
8
SCHEDULE-TEXT
100
AcDbText
10
65300
20
57250
30
0
40
160
1
MARK
7
STANDARD
72
1
11
65300
21
57250
31
0
100
AcDbText
73
2
0
TEXT
5
433
330
10E
100
AcDbEntity
8
SCHEDULE-TEXT
100
AcDbText
10
66450
20
57250
30
0
40
160
1
\U+00D8
7
STANDARD
72
1
11
66450
21
57250
31
0
100
AcDbText
73
2
0
TEXT
5
434
330
10E
100
AcDbEntity
8
SCHEDULE-TEXT
100
AcDbText
10
67550
20
57250
30
0
40
160
1
SHAPE
7
STANDARD
72
1
11
67550
21
57250
31
0
100
AcDbText
73
2
0
TEXT
5
435
330
10E
100
AcDbEntity
8
SCHEDULE-TEXT
100
AcDbText
10
68850
20
57250
30
0
40
160
1
SPAC.
7
STANDARD
72
1
11
68850
21
57250
31
0
100
AcDbText
73
2
0
TEXT
5
436
330
10E
100
AcDbEntity
8
SCHEDULE-TEXT
100
AcDbText
10
70350
20
57355
30
0
40
160
1
LENGTH
7
STANDARD
72
1
11
70350
21
57355
31
0
100
AcDbText
73
2
0
TEXT
5
437
330
10E
100
AcDbEntity
8
SCHEDULE-TEXT
100
AcDbText
10
70350
20
57145
30
0
40
160
1
(mm)
7
STANDARD
72
1
11
70350
21
57145
31
0
100
AcDbText
73
2
0
TEXT
5
438
330
10E
100
AcDbEntity
8
SCHEDULE-TEXT
100
AcDbText
10
71850
20
57250
30
0
40
160
1
QTY
7
STANDARD
72
1
11
71850
21
57250
31
0
100
AcDbText
73
2
0
TEXT
5
439
330
10E
100
AcDbEntity
8
SCHEDULE-TEXT
100
AcDbText
10
73350
20
57355
30
0
40
160
1
TOTAL
7
STANDARD
72
1
11
73350
21
57355
31
0
100
AcDbText
73
2
0
TEXT
5
43A
330
10E
100
AcDbEntity
8
SCHEDULE-TEXT
100
AcDbText
10
73350
20
57145
30
0
40
160
1
(m)
7
STANDARD
72
1
11
73350
21
57145
31
0
100
AcDbText
73
2
0
TEXT
5
43B
330
10E
100
AcDbEntity
8
SCHEDULE-TEXT
100
AcDbText
10
75050
20
57355
30
0
40
160
1
WT.
7
STANDARD
72
1
11
75050
21
57355
31
0
100
AcDbText
73
2
0
TEXT
5
43C
330
10E
100
AcDbEntity
8
SCHEDULE-TEXT
100
AcDbText
10
75050
20
57145
30
0
40
160
1
(kg)
7
STANDARD
72
1
11
75050
21
57145
31
0
100
AcDbText
73
2
0
TEXT
5
43D
330
10E
100
AcDbEntity
8
SCHEDULE-TEXT
100
AcDbText
10
79500
20
57250
30
0
40
160
1
ZONES / REMARKS
7
STANDARD
72
1
11
79500
21
57250
31
0
100
AcDbText
73
2
0
TEXT
5
43E
330
10E
100
AcDbEntity
8
SCHEDULE-TEXT
100
AcDbText
10
65300
20
56800
30
0
40
170
1
U01
7
STANDARD
72
1
11
65300
21
56800
31
0
100
AcDbText
73
2
0
TEXT
5
43F
330
10E
100
AcDbEntity
8
SCHEDULE-TEXT
100
AcDbText
10
66450
20
56800
30
0
40
170
1
12
7
STANDARD
72
1
11
66450
21
56800
31
0
100
AcDbText
73
2
0
TEXT
5
440
330
10E
100
AcDbEntity
8
SCHEDULE-TEXT
100
AcDbText
10
67550
20
56800
30
0
40
170
1
RING
7
STANDARD
72
1
11
67550
21
56800
31
0
100
AcDbText
73
2
0
TEXT
5
441
330
10E
100
AcDbEntity
8
SCHEDULE-TEXT
100
AcDbText
10
68850
20
56800
30
0
40
170
1

7
STANDARD
72
1
11
68850
21
56800
31
0
100
AcDbText
73
2
0
TEXT
5
442
330
10E
100
AcDbEntity
8
SCHEDULE-TEXT
100
AcDbText
10
70350
20
56800
30
0
40
170
1
8360
7
STANDARD
72
1
11
70350
21
56800
31
0
100
AcDbText
73
2
0
TEXT
5
443
330
10E
100
AcDbEntity
8
SCHEDULE-TEXT
100
AcDbText
10
71850
20
56800
30
0
40
170
1
4
7
STANDARD
72
1
11
71850
21
56800
31
0
100
AcDbText
73
2
0
TEXT
5
444
330
10E
100
AcDbEntity
8
SCHEDULE-TEXT
100
AcDbText
10
73350
20
56800
30
0
40
170
1
33.4
7
STANDARD
72
1
11
73350
21
56800
31
0
100
AcDbText
73
2
0
TEXT
5
445
330
10E
100
AcDbEntity
8
SCHEDULE-TEXT
100
AcDbText
10
75050
20
56800
30
0
40
170
1
29.7
7
STANDARD
72
1
11
75050
21
56800
31
0
100
AcDbText
73
2
0
TEXT
5
446
330
10E
100
AcDbEntity
8
SCHEDULE-TEXT
100
AcDbText
10
76000
20
56800
30
0
40
170
1
R1
7
STANDARD
72
0
11
76000
21
56800
31
0
100
AcDbText
73
2
0
LINE
5
447
330
10E
100
AcDbEntity
8
SCHEDULE
370
5
100
AcDbLine
10
64600
20
56600
30
0
11
83100
21
56600
31
0
0
TEXT
5
448
330
10E
100
AcDbEntity
8
SCHEDULE-TEXT
100
AcDbText
10
65300
20
56400
30
0
40
170
1
U02
7
STANDARD
72
1
11
65300
21
56400
31
0
100
AcDbText
73
2
0
TEXT
5
449
330
10E
100
AcDbEntity
8
SCHEDULE-TEXT
100
AcDbText
10
66450
20
56400
30
0
40
170
1
12
7
STANDARD
72
1
11
66450
21
56400
31
0
100
AcDbText
73
2
0
TEXT
5
44A
330
10E
100
AcDbEntity
8
SCHEDULE-TEXT
100
AcDbText
10
67550
20
56400
30
0
40
170
1
RING
7
STANDARD
72
1
11
67550
21
56400
31
0
100
AcDbText
73
2
0
TEXT
5
44B
330
10E
100
AcDbEntity
8
SCHEDULE-TEXT
100
AcDbText
10
68850
20
56400
30
0
40
170
1

7
STANDARD
72
1
11
68850
21
56400
31
0
100
AcDbText
73
2
0
TEXT
5
44C
330
10E
100
AcDbEntity
8
SCHEDULE-TEXT
100
AcDbText
10
70350
20
56400
30
0
40
170
1
6480
7
STANDARD
72
1
11
70350
21
56400
31
0
100
AcDbText
73
2
0
TEXT
5
44D
330
10E
100
AcDbEntity
8
SCHEDULE-TEXT
100
AcDbText
10
71850
20
56400
30
0
40
170
1
4
7
STANDARD
72
1
11
71850
21
56400
31
0
100
AcDbText
73
2
0
TEXT
5
44E
330
10E
100
AcDbEntity
8
SCHEDULE-TEXT
100
AcDbText
10
73350
20
56400
30
0
40
170
1
25.9
7
STANDARD
72
1
11
73350
21
56400
31
0
100
AcDbText
73
2
0
TEXT
5
44F
330
10E
100
AcDbEntity
8
SCHEDULE-TEXT
100
AcDbText
10
75050
20
56400
30
0
40
170
1
23
7
STANDARD
72
1
11
75050
21
56400
31
0
100
AcDbText
73
2
0
TEXT
5
450
330
10E
100
AcDbEntity
8
SCHEDULE-TEXT
100
AcDbText
10
76000
20
56400
30
0
40
170
1
R2
7
STANDARD
72
0
11
76000
21
56400
31
0
100
AcDbText
73
2
0
LINE
5
451
330
10E
100
AcDbEntity
8
SCHEDULE
370
5
100
AcDbLine
10
64600
20
56200
30
0
11
83100
21
56200
31
0
0
TEXT
5
452
330
10E
100
AcDbEntity
8
SCHEDULE-TEXT
100
AcDbText
10
65300
20
56000
30
0
40
170
1
U03
7
STANDARD
72
1
11
65300
21
56000
31
0
100
AcDbText
73
2
0
TEXT
5
453
330
10E
100
AcDbEntity
8
SCHEDULE-TEXT
100
AcDbText
10
66450
20
56000
30
0
40
170
1
12
7
STANDARD
72
1
11
66450
21
56000
31
0
100
AcDbText
73
2
0
TEXT
5
454
330
10E
100
AcDbEntity
8
SCHEDULE-TEXT
100
AcDbText
10
67550
20
56000
30
0
40
170
1
STR
7
STANDARD
72
1
11
67550
21
56000
31
0
100
AcDbText
73
2
0
TEXT
5
455
330
10E
100
AcDbEntity
8
SCHEDULE-TEXT
100
AcDbText
10
68850
20
56000
30
0
40
170
1

7
STANDARD
72
1
11
68850
21
56000
31
0
100
AcDbText
73
2
0
TEXT
5
456
330
10E
100
AcDbEntity
8
SCHEDULE-TEXT
100
AcDbText
10
70350
20
56000
30
0
40
170
1
12000
7
STANDARD
72
1
11
70350
21
56000
31
0
100
AcDbText
73
2
0
TEXT
5
457
330
10E
100
AcDbEntity
8
SCHEDULE-TEXT
100
AcDbText
10
71850
20
56000
30
0
40
170
1
32
7
STANDARD
72
1
11
71850
21
56000
31
0
100
AcDbText
73
2
0
TEXT
5
458
330
10E
100
AcDbEntity
8
SCHEDULE-TEXT
100
AcDbText
10
73350
20
56000
30
0
40
170
1
384
7
STANDARD
72
1
11
73350
21
56000
31
0
100
AcDbText
73
2
0
TEXT
5
459
330
10E
100
AcDbEntity
8
SCHEDULE-TEXT
100
AcDbText
10
75050
20
56000
30
0
40
170
1
340.9
7
STANDARD
72
1
11
75050
21
56000
31
0
100
AcDbText
73
2
0
TEXT
5
45A
330
10E
100
AcDbEntity
8
SCHEDULE-TEXT
100
AcDbText
10
76000
20
56000
30
0
40
170
1
E1, E2, E3, E4
7
STANDARD
72
0
11
76000
21
56000
31
0
100
AcDbText
73
2
0
LINE
5
45B
330
10E
100
AcDbEntity
8
SCHEDULE
370
5
100
AcDbLine
10
64600
20
55800
30
0
11
83100
21
55800
31
0
0
TEXT
5
45C
330
10E
100
AcDbEntity
8
SCHEDULE-TEXT
100
AcDbText
10
65300
20
55600
30
0
40
170
1
U04
7
STANDARD
72
1
11
65300
21
55600
31
0
100
AcDbText
73
2
0
TEXT
5
45D
330
10E
100
AcDbEntity
8
SCHEDULE-TEXT
100
AcDbText
10
66450
20
55600
30
0
40
170
1
12
7
STANDARD
72
1
11
66450
21
55600
31
0
100
AcDbText
73
2
0
TEXT
5
45E
330
10E
100
AcDbEntity
8
SCHEDULE-TEXT
100
AcDbText
10
67550
20
55600
30
0
40
170
1
STR
7
STANDARD
72
1
11
67550
21
55600
31
0
100
AcDbText
73
2
0
TEXT
5
45F
330
10E
100
AcDbEntity
8
SCHEDULE-TEXT
100
AcDbText
10
68850
20
55600
30
0
40
170
1

7
STANDARD
72
1
11
68850
21
55600
31
0
100
AcDbText
73
2
0
TEXT
5
460
330
10E
100
AcDbEntity
8
SCHEDULE-TEXT
100
AcDbText
10
70350
20
55600
30
0
40
170
1
9550
7
STANDARD
72
1
11
70350
21
55600
31
0
100
AcDbText
73
2
0
TEXT
5
461
330
10E
100
AcDbEntity
8
SCHEDULE-TEXT
100
AcDbText
10
71850
20
55600
30
0
40
170
1
8
7
STANDARD
72
1
11
71850
21
55600
31
0
100
AcDbText
73
2
0
TEXT
5
462
330
10E
100
AcDbEntity
8
SCHEDULE-TEXT
100
AcDbText
10
73350
20
55600
30
0
40
170
1
76.4
7
STANDARD
72
1
11
73350
21
55600
31
0
100
AcDbText
73
2
0
TEXT
5
463
330
10E
100
AcDbEntity
8
SCHEDULE-TEXT
100
AcDbText
10
75050
20
55600
30
0
40
170
1
67.8
7
STANDARD
72
1
11
75050
21
55600
31
0
100
AcDbText
73
2
0
TEXT
5
464
330
10E
100
AcDbEntity
8
SCHEDULE-TEXT
100
AcDbText
10
76000
20
55600
30
0
40
170
1
E1, E3
7
STANDARD
72
0
11
76000
21
55600
31
0
100
AcDbText
73
2
0
LINE
5
465
330
10E
100
AcDbEntity
8
SCHEDULE
370
5
100
AcDbLine
10
64600
20
55400
30
0
11
83100
21
55400
31
0
0
TEXT
5
466
330
10E
100
AcDbEntity
8
SCHEDULE-TEXT
100
AcDbText
10
65300
20
55200
30
0
40
170
1
U05
7
STANDARD
72
1
11
65300
21
55200
31
0
100
AcDbText
73
2
0
TEXT
5
467
330
10E
100
AcDbEntity
8
SCHEDULE-TEXT
100
AcDbText
10
66450
20
55200
30
0
40
170
1
12
7
STANDARD
72
1
11
66450
21
55200
31
0
100
AcDbText
73
2
0
TEXT
5
468
330
10E
100
AcDbEntity
8
SCHEDULE-TEXT
100
AcDbText
10
67550
20
55200
30
0
40
170
1
STR
7
STANDARD
72
1
11
67550
21
55200
31
0
100
AcDbText
73
2
0
TEXT
5
469
330
10E
100
AcDbEntity
8
SCHEDULE-TEXT
100
AcDbText
10
68850
20
55200
30
0
40
170
1

7
STANDARD
72
1
11
68850
21
55200
31
0
100
AcDbText
73
2
0
TEXT
5
46A
330
10E
100
AcDbEntity
8
SCHEDULE-TEXT
100
AcDbText
10
70350
20
55200
30
0
40
170
1
3050
7
STANDARD
72
1
11
70350
21
55200
31
0
100
AcDbText
73
2
0
TEXT
5
46B
330
10E
100
AcDbEntity
8
SCHEDULE-TEXT
100
AcDbText
10
71850
20
55200
30
0
40
170
1
8
7
STANDARD
72
1
11
71850
21
55200
31
0
100
AcDbText
73
2
0
TEXT
5
46C
330
10E
100
AcDbEntity
8
SCHEDULE-TEXT
100
AcDbText
10
73350
20
55200
30
0
40
170
1
24.4
7
STANDARD
72
1
11
73350
21
55200
31
0
100
AcDbText
73
2
0
TEXT
5
46D
330
10E
100
AcDbEntity
8
SCHEDULE-TEXT
100
AcDbText
10
75050
20
55200
30
0
40
170
1
21.7
7
STANDARD
72
1
11
75050
21
55200
31
0
100
AcDbText
73
2
0
TEXT
5
46E
330
10E
100
AcDbEntity
8
SCHEDULE-TEXT
100
AcDbText
10
76000
20
55200
30
0
40
170
1
E2, E4
7
STANDARD
72
0
11
76000
21
55200
31
0
100
AcDbText
73
2
0
LINE
5
46F
330
10E
100
AcDbEntity
8
SCHEDULE
370
5
100
AcDbLine
10
64600
20
55000
30
0
11
83100
21
55000
31
0
0
TEXT
5
470
330
10E
100
AcDbEntity
8
SCHEDULE-TEXT
100
AcDbText
10
65300
20
54800
30
0
40
170
1
U06
7
STANDARD
72
1
11
65300
21
54800
31
0
100
AcDbText
73
2
0
TEXT
5
471
330
10E
100
AcDbEntity
8
SCHEDULE-TEXT
100
AcDbText
10
66450
20
54800
30
0
40
170
1
12
7
STANDARD
72
1
11
66450
21
54800
31
0
100
AcDbText
73
2
0
TEXT
5
472
330
10E
100
AcDbEntity
8
SCHEDULE-TEXT
100
AcDbText
10
67550
20
54800
30
0
40
170
1
U
7
STANDARD
72
1
11
67550
21
54800
31
0
100
AcDbText
73
2
0
TEXT
5
473
330
10E
100
AcDbEntity
8
SCHEDULE-TEXT
100
AcDbText
10
68850
20
54800
30
0
40
170
1
200
7
STANDARD
72
1
11
68850
21
54800
31
0
100
AcDbText
73
2
0
TEXT
5
474
330
10E
100
AcDbEntity
8
SCHEDULE-TEXT
100
AcDbText
10
70350
20
54800
30
0
40
170
1
2570
7
STANDARD
72
1
11
70350
21
54800
31
0
100
AcDbText
73
2
0
TEXT
5
475
330
10E
100
AcDbEntity
8
SCHEDULE-TEXT
100
AcDbText
10
71850
20
54800
30
0
40
170
1
586
7
STANDARD
72
1
11
71850
21
54800
31
0
100
AcDbText
73
2
0
TEXT
5
476
330
10E
100
AcDbEntity
8
SCHEDULE-TEXT
100
AcDbText
10
73350
20
54800
30
0
40
170
1
1506
7
STANDARD
72
1
11
73350
21
54800
31
0
100
AcDbText
73
2
0
TEXT
5
477
330
10E
100
AcDbEntity
8
SCHEDULE-TEXT
100
AcDbText
10
75050
20
54800
30
0
40
170
1
1337
7
STANDARD
72
1
11
75050
21
54800
31
0
100
AcDbText
73
2
0
TEXT
5
478
330
10E
100
AcDbEntity
8
SCHEDULE-TEXT
100
AcDbText
10
76000
20
54800
30
0
40
170
1
E1, E2, E3, E4
7
STANDARD
72
0
11
76000
21
54800
31
0
100
AcDbText
73
2
0
LINE
5
479
330
10E
100
AcDbEntity
8
SCHEDULE
370
5
100
AcDbLine
10
64600
20
54600
30
0
11
83100
21
54600
31
0
0
TEXT
5
47A
330
10E
100
AcDbEntity
8
SCHEDULE-TEXT
100
AcDbText
10
65300
20
54400
30
0
40
170
1
U07
7
STANDARD
72
1
11
65300
21
54400
31
0
100
AcDbText
73
2
0
TEXT
5
47B
330
10E
100
AcDbEntity
8
SCHEDULE-TEXT
100
AcDbText
10
66450
20
54400
30
0
40
170
1
12
7
STANDARD
72
1
11
66450
21
54400
31
0
100
AcDbText
73
2
0
TEXT
5
47C
330
10E
100
AcDbEntity
8
SCHEDULE-TEXT
100
AcDbText
10
67550
20
54400
30
0
40
170
1
U
7
STANDARD
72
1
11
67550
21
54400
31
0
100
AcDbText
73
2
0
TEXT
5
47D
330
10E
100
AcDbEntity
8
SCHEDULE-TEXT
100
AcDbText
10
68850
20
54400
30
0
40
170
1
150
7
STANDARD
72
1
11
68850
21
54400
31
0
100
AcDbText
73
2
0
TEXT
5
47E
330
10E
100
AcDbEntity
8
SCHEDULE-TEXT
100
AcDbText
10
70350
20
54400
30
0
40
170
1
2570
7
STANDARD
72
1
11
70350
21
54400
31
0
100
AcDbText
73
2
0
TEXT
5
47F
330
10E
100
AcDbEntity
8
SCHEDULE-TEXT
100
AcDbText
10
71850
20
54400
30
0
40
170
1
91
7
STANDARD
72
1
11
71850
21
54400
31
0
100
AcDbText
73
2
0
TEXT
5
480
330
10E
100
AcDbEntity
8
SCHEDULE-TEXT
100
AcDbText
10
73350
20
54400
30
0
40
170
1
233.9
7
STANDARD
72
1
11
73350
21
54400
31
0
100
AcDbText
73
2
0
TEXT
5
481
330
10E
100
AcDbEntity
8
SCHEDULE-TEXT
100
AcDbText
10
75050
20
54400
30
0
40
170
1
207.6
7
STANDARD
72
1
11
75050
21
54400
31
0
100
AcDbText
73
2
0
TEXT
5
482
330
10E
100
AcDbEntity
8
SCHEDULE-TEXT
100
AcDbText
10
76000
20
54400
30
0
40
170
1
R1, R2
7
STANDARD
72
0
11
76000
21
54400
31
0
100
AcDbText
73
2
0
LINE
5
483
330
10E
100
AcDbEntity
8
SCHEDULE
370
5
100
AcDbLine
10
64600
20
54200
30
0
11
83100
21
54200
31
0
0
LWPOLYLINE
5
484
330
10E
100
AcDbEntity
8
SCHEDULE
100
AcDbPolyline
90
4
70
1
43
0
10
64600
20
53750
10
83100
20
53750
10
83100
20
54200
10
64600
20
54200
0
TEXT
5
485
330
10E
100
AcDbEntity
8
SCHEDULE-TEXT
100
AcDbText
10
64800
20
53975
30
0
40
170
1
TOTAL 2,027.7 kg  \U+00B7  \U+00D812: 2284 m
7
STANDARD
72
0
11
64800
21
53975
31
0
100
AcDbText
73
2
0
LINE
5
486
330
10E
100
AcDbEntity
8
SCHEDULE
100
AcDbLine
10
64600
20
57500
30
0
11
64600
21
53750
31
0
0
LINE
5
487
330
10E
100
AcDbEntity
8
SCHEDULE
100
AcDbLine
10
66000
20
57500
30
0
11
66000
21
53750
31
0
0
LINE
5
488
330
10E
100
AcDbEntity
8
SCHEDULE
100
AcDbLine
10
66900
20
57500
30
0
11
66900
21
53750
31
0
0
LINE
5
489
330
10E
100
AcDbEntity
8
SCHEDULE
100
AcDbLine
10
68200
20
57500
30
0
11
68200
21
53750
31
0
0
LINE
5
48A
330
10E
100
AcDbEntity
8
SCHEDULE
100
AcDbLine
10
69500
20
57500
30
0
11
69500
21
53750
31
0
0
LINE
5
48B
330
10E
100
AcDbEntity
8
SCHEDULE
100
AcDbLine
10
71200
20
57500
30
0
11
71200
21
53750
31
0
0
LINE
5
48C
330
10E
100
AcDbEntity
8
SCHEDULE
100
AcDbLine
10
72500
20
57500
30
0
11
72500
21
53750
31
0
0
LINE
5
48D
330
10E
100
AcDbEntity
8
SCHEDULE
100
AcDbLine
10
74200
20
57500
30
0
11
74200
21
53750
31
0
0
LINE
5
48E
330
10E
100
AcDbEntity
8
SCHEDULE
100
AcDbLine
10
75900
20
57500
30
0
11
75900
21
53750
31
0
0
LINE
5
48F
330
10E
100
AcDbEntity
8
SCHEDULE
100
AcDbLine
10
83100
20
57500
30
0
11
83100
21
53750
31
0
0
LINE
5
490
330
10E
100
AcDbEntity
8
SCHEDULE
100
AcDbLine
10
64600
20
53750
30
0
11
83100
21
53750
31
0
0
TEXT
5
491
330
10E
100
AcDbEntity
8
TEXT-TITLE
100
AcDbText
10
64900
20
37950
30
0
40
260
1
GENERAL NOTES
7
STANDARD
72
0
100
AcDbText
73
0
0
TEXT
5
492
330
10E
100
AcDbEntity
8
TEXT-TITLE
100
AcDbText
10
82800
20
37950
30
0
40
240
1
\U+0645\U+0644\U+0627\U+062D\U+0638\U+0627\U+062A \U+0639\U+0627\U+0645\U+0629
7
STANDARD
72
2
11
82800
21
37950
31
0
100
AcDbText
73
0
0
LINE
5
493
330
10E
100
AcDbEntity
8
NOTES
100
AcDbLine
10
64900
20
37830
30
0
11
82800
21
37830
31
0
0
MTEXT
5
494
330
10E
100
AcDbEntity
8
NOTES
100
AcDbMText
10
64900
20
37680
30
0
40
190
41
17800
71
1
72
1
1
1. ALL DIMENSIONS ARE IN MILLIMETRES UNLESS NOTED OTHERWISE. DO NOT SCALE FROM THIS DRAWING.
7
STANDARD
44
1
0
MTEXT
5
495
330
10E
100
AcDbEntity
8
NOTES
100
AcDbMText
10
64900
20
37330
30
0
40
190
41
17800
71
1
72
1
1
2. CONCRETE f'c = 35 MPa (drawing). REINFORCEMENT: DEFORMED BARS fy = 420 MPa (drawing). CLEAR COVER 25 mm TOP AND BOTTOM (drawing).
7
STANDARD
44
1
0
MTEXT
5
496
330
10E
100
AcDbEntity
8
NOTES
100
AcDbMText
10
64900
20
36685.5
30
0
40
190
41
17800
71
1
72
1
1
3. SLAB THICKNESS 220 mm. THIS SHEET IS TO BE READ WITH THE STRUCTURAL CONSULTANT'S DRAWINGS AND THE PT LAYOUT; ANY DISCREPANCY TO BE REFERRED TO THE ENGINEER BEFORE FABRICATION.
7
STANDARD
44
1
0
MTEXT
5
497
330
10E
100
AcDbEntity
8
NOTES
100
AcDbMText
10
64900
20
36041
30
0
40
190
41
17800
71
1
72
1
1
4. BAR MARKS REFER TO THE SCHEDULE ON THIS SHEET. LENGTHS ARE CUTTING LENGTHS INCLUDING HOOKS. QUANTITIES ARE FOR THIS LEVEL ONLY.
7
STANDARD
44
1
0
MTEXT
5
498
330
10E
100
AcDbEntity
8
NOTES
100
AcDbMText
10
64900
20
35396.5
30
0
40
190
41
17800
71
1
72
1
1
5. TENSION LAPS ARE CLASS B (1.3 ld) PER SBC 304-18 \U+00A725.5.2; NOT MORE THAN 50 % OF BARS LAPPED AT ONE SECTION, LAPS STAGGERED BY AT LEAST ONE LAP LENGTH.
7
STANDARD
44
1
0
MTEXT
5
499
330
10E
100
AcDbEntity
8
NOTES
100
AcDbMText
10
64900
20
34752
30
0
40
190
41
17800
71
1
72
1
1
6. BARS ENDING AT A FREE EDGE TERMINATE WITH A STANDARD 90\U+00B0 HOOK (12 \U+00D8) UNLESS NOTED.
7
STANDARD
44
1
0
MTEXT
5
49A
330
10E
100
AcDbEntity
8
NOTES
100
AcDbMText
10
64900
20
34402
30
0
40
190
41
17800
71
1
72
1
1
7. U-BARS T12@200 WITH 1200 mm LEGS TOP AND BOTTOM ALONG ALL PT ANCHORAGE EDGES (BURSTING / SPALLING STEEL), WITH 2T12 LONGITUDINAL BARS TOP AND BOTTOM INSIDE THE U-BARS. U-BAR DEPTH = SLAB THICKNESS - 2 x COVER = 170 mm.
7
STANDARD
44
1
0
MTEXT
5
49B
330
10E
100
AcDbEntity
8
NOTES
100
AcDbMText
10
64900
20
33757.5
30
0
40
190
41
17800
71
1
72
1
1
8. AROUND CIRCULAR REGIONS: RADIAL U-BARS T12@150 (LEGS 1200) PLUS 2T12 RING BARS TOP AND BOTTOM, RINGS LAPPED CLASS B.
7
STANDARD
44
1
0
MTEXT
5
49C
330
10E
100
AcDbEntity
8
NOTES
100
AcDbMText
10
64900
20
33407.5
30
0
40
190
41
17800
71
1
72
1
1
9. U-BARS ARE PLACED BEFORE THE ANCHORAGES ARE FIXED; DO NOT CUT U-BARS TO SUIT ANCHORAGE POCKETS - RELOCATE WITHIN THE SPACING.
7
STANDARD
44
1
0
MTEXT
5
49D
330
10E
100
AcDbEntity
8
NOTES
100
AcDbMText
10
64900
20
32763
30
0
40
190
41
17800
71
1
72
1
1
10. \U+00D812: ld 410 (bot) / 530 (top) \U+00B7 LAP 550 (bot) / 700 (top) \U+00B7 ldh 210
7
STANDARD
44
1
0
TEXT
5
49E
330
10E
100
AcDbEntity
8
TEXT-TITLE
100
AcDbText
10
64900
20
32063
30
0
40
260
1
ASSUMPTIONS
7
STANDARD
72
0
100
AcDbText
73
0
0
TEXT
5
49F
330
10E
100
AcDbEntity
8
TEXT-TITLE
100
AcDbText
10
82800
20
32063
30
0
40
240
1
\U+0627\U+0641\U+062A\U+0631\U+0627\U+0636\U+0627\U+062A
7
STANDARD
72
2
11
82800
21
32063
31
0
100
AcDbText
73
0
0
LINE
5
4A0
330
10E
100
AcDbEntity
8
NOTES
100
AcDbLine
10
64900
20
31943
30
0
11
82800
21
31943
31
0
0
MTEXT
5
4A1
330
10E
100
AcDbEntity
8
NOTES
100
AcDbMText
10
64900
20
31793
30
0
40
180
41
17800
71
1
72
1
1
A1. Bottom mesh not specified: T12@200 both ways assumed as bonded reinforcement in PT zones.
7
STANDARD
44
1
0
MTEXT
5
4A2
330
10E
100
AcDbEntity
8
NOTES
100
AcDbMText
10
64900
20
31453
30
0
40
180
41
17800
71
1
72
1
1
A2. Edge U-bars not specified: T12@200 with 1200 mm legs assumed at PT anchorage edges.
7
STANDARD
44
1
0
MTEXT
5
4A3
330
10E
100
AcDbEntity
8
NOTES
100
AcDbMText
10
64900
20
31113
30
0
40
180
41
17800
71
1
72
1
1
A3. Opening trimmers not specified: 2T16 T&B each side + 2T12 diagonals at corners assumed.
7
STANDARD
44
1
0
MTEXT
5
4A4
330
10E
100
AcDbEntity
8
NOTES
100
AcDbMText
10
64900
20
30773
30
0
40
180
41
17800
71
1
72
1
1
A4. Void trimmers not specified: 2T12 T&B each side assumed.
7
STANDARD
44
1
0
MTEXT
5
4A5
330
10E
100
AcDbEntity
8
NOTES
100
AcDbMText
10
64900
20
30433
30
0
40
180
41
17800
71
1
72
1
1
A5. Stock bar length 12 m; laps staggered so that not more than 50 % of bars lap at one section.
7
STANDARD
44
1
0
MTEXT
5
4A6
330
10E
100
AcDbEntity
8
NOTES
100
AcDbMText
10
64900
20
30093
30
0
40
180
41
17800
71
1
72
1
1
A6. U-bar edge zones not marked on the drawing: U-bars applied along the entire slab perimeter (PT anchorage zones).
7
STANDARD
44
1
0
TEXT
5
4A7
330
10E
100
AcDbEntity
8
TEXT-TITLE
100
AcDbText
10
64900
20
29403
30
0
40
260
1
CODE REFERENCE
7
STANDARD
72
0
100
AcDbText
73
0
0
TEXT
5
4A8
330
10E
100
AcDbEntity
8
TEXT-TITLE
100
AcDbText
10
82800
20
29403
30
0
40
240
1
\U+0627\U+0644\U+0645\U+0631\U+062C\U+0639 \U+0627\U+0644\U+0643\U+0648\U+062F\U+064A
7
STANDARD
72
2
11
82800
21
29403
31
0
100
AcDbText
73
0
0
LINE
5
4A9
330
10E
100
AcDbEntity
8
NOTES
100
AcDbLine
10
64900
20
29283
30
0
11
82800
21
29283
31
0
0
MTEXT
5
4AA
330
10E
100
AcDbEntity
8
NOTES
100
AcDbMText
10
64900
20
29133
30
0
40
190
41
17800
71
1
72
1
1
SBC 304-18 AS STATED ON THE STRUCTURAL DRAWINGS. DEVELOPMENT, ANCHORAGE AND LAP LENGTHS PER SBC 304-18 CHAPTER 25 (ACI 318-14 BASIS).
7
STANDARD
44
1
0
TEXT
5
4AB
330
10E
100
AcDbEntity
8
TEXT-TITLE
100
AcDbText
10
64900
20
28138.5
30
0
40
260
1
LEGEND
7
STANDARD
72
0
100
AcDbText
73
0
0
TEXT
5
4AC
330
10E
100
AcDbEntity
8
TEXT-TITLE
100
AcDbText
10
82800
20
28138.5
30
0
40
240
1
\U+0645\U+0641\U+062A\U+0627\U+062D \U+0627\U+0644\U+0631\U+0645\U+0648\U+0632
7
STANDARD
72
2
11
82800
21
28138.5
31
0
100
AcDbText
73
0
0
LINE
5
4AD
330
10E
100
AcDbEntity
8
NOTES
100
AcDbLine
10
64900
20
28018.5
30
0
11
82800
21
28018.5
31
0
0
LINE
5
4AE
330
10E
100
AcDbEntity
8
REBAR-U
370
50
100
AcDbLine
10
64900
20
27698.5
30
0
11
65700
21
27698.5
31
0
0
TEXT
5
4AF
330
10E
100
AcDbEntity
8
NOTES
100
AcDbText
10
65900
20
27648.5
30
0
40
180
1
U-BAR / RING BAR
7
STANDARD
72
0
100
AcDbText
73
0
0
LINE
5
4B0
330
10E
100
AcDbEntity
8
CALLOUT
100
AcDbLine
10
64900
20
27398.5
30
0
11
65700
21
27398.5
31
0
0
TEXT
5
4B1
330
10E
100
AcDbEntity
8
NOTES
100
AcDbText
10
65900
20
27348.5
30
0
40
180
1
EDGE / REGION ID
7
STANDARD
72
0
100
AcDbText
73
0
0
LINE
5
4B2
330
10E
100
AcDbEntity
8
OUTLINE
370
50
100
AcDbLine
10
64900
20
27098.5
30
0
11
65700
21
27098.5
31
0
0
TEXT
5
4B3
330
10E
100
AcDbEntity
8
NOTES
100
AcDbText
10
65900
20
27048.5
30
0
40
180
1
SLAB EDGE
7
STANDARD
72
0
100
AcDbText
73
0
0
LINE
5
4B4
330
10E
100
AcDbEntity
8
TITLE
100
AcDbLine
10
64600
20
11700
30
0
11
83100
21
11700
31
0
0
TEXT
5
4B5
330
10E
100
AcDbEntity
8
TEXT-TITLE
100
AcDbText
10
73850
20
12800
30
0
40
450
1
SPAN TECH CONTRACTING
7
STANDARD
72
1
11
73850
21
12800
31
0
100
AcDbText
73
2
0
TEXT
5
4B6
330
10E
100
AcDbEntity
8
TITLE
100
AcDbText
10
73850
20
12150
30
0
40
200
1
POST-TENSIONED SLABS \U+00B7 KSA \U+00B7 EGYPT \U+00B7 QATAR
7
STANDARD
72
1
11
73850
21
12150
31
0
100
AcDbText
73
2
0
LINE
5
4B7
330
10E
100
AcDbEntity
8
TITLE
100
AcDbLine
10
64600
20
10300
30
0
11
83100
21
10300
31
0
0
TEXT
5
4B8
330
10E
100
AcDbEntity
8
TITLE
100
AcDbText
10
64750
20
11380
30
0
40
160
1
PROJECT
7
STANDARD
72
0
100
AcDbText
73
0
0
TEXT
5
4B9
330
10E
100
AcDbEntity
8
TEXT-TITLE
100
AcDbText
10
64750
20
10960
30
0
40
300
1
PROPOSED MIXED-USE BUILDING
7
STANDARD
72
0
100
AcDbText
73
0
0
TEXT
5
4BA
330
10E
100
AcDbEntity
8
TITLE
100
AcDbText
10
64750
20
10450
30
0
40
180
1
CLIENT: DEMO CLIENT   LOCATION: RIYADH, KSA
7
STANDARD
72
0
100
AcDbText
73
0
0
LINE
5
4BB
330
10E
100
AcDbEntity
8
TITLE
100
AcDbLine
10
64600
20
8400
30
0
11
83100
21
8400
31
0
0
TEXT
5
4BC
330
10E
100
AcDbEntity
8
TITLE
100
AcDbText
10
64750
20
9980
30
0
40
160
1
DRAWING TITLE
7
STANDARD
72
0
100
AcDbText
73
0
0
TEXT
5
4BD
330
10E
100
AcDbEntity
8
TEXT-TITLE
100
AcDbText
10
64750
20
9500
30
0
40
320
1
REBAR - U-BARS AT SLAB EDGES AND
7
STANDARD
72
0
100
AcDbText
73
0
0
TEXT
5
4BE
330
10E
100
AcDbEntity
8
TEXT-TITLE
100
AcDbText
10
64750
20
9080
30
0
40
320
1
AROUND CIRCULAR REGIONS
7
STANDARD
72
0
100
AcDbText
73
0
0
TEXT
5
4BF
330
10E
100
AcDbEntity
8
TITLE
100
AcDbText
10
64750
20
8550
30
0
40
220
1
L02 - ROOF SLAB PLAN
7
STANDARD
72
0
100
AcDbText
73
0
0
LINE
5
4C0
330
10E
100
AcDbEntity
8
TITLE
100
AcDbLine
10
64600
20
7300
30
0
11
83100
21
7300
31
0
0
LINE
5
4C1
330
10E
100
AcDbEntity
8
TITLE
100
AcDbLine
10
73850
20
7300
30
0
11
73850
21
8400
31
0
0
LINE
5
4C2
330
10E
100
AcDbEntity
8
TITLE
100
AcDbLine
10
78475
20
7300
30
0
11
78475
21
8400
31
0
0
TEXT
5
4C3
330
10E
100
AcDbEntity
8
TITLE
100
AcDbText
10
64750
20
8080
30
0
40
160
1
DRAWING No.
7
STANDARD
72
0
100
AcDbText
73
0
0
TEXT
5
4C4
330
10E
100
AcDbEntity
8
TEXT-TITLE
100
AcDbText
10
64750
20
7640
30
0
40
320
1
ST-SD-L02-04
7
STANDARD
72
0
100
AcDbText
73
0
0
TEXT
5
4C5
330
10E
100
AcDbEntity
8
TITLE
100
AcDbText
10
74000
20
8080
30
0
40
160
1
REV.
7
STANDARD
72
0
100
AcDbText
73
0
0
TEXT
5
4C6
330
10E
100
AcDbEntity
8
TEXT-TITLE
100
AcDbText
10
74000
20
7640
30
0
40
320
1
00
7
STANDARD
72
0
100
AcDbText
73
0
0
TEXT
5
4C7
330
10E
100
AcDbEntity
8
TITLE
100
AcDbText
10
78625
20
8080
30
0
40
160
1
DATE
7
STANDARD
72
0
100
AcDbText
73
0
0
TEXT
5
4C8
330
10E
100
AcDbEntity
8
TEXT-TITLE
100
AcDbText
10
78625
20
7700
30
0
40
260
1
2026-09-26
7
STANDARD
72
0
100
AcDbText
73
0
0
LINE
5
4C9
330
10E
100
AcDbEntity
8
TITLE
100
AcDbLine
10
64600
20
6200
30
0
11
83100
21
6200
31
0
0
LINE
5
4CA
330
10E
100
AcDbEntity
8
TITLE
100
AcDbLine
10
70890
20
6200
30
0
11
70890
21
7300
31
0
0
LINE
5
4CB
330
10E
100
AcDbEntity
8
TITLE
100
AcDbLine
10
76810
20
6200
30
0
11
76810
21
7300
31
0
0
TEXT
5
4CC
330
10E
100
AcDbEntity
8
TITLE
100
AcDbText
10
64750
20
6980
30
0
40
160
1
SCALE
7
STANDARD
72
0
100
AcDbText
73
0
0
TEXT
5
4CD
330
10E
100
AcDbEntity
8
TEXT-TITLE
100
AcDbText
10
64750
20
6580
30
0
40
280
1
1:100 @ A1 (DETAILS AS NOTED)
7
STANDARD
72
0
100
AcDbText
73
0
0
TEXT
5
4CE
330
10E
100
AcDbEntity
8
TITLE
100
AcDbText
10
71040
20
6980
30
0
40
160
1
SHEET SIZE
7
STANDARD
72
0
100
AcDbText
73
0
0
TEXT
5
4CF
330
10E
100
AcDbEntity
8
TEXT-TITLE
100
AcDbText
10
71040
20
6580
30
0
40
280
1
A1
7
STANDARD
72
0
100
AcDbText
73
0
0
TEXT
5
4D0
330
10E
100
AcDbEntity
8
TITLE
100
AcDbText
10
76960
20
6980
30
0
40
160
1
SHEET
7
STANDARD
72
0
100
AcDbText
73
0
0
TEXT
5
4D1
330
10E
100
AcDbEntity
8
TEXT-TITLE
100
AcDbText
10
76960
20
6580
30
0
40
280
1
12 OF 15
7
STANDARD
72
0
100
AcDbText
73
0
0
LINE
5
4D2
330
10E
100
AcDbEntity
8
TITLE
100
AcDbLine
10
64600
20
4400
30
0
11
83100
21
4400
31
0
0
LINE
5
4D3
330
10E
100
AcDbEntity
8
TITLE
100
AcDbLine
10
70766.666667
20
4400
30
0
11
70766.666667
21
6200
31
0
0
LINE
5
4D4
330
10E
100
AcDbEntity
8
TITLE
100
AcDbLine
10
76933.333333
20
4400
30
0
11
76933.333333
21
6200
31
0
0
TEXT
5
4D5
330
10E
100
AcDbEntity
8
TITLE
100
AcDbText
10
64750
20
5880
30
0
40
160
1
PREPARED
7
STANDARD
72
0
100
AcDbText
73
0
0
TEXT
5
4D6
330
10E
100
AcDbEntity
8
TEXT-TITLE
100
AcDbText
10
64750
20
5350
30
0
40
220
1
SPAN TECH DESIGN OFFICE
7
STANDARD
72
0
100
AcDbText
73
0
0
TEXT
5
4D7
330
10E
100
AcDbEntity
8
TITLE
100
AcDbText
10
64750
20
4550
30
0
40
150
1
SIGN / DATE: ..........
7
STANDARD
72
0
100
AcDbText
73
0
0
TEXT
5
4D8
330
10E
100
AcDbEntity
8
TITLE
100
AcDbText
10
70916.666667
20
5880
30
0
40
160
1
CHECKED
7
STANDARD
72
0
100
AcDbText
73
0
0
TEXT
5
4D9
330
10E
100
AcDbEntity
8
TEXT-TITLE
100
AcDbText
10
70916.666667
20
5350
30
0
40
220
1

7
STANDARD
72
0
100
AcDbText
73
0
0
TEXT
5
4DA
330
10E
100
AcDbEntity
8
TITLE
100
AcDbText
10
70916.666667
20
4550
30
0
40
150
1
SIGN / DATE: ..........
7
STANDARD
72
0
100
AcDbText
73
0
0
TEXT
5
4DB
330
10E
100
AcDbEntity
8
TITLE
100
AcDbText
10
77083.333333
20
5880
30
0
40
160
1
APPROVED
7
STANDARD
72
0
100
AcDbText
73
0
0
TEXT
5
4DC
330
10E
100
AcDbEntity
8
TEXT-TITLE
100
AcDbText
10
77083.333333
20
5350
30
0
40
220
1

7
STANDARD
72
0
100
AcDbText
73
0
0
TEXT
5
4DD
330
10E
100
AcDbEntity
8
TITLE
100
AcDbText
10
77083.333333
20
4550
30
0
40
150
1
SIGN / DATE: ..........
7
STANDARD
72
0
100
AcDbText
73
0
0
LINE
5
4DE
330
10E
100
AcDbEntity
8
TITLE
100
AcDbLine
10
64600
20
3400
30
0
11
83100
21
3400
31
0
0
LINE
5
4DF
330
10E
100
AcDbEntity
8
TITLE
100
AcDbLine
10
73850
20
3400
30
0
11
73850
21
4400
31
0
0
TEXT
5
4E0
330
10E
100
AcDbEntity
8
TITLE
100
AcDbText
10
64750
20
4080
30
0
40
160
1
GRID REFERENCE
7
STANDARD
72
0
100
AcDbText
73
0
0
TEXT
5
4E1
330
10E
100
AcDbEntity
8
TEXT-TITLE
100
AcDbText
10
64750
20
3720
30
0
40
240
1
A-E / 1-4
7
STANDARD
72
0
100
AcDbText
73
0
0
TEXT
5
4E2
330
10E
100
AcDbEntity
8
TITLE
100
AcDbText
10
74000
20
4080
30
0
40
160
1
DRAWING INDEX
7
STANDARD
72
0
100
AcDbText
73
0
0
TEXT
5
4E3
330
10E
100
AcDbEntity
8
TEXT-TITLE
100
AcDbText
10
74000
20
3720
30
0
40
240
1
ST-SD-000
7
STANDARD
72
0
100
AcDbText
73
0
0
LINE
5
4E4
330
10E
100
AcDbEntity
8
TITLE
100
AcDbLine
10
64600
20
2400
30
0
11
83100
21
2400
31
0
0
LINE
5
4E5
330
10E
100
AcDbEntity
8
TITLE
100
AcDbLine
10
73850
20
2400
30
0
11
73850
21
3400
31
0
0
TEXT
5
4E6
330
10E
100
AcDbEntity
8
TITLE
100
AcDbText
10
64750
20
3080
30
0
40
160
1
CODE REFERENCE
7
STANDARD
72
0
100
AcDbText
73
0
0
TEXT
5
4E7
330
10E
100
AcDbEntity
8
TEXT-TITLE
100
AcDbText
10
64750
20
2740
30
0
40
220
1
SBC 304-18 (ON DRAWINGS)
7
STANDARD
72
0
100
AcDbText
73
0
0
TEXT
5
4E8
330
10E
100
AcDbEntity
8
TITLE
100
AcDbText
10
74000
20
3080
30
0
40
160
1
BLOCK / XREF NAME
7
STANDARD
72
0
100
AcDbText
73
0
0
TEXT
5
4E9
330
10E
100
AcDbEntity
8
TEXT-TITLE
100
AcDbText
10
74000
20
2790
30
0
40
170
1
FRAMING_REBAR_U_BARS_AROUND_REGIONS_L02
7
STANDARD
72
0
100
AcDbText
73
0
0
TEXT
5
4EA
330
10E
100
AcDbEntity
8
TEXT-TITLE
100
AcDbText
10
73850
20
1700
30
0
40
240
1
SHOP DRAWING - FOR CONSULTANT APPROVAL
7
STANDARD
72
1
11
73850
21
1700
31
0
100
AcDbText
73
2
0
LWPOLYLINE
5
4EB
330
10E
100
AcDbEntity
8
TITLE
370
50
100
AcDbPolyline
90
4
70
1
43
0
10
64600
20
1000
10
83100
20
1000
10
83100
20
13500
10
64600
20
13500
0
TEXT
5
4EC
330
10E
100
AcDbEntity
8
TEXT-TITLE
100
AcDbText
10
2600
20
13900
30
0
40
400
1
ROOF SLAB PLAN - REBAR - U-BARS AT SLAB EDGES AND AROUND CIRCULAR REGIONS
7
STANDARD
72
0
100
AcDbText
73
0
0
LINE
5
4ED
330
10E
100
AcDbEntity
8
TITLE
370
50
100
AcDbLine
10
2600
20
13750
30
0
11
25960
21
13750
31
0
0
TEXT
5
4EE
330
10E
100
AcDbEntity
8
TITLE
100
AcDbText
10
26360
20
13900
30
0
40
250
1
SCALE 1:100
7
STANDARD
72
0
100
AcDbText
73
0
0
ENDBLK
5
4EF
330
10E
100
AcDbEntity
8
0
100
AcDbBlockEnd
0
ENDSEC
0
SECTION
2
ENTITIES
0
INSERT
5
4F0
330
108
100
AcDbEntity
8
0
100
AcDbBlockReference
2
FRAMING_REBAR_U_BARS_AROUND_REGIONS_L02
10
0
20
0
30
0
41
1
42
1
43
1
50
0
0
ENDSEC
0
SECTION
2
OBJECTS
0
DICTIONARY
5
100
330
0
100
AcDbDictionary
281
1
3
ACAD_GROUP
350
101
3
ACAD_LAYOUT
350
104
3
ACAD_PLOTSTYLENAME
350
102
0
DICTIONARY
5
101
330
100
100
AcDbDictionary
281
1
0
ACDBDICTIONARYWDFLT
5
102
330
100
100
AcDbDictionary
281
1
3
Normal
350
103
100
AcDbDictionaryWithDefault
340
103
0
ACDBPLACEHOLDER
5
103
330
102
0
DICTIONARY
5
104
330
100
100
AcDbDictionary
281
1
3
Model
350
105
3
Layout1
350
106
0
LAYOUT
5
105
330
104
100
AcDbPlotSettings
1

2
none_device
4

6

40
0
41
0
42
0
43
0
44
0
45
0
46
0
47
0
48
0
49
0
140
0
141
0
142
1
143
1
70
1712
72
0
73
0
74
5
7

75
16
147
1
148
0
149
0
100
AcDbLayout
1
Model
70
1
71
0
10
0
20
0
11
12
21
9
12
0
22
0
32
0
14
0
24
0
34
0
15
0
25
0
35
0
146
0
13
0
23
0
33
0
16
1
26
0
36
0
17
0
27
1
37
0
76
0
330
108
0
LAYOUT
5
106
330
104
100
AcDbPlotSettings
1

2
none_device
4

6

40
0
41
0
42
0
43
0
44
0
45
0
46
0
47
0
48
0
49
0
140
0
141
0
142
1
143
1
70
688
72
0
73
0
74
5
7

75
16
147
1
148
0
149
0
100
AcDbLayout
1
Layout1
70
1
71
1
10
0
20
0
11
12
21
9
12
0
22
0
32
0
14
0
24
0
34
0
15
0
25
0
35
0
146
0
13
0
23
0
33
0
16
1
26
0
36
0
17
0
27
1
37
0
76
0
330
109
0
ENDSEC
0
EOF
