0
SECTION
2
HEADER
9
$ACADVER
1
AC1015
9
$DWGCODEPAGE
3
ANSI_1252
9
$INSBASE
10
0
20
0
30
0
9
$EXTMIN
10
-4200
20
-17600
30
0
9
$EXTMAX
10
77500
20
28200
30
0
9
$LIMMIN
10
0
20
0
9
$LIMMAX
10
77500
20
28200
9
$ORTHOMODE
70
0
9
$LTSCALE
40
100
9
$TEXTSIZE
40
2.5
9
$TEXTSTYLE
7
STANDARD
9
$CLAYER
8
0
9
$CELTYPE
6
BYLAYER
9
$CECOLOR
62
256
9
$DIMSTYLE
2
STANDARD
9
$INSUNITS
70
4
9
$MEASUREMENT
70
1
9
$PDMODE
70
0
9
$PSLTSCALE
70
1
9
$TILEMODE
70
1
9
$HANDSEED
5
1DD
0
ENDSEC
0
SECTION
2
CLASSES
0
ENDSEC
0
SECTION
2
TABLES
0
TABLE
2
VPORT
5
10F
330
0
100
AcDbSymbolTable
70
1
0
VPORT
5
110
330
10F
100
AcDbSymbolTableRecord
100
AcDbViewportTableRecord
2
*Active
70
0
10
0
20
0
11
1
21
1
12
36650
22
5300
13
0
23
0
14
10
24
10
15
10
25
10
16
0
26
0
36
1
17
0
27
0
37
0
40
50380
41
1.783843
42
50
43
0
44
0
50
0
51
0
71
0
72
1000
73
1
74
3
75
0
76
0
77
0
78
0
281
0
65
1
110
0
120
0
130
0
111
1
121
0
131
0
112
0
122
1
132
0
79
0
146
0
0
ENDTAB
0
TABLE
2
LTYPE
5
111
330
0
100
AcDbSymbolTable
70
8
0
LTYPE
5
112
330
111
100
AcDbSymbolTableRecord
100
AcDbLinetypeTableRecord
2
ByBlock
70
0
3

72
65
73
0
40
0
0
LTYPE
5
113
330
111
100
AcDbSymbolTableRecord
100
AcDbLinetypeTableRecord
2
ByLayer
70
0
3

72
65
73
0
40
0
0
LTYPE
5
114
330
111
100
AcDbSymbolTableRecord
100
AcDbLinetypeTableRecord
2
CONTINUOUS
70
0
3
Solid line
72
65
73
0
40
0
0
LTYPE
5
115
330
111
100
AcDbSymbolTableRecord
100
AcDbLinetypeTableRecord
2
DASHED
70
0
3
Dashed __ __ __
72
65
73
2
40
19.05
49
12.7
74
0
49
-6.35
74
0
0
LTYPE
5
116
330
111
100
AcDbSymbolTableRecord
100
AcDbLinetypeTableRecord
2
HIDDEN
70
0
3
Hidden __ __ __
72
65
73
2
40
9.525
49
6.35
74
0
49
-3.175
74
0
0
LTYPE
5
117
330
111
100
AcDbSymbolTableRecord
100
AcDbLinetypeTableRecord
2
CENTER
70
0
3
Center ____ _ ____ _
72
65
73
4
40
50.8
49
31.75
74
0
49
-6.35
74
0
49
6.35
74
0
49
-6.35
74
0
0
LTYPE
5
118
330
111
100
AcDbSymbolTableRecord
100
AcDbLinetypeTableRecord
2
DASHDOT
70
0
3
Dash dot __ . __ . __
72
65
73
4
40
25.4
49
12.7
74
0
49
-6.35
74
0
49
0
74
0
49
-6.35
74
0
0
LTYPE
5
119
330
111
100
AcDbSymbolTableRecord
100
AcDbLinetypeTableRecord
2
PHANTOM
70
0
3
Phantom ____ _ _ ____
72
65
73
6
40
63.5
49
31.75
74
0
49
-6.35
74
0
49
6.35
74
0
49
-6.35
74
0
49
6.35
74
0
49
-6.35
74
0
0
ENDTAB
0
TABLE
2
LAYER
5
11A
330
0
100
AcDbSymbolTable
70
44
0
LAYER
5
11B
330
11A
100
AcDbSymbolTableRecord
100
AcDbLayerTableRecord
2
0
70
0
62
7
6
CONTINUOUS
370
-3
390
103
0
LAYER
5
11C
330
11A
100
AcDbSymbolTableRecord
100
AcDbLayerTableRecord
2
FRAME
70
0
62
7
6
CONTINUOUS
370
50
390
103
0
LAYER
5
11D
330
11A
100
AcDbSymbolTableRecord
100
AcDbLayerTableRecord
2
TITLE
70
0
62
7
6
CONTINUOUS
370
25
390
103
0
LAYER
5
11E
330
11A
100
AcDbSymbolTableRecord
100
AcDbLayerTableRecord
2
TEXT
70
0
62
7
6
CONTINUOUS
370
-3
390
103
0
LAYER
5
11F
330
11A
100
AcDbSymbolTableRecord
100
AcDbLayerTableRecord
2
TEXT-TITLE
70
0
62
2
6
CONTINUOUS
370
-3
390
103
0
LAYER
5
120
330
11A
100
AcDbSymbolTableRecord
100
AcDbLayerTableRecord
2
NOTES
70
0
62
7
6
CONTINUOUS
370
-3
390
103
0
LAYER
5
121
330
11A
100
AcDbSymbolTableRecord
100
AcDbLayerTableRecord
2
GRID
70
0
62
8
6
CENTER
370
-3
390
103
0
LAYER
5
122
330
11A
100
AcDbSymbolTableRecord
100
AcDbLayerTableRecord
2
GRID-BUBBLE
70
0
62
8
6
CONTINUOUS
370
-3
390
103
0
LAYER
5
123
330
11A
100
AcDbSymbolTableRecord
100
AcDbLayerTableRecord
2
OUTLINE
70
0
62
4
6
CONTINUOUS
370
35
390
103
0
LAYER
5
124
330
11A
100
AcDbSymbolTableRecord
100
AcDbLayerTableRecord
2
COLUMN
70
0
62
5
6
CONTINUOUS
370
35
390
103
0
LAYER
5
125
330
11A
100
AcDbSymbolTableRecord
100
AcDbLayerTableRecord
2
COLUMN-HATCH
70
0
62
8
6
CONTINUOUS
370
-3
390
103
0
LAYER
5
126
330
11A
100
AcDbSymbolTableRecord
100
AcDbLayerTableRecord
2
OPENING
70
0
62
6
6
CONTINUOUS
370
-3
390
103
0
LAYER
5
127
330
11A
100
AcDbSymbolTableRecord
100
AcDbLayerTableRecord
2
OPENING-HATCH
70
0
62
6
6
CONTINUOUS
370
-3
390
103
0
LAYER
5
128
330
11A
100
AcDbSymbolTableRecord
100
AcDbLayerTableRecord
2
VOID
70
0
62
30
6
DASHED
370
-3
390
103
0
LAYER
5
129
330
11A
100
AcDbSymbolTableRecord
100
AcDbLayerTableRecord
2
VOID-HATCH
70
0
62
30
6
CONTINUOUS
370
-3
390
103
0
LAYER
5
12A
330
11A
100
AcDbSymbolTableRecord
100
AcDbLayerTableRecord
2
PT-ZONE
70
0
62
4
6
DASHDOT
370
-3
390
103
0
LAYER
5
12B
330
11A
100
AcDbSymbolTableRecord
100
AcDbLayerTableRecord
2
PT-TENDON
70
0
62
3
6
CONTINUOUS
370
-3
390
103
0
LAYER
5
12C
330
11A
100
AcDbSymbolTableRecord
100
AcDbLayerTableRecord
2
PT-HATCH
70
0
62
4
6
CONTINUOUS
370
-3
390
103
0
LAYER
5
12D
330
11A
100
AcDbSymbolTableRecord
100
AcDbLayerTableRecord
2
REBAR-BOT
70
0
62
1
6
CONTINUOUS
370
50
390
103
0
LAYER
5
12E
330
11A
100
AcDbSymbolTableRecord
100
AcDbLayerTableRecord
2
REBAR-TOP
70
0
62
5
6
CONTINUOUS
370
50
390
103
0
LAYER
5
12F
330
11A
100
AcDbSymbolTableRecord
100
AcDbLayerTableRecord
2
REBAR-U
70
0
62
6
6
CONTINUOUS
370
50
390
103
0
LAYER
5
130
330
11A
100
AcDbSymbolTableRecord
100
AcDbLayerTableRecord
2
REBAR-TRIM
70
0
62
2
6
CONTINUOUS
370
50
390
103
0
LAYER
5
131
330
11A
100
AcDbSymbolTableRecord
100
AcDbLayerTableRecord
2
REBAR-EXTENT
70
0
62
1
6
CONTINUOUS
370
-3
390
103
0
LAYER
5
132
330
11A
100
AcDbSymbolTableRecord
100
AcDbLayerTableRecord
2
REBAR-TEXT
70
0
62
1
6
CONTINUOUS
370
-3
390
103
0
LAYER
5
133
330
11A
100
AcDbSymbolTableRecord
100
AcDbLayerTableRecord
2
CALLOUT
70
0
62
3
6
CONTINUOUS
370
-3
390
103
0
LAYER
5
134
330
11A
100
AcDbSymbolTableRecord
100
AcDbLayerTableRecord
2
DIM
70
0
62
8
6
CONTINUOUS
370
-3
390
103
0
LAYER
5
135
330
11A
100
AcDbSymbolTableRecord
100
AcDbLayerTableRecord
2
DETAIL
70
0
62
7
6
CONTINUOUS
370
-3
390
103
0
LAYER
5
136
330
11A
100
AcDbSymbolTableRecord
100
AcDbLayerTableRecord
2
DETAIL-HATCH
70
0
62
8
6
CONTINUOUS
370
-3
390
103
0
LAYER
5
137
330
11A
100
AcDbSymbolTableRecord
100
AcDbLayerTableRecord
2
SCHEDULE
70
0
62
7
6
CONTINUOUS
370
-3
390
103
0
LAYER
5
138
330
11A
100
AcDbSymbolTableRecord
100
AcDbLayerTableRecord
2
SCHEDULE-TEXT
70
0
62
7
6
CONTINUOUS
370
-3
390
103
0
LAYER
5
139
330
11A
100
AcDbSymbolTableRecord
100
AcDbLayerTableRecord
2
HATCH
70
0
62
8
6
CONTINUOUS
370
-3
390
103
0
LAYER
5
13A
330
11A
100
AcDbSymbolTableRecord
100
AcDbLayerTableRecord
2
CABLE
70
0
62
3
6
CONTINUOUS
370
50
390
103
0
LAYER
5
13B
330
11A
100
AcDbSymbolTableRecord
100
AcDbLayerTableRecord
2
CABLE-TEXT
70
0
62
3
6
CONTINUOUS
370
-3
390
103
0
LAYER
5
13C
330
11A
100
AcDbSymbolTableRecord
100
AcDbLayerTableRecord
2
XREF
70
0
62
7
6
CONTINUOUS
370
-3
390
103
0
LAYER
5
13D
330
11A
100
AcDbSymbolTableRecord
100
AcDbLayerTableRecord
2
S-GRID
70
0
62
8
6
CENTER
370
-3
390
103
0
LAYER
5
13E
330
11A
100
AcDbSymbolTableRecord
100
AcDbLayerTableRecord
2
S-COLS
70
0
62
5
6
CONTINUOUS
370
-3
390
103
0
LAYER
5
13F
330
11A
100
AcDbSymbolTableRecord
100
AcDbLayerTableRecord
2
S-COLS-HATCH
70
0
62
8
6
CONTINUOUS
370
-3
390
103
0
LAYER
5
140
330
11A
100
AcDbSymbolTableRecord
100
AcDbLayerTableRecord
2
S-SLAB-EDGE
70
0
62
4
6
CONTINUOUS
370
35
390
103
0
LAYER
5
141
330
11A
100
AcDbSymbolTableRecord
100
AcDbLayerTableRecord
2
S-PT-ZONE
70
0
62
4
6
DASHDOT
370
-3
390
103
0
LAYER
5
142
330
11A
100
AcDbSymbolTableRecord
100
AcDbLayerTableRecord
2
S-OPENINGS
70
0
62
6
6
CONTINUOUS
370
-3
390
103
0
LAYER
5
143
330
11A
100
AcDbSymbolTableRecord
100
AcDbLayerTableRecord
2
S-VOIDS
70
0
62
30
6
DASHED
370
-3
390
103
0
LAYER
5
144
330
11A
100
AcDbSymbolTableRecord
100
AcDbLayerTableRecord
2
S-UBAR
70
0
62
6
6
CONTINUOUS
370
-3
390
103
0
LAYER
5
145
330
11A
100
AcDbSymbolTableRecord
100
AcDbLayerTableRecord
2
S-TEXT
70
0
62
7
6
CONTINUOUS
370
-3
390
103
0
LAYER
5
146
330
11A
100
AcDbSymbolTableRecord
100
AcDbLayerTableRecord
2
S-NOTES
70
0
62
7
6
CONTINUOUS
370
-3
390
103
0
ENDTAB
0
TABLE
2
STYLE
5
147
330
0
100
AcDbSymbolTable
70
1
0
STYLE
5
148
330
147
100
AcDbSymbolTableRecord
100
AcDbTextStyleTableRecord
2
STANDARD
70
0
40
0
41
1
50
0
71
0
42
2.5
3
arial.ttf
4

0
ENDTAB
0
TABLE
2
VIEW
5
149
330
0
100
AcDbSymbolTable
70
0
0
ENDTAB
0
TABLE
2
UCS
5
14A
330
0
100
AcDbSymbolTable
70
0
0
ENDTAB
0
TABLE
2
APPID
5
14B
330
0
100
AcDbSymbolTable
70
1
0
APPID
5
14C
330
14B
100
AcDbSymbolTableRecord
100
AcDbRegAppTableRecord
2
ACAD
70
0
0
ENDTAB
0
TABLE
2
DIMSTYLE
5
14D
330
0
100
AcDbSymbolTable
70
1
100
AcDbDimStyleTable
0
DIMSTYLE
105
14E
330
14D
100
AcDbSymbolTableRecord
100
AcDbDimStyleTableRecord
2
STANDARD
70
0
40
1
41
2.5
42
0.625
43
3.75
44
1.25
140
2.5
141
2.5
147
0.625
0
ENDTAB
0
TABLE
2
BLOCK_RECORD
5
107
330
0
100
AcDbSymbolTable
70
3
0
BLOCK_RECORD
5
108
330
107
100
AcDbSymbolTableRecord
100
AcDbBlockTableRecord
2
*Model_Space
340
105
0
BLOCK_RECORD
5
109
330
107
100
AcDbSymbolTableRecord
100
AcDbBlockTableRecord
2
*Paper_Space
340
106
0
BLOCK_RECORD
5
10E
330
107
100
AcDbSymbolTableRecord
100
AcDbBlockTableRecord
2
COL600
340
0
0
ENDTAB
0
ENDSEC
0
SECTION
2
BLOCKS
0
BLOCK
5
10A
330
108
100
AcDbEntity
8
0
100
AcDbBlockBegin
2
*Model_Space
70
0
10
0
20
0
30
0
3
*Model_Space
1

0
ENDBLK
5
10B
330
108
100
AcDbEntity
8
0
100
AcDbBlockEnd
0
BLOCK
5
10C
330
109
100
AcDbEntity
67
1
8
0
100
AcDbBlockBegin
2
*Paper_Space
70
0
10
0
20
0
30
0
3
*Paper_Space
1

0
ENDBLK
5
10D
330
109
100
AcDbEntity
67
1
8
0
100
AcDbBlockEnd
0
BLOCK
5
14F
330
10E
100
AcDbEntity
8
0
100
AcDbBlockBegin
2
COL600
70
0
10
0
20
0
30
0
3
COL600
1

0
LWPOLYLINE
5
150
330
10E
100
AcDbEntity
8
S-COLS
100
AcDbPolyline
90
4
70
1
43
0
10
-300
20
-300
10
300
20
-300
10
300
20
300
10
-300
20
300
0
HATCH
5
151
330
10E
100
AcDbEntity
8
S-COLS-HATCH
100
AcDbHatch
10
0
20
0
30
0
210
0
220
0
230
1
2
ANSI31
70
0
71
0
91
1
92
3
72
0
73
1
93
4
10
-300
20
-300
10
300
20
-300
10
300
20
300
10
-300
20
300
97
0
75
1
76
1
52
0
41
25
77
0
78
1
53
45
43
0
44
0
45
-56.126601
46
56.126601
79
0
47
1
98
0
0
ENDBLK
5
152
330
10E
100
AcDbEntity
8
0
100
AcDbBlockEnd
0
ENDSEC
0
SECTION
2
ENTITIES
0
LINE
5
153
330
108
100
AcDbEntity
8
S-GRID
100
AcDbLine
10
0
20
-2500
30
0
11
0
21
26500
31
0
0
CIRCLE
5
154
330
108
100
AcDbEntity
8
S-GRID
100
AcDbCircle
10
0
20
27500
30
0
40
700
0
TEXT
5
155
330
108
100
AcDbEntity
8
S-TEXT
100
AcDbText
10
0
20
27500
30
0
40
600
1
A
7
STANDARD
72
1
11
0
21
27500
31
0
100
AcDbText
73
2
0
LINE
5
156
330
108
100
AcDbEntity
8
S-GRID
100
AcDbLine
10
7500
20
-2500
30
0
11
7500
21
26500
31
0
0
CIRCLE
5
157
330
108
100
AcDbEntity
8
S-GRID
100
AcDbCircle
10
7500
20
27500
30
0
40
700
0
TEXT
5
158
330
108
100
AcDbEntity
8
S-TEXT
100
AcDbText
10
7500
20
27500
30
0
40
600
1
B
7
STANDARD
72
1
11
7500
21
27500
31
0
100
AcDbText
73
2
0
LINE
5
159
330
108
100
AcDbEntity
8
S-GRID
100
AcDbLine
10
15000
20
-2500
30
0
11
15000
21
26500
31
0
0
CIRCLE
5
15A
330
108
100
AcDbEntity
8
S-GRID
100
AcDbCircle
10
15000
20
27500
30
0
40
700
0
TEXT
5
15B
330
108
100
AcDbEntity
8
S-TEXT
100
AcDbText
10
15000
20
27500
30
0
40
600
1
C
7
STANDARD
72
1
11
15000
21
27500
31
0
100
AcDbText
73
2
0
LINE
5
15C
330
108
100
AcDbEntity
8
S-GRID
100
AcDbLine
10
22500
20
-2500
30
0
11
22500
21
26500
31
0
0
CIRCLE
5
15D
330
108
100
AcDbEntity
8
S-GRID
100
AcDbCircle
10
22500
20
27500
30
0
40
700
0
TEXT
5
15E
330
108
100
AcDbEntity
8
S-TEXT
100
AcDbText
10
22500
20
27500
30
0
40
600
1
D
7
STANDARD
72
1
11
22500
21
27500
31
0
100
AcDbText
73
2
0
LINE
5
15F
330
108
100
AcDbEntity
8
S-GRID
100
AcDbLine
10
30000
20
-2500
30
0
11
30000
21
26500
31
0
0
CIRCLE
5
160
330
108
100
AcDbEntity
8
S-GRID
100
AcDbCircle
10
30000
20
27500
30
0
40
700
0
TEXT
5
161
330
108
100
AcDbEntity
8
S-TEXT
100
AcDbText
10
30000
20
27500
30
0
40
600
1
E
7
STANDARD
72
1
11
30000
21
27500
31
0
100
AcDbText
73
2
0
LINE
5
162
330
108
100
AcDbEntity
8
S-GRID
100
AcDbLine
10
-2500
20
0
30
0
11
32500
21
0
31
0
0
CIRCLE
5
163
330
108
100
AcDbEntity
8
S-GRID
100
AcDbCircle
10
-3500
20
0
30
0
40
700
0
TEXT
5
164
330
108
100
AcDbEntity
8
S-TEXT
100
AcDbText
10
-3500
20
0
30
0
40
600
1
1
7
STANDARD
72
1
11
-3500
21
0
31
0
100
AcDbText
73
2
0
LINE
5
165
330
108
100
AcDbEntity
8
S-GRID
100
AcDbLine
10
-2500
20
8000
30
0
11
32500
21
8000
31
0
0
CIRCLE
5
166
330
108
100
AcDbEntity
8
S-GRID
100
AcDbCircle
10
-3500
20
8000
30
0
40
700
0
TEXT
5
167
330
108
100
AcDbEntity
8
S-TEXT
100
AcDbText
10
-3500
20
8000
30
0
40
600
1
2
7
STANDARD
72
1
11
-3500
21
8000
31
0
100
AcDbText
73
2
0
LINE
5
168
330
108
100
AcDbEntity
8
S-GRID
100
AcDbLine
10
-2500
20
16000
30
0
11
32500
21
16000
31
0
0
CIRCLE
5
169
330
108
100
AcDbEntity
8
S-GRID
100
AcDbCircle
10
-3500
20
16000
30
0
40
700
0
TEXT
5
16A
330
108
100
AcDbEntity
8
S-TEXT
100
AcDbText
10
-3500
20
16000
30
0
40
600
1
3
7
STANDARD
72
1
11
-3500
21
16000
31
0
100
AcDbText
73
2
0
LINE
5
16B
330
108
100
AcDbEntity
8
S-GRID
100
AcDbLine
10
-2500
20
24000
30
0
11
32500
21
24000
31
0
0
CIRCLE
5
16C
330
108
100
AcDbEntity
8
S-GRID
100
AcDbCircle
10
-3500
20
24000
30
0
40
700
0
TEXT
5
16D
330
108
100
AcDbEntity
8
S-TEXT
100
AcDbText
10
-3500
20
24000
30
0
40
600
1
4
7
STANDARD
72
1
11
-3500
21
24000
31
0
100
AcDbText
73
2
0
LWPOLYLINE
5
16E
330
108
100
AcDbEntity
8
S-SLAB-EDGE
100
AcDbPolyline
90
6
70
1
43
0
10
-1500
20
-1000
10
31000
20
-1000
10
31000
20
20000
10
26000
20
20000
10
26000
20
25000
10
-1500
20
25000
0
INSERT
5
16F
330
108
100
AcDbEntity
8
0
100
AcDbBlockReference
2
COL600
10
0
20
0
30
0
41
1
42
1
43
1
50
0
0
INSERT
5
170
330
108
100
AcDbEntity
8
0
100
AcDbBlockReference
2
COL600
10
0
20
8000
30
0
41
1
42
1
43
1
50
0
0
INSERT
5
171
330
108
100
AcDbEntity
8
0
100
AcDbBlockReference
2
COL600
10
0
20
16000
30
0
41
1
42
1
43
1
50
0
0
INSERT
5
172
330
108
100
AcDbEntity
8
0
100
AcDbBlockReference
2
COL600
10
0
20
24000
30
0
41
1
42
1
43
1
50
0
0
INSERT
5
173
330
108
100
AcDbEntity
8
0
100
AcDbBlockReference
2
COL600
10
7500
20
0
30
0
41
1
42
1
43
1
50
0
0
INSERT
5
174
330
108
100
AcDbEntity
8
0
100
AcDbBlockReference
2
COL600
10
7500
20
8000
30
0
41
1
42
1
43
1
50
0
0
INSERT
5
175
330
108
100
AcDbEntity
8
0
100
AcDbBlockReference
2
COL600
10
7500
20
16000
30
0
41
1
42
1
43
1
50
0
0
INSERT
5
176
330
108
100
AcDbEntity
8
0
100
AcDbBlockReference
2
COL600
10
7500
20
24000
30
0
41
1
42
1
43
1
50
0
0
INSERT
5
177
330
108
100
AcDbEntity
8
0
100
AcDbBlockReference
2
COL600
10
15000
20
0
30
0
41
1
42
1
43
1
50
0
0
INSERT
5
178
330
108
100
AcDbEntity
8
0
100
AcDbBlockReference
2
COL600
10
15000
20
8000
30
0
41
1
42
1
43
1
50
0
0
INSERT
5
179
330
108
100
AcDbEntity
8
0
100
AcDbBlockReference
2
COL600
10
15000
20
16000
30
0
41
1
42
1
43
1
50
0
0
INSERT
5
17A
330
108
100
AcDbEntity
8
0
100
AcDbBlockReference
2
COL600
10
15000
20
24000
30
0
41
1
42
1
43
1
50
0
0
INSERT
5
17B
330
108
100
AcDbEntity
8
0
100
AcDbBlockReference
2
COL600
10
22500
20
0
30
0
41
1
42
1
43
1
50
0
0
INSERT
5
17C
330
108
100
AcDbEntity
8
0
100
AcDbBlockReference
2
COL600
10
22500
20
8000
30
0
41
1
42
1
43
1
50
0
0
INSERT
5
17D
330
108
100
AcDbEntity
8
0
100
AcDbBlockReference
2
COL600
10
22500
20
16000
30
0
41
1
42
1
43
1
50
0
0
INSERT
5
17E
330
108
100
AcDbEntity
8
0
100
AcDbBlockReference
2
COL600
10
22500
20
24000
30
0
41
1
42
1
43
1
50
0
0
INSERT
5
17F
330
108
100
AcDbEntity
8
0
100
AcDbBlockReference
2
COL600
10
30000
20
0
30
0
41
1
42
1
43
1
50
0
0
INSERT
5
180
330
108
100
AcDbEntity
8
0
100
AcDbBlockReference
2
COL600
10
30000
20
8000
30
0
41
1
42
1
43
1
50
0
0
INSERT
5
181
330
108
100
AcDbEntity
8
0
100
AcDbBlockReference
2
COL600
10
30000
20
16000
30
0
41
1
42
1
43
1
50
0
0
LWPOLYLINE
5
182
330
108
100
AcDbEntity
8
S-PT-ZONE
100
AcDbPolyline
90
6
70
1
43
0
10
-1500
20
-1000
10
31000
20
-1000
10
31000
20
20000
10
26000
20
20000
10
26000
20
25000
10
-1500
20
25000
0
LWPOLYLINE
5
183
330
108
100
AcDbEntity
8
S-OPENINGS
100
AcDbPolyline
90
4
70
1
43
0
10
9500
20
9500
10
12500
20
9500
10
12500
20
14500
10
9500
20
14500
0
LINE
5
184
330
108
100
AcDbEntity
8
S-OPENINGS
100
AcDbLine
10
9500
20
9500
30
0
11
12500
21
14500
31
0
0
LINE
5
185
330
108
100
AcDbEntity
8
S-OPENINGS
100
AcDbLine
10
12500
20
9500
30
0
11
9500
21
14500
31
0
0
TEXT
5
186
330
108
100
AcDbEntity
8
S-TEXT
100
AcDbText
10
11000
20
12400
30
0
40
300
1
STAIR OPENING
7
STANDARD
72
1
11
11000
21
12400
31
0
100
AcDbText
73
0
0
LWPOLYLINE
5
187
330
108
100
AcDbEntity
8
S-OPENINGS
100
AcDbPolyline
90
4
70
1
43
0
10
17500
20
3000
10
19300
20
3000
10
19300
20
4500
10
17500
20
4500
0
LINE
5
188
330
108
100
AcDbEntity
8
S-OPENINGS
100
AcDbLine
10
17500
20
3000
30
0
11
19300
21
4500
31
0
0
LINE
5
189
330
108
100
AcDbEntity
8
S-OPENINGS
100
AcDbLine
10
19300
20
3000
30
0
11
17500
21
4500
31
0
0
TEXT
5
18A
330
108
100
AcDbEntity
8
S-TEXT
100
AcDbText
10
18400
20
4150
30
0
40
300
1
SHAFT
7
STANDARD
72
1
11
18400
21
4150
31
0
100
AcDbText
73
0
0
LWPOLYLINE
5
18B
330
108
100
AcDbEntity
8
S-VOIDS
100
AcDbPolyline
90
4
70
1
43
0
10
2000
20
2000
10
6000
20
2000
10
6000
20
5000
10
2000
20
5000
0
TEXT
5
18C
330
108
100
AcDbEntity
8
S-TEXT
100
AcDbText
10
4000
20
3500
30
0
40
300
1
VOID
7
STANDARD
72
1
11
4000
21
3500
31
0
100
AcDbText
73
2
0
LWPOLYLINE
5
18D
330
108
100
AcDbEntity
8
S-VOIDS
100
AcDbPolyline
90
4
70
1
43
0
10
17000
20
18000
10
22000
20
18000
10
22000
20
21500
10
17000
20
21500
0
TEXT
5
18E
330
108
100
AcDbEntity
8
S-TEXT
100
AcDbText
10
19500
20
19750
30
0
40
300
1
VOID
7
STANDARD
72
1
11
19500
21
19750
31
0
100
AcDbText
73
2
0
CIRCLE
5
18F
330
108
100
AcDbEntity
8
S-UBAR
100
AcDbCircle
10
3750
20
20000
30
0
40
1000
0
TEXT
5
190
330
108
100
AcDbEntity
8
S-TEXT
100
AcDbText
10
3750
20
21300
30
0
40
250
1
U-BARS
7
STANDARD
72
1
11
3750
21
21300
31
0
100
AcDbText
73
0
0
TEXT
5
191
330
108
100
AcDbEntity
8
S-TEXT
100
AcDbText
10
15000
20
-6000
30
0
40
900
1
FIRST FLOOR SLAB PLAN
7
STANDARD
72
1
11
15000
21
-6000
31
0
100
AcDbText
73
0
0
TEXT
5
192
330
108
100
AcDbEntity
8
S-TEXT
100
AcDbText
10
15000
20
-7500
30
0
40
450
1
SCALE 1:100 - SLAB THK 250 mm
7
STANDARD
72
1
11
15000
21
-7500
31
0
100
AcDbText
73
0
0
LINE
5
193
330
108
100
AcDbEntity
8
S-GRID
100
AcDbLine
10
45000
20
-2500
30
0
11
45000
21
26500
31
0
0
CIRCLE
5
194
330
108
100
AcDbEntity
8
S-GRID
100
AcDbCircle
10
45000
20
27500
30
0
40
700
0
TEXT
5
195
330
108
100
AcDbEntity
8
S-TEXT
100
AcDbText
10
45000
20
27500
30
0
40
600
1
A
7
STANDARD
72
1
11
45000
21
27500
31
0
100
AcDbText
73
2
0
LINE
5
196
330
108
100
AcDbEntity
8
S-GRID
100
AcDbLine
10
52500
20
-2500
30
0
11
52500
21
26500
31
0
0
CIRCLE
5
197
330
108
100
AcDbEntity
8
S-GRID
100
AcDbCircle
10
52500
20
27500
30
0
40
700
0
TEXT
5
198
330
108
100
AcDbEntity
8
S-TEXT
100
AcDbText
10
52500
20
27500
30
0
40
600
1
B
7
STANDARD
72
1
11
52500
21
27500
31
0
100
AcDbText
73
2
0
LINE
5
199
330
108
100
AcDbEntity
8
S-GRID
100
AcDbLine
10
60000
20
-2500
30
0
11
60000
21
26500
31
0
0
CIRCLE
5
19A
330
108
100
AcDbEntity
8
S-GRID
100
AcDbCircle
10
60000
20
27500
30
0
40
700
0
TEXT
5
19B
330
108
100
AcDbEntity
8
S-TEXT
100
AcDbText
10
60000
20
27500
30
0
40
600
1
C
7
STANDARD
72
1
11
60000
21
27500
31
0
100
AcDbText
73
2
0
LINE
5
19C
330
108
100
AcDbEntity
8
S-GRID
100
AcDbLine
10
67500
20
-2500
30
0
11
67500
21
26500
31
0
0
CIRCLE
5
19D
330
108
100
AcDbEntity
8
S-GRID
100
AcDbCircle
10
67500
20
27500
30
0
40
700
0
TEXT
5
19E
330
108
100
AcDbEntity
8
S-TEXT
100
AcDbText
10
67500
20
27500
30
0
40
600
1
D
7
STANDARD
72
1
11
67500
21
27500
31
0
100
AcDbText
73
2
0
LINE
5
19F
330
108
100
AcDbEntity
8
S-GRID
100
AcDbLine
10
75000
20
-2500
30
0
11
75000
21
26500
31
0
0
CIRCLE
5
1A0
330
108
100
AcDbEntity
8
S-GRID
100
AcDbCircle
10
75000
20
27500
30
0
40
700
0
TEXT
5
1A1
330
108
100
AcDbEntity
8
S-TEXT
100
AcDbText
10
75000
20
27500
30
0
40
600
1
E
7
STANDARD
72
1
11
75000
21
27500
31
0
100
AcDbText
73
2
0
LINE
5
1A2
330
108
100
AcDbEntity
8
S-GRID
100
AcDbLine
10
42500
20
0
30
0
11
77500
21
0
31
0
0
CIRCLE
5
1A3
330
108
100
AcDbEntity
8
S-GRID
100
AcDbCircle
10
41500
20
0
30
0
40
700
0
TEXT
5
1A4
330
108
100
AcDbEntity
8
S-TEXT
100
AcDbText
10
41500
20
0
30
0
40
600
1
1
7
STANDARD
72
1
11
41500
21
0
31
0
100
AcDbText
73
2
0
LINE
5
1A5
330
108
100
AcDbEntity
8
S-GRID
100
AcDbLine
10
42500
20
8000
30
0
11
77500
21
8000
31
0
0
CIRCLE
5
1A6
330
108
100
AcDbEntity
8
S-GRID
100
AcDbCircle
10
41500
20
8000
30
0
40
700
0
TEXT
5
1A7
330
108
100
AcDbEntity
8
S-TEXT
100
AcDbText
10
41500
20
8000
30
0
40
600
1
2
7
STANDARD
72
1
11
41500
21
8000
31
0
100
AcDbText
73
2
0
LINE
5
1A8
330
108
100
AcDbEntity
8
S-GRID
100
AcDbLine
10
42500
20
16000
30
0
11
77500
21
16000
31
0
0
CIRCLE
5
1A9
330
108
100
AcDbEntity
8
S-GRID
100
AcDbCircle
10
41500
20
16000
30
0
40
700
0
TEXT
5
1AA
330
108
100
AcDbEntity
8
S-TEXT
100
AcDbText
10
41500
20
16000
30
0
40
600
1
3
7
STANDARD
72
1
11
41500
21
16000
31
0
100
AcDbText
73
2
0
LINE
5
1AB
330
108
100
AcDbEntity
8
S-GRID
100
AcDbLine
10
42500
20
24000
30
0
11
77500
21
24000
31
0
0
CIRCLE
5
1AC
330
108
100
AcDbEntity
8
S-GRID
100
AcDbCircle
10
41500
20
24000
30
0
40
700
0
TEXT
5
1AD
330
108
100
AcDbEntity
8
S-TEXT
100
AcDbText
10
41500
20
24000
30
0
40
600
1
4
7
STANDARD
72
1
11
41500
21
24000
31
0
100
AcDbText
73
2
0
LWPOLYLINE
5
1AE
330
108
100
AcDbEntity
8
S-SLAB-EDGE
100
AcDbPolyline
90
4
70
1
43
0
10
43500
20
-1000
10
76000
20
-1000
10
76000
20
25000
10
43500
20
25000
0
INSERT
5
1AF
330
108
100
AcDbEntity
8
0
100
AcDbBlockReference
2
COL600
10
45000
20
0
30
0
41
1
42
1
43
1
50
0
0
INSERT
5
1B0
330
108
100
AcDbEntity
8
0
100
AcDbBlockReference
2
COL600
10
45000
20
8000
30
0
41
1
42
1
43
1
50
0
0
INSERT
5
1B1
330
108
100
AcDbEntity
8
0
100
AcDbBlockReference
2
COL600
10
45000
20
16000
30
0
41
1
42
1
43
1
50
0
0
INSERT
5
1B2
330
108
100
AcDbEntity
8
0
100
AcDbBlockReference
2
COL600
10
45000
20
24000
30
0
41
1
42
1
43
1
50
0
0
INSERT
5
1B3
330
108
100
AcDbEntity
8
0
100
AcDbBlockReference
2
COL600
10
52500
20
0
30
0
41
1
42
1
43
1
50
0
0
INSERT
5
1B4
330
108
100
AcDbEntity
8
0
100
AcDbBlockReference
2
COL600
10
52500
20
8000
30
0
41
1
42
1
43
1
50
0
0
INSERT
5
1B5
330
108
100
AcDbEntity
8
0
100
AcDbBlockReference
2
COL600
10
52500
20
16000
30
0
41
1
42
1
43
1
50
0
0
INSERT
5
1B6
330
108
100
AcDbEntity
8
0
100
AcDbBlockReference
2
COL600
10
52500
20
24000
30
0
41
1
42
1
43
1
50
0
0
INSERT
5
1B7
330
108
100
AcDbEntity
8
0
100
AcDbBlockReference
2
COL600
10
60000
20
0
30
0
41
1
42
1
43
1
50
0
0
INSERT
5
1B8
330
108
100
AcDbEntity
8
0
100
AcDbBlockReference
2
COL600
10
60000
20
8000
30
0
41
1
42
1
43
1
50
0
0
INSERT
5
1B9
330
108
100
AcDbEntity
8
0
100
AcDbBlockReference
2
COL600
10
60000
20
16000
30
0
41
1
42
1
43
1
50
0
0
INSERT
5
1BA
330
108
100
AcDbEntity
8
0
100
AcDbBlockReference
2
COL600
10
60000
20
24000
30
0
41
1
42
1
43
1
50
0
0
INSERT
5
1BB
330
108
100
AcDbEntity
8
0
100
AcDbBlockReference
2
COL600
10
67500
20
0
30
0
41
1
42
1
43
1
50
0
0
INSERT
5
1BC
330
108
100
AcDbEntity
8
0
100
AcDbBlockReference
2
COL600
10
67500
20
8000
30
0
41
1
42
1
43
1
50
0
0
INSERT
5
1BD
330
108
100
AcDbEntity
8
0
100
AcDbBlockReference
2
COL600
10
67500
20
16000
30
0
41
1
42
1
43
1
50
0
0
INSERT
5
1BE
330
108
100
AcDbEntity
8
0
100
AcDbBlockReference
2
COL600
10
67500
20
24000
30
0
41
1
42
1
43
1
50
0
0
INSERT
5
1BF
330
108
100
AcDbEntity
8
0
100
AcDbBlockReference
2
COL600
10
75000
20
0
30
0
41
1
42
1
43
1
50
0
0
INSERT
5
1C0
330
108
100
AcDbEntity
8
0
100
AcDbBlockReference
2
COL600
10
75000
20
8000
30
0
41
1
42
1
43
1
50
0
0
INSERT
5
1C1
330
108
100
AcDbEntity
8
0
100
AcDbBlockReference
2
COL600
10
75000
20
16000
30
0
41
1
42
1
43
1
50
0
0
INSERT
5
1C2
330
108
100
AcDbEntity
8
0
100
AcDbBlockReference
2
COL600
10
75000
20
24000
30
0
41
1
42
1
43
1
50
0
0
LWPOLYLINE
5
1C3
330
108
100
AcDbEntity
8
S-PT-ZONE
100
AcDbPolyline
90
4
70
1
43
0
10
43500
20
-1000
10
76000
20
-1000
10
76000
20
25000
10
43500
20
25000
0
LWPOLYLINE
5
1C4
330
108
100
AcDbEntity
8
S-OPENINGS
100
AcDbPolyline
90
4
70
1
43
0
10
54500
20
9500
10
57500
20
9500
10
57500
20
14500
10
54500
20
14500
0
LINE
5
1C5
330
108
100
AcDbEntity
8
S-OPENINGS
100
AcDbLine
10
54500
20
9500
30
0
11
57500
21
14500
31
0
0
LINE
5
1C6
330
108
100
AcDbEntity
8
S-OPENINGS
100
AcDbLine
10
57500
20
9500
30
0
11
54500
21
14500
31
0
0
TEXT
5
1C7
330
108
100
AcDbEntity
8
S-TEXT
100
AcDbText
10
56000
20
12400
30
0
40
300
1
STAIR OPENING
7
STANDARD
72
1
11
56000
21
12400
31
0
100
AcDbText
73
0
0
LWPOLYLINE
5
1C8
330
108
100
AcDbEntity
8
S-OPENINGS
100
AcDbPolyline
90
4
70
1
43
0
10
69000
20
10000
10
71500
20
10000
10
71500
20
12500
10
69000
20
12500
0
LINE
5
1C9
330
108
100
AcDbEntity
8
S-OPENINGS
100
AcDbLine
10
69000
20
10000
30
0
11
71500
21
12500
31
0
0
LINE
5
1CA
330
108
100
AcDbEntity
8
S-OPENINGS
100
AcDbLine
10
71500
20
10000
30
0
11
69000
21
12500
31
0
0
TEXT
5
1CB
330
108
100
AcDbEntity
8
S-TEXT
100
AcDbText
10
70250
20
11650
30
0
40
300
1
MECH. OPENING
7
STANDARD
72
1
11
70250
21
11650
31
0
100
AcDbText
73
0
0
LWPOLYLINE
5
1CC
330
108
100
AcDbEntity
8
S-VOIDS
100
AcDbPolyline
90
4
70
1
43
0
10
47000
20
17000
10
51000
20
17000
10
51000
20
20000
10
47000
20
20000
0
TEXT
5
1CD
330
108
100
AcDbEntity
8
S-TEXT
100
AcDbText
10
49000
20
18500
30
0
40
300
1
VOID
7
STANDARD
72
1
11
49000
21
18500
31
0
100
AcDbText
73
2
0
CIRCLE
5
1CE
330
108
100
AcDbEntity
8
S-UBAR
100
AcDbCircle
10
71000
20
4000
30
0
40
1200
0
TEXT
5
1CF
330
108
100
AcDbEntity
8
S-TEXT
100
AcDbText
10
71000
20
5500
30
0
40
250
1
U-BARS
7
STANDARD
72
1
11
71000
21
5500
31
0
100
AcDbText
73
0
0
CIRCLE
5
1D0
330
108
100
AcDbEntity
8
S-UBAR
100
AcDbCircle
10
49000
20
4000
30
0
40
900
0
TEXT
5
1D1
330
108
100
AcDbEntity
8
S-TEXT
100
AcDbText
10
49000
20
5200
30
0
40
250
1
U-BARS
7
STANDARD
72
1
11
49000
21
5200
31
0
100
AcDbText
73
0
0
TEXT
5
1D2
330
108
100
AcDbEntity
8
S-TEXT
100
AcDbText
10
60000
20
-6000
30
0
40
900
1
ROOF SLAB PLAN
7
STANDARD
72
1
11
60000
21
-6000
31
0
100
AcDbText
73
0
0
TEXT
5
1D3
330
108
100
AcDbEntity
8
S-TEXT
100
AcDbText
10
60000
20
-7500
30
0
40
450
1
SCALE 1:100 - SLAB THK 220 mm
7
STANDARD
72
1
11
60000
21
-7500
31
0
100
AcDbText
73
0
0
TEXT
5
1D4
330
108
100
AcDbEntity
8
S-NOTES
100
AcDbText
10
0
20
-12000
30
0
40
600
1
GENERAL NOTES
7
STANDARD
72
0
100
AcDbText
73
0
0
TEXT
5
1D5
330
108
100
AcDbEntity
8
S-NOTES
100
AcDbText
10
0
20
-12800
30
0
40
400
1
1. DESIGN CODE: SBC 304-18 (SAUDI BUILDING CODE).
7
STANDARD
72
0
100
AcDbText
73
0
0
TEXT
5
1D6
330
108
100
AcDbEntity
8
S-NOTES
100
AcDbText
10
0
20
-13600
30
0
40
400
1
2. CONCRETE: f'c = 35 MPa FOR ALL SLABS.
7
STANDARD
72
0
100
AcDbText
73
0
0
TEXT
5
1D7
330
108
100
AcDbEntity
8
S-NOTES
100
AcDbText
10
0
20
-14400
30
0
40
400
1
3. REINFORCEMENT: DEFORMED BARS fy = 420 MPa.
7
STANDARD
72
0
100
AcDbText
73
0
0
TEXT
5
1D8
330
108
100
AcDbEntity
8
S-NOTES
100
AcDbText
10
0
20
-15200
30
0
40
400
1
4. CLEAR COVER TO SLAB REINFORCEMENT = 25 mm.
7
STANDARD
72
0
100
AcDbText
73
0
0
TEXT
5
1D9
330
108
100
AcDbEntity
8
S-NOTES
100
AcDbText
10
0
20
-16000
30
0
40
400
1
5. TOP BARS OVER COLUMNS: T16@150 B.W. UNLESS NOTED.
7
STANDARD
72
0
100
AcDbText
73
0
0
TEXT
5
1DA
330
108
100
AcDbEntity
8
S-NOTES
100
AcDbText
10
0
20
-16800
30
0
40
400
1
6. PT SLABS: BONDED SYSTEM, TENDON LAYOUT BY PT CONTRACTOR.
7
STANDARD
72
0
100
AcDbText
73
0
0
TEXT
5
1DB
330
108
100
AcDbEntity
8
S-NOTES
100
AcDbText
10
0
20
-17600
30
0
40
400
1
7. ALL DIMENSIONS IN MILLIMETRES.
7
STANDARD
72
0
100
AcDbText
73
0
0
ENDSEC
0
SECTION
2
OBJECTS
0
DICTIONARY
5
100
330
0
100
AcDbDictionary
281
1
3
ACAD_GROUP
350
101
3
ACAD_LAYOUT
350
104
3
ACAD_PLOTSTYLENAME
350
102
0
DICTIONARY
5
101
330
100
100
AcDbDictionary
281
1
0
ACDBDICTIONARYWDFLT
5
102
330
100
100
AcDbDictionary
281
1
3
Normal
350
103
100
AcDbDictionaryWithDefault
340
103
0
ACDBPLACEHOLDER
5
103
330
102
0
DICTIONARY
5
104
330
100
100
AcDbDictionary
281
1
3
Model
350
105
3
Layout1
350
106
0
LAYOUT
5
105
330
104
100
AcDbPlotSettings
1

2
none_device
4

6

40
0
41
0
42
0
43
0
44
0
45
0
46
0
47
0
48
0
49
0
140
0
141
0
142
1
143
1
70
1712
72
0
73
0
74
5
7

75
16
147
1
148
0
149
0
100
AcDbLayout
1
Model
70
1
71
0
10
0
20
0
11
12
21
9
12
0
22
0
32
0
14
0
24
0
34
0
15
0
25
0
35
0
146
0
13
0
23
0
33
0
16
1
26
0
36
0
17
0
27
1
37
0
76
0
330
108
0
LAYOUT
5
106
330
104
100
AcDbPlotSettings
1

2
none_device
4

6

40
0
41
0
42
0
43
0
44
0
45
0
46
0
47
0
48
0
49
0
140
0
141
0
142
1
143
1
70
688
72
0
73
0
74
5
7

75
16
147
1
148
0
149
0
100
AcDbLayout
1
Layout1
70
1
71
1
10
0
20
0
11
12
21
9
12
0
22
0
32
0
14
0
24
0
34
0
15
0
25
0
35
0
146
0
13
0
23
0
33
0
16
1
26
0
36
0
17
0
27
1
37
0
76
0
330
109
0
ENDSEC
0
EOF
